<?xml version="1.0" encoding="utf-8"?>
<!-- Generator: Adobe Illustrator 27.2.0, SVG Export Plug-In . SVG Version: 6.00 Build 0)  -->
<svg version="1.1" id="Layer_1" xmlns="http://www.w3.org/2000/svg" xmlns:xlink="http://www.w3.org/1999/xlink" x="0px" y="0px"
	 viewBox="0 0 780 2540" style="enable-background:new 0 0 780 2540;" xml:space="preserve">
<style type="text/css">
	.st0{fill:#666666;}
	.st1{fill:#FFFFFF;}
	.st2{fill:#BBBBBB;}
	.st3{fill:none;stroke:#BBBBBB;stroke-width:2.1974;stroke-miterlimit:10;}
	.st4{fill:#FFFFFF;stroke:#BBBBBB;stroke-width:0.5749;stroke-miterlimit:10;}
	.st5{fill:#ECECEC;stroke:#BBBBBB;stroke-width:0.8758;stroke-linejoin:round;stroke-miterlimit:10;}
	.st6{fill:#ECECEC;}
</style>
<g>
	<g>
		<g>
			<path class="st0" d="M554.5,2246.6c-3.4,0-6.8-0.9-9.8-2.6c0,0-475.5-290.1-477.5-291.2l-35.7-20.5c-4-2.3-6.8-6.5-7-11.2
				c-0.2-5,2.3-9.4,6.6-11.9l636.2-392l-385.9-215.8c-0.8-0.3-1.5-0.6-2.2-1l-36.1-20.7c-4.1-2.4-6.6-6.7-6.6-11.4
				c0-4.8,2.5-9,6.6-11.4l322.8-197.2L191.9,852.9c-1-0.3-2-0.7-2.9-1.2l-35.7-20.6c-4-2.3-6.8-6.5-6.9-11.1c-0.2-5,2.3-9.5,6.6-12
				l275.8-159.3L44,427c-0.9-0.3-1.8-0.7-2.6-1.1L9.6,407.5c-4.9-2.8-8.2-8-8.2-13.7c0-5.7,2.9-10.8,7.8-13.7l2.3-1.3
				c0.8-0.6,1.6-1.2,2.5-1.7l27.6-15.8c0.6-0.3,1.2-0.6,1.9-0.9l583-336.6c3.5-2,7.5-3.1,11.6-3.1c4.1,0,8.1,1.1,11.6,3.1l25.7,14.8
				c5.2,3,8.3,8.4,8.3,14.4s-3.1,11.4-8.3,14.4l-564.7,326l422.5,243.7c4.6,2.6,7.1,7.7,6.5,13c-0.4,4.3-2.8,8.1-6.5,10.2
				L258.2,819.3l412.9,229.1c4.3,2.5,6.8,7,6.6,12c-0.2,4.6-2.9,8.8-6.9,11.1L635,1092c-0.9,0.5-1.8,0.9-2.8,1.2l-284,174.9
				l423.9,237.6c6.2,3.6,8.4,11.5,5,17.8c-1.2,2.2-2.9,4-5.1,5.2l-629.1,388c-0.1,0-0.1,0.1,0,0.2l454.1,285.4
				c4.1,2.4,6.6,6.7,6.6,11.4c0,4.8-2.5,9.1-6.6,11.4l-32.6,18.8C561.3,2245.7,557.9,2246.6,554.5,2246.6z"/>
			<path class="st0" d="M43.5,359.9l583-336.6c3.5-2,7.5-3.1,11.6-3.1c4.1,0,8.1,1.1,11.6,3.1l25.7,14.8c5.2,3,8.3,8.4,8.3,14.4
				s-3.1,11.4-8.3,14.4l-564.7,326l422.5,243.7c4.6,2.6,7.1,7.7,6.5,13c-0.4,4.3-2.8,8.1-6.5,10.2L258.2,818.9L671.1,1048
				c4.3,2.5,6.8,7,6.6,12c-0.2,4.6-2.9,8.8-6.9,11.1l-35.7,20.6c-0.9,0.5-1.8,0.9-2.8,1.2l-284,174.9l423.9,237.6
				c6.2,3.6,8.4,11.5,5,17.8c-1.2,2.2-2.9,4-5.1,5.2l-629.1,388c-0.1,0-0.1,0.1,0,0.2l454.1,285.4c4.1,2.4,6.6,6.7,6.6,11.4
				c0,4.8-2.5,9.1-6.6,11.4l-32.6,18.8c-3,1.7-6.4,2.6-9.8,2.6c-3.4,0-6.8-0.9-9.8-2.6c0,0-417-254.6-471.3-287.6c0,0,0,0-0.1,0
				c0,0,0,0-0.1,0c-3.7-2.2-5.8-3.4-5.9-3.5c0,0-5.9-3.4-6-3.4l-29.9-17.2c-4-2.3-6.8-6.5-7-11.2c-0.2-5,2.3-9.4,6.6-11.9l636.2-392
				L281.3,1301c-0.8-0.3-1.5-0.6-2.2-1l-36.1-20.7c-4.1-2.4-6.6-6.7-6.6-11.4c0-4.8,2.5-9,6.6-11.4l322.8-197.2L191.9,852.6
				c-1-0.3-2-0.7-2.9-1.2l-35.7-20.6c-4-2.3-6.8-6.5-6.9-11.1c-0.2-5,2.3-9.5,6.6-12l275.8-159.3L44,426.6c-0.9-0.3-1.8-0.7-2.6-1.1
				L9.6,407.1c-4.9-2.8-8.2-8-8.2-13.7c0-5.7,2.9-10.8,7.8-13.7l2.3-1.3c0.8-0.6,1.6-1.2,2.5-1.7l27.6-15.8
				C42.2,360.5,42.8,360.2,43.5,359.9z"/>
			<path class="st0" d="M43.5,359.6L626.5,23c3.5-2,7.5-3.1,11.6-3.1c4.1,0,8.1,1.1,11.6,3.1l25.7,14.8c5.2,3,8.3,8.4,8.3,14.4
				s-3.1,11.4-8.3,14.4l-564.7,326l422.5,243.7c4.6,2.6,7.1,7.7,6.5,13c-0.4,4.3-2.8,8.1-6.5,10.2L258.2,818.5l412.9,229.1
				c4.3,2.5,6.8,7,6.6,12c-0.2,4.6-2.9,8.8-6.9,11.1l-35.7,20.6c-0.9,0.5-1.8,0.9-2.8,1.2l-284,174.9l423.9,237.6
				c6.2,3.6,8.4,11.5,5,17.8c-1.2,2.2-2.9,4-5.1,5.2l-629.1,388c-0.1,0-0.1,0.1,0,0.2l454.1,285.4c4.1,2.4,6.6,6.7,6.6,11.4
				c0,4.8-2.5,9.1-6.6,11.4l-32.6,18.8c-3,1.7-6.4,2.6-9.8,2.6c-3.4,0-6.8-0.9-9.8-2.6c0,0-418-255.3-471.2-287.7c0,0,0,0-0.1,0
				c0,0,0,0-0.1,0c-3.7-2.1-5.7-3.3-5.9-3.4c-0.1,0-5.9-3.3-6-3.4l-30-17.2c-4-2.3-6.8-6.5-7-11.2c-0.2-5,2.3-9.4,6.6-11.9
				l636.2-392l-385.9-215.8c-0.8-0.3-1.5-0.6-2.2-1l-36.1-20.7c-4.1-2.4-6.6-6.7-6.6-11.4c0-4.8,2.5-9,6.6-11.4l322.8-197.2
				L191.9,852.2c-1-0.3-2-0.7-2.9-1.2l-35.7-20.6c-4-2.3-6.8-6.5-6.9-11.1c-0.2-5,2.3-9.5,6.6-12l275.8-159.3L44,426.2
				c-0.9-0.3-1.8-0.7-2.6-1.1L9.6,406.7c-4.9-2.8-8.2-8-8.2-13.7c0-5.7,2.9-10.8,7.8-13.7l2.3-1.3c0.8-0.6,1.6-1.2,2.5-1.7
				l27.6-15.8C42.2,360.1,42.8,359.8,43.5,359.6z"/>
			<path class="st0" d="M43.5,359.2l583-336.6c3.5-2,7.5-3.1,11.6-3.1c4.1,0,8.1,1.1,11.6,3.1l25.7,14.8c5.2,3,8.3,8.4,8.3,14.4
				s-3.1,11.4-8.3,14.4l-564.7,326L533.1,636c4.6,2.6,7.1,7.7,6.5,13c-0.4,4.3-2.8,8.1-6.5,10.2L258.2,818.2l412.9,229.1
				c4.3,2.5,6.8,7,6.6,12c-0.2,4.6-2.9,8.8-6.9,11.1l-35.7,20.6c-0.9,0.5-1.8,0.9-2.8,1.2l-284,174.9l423.9,237.6
				c6.2,3.6,8.4,11.5,5,17.8c-1.2,2.2-2.9,4-5.1,5.2l-629.1,388c-0.1,0-0.1,0.1,0,0.2l454.1,285.4c4.1,2.4,6.6,6.7,6.6,11.4
				c0,4.8-2.5,9.1-6.6,11.4l-32.6,18.8c-3,1.7-6.4,2.6-9.8,2.6c-3.4,0-6.8-0.9-9.8-2.6c0,0-418.9-256-471-287.8c0,0-0.1,0-0.1,0
				c0,0,0,0-0.1,0c-3.6-2.1-5.7-3.2-5.9-3.3c-0.1,0-5.9-3.3-6-3.3l-30.1-17.3c-4-2.3-6.8-6.5-7-11.2c-0.2-5,2.3-9.4,6.6-11.9
				l636.2-392l-385.9-215.8c-0.8-0.3-1.5-0.6-2.2-1l-36.1-20.7c-4.1-2.4-6.6-6.7-6.6-11.4c0-4.8,2.5-9,6.6-11.4l322.8-197.2
				L191.9,851.8c-1-0.3-2-0.7-2.9-1.2L153.2,830c-4-2.3-6.8-6.5-6.9-11.1c-0.2-5,2.3-9.5,6.6-12l275.8-159.3L44,425.8
				c-0.9-0.3-1.8-0.7-2.6-1.1L9.6,406.3c-4.9-2.8-8.2-8-8.2-13.7c0-5.7,2.9-10.8,7.8-13.7l2.3-1.3c0.8-0.6,1.6-1.2,2.5-1.7
				l27.6-15.8C42.2,359.7,42.8,359.4,43.5,359.2z"/>
			<path class="st0" d="M43.5,358.8l583-336.6c3.5-2,7.5-3.1,11.6-3.1c4.1,0,8.1,1.1,11.6,3.1l25.7,14.8c5.2,3,8.3,8.4,8.3,14.4
				s-3.1,11.4-8.3,14.4l-564.7,326l422.5,243.7c4.6,2.6,7.1,7.7,6.5,13c-0.4,4.3-2.8,8.1-6.5,10.2L258.2,817.8l412.9,229.1
				c4.3,2.5,6.8,7,6.6,12c-0.2,4.6-2.9,8.8-6.9,11.1l-35.7,20.6c-0.9,0.5-1.8,0.9-2.8,1.2l-284,174.9l423.9,237.6
				c6.2,3.6,8.4,11.5,5,17.8c-1.2,2.2-2.9,4-5.1,5.2l-629.1,388c-0.1,0-0.1,0.1,0,0.2l454.1,285.4c4.1,2.4,6.6,6.7,6.6,11.4
				c0,4.8-2.5,9.1-6.6,11.4l-32.6,18.8c-3,1.7-6.4,2.6-9.8,2.6c-3.4,0-6.8-0.9-9.8-2.6c0,0-419.9-256.8-470.9-287.8c0,0-0.1,0-0.1,0
				c0,0,0,0-0.1,0c-3.6-2-5.7-3.1-6-3.2c-0.2,0-5.8-3.2-6-3.3l-30.2-17.4c-4-2.3-6.8-6.5-7-11.2c-0.2-5,2.3-9.4,6.6-11.9l636.2-392
				l-385.9-215.8c-0.8-0.3-1.5-0.6-2.2-1l-36.1-20.7c-4.1-2.4-6.6-6.7-6.6-11.4c0-4.8,2.5-9,6.6-11.4l322.8-197.2L191.9,851.4
				c-1-0.3-2-0.7-2.9-1.2l-35.7-20.6c-4-2.3-6.8-6.5-6.9-11.1c-0.2-5,2.3-9.5,6.6-12l275.8-159.3L44,425.5c-0.9-0.3-1.8-0.7-2.6-1.1
				L9.6,406c-4.9-2.8-8.2-8-8.2-13.7c0-5.7,2.9-10.8,7.8-13.7l2.3-1.3c0.8-0.6,1.6-1.2,2.5-1.7l27.6-15.8
				C42.2,359.3,42.8,359,43.5,358.8z"/>
			<path class="st0" d="M43.5,358.4l583-336.6c3.5-2,7.5-3.1,11.6-3.1c4.1,0,8.1,1.1,11.6,3.1l25.7,14.8c5.2,3,8.3,8.4,8.3,14.4
				s-3.1,11.4-8.3,14.4l-564.7,326l422.5,243.7c4.6,2.6,7.1,7.7,6.5,13c-0.4,4.3-2.8,8.1-6.5,10.2L258.2,817.4l412.9,229.1
				c4.3,2.5,6.8,7,6.6,12c-0.2,4.6-2.9,8.8-6.9,11.1l-35.7,20.6c-0.9,0.5-1.8,0.9-2.8,1.2l-284,174.9l423.9,237.6
				c6.2,3.6,8.4,11.5,5,17.8c-1.2,2.2-2.9,4-5.1,5.2l-629.1,388c-0.1,0-0.1,0.1,0,0.2l454.1,285.4c4.1,2.4,6.6,6.7,6.6,11.4
				c0,4.8-2.5,9.1-6.6,11.4l-32.6,18.8c-3,1.7-6.4,2.6-9.8,2.6c-3.4,0-6.8-0.9-9.8-2.6c0,0-420.8-257.5-470.8-287.9c0,0-0.1,0-0.1,0
				c0,0,0,0-0.1,0c-3.6-1.9-5.6-3-6-3.1c-0.2,0-5.8-3.1-6-3.3l-30.3-17.4c-4-2.3-6.8-6.5-7-11.2c-0.2-5,2.3-9.4,6.6-11.9l636.2-392
				l-385.9-215.8c-0.8-0.3-1.5-0.6-2.2-1l-36.1-20.7c-4.1-2.4-6.6-6.7-6.6-11.4c0-4.8,2.5-9,6.6-11.4l322.8-197.2L191.9,851
				c-1-0.3-2-0.7-2.9-1.2l-35.7-20.6c-4-2.3-6.8-6.5-6.9-11.1c-0.2-5,2.3-9.5,6.6-12l275.8-159.3L44,425.1c-0.9-0.3-1.8-0.7-2.6-1.1
				L9.6,405.6c-4.9-2.8-8.2-8-8.2-13.7c0-5.7,2.9-10.8,7.8-13.7l2.3-1.3c0.8-0.6,1.6-1.2,2.5-1.7l27.6-15.8
				C42.2,359,42.8,358.7,43.5,358.4z"/>
			<path class="st0" d="M43.5,358l583-336.6c3.5-2,7.5-3.1,11.6-3.1c4.1,0,8.1,1.1,11.6,3.1l25.7,14.8c5.2,3,8.3,8.4,8.3,14.4
				s-3.1,11.4-8.3,14.4l-564.7,326l422.5,243.7c4.6,2.6,7.1,7.7,6.5,13c-0.4,4.3-2.8,8.1-6.5,10.2L258.2,817l412.9,229.1
				c4.3,2.5,6.8,7,6.6,12c-0.2,4.6-2.9,8.8-6.9,11.1l-35.7,20.6c-0.9,0.5-1.8,0.9-2.8,1.2l-284,174.9l423.9,237.6
				c6.2,3.6,8.4,11.5,5,17.8c-1.2,2.2-2.9,4-5.1,5.2l-629.1,388c-0.1,0-0.1,0.1,0,0.2L596.9,2200c4.1,2.4,6.6,6.7,6.6,11.4
				c0,4.8-2.5,9.1-6.6,11.4l-32.6,18.8c-3,1.7-6.4,2.6-9.8,2.6c-3.4,0-6.8-0.9-9.8-2.6c0,0-421.8-258.2-470.6-288c0,0-0.1,0-0.1,0
				c0,0,0,0-0.1,0c-3.5-1.9-5.6-2.9-6-3c-0.3,0-5.8-3.1-6-3.2L31.4,1930c-4-2.3-6.8-6.5-7-11.2c-0.2-5,2.3-9.4,6.6-11.9l636.2-392
				l-385.9-215.8c-0.8-0.3-1.5-0.6-2.2-1l-36.1-20.7c-4.1-2.4-6.6-6.7-6.6-11.4c0-4.8,2.5-9,6.6-11.4l322.8-197.2L191.9,850.7
				c-1-0.3-2-0.7-2.9-1.2l-35.7-20.6c-4-2.3-6.8-6.5-6.9-11.1c-0.2-5,2.3-9.5,6.6-12l275.8-159.3L44,424.7c-0.9-0.3-1.8-0.7-2.6-1.1
				L9.6,405.2c-4.9-2.8-8.2-8-8.2-13.7c0-5.7,2.9-10.8,7.8-13.7l2.3-1.3c0.8-0.6,1.6-1.2,2.5-1.7l27.6-15.8
				C42.2,358.6,42.8,358.3,43.5,358z"/>
			<path class="st0" d="M43.5,357.7l583-336.6c3.5-2,7.5-3.1,11.6-3.1c4.1,0,8.1,1.1,11.6,3.1l25.7,14.8c5.2,3,8.3,8.4,8.3,14.4
				s-3.1,11.4-8.3,14.4l-564.7,326l422.5,243.7c4.6,2.6,7.1,7.7,6.5,13c-0.4,4.3-2.8,8.1-6.5,10.2L258.2,816.6l412.9,229.1
				c4.3,2.5,6.8,7,6.6,12c-0.2,4.6-2.9,8.8-6.9,11.1l-35.7,20.6c-0.9,0.5-1.8,0.9-2.8,1.2l-284,174.9L772.1,1503
				c6.2,3.6,8.4,11.5,5,17.8c-1.2,2.2-2.9,4-5.1,5.2l-629.1,388c-0.1,0-0.1,0.1,0,0.2l454.1,285.4c4.1,2.4,6.6,6.7,6.6,11.4
				c0,4.8-2.5,9.1-6.6,11.4l-32.6,18.8c-3,1.7-6.4,2.6-9.8,2.6c-3.4,0-6.8-0.9-9.8-2.6c0,0-422.7-259-470.5-288.1c0,0-0.1,0-0.1,0
				c0,0,0,0,0,0c-3.5-1.8-5.6-2.8-6-2.9c-0.3,0-5.8-3-6-3.2l-30.6-17.6c-4-2.3-6.8-6.5-7-11.2c-0.2-5,2.3-9.4,6.6-11.9l636.2-392
				l-385.9-215.8c-0.8-0.3-1.5-0.6-2.2-1l-36.1-20.7c-4.1-2.4-6.6-6.7-6.6-11.4c0-4.8,2.5-9,6.6-11.4l322.8-197.2L191.9,850.3
				c-1-0.3-2-0.7-2.9-1.2l-35.7-20.6c-4-2.3-6.8-6.5-6.9-11.1c-0.2-5,2.3-9.5,6.6-12l275.8-159.3L44,424.3c-0.9-0.3-1.8-0.7-2.6-1.1
				L9.6,404.8c-4.9-2.8-8.2-8-8.2-13.7c0-5.7,2.9-10.8,7.8-13.7l2.3-1.3c0.8-0.6,1.6-1.2,2.5-1.7l27.6-15.8
				C42.2,358.2,42.8,357.9,43.5,357.7z"/>
			<path class="st0" d="M43.5,357.3l583-336.6c3.5-2,7.5-3.1,11.6-3.1c4.1,0,8.1,1.1,11.6,3.1l25.7,14.8c5.2,3,8.3,8.4,8.3,14.4
				s-3.1,11.4-8.3,14.4l-564.7,326l422.5,243.7c4.6,2.6,7.1,7.7,6.5,13c-0.4,4.3-2.8,8.1-6.5,10.2L258.2,816.3l412.9,229.1
				c4.3,2.5,6.8,7,6.6,12c-0.2,4.6-2.9,8.8-6.9,11.1l-35.7,20.6c-0.9,0.5-1.8,0.9-2.8,1.2l-284,174.9l423.9,237.6
				c6.2,3.6,8.4,11.5,5,17.8c-1.2,2.2-2.9,4-5.1,5.2l-629.1,388c-0.1,0-0.1,0.1,0,0.2l454.1,285.4c4.1,2.4,6.6,6.7,6.6,11.4
				c0,4.8-2.5,9.1-6.6,11.4l-32.6,18.8c-3,1.7-6.4,2.6-9.8,2.6c-3.4,0-6.8-0.9-9.8-2.6c0,0-423.7-259.7-470.3-288.1c0,0-0.1,0-0.1,0
				c0,0,0,0,0,0c-3.5-1.7-5.5-2.7-6-2.8c-0.4,0-5.7-3-6-3.2l-30.7-17.7c-4-2.3-6.8-6.5-7-11.2c-0.2-5,2.3-9.4,6.6-11.9l636.2-392
				l-385.9-215.8c-0.8-0.3-1.5-0.6-2.2-1l-36.1-20.7c-4.1-2.4-6.6-6.7-6.6-11.4c0-4.8,2.5-9,6.6-11.4l322.8-197.2L191.9,849.9
				c-1-0.3-2-0.7-2.9-1.2l-35.7-20.6c-4-2.3-6.8-6.5-6.9-11.1c-0.2-5,2.3-9.5,6.6-12l275.8-159.3L44,423.9c-0.9-0.3-1.8-0.7-2.6-1.1
				L9.6,404.4c-4.9-2.8-8.2-8-8.2-13.7c0-5.7,2.9-10.8,7.8-13.7l2.3-1.3c0.8-0.6,1.6-1.2,2.5-1.7l27.6-15.8
				C42.2,357.8,42.8,357.5,43.5,357.3z"/>
			<path class="st0" d="M43.5,356.9l583-336.6c3.5-2,7.5-3.1,11.6-3.1c4.1,0,8.1,1.1,11.6,3.1l25.7,14.8c5.2,3,8.3,8.4,8.3,14.4
				S680.6,61,675.3,64L110.7,390l422.5,243.7c4.6,2.6,7.1,7.7,6.5,13c-0.4,4.3-2.8,8.1-6.5,10.2L258.2,815.9L671.1,1045
				c4.3,2.5,6.8,7,6.6,12c-0.2,4.6-2.9,8.8-6.9,11.1l-35.7,20.6c-0.9,0.5-1.8,0.9-2.8,1.2l-284,174.9l423.9,237.6
				c6.2,3.6,8.4,11.5,5,17.8c-1.2,2.2-2.9,4-5.1,5.2l-629.1,388c-0.1,0-0.1,0.1,0,0.2l454.1,285.4c4.1,2.4,6.6,6.7,6.6,11.4
				c0,4.8-2.5,9.1-6.6,11.4l-32.6,18.8c-3,1.7-6.4,2.6-9.8,2.6c-3.4,0-6.8-0.9-9.8-2.6c0,0-424.6-260.5-470.2-288.2c0,0-0.1,0-0.1,0
				c0,0,0,0,0,0c-3.4-1.7-5.5-2.6-6-2.6c-0.4,0-5.7-2.9-6.1-3.1l-30.8-17.7c-4-2.3-6.8-6.5-7-11.2c-0.2-5,2.3-9.4,6.6-11.9
				l636.2-392l-385.9-215.8c-0.8-0.3-1.5-0.6-2.2-1l-36.1-20.7c-4.1-2.4-6.6-6.7-6.6-11.4c0-4.8,2.5-9,6.6-11.4l322.8-197.2
				L191.9,849.5c-1-0.3-2-0.7-2.9-1.2l-35.7-20.6c-4-2.3-6.8-6.5-6.9-11.1c-0.2-5,2.3-9.5,6.6-12l275.8-159.3L44,423.6
				c-0.9-0.3-1.8-0.7-2.6-1.1L9.6,404.1c-4.9-2.8-8.2-8-8.2-13.7c0-5.7,2.9-10.8,7.8-13.7l2.3-1.3c0.8-0.6,1.6-1.2,2.5-1.7
				l27.6-15.8C42.2,357.4,42.8,357.1,43.5,356.9z"/>
			<path class="st0" d="M43.5,356.5l583-336.6c3.5-2,7.5-3.1,11.6-3.1c4.1,0,8.1,1.1,11.6,3.1l25.7,14.8c5.2,3,8.3,8.4,8.3,14.4
				s-3.1,11.4-8.3,14.4l-564.7,326l422.5,243.7c4.6,2.6,7.1,7.7,6.5,13c-0.4,4.3-2.8,8.1-6.5,10.2L258.2,815.5l412.9,229.1
				c4.3,2.5,6.8,7,6.6,12c-0.2,4.6-2.9,8.8-6.9,11.1l-35.7,20.6c-0.9,0.5-1.8,0.9-2.8,1.2l-284,174.9l423.9,237.6
				c6.2,3.6,8.4,11.5,5,17.8c-1.2,2.2-2.9,4-5.1,5.2l-629.1,388c-0.1,0-0.1,0.1,0,0.2l454.1,285.4c4.1,2.4,6.6,6.7,6.6,11.4
				c0,4.8-2.5,9.1-6.6,11.4l-32.6,18.8c-3,1.7-6.4,2.6-9.8,2.6c-3.4,0-6.8-0.9-9.8-2.6c0,0-425.5-261.3-470.1-288.3c0,0-0.1,0-0.1,0
				c0,0,0,0,0,0c-3.4-1.6-5.5-2.5-6-2.5c-0.5,0-5.7-2.9-6.1-3.1l-30.9-17.8c-4-2.3-6.8-6.5-7-11.2c-0.2-5,2.3-9.4,6.6-11.9
				l636.2-392l-385.9-215.8c-0.8-0.3-1.5-0.6-2.2-1l-36.1-20.7c-4.1-2.4-6.6-6.7-6.6-11.4c0-4.8,2.5-9,6.6-11.4l322.8-197.2
				L191.9,849.1c-1-0.3-2-0.7-2.9-1.2l-35.7-20.6c-4-2.3-6.8-6.5-6.9-11.1c-0.2-5,2.3-9.5,6.6-12L428.7,645L44,423.2
				c-0.9-0.3-1.8-0.7-2.6-1.1L9.6,403.7c-4.9-2.8-8.2-8-8.2-13.7c0-5.7,2.9-10.8,7.8-13.7l2.3-1.3c0.8-0.6,1.6-1.2,2.5-1.7
				l27.6-15.8C42.2,357.1,42.8,356.8,43.5,356.5z"/>
			<path class="st0" d="M43.5,356.1l583-336.6c3.5-2,7.5-3.1,11.6-3.1c4.1,0,8.1,1.1,11.6,3.1l25.7,14.8c5.2,3,8.3,8.4,8.3,14.4
				s-3.1,11.4-8.3,14.4l-564.7,326L533.1,633c4.6,2.6,7.1,7.7,6.5,13c-0.4,4.3-2.8,8.1-6.5,10.2L258.2,815.1l412.9,229.1
				c4.3,2.5,6.8,7,6.6,12c-0.2,4.6-2.9,8.8-6.9,11.1l-35.7,20.6c-0.9,0.5-1.8,0.9-2.8,1.2l-284,174.9l423.9,237.6
				c6.2,3.6,8.4,11.5,5,17.8c-1.2,2.2-2.9,4-5.1,5.2l-629.1,388c-0.1,0-0.1,0.1,0,0.2l454.1,285.4c4.1,2.4,6.6,6.7,6.6,11.4
				c0,4.8-2.5,9.1-6.6,11.4l-32.6,18.8c-3,1.7-6.4,2.6-9.8,2.6c-3.4,0-6.8-0.9-9.8-2.6c0,0-426.4-262-469.9-288.3c0,0-0.1,0-0.1,0
				c0,0,0,0,0,0c-3.4-1.5-5.5-2.4-6.1-2.4c-0.5,0-5.6-2.8-6.1-3.1l-31-17.9c-4-2.3-6.8-6.5-7-11.2c-0.2-5,2.3-9.4,6.6-11.9
				l636.2-392l-385.9-215.8c-0.8-0.3-1.5-0.6-2.2-1l-36.1-20.7c-4.1-2.4-6.6-6.7-6.6-11.4c0-4.8,2.5-9,6.6-11.4l322.8-197.2
				L191.9,848.8c-1-0.3-2-0.7-2.9-1.2L153.2,827c-4-2.3-6.8-6.5-6.9-11.1c-0.2-5,2.3-9.5,6.6-12l275.8-159.3L44,422.8
				c-0.9-0.3-1.8-0.7-2.6-1.1L9.6,403.3c-4.9-2.8-8.2-8-8.2-13.7c0-5.7,2.9-10.8,7.8-13.7l2.3-1.3c0.8-0.6,1.6-1.2,2.5-1.7L41.6,357
				C42.2,356.7,42.8,356.4,43.5,356.1z"/>
			<path class="st0" d="M43.5,355.8l583-336.6c3.5-2,7.5-3.1,11.6-3.1c4.1,0,8.1,1.1,11.6,3.1L675.3,34c5.2,3,8.3,8.4,8.3,14.4
				s-3.1,11.4-8.3,14.4l-564.7,326l422.5,243.7c4.6,2.6,7.1,7.7,6.5,13c-0.4,4.3-2.8,8.1-6.5,10.2L258.2,814.7l412.9,229.1
				c4.3,2.5,6.8,7,6.6,12c-0.2,4.6-2.9,8.8-6.9,11.1l-35.7,20.6c-0.9,0.5-1.8,0.9-2.8,1.2l-284,174.9l423.9,237.6
				c6.2,3.6,8.4,11.5,5,17.8c-1.2,2.2-2.9,4-5.1,5.2l-629.1,388c-0.1,0-0.1,0.1,0,0.2l454.1,285.4c4.1,2.4,6.6,6.7,6.6,11.4
				c0,4.8-2.5,9.1-6.6,11.4l-32.6,18.8c-3,1.7-6.4,2.6-9.8,2.6c-3.4,0-6.8-0.9-9.8-2.6c0,0-427.4-262.8-469.8-288.4c0,0-0.1,0-0.1,0
				c0,0,0,0,0,0c-3.3-1.5-5.4-2.3-6.1-2.3c-0.5,0-5.6-2.8-6.1-3l-31.2-17.9c-4-2.3-6.8-6.5-7-11.2c-0.2-5,2.3-9.4,6.6-11.9
				l636.2-392l-385.9-215.8c-0.8-0.3-1.5-0.6-2.2-1l-36.1-20.7c-4.1-2.4-6.6-6.7-6.6-11.4c0-4.8,2.5-9,6.6-11.4L565.8,1055
				L191.9,848.4c-1-0.3-2-0.7-2.9-1.2l-35.7-20.6c-4-2.3-6.8-6.5-6.9-11.1c-0.2-5,2.3-9.5,6.6-12l275.8-159.3L44,422.4
				c-0.9-0.3-1.8-0.7-2.6-1.1L9.6,402.9c-4.9-2.8-8.2-8-8.2-13.7c0-5.7,2.9-10.8,7.8-13.7l2.3-1.3c0.8-0.6,1.6-1.2,2.5-1.7
				l27.6-15.8C42.2,356.3,42.8,356,43.5,355.8z"/>
			<path class="st0" d="M43.5,355.4l583-336.6c3.5-2,7.5-3.1,11.6-3.1c4.1,0,8.1,1.1,11.6,3.1l25.7,14.8c5.2,3,8.3,8.4,8.3,14.4
				s-3.1,11.4-8.3,14.4l-564.7,326l422.5,243.7c4.6,2.6,7.1,7.7,6.5,13c-0.4,4.3-2.8,8.1-6.5,10.2L258.2,814.4l412.9,229.1
				c4.3,2.5,6.8,7,6.6,12c-0.2,4.6-2.9,8.8-6.9,11.1L635,1087c-0.9,0.5-1.8,0.9-2.8,1.2l-284,174.9l423.9,237.6
				c6.2,3.6,8.4,11.5,5,17.8c-1.2,2.2-2.9,4-5.1,5.2l-629.1,388c-0.1,0-0.1,0.1,0,0.2l454.1,285.4c4.1,2.4,6.6,6.7,6.6,11.4
				c0,4.8-2.5,9.1-6.6,11.4l-32.6,18.8c-3,1.7-6.4,2.6-9.8,2.6c-3.4,0-6.8-0.9-9.8-2.6c0,0-428.3-263.5-469.7-288.5c0,0-0.1,0-0.1,0
				c0,0,0,0,0,0c-3.3-1.4-5.4-2.2-6.1-2.2c-0.6,0-5.6-2.7-6.1-3l-31.3-18c-4-2.3-6.8-6.5-7-11.2c-0.2-5,2.3-9.4,6.6-11.9l636.2-392
				l-385.9-215.8c-0.8-0.3-1.5-0.6-2.2-1l-36.1-20.7c-4.1-2.4-6.6-6.7-6.6-11.4c0-4.8,2.5-9,6.6-11.4l322.8-197.2L191.9,848
				c-1-0.3-2-0.7-2.9-1.2l-35.7-20.6c-4-2.3-6.8-6.5-6.9-11.1c-0.2-5,2.3-9.5,6.6-12l275.8-159.3L44,422c-0.9-0.3-1.8-0.7-2.6-1.1
				L9.6,402.5c-4.9-2.8-8.2-8-8.2-13.7c0-5.7,2.9-10.8,7.8-13.7l2.3-1.3c0.8-0.6,1.6-1.2,2.5-1.7l27.6-15.8
				C42.2,355.9,42.8,355.6,43.5,355.4z"/>
			<path class="st0" d="M43.5,355l583-336.6c3.5-2,7.5-3.1,11.6-3.1c4.1,0,8.1,1.1,11.6,3.1l25.7,14.8c5.2,3,8.3,8.4,8.3,14.4
				s-3.1,11.4-8.3,14.4l-564.7,326l422.5,243.7c4.6,2.6,7.1,7.7,6.5,13c-0.4,4.3-2.8,8.1-6.5,10.2L258.2,814l412.9,229.1
				c4.3,2.5,6.8,7,6.6,12c-0.2,4.6-2.9,8.8-6.9,11.1l-35.7,20.6c-0.9,0.5-1.8,0.9-2.8,1.2l-284,174.9l423.9,237.6
				c6.2,3.6,8.4,11.5,5,17.8c-1.2,2.2-2.9,4-5.1,5.2l-629.1,388c-0.1,0-0.1,0.1,0,0.2l454.1,285.4c4.1,2.4,6.6,6.7,6.6,11.4
				c0,4.8-2.5,9.1-6.6,11.4l-32.6,18.8c-3,1.7-6.4,2.6-9.8,2.6c-3.4,0-6.8-0.9-9.8-2.6c0,0-429.3-264.2-469.5-288.6c0,0-0.1,0-0.1,0
				c0,0,0,0,0,0c-3.3-1.3-5.4-2.1-6.1-2.1c-0.6,0-5.6-2.6-6.1-3l-31.4-18.1c-4-2.3-6.8-6.5-7-11.2c-0.2-5,2.3-9.4,6.6-11.9
				l636.2-392L281.3,1296c-0.8-0.3-1.5-0.6-2.2-1l-36.1-20.7c-4.1-2.4-6.6-6.7-6.6-11.4c0-4.8,2.5-9,6.6-11.4l322.8-197.2
				L191.9,847.6c-1-0.3-2-0.7-2.9-1.2l-35.7-20.6c-4-2.3-6.8-6.5-6.9-11.1c-0.2-5,2.3-9.5,6.6-12l275.8-159.3L44,421.7
				c-0.9-0.3-1.8-0.7-2.6-1.1L9.6,402.2c-4.9-2.8-8.2-8-8.2-13.7c0-5.7,2.9-10.8,7.8-13.7l2.3-1.3c0.8-0.6,1.6-1.2,2.5-1.7
				l27.6-15.8C42.2,355.5,42.8,355.2,43.5,355z"/>
			<path class="st0" d="M43.5,354.6L626.5,18c3.5-2,7.5-3.1,11.6-3.1c4.1,0,8.1,1.1,11.6,3.1l25.7,14.8c5.2,3,8.3,8.4,8.3,14.4
				s-3.1,11.4-8.3,14.4l-564.7,326l422.5,243.7c4.6,2.6,7.1,7.7,6.5,13c-0.4,4.3-2.8,8.1-6.5,10.2L258.2,813.6l412.9,229.1
				c4.3,2.5,6.8,7,6.6,12c-0.2,4.6-2.9,8.8-6.9,11.1l-35.7,20.6c-0.9,0.5-1.8,0.9-2.8,1.2l-284,174.9L772.1,1500
				c6.2,3.6,8.4,11.5,5,17.8c-1.2,2.2-2.9,4-5.1,5.2l-629.1,388c-0.1,0-0.1,0.1,0,0.2l454.1,285.4c4.1,2.4,6.6,6.7,6.6,11.4
				c0,4.8-2.5,9.1-6.6,11.4l-32.6,18.8c-3,1.7-6.4,2.6-9.8,2.6c-3.4,0-6.8-0.9-9.8-2.6c0,0-430.2-265-469.4-288.6c0,0-0.1,0-0.1,0
				c0,0,0,0,0,0c-3.2-1.3-5.3-2-6.1-2c-0.7,0-5.5-2.6-6.1-2.9l-31.5-18.1c-4-2.3-6.8-6.5-7-11.2c-0.2-5,2.3-9.4,6.6-11.9l636.2-392
				l-385.9-215.8c-0.8-0.3-1.5-0.6-2.2-1l-36.1-20.7c-4.1-2.4-6.6-6.7-6.6-11.4c0-4.8,2.5-9,6.6-11.4l322.8-197.2L191.9,847.2
				c-1-0.3-2-0.7-2.9-1.2l-35.7-20.6c-4-2.3-6.8-6.5-6.9-11.1c-0.2-5,2.3-9.5,6.6-12l275.8-159.3L44,421.3c-0.9-0.3-1.8-0.7-2.6-1.1
				L9.6,401.8c-4.9-2.8-8.2-8-8.2-13.7c0-5.7,2.9-10.8,7.8-13.7l2.3-1.3c0.8-0.6,1.6-1.2,2.5-1.7l27.6-15.8
				C42.2,355.2,42.8,354.9,43.5,354.6z"/>
			<path class="st0" d="M43.5,354.2l583-336.6c3.5-2,7.5-3.1,11.6-3.1c4.1,0,8.1,1.1,11.6,3.1l25.7,14.8c5.2,3,8.3,8.4,8.3,14.4
				s-3.1,11.4-8.3,14.4l-564.7,326l422.5,243.7c4.6,2.6,7.1,7.7,6.5,13c-0.4,4.3-2.8,8.1-6.5,10.2L258.2,813.2l412.9,229.1
				c4.3,2.5,6.8,7,6.6,12c-0.2,4.6-2.9,8.8-6.9,11.1l-35.7,20.6c-0.9,0.5-1.8,0.9-2.8,1.2l-284,174.9l423.9,237.6
				c6.2,3.6,8.4,11.5,5,17.8c-1.2,2.2-2.9,4-5.1,5.2l-629.1,388c-0.1,0-0.1,0.1,0,0.2l454.1,285.4c4.1,2.4,6.6,6.7,6.6,11.4
				c0,4.8-2.5,9.1-6.6,11.4l-32.6,18.8c-3,1.7-6.4,2.6-9.8,2.6c-3.4,0-6.8-0.9-9.8-2.6c0,0-431.2-265.7-469.2-288.7c0,0-0.1,0-0.1,0
				c0,0,0,0,0,0c-3.2-1.2-5.3-1.9-6.1-1.9c-0.7,0-5.5-2.5-6.1-2.9l-31.6-18.2c-4-2.3-6.8-6.5-7-11.2c-0.2-5,2.3-9.4,6.6-11.9
				l636.2-392l-385.9-215.8c-0.8-0.3-1.5-0.6-2.2-1l-36.1-20.7c-4.1-2.4-6.6-6.7-6.6-11.4c0-4.8,2.5-9,6.6-11.4l322.8-197.2
				L191.9,846.9c-1-0.3-2-0.7-2.9-1.2l-35.7-20.6c-4-2.3-6.8-6.5-6.9-11.1c-0.2-5,2.3-9.5,6.6-12l275.8-159.3L44,420.9
				c-0.9-0.3-1.8-0.7-2.6-1.1L9.6,401.4c-4.9-2.8-8.2-8-8.2-13.7c0-5.7,2.9-10.8,7.8-13.7l2.3-1.3c0.8-0.6,1.6-1.2,2.5-1.7
				l27.6-15.8C42.2,354.8,42.8,354.5,43.5,354.2z"/>
			<path class="st0" d="M43.5,353.9l583-336.6c3.5-2,7.5-3.1,11.6-3.1c4.1,0,8.1,1.1,11.6,3.1l25.7,14.8c5.2,3,8.3,8.4,8.3,14.4
				S680.6,58,675.3,61L110.7,387l422.5,243.7c4.6,2.6,7.1,7.7,6.5,13c-0.4,4.3-2.8,8.1-6.5,10.2L258.2,812.8l412.9,229.1
				c4.3,2.5,6.8,7,6.6,12c-0.2,4.6-2.9,8.8-6.9,11.1l-35.7,20.6c-0.9,0.5-1.8,0.9-2.8,1.2l-284,174.9l423.9,237.6
				c6.2,3.6,8.4,11.5,5,17.8c-1.2,2.2-2.9,4-5.1,5.2l-629.1,388c-0.1,0-0.1,0.1,0,0.2l454.1,285.4c4.1,2.4,6.6,6.7,6.6,11.4
				c0,4.8-2.5,9.1-6.6,11.4l-32.6,18.8c-3,1.7-6.4,2.6-9.8,2.6c-3.4,0-6.8-0.9-9.8-2.6c0,0-432.1-266.5-469.1-288.8c0,0-0.1,0-0.1,0
				c0,0,0,0,0,0c-3.2-1.1-5.3-1.8-6.1-1.8c-0.8,0-5.5-2.5-6.2-2.9l-31.7-18.3c-4-2.3-6.8-6.5-7-11.2c-0.2-5,2.3-9.4,6.6-11.9
				l636.2-392l-385.9-215.8c-0.8-0.3-1.5-0.6-2.2-1l-36.1-20.7c-4.1-2.4-6.6-6.7-6.6-11.4c0-4.8,2.5-9,6.6-11.4l322.8-197.2
				L191.9,846.5c-1-0.3-2-0.7-2.9-1.2l-35.7-20.6c-4-2.3-6.8-6.5-6.9-11.1c-0.2-5,2.3-9.5,6.6-12l275.8-159.3L44,420.5
				c-0.9-0.3-1.8-0.7-2.6-1.1L9.6,401c-4.9-2.8-8.2-8-8.2-13.7c0-5.7,2.9-10.8,7.8-13.7l2.3-1.3c0.8-0.6,1.6-1.2,2.5-1.7l27.6-15.8
				C42.2,354.4,42.8,354.1,43.5,353.9z"/>
			<path class="st0" d="M43.5,353.5l583-336.6c3.5-2,7.5-3.1,11.6-3.1c4.1,0,8.1,1.1,11.6,3.1l25.7,14.8c5.2,3,8.3,8.4,8.3,14.4
				s-3.1,11.4-8.3,14.4l-564.7,326l422.5,243.7c4.6,2.6,7.1,7.7,6.5,13c-0.4,4.3-2.8,8.1-6.5,10.2L258.2,812.5l412.9,229.1
				c4.3,2.5,6.8,7,6.6,12c-0.2,4.6-2.9,8.8-6.9,11.1l-35.7,20.6c-0.9,0.5-1.8,0.9-2.8,1.2l-284,174.9l423.9,237.6
				c6.2,3.6,8.4,11.5,5,17.8c-1.2,2.2-2.9,4-5.1,5.2l-629.1,388c-0.1,0-0.1,0.1,0,0.2l454.1,285.4c4.1,2.4,6.6,6.7,6.6,11.4
				c0,4.8-2.5,9.1-6.6,11.4l-32.6,18.8c-3,1.7-6.4,2.6-9.8,2.6c-3.4,0-6.8-0.9-9.8-2.6c0,0-433-267.2-469-288.8c0,0-0.1,0-0.1,0
				c0,0,0,0,0,0c-3.1-1.1-5.3-1.7-6.1-1.7c-0.8,0-5.5-2.4-6.2-2.8l-31.9-18.3c-4-2.3-6.8-6.5-7-11.2c-0.2-5,2.3-9.4,6.6-11.9
				l636.2-392l-385.9-215.8c-0.8-0.3-1.5-0.6-2.2-1l-36.1-20.7c-4.1-2.4-6.6-6.7-6.6-11.4c0-4.8,2.5-9,6.6-11.4l322.8-197.2
				L191.9,846.1c-1-0.3-2-0.7-2.9-1.2l-35.7-20.6c-4-2.3-6.8-6.5-6.9-11.1c-0.2-5,2.3-9.5,6.6-12L428.7,642L44,420.1
				c-0.9-0.3-1.8-0.7-2.6-1.1L9.6,400.6c-4.9-2.8-8.2-8-8.2-13.7c0-5.7,2.9-10.8,7.8-13.7l2.3-1.3c0.8-0.6,1.6-1.2,2.5-1.7
				l27.6-15.8C42.2,354,42.8,353.7,43.5,353.5z"/>
			<path class="st0" d="M43.5,353.1l583-336.6c3.5-2,7.5-3.1,11.6-3.1c4.1,0,8.1,1.1,11.6,3.1l25.7,14.8c5.2,3,8.3,8.4,8.3,14.4
				s-3.1,11.4-8.3,14.4l-564.7,326L533.1,630c4.6,2.6,7.1,7.7,6.5,13c-0.4,4.3-2.8,8.1-6.5,10.2L258.2,812.1l412.9,229.1
				c4.3,2.5,6.8,7,6.6,12c-0.2,4.6-2.9,8.8-6.9,11.1l-35.7,20.6c-0.9,0.5-1.8,0.9-2.8,1.2l-284,174.9l423.9,237.6
				c6.2,3.6,8.4,11.5,5,17.8c-1.2,2.2-2.9,4-5.1,5.2l-629.1,388c-0.1,0-0.1,0.1,0,0.2L596.9,2195c4.1,2.4,6.6,6.7,6.6,11.4
				c0,4.8-2.5,9.1-6.6,11.4l-32.6,18.8c-3,1.7-6.4,2.6-9.8,2.6c-3.4,0-6.8-0.9-9.8-2.6c0,0-434-267.9-468.8-288.9c0,0-0.1,0-0.1,0
				c0,0,0,0,0,0c-3.1-1-5.2-1.6-6.2-1.6c-0.9,0-5.4-2.4-6.2-2.8l-32-18.4c-4-2.3-6.8-6.5-7-11.2c-0.2-5,2.3-9.4,6.6-11.9l636.2-392
				l-385.9-215.8c-0.8-0.3-1.5-0.6-2.2-1l-36.1-20.7c-4.1-2.4-6.6-6.7-6.6-11.4c0-4.8,2.5-9,6.6-11.4l322.8-197.2L191.9,845.7
				c-1-0.3-2-0.7-2.9-1.2l-35.7-20.6c-4-2.3-6.8-6.5-6.9-11.1c-0.2-5,2.3-9.5,6.6-12l275.8-159.3L44,419.8c-0.9-0.3-1.8-0.7-2.6-1.1
				L9.6,400.3c-4.9-2.8-8.2-8-8.2-13.7c0-5.7,2.9-10.8,7.8-13.7l2.3-1.3c0.8-0.6,1.6-1.2,2.5-1.7L41.6,354
				C42.2,353.6,42.8,353.3,43.5,353.1z"/>
			<path class="st0" d="M43.5,352.7l583-336.6c3.5-2,7.5-3.1,11.6-3.1c4.1,0,8.1,1.1,11.6,3.1L675.3,31c5.2,3,8.3,8.4,8.3,14.4
				s-3.1,11.4-8.3,14.4l-564.7,326l422.5,243.7c4.6,2.6,7.1,7.7,6.5,13c-0.4,4.3-2.8,8.1-6.5,10.2L258.2,811.7l412.9,229.1
				c4.3,2.5,6.8,7,6.6,12c-0.2,4.6-2.9,8.8-6.9,11.1l-35.7,20.6c-0.9,0.5-1.8,0.9-2.8,1.2l-284,174.9l423.9,237.6
				c6.2,3.6,8.4,11.5,5,17.8c-1.2,2.2-2.9,4-5.1,5.2l-629.1,388c-0.1,0-0.1,0.1,0,0.2l454.1,285.4c4.1,2.4,6.6,6.7,6.6,11.4
				c0,4.8-2.5,9.1-6.6,11.4l-32.6,18.8c-3,1.7-6.4,2.6-9.8,2.6c-3.4,0-6.8-0.9-9.8-2.6c0,0-434.9-268.7-468.7-289c0,0-0.1,0-0.1,0
				c0,0,0,0,0,0c-3-0.9-5.2-1.4-6.2-1.5c-0.9,0-5.4-2.3-6.2-2.8l-32.1-18.5c-4-2.3-6.8-6.5-7-11.2c-0.2-5,2.3-9.4,6.6-11.9
				l636.2-392l-385.9-215.8c-0.8-0.3-1.5-0.6-2.2-1l-36.1-20.7c-4.1-2.4-6.6-6.7-6.6-11.4c0-4.8,2.5-9,6.6-11.4L565.8,1052
				L191.9,845.3c-1-0.3-2-0.7-2.9-1.2l-35.7-20.6c-4-2.3-6.8-6.5-6.9-11.1c-0.2-5,2.3-9.5,6.6-12l275.8-159.3L44,419.4
				c-0.9-0.3-1.8-0.7-2.6-1.1L9.6,399.9c-4.9-2.8-8.2-8-8.2-13.7c0-5.7,2.9-10.8,7.8-13.7l2.3-1.3c0.8-0.6,1.6-1.2,2.5-1.7
				l27.6-15.8C42.2,353.3,42.8,353,43.5,352.7z"/>
			<path class="st0" d="M43.5,352.3l583-336.6c3.5-2,7.5-3.1,11.6-3.1c4.1,0,8.1,1.1,11.6,3.1l25.7,14.8c5.2,3,8.3,8.4,8.3,14.4
				s-3.1,11.4-8.3,14.4l-564.7,326l422.5,243.7c4.6,2.6,7.1,7.7,6.5,13c-0.4,4.3-2.8,8.1-6.5,10.2L258.2,811.3l412.9,229.1
				c4.3,2.5,6.8,7,6.6,12c-0.2,4.6-2.9,8.8-6.9,11.1L635,1084c-0.9,0.5-1.8,0.9-2.8,1.2l-284,174.9l423.9,237.6
				c6.2,3.6,8.4,11.5,5,17.8c-1.2,2.2-2.9,4-5.1,5.2l-629.1,388c-0.1,0-0.1,0.1,0,0.2l454.1,285.4c4.1,2.4,6.6,6.7,6.6,11.4
				c0,4.8-2.5,9.1-6.6,11.4l-32.6,18.8c-3,1.7-6.4,2.6-9.8,2.6c-3.4,0-6.8-0.9-9.8-2.6c0,0-435.9-269.4-468.5-289.1c0,0-0.1,0-0.1,0
				c0,0,0,0,0,0c-3-0.9-5.2-1.3-6.2-1.4c-0.9,0-5.4-2.3-6.2-2.7l-32.2-18.5c-4-2.3-6.8-6.5-7-11.2c-0.2-5,2.3-9.4,6.6-11.9
				l636.2-392l-385.9-215.8c-0.8-0.3-1.5-0.6-2.2-1l-36.1-20.7c-4.1-2.4-6.6-6.7-6.6-11.4c0-4.8,2.5-9,6.6-11.4l322.8-197.2
				L191.9,845c-1-0.3-2-0.7-2.9-1.2l-35.7-20.6c-4-2.3-6.8-6.5-6.9-11.1c-0.2-5,2.3-9.5,6.6-12l275.8-159.3L44,419
				c-0.9-0.3-1.8-0.7-2.6-1.1L9.6,399.5c-4.9-2.8-8.2-8-8.2-13.7c0-5.7,2.9-10.8,7.8-13.7l2.3-1.3c0.8-0.6,1.6-1.2,2.5-1.7
				l27.6-15.8C42.2,352.9,42.8,352.6,43.5,352.3z"/>
			<path class="st0" d="M43.5,352l583-336.6c3.5-2,7.5-3.1,11.6-3.1c4.1,0,8.1,1.1,11.6,3.1l25.7,14.8c5.2,3,8.3,8.4,8.3,14.4
				s-3.1,11.4-8.3,14.4l-564.7,326l422.5,243.7c4.6,2.6,7.1,7.7,6.5,13c-0.4,4.3-2.8,8.1-6.5,10.2L258.2,810.9L671.1,1040
				c4.3,2.5,6.8,7,6.6,12c-0.2,4.6-2.9,8.8-6.9,11.1l-35.7,20.6c-0.9,0.5-1.8,0.9-2.8,1.2l-284,174.9l423.9,237.6
				c6.2,3.6,8.4,11.5,5,17.8c-1.2,2.2-2.9,4-5.1,5.2l-629.1,388c-0.1,0-0.1,0.1,0,0.2l454.1,285.4c4.1,2.4,6.6,6.7,6.6,11.4
				c0,4.8-2.5,9.1-6.6,11.4l-32.6,18.8c-3,1.7-6.4,2.6-9.8,2.6c-3.4,0-6.8-0.9-9.8-2.6c0,0-436.8-270.1-468.4-289.1c0,0-0.1,0-0.1,0
				c0,0,0,0,0,0c-3-0.8-5.1-1.2-6.2-1.3c-1,0-5.4-2.2-6.2-2.7l-32.3-18.6c-4-2.3-6.8-6.5-7-11.2c-0.2-5,2.3-9.4,6.6-11.9l636.2-392
				L281.3,1293c-0.8-0.3-1.5-0.6-2.2-1l-36.1-20.7c-4.1-2.4-6.6-6.7-6.6-11.4c0-4.8,2.5-9,6.6-11.4l322.8-197.2L191.9,844.6
				c-1-0.3-2-0.7-2.9-1.2l-35.7-20.6c-4-2.3-6.8-6.5-6.9-11.1c-0.2-5,2.3-9.5,6.6-12l275.8-159.3L44,418.6c-0.9-0.3-1.8-0.7-2.6-1.1
				L9.6,399.1c-4.9-2.8-8.2-8-8.2-13.7c0-5.7,2.9-10.8,7.8-13.7l2.3-1.3c0.8-0.6,1.6-1.2,2.5-1.7l27.6-15.8
				C42.2,352.5,42.8,352.2,43.5,352z"/>
			<path class="st0" d="M43.5,351.6L626.5,15c3.5-2,7.5-3.1,11.6-3.1c4.1,0,8.1,1.1,11.6,3.1l25.7,14.8c5.2,3,8.3,8.4,8.3,14.4
				s-3.1,11.4-8.3,14.4l-564.7,326l422.5,243.7c4.6,2.6,7.1,7.7,6.5,13c-0.4,4.3-2.8,8.1-6.5,10.2L258.2,810.6l412.9,229.1
				c4.3,2.5,6.8,7,6.6,12c-0.2,4.6-2.9,8.8-6.9,11.1l-35.7,20.6c-0.9,0.5-1.8,0.9-2.8,1.2l-284,174.9l423.9,237.6
				c6.2,3.6,8.4,11.5,5,17.8c-1.2,2.2-2.9,4-5.1,5.2l-629.1,388c-0.1,0-0.1,0.1,0,0.2l454.1,285.4c4.1,2.4,6.6,6.7,6.6,11.4
				c0,4.8-2.5,9.1-6.6,11.4l-32.6,18.8c-3,1.7-6.4,2.6-9.8,2.6c-3.4,0-6.8-0.9-9.8-2.6c0,0-437.8-270.9-468.3-289.2c0,0-0.1,0-0.1,0
				c0,0,0,0,0,0c-2.9-0.7-5.1-1.1-6.2-1.2c-1,0-5.3-2.1-6.2-2.7l-32.4-18.7c-4-2.3-6.8-6.5-7-11.2c-0.2-5,2.3-9.4,6.6-11.9
				l636.2-392l-385.9-215.8c-0.8-0.3-1.5-0.6-2.2-1l-36.1-20.7c-4.1-2.4-6.6-6.7-6.6-11.4c0-4.8,2.5-9,6.6-11.4l322.8-197.2
				L191.9,844.2c-1-0.3-2-0.7-2.9-1.2l-35.7-20.6c-4-2.3-6.8-6.5-6.9-11.1c-0.2-5,2.3-9.5,6.6-12l275.8-159.3L44,418.2
				c-0.9-0.3-1.8-0.7-2.6-1.1L9.6,398.7c-4.9-2.8-8.2-8-8.2-13.7c0-5.7,2.9-10.8,7.8-13.7l2.3-1.3c0.8-0.6,1.6-1.2,2.5-1.7
				l27.6-15.8C42.2,352.1,42.8,351.8,43.5,351.6z"/>
			<path class="st0" d="M43.5,351.2l583-336.6c3.5-2,7.5-3.1,11.6-3.1c4.1,0,8.1,1.1,11.6,3.1l25.7,14.8c5.2,3,8.3,8.4,8.3,14.4
				s-3.1,11.4-8.3,14.4l-564.7,326l422.5,243.7c4.6,2.6,7.1,7.7,6.5,13c-0.4,4.3-2.8,8.1-6.5,10.2L258.2,810.2l412.9,229.1
				c4.3,2.5,6.8,7,6.6,12c-0.2,4.6-2.9,8.8-6.9,11.1l-35.7,20.6c-0.9,0.5-1.8,0.9-2.8,1.2l-284,174.9l423.9,237.6
				c6.2,3.6,8.4,11.5,5,17.8c-1.2,2.2-2.9,4-5.1,5.2l-629.1,388c-0.1,0-0.1,0.1,0,0.2l454.1,285.4c4.1,2.4,6.6,6.7,6.6,11.4
				c0,4.8-2.5,9.1-6.6,11.4l-32.6,18.8c-3,1.7-6.4,2.6-9.8,2.6c-3.4,0-6.8-0.9-9.8-2.6c0,0-438.7-271.6-468.1-289.3c0,0-0.1,0-0.1,0
				c0,0,0,0,0,0c-2.9-0.7-5.1-1-6.2-1.1c-1.1,0-5.3-2.1-6.2-2.6l-32.6-18.7c-4-2.3-6.8-6.5-7-11.2c-0.2-5,2.3-9.4,6.6-11.9
				l636.2-392l-385.9-215.8c-0.8-0.3-1.5-0.6-2.2-1l-36.1-20.7c-4.1-2.4-6.6-6.7-6.6-11.4c0-4.8,2.5-9,6.6-11.4l322.8-197.2
				L191.9,843.8c-1-0.3-2-0.7-2.9-1.2L153.2,822c-4-2.3-6.8-6.5-6.9-11.1c-0.2-5,2.3-9.5,6.6-12l275.8-159.3L44,417.9
				c-0.9-0.3-1.8-0.7-2.6-1.1L9.6,398.4c-4.9-2.8-8.2-8-8.2-13.7c0-5.7,2.9-10.8,7.8-13.7l2.3-1.3c0.8-0.6,1.6-1.2,2.5-1.7
				l27.6-15.8C42.2,351.7,42.8,351.4,43.5,351.2z"/>
			<path class="st0" d="M43.5,350.8l583-336.6c3.5-2,7.5-3.1,11.6-3.1c4.1,0,8.1,1.1,11.6,3.1l25.7,14.8c5.2,3,8.3,8.4,8.3,14.4
				s-3.1,11.4-8.3,14.4L110.7,384l422.5,243.7c4.6,2.6,7.1,7.7,6.5,13c-0.4,4.3-2.8,8.1-6.5,10.2L258.2,809.8l412.9,229.1
				c4.3,2.5,6.8,7,6.6,12c-0.2,4.6-2.9,8.8-6.9,11.1l-35.7,20.6c-0.9,0.5-1.8,0.9-2.8,1.2l-284,174.9l423.9,237.6
				c6.2,3.6,8.4,11.5,5,17.8c-1.2,2.2-2.9,4-5.1,5.2l-629.1,388c-0.1,0-0.1,0.1,0,0.2l454.1,285.4c4.1,2.4,6.6,6.7,6.6,11.4
				c0,4.8-2.5,9.1-6.6,11.4l-32.6,18.8c-3,1.7-6.4,2.6-9.8,2.6c-3.4,0-6.8-0.9-9.8-2.6c0,0-439.7-272.3-468-289.4c0,0-0.1,0-0.1,0
				c0,0,0,0,0,0c-2.9-0.6-5-0.9-6.2-1c-1.1,0-5.3-2-6.3-2.6l-32.7-18.8c-4-2.3-6.8-6.5-7-11.2c-0.2-5,2.3-9.4,6.6-11.9l636.2-392
				l-385.9-215.8c-0.8-0.3-1.5-0.6-2.2-1l-36.1-20.7c-4.1-2.4-6.6-6.7-6.6-11.4c0-4.8,2.5-9,6.6-11.4l322.8-197.2L191.9,843.4
				c-1-0.3-2-0.7-2.9-1.2l-35.7-20.6c-4-2.3-6.8-6.5-6.9-11.1c-0.2-5,2.3-9.5,6.6-12l275.8-159.3L44,417.5c-0.9-0.3-1.8-0.7-2.6-1.1
				L9.6,398c-4.9-2.8-8.2-8-8.2-13.7c0-5.7,2.9-10.8,7.8-13.7l2.3-1.3c0.8-0.6,1.6-1.2,2.5-1.7l27.6-15.8
				C42.2,351.4,42.8,351.1,43.5,350.8z"/>
			<path class="st0" d="M43.5,350.4l583-336.6c3.5-2,7.5-3.1,11.6-3.1c4.1,0,8.1,1.1,11.6,3.1l25.7,14.8c5.2,3,8.3,8.4,8.3,14.4
				s-3.1,11.4-8.3,14.4l-564.7,326l422.5,243.7c4.6,2.6,7.1,7.7,6.5,13c-0.4,4.3-2.8,8.1-6.5,10.2L258.2,809.4l412.9,229.1
				c4.3,2.5,6.8,7,6.6,12c-0.2,4.6-2.9,8.8-6.9,11.1l-35.7,20.6c-0.9,0.5-1.8,0.9-2.8,1.2l-284,174.9l423.9,237.6
				c6.2,3.6,8.4,11.5,5,17.8c-1.2,2.2-2.9,4-5.1,5.2l-629.1,388c-0.1,0-0.1,0.1,0,0.2l454.1,285.4c4.1,2.4,6.6,6.7,6.6,11.4
				c0,4.8-2.5,9.1-6.6,11.4l-32.6,18.8c-3,1.7-6.4,2.6-9.8,2.6c-3.4,0-6.8-0.9-9.8-2.6c0,0-440.6-273.1-467.8-289.4c0,0-0.1,0-0.1,0
				c0,0,0,0,0,0c-2.8-0.5-5-0.8-6.3-0.9c-1.2,0-5.2-2-6.3-2.6l-32.8-18.9c-4-2.3-6.8-6.5-7-11.2c-0.2-5,2.3-9.4,6.6-11.9l636.2-392
				l-385.9-215.8c-0.8-0.3-1.5-0.6-2.2-1l-36.1-20.7c-4.1-2.4-6.6-6.7-6.6-11.4c0-4.8,2.5-9,6.6-11.4l322.8-197.2L191.9,843.1
				c-1-0.3-2-0.7-2.9-1.2l-35.7-20.6c-4-2.3-6.8-6.5-6.9-11.1c-0.2-5,2.3-9.5,6.6-12l275.8-159.3L44,417.1c-0.9-0.3-1.8-0.7-2.6-1.1
				L9.6,397.6c-4.9-2.8-8.2-8-8.2-13.7c0-5.7,2.9-10.8,7.8-13.7l2.3-1.3c0.8-0.6,1.6-1.2,2.5-1.7l27.6-15.8
				C42.2,351,42.8,350.7,43.5,350.4z"/>
			<path class="st0" d="M43.5,350.1l583-336.6c3.5-2,7.5-3.1,11.6-3.1c4.1,0,8.1,1.1,11.6,3.1l25.7,14.8c5.2,3,8.3,8.4,8.3,14.4
				s-3.1,11.4-8.3,14.4l-564.7,326l422.5,243.7c4.6,2.6,7.1,7.7,6.5,13c-0.4,4.3-2.8,8.1-6.5,10.2L258.2,809l412.9,229.1
				c4.3,2.5,6.8,7,6.6,12c-0.2,4.6-2.9,8.8-6.9,11.1l-35.7,20.6c-0.9,0.5-1.8,0.9-2.8,1.2l-284,174.9l423.9,237.6
				c6.2,3.6,8.4,11.5,5,17.8c-1.2,2.2-2.9,4-5.1,5.2l-629.1,388c-0.1,0-0.1,0.1,0,0.2L596.9,2192c4.1,2.4,6.6,6.7,6.6,11.4
				c0,4.8-2.5,9.1-6.6,11.4l-32.6,18.8c-3,1.7-6.4,2.6-9.8,2.6c-3.4,0-6.8-0.9-9.8-2.6c0,0-441.5-273.8-467.7-289.5c0,0-0.1,0-0.1,0
				c0,0,0,0,0,0c-2.8-0.5-5-0.7-6.3-0.8c-1.2,0-5.2-1.9-6.3-2.5L31.4,1922c-4-2.3-6.8-6.5-7-11.2c-0.2-5,2.3-9.4,6.6-11.9l636.2-392
				l-385.9-215.8c-0.8-0.3-1.5-0.6-2.2-1l-36.1-20.7c-4.1-2.4-6.6-6.7-6.6-11.4c0-4.8,2.5-9,6.6-11.4l322.8-197.2L191.9,842.7
				c-1-0.3-2-0.7-2.9-1.2l-35.7-20.6c-4-2.3-6.8-6.5-6.9-11.1c-0.2-5,2.3-9.5,6.6-12l275.8-159.3L44,416.7c-0.9-0.3-1.8-0.7-2.6-1.1
				L9.6,397.2c-4.9-2.8-8.2-8-8.2-13.7c0-5.7,2.9-10.8,7.8-13.7l2.3-1.3c0.8-0.6,1.6-1.2,2.5-1.7l27.6-15.8
				C42.2,350.6,42.8,350.3,43.5,350.1z"/>
			<path class="st0" d="M43.5,349.7l583-336.6c3.5-2,7.5-3.1,11.6-3.1c4.1,0,8.1,1.1,11.6,3.1l25.7,14.8c5.2,3,8.3,8.4,8.3,14.4
				s-3.1,11.4-8.3,14.4l-564.7,326l422.5,243.7c4.6,2.6,7.1,7.7,6.5,13c-0.4,4.3-2.8,8.1-6.5,10.2L258.2,808.7l412.9,229.1
				c4.3,2.5,6.8,7,6.6,12c-0.2,4.6-2.9,8.8-6.9,11.1l-35.7,20.6c-0.9,0.5-1.8,0.9-2.8,1.2l-284,174.9L772.1,1495
				c6.2,3.6,8.4,11.5,5,17.8c-1.2,2.2-2.9,4-5.1,5.2l-629.1,388c-0.1,0-0.1,0.1,0,0.2l454.1,285.4c4.1,2.4,6.6,6.7,6.6,11.4
				c0,4.8-2.5,9.1-6.6,11.4l-32.6,18.8c-3,1.7-6.4,2.6-9.8,2.6c-3.4,0-6.8-0.9-9.8-2.6c0,0-442.5-274.5-467.6-289.6c0,0-0.1,0-0.1,0
				c0,0,0,0,0,0c-2.8-0.4-5-0.6-6.3-0.7c-1.3,0-5.2-1.9-6.3-2.5l-33-19c-4-2.3-6.8-6.5-7-11.2c-0.2-5,2.3-9.4,6.6-11.9l636.2-392
				l-385.9-215.8c-0.8-0.3-1.5-0.6-2.2-1l-36.1-20.7c-4.1-2.4-6.6-6.7-6.6-11.4c0-4.8,2.5-9,6.6-11.4l322.8-197.2L191.9,842.3
				c-1-0.3-2-0.7-2.9-1.2l-35.7-20.6c-4-2.3-6.8-6.5-6.9-11.1c-0.2-5,2.3-9.5,6.6-12l275.8-159.3L44,416.3c-0.9-0.3-1.8-0.7-2.6-1.1
				L9.6,396.8c-4.9-2.8-8.2-8-8.2-13.7c0-5.7,2.9-10.8,7.8-13.7l2.3-1.3c0.8-0.6,1.6-1.2,2.5-1.7l27.6-15.8
				C42.2,350.2,42.8,349.9,43.5,349.7z"/>
			<path class="st0" d="M43.5,349.3l583-336.6c3.5-2,7.5-3.1,11.6-3.1c4.1,0,8.1,1.1,11.6,3.1l25.7,14.8c5.2,3,8.3,8.4,8.3,14.4
				s-3.1,11.4-8.3,14.4l-564.7,326l422.5,243.7c4.6,2.6,7.1,7.7,6.5,13c-0.4,4.3-2.8,8.1-6.5,10.2L258.2,808.3l412.9,229.1
				c4.3,2.5,6.8,7,6.6,12c-0.2,4.6-2.9,8.8-6.9,11.1L635,1081c-0.9,0.5-1.8,0.9-2.8,1.2l-284,174.9l423.9,237.6
				c6.2,3.6,8.4,11.5,5,17.8c-1.2,2.2-2.9,4-5.1,5.2l-629.1,388c-0.1,0-0.1,0.1,0,0.2l454.1,285.4c4.1,2.4,6.6,6.7,6.6,11.4
				c0,4.8-2.5,9.1-6.6,11.4l-32.6,18.8c-3,1.7-6.4,2.6-9.8,2.6c-3.4,0-6.8-0.9-9.8-2.6c0,0-443.4-275.3-467.4-289.6c0,0-0.1,0-0.1,0
				c0,0,0,0,0,0c-2.7-0.3-4.9-0.5-6.3-0.5c-1.3,0-5.2-1.8-6.3-2.5l-33.1-19.1c-4-2.3-6.8-6.5-7-11.2c-0.2-5,2.3-9.4,6.6-11.9
				l636.2-392l-385.9-215.8c-0.8-0.3-1.5-0.6-2.2-1l-36.1-20.7c-4.1-2.4-6.6-6.7-6.6-11.4c0-4.8,2.5-9,6.6-11.4l322.8-197.2
				L191.9,841.9c-1-0.3-2-0.7-2.9-1.2l-35.7-20.6c-4-2.3-6.8-6.5-6.9-11.1c-0.2-5,2.3-9.5,6.6-12l275.8-159.3L44,415.9
				c-0.9-0.3-1.8-0.7-2.6-1.1L9.6,396.5c-4.9-2.8-8.2-8-8.2-13.7c0-5.7,2.9-10.8,7.8-13.7l2.3-1.3c0.8-0.6,1.6-1.2,2.5-1.7
				l27.6-15.8C42.2,349.8,42.8,349.5,43.5,349.3z"/>
			<path class="st0" d="M43.5,348.9l583-336.6c3.5-2,7.5-3.1,11.6-3.1c4.1,0,8.1,1.1,11.6,3.1l25.7,14.8c5.2,3,8.3,8.4,8.3,14.4
				S680.6,53,675.3,56l-564.7,326l422.5,243.7c4.6,2.6,7.1,7.7,6.5,13c-0.4,4.3-2.8,8.1-6.5,10.2L258.2,807.9L671.1,1037
				c4.3,2.5,6.8,7,6.6,12c-0.2,4.6-2.9,8.8-6.9,11.1l-35.7,20.6c-0.9,0.5-1.8,0.9-2.8,1.2l-284,174.9l423.9,237.6
				c6.2,3.6,8.4,11.5,5,17.8c-1.2,2.2-2.9,4-5.1,5.2l-629.1,388c-0.1,0-0.1,0.1,0,0.2l454.1,285.4c4.1,2.4,6.6,6.7,6.6,11.4
				c0,4.8-2.5,9.1-6.6,11.4l-32.6,18.8c-3,1.7-6.4,2.6-9.8,2.6c-3.4,0-6.8-0.9-9.8-2.6c0,0-444.4-276-467.3-289.7c0,0-0.1,0-0.1,0
				c0,0,0,0,0,0c-2.7-0.3-4.9-0.4-6.3-0.4c-1.4,0-5.1-1.8-6.3-2.4l-33.3-19.1c-4-2.3-6.8-6.5-7-11.2c-0.2-5,2.3-9.4,6.6-11.9
				l636.2-392L281.3,1290c-0.8-0.3-1.5-0.6-2.2-1l-36.1-20.7c-4.1-2.4-6.6-6.7-6.6-11.4c0-4.8,2.5-9,6.6-11.4l322.8-197.2
				L191.9,841.5c-1-0.3-2-0.7-2.9-1.2l-35.7-20.6c-4-2.3-6.8-6.5-6.9-11.1c-0.2-5,2.3-9.5,6.6-12l275.8-159.3L44,415.6
				c-0.9-0.3-1.8-0.7-2.6-1.1L9.6,396.1c-4.9-2.8-8.2-8-8.2-13.7c0-5.7,2.9-10.8,7.8-13.7l2.3-1.3c0.8-0.6,1.6-1.2,2.5-1.7
				l27.6-15.8C42.2,349.5,42.8,349.2,43.5,348.9z"/>
			<path class="st0" d="M43.5,348.5l583-336.6c3.5-2,7.5-3.1,11.6-3.1c4.1,0,8.1,1.1,11.6,3.1l25.7,14.8c5.2,3,8.3,8.4,8.3,14.4
				s-3.1,11.4-8.3,14.4l-564.7,326l422.5,243.7c4.6,2.6,7.1,7.7,6.5,13c-0.4,4.3-2.8,8.1-6.5,10.2L258.2,807.5l412.9,229.1
				c4.3,2.5,6.8,7,6.6,12c-0.2,4.6-2.9,8.8-6.9,11.1l-35.7,20.6c-0.9,0.5-1.8,0.9-2.8,1.2l-284,174.9l423.9,237.6
				c6.2,3.6,8.4,11.5,5,17.8c-1.2,2.2-2.9,4-5.1,5.2l-629.1,388c-0.1,0-0.1,0.1,0,0.2l454.1,285.4c4.1,2.4,6.6,6.7,6.6,11.4
				c0,4.8-2.5,9.1-6.6,11.4l-32.6,18.8c-3,1.7-6.4,2.6-9.8,2.6c-3.4,0-6.8-0.9-9.8-2.6c0,0-445.3-276.7-467.1-289.8c0,0-0.1,0-0.1,0
				c0,0,0,0,0,0c-2.7-0.2-4.9-0.3-6.3-0.3c-1.4,0-5.1-1.7-6.3-2.4l-33.4-19.2c-4-2.3-6.8-6.5-7-11.2c-0.2-5,2.3-9.4,6.6-11.9
				l636.2-392l-385.9-215.8c-0.8-0.3-1.5-0.6-2.2-1l-36.1-20.7c-4.1-2.4-6.6-6.7-6.6-11.4c0-4.8,2.5-9,6.6-11.4l322.8-197.2
				L191.9,841.2c-1-0.3-2-0.7-2.9-1.2l-35.7-20.6c-4-2.3-6.8-6.5-6.9-11.1c-0.2-5,2.3-9.5,6.6-12L428.7,637L44,415.2
				c-0.9-0.3-1.8-0.7-2.6-1.1L9.6,395.7c-4.9-2.8-8.2-8-8.2-13.7c0-5.7,2.9-10.8,7.8-13.7l2.3-1.3c0.8-0.6,1.6-1.2,2.5-1.7
				l27.6-15.8C42.2,349.1,42.8,348.8,43.5,348.5z"/>
			<path class="st0" d="M43.5,348.2l583-336.6c3.5-2,7.5-3.1,11.6-3.1c4.1,0,8.1,1.1,11.6,3.1l25.7,14.8c5.2,3,8.3,8.4,8.3,14.4
				s-3.1,11.4-8.3,14.4l-564.7,326L533.1,625c4.6,2.6,7.1,7.7,6.5,13c-0.4,4.3-2.8,8.1-6.5,10.2L258.2,807.1l412.9,229.1
				c4.3,2.5,6.8,7,6.6,12c-0.2,4.6-2.9,8.8-6.9,11.1l-35.7,20.6c-0.9,0.5-1.8,0.9-2.8,1.2l-284,174.9l423.9,237.6
				c6.2,3.6,8.4,11.5,5,17.8c-1.2,2.2-2.9,4-5.1,5.2l-629.1,388c-0.1,0-0.1,0.1,0,0.2l454.1,285.4c4.1,2.4,6.6,6.7,6.6,11.4
				c0,4.8-2.5,9.1-6.6,11.4l-32.6,18.8c-3,1.7-6.4,2.6-9.8,2.6c-3.4,0-6.8-0.9-9.8-2.6c0,0-446.3-277.5-467-289.9c0,0-0.1,0-0.1,0
				c0,0,0,0,0,0c-2.6-0.1-4.8-0.2-6.3-0.2c-1.4,0-5.1-1.7-6.3-2.4l-33.5-19.3c-4-2.3-6.8-6.5-7-11.2c-0.2-5,2.3-9.4,6.6-11.9
				l636.2-392l-385.9-215.8c-0.8-0.3-1.5-0.6-2.2-1l-36.1-20.7c-4.1-2.4-6.6-6.7-6.6-11.4c0-4.8,2.5-9,6.6-11.4l322.8-197.2
				L191.9,840.8c-1-0.3-2-0.7-2.9-1.2L153.2,819c-4-2.3-6.8-6.5-6.9-11.1c-0.2-5,2.3-9.5,6.6-12l275.8-159.3L44,414.8
				c-0.9-0.3-1.8-0.7-2.6-1.1L9.6,395.3c-4.9-2.8-8.2-8-8.2-13.7c0-5.7,2.9-10.8,7.8-13.7l2.3-1.3c0.8-0.6,1.6-1.2,2.5-1.7L41.6,349
				C42.2,348.7,42.8,348.4,43.5,348.2z"/>
			<path class="st0" d="M43.5,347.8l583-336.6c3.5-2,7.5-3.1,11.6-3.1c4.1,0,8.1,1.1,11.6,3.1L675.3,26c5.2,3,8.3,8.4,8.3,14.4
				s-3.1,11.4-8.3,14.4l-564.7,326l422.5,243.7c4.6,2.6,7.1,7.7,6.5,13c-0.4,4.3-2.8,8.1-6.5,10.2L258.2,806.8l412.9,229.1
				c4.3,2.5,6.8,7,6.6,12c-0.2,4.6-2.9,8.8-6.9,11.1l-35.7,20.6c-0.9,0.5-1.8,0.9-2.8,1.2l-284,174.9l423.9,237.6
				c6.2,3.6,8.4,11.5,5,17.8c-1.2,2.2-2.9,4-5.1,5.2l-629.1,388c-0.1,0-0.1,0.1,0,0.2l454.1,285.4c4.1,2.4,6.6,6.7,6.6,11.4
				c0,4.8-2.5,9.1-6.6,11.4l-32.6,18.8c-3,1.7-6.4,2.6-9.8,2.6c-3.4,0-6.8-0.9-9.8-2.6c0,0-447.2-278.2-466.9-289.9c0,0-0.1,0-0.1,0
				c0,0,0,0,0,0c-2.6-0.1-4.8-0.1-6.3-0.1c-1.5,0-5.1-1.6-6.4-2.3l-33.6-19.3c-4-2.3-6.8-6.5-7-11.2c-0.2-5,2.3-9.4,6.6-11.9
				l636.2-392l-385.9-215.8c-0.8-0.3-1.5-0.6-2.2-1l-36.1-20.7c-4.1-2.4-6.6-6.7-6.6-11.4c0-4.8,2.5-9,6.6-11.4L565.8,1047
				L191.9,840.4c-1-0.3-2-0.7-2.9-1.2l-35.7-20.6c-4-2.3-6.8-6.5-6.9-11.1c-0.2-5,2.3-9.5,6.6-12l275.8-159.3L44,414.4
				c-0.9-0.3-1.8-0.7-2.6-1.1L9.6,394.9c-4.9-2.8-8.2-8-8.2-13.7c0-5.7,2.9-10.8,7.8-13.7l2.3-1.3c0.8-0.6,1.6-1.2,2.5-1.7
				l27.6-15.8C42.2,348.3,42.8,348,43.5,347.8z"/>
			<path class="st0" d="M43.5,347.4l583-336.6c3.5-2,7.5-3.1,11.6-3.1c4.1,0,8.1,1.1,11.6,3.1l25.7,14.8c5.2,3,8.3,8.4,8.3,14.4
				s-3.1,11.4-8.3,14.4l-564.7,326l422.5,243.7c4.6,2.6,7.1,7.7,6.5,13c-0.4,4.3-2.8,8.1-6.5,10.2L258.2,806.4l412.9,229.1
				c4.3,2.5,6.8,7,6.6,12c-0.2,4.6-2.9,8.8-6.9,11.1l-35.7,20.6c-0.9,0.5-1.8,0.9-2.8,1.2l-284,174.9l423.9,237.6
				c6.2,3.6,8.4,11.5,5,17.8c-1.2,2.2-2.9,4-5.1,5.2l-629.1,388c-0.1,0-0.1,0.1,0,0.2l454.1,285.4c4.1,2.4,6.6,6.7,6.6,11.4
				c0,4.8-2.5,9.1-6.6,11.4l-32.6,18.8c-3,1.7-6.4,2.6-9.8,2.6c-3.4,0-6.8-0.9-9.8-2.6c0,0-448.2-278.9-466.7-290c0,0-0.1,0-0.1,0
				c0,0,0,0,0,0c-2.6,0-4.8,0-6.4,0c-1.5,0-5-1.5-6.4-2.3l-33.7-19.4c-4-2.3-6.8-6.5-7-11.2c-0.2-5,2.3-9.4,6.6-11.9l636.2-392
				l-385.9-215.8c-0.8-0.3-1.5-0.6-2.2-1l-36.1-20.7c-4.1-2.4-6.6-6.7-6.6-11.4c0-4.8,2.5-9,6.6-11.4l322.8-197.2L191.9,840
				c-1-0.3-2-0.7-2.9-1.2l-35.7-20.6c-4-2.3-6.8-6.5-6.9-11.1c-0.2-5,2.3-9.5,6.6-12l275.8-159.3L44,414c-0.9-0.3-1.8-0.7-2.6-1.1
				L9.6,394.6c-4.9-2.8-8.2-8-8.2-13.7c0-5.7,2.9-10.8,7.8-13.7l2.3-1.3c0.8-0.6,1.6-1.2,2.5-1.7l27.6-15.8
				C42.2,347.9,42.8,347.6,43.5,347.4z"/>
			<path class="st0" d="M43.5,347l583-336.6c3.5-2,7.5-3.1,11.6-3.1c4.1,0,8.1,1.1,11.6,3.1l25.7,14.8c5.2,3,8.3,8.4,8.3,14.4
				s-3.1,11.4-8.3,14.4l-564.7,326l422.5,243.7c4.6,2.6,7.1,7.7,6.5,13c-0.4,4.3-2.8,8.1-6.5,10.2L258.2,806l412.9,229.1
				c4.3,2.5,6.8,7,6.6,12c-0.2,4.6-2.9,8.8-6.9,11.1l-35.7,20.6c-0.9,0.5-1.8,0.9-2.8,1.2l-284,174.9l423.9,237.6
				c6.2,3.6,8.4,11.5,5,17.8c-1.2,2.2-2.9,4-5.1,5.2l-629.1,388c-0.1,0-0.1,0.1,0,0.2L596.9,2189c4.1,2.4,6.6,6.7,6.6,11.4
				c0,4.8-2.5,9.1-6.6,11.4l-32.6,18.8c-3,1.7-6.4,2.6-9.8,2.6c-3.4,0-6.8-0.9-9.8-2.6c0,0-449.1-279.6-466.6-290.1c0,0-0.1,0-0.1,0
				c0,0,0,0,0,0c-2.5,0.1-4.7,0.1-6.4,0.1c-1.6,0-5-1.5-6.4-2.3l-33.8-19.5c-4-2.3-6.8-6.5-7-11.2c-0.2-5,2.3-9.4,6.6-11.9
				l636.2-392l-385.9-215.8c-0.8-0.3-1.5-0.6-2.2-1l-36.1-20.7c-4.1-2.4-6.6-6.7-6.6-11.4c0-4.8,2.5-9,6.6-11.4l322.8-197.2
				L191.9,839.6c-1-0.3-2-0.7-2.9-1.2l-35.7-20.6c-4-2.3-6.8-6.5-6.9-11.1c-0.2-5,2.3-9.5,6.6-12l275.8-159.3L44,413.7
				c-0.9-0.3-1.8-0.7-2.6-1.1L9.6,394.2c-4.9-2.8-8.2-8-8.2-13.7c0-5.7,2.9-10.8,7.8-13.7l2.3-1.3c0.8-0.6,1.6-1.2,2.5-1.7
				l27.6-15.8C42.2,347.6,42.8,347.3,43.5,347z"/>
			<path class="st0" d="M43.5,346.6L626.5,10c3.5-2,7.5-3.1,11.6-3.1c4.1,0,8.1,1.1,11.6,3.1l25.7,14.8c5.2,3,8.3,8.4,8.3,14.4
				s-3.1,11.4-8.3,14.4l-564.7,326l422.5,243.7c4.6,2.6,7.1,7.7,6.5,13c-0.4,4.3-2.8,8.1-6.5,10.2L258.2,805.6l412.9,229.1
				c4.3,2.5,6.8,7,6.6,12c-0.2,4.6-2.9,8.8-6.9,11.1l-35.7,20.6c-0.9,0.5-1.8,0.9-2.8,1.2l-284,174.9L772.1,1492
				c6.2,3.6,8.4,11.5,5,17.8c-1.2,2.2-2.9,4-5.1,5.2l-629.1,388c-0.1,0-0.1,0.1,0,0.2l454.1,285.4c4.1,2.4,6.6,6.7,6.6,11.4
				c0,4.8-2.5,9.1-6.6,11.4l-32.6,18.8c-3,1.7-6.4,2.6-9.8,2.6c-3.4,0-6.8-0.9-9.8-2.6c0,0-450.1-280.4-466.4-290.1c0,0-0.1,0-0.1,0
				c0,0,0,0,0,0c-2.5,0.1-4.7,0.2-6.4,0.2c-1.6,0-5-1.4-6.4-2.2l-34-19.5c-4-2.3-6.8-6.5-7-11.2c-0.2-5,2.3-9.4,6.6-11.9l636.2-392
				l-385.9-215.8c-0.8-0.3-1.5-0.6-2.2-1l-36.1-20.7c-4.1-2.4-6.6-6.7-6.6-11.4c0-4.8,2.5-9,6.6-11.4l322.8-197.2L191.9,839.3
				c-1-0.3-2-0.7-2.9-1.2l-35.7-20.6c-4-2.3-6.8-6.5-6.9-11.1c-0.2-5,2.3-9.5,6.6-12l275.8-159.3L44,413.3c-0.9-0.3-1.8-0.7-2.6-1.1
				L9.6,393.8c-4.9-2.8-8.2-8-8.2-13.7c0-5.7,2.9-10.8,7.8-13.7l2.3-1.3c0.8-0.6,1.6-1.2,2.5-1.7l27.6-15.8
				C42.2,347.2,42.8,346.9,43.5,346.6z"/>
			<path class="st0" d="M43.5,346.3l583-336.6c3.5-2,7.5-3.1,11.6-3.1c4.1,0,8.1,1.1,11.6,3.1l25.7,14.8c5.2,3,8.3,8.4,8.3,14.4
				s-3.1,11.4-8.3,14.4l-564.7,326l422.5,243.7c4.6,2.6,7.1,7.7,6.5,13c-0.4,4.3-2.8,8.1-6.5,10.2L258.2,805.2l412.9,229.1
				c4.3,2.5,6.8,7,6.6,12c-0.2,4.6-2.9,8.8-6.9,11.1l-35.7,20.6c-0.9,0.5-1.8,0.9-2.8,1.2l-284,174.9l423.9,237.6
				c6.2,3.6,8.4,11.5,5,17.8c-1.2,2.2-2.9,4-5.1,5.2l-629.1,388c-0.1,0-0.1,0.1,0,0.2l454.1,285.4c4.1,2.4,6.6,6.7,6.6,11.4
				c0,4.8-2.5,9.1-6.6,11.4l-32.6,18.8c-3,1.7-6.4,2.6-9.8,2.6c-3.4,0-6.8-0.9-9.8-2.6c0,0-451-281.1-466.3-290.2c0,0-0.1,0-0.1,0
				c0,0,0.1,0,0,0c-2.5,0.2-4.7,0.3-6.4,0.3c-1.7,0-5-1.4-6.4-2.2l-34.1-19.6c-4-2.3-6.8-6.5-7-11.2c-0.2-5,2.3-9.4,6.6-11.9
				l636.2-392l-385.9-215.8c-0.8-0.3-1.5-0.6-2.2-1l-36.1-20.7c-4.1-2.4-6.6-6.7-6.6-11.4c0-4.8,2.5-9,6.6-11.4l322.8-197.2
				L191.9,838.9c-1-0.3-2-0.7-2.9-1.2l-35.7-20.6c-4-2.3-6.8-6.5-6.9-11.1c-0.2-5,2.3-9.5,6.6-12l275.8-159.3L44,412.9
				c-0.9-0.3-1.8-0.7-2.6-1.1L9.6,393.4c-4.9-2.8-8.2-8-8.2-13.7c0-5.7,2.9-10.8,7.8-13.7l2.3-1.3c0.8-0.6,1.6-1.2,2.5-1.7
				l27.6-15.8C42.2,346.8,42.8,346.5,43.5,346.3z"/>
			<path class="st0" d="M43.5,345.9l583-336.6c3.5-2,7.5-3.1,11.6-3.1c4.1,0,8.1,1.1,11.6,3.1l25.7,14.8c5.2,3,8.3,8.4,8.3,14.4
				S680.6,50,675.3,53L110.7,379l422.5,243.7c4.6,2.6,7.1,7.7,6.5,13c-0.4,4.3-2.8,8.1-6.5,10.2L258.2,804.9l412.9,229.1
				c4.3,2.5,6.8,7,6.6,12c-0.2,4.6-2.9,8.8-6.9,11.1l-35.7,20.6c-0.9,0.5-1.8,0.9-2.8,1.2l-284,174.9l423.9,237.6
				c6.2,3.6,8.4,11.5,5,17.8c-1.2,2.2-2.9,4-5.1,5.2l-629.1,388c-0.1,0-0.1,0.1,0,0.2l454.1,285.4c4.1,2.4,6.6,6.7,6.6,11.4
				c0,4.8-2.5,9.1-6.6,11.4l-32.6,18.8c-3,1.7-6.4,2.6-9.8,2.6c-3.4,0-6.8-0.9-9.8-2.6c0,0-452-281.8-466.2-290.3c0,0-0.1,0-0.1,0
				c0,0,0.1,0,0,0c-2.4,0.3-4.7,0.4-6.4,0.4c-1.7,0-4.9-1.3-6.4-2.2l-34.2-19.7c-4-2.3-6.8-6.5-7-11.2c-0.2-5,2.3-9.4,6.6-11.9
				l636.2-392l-385.9-215.8c-0.8-0.3-1.5-0.6-2.2-1l-36.1-20.7c-4.1-2.4-6.6-6.7-6.6-11.4c0-4.8,2.5-9,6.6-11.4l322.8-197.2
				L191.9,838.5c-1-0.3-2-0.7-2.9-1.2l-35.7-20.6c-4-2.3-6.8-6.5-6.9-11.1c-0.2-5,2.3-9.5,6.6-12l275.8-159.3L44,412.5
				c-0.9-0.3-1.8-0.7-2.6-1.1L9.6,393c-4.9-2.8-8.2-8-8.2-13.7c0-5.7,2.9-10.8,7.8-13.7l2.3-1.3c0.8-0.6,1.6-1.2,2.5-1.7l27.6-15.8
				C42.2,346.4,42.8,346.1,43.5,345.9z"/>
			<path class="st0" d="M43.5,345.5l583-336.6c3.5-2,7.5-3.1,11.6-3.1c4.1,0,8.1,1.1,11.6,3.1l25.7,14.8c5.2,3,8.3,8.4,8.3,14.4
				s-3.1,11.4-8.3,14.4l-564.7,326l422.5,243.7c4.6,2.6,7.1,7.7,6.5,13c-0.4,4.3-2.8,8.1-6.5,10.2L258.2,804.5l412.9,229.1
				c4.3,2.5,6.8,7,6.6,12c-0.2,4.6-2.9,8.8-6.9,11.1l-35.7,20.6c-0.9,0.5-1.8,0.9-2.8,1.2l-284,174.9l423.9,237.6
				c6.2,3.6,8.4,11.5,5,17.8c-1.2,2.2-2.9,4-5.1,5.2l-629.1,388c-0.1,0-0.1,0.1,0,0.2l454.1,285.4c4.1,2.4,6.6,6.7,6.6,11.4
				c0,4.8-2.5,9.1-6.6,11.4l-32.6,18.8c-3,1.7-6.4,2.6-9.8,2.6c-3.4,0-6.8-0.9-9.8-2.6c0,0-452.9-282.6-466-290.4c0,0-0.1,0-0.1,0
				c0,0,0.1,0,0,0c-2.4,0.3-4.6,0.5-6.4,0.5c-1.8,0-4.9-1.3-6.4-2.1l-34.3-19.7c-4-2.3-6.8-6.5-7-11.2c-0.2-5,2.3-9.4,6.6-11.9
				l636.2-392l-385.9-215.8c-0.8-0.3-1.5-0.6-2.2-1l-36.1-20.7c-4.1-2.4-6.6-6.7-6.6-11.4c0-4.8,2.5-9,6.6-11.4l322.8-197.2
				L191.9,838.1c-1-0.3-2-0.7-2.9-1.2l-35.7-20.6c-4-2.3-6.8-6.5-6.9-11.1c-0.2-5,2.3-9.5,6.6-12L428.7,634L44,412.1
				c-0.9-0.3-1.8-0.7-2.6-1.1L9.6,392.7c-4.9-2.8-8.2-8-8.2-13.7c0-5.7,2.9-10.8,7.8-13.7l2.3-1.3c0.8-0.6,1.6-1.2,2.5-1.7
				l27.6-15.8C42.2,346,42.8,345.7,43.5,345.5z"/>
			<path class="st0" d="M43.5,345.1l583-336.6c3.5-2,7.5-3.1,11.6-3.1c4.1,0,8.1,1.1,11.6,3.1l25.7,14.8c5.2,3,8.3,8.4,8.3,14.4
				s-3.1,11.4-8.3,14.4l-564.7,326L533.1,622c4.6,2.6,7.1,7.7,6.5,13c-0.4,4.3-2.8,8.1-6.5,10.2L258.2,804.1l412.9,229.1
				c4.3,2.5,6.8,7,6.6,12c-0.2,4.6-2.9,8.8-6.9,11.1l-35.7,20.6c-0.9,0.5-1.8,0.9-2.8,1.2l-284,174.9l423.9,237.6
				c6.2,3.6,8.4,11.5,5,17.8c-1.2,2.2-2.9,4-5.1,5.2l-629.1,388c-0.1,0-0.1,0.1,0,0.2l454.1,285.4c4.1,2.4,6.6,6.7,6.6,11.4
				c0,4.8-2.5,9.1-6.6,11.4l-32.6,18.8c-3,1.7-6.4,2.6-9.8,2.6c-3.4,0-6.8-0.9-9.8-2.6c0,0-453.9-283.3-465.9-290.4c0,0-0.1,0-0.1,0
				c0,0,0.1,0,0.1,0c-2.4,0.4-4.6,0.6-6.4,0.6c-1.8,0-4.9-1.2-6.4-2.1L31.4,1917c-4-2.3-6.8-6.5-7-11.2c-0.2-5,2.3-9.4,6.6-11.9
				l636.2-392l-385.9-215.8c-0.8-0.3-1.5-0.6-2.2-1l-36.1-20.7c-4.1-2.4-6.6-6.7-6.6-11.4c0-4.8,2.5-9,6.6-11.4l322.8-197.2
				L191.9,837.7c-1-0.3-2-0.7-2.9-1.2L153.2,816c-4-2.3-6.8-6.5-6.9-11.1c-0.2-5,2.3-9.5,6.6-12l275.8-159.3L44,411.8
				c-0.9-0.3-1.8-0.7-2.6-1.1L9.6,392.3c-4.9-2.8-8.2-8-8.2-13.7c0-5.7,2.9-10.8,7.8-13.7l2.3-1.3c0.8-0.6,1.6-1.2,2.5-1.7L41.6,346
				C42.2,345.7,42.8,345.4,43.5,345.1z"/>
			<path class="st0" d="M43.5,344.7l583-336.6C630,6.1,634,5,638.1,5c4.1,0,8.1,1.1,11.6,3.1L675.3,23c5.2,3,8.3,8.4,8.3,14.4
				s-3.1,11.4-8.3,14.4l-564.7,326l422.5,243.7c4.6,2.6,7.1,7.7,6.5,13c-0.4,4.3-2.8,8.1-6.5,10.2L258.2,803.7l412.9,229.1
				c4.3,2.5,6.8,7,6.6,12c-0.2,4.6-2.9,8.8-6.9,11.1l-35.7,20.6c-0.9,0.5-1.8,0.9-2.8,1.2l-284,174.9l423.9,237.6
				c6.2,3.6,8.4,11.5,5,17.8c-1.2,2.2-2.9,4-5.1,5.2l-629.1,388c-0.1,0-0.1,0.1,0,0.2l454.1,285.4c4.1,2.4,6.6,6.7,6.6,11.4
				s-2.5,9.1-6.6,11.4l-32.6,18.8c-3,1.7-6.4,2.6-9.8,2.6c-3.4,0-6.8-0.9-9.8-2.6c0,0-454.8-284-465.7-290.5c0,0-0.1,0-0.1,0
				c0,0,0.1,0,0.1,0c-2.3,0.5-4.6,0.7-6.5,0.7c-1.9,0-4.8-1.2-6.5-2.1l-34.5-19.9c-4-2.3-6.8-6.5-7-11.2c-0.2-5,2.3-9.4,6.6-11.9
				l636.2-392l-385.9-215.8c-0.8-0.3-1.5-0.6-2.2-1l-36.1-20.7c-4.1-2.4-6.6-6.7-6.6-11.4c0-4.8,2.5-9,6.6-11.4L565.8,1044
				L191.9,837.4c-1-0.3-2-0.7-2.9-1.2l-35.7-20.6c-4-2.3-6.8-6.5-6.9-11.1c-0.2-5,2.3-9.5,6.6-12l275.8-159.3L44,411.4
				c-0.9-0.3-1.8-0.7-2.6-1.1L9.6,391.9c-4.9-2.8-8.2-8-8.2-13.7c0-5.7,2.9-10.8,7.8-13.7l2.3-1.3c0.8-0.6,1.6-1.2,2.5-1.7
				l27.6-15.8C42.2,345.3,42.8,345,43.5,344.7z"/>
			<path class="st0" d="M43.5,344.4l583-336.6c3.5-2,7.5-3.1,11.6-3.1c4.1,0,8.1,1.1,11.6,3.1l25.7,14.8c5.2,3,8.3,8.4,8.3,14.4
				s-3.1,11.4-8.3,14.4l-564.7,326l422.5,243.7c4.6,2.6,7.1,7.7,6.5,13c-0.4,4.3-2.8,8.1-6.5,10.2L258.2,803.3l412.9,229.1
				c4.3,2.5,6.8,7,6.6,12c-0.2,4.6-2.9,8.8-6.9,11.1L635,1076c-0.9,0.5-1.8,0.9-2.8,1.2l-284,174.9l423.9,237.6
				c6.2,3.6,8.4,11.5,5,17.8c-1.2,2.2-2.9,4-5.1,5.2l-629.1,388c-0.1,0-0.1,0.1,0,0.2l454.1,285.4c4.1,2.4,6.6,6.7,6.6,11.4
				c0,4.8-2.5,9.1-6.6,11.4l-32.6,18.8c-3,1.7-6.4,2.6-9.8,2.6c-3.4,0-6.8-0.9-9.8-2.6c0,0-455.8-284.7-465.6-290.6c0,0-0.1,0-0.1,0
				c0,0,0.1,0,0.1,0c-2.3,0.5-4.5,0.8-6.5,0.8c-1.9,0-4.8-1.1-6.5-2l-34.7-19.9c-4-2.3-6.8-6.5-7-11.2c-0.2-5,2.3-9.4,6.6-11.9
				l636.2-392l-385.9-215.8c-0.8-0.3-1.5-0.6-2.2-1l-36.1-20.7c-4.1-2.4-6.6-6.7-6.6-11.4c0-4.8,2.5-9,6.6-11.4l322.8-197.2
				L191.9,837c-1-0.3-2-0.7-2.9-1.2l-35.7-20.6c-4-2.3-6.8-6.5-6.9-11.1c-0.2-5,2.3-9.5,6.6-12l275.8-159.3L44,411
				c-0.9-0.3-1.8-0.7-2.6-1.1L9.6,391.5c-4.9-2.8-8.2-8-8.2-13.7c0-5.7,2.9-10.8,7.8-13.7l2.3-1.3c0.8-0.6,1.6-1.2,2.5-1.7
				l27.6-15.8C42.2,344.9,42.8,344.6,43.5,344.4z"/>
			<path class="st0" d="M43.5,344l583-336.6c3.5-2,7.5-3.1,11.6-3.1c4.1,0,8.1,1.1,11.6,3.1l25.7,14.8c5.2,3,8.3,8.4,8.3,14.4
				s-3.1,11.4-8.3,14.4l-564.7,326l422.5,243.7c4.6,2.6,7.1,7.7,6.5,13c-0.4,4.3-2.8,8.1-6.5,10.2L258.2,802.9L671.1,1032
				c4.3,2.5,6.8,7,6.6,12c-0.2,4.6-2.9,8.8-6.9,11.1l-35.7,20.6c-0.9,0.5-1.8,0.9-2.8,1.2l-284,174.9l423.9,237.6
				c6.2,3.6,8.4,11.5,5,17.8c-1.2,2.2-2.9,4-5.1,5.2l-629.1,388c-0.1,0-0.1,0.1,0,0.2l454.1,285.4c4.1,2.4,6.6,6.7,6.6,11.4
				c0,4.8-2.5,9.1-6.6,11.4l-32.6,18.8c-3,1.7-6.4,2.6-9.8,2.6c-3.4,0-6.8-0.9-9.8-2.6c0,0-456.7-285.5-465.5-290.7c0,0-0.1,0-0.1,0
				c0,0,0.1,0,0.1,0c-2.3,0.6-4.5,0.9-6.5,0.9c-1.9,0-4.8-1-6.5-2l-34.8-20c-4-2.3-6.8-6.5-7-11.2c-0.2-5,2.3-9.4,6.6-11.9
				l636.2-392L281.3,1285c-0.8-0.3-1.5-0.6-2.2-1l-36.1-20.7c-4.1-2.4-6.6-6.7-6.6-11.4c0-4.8,2.5-9,6.6-11.4l322.8-197.2
				L191.9,836.6c-1-0.3-2-0.7-2.9-1.2l-35.7-20.6c-4-2.3-6.8-6.5-6.9-11.1c-0.2-5,2.3-9.5,6.6-12l275.8-159.3L44,410.6
				c-0.9-0.3-1.8-0.7-2.6-1.1L9.6,391.1c-4.9-2.8-8.2-8-8.2-13.7c0-5.7,2.9-10.8,7.8-13.7l2.3-1.3c0.8-0.6,1.6-1.2,2.5-1.7
				l27.6-15.8C42.2,344.5,42.8,344.2,43.5,344z"/>
			<path class="st0" d="M43.5,343.6L626.5,7c3.5-2,7.5-3.1,11.6-3.1c4.1,0,8.1,1.1,11.6,3.1l25.7,14.8c5.2,3,8.3,8.4,8.3,14.4
				s-3.1,11.4-8.3,14.4l-564.7,326l422.5,243.7c4.6,2.6,7.1,7.7,6.5,13c-0.4,4.3-2.8,8.1-6.5,10.2L258.2,802.6l412.9,229.1
				c4.3,2.5,6.8,7,6.6,12c-0.2,4.6-2.9,8.8-6.9,11.1l-35.7,20.6c-0.9,0.5-1.8,0.9-2.8,1.2l-284,174.9L772.1,1489
				c6.2,3.6,8.4,11.5,5,17.8c-1.2,2.2-2.9,4-5.1,5.2l-629.1,388c-0.1,0-0.1,0.1,0,0.2l454.1,285.4c4.1,2.4,6.6,6.7,6.6,11.4
				c0,4.8-2.5,9.1-6.6,11.4l-32.6,18.8c-3,1.7-6.4,2.6-9.8,2.6c-3.4,0-6.8-0.9-9.8-2.6c0,0-457.7-286.2-465.3-290.7c0,0-0.1,0-0.1,0
				c0,0,0.1,0,0.1,0c-2.2,0.7-4.5,1-6.5,1c-2,0-4.8-1-6.5-2l-34.9-20.1c-4-2.3-6.8-6.5-7-11.2c-0.2-5,2.3-9.4,6.6-11.9l636.2-392
				l-385.9-215.8c-0.8-0.3-1.5-0.6-2.2-1l-36.1-20.7c-4.1-2.4-6.6-6.7-6.6-11.4c0-4.8,2.5-9,6.6-11.4l322.8-197.2L191.9,836.2
				c-1-0.3-2-0.7-2.9-1.2l-35.7-20.6c-4-2.3-6.8-6.5-6.9-11.1c-0.2-5,2.3-9.5,6.6-12l275.8-159.3L44,410.2c-0.9-0.3-1.8-0.7-2.6-1.1
				L9.6,390.7c-4.9-2.8-8.2-8-8.2-13.7c0-5.7,2.9-10.8,7.8-13.7l2.3-1.3c0.8-0.6,1.6-1.2,2.5-1.7l27.6-15.8
				C42.2,344.1,42.8,343.8,43.5,343.6z"/>
			<path class="st0" d="M43.5,343.2l583-336.6c3.5-2,7.5-3.1,11.6-3.1c4.1,0,8.1,1.1,11.6,3.1l25.7,14.8c5.2,3,8.3,8.4,8.3,14.4
				s-3.1,11.4-8.3,14.4l-564.7,326l422.5,243.7c4.6,2.6,7.1,7.7,6.5,13c-0.4,4.3-2.8,8.1-6.5,10.2L258.2,802.2l412.9,229.1
				c4.3,2.5,6.8,7,6.6,12c-0.2,4.6-2.9,8.8-6.9,11.1l-35.7,20.6c-0.9,0.5-1.8,0.9-2.8,1.2l-284,174.9l423.9,237.6
				c6.2,3.6,8.4,11.5,5,17.8c-1.2,2.2-2.9,4-5.1,5.2l-629.1,388c-0.1,0-0.1,0.1,0,0.2l454.1,285.4c4.1,2.4,6.6,6.7,6.6,11.4
				c0,4.8-2.5,9.1-6.6,11.4l-32.6,18.8c-3,1.7-6.4,2.6-9.8,2.6c-3.4,0-6.8-0.9-9.8-2.6c0,0-458.6-286.9-465.2-290.8c0,0-0.1,0-0.1,0
				c0,0,0.1,0,0.1,0c-2.2,0.7-4.5,1.1-6.5,1.1c-2,0-4.7-0.9-6.5-2l-35-20.1c-4-2.3-6.8-6.5-7-11.2c-0.2-5,2.3-9.4,6.6-11.9
				l636.2-392l-385.9-215.8c-0.8-0.3-1.5-0.6-2.2-1l-36.1-20.7c-4.1-2.4-6.6-6.7-6.6-11.4c0-4.8,2.5-9,6.6-11.4l322.8-197.2
				L191.9,835.8c-1-0.3-2-0.7-2.9-1.2L153.2,814c-4-2.3-6.8-6.5-6.9-11.1c-0.2-5,2.3-9.5,6.6-12l275.8-159.3L44,409.9
				c-0.9-0.3-1.8-0.7-2.6-1.1L9.6,390.4c-4.9-2.8-8.2-8-8.2-13.7c0-5.7,2.9-10.8,7.8-13.7l2.3-1.3c0.8-0.6,1.6-1.2,2.5-1.7
				l27.6-15.8C42.2,343.8,42.8,343.5,43.5,343.2z"/>
			<path class="st0" d="M43.5,342.8l583-336.6c3.5-2,7.5-3.1,11.6-3.1c4.1,0,8.1,1.1,11.6,3.1l25.7,14.8c5.2,3,8.3,8.4,8.3,14.4
				S680.6,47,675.3,50L110.7,376l422.5,243.7c4.6,2.6,7.1,7.7,6.5,13c-0.4,4.3-2.8,8.1-6.5,10.2L258.2,801.8l412.9,229.1
				c4.3,2.5,6.8,7,6.6,12c-0.2,4.6-2.9,8.8-6.9,11.1l-35.7,20.6c-0.9,0.5-1.8,0.9-2.8,1.2l-284,174.9l423.9,237.6
				c6.2,3.6,8.4,11.5,5,17.8c-1.2,2.2-2.9,4-5.1,5.2l-629.1,388c-0.1,0-0.1,0.1,0,0.2l454.1,285.4c4.1,2.4,6.6,6.7,6.6,11.4
				c0,4.8-2.5,9.1-6.6,11.4l-32.6,18.8c-3,1.7-6.4,2.6-9.8,2.6c-3.4,0-6.8-0.9-9.8-2.6c0,0-459.6-287.6-465.1-290.9c0,0-0.1,0-0.1,0
				c0,0,0.1,0,0.1,0c-2.2,0.8-4.4,1.2-6.5,1.2c-2.1,0-4.7-0.9-6.5-1.9l-35.1-20.2c-4-2.3-6.8-6.5-7-11.2c-0.2-5,2.3-9.4,6.6-11.9
				l636.2-392l-385.9-215.8c-0.8-0.3-1.5-0.6-2.2-1l-36.1-20.7c-4.1-2.4-6.6-6.7-6.6-11.4c0-4.8,2.5-9,6.6-11.4l322.8-197.2
				L191.9,835.5c-1-0.3-2-0.7-2.9-1.2l-35.7-20.6c-4-2.3-6.8-6.5-6.9-11.1c-0.2-5,2.3-9.5,6.6-12l275.8-159.3L44,409.5
				c-0.9-0.3-1.8-0.7-2.6-1.1L9.6,390c-4.9-2.8-8.2-8-8.2-13.7c0-5.7,2.9-10.8,7.8-13.7l2.3-1.3c0.8-0.6,1.6-1.2,2.5-1.7l27.6-15.8
				C42.2,343.4,42.8,343.1,43.5,342.8z"/>
			<path class="st0" d="M43.5,342.4l583-336.6c3.5-2,7.5-3.1,11.6-3.1c4.1,0,8.1,1.1,11.6,3.1l25.7,14.8c5.2,3,8.3,8.4,8.3,14.4
				s-3.1,11.4-8.3,14.4l-564.7,326l422.5,243.7c4.6,2.6,7.1,7.7,6.5,13c-0.4,4.3-2.8,8.1-6.5,10.2L258.2,801.4l412.9,229.1
				c4.3,2.5,6.8,7,6.6,12c-0.2,4.6-2.9,8.8-6.9,11.1l-35.7,20.6c-0.9,0.5-1.8,0.9-2.8,1.2l-284,174.9l423.9,237.6
				c6.2,3.6,8.4,11.5,5,17.8c-1.2,2.2-2.9,4-5.1,5.2l-629.1,388c-0.1,0-0.1,0.1,0,0.2l454.1,285.4c4.1,2.4,6.6,6.7,6.6,11.4
				c0,4.8-2.5,9.1-6.6,11.4l-32.6,18.8c-3,1.7-6.4,2.6-9.8,2.6c-3.4,0-6.8-0.9-9.8-2.6c0,0-460.5-288.3-464.9-290.9c0,0-0.1,0-0.1,0
				c0,0,0.1,0,0.1,0c-2.1,0.9-4.4,1.3-6.5,1.3c-2.1,0-4.7-0.8-6.5-1.9l-35.2-20.3c-4-2.3-6.8-6.5-7-11.2c-0.2-5,2.3-9.4,6.6-11.9
				l636.2-392l-385.9-215.8c-0.8-0.3-1.5-0.6-2.2-1l-36.1-20.7c-4.1-2.4-6.6-6.7-6.6-11.4c0-4.8,2.5-9,6.6-11.4l322.8-197.2
				L191.9,835.1c-1-0.3-2-0.7-2.9-1.2l-35.7-20.6c-4-2.3-6.8-6.5-6.9-11.1c-0.2-5,2.3-9.5,6.6-12L428.7,631L44,409.1
				c-0.9-0.3-1.8-0.7-2.6-1.1L9.6,389.6c-4.9-2.8-8.2-8-8.2-13.7c0-5.7,2.9-10.8,7.8-13.7l2.3-1.3c0.8-0.6,1.6-1.2,2.5-1.7
				l27.6-15.8C42.2,343,42.8,342.7,43.5,342.4z"/>
			<path class="st0" d="M43.5,342.1l583-336.6c3.5-2,7.5-3.1,11.6-3.1c4.1,0,8.1,1.1,11.6,3.1l25.7,14.8c5.2,3,8.3,8.4,8.3,14.4
				s-3.1,11.4-8.3,14.4l-564.7,326l422.5,243.7c4.6,2.6,7.1,7.7,6.5,13c-0.4,4.3-2.8,8.1-6.5,10.2L258.2,801l412.9,229.1
				c4.3,2.5,6.8,7,6.6,12c-0.2,4.6-2.9,8.8-6.9,11.1l-35.7,20.6c-0.9,0.5-1.8,0.9-2.8,1.2l-284,174.9l423.9,237.6
				c6.2,3.6,8.4,11.5,5,17.8c-1.2,2.2-2.9,4-5.1,5.2l-629.1,388c-0.1,0-0.1,0.1,0,0.2L596.9,2184c4.1,2.4,6.6,6.7,6.6,11.4
				c0,4.8-2.5,9.1-6.6,11.4l-32.6,18.8c-3,1.7-6.4,2.6-9.8,2.6c-3.4,0-6.8-0.9-9.8-2.6c0,0-461.5-289.1-464.8-291c0,0-0.1,0-0.1,0
				c0,0,0.1,0,0.1,0c-2.1,1-4.4,1.5-6.5,1.4c-2.2,0-4.7-0.8-6.5-1.9L31.4,1914c-4-2.3-6.8-6.5-7-11.2c-0.2-5,2.3-9.4,6.6-11.9
				l636.2-392l-385.9-215.8c-0.8-0.3-1.5-0.6-2.2-1l-36.1-20.7c-4.1-2.4-6.6-6.7-6.6-11.4c0-4.8,2.5-9,6.6-11.4l322.8-197.2
				L191.9,834.7c-1-0.3-2-0.7-2.9-1.2l-35.7-20.6c-4-2.3-6.8-6.5-6.9-11.1c-0.2-5,2.3-9.5,6.6-12l275.8-159.3L44,408.7
				c-0.9-0.3-1.8-0.7-2.6-1.1L9.6,389.2c-4.9-2.8-8.2-8-8.2-13.7c0-5.7,2.9-10.8,7.8-13.7l2.3-1.3c0.8-0.6,1.6-1.2,2.5-1.7L41.6,343
				C42.2,342.6,42.8,342.3,43.5,342.1z"/>
			<path class="st0" d="M43.5,341.7l583-336.6C630,3.1,634,2,638.1,2c4.1,0,8.1,1.1,11.6,3.1l25.7,14.8c5.2,3,8.3,8.4,8.3,14.4
				s-3.1,11.4-8.3,14.4l-564.7,326l422.5,243.7c4.6,2.6,7.1,7.7,6.5,13c-0.4,4.3-2.8,8.1-6.5,10.2L258.2,800.7l412.9,229.1
				c4.3,2.5,6.8,7,6.6,12c-0.2,4.6-2.9,8.8-6.9,11.1l-35.7,20.6c-0.9,0.5-1.8,0.9-2.8,1.2l-284,174.9l423.9,237.6
				c6.2,3.6,8.4,11.5,5,17.8c-1.2,2.2-2.9,4-5.1,5.2l-629.1,388c-0.1,0-0.1,0.1,0,0.2l454.1,285.4c4.1,2.4,6.6,6.7,6.6,11.4
				c0,4.8-2.5,9.1-6.6,11.4l-32.6,18.8c-3,1.7-6.4,2.6-9.8,2.6c-3.4,0-6.8-0.9-9.8-2.6c0,0-462.4-289.8-464.6-291.1c0,0-0.1,0-0.1,0
				c0,0,0.1,0,0.1,0c-2.1,1-4.3,1.6-6.6,1.6c-2.2,0-4.6-0.7-6.6-1.8l-35.5-20.4c-4-2.3-6.8-6.5-7-11.2c-0.2-5,2.3-9.4,6.6-11.9
				l636.2-392l-385.9-215.8c-0.8-0.3-1.5-0.6-2.2-1l-36.1-20.7c-4.1-2.4-6.6-6.7-6.6-11.4c0-4.8,2.5-9,6.6-11.4L565.8,1041
				L191.9,834.3c-1-0.3-2-0.7-2.9-1.2l-35.7-20.6c-4-2.3-6.8-6.5-6.9-11.1c-0.2-5,2.3-9.5,6.6-12l275.8-159.3L44,408.3
				c-0.9-0.3-1.8-0.7-2.6-1.1L9.6,388.8c-4.9-2.8-8.2-8-8.2-13.7c0-5.7,2.9-10.8,7.8-13.7l2.3-1.3c0.8-0.6,1.6-1.2,2.5-1.7
				l27.6-15.8C42.2,342.2,42.8,341.9,43.5,341.7z"/>
			<path class="st0" d="M43.5,341.3l583-336.6c3.5-2,7.5-3.1,11.6-3.1c4.1,0,8.1,1.1,11.6,3.1l25.7,14.8c5.2,3,8.3,8.4,8.3,14.4
				s-3.1,11.4-8.3,14.4l-564.7,326l422.5,243.7c4.6,2.6,7.1,7.7,6.5,13c-0.4,4.3-2.8,8.1-6.5,10.2L258.2,800.3l412.9,229.1
				c4.3,2.5,6.8,7,6.6,12c-0.2,4.6-2.9,8.8-6.9,11.1L635,1073c-0.9,0.5-1.8,0.9-2.8,1.2l-284,174.9l423.9,237.6
				c6.2,3.6,8.4,11.5,5,17.8c-1.2,2.2-2.9,4-5.1,5.2l-629.1,388c-0.1,0-0.1,0.1,0,0.2l454.1,285.4c4.1,2.4,6.6,6.7,6.6,11.4
				c0,4.8-2.5,9.1-6.6,11.4l-32.6,18.8c-3,1.7-6.4,2.6-9.8,2.6c-3.4,0-6.8-0.9-9.8-2.6c0,0-463.4-290.5-464.5-291.2c0,0-0.1,0-0.1,0
				c0,0,0.1,0,0.1,0c-2,1.1-4.3,1.7-6.6,1.7c-2.3,0-4.6-0.7-6.6-1.8l-35.6-20.5c-4-2.3-6.8-6.5-7-11.2c-0.2-5,2.3-9.4,6.6-11.9
				l636.2-392l-385.9-215.8c-0.8-0.3-1.5-0.6-2.2-1l-36.1-20.7c-4.1-2.4-6.6-6.7-6.6-11.4c0-4.8,2.5-9,6.6-11.4l322.8-197.2
				L191.9,833.9c-1-0.3-2-0.7-2.9-1.2l-35.7-20.6c-4-2.3-6.8-6.5-6.9-11.1c-0.2-5,2.3-9.5,6.6-12l275.8-159.3L44,408
				c-0.9-0.3-1.8-0.7-2.6-1.1L9.6,388.5c-4.9-2.8-8.2-8-8.2-13.7c0-5.7,2.9-10.8,7.8-13.7l2.3-1.3c0.8-0.6,1.6-1.2,2.5-1.7
				l27.6-15.8C42.2,341.9,42.8,341.6,43.5,341.3z"/>
			<path class="st0" d="M554.5,2227.2c-3.4,0-6.8-0.9-9.8-2.6L80.3,1933.4c0,0-0.1,0-0.1,0l0.1,0c-2,1.2-4.3,1.8-6.6,1.8
				c-2.3,0-4.6-0.6-6.6-1.8l-35.7-20.5c-4-2.3-6.8-6.5-7-11.2c-0.2-5,2.3-9.4,6.6-11.9l636.2-392L281.3,1282c-0.8-0.3-1.5-0.6-2.2-1
				l-36.1-20.7c-4.1-2.4-6.6-6.7-6.6-11.4c0-4.8,2.5-9,6.6-11.4l322.8-197.2L191.9,833.6c-1-0.3-2-0.7-2.9-1.2l-35.7-20.6
				c-4-2.3-6.8-6.5-6.9-11.1c-0.2-5,2.3-9.5,6.6-12l275.8-159.3L44,407.6c-0.9-0.3-1.8-0.7-2.6-1.1L9.6,388.1
				c-4.9-2.8-8.2-8-8.2-13.7c0-5.7,2.9-10.8,7.8-13.7l2.3-1.3c0.8-0.6,1.6-1.2,2.5-1.7l27.6-15.8c0.6-0.3,1.2-0.6,1.9-0.9l583-336.6
				c3.5-2,7.5-3.1,11.6-3.1c4.1,0,8.1,1.1,11.6,3.1l25.7,14.8c5.2,3,8.3,8.4,8.3,14.4s-3.1,11.4-8.3,14.4l-564.7,326l422.5,243.7
				c4.6,2.6,7.1,7.7,6.5,13c-0.4,4.3-2.8,8.1-6.5,10.2L258.2,799.9L671.1,1029c4.3,2.5,6.8,7,6.6,12c-0.2,4.6-2.9,8.8-6.9,11.1
				l-35.7,20.6c-0.9,0.5-1.8,0.9-2.8,1.2l-284,174.9l423.9,237.6c6.2,3.6,8.4,11.5,5,17.8c-1.2,2.2-2.9,4-5.1,5.2l-629.1,388
				c-0.1,0-0.1,0.1,0,0.2l454.1,285.4c4.1,2.4,6.6,6.7,6.6,11.4c0,4.8-2.5,9.1-6.6,11.4l-32.6,18.8
				C561.3,2226.3,557.9,2227.2,554.5,2227.2z"/>
		</g>
		<g>
			<path class="st1" d="M554.5,2220.4c-2.2,0-4.5-0.6-6.4-1.7L80.4,1925.5l-0.1,0h-0.1l-0.1,0.1l-3.2,1.9c-1,0.6-2.1,0.8-3.2,0.8
				c-1.1,0-2.2-0.3-3.2-0.8l-36.1-20.7c-2-1.1-3.2-3.2-3.2-5.5c0-2.3,1.2-4.4,3.2-5.5l646.5-397.9l-396.8-222.1
				c-0.6-0.2-1.1-0.4-1.6-0.6l-36.1-20.7c-2-1.1-3.2-3.2-3.2-5.5c0-2.3,1.2-4.4,3.2-5.5l333-203.1l-385-213
				c-0.8-0.2-1.5-0.4-2.1-0.8l-36.1-20.7c-2-1.1-3.2-3.2-3.2-5.5c0-2.3,1.2-4.4,3.2-5.5l286-165.2L46.7,401.2
				c-0.7-0.2-1.3-0.4-1.8-0.7L12.6,382c-2.8-1.6-4.4-4.5-4.4-7.6c0-3.2,1.6-6,4.4-7.6l2.8-1.6c0.7-0.6,1.3-1,2-1.4L45,347.8
				c0.4-0.2,0.8-0.4,1.3-0.6L629.9,10.3c2.5-1.4,5.3-2.2,8.1-2.2c2.9,0,5.7,0.8,8.1,2.2l25.7,14.8c3.1,1.8,4.9,5,4.9,8.5
				s-1.8,6.7-4.9,8.5L97,374.1l432.7,249.6c2.2,1.3,3.5,3.8,3.1,6.3c-0.2,2.1-1.3,4-3.2,5L244.5,799.9l423.2,235
				c2,1.1,3.2,3.2,3.2,5.5c0,2.3-1.2,4.4-3.2,5.5l-36.1,20.7c-0.6,0.3-1.2,0.6-1.9,0.7l-0.1,0l-295.1,181.3l434.1,243.5
				c2,1.1,3.2,3.2,3.2,5.5c0,2.3-1.2,4.4-3.2,5.5l-0.6,0.3l0.1,0.1l-638.7,393.5l0,0.2c0,0.1,0.1,0.3,0.2,0.3l464,291.1
				c2,1.2,3.2,3.2,3.2,5.5s-1.2,4.4-3.2,5.5l-32.6,18.8C558.9,2219.8,556.7,2220.4,554.5,2220.4z"/>
			<path class="st2" d="M638.1,8.4c2.8,0,5.6,0.7,8,2.1l25.7,14.8c3,1.7,4.8,4.8,4.8,8.3c0,3.4-1.8,6.5-4.8,8.3L97.3,373.6l-0.9,0.5
				l0.9,0.5L529.6,624c2.2,1.2,3.3,3.6,3,6.1c-0.2,2-1.3,3.8-3,4.8L244.8,799.4l-0.9,0.5l0.9,0.5l422.7,234.8c1.9,1.1,3,3.1,3,5.3
				c0,2.2-1.1,4.2-3,5.2l-36.1,20.7c-0.5,0.3-1.2,0.5-1.8,0.7l-0.1,0l-0.1,0.1l-294.7,181l-0.8,0.5l0.9,0.5l433.7,243.3
				c1.9,1.1,3,3.1,3,5.3c0,2.2-1.1,4.2-3,5.2l-0.2,0.1l-0.8,0.5l0.1,0.1l-638.2,393.2c-0.2,0.1-0.3,0.3-0.3,0.6
				c0,0.2,0.1,0.5,0.3,0.6l464,291.1c1.9,1.1,3,3.1,3,5.3c0,2.2-1.1,4.2-3,5.3l-32.6,18.8c-1.9,1.1-4.1,1.7-6.3,1.7
				c-2.2,0-4.4-0.6-6.3-1.7L80.6,1925.3c-0.1-0.1-0.2-0.1-0.3-0.1l-0.2,0l-0.1,0.1l-3.2,1.9c-0.9,0.5-2,0.8-3,0.8
				c-1.1,0-2.1-0.3-3-0.8l-36.1-20.7c-1.9-1.1-3-3.1-3-5.3c0-2.2,1.1-4.2,3-5.3l646-397.7l0.8-0.5l-0.9-0.5l-396.4-221.9l-0.1,0
				l-0.1,0c-0.5-0.1-1-0.3-1.4-0.6l-36.1-20.7c-1.9-1.1-3-3.1-3-5.2c0-2.2,1.1-4.2,3-5.3l332.6-202.8l0.8-0.5l-0.9-0.5L194.7,826.9
				l-0.1,0l-0.1,0c-0.7-0.1-1.4-0.4-1.9-0.7l-36.1-20.7c-1.9-1.1-3-3.1-3-5.2c0-2.2,1.1-4.2,3-5.3l285.6-165l0.9-0.5l-0.9-0.5
				L46.8,401l-0.1,0l-0.1,0c-0.6-0.1-1.2-0.4-1.7-0.6l-32.2-18.6c-2.7-1.5-4.3-4.3-4.3-7.4s1.6-5.9,4.3-7.4l2.8-1.6l0,0l0,0
				c0.6-0.5,1.2-1,1.9-1.4L45.2,348c0.4-0.2,0.8-0.4,1.3-0.5l0.1,0l0.1,0L630.1,10.5C632.5,9.1,635.3,8.4,638.1,8.4 M638.1,7.8
				c-2.9,0-5.7,0.7-8.3,2.2L46.2,346.9c-0.5,0.1-0.9,0.3-1.4,0.6l-27.6,15.8c-0.7,0.4-1.4,0.9-2,1.4l-2.8,1.6
				c-6.1,3.5-6.1,12.3,0,15.8l32.2,18.6c0.6,0.3,1.2,0.6,1.8,0.7l395.3,227.9l-285.6,165c-4.4,2.6-4.4,9,0,11.5l36.1,20.7
				c0.7,0.4,1.4,0.6,2.1,0.8l384.5,212.8l-332.6,202.8c-4.4,2.6-4.4,9,0,11.5l36.1,20.7c0.5,0.3,1,0.5,1.6,0.6l396.4,221.9
				l-646,397.7c-4.4,2.6-4.4,9,0,11.5l36.1,20.7c1,0.6,2.2,0.9,3.3,0.9c1.1,0,2.3-0.3,3.3-0.9l3.2-1.9c0,0,0,0,0,0c0,0,0,0,0,0
				l467.6,293.1c2,1.2,4.3,1.8,6.6,1.8s4.5-0.6,6.6-1.8l32.6-18.8c4.4-2.6,4.4-9,0-11.5l-464-291.1c-0.1,0-0.1-0.1,0-0.2l639-393.7
				l-0.1-0.1l0.2-0.1c4.4-2.5,4.4-8.9,0-11.5l-433.7-243.3l294.7-181c0.7-0.1,1.4-0.4,2-0.7l36.1-20.7c4.4-2.5,4.4-8.9,0-11.5
				L245.1,799.9l284.7-164.6c2-1.2,3.1-3.2,3.3-5.2c0.3-2.5-0.8-5.2-3.3-6.6L97.6,374.1L672.1,42.4c6.7-3.9,6.7-13.6,0-17.5
				L646.3,10C643.8,8.5,640.9,7.8,638.1,7.8L638.1,7.8z"/>
		</g>
		<path class="st3" d="M554.5,2227.2c-3.4,0-6.8-0.9-9.8-2.6c0,0-475.5-290.1-477.5-291.2l-35.7-20.5c-4-2.3-6.8-6.5-7-11.2
			c-0.2-5,2.3-9.4,6.6-11.9l636.2-392L281.3,1282c-0.8-0.3-1.5-0.6-2.2-1l-36.1-20.7c-4.1-2.4-6.6-6.7-6.6-11.4
			c0-4.8,2.5-9,6.6-11.4l322.8-197.2L191.9,833.6c-1-0.3-2-0.7-2.9-1.2l-35.7-20.6c-4-2.3-6.8-6.5-6.9-11.1c-0.2-5,2.3-9.5,6.6-12
			l275.8-159.3L44,407.6c-0.9-0.3-1.8-0.7-2.6-1.1L9.6,388.1c-4.9-2.8-8.2-8-8.2-13.7c0-5.7,2.9-10.8,7.8-13.7l2.3-1.3
			c0.8-0.6,1.6-1.2,2.5-1.7l27.6-15.8c0.6-0.3,1.2-0.6,1.9-0.9l583-336.6c3.5-2,7.5-3.1,11.6-3.1c4.1,0,8.1,1.1,11.6,3.1l25.7,14.8
			c5.2,3,8.3,8.4,8.3,14.4s-3.1,11.4-8.3,14.4l-564.7,326l422.5,243.7c4.6,2.6,7.1,7.7,6.5,13c-0.4,4.3-2.8,8.1-6.5,10.2
			L258.2,799.9L671.1,1029c4.3,2.5,6.8,7,6.6,12c-0.2,4.6-2.9,8.8-6.9,11.1l-35.7,20.6c-0.9,0.5-1.8,0.9-2.8,1.2l-284,174.9
			l423.9,237.6c6.2,3.6,8.4,11.5,5,17.8c-1.2,2.2-2.9,4-5.1,5.2l-629.1,388c-0.1,0-0.1,0.1,0,0.2l454.1,285.4
			c4.1,2.4,6.6,6.7,6.6,11.4c0,4.8-2.5,9.1-6.6,11.4l-32.6,18.8C561.3,2226.3,557.9,2227.2,554.5,2227.2z"/>
		<g>
			<path class="st0" d="M80.3,2533.9c-0.9-0.3,8.5-14.7-0.8-3.9l-25.9-13.2c-4.9-2.8-24.5-0.7-24.6-6.4c0-5.7,2.9-10.8,7.8-13.7
				l2.3-1.3c0.8-0.6,1.6-1.2,2.5-1.7l27.6-15.8c0.6-0.3,1.2-0.6,1.9-0.9l473.7-291.4c3.5-2,7.5-3.1,11.6-3.1c4.1,0,8.1,1.1,11.6,3.1
				l25.7,14.8c5.2,3,8.3,8.4,8.3,14.4c0,6-3.1,11.4-8.3,14.4l-178.6,110.2l-259.6,155.4l-18.5,8.4"/>
			<path class="st0" d="M80.2,2533.7c-0.4-0.1,0.8-2.4,1.8-4.4c1.6-3.2,2.7-5.9-2.8,0.5l-25.7-13.1c-4.8-2.8-24.3-0.8-24.3-6.4
				c-0.1-5.6,2.7-10.8,7.5-13.7c0,0,2.3-1.4,2.3-1.4c0.8-0.7,1.6-1.2,2.5-1.8c0-0.1,8.9-5.2,8.9-5.2l2.3-1.3c0,0,2.6-1.5,2.6-1.5
				l13.7-7.9c0.6-0.3,1.2-0.6,1.9-0.9l11.1-6.8c0,0,1.7-1,1.7-1.1L544.9,2185c3.5-2,7.5-3.1,11.6-3.1c4.1,0,8.1,1.1,11.6,3.1
				l25.7,14.8c5.2,3,8.3,8.4,8.3,14.4c0,6-3.1,11.4-8.3,14.4l-178.7,110.2l-259.6,155.5l-18.5,8.5"/>
			<path class="st0" d="M80,2533.5c-0.4-0.1,0.8-2.3,1.8-4.4c1.6-3.1,2.6-5.9-2.9,0.4l-25.4-13c-4.7-2.7-24-1-24.1-6.4
				c-0.1-5.6,2.5-10.7,7.2-13.7c0,0,2.2-1.4,2.2-1.4c0.8-0.7,1.6-1.3,2.5-1.8c0-0.1,8.8-5.2,8.9-5.3l2.3-1.3c0,0,2.5-1.5,2.6-1.5
				l13.8-7.9c0.6-0.3,1.3-0.7,1.9-0.9l11.1-6.8c0,0,1.7-1,1.7-1l461.4-283.9c3.5-2,7.5-3.1,11.6-3.1c4.1,0,8.1,1.1,11.6,3.1
				l25.7,14.8c5.2,3,8.3,8.4,8.3,14.4c0,6-3.1,11.4-8.3,14.4L415,2338.6l-259.6,155.6l-18.4,8.5"/>
			<path class="st0" d="M79.8,2533.3c-0.4-0.1,0.7-2.3,1.7-4.3c1.5-3,2.4-5.8-2.9,0.4l-25.2-12.9c-4.6-2.7-23.7-1.1-23.9-6.4
				c-0.2-5.5,2.3-10.6,6.9-13.7c0-0.1,2.2-1.4,2.2-1.4c0.8-0.7,1.6-1.3,2.4-1.8c0.1-0.2,8.6-5.2,8.8-5.3l2.3-1.3
				c0,0,2.5-1.5,2.6-1.5l13.8-7.9c0.6-0.3,1.3-0.7,1.9-0.9l11.1-6.8c0,0,1.7-1,1.7-1l461.7-284c3.5-2,7.5-3.1,11.6-3.1
				c4.1,0,8.1,1.1,11.6,3.1l25.7,14.8c5.2,3,8.3,8.4,8.3,14.4c0,6-3.1,11.4-8.3,14.4L415,2338.2l-259.6,155.7l-18.4,8.6"/>
			<path class="st0" d="M79.7,2533.1c-0.4-0.1,0.7-2.3,1.6-4.2c1.5-3,2.3-5.7-2.9,0.3l-25-12.8c-4.5-2.6-23.4-1.2-23.6-6.5
				c-0.2-5.5,2-10.6,6.6-13.7c0-0.1,2.2-1.4,2.2-1.5c0.7-0.7,1.5-1.3,2.4-1.8c0.1-0.3,8.5-5.2,8.8-5.4l2.3-1.3
				c0.1-0.1,2.5-1.5,2.6-1.5l13.8-7.9c0.6-0.3,1.3-0.7,1.9-0.9l11.1-6.8c0,0,1.7-1,1.7-1l461.9-284.2c3.5-2,7.5-3.1,11.6-3.1
				c4.1,0,8.1,1.1,11.6,3.1l25.7,14.8c5.2,3,8.3,8.4,8.3,14.4c0,6-3.1,11.4-8.3,14.4L415,2337.8l-259.6,155.8l-18.4,8.6"/>
			<path class="st0" d="M79.5,2532.9c-0.4-0.1,0.6-2.2,1.5-4.2c1.5-2.9,2.1-5.7-3,0.2l-24.8-12.7c-4.4-2.6-23.2-1.4-23.4-6.5
				c-0.3-5.4,1.8-10.5,6.3-13.7c0-0.1,2.1-1.4,2.1-1.5c0.7-0.7,1.5-1.3,2.4-1.9c0.1-0.3,8.4-5.2,8.7-5.4l2.3-1.3
				c0.1-0.1,2.5-1.5,2.6-1.5l13.8-7.9c0.5-0.3,1.3-0.7,1.9-0.9l11.1-6.8c0.1,0,1.7-1,1.7-1l462.2-284.4c3.5-2,7.5-3.1,11.6-3.1
				c4.1,0,8.1,1.1,11.6,3.1l25.7,14.8c5.2,3,8.3,8.4,8.3,14.4c0,6-3.1,11.4-8.3,14.4L415,2337.4l-259.5,155.8l-18.4,8.6"/>
			<path class="st0" d="M79.3,2532.7c-0.4-0.1,0.6-2.2,1.4-4.1c1.4-2.9,2-5.6-3,0.2l-24.5-12.6c-4.3-2.5-22.9-1.5-23.2-6.5
				c-0.3-5.4,1.6-10.5,5.9-13.7c0-0.1,2.1-1.4,2.1-1.5c0.7-0.7,1.5-1.3,2.3-1.9c0.1-0.4,8.3-5.3,8.7-5.5l2.3-1.3
				c0.1-0.1,2.5-1.5,2.6-1.5l13.8-7.9c0.5-0.3,1.3-0.7,1.9-0.9l11.1-6.8c0.1,0,1.7-1,1.7-1l462.4-284.5c3.5-2,7.5-3.1,11.6-3.1
				c4.1,0,8.1,1.1,11.6,3.1l25.7,14.8c5.2,3,8.3,8.4,8.3,14.4c0,6-3.1,11.4-8.3,14.4L415,2337.1L155.5,2493l-18.3,8.7"/>
			<path class="st0" d="M79.1,2532.5c-0.4-0.1,0.5-2.2,1.3-4c1.4-2.8,1.9-5.5-3,0.1L53.1,2516c-4.2-2.4-22.6-1.6-23-6.5
				c-0.4-5.3,1.4-10.4,5.6-13.7c0-0.1,2-1.4,2-1.5c0.7-0.7,1.5-1.3,2.3-1.9c0.2-0.4,8.2-5.3,8.7-5.5l2.3-1.3
				c0.1-0.1,2.5-1.4,2.6-1.5l13.8-7.9c0.5-0.3,1.3-0.7,1.9-0.9l11.1-6.8c0.1,0,1.7-1,1.7-1l462.7-284.7c3.5-2,7.5-3.1,11.6-3.1
				c4.1,0,8.1,1.1,11.6,3.1l25.7,14.8c5.2,3,8.3,8.4,8.3,14.4c0,6-3.1,11.4-8.3,14.4L415,2336.7l-259.5,156l-18.3,8.7"/>
			<path class="st0" d="M79,2532.3c-0.4-0.1,0.5-2.1,1.2-4c1.4-2.7,1.7-5.5-3.1,0L53.1,2516c-4.1-2.4-22.4-1.8-22.7-6.5
				c-0.4-5.3,1.2-10.4,5.3-13.7c0-0.1,2-1.4,2-1.6c0.7-0.7,1.5-1.4,2.3-1.9c0.2-0.5,8.1-5.3,8.6-5.6l2.3-1.3
				c0.1-0.1,2.4-1.4,2.6-1.5l13.8-7.9c0.5-0.3,1.3-0.7,1.9-0.9l11.1-6.8c0.1-0.1,1.6-1,1.7-1l462.9-284.8c3.5-2,7.5-3.1,11.6-3.1
				c4.1,0,8.1,1.1,11.6,3.1l25.7,14.8c5.2,3,8.3,8.4,8.3,14.4c0,6-3.1,11.4-8.3,14.4L415,2336.3l-259.5,156.1l-18.3,8.8"/>
			<path class="st0" d="M78.8,2532.1c-0.5-0.1,0.4-2.1,1.1-3.9c1.4-2.7,1.6-5.4-3.1,0L53,2515.9c-4-2.3-22.1-1.9-22.5-6.6
				c-0.5-5.3,0.9-10.3,5-13.7c0-0.2,1.9-1.4,2-1.6c0.7-0.7,1.4-1.4,2.2-2c0.2-0.6,8-5.3,8.6-5.6l2.3-1.3c0.1-0.1,2.4-1.4,2.6-1.5
				l13.8-7.9c0.5-0.3,1.3-0.7,1.9-0.9L80,2468c0.1-0.1,1.6-1,1.7-1l463.2-285c3.5-2,7.5-3.1,11.6-3.1c4.1,0,8.1,1.1,11.6,3.1
				l25.7,14.8c5.2,3,8.3,8.4,8.3,14.4c0,6-3.1,11.4-8.3,14.4L414.9,2336l-259.5,156.2l-18.3,8.8"/>
			<path class="st0" d="M78.6,2531.9c-0.5-0.1,0.4-2.1,1.1-3.8c1.3-2.6,1.4-5.3-3.1-0.1l-23.6-12.2c-4-2.3-21.8-2-22.3-6.6
				c-0.5-5.2,0.7-10.3,4.7-13.7c0-0.2,1.9-1.4,1.9-1.6c0.7-0.7,1.4-1.4,2.2-2c0.2-0.6,7.9-5.3,8.5-5.7l2.3-1.3
				c0.2-0.1,2.4-1.4,2.6-1.5l13.8-7.9c0.5-0.3,1.4-0.7,1.9-0.9l11.2-6.8c0.1-0.1,1.6-1,1.8-1l463.4-285.1c3.5-2,7.5-3.1,11.6-3.1
				c4.1,0,8.1,1.1,11.6,3.1l25.7,14.8c5.2,3,8.3,8.4,8.3,14.4c0,6-3.1,11.4-8.3,14.4l-178.8,110.3l-259.5,156.2l-18.3,8.9"/>
			<path class="st0" d="M78.5,2531.8c-0.5-0.2,0.3-2,1-3.8c1.3-2.5,1.3-5.3-3.2-0.1l-23.4-12.1c-3.9-2.2-21.6-2.2-22.1-6.6
				c-0.6-5.2,0.5-10.2,4.4-13.7c0-0.2,1.8-1.5,1.9-1.6c0.7-0.7,1.4-1.4,2.2-2c0.3-0.7,7.8-5.3,8.5-5.7l2.3-1.3
				c0.2-0.1,2.4-1.4,2.6-1.5l13.8-7.9c0.5-0.3,1.4-0.7,1.9-0.9l11.2-6.8c0.1-0.1,1.6-1,1.8-1l463.7-285.3c3.5-2,7.5-3.1,11.6-3.1
				c4.1,0,8.1,1.1,11.6,3.1l25.7,14.8c5.2,3,8.3,8.4,8.3,14.4c0,6-3.1,11.4-8.3,14.4l-178.8,110.3l-259.4,156.3l-18.2,8.9"/>
			<path class="st0" d="M78.3,2531.6c-0.5-0.2,0.3-2,0.9-3.7c1.3-2.5,1.1-5.2-3.2-0.2l-23.2-12.1c-3.8-2.2-21.3-2.3-21.8-6.6
				c-0.6-5.1,0.3-10.2,4.1-13.7c0-0.2,1.8-1.5,1.8-1.7c0.6-0.7,1.4-1.4,2.1-2c0.3-0.8,7.7-5.4,8.5-5.8l2.3-1.3
				c0.2-0.2,2.4-1.4,2.6-1.5l13.8-8c0.5-0.3,1.4-0.7,1.9-0.9l11.2-6.8c0.1-0.1,1.6-1,1.8-1l463.9-285.4c3.5-2,7.5-3.1,11.6-3.1
				c4.1,0,8.1,1.1,11.6,3.1l25.7,14.8c5.2,3,8.3,8.4,8.3,14.4c0,6-3.1,11.4-8.3,14.4l-178.8,110.3l-259.4,156.4l-18.2,9"/>
			<path class="st0" d="M78.1,2531.4c-0.5-0.2,0.2-2,0.8-3.6c1.2-2.4,1-5.1-3.3-0.3l-22.9-12c-3.7-2.1-21.1-2.5-21.6-6.7
				c-0.7-5.1,0.1-10.1,3.7-13.7c0-0.2,1.8-1.5,1.8-1.7c0.6-0.7,1.3-1.4,2.1-2.1c0.3-0.8,7.6-5.4,8.4-5.9l2.3-1.3
				c0.2-0.2,2.3-1.4,2.6-1.5l13.8-8c0.4-0.3,1.4-0.7,1.9-0.9l11.2-6.8c0.2-0.1,1.6-1,1.8-1l464.2-285.6c3.5-2,7.5-3.1,11.6-3.1
				c4.1,0,8.1,1.1,11.6,3.1l25.7,14.8c5.2,3,8.3,8.4,8.3,14.4c0,6-3.1,11.4-8.3,14.4l-178.8,110.3L155.5,2491l-18.2,9"/>
			<path class="st0" d="M78,2531.2c-0.5-0.2,0.1-1.9,0.7-3.6c1.2-2.3,0.8-5.1-3.3-0.3l-22.7-11.9c-3.6-2.1-20.8-2.6-21.4-6.7
				c-0.7-5.1-0.1-10,3.4-13.7c0-0.3,1.7-1.5,1.8-1.7c0.6-0.8,1.3-1.5,2.1-2.1c0.3-0.9,7.5-5.4,8.4-5.9l2.3-1.3
				c0.2-0.2,2.3-1.4,2.6-1.6l13.8-8c0.4-0.2,1.4-0.8,1.9-0.9l11.2-6.8c0.2-0.1,1.6-0.9,1.8-1l464.4-285.7c3.5-2,7.5-3.1,11.6-3.1
				c4.1,0,8.1,1.1,11.6,3.1l25.7,14.8c5.2,3,8.3,8.4,8.3,14.4c0,6-3.1,11.4-8.3,14.4l-178.8,110.3l-259.4,156.6l-18.2,9"/>
			<path class="st0" d="M77.8,2531c-0.5-0.2,0.1-1.9,0.6-3.5c1.2-2.3,0.7-5-3.3-0.4l-22.5-11.8c-3.5-2-20.6-2.7-21.1-6.7
				c-0.8-5-0.4-10,3.1-13.7c0-0.3,1.7-1.5,1.7-1.8c0.6-0.8,1.3-1.5,2-2.1c0.4-1,7.4-5.4,8.3-6l2.3-1.3c0.2-0.2,2.3-1.4,2.6-1.6
				l13.9-8c0.4-0.2,1.4-0.8,1.9-0.9l11.2-6.8c0.2-0.1,1.6-0.9,1.8-1l464.7-285.9c3.5-2,7.5-3.1,11.6-3.1c4.1,0,8.1,1.1,11.6,3.1
				l25.7,14.8c5.2,3,8.3,8.4,8.3,14.4c0,6-3.1,11.4-8.3,14.4l-178.9,110.3l-259.4,156.6l-18.1,9.1"/>
			<path class="st0" d="M77.6,2530.8c-0.5-0.2,0-1.9,0.5-3.4c1.1-2.2,0.5-5-3.4-0.5l-22.2-11.7c-3.4-1.9-20.3-2.9-20.9-6.7
				c-0.8-5-0.6-9.9,2.8-13.7c0-0.3,1.6-1.5,1.7-1.8c0.6-0.8,1.3-1.5,2-2.1c0.4-1,7.3-5.4,8.3-6l2.3-1.3c0.2-0.2,2.3-1.4,2.6-1.6
				l13.9-8c0.4-0.2,1.4-0.8,1.9-0.9l11.2-6.8c0.2-0.1,1.6-0.9,1.8-1l464.9-286c3.5-2,7.5-3.1,11.6-3.1c4.1,0,8.1,1.1,11.6,3.1
				l25.7,14.8c5.2,3,8.3,8.4,8.3,14.4c0,6-3.1,11.4-8.3,14.4l-178.9,110.3l-259.3,156.7l-18.1,9.1"/>
			<path class="st0" d="M77.4,2530.6c-0.5-0.2,0-1.8,0.4-3.4c1.1-2.2,0.4-4.9-3.4-0.5l-22-11.6c-3.3-1.9-20.1-3-20.7-6.7
				c-0.9-5-0.8-9.9,2.5-13.7c0-0.3,1.6-1.5,1.6-1.8c0.6-0.8,1.2-1.5,2-2.2c0.4-1.1,7.2-5.5,8.2-6.1l2.3-1.3c0.3-0.2,2.3-1.4,2.6-1.6
				l13.9-8c0.4-0.2,1.4-0.8,1.9-1l11.2-6.8c0.2-0.1,1.6-0.9,1.8-1l465.2-286.2c3.5-2,7.5-3.1,11.6-3.1c4.1,0,8.1,1.1,11.6,3.1
				l25.7,14.8c5.2,3,8.3,8.4,8.3,14.4c0,6-3.1,11.4-8.3,14.4L414.8,2333l-259.3,156.8l-18.1,9.2"/>
			<path class="st0" d="M77.3,2530.4c-0.5-0.2-0.1-1.8,0.3-3.3c1.1-2.1,0.2-4.8-3.4-0.6l-21.8-11.5c-3.2-1.8-20.4-3.1-20.5-6.8
				c-1.8-4.7-1-9.8,2.2-13.7c0-0.3,1.5-1.5,1.6-1.8c0.6-0.8,1.2-1.5,1.9-2.2c0.4-1.2,7.1-5.5,8.2-6.1l2.3-1.3
				c0.3-0.2,2.2-1.4,2.6-1.6l13.9-8c0.4-0.2,1.5-0.8,1.9-1l11.2-6.7c0.2-0.1,1.5-0.9,1.8-1l465.4-286.4c3.5-2,7.5-3.1,11.6-3.1
				c4.1,0,8.1,1.1,11.6,3.1l25.7,14.8c5.2,3,8.3,8.4,8.3,14.4c0,6-3.1,11.4-8.3,14.4l-178.9,110.3l-259.3,156.9l-18.1,9.2"/>
			<path class="st0" d="M77.1,2530.2c-0.6-0.2-0.1-1.8,0.3-3.2c1-2,0.1-4.8-3.5-0.7L52.3,2515c-3.1-1.8-20.2-3.2-20.2-6.8
				c-1.9-4.6-1.2-9.8,1.9-13.7c0-0.3,1.5-1.5,1.5-1.9c0.6-0.8,1.2-1.5,1.9-2.2c0.5-1.2,7-5.5,8.2-6.2l2.3-1.3
				c0.3-0.2,2.2-1.4,2.6-1.6l13.9-8c0.4-0.2,1.5-0.8,1.9-1l11.2-6.7c0.2-0.1,1.5-0.9,1.8-1l465.7-286.5c3.5-2,7.5-3.1,11.6-3.1
				c4.1,0,8.1,1.1,11.6,3.1l25.7,14.8c5.2,3,8.3,8.4,8.3,14.4c0,6-3.1,11.4-8.3,14.4l-178.9,110.4l-259.3,157l-18.1,9.3"/>
			<path class="st0" d="M76.9,2530c-0.6-0.2-0.2-1.7,0.2-3.2c1-2-0.1-4.7-3.5-0.7l-21.3-11.3c-3-1.7-20-3.4-20-6.8
				c-1.9-4.6-1.4-9.7,1.5-13.7c0-0.4,1.4-1.5,1.5-1.9c0.5-0.8,1.2-1.5,1.9-2.2c0.5-1.3,6.9-5.5,8.1-6.2l2.3-1.3
				c0.3-0.3,2.2-1.4,2.6-1.6l13.9-8c0.4-0.2,1.5-0.8,1.9-1l11.3-6.7c0.2-0.1,1.5-0.9,1.8-1l465.9-286.7c3.5-2,7.5-3.1,11.6-3.1
				c4.1,0,8.1,1.1,11.6,3.1l25.7,14.8c5.2,3,8.3,8.4,8.3,14.4c0,6-3.1,11.4-8.3,14.4l-178.9,110.4l-259.3,157l-18,9.3"/>
			<path class="st0" d="M76.8,2529.8c-0.6-0.2-0.2-1.7,0.1-3.1c1-1.9-0.2-4.6-3.5-0.8l-21.1-11.2c-2.9-1.7-19.8-3.5-19.8-6.8
				c-2-4.5-1.7-9.7,1.2-13.7c0-0.4,1.4-1.6,1.5-1.9c0.5-0.8,1.1-1.6,1.8-2.3c0.5-1.3,6.8-5.5,8.1-6.3l2.3-1.3
				c0.3-0.3,2.2-1.4,2.6-1.6l13.9-8c0.4-0.2,1.5-0.8,1.9-1l11.3-6.7c0.2-0.1,1.5-0.9,1.8-1l466.2-286.8c3.5-2,7.5-3.1,11.6-3.1
				c4.1,0,8.1,1.1,11.6,3.1l25.7,14.8c5.2,3,8.3,8.4,8.3,14.4c0,6-3.1,11.4-8.3,14.4l-179,110.4l-259.2,157.1l-18,9.4"/>
			<path class="st0" d="M76.6,2529.6c-0.6-0.2-0.3-1.7,0-3c0.9-1.8-0.4-4.6-3.6-0.8l-20.9-11.1c-2.8-1.6-19.5-3.6-19.6-6.9
				c-2.1-4.5-1.9-9.6,0.9-13.7c0-0.4,1.4-1.6,1.4-2c0.5-0.8,1.1-1.6,1.8-2.3c0.5-1.4,6.7-5.5,8-6.3l2.3-1.3c0.3-0.3,2.2-1.4,2.6-1.6
				l13.9-8c0.3-0.2,1.5-0.8,1.9-1l11.3-6.7c0.3-0.1,1.5-0.9,1.8-1l466.4-287c3.5-2,7.5-3.1,11.6-3.1c4.1,0,8.1,1.1,11.6,3.1
				l25.7,14.8c5.2,3,8.3,8.4,8.3,14.4c0,6-3.1,11.4-8.3,14.4l-179,110.4l-259.2,157.2l-18,9.4"/>
			<path class="st0" d="M76.4,2529.5c-0.6-0.2-0.3-1.6-0.1-3c0.9-1.8-0.5-4.5-3.6-0.9l-20.6-11c-2.7-1.6-19.3-3.8-19.3-6.9
				c-2.2-4.4-2.1-9.6,0.6-13.7c0-0.4,1.3-1.6,1.4-2c0.5-0.8,1.1-1.6,1.8-2.3c0.6-1.5,6.5-5.6,8-6.4l2.3-1.3c0.4-0.3,2.2-1.4,2.6-1.6
				l13.9-8c0.3-0.2,1.5-0.8,1.9-1l11.3-6.7c0.3-0.2,1.5-0.9,1.8-1l466.7-287.1c3.5-2,7.5-3.1,11.6-3.1c4.1,0,8.1,1.1,11.6,3.1
				l25.7,14.8c5.2,3,8.3,8.4,8.3,14.4c0,6-3.1,11.4-8.3,14.4l-179,110.4l-259.2,157.3l-18,9.4"/>
			<path class="st0" d="M76.2,2529.3c-0.6-0.2-0.4-1.6-0.2-2.9c0.9-1.7-0.7-4.4-3.7-1L52,2514.5c-2.6-1.5-19.1-3.9-19.1-6.9
				c-2.3-4.4-2.3-9.5,0.3-13.7c0-0.4,1.3-1.6,1.3-2c0.5-0.8,1.1-1.6,1.7-2.3c0.6-1.5,6.4-5.6,7.9-6.4l2.3-1.3
				c0.4-0.3,2.1-1.4,2.6-1.6l13.9-8c0.3-0.2,1.5-0.8,1.9-1l11.3-6.7c0.3-0.2,1.5-0.9,1.8-1l466.9-287.3c3.5-2,7.5-3.1,11.6-3.1
				c4.1,0,8.1,1.1,11.6,3.1l25.7,14.8c5.2,3,8.3,8.4,8.3,14.4c0,6-3.1,11.4-8.3,14.4l-179,110.4l-259.2,157.4l-17.9,9.5"/>
			<path class="st0" d="M76.1,2529.1c-0.6-0.2-0.4-1.5-0.3-2.8c0.8-1.6-0.8-4.4-3.7-1l-20.2-10.8c-2.5-1.4-18.9-4-18.9-6.9
				c-2.4-4.3-2.5-9.4,0-13.7c0-0.5,1.2-1.6,1.3-2c0.5-0.8,1.1-1.6,1.7-2.4c0.6-1.6,6.3-5.6,7.9-6.5l2.3-1.3c0.4-0.3,2.1-1.4,2.6-1.6
				l13.9-8c0.3-0.2,1.5-0.9,1.9-1l11.3-6.7c0.3-0.2,1.5-0.9,1.8-1l467.2-287.4c3.5-2,7.5-3.1,11.6-3.1c4.1,0,8.1,1.1,11.6,3.1
				l25.7,14.8c5.2,3,8.3,8.4,8.3,14.4c0,6-3.1,11.4-8.3,14.4l-179,110.4l-259.2,157.4l-17.9,9.5"/>
			<path class="st0" d="M75.9,2528.9c-0.6-0.2-0.5-1.5-0.4-2.8c0.8-1.6-0.9-4.3-3.7-1.1l-19.9-10.7c-2.4-1.4-18.6-4.2-18.6-6.9
				c-2.5-4.2-2.7-9.4-0.3-13.7c0-0.5,1.2-1.6,1.3-2.1c0.5-0.8,1-1.6,1.7-2.4c0.6-1.7,6.2-5.6,7.9-6.5l2.3-1.3
				c0.4-0.3,2.1-1.4,2.6-1.6l13.9-8c0.3-0.2,1.6-0.9,1.9-1l11.3-6.7c0.3-0.2,1.5-0.8,1.8-1l467.4-287.6c3.5-2,7.5-3.1,11.6-3.1
				c4.1,0,8.1,1.1,11.6,3.1l25.7,14.8c5.2,3,8.3,8.4,8.3,14.4c0,6-3.1,11.4-8.3,14.4l-179,110.4l-259.1,157.5l-17.9,9.6"/>
			<path class="st0" d="M75.7,2528.7c-0.6-0.2-0.5-1.5-0.4-2.7c0.8-1.5-1.1-4.2-3.8-1.2l-19.7-10.6c-2.3-1.3-18.4-4.3-18.4-7
				c-2.6-4.2-3-9.3-0.7-13.7c0-0.5,1.1-1.6,1.2-2.1c0.5-0.9,1-1.7,1.6-2.4c0.7-1.7,6.1-5.6,7.8-6.6l2.3-1.3c0.4-0.3,2.1-1.3,2.5-1.6
				l13.9-8c0.3-0.2,1.6-0.9,1.9-1l11.3-6.7c0.3-0.2,1.5-0.8,1.8-1l467.7-287.7c3.5-2,7.5-3.1,11.6-3.1c4.1,0,8.1,1.1,11.6,3.1
				l25.7,14.8c5.2,3,8.3,8.4,8.3,14.4c0,6-3.1,11.4-8.3,14.4l-179,110.4l-259.1,157.6l-17.9,9.6"/>
			<path class="st0" d="M75.6,2528.5c-0.7-0.2-0.6-1.4-0.5-2.6c0.7-1.5-1.2-4.2-3.8-1.2l-19.5-10.5c-2.2-1.3-18.2-4.4-18.2-7
				c-2.7-4.1-3.2-9.3-1-13.7c0-0.5,1.1-1.6,1.2-2.1c0.5-0.9,1-1.7,1.6-2.4c0.7-1.8,6-5.6,7.8-6.7l2.3-1.3c0.4-0.4,2.1-1.3,2.5-1.6
				l13.9-8c0.3-0.2,1.6-0.9,1.9-1l11.3-6.7c0.3-0.2,1.5-0.8,1.8-1l467.9-287.9c3.5-2,7.5-3.1,11.6-3.1c4.1,0,8.1,1.1,11.6,3.1
				l25.7,14.8c5.2,3,8.3,8.4,8.3,14.4c0,6-3.1,11.4-8.3,14.4l-179.1,110.4l-259.1,157.7l-17.9,9.7"/>
			<path class="st0" d="M75.4,2528.3c-0.7-0.2-0.6-1.4-0.6-2.6c0.7-1.4-1.4-4.1-3.8-1.3l-19.3-10.4c-2.1-1.2-18-4.6-18-7
				c-2.8-4.1-3.4-9.2-1.3-13.7c0-0.5,1-1.6,1.1-2.1c0.4-0.9,1-1.7,1.6-2.5c0.7-1.9,5.9-5.7,7.7-6.7l2.3-1.3c0.5-0.4,2-1.3,2.5-1.6
				l14-8c0.3-0.1,1.6-0.9,1.9-1l11.3-6.7c0.3-0.2,1.4-0.8,1.8-1l468.2-288.1c3.5-2,7.5-3.1,11.6-3.1c4.1,0,8.1,1.1,11.6,3.1
				l25.7,14.8c5.2,3,8.3,8.4,8.3,14.4s-3.1,11.4-8.3,14.4l-179.1,110.4l-259.1,157.8l-17.8,9.7"/>
			<path class="st0" d="M75.2,2528.1c-0.7-0.2-0.7-1.4-0.7-2.5c0.7-1.3-1.5-4-3.9-1.3l-19-10.3c-2-1.2-17.7-4.7-17.7-7
				c-2.9-4-3.6-9.2-1.6-13.7c0-0.5,1-1.6,1.1-2.2c0.4-0.9,0.9-1.7,1.5-2.5c0.7-1.9,5.8-5.7,7.7-6.8l2.3-1.3c0.5-0.4,2-1.3,2.5-1.6
				l14-8c0.2-0.1,1.6-0.9,1.9-1l11.4-6.7c0.4-0.2,1.4-0.8,1.8-1L544.9,2174c3.5-2,7.5-3.1,11.6-3.1c4.1,0,8.1,1.1,11.6,3.1
				l25.7,14.8c5.2,3,8.3,8.4,8.3,14.4c0,6-3.1,11.4-8.3,14.4l-179.1,110.5L155.6,2486l-17.8,9.8"/>
			<path class="st0" d="M75,2527.9c-0.7-0.2-0.7-1.3-0.8-2.4c0.6-1.3-1.7-4-3.9-1.4l-18.8-10.2c-1.9-1.1-17.5-4.8-17.5-7
				c-3-4-3.8-9.1-1.9-13.7c0-0.6,1-1.7,1-2.2c0.4-0.9,0.9-1.7,1.5-2.5c0.8-2,5.7-5.7,7.6-6.8l2.3-1.3c0.5-0.4,2-1.3,2.5-1.6l14-8
				c0.2-0.1,1.6-0.9,1.9-1l11.4-6.7c0.4-0.2,1.4-0.8,1.8-1l468.7-288.4c3.5-2,7.5-3.1,11.6-3.1c4.1,0,8.1,1.1,11.6,3.1l25.7,14.8
				c5.2,3,8.3,8.4,8.3,14.4c0,6-3.1,11.4-8.3,14.4l-179.1,110.5l-259,157.9l-17.8,9.8"/>
			<path class="st0" d="M74.9,2527.7c-0.7-0.2-0.8-1.3-0.9-2.4c0.6-1.2-1.8-3.9-3.9-1.5l-18.6-10.1c-1.8-1.1-17.3-5-17.3-7.1
				c-3.1-3.9-4-9.1-2.2-13.7c0-0.6,0.9-1.7,1-2.2c0.4-0.9,0.9-1.7,1.5-2.5c0.8-2.1,5.6-5.7,7.6-6.9l2.3-1.3c0.5-0.4,2-1.3,2.5-1.6
				l14-8c0.2-0.1,1.6-0.9,1.9-1l11.4-6.7c0.4-0.2,1.4-0.8,1.8-1l468.9-288.5c3.5-2,7.5-3.1,11.6-3.1c4.1,0,8.1,1.1,11.6,3.1
				l25.7,14.8c5.2,3,8.3,8.4,8.3,14.4c0,6-3.1,11.4-8.3,14.4l-179.1,110.5l-259,158l-17.8,9.8"/>
			<path class="st0" d="M74.7,2527.5c-0.7-0.2-0.8-1.3-1-2.3c0.6-1.1-2-3.8-4-1.5l-18.3-10c-1.7-1-17-5.1-17.1-7.1
				c-3.2-3.8-4.3-9-2.5-13.7c0-0.6,0.9-1.7,1-2.3c0.4-0.9,0.9-1.8,1.4-2.6c0.8-2.1,5.5-5.7,7.6-6.9l2.3-1.3c0.5-0.4,2-1.3,2.5-1.6
				l14-8c0.2-0.1,1.6-0.9,1.9-1l11.4-6.7c0.4-0.2,1.4-0.8,1.8-0.9l469.2-288.7c3.5-2,7.5-3.1,11.6-3.1c4.1,0,8.1,1.1,11.6,3.1
				l25.7,14.8c5.2,3,8.3,8.4,8.3,14.4c0,6-3.1,11.4-8.3,14.4l-179.1,110.5l-259,158.1l-17.7,9.9"/>
			<path class="st0" d="M74.5,2527.4c-0.7-0.2-0.9-1.2-1.1-2.2c0.5-1.1-2.1-3.8-4-1.6l-18.1-9.9c-1.6-0.9-16.8-5.2-16.8-7.1
				c-3.3-3.8-4.5-8.9-2.9-13.7c0-0.6,0.8-1.7,0.9-2.3c0.4-0.9,0.8-1.8,1.4-2.6c0.8-2.2,5.4-5.8,7.5-7l2.3-1.3c0.5-0.4,2-1.3,2.5-1.6
				l14-8c0.2-0.1,1.7-0.9,1.9-1l11.4-6.7c0.4-0.2,1.4-0.8,1.8-0.9l469.4-288.8c3.5-2,7.5-3.1,11.6-3.1c4.1,0,8.1,1.1,11.6,3.1
				l25.7,14.8c5.2,3,8.3,8.4,8.3,14.4c0,6-3.1,11.4-8.3,14.4l-179.1,110.5l-259,158.2l-17.7,9.9"/>
			<path class="st0" d="M74.4,2527.2c-0.7-0.2-0.9-1.2-1.2-2.2c0.5-1-2.3-3.7-4.1-1.7l-17.9-9.8c-1.5-0.9-16.6-5.4-16.6-7.1
				c-3.4-3.7-4.7-8.9-3.2-13.7c0-0.6,0.8-1.7,0.9-2.3c0.4-0.9,0.8-1.8,1.4-2.6c0.9-2.2,5.3-5.8,7.5-7l2.3-1.3
				c0.5-0.4,1.9-1.3,2.5-1.7l14-8.1c0.2-0.1,1.7-0.9,1.9-1l11.4-6.7c0.4-0.2,1.4-0.8,1.8-0.9l469.7-289c3.5-2,7.5-3.1,11.6-3.1
				c4.1,0,8.1,1.1,11.6,3.1l25.7,14.8c5.2,3,8.3,8.4,8.3,14.4s-3.1,11.4-8.3,14.4l-179.2,110.5l-259,158.2l-17.7,10"/>
			<path class="st0" d="M74.2,2527c-0.7-0.2-1-1.2-1.2-2.1c0.5-1-2.4-3.7-4.1-1.7l-17.7-9.7c-1.4-0.8-16.4-5.5-16.4-7.2
				c-3.5-3.7-4.9-8.8-3.5-13.7c0-0.7,0.7-1.7,0.8-2.3c0.4-0.9,0.8-1.8,1.3-2.6c0.9-2.3,5.2-5.8,7.4-7.1l2.3-1.3
				c0.6-0.5,1.9-1.3,2.5-1.7l14-8.1c0.2-0.1,1.7-0.9,1.9-1l11.4-6.7c0.4-0.2,1.4-0.8,1.9-0.9l469.9-289.1c3.5-2,7.5-3.1,11.6-3.1
				c4.1,0,8.1,1.1,11.6,3.1l25.7,14.8c5.2,3,8.3,8.4,8.3,14.4c0,6-3.1,11.4-8.3,14.4l-179.2,110.5l-258.9,158.3l-17.7,10"/>
			<path class="st0" d="M74,2526.8c-0.8-0.2-1-1.1-1.3-2c0.5-0.9-2.6-3.6-4.1-1.8l-17.4-9.6c-1.3-0.8-16.1-5.6-16.2-7.2
				c-3.6-3.6-5.1-8.8-3.8-13.7c0-0.7,0.7-1.7,0.8-2.4c0.3-0.9,0.8-1.8,1.3-2.7c0.9-2.4,5.1-5.8,7.4-7.1l2.3-1.3
				c0.6-0.5,1.9-1.3,2.5-1.7l14-8.1c0.2-0.1,1.7-1,1.9-1l11.4-6.7c0.4-0.2,1.4-0.8,1.9-0.9l470.2-289.3c3.5-2,7.5-3.1,11.6-3.1
				c4.1,0,8.1,1.1,11.6,3.1l25.7,14.8c5.2,3,8.3,8.4,8.3,14.4c0,6-3.1,11.4-8.3,14.4l-179.2,110.5L155.6,2484L138,2494"/>
			<path class="st0" d="M73.8,2526.6c-0.8-0.2-1.1-1.1-1.4-2c0.4-0.8-2.7-3.5-4.2-1.9l-17.2-9.5c-1.3-0.7-15.9-5.8-15.9-7.2
				c-3.7-3.6-5.3-8.7-4.1-13.7c0-0.7,0.6-1.7,0.8-2.4c0.3-0.9,0.8-1.8,1.3-2.7c0.9-2.4,5-5.8,7.3-7.2l2.3-1.3
				c0.6-0.5,1.9-1.3,2.5-1.7l14-8.1c0.2-0.1,1.7-1,1.9-1l11.4-6.7c0.4-0.3,1.4-0.7,1.9-0.9L544.9,2171c3.5-2,7.5-3.1,11.6-3.1
				c4.1,0,8.1,1.1,11.6,3.1l25.7,14.8c5.2,3,8.3,8.4,8.3,14.4c0,6-3.1,11.4-8.3,14.4l-179.2,110.5l-258.9,158.5l-17.6,10.1"/>
			<path class="st0" d="M73.7,2526.4c-0.8-0.2-1.1-1.1-1.5-1.9c0.4-0.8-2.9-3.5-4.2-1.9l-17-9.4c-1.2-0.7-15.7-5.9-15.7-7.2
				c-3.8-3.5-5.6-8.7-4.4-13.7c0-0.7,0.6-1.7,0.7-2.4c0.3-0.9,0.7-1.9,1.2-2.7c1-2.5,4.9-5.8,7.3-7.2l2.3-1.3
				c0.6-0.5,1.9-1.3,2.5-1.7l14-8.1c0.1-0.1,1.7-1,1.9-1l11.4-6.7c0.5-0.3,1.3-0.7,1.9-0.9l470.7-289.6c3.5-2,7.5-3.1,11.6-3.1
				c4.1,0,8.1,1.1,11.6,3.1l25.7,14.8c5.2,3,8.3,8.4,8.3,14.4c0,6-3.1,11.4-8.3,14.4l-179.2,110.5l-258.9,158.6l-17.6,10.2"/>
			<path class="st0" d="M73.5,2526.2c-0.8-0.2-1.2-1-1.6-1.9c0.4-0.7-3-3.4-4.2-2l-16.7-9.3c-1.1-0.6-15.5-6-15.5-7.2
				c-3.9-3.5-5.8-8.6-4.7-13.7c0-0.7,0.6-1.7,0.7-2.4c0.3-1,0.7-1.9,1.2-2.7c1-2.6,4.8-5.9,7.3-7.3l2.3-1.3c0.6-0.5,1.8-1.3,2.5-1.7
				l14-8.1c0.1-0.1,1.7-1,1.9-1l11.5-6.7c0.5-0.3,1.3-0.7,1.9-0.9l470.9-289.7c3.5-2,7.5-3.1,11.6-3.1c4.1,0,8.1,1.1,11.6,3.1
				l25.7,14.8c5.2,3,8.3,8.4,8.3,14.4c0,6-3.1,11.4-8.3,14.4l-179.2,110.5l-258.9,158.7l-17.6,10.2"/>
			<path class="st0" d="M73.3,2526c-0.8-0.3-1.2-1-1.7-1.8c0.3-0.6-3.2-3.3-4.3-2l-16.5-9.2c-1-0.6-15.2-6.2-15.2-7.3
				c-4-3.4-6-8.6-5.1-13.7c0-0.8,0.5-1.8,0.6-2.5c0.3-1,0.7-1.9,1.2-2.8c1-2.6,4.7-5.9,7.2-7.4l2.3-1.3c0.6-0.5,1.8-1.3,2.5-1.7
				l14-8.1c0.1-0.1,1.7-1,1.9-1l11.5-6.7c0.5-0.3,1.3-0.7,1.9-0.9l471.2-289.9c3.5-2,7.5-3.1,11.6-3.1c4.1,0,8.1,1.1,11.6,3.1
				l25.7,14.8c5.2,3,8.3,8.4,8.3,14.4c0,6-3.1,11.4-8.3,14.4l-179.2,110.6l-258.9,158.7l-17.6,10.2"/>
			<path class="st0" d="M73.2,2525.8c-0.8-0.3-1.3-1-1.8-1.7c0.3-0.6-3.3-3.3-4.3-2.1l-16.3-9.1c-0.9-0.5-15-6.3-15-7.3
				c-4.1-3.3-6.2-8.5-5.4-13.7c0-0.8,0.5-1.8,0.6-2.5c0.3-1,0.7-1.9,1.1-2.8c1-2.7,4.6-5.9,7.2-7.4l2.3-1.3c0.7-0.5,1.8-1.3,2.5-1.7
				l14.1-8.1c0.1-0.1,1.7-1,1.9-1l11.5-6.7c0.5-0.3,1.3-0.7,1.9-0.9l471.4-290.1c3.5-2,7.5-3.1,11.6-3.1c4.1,0,8.1,1.1,11.6,3.1
				l25.7,14.8c5.2,3,8.3,8.4,8.3,14.4c0,6-3.1,11.4-8.3,14.4l-179.3,110.6l-258.8,158.8l-17.5,10.3"/>
			<path class="st0" d="M73,2525.6c-0.8-0.3-1.3-0.9-1.9-1.7c0.3-0.5-3.5-3.2-4.3-2.2l-16.1-9c-0.8-0.4-14.8-6.4-14.8-7.3
				c-4.1-3.3-6.4-8.5-5.7-13.7c0-0.8,0.4-1.8,0.6-2.5c0.3-1,0.6-1.9,1.1-2.8c1.1-2.8,4.4-5.9,7.1-7.5l2.3-1.3
				c0.7-0.5,1.8-1.3,2.5-1.7l14.1-8.1c0.1-0.1,1.8-1,1.9-1l11.5-6.7c0.5-0.3,1.3-0.7,1.9-0.9l471.7-290.2c3.5-2,7.5-3.1,11.6-3.1
				c4.1,0,8.1,1.1,11.6,3.1l25.7,14.8c5.2,3,8.3,8.4,8.3,14.4c0,6-3.1,11.4-8.3,14.4l-179.3,110.6l-258.8,158.9l-17.5,10.3"/>
			<path class="st0" d="M72.8,2525.4c-0.8-0.3-1.4-0.9-1.9-1.6c0.2-0.4-3.6-3.1-4.4-2.2l-15.8-8.9c-0.7-0.4-14.6-6.6-14.6-7.3
				c-4.2-3.2-6.6-8.4-6-13.7c0-0.8,0.4-1.8,0.5-2.6c0.3-1,0.6-1.9,1.1-2.8c1.1-2.8,4.3-5.9,7.1-7.5l2.3-1.3c0.7-0.6,1.8-1.3,2.5-1.7
				l14.1-8.1c0.1,0,1.8-1,1.9-1l11.5-6.7c0.5-0.3,1.3-0.7,1.9-0.9l471.9-290.4c3.5-2,7.5-3.1,11.6-3.1c4.1,0,8.1,1.1,11.6,3.1
				l25.7,14.8c5.2,3,8.3,8.4,8.3,14.4c0,6-3.1,11.4-8.3,14.4L414.4,2323l-258.8,159l-17.5,10.4"/>
			<path class="st0" d="M72.7,2525.3c-0.8-0.3-1.5-0.9-2-1.5c0.2-0.4-3.7-3.1-4.4-2.3l-15.6-8.8c-0.6-0.3-14.3-6.7-14.3-7.4
				c-4.3-3.2-6.9-8.3-6.3-13.7c0-0.8,0.3-1.8,0.5-2.6c0.2-1,0.6-2,1-2.9c1.1-2.9,4.2-5.9,7-7.6l2.3-1.3c0.7-0.6,1.7-1.3,2.5-1.7
				l14.1-8.1c0.1,0,1.8-1,1.9-1l11.5-6.7c0.5-0.3,1.3-0.7,1.9-0.9l472.2-290.5c3.5-2,7.5-3.1,11.6-3.1c4.1,0,8.1,1.1,11.6,3.1
				l25.7,14.8c5.2,3,8.3,8.4,8.3,14.4c0,6-3.1,11.4-8.3,14.4l-179.3,110.6l-258.8,159.1l-17.5,10.4"/>
			<path class="st0" d="M72.5,2525.1c-0.8-0.3-1.5-0.8-2.1-1.5c0.2-0.3-3.9-3-4.5-2.4l-15.4-8.7c-0.5-0.3-14.1-6.8-14.1-7.4
				c-4.4-3.1-7.1-8.3-6.6-13.7c0-0.8,0.3-1.8,0.4-2.6c0.2-1,0.6-2,1-2.9c1.1-3,4.1-6,7-7.6l2.3-1.3c0.7-0.6,1.7-1.2,2.5-1.7
				l14.1-8.1c0.1,0,1.8-1,1.9-1.1l11.5-6.7c0.5-0.3,1.3-0.7,1.9-0.9l472.4-290.7c3.5-2,7.5-3.1,11.6-3.1c4.1,0,8.1,1.1,11.6,3.1
				l25.7,14.8c5.2,3,8.3,8.4,8.3,14.4c0,6-3.1,11.4-8.3,14.4l-179.3,110.6l-258.8,159.1l-17.4,10.5"/>
			<path class="st0" d="M72.3,2524.9c-0.9-0.3-1.6-0.8-2.2-1.4c0.1-0.3-4-2.9-4.5-2.4l-15.1-8.6c-0.4-0.2-13.9-7-13.9-7.4
				c-4.5-3.1-7.3-8.2-6.9-13.7c0-0.9,0.2-1.8,0.4-2.6c0.2-1,0.5-2,1-2.9c1.2-3,4-6,7-7.7l2.3-1.3c0.7-0.6,1.7-1.2,2.5-1.7l14.1-8.1
				c0,0,1.8-1,1.9-1.1l11.5-6.7c0.6-0.3,1.3-0.7,1.9-0.9l472.7-290.8c3.5-2,7.5-3.1,11.6-3.1c4.1,0,8.1,1.1,11.6,3.1l25.7,14.8
				c5.2,3,8.3,8.4,8.3,14.4c0,6-3.1,11.4-8.3,14.4l-179.3,110.6l-258.7,159.2l-17.4,10.5"/>
			<path class="st0" d="M72.1,2524.7c-0.9-0.3-1.6-0.8-2.3-1.3c0.1-0.2-4.2-2.9-4.5-2.5l-14.9-8.5c-0.3-0.2-13.6-7.1-13.7-7.4
				c-4.6-3-7.5-8.2-7.3-13.7c0-0.9,0.2-1.8,0.3-2.7c0.2-1,0.5-2,0.9-2.9c1.2-3.1,3.9-6,6.9-7.7l2.3-1.3c0.7-0.6,1.7-1.2,2.5-1.7
				l14.1-8.1c0,0,1.8-1,1.9-1.1L70,2459c0.6-0.3,1.3-0.7,1.9-0.9l472.9-291c3.5-2,7.5-3.1,11.6-3.1c4.1,0,8.1,1.1,11.6,3.1
				l25.7,14.8c5.2,3,8.3,8.4,8.3,14.4c0,6-3.1,11.4-8.3,14.4l-179.3,110.6l-258.7,159.3l-17.4,10.6"/>
			<path class="st0" d="M72,2524.5c-0.9-0.3-1.7-0.7-2.4-1.3c0.1-0.1-4.3-2.8-4.6-2.5l-14.7-8.4c-0.2-0.1-13.4-7.2-13.4-7.4
				c-4.7-3-7.7-8.1-7.6-13.7c0-0.9,0.2-1.8,0.3-2.7c0.2-1,0.5-2,0.9-3c1.2-3.1,3.8-6,6.9-7.8l2.3-1.3c0.8-0.6,1.7-1.2,2.5-1.7
				l14.1-8.1c0,0,1.8-1.1,1.9-1.1l11.6-6.7c0.6-0.3,1.3-0.7,1.9-0.9l473.2-291.1c3.5-2,7.5-3.1,11.6-3.1c4.1,0,8.1,1.1,11.6,3.1
				l25.7,14.8c5.2,3,8.3,8.4,8.3,14.4c0,6-3.1,11.4-8.3,14.4l-179.4,110.6l-258.7,159.4l-17.4,10.6"/>
			<path class="st0" d="M71.8,2524.3c-0.9-0.3-1.7-0.7-2.5-1.2c0-0.1-4.5-2.7-4.6-2.6l-14.4-8.3c-0.1-0.1-13.2-7.4-13.2-7.5
				c-4.8-2.9-8-8.1-7.9-13.7c0-0.9,0.1-1.8,0.3-2.7c0.2-1,0.5-2,0.9-3c1.2-3.2,3.7-6,6.8-7.8l2.3-1.3c0.8-0.6,1.7-1.2,2.5-1.7
				l14.1-8.1c0,0,1.8-1.1,1.9-1.1l11.6-6.7c0.6-0.3,1.2-0.6,1.9-0.9l473.4-291.3c3.5-2,7.5-3.1,11.6-3.1c4.1,0,8.1,1.1,11.6,3.1
				l25.7,14.8c5.2,3,8.3,8.4,8.3,14.4c0,6-3.1,11.4-8.3,14.4l-179.4,110.6l-258.7,159.5l-17.4,10.6"/>
			<path class="st0" d="M71.6,2524.1c-0.9-0.3-1.8-0.7-2.6-1.1l-31.8-18.4c-4.9-2.8-8.2-8-8.2-13.7c0-5.7,2.9-10.8,7.8-13.7l2.3-1.3
				c0.8-0.6,1.6-1.2,2.5-1.7l27.6-15.8c0.6-0.3,1.2-0.6,1.9-0.9L544.9,2166c3.5-2,7.5-3.1,11.6-3.1c4.1,0,8.1,1.1,11.6,3.1
				l25.7,14.8c5.2,3,8.3,8.4,8.3,14.4c0,6-3.1,11.4-8.3,14.4l-455.4,280.9"/>
		</g>
		<path class="st4" d="M125.2,2490.6l465.2-286.5c6.7-3.9,6.7-13.6,0-17.5l-25.7-14.8c-5.1-3-11.4-3-16.6,0L73.9,2463.4
			c-0.5,0.1-0.9,0.3-1.4,0.6L45,2479.9c-0.7,0.4-1.4,0.9-2,1.4l-2.8,1.6c-6.1,3.5-6.1,12.3,0,15.8l32.2,18.6
			c0.6,0.3,1.2,0.6,1.8,0.7"/>
		<path class="st5" d="M72,2523.6c-0.9-0.3-1.8-0.7-2.6-1.1l-31.8-18.4c-4.9-2.8-8.2-8-8.2-13.7c0-5.7,2.9-10.8,7.8-13.7l2.3-1.3
			c0.8-0.6,1.6-1.2,2.5-1.7l27.6-15.8c0.6-0.3,1.2-0.6,1.9-0.9l473.7-291.4c3.5-2,7.5-3.1,11.6-3.1c4.1,0,8.1,1.1,11.6,3.1
			l25.7,14.8c5.2,3,8.3,8.4,8.3,14.4c0,6-3.1,11.4-8.3,14.4l-455.4,280.9"/>
		<path class="st3" d="M70.5,2523.6c-0.9-0.3-1.8-0.7-2.6-1.1l-31.8-18.4c-4.9-2.8-8.2-8-8.2-13.7c0-5.7,2.9-10.8,7.8-13.7l2.3-1.3
			c0.8-0.6,1.6-1.2,2.5-1.7l27.6-15.8c0.6-0.3,1.2-0.6,1.9-0.9l473.7-291.4c3.5-2,7.5-3.1,11.6-3.1c4.1,0,8.1,1.1,11.6,3.1
			l25.7,14.8c5.2,3,8.3,8.4,8.3,14.4c0,6-3.1,11.4-8.3,14.4l-455.4,280.9"/>
		<path class="st6" d="M554.5,2227.2c-3.4,0-6.8-0.9-9.8-2.6c0,0-475.5-290.1-477.5-291.2l-35.7-20.5c-4-2.3-6.8-6.5-7-11.2
			c-0.2-5,2.3-9.4,6.6-11.9l636.2-392L281.3,1282c-0.8-0.3-1.5-0.6-2.2-1l-36.1-20.7c-4.1-2.4-6.6-6.7-6.6-11.4
			c0-4.8,2.5-9,6.6-11.4l322.8-197.2L191.9,833.6c-1-0.3-2-0.7-2.9-1.2l-35.7-20.6c-4-2.3-6.8-6.5-6.9-11.1c-0.2-5,2.3-9.5,6.6-12
			l275.8-159.3L44,407.6c-0.9-0.3-1.8-0.7-2.6-1.1L9.6,388.1c-4.9-2.8-8.2-8-8.2-13.7c0-5.7,2.9-10.8,7.8-13.7l2.3-1.3
			c0.8-0.6,1.6-1.2,2.5-1.7l27.6-15.8c0.6-0.3,1.2-0.6,1.9-0.9l583-336.6c3.5-2,7.5-3.1,11.6-3.1c4.1,0,8.1,1.1,11.6,3.1l25.7,14.8
			c5.2,3,8.3,8.4,8.3,14.4s-3.1,11.4-8.3,14.4l-564.7,326l422.5,243.7c4.6,2.6,7.1,7.7,6.5,13c-0.4,4.3-2.8,8.1-6.5,10.2
			L258.2,799.9L671.1,1029c4.3,2.5,6.8,7,6.6,12c-0.2,4.6-2.9,8.8-6.9,11.1l-35.7,20.6c-0.9,0.5-1.8,0.9-2.8,1.2l-284,174.9
			l423.9,237.6c6.2,3.6,8.4,11.5,5,17.8c-1.2,2.2-2.9,4-5.1,5.2l-629.1,388c-0.1,0-0.1,0.1,0,0.2l454.1,285.4
			c4.1,2.4,6.6,6.7,6.6,11.4c0,4.8-2.5,9.1-6.6,11.4l-32.6,18.8C561.3,2226.3,557.9,2227.2,554.5,2227.2z"/>
		<path class="st4" d="M109,2489.8l456.7-281.5l24.5-14.1c0,0,0-0.1,0-0.2l-473.8-296.8c-0.1,0-0.1-0.1,0-0.2l648.9-399.3l0.1-0.2
			c0,0,0-0.1,0-0.1l-443.5-249l305.4-187.2c0,0,1.1-0.2,1.1-0.2c0,0,36.1-20.7,36.1-20.7c0,0,0-0.1,0-0.1L231.8,799.8l294.6-170.2
			c0,0,0,0,0-0.1l0-0.2l0-0.2c0,0,0-0.1,0-0.1L84.2,373.9L668.5,36.6c1.6-0.9,1.8-2.5,1.8-3.1c0-0.6-0.2-2.2-1.8-3.1l-25.7-14.8
			c-1.5-0.9-3.3-1.3-5-1.3c-1.8,0-3.5,0.5-5,1.3L48.6,352.8c0,0-0.7,0.2-0.7,0.2c0,0,0,0,0,0l-27.6,15.8c-0.3,0.2-0.7,0.4-1,0.7
			l-0.5,0.4l-3.4,2c-1.1,0.6-1.3,1.7-1.3,2.2c0,0.6,0.2,1.6,1.3,2.2l32.1,18.6c0,0,0,0,0.1,0l1,0.2l406,234.1L159.2,799.9
			c0,0,0,0.1,0,0.1l36,20.7c0,0,0,0,0.1,0l1.1,0.2l395.4,219l-342.5,208.5c0,0,0,0.1,0,0.1l36.1,20.7l0.8,0.2l407,228L37.3,1901
			c0,0,0,0.1,0,0.1l36.1,20.7c0,0,0,0,0,0l0,0L518,2194.4L73.4,2468.7c0,0-0.7,0.2-0.7,0.2c0,0,0,0,0,0l-27.6,15.8
			c-0.3,0.2-0.7,0.4-1,0.7l-0.5,0.4l-3.4,2c-1.1,0.6-1.3,1.7-1.3,2.2c0,0.6,0.2,1.6,1.3,2.2l32.1,18.6c0,0,0,0,0.1,0l1,0.2"/>
		<g>
			<path class="st0" d="M413.2,2340.4c-0.2-0.1-0.3,0.1-0.6,0c-2.3-1.2-4.5-2.5-6.8-3.8c-13.9-8.2-27.3-17.5-41.8-24.6
				c-9.7-4.7-22.7-8.3-30.6-16.3L34.3,2474.8c-4.1,2.5-6.5,6.8-6.4,11.6c0,0.1,0,0.1,0,0.2c0,0.1,0,0.1,0,0.2c0,0.1,0,0.1,0,0.2
				c0,0.1,0,0.1,0,0.2c0,0.1,0,0.1,0,0.2c0,0.1,0,0.1,0,0.2c0,0.1,0,0.1,0,0.2c0,0.1,0,0.1,0,0.2c0,0.1,0,0.1,0,0.2
				c0,0.1,0,0.1,0,0.2c0,0.1,0,0.1,0,0.2c0,0.1,0,0.1,0,0.2c0,0.1,0,0.1,0,0.2c0,0.1,0,0.1,0,0.2c0,0.1,0,0.1,0,0.2
				c0,0.1,0,0.1,0,0.2c0,0.1,0,0.1,0,0.2c0,0.1,0,0.1,0,0.2c0,0.1,0,0.1,0,0.2c0,0.1,0,0.1,0,0.2c0,0.1,0,0.1,0,0.2
				c0,0.1,0,0.1,0,0.2c0,0.1,0,0.1,0,0.2c0,0.1,0,0.1,0,0.2c0,0.1,0,0.1,0,0.2c0,0.1,0,0.1,0,0.2c0,0.1,0,0.1,0,0.2
				c0,0.1,0,0.1,0,0.2c0,0.1,0,0.1,0,0.2c0,0.1,0,0.1,0,0.2c0,0.1,0,0.1,0,0.2c0,0.1,0,0.1,0,0.2c0,0.1,0,0.1,0,0.2
				c0,0.1,0,0.1,0,0.2c0,0.1,0,0.1,0,0.2c0,0.1,0,0.1,0,0.2c0,0.1,0,0.1,0,0.2c0,0.1,0,0.1,0,0.2c0,0.1,0,0.1,0,0.2
				c0,0.1,0,0.1,0,0.2c0,0.1,0,0.1,0,0.2c0,0.1,0,0.1,0,0.2c0,0.1,0,0.1,0,0.2c0,0.1,0,0.1,0,0.2c0,0.1,0,0.1,0,0.2
				c0,0.1,0,0.1,0,0.2c0,0.1,0,0.1,0,0.2c0,0.1,0,0.1,0,0.2c0,0.1,0,0.1,0,0.2c0,0.1,0,0.1,0,0.2c0,0.1,0,0.1,0,0.2
				c0,0.1,0,0.1,0,0.2c0,0.1,0,0.1,0,0.2c0,0.1,0,0.1,0,0.2c0,0.1,0,0.1,0,0.2c0,0.1,0,0.1,0,0.2c0,0.1,0,0.1,0,0.2
				c0,0.1,0,0.1,0,0.2c0,0.1,0,0.1,0,0.2c0,0.1,0,0.1,0,0.2c0,0.1,0,0.1,0,0.2c0,0.1,0,0.1,0,0.2c0,0.1,0,0.1,0,0.2
				c0,0.1,0,0.1,0,0.2c0,0.1,0,0.1,0,0.2c0,0.1,0,0.1,0,0.2c0,0.1,0,0.1,0,0.2c0,0.1,0,0.1,0,0.2c0,0.1,0,0.1,0,0.2
				c0,0.1,0,0.1,0,0.2c0,0.1,0,0.1,0,0.2c0,0.1,0,0.1,0,0.2c0,0.1,0,0.1,0,0.2c0,0.1,0,0.1,0,0.2c0,0.1,0,0.1,0,0.2
				c0,0.1,0,0.1,0,0.2c0,0.1,0,0.1,0,0.2c0,0.1,0,0.1,0,0.2c0,0.1,0,0.1,0,0.2c0,0.1,0,0.1,0,0.2c0,0.1,0,0.1,0,0.2
				c0,0.1,0,0.1,0,0.2c0,0.1,0,0.1,0,0.2c0,0.1,0,0.1,0,0.2c0,0.1,0,0.1,0,0.2c0,0.1,0,0.1,0,0.2c0,0.1,0,0.1,0,0.2
				c0,0.1,0,0.1,0,0.2c0,0.1,0,0.1,0,0.2c0,0.1,0,0.1,0,0.2c0,0.1,0,0.1,0,0.2c0,0.1,0,0.1,0,0.2c0,0.1,0,0.1,0,0.2
				c0,0.1,0,0.1,0,0.2c0,0.1,0,0.1,0,0.2c0,0.1,0,0.1,0,0.2c0,0.1,0,0.1,0,0.2c0,0.1,0,0.1,0,0.2c0,0.1,0,0.1,0,0.2
				c0,0.1,0,0.1,0,0.2c0,0.1,0,0.1,0,0.2c0,0.1,0,0.1,0,0.2c0.1,4.8,2.6,9,6.8,11.3l36.4,20.1c2,1.1,4.3,1.7,6.6,1.6
				c2.3,0,4.6-0.7,6.6-1.9l269.6-160.7l0,0L413.2,2340.4z M350.3,2377.4L350.3,2377.4L350.3,2377.4L350.3,2377.4z"/>
			<path class="st4" d="M320.1,2368.2l67.4-40.5c-8.4-5.3-16.9-10.5-25.9-14.8c-7.7-3.7-17.5-6.8-25.2-11.9L37.6,2480.4
				c-4.4,2.6-4.3,9,0.2,11.5l36.4,20.1c2.1,1.1,4.6,1.1,6.6-0.1l190.4-114.4"/>
			<path class="st5" d="M333.3,2295.2L34.3,2474.8c-4.1,2.5-6.5,6.8-6.4,11.6c0.1,4.8,2.6,9,6.8,11.3l36.4,20.1
				c2,1.1,4.3,1.7,6.6,1.6c2.3,0,4.6-0.7,6.6-1.9l313-187.8"/>
			<line class="st5" x1="333.2" y1="2368" x2="396.1" y2="2330.2"/>
			<g>
				<path class="st2" d="M400.4,2327.3l-0.5-0.4L83.7,2516.5c-3.6,2.2-8.4,2.3-12.1,0.2l-36.4-20.1c-3.8-2.1-6.2-6-6.3-10.4
					c-0.1-4.4,2.1-8.3,5.9-10.6L335,2295.4c-0.6-0.5-1.8-0.4-2.3-0.9l-299,179.4c-4.4,2.7-7,7.3-6.9,12.5s2.9,9.7,7.4,12.2
					l36.4,20.1c4.4,2.4,10,2.3,14.3-0.3l315.1-188.9"/>
			</g>
			<path class="st4" d="M346.2,2300.4L39.3,2485.1c0,0,0,0.1,0,0.1l36.4,20.1c0,0,0,0,0,0l0,0l307.9-184.7"/>
			<path class="st4" d="M384.8,2320.7"/>
			<path class="st4" d="M305.3,2367.4"/>
		</g>
	</g>
</g>
</svg>
