<?xml version="1.0" encoding="UTF-8"?><svg id="Layer_4" xmlns="http://www.w3.org/2000/svg" xmlns:xlink="http://www.w3.org/1999/xlink" viewBox="0 0 357.99 411.92"><defs><style>.cls-1{fill:url(#linear-gradient);}.cls-2{fill:#3e1489;}.cls-3{fill:#633cae;}.cls-4{fill:url(#linear-gradient-2);}.cls-5{fill:#e6e8fa;}.cls-5,.cls-6{stroke:#3e1489;stroke-linejoin:round;stroke-width:.81px;}.cls-6{fill:#cfd2fa;}</style><linearGradient id="linear-gradient" x1="170.01" y1="-636.34" x2="267.81" y2="-702.9" gradientTransform="translate(49.73 1062.37) rotate(-27.87) scale(1.1 .91) skewX(-22.63)" gradientUnits="userSpaceOnUse"><stop offset=".13" stop-color="#6313ea"/><stop offset="1" stop-color="#9523e7"/></linearGradient><linearGradient id="linear-gradient-2" x1="168.92" y1="-638.18" x2="269.93" y2="-706.94" xlink:href="#linear-gradient"/></defs><g><g><g><polygon class="cls-3" points="2.25 103.64 179.32 206.39 356.4 103.64 179.32 1.41 2.25 103.64"/><polygon class="cls-5" points="2.25 308.11 2.25 103.64 179.32 206.39 179.32 410.34 2.25 308.11"/><polygon class="cls-6" points="356.4 308.11 356.4 103.64 179.32 206.39 179.32 410.34 356.4 308.11"/></g><polygon class="cls-2" points="6.01 110.34 6.01 108.46 175.12 206.6 175.12 208.26 6.01 110.34"/><polygon class="cls-2" points="92.05 155.78 269.09 53.45 265.01 51.09 87.98 153.42 92.05 155.78"/><polygon class="cls-2" points="87.98 156.74 87.98 153.42 92.05 155.78 92.05 159.17 87.98 156.74"/><polygon class="cls-2" points="125.42 251 125.16 379.83 36.8 328.81 37.06 199.98 125.42 251"/></g><g id="lever"><polygon class="cls-2" points="8.22 280.51 26.32 290.95 26.32 199.14 8.22 188.69 8.22 280.51"/></g></g><g><path class="cls-1" d="m301.79,224.81c.02,1.5-.06,3.03-.2,4.57l19-46.24-35.1,21.88c9.36-.97,16.08,6.41,16.3,19.78Z"/><path class="cls-4" d="m250.66,256.69c-.22-13.38,6.12-28.9,15.32-39.5l-49.42,30.81,52.92,59.56,18.55-45.16c-3.38,4.26-7.2,7.88-11.27,10.42-14.12,8.8-25.8,1.58-26.1-16.13Z"/></g></svg>