<svg xmlns="http://www.w3.org/2000/svg" viewBox="-0.03 0 61 114"><defs><clipPath id="a"><path fill="none" d="M0 0h61v114H0z" data-name="Rectangle 52"></path></clipPath></defs><g data-name="Group 283"><g clip-path="url(#a)" data-name="Group 282"><path fill="#f2ad90" d="M17.164 31.488a3.366 3.366 0 0 0-1.665.071 3.668 3.668 0 0 0-.827.415c-.49.35-.964.72-1.436 1.092a30.756 30.756 0 0 1-2.54 1.878 7.776 7.776 0 0 1-1.111.635.711.711 0 0 1-.813-.095 6.816 6.816 0 0 0-.6-.394 1.776 1.776 0 0 0-.653-.283 1.513 1.513 0 0 0-.675.084 4.457 4.457 0 0 1-1.55.4c-.15-.009-.323-.037-.436.065a.429.429 0 0 0-.051.454.886.886 0 0 1 .087.469.689.689 0 0 1-.31.359l-.5.358a1.134 1.134 0 0 0-.514.6 1.115 1.115 0 0 0 .008.4 2.075 2.075 0 0 1 .029.3 1.826 1.826 0 0 1-.094.51 1.472 1.472 0 0 0-.083.894 1.122 1.122 0 0 1 .074.216 1.027 1.027 0 0 1-.044.313 1.513 1.513 0 0 0 .116.728l.116.346a.654.654 0 0 0 .093.2.52.52 0 0 0 .586.095 5.335 5.335 0 0 0 1.163-.875 9.456 9.456 0 0 1 2.566-.83 3.91 3.91 0 0 0 1.5-.945 52.253 52.253 0 0 1 5.576-1.709 21.877 21.877 0 0 0 2.305-.8 4.254 4.254 0 0 0 1.491-.964 2.042 2.042 0 0 0 .545-1.931 3.257 3.257 0 0 0-2.344-2.06" data-name="Path 804"></path><path fill="#ff8380" d="M27.567 88.419c-.01.24-.03.479-.056.718a2.439 2.439 0 0 1-.81 1.5A1.8 1.8 0 0 0 26.072 92a5.575 5.575 0 0 0 .06 1.67 1.854 1.854 0 0 0 1.189 1.386 2.1 2.1 0 0 0 .935.012 3.833 3.833 0 0 0 2.085-1.083 3.25 3.25 0 0 0 .923-2.152c.022-1-.448-2.014-.136-2.959a4.145 4.145 0 0 1 1.134-1.513 2.961 2.961 0 0 0 .98-1.6 1.847 1.847 0 0 0-.387-1.341 2.6 2.6 0 0 0-1.146-.821 5.068 5.068 0 0 0-2.379-.113 2.223 2.223 0 0 0-1.658 1.37 5.778 5.778 0 0 0-.113 2.471 10.524 10.524 0 0 1 .008 1.092" data-name="Path 805"></path><path fill="#f2ad90" d="M32.354 73.643a14.211 14.211 0 0 0-.265-1.989c-.1-.581-.207-1.165-.284-1.752l.383-.249c-.2-.856-.352-1.722-.469-2.593 0-.028 0-.057.006-.084 0 .008-.01.015-.015.024a27.571 27.571 0 0 1-.249-3.555 13.613 13.613 0 0 0-.43-4.74 9.205 9.205 0 0 0-2.087-3.03 8 8 0 0 0-1.91-1.594 4.6 4.6 0 0 0-1.949-.558 2.931 2.931 0 0 0-2.105.618c-.987.868-.548 2.226-.283 3.319q1.339 5.521 2.675 11.043a7.569 7.569 0 0 0 .274.937c0 .467.051.938.055 1.283a34.316 34.316 0 0 0 .311 4.07c.35 2.692.917 5.349 1.33 8.03a41.892 41.892 0 0 1 .487 4.6 6.3 6.3 0 0 0 .258 1.91c.05.137.128.285.268.32.187.045.348-.134.452-.3A15.538 15.538 0 0 0 30.2 86.4a25.185 25.185 0 0 0 .9-2.721 29.772 29.772 0 0 0 .62-3.789l.491-4.1a13.9 13.9 0 0 0 .144-2.15" data-name="Path 806"></path><path fill="#ff8380" d="M30.566 94.6A9.754 9.754 0 0 0 30 95.764a1.771 1.771 0 0 0-.021 1.265 1.607 1.607 0 0 0 1.224.88 3.644 3.644 0 0 0 1.55-.142 4.4 4.4 0 0 0 2.066-1.07 4.1 4.1 0 0 0 .939-1.827 7.592 7.592 0 0 0 .248-2.172 10.149 10.149 0 0 1-.02-1.805 14.177 14.177 0 0 1 .4-1.466 5.286 5.286 0 0 0 .076-2.3 2.507 2.507 0 0 0-.337-.922 1.919 1.919 0 0 0-1.435-.805 2.909 2.909 0 0 0-1.629.381c-.978.532-1.014 2.153-1.16 3.132-.188 1.251-.318 2.515-.629 3.743a9.462 9.462 0 0 1-.706 1.946" data-name="Path 807"></path><path fill="#f9d3be" d="M39.87 58.029a2.3 2.3 0 0 1-.711.609 6.387 6.387 0 0 1-1.649.8 6.472 6.472 0 0 1-3.636.1 18.282 18.282 0 0 1-2.5-.858c-.3-.132-.457-.359-.564.05a2.881 2.881 0 0 0-.026 1.27 6 6 0 0 1 .033 1.293q-.012 1.511.074 3.019a46.1 46.1 0 0 0 .737 5.992c0 .019.008.037.012.055.2 2.956.445 5.9.749 8.852.118 1.134.237 2.267.342 3.4.061.659.118 1.32.129 1.982a12.146 12.146 0 0 1-.062 1.929c-.093.651-.266 1.288-.383 1.934a5.218 5.218 0 0 0 .005 2.579.909.909 0 0 0 .561.554.932.932 0 0 0 .626-.076 2.275 2.275 0 0 0 .9-.837 11.6 11.6 0 0 0 1.485-4.954 65.25 65.25 0 0 1 1.642-7.273 13.808 13.808 0 0 0 .554-4.673c-.137-1.36-.638-2.671-.858-4.013.032-.168.062-.335.1-.5.154-.728.207-1.476.368-2.214a15.955 15.955 0 0 1 .722-2.444c.241-.612.533-1.2.762-1.82a19.507 19.507 0 0 0 .716-2.673 12.87 12.87 0 0 0 .424-3.324c-.193.4-.315.87-.545 1.245" data-name="Path 808"></path><path fill="#fff" d="M16.435 101.577c-2.286-1.192-5.208-2.849-5.106-5.849a58.508 58.508 0 0 1 1.154-10.09q2.776-13.4 5.58-26.8c1.2-5.7 2.186-11.5 3.686-17.131.178-.666.36-1.331.565-1.989.058-.189.5-1.045.432-1.213 1.384 3.618 5.453 4.52 8.982 4.237a5.311 5.311 0 0 0 2.442-.537 5.46 5.46 0 0 0 1.109-1.005c.243-.261.7-.517.7-.9a9.84 9.84 0 0 0-1.111-3.83 16.215 16.215 0 0 1 3.583 2.83 16.909 16.909 0 0 1 2.873 4.057 22.248 22.248 0 0 1 1.6 4.817 91.039 91.039 0 0 1 1.912 12.411 132.4 132.4 0 0 0 2.723 16.86c.335 1.408.461 3.243 1.648 4.21 1.16.944 2.822 1.211 4.213 1.6a15.421 15.421 0 0 1 6.165 3.4 2.777 2.777 0 0 1 1.068 2.9 4.86 4.86 0 0 1-1.091 1.67c-4.905 5.471-12.026 8.358-19.077 10.349-5.829 1.647-11.94 2.81-17.928 1.906a19.463 19.463 0 0 1-6.121-1.9" data-name="Path 809"></path><path fill="none" stroke="#6a3ab5" stroke-miterlimit="10" stroke-width=".479" d="M16.435 101.577c-2.286-1.192-5.208-2.849-5.106-5.849a58.508 58.508 0 0 1 1.154-10.09q2.776-13.4 5.58-26.8c1.2-5.7 2.186-11.5 3.686-17.131.178-.666.36-1.331.565-1.989.058-.189.5-1.045.432-1.213 1.384 3.618 5.453 4.52 8.982 4.237a5.311 5.311 0 0 0 2.442-.537 5.46 5.46 0 0 0 1.109-1.005c.243-.261.7-.517.7-.9a9.84 9.84 0 0 0-1.111-3.83 16.215 16.215 0 0 1 3.583 2.83 16.909 16.909 0 0 1 2.873 4.057 22.248 22.248 0 0 1 1.6 4.817 91.039 91.039 0 0 1 1.912 12.411 132.4 132.4 0 0 0 2.723 16.86c.335 1.408.461 3.243 1.648 4.21 1.16.944 2.822 1.211 4.213 1.6a15.421 15.421 0 0 1 6.165 3.4 2.777 2.777 0 0 1 1.068 2.9 4.86 4.86 0 0 1-1.091 1.67c-4.905 5.471-12.026 8.358-19.077 10.349-5.829 1.647-11.94 2.81-17.928 1.906a19.463 19.463 0 0 1-6.122-1.903Z" data-name="Path 810"></path><path fill="#fff" d="M20.2 22.411s-1.149 3.5-1.215 3.908c.246 2.588 3.983 2.787 3.983 2.787l2.051-4.1Z" data-name="Path 811"></path><path fill="none" stroke="#6a3ab5" stroke-miterlimit="10" stroke-width=".479" d="M20.2 22.411s-1.149 3.5-1.215 3.908c.246 2.588 3.983 2.787 3.983 2.787l2.051-4.1Z" data-name="Path 812"></path><path fill="#abb3f9" d="M26.817 16.634V21.2l1.383 1.383h5.087l2.3-3.309-.424-6.619Z" data-name="Path 813"></path><path fill="#fff" d="M19.617 20.061a4.987 4.987 0 0 0 4.97 5c2.748 0 2.994-1.968 2.994-4.732s-.246-5.277-2.994-5.277a4.989 4.989 0 0 0-4.97 5.005" data-name="Path 814"></path><path fill="none" stroke="#6a3ab5" stroke-miterlimit="10" stroke-width=".479" d="M19.617 20.061a4.987 4.987 0 0 0 4.97 5c2.748 0 2.994-1.968 2.994-4.732s-.246-5.277-2.994-5.277a4.989 4.989 0 0 0-4.97 5.009Z" data-name="Path 815"></path><path fill="#d1d1fb" d="M36.753 39.951v1.858a10.275 10.275 0 0 1-5.25 1.56c-6.044.4-8.739-3.119-8.739-3.119l.036-2.275Z" data-name="Path 816"></path><path fill="none" stroke="#6a3ab5" stroke-miterlimit="10" stroke-width=".479" d="M36.753 39.951v1.858a10.275 10.275 0 0 1-5.25 1.56c-6.044.4-8.739-3.119-8.739-3.119l.036-2.275Z" data-name="Path 817"></path><path fill="#fff" d="M39.325 33.783c-.994.865-2.571 6.169-2.571 6.169s-1.884 1.545-5.765 1.53c-5.7.04-8.188-3.506-8.188-3.506-.113-2.03-.3-5.037-.3-5.037s-2.411-.5-2.871-3.963c-.162-1.245 1.9-5.09 3.673-8.507 1.431-2.753 2.595-4.9 3.674-5.39 1.566-.461 1.8 6.313 1.8 6.313s5.289-4.151 5.966-3.619l5.775 4.542s-.19 10.6-1.186 11.468" data-name="Path 818"></path><path fill="none" stroke="#6a3ab5" stroke-miterlimit="10" stroke-width=".479" d="M39.325 33.783c-.994.865-2.571 6.169-2.571 6.169s-1.884 1.545-5.765 1.53c-5.7.04-8.188-3.506-8.188-3.506-.113-2.03-.3-5.037-.3-5.037s-2.411-.5-2.871-3.963c-.162-1.245 1.9-5.09 3.673-8.507 1.431-2.753 2.595-4.9 3.674-5.39 1.566-.461 1.8 6.313 1.8 6.313s5.289-4.151 5.966-3.619l5.775 4.542s-.198 10.605-1.193 11.468Z" data-name="Path 819"></path><path fill="#d2d6fc" d="m23.872 9.614.269.614a3.118 3.118 0 0 0-.3.794 42.712 42.712 0 0 0 .99 6.327 3.259 3.259 0 0 0 2.144 1.077 12.36 12.36 0 0 0 5.053-2.626c1.061-1.3 1.408-5.918 1.408-5.918L28.8 3.8l-5.5 2.081a36.8 36.8 0 0 0 .573 3.734" data-name="Path 820"></path><path fill="none" stroke="#6a3ab5" stroke-miterlimit="10" stroke-width=".479" d="m23.872 9.614.269.614a3.118 3.118 0 0 0-.3.794 42.712 42.712 0 0 0 .99 6.327 3.259 3.259 0 0 0 2.144 1.077 12.36 12.36 0 0 0 5.053-2.626c1.061-1.3 1.408-5.918 1.408-5.918L28.8 3.8l-5.5 2.081a36.8 36.8 0 0 0 .572 3.733Z" data-name="Path 821"></path><path fill="#441090" d="M26.091 6.88c4.169 1.116.01 4.667 6.768 8.175 1.763 1.2-1.02 5.526-.533 7.144.573-1.388 2.743-2.376 3.091-2.07a3.227 3.227 0 0 0-.862 2.859c.687-1.042 1.518-2.859 3.122-2.869.675 0 1.387 1.231 2.833 2.194a48.075 48.075 0 0 1-1.11-7.967c-.3-3.654 1-12.431-6.082-13.084 0 0-1.369-2.389-5.24-.595C24.561 2.3 22.5 5.61 22.5 6.959a4.039 4.039 0 0 0 1.375 2.656c-.573-3.734.73-3.582.73-3.582s.686-.113 1.491.848" data-name="Path 822"></path><path fill="#fff" d="M30.023 8.971a.8.8 0 0 1-.635-.279 1.277 1.277 0 0 1-.219-.946 1.418 1.418 0 0 1-.959-1 .457.457 0 0 1 .041-.345.417.417 0 0 1 .254-.2 2.042 2.042 0 0 1 .55-.079 1.557 1.557 0 0 1 .185.01.982.982 0 0 1 .47-1.2.655.655 0 0 1 .274-.06.735.735 0 0 1 .627.388.9.9 0 0 1 .1.312 1.547 1.547 0 0 1 .657-.144 1.288 1.288 0 0 1 1.319.993 1.064 1.064 0 0 1-.658 1.237 1.352 1.352 0 0 1-.524.1 1.664 1.664 0 0 1-.375-.044 1.273 1.273 0 0 1-.2.815 1.02 1.02 0 0 1-.7.42 1.3 1.3 0 0 1-.211.019" data-name="Path 823"></path><path fill="#6a3ab5" d="M29.984 5.01a.6.6 0 0 1 .507.319.912.912 0 0 1 .1.473 1.4 1.4 0 0 1 .782-.236 1.156 1.156 0 0 1 1.184.886.923.923 0 0 1-.577 1.077 1.2 1.2 0 0 1-.471.094 1.675 1.675 0 0 1-.538-.1.985.985 0 0 1-.76 1.289 1.135 1.135 0 0 1-.188.016c-.636 0-.8-.626-.7-1.191a1.269 1.269 0 0 1-.98-.932.3.3 0 0 1 .2-.374 1.928 1.928 0 0 1 .513-.074 1.378 1.378 0 0 1 .376.049c-.154-.477-.15-1.027.336-1.251a.521.521 0 0 1 .217-.048m0-.278a.8.8 0 0 0-.331.073 1.061 1.061 0 0 0-.578 1.177h-.02a2.211 2.211 0 0 0-.588.084.557.557 0 0 0-.336.268.6.6 0 0 0-.053.45 1.562 1.562 0 0 0 .945 1.057 1.349 1.349 0 0 0 .261.939.927.927 0 0 0 .74.328 1.463 1.463 0 0 0 .233-.02 1.175 1.175 0 0 0 .794-.477 1.341 1.341 0 0 0 .224-.727 1.829 1.829 0 0 0 .234.016 1.472 1.472 0 0 0 .579-.116 1.2 1.2 0 0 0 .739-1.395 1.422 1.422 0 0 0-1.454-1.1 1.7 1.7 0 0 0-.558.094 1.032 1.032 0 0 0-.083-.191.876.876 0 0 0-.747-.459" data-name="Path 824"></path><path fill="#fff" d="M26.9 6.68a.419.419 0 0 1-.294-.124.392.392 0 0 1-.116-.281 1.794 1.794 0 0 1 .12-.65c-.54-.051-.85-.3-.91-.711a.647.647 0 0 1 .515-.718.709.709 0 0 1 .181-.023.782.782 0 0 1 .1.006 1.455 1.455 0 0 1 .247-1.026 1.116 1.116 0 0 1 .923-.481.981.981 0 0 1 .978.893 1.3 1.3 0 0 1-.165.789 1.135 1.135 0 0 1 .642.374.947.947 0 0 1 .188.727.758.758 0 0 1-.792.75A1.387 1.387 0 0 1 28 6.1a1.286 1.286 0 0 1-1.1.582Z" data-name="Path 825"></path><path fill="#6a3ab5" d="M27.668 2.81h.059a.828.828 0 0 1 .782.769 1.272 1.272 0 0 1-.253.877c.519.049.991.351.918.98a.622.622 0 0 1-.655.627 1.324 1.324 0 0 1-.574-.148 1.135 1.135 0 0 1-1.041.622.273.273 0 0 1-.273-.265 1.535 1.535 0 0 1 .2-.78h-.064c-.428 0-.858-.148-.926-.6a.51.51 0 0 1 .411-.563.626.626 0 0 1 .148-.017 1.023 1.023 0 0 1 .284.048 1.154 1.154 0 0 1 .987-1.551m0-.278a1.247 1.247 0 0 0-1.035.541 1.57 1.57 0 0 0-.287.963.953.953 0 0 0-.163.024.783.783 0 0 0-.619.874.97.97 0 0 0 .86.812 2.024 2.024 0 0 0-.072.528.533.533 0 0 0 .155.38.564.564 0 0 0 .393.167 1.426 1.426 0 0 0 1.153-.555 1.49 1.49 0 0 0 .465.08.9.9 0 0 0 .93-.874 1.09 1.09 0 0 0-.219-.829 1.208 1.208 0 0 0-.553-.374 1.4 1.4 0 0 0 .106-.718 1.1 1.1 0 0 0-1.043-1.014Z" data-name="Path 826"></path><path fill="#fff" d="M34.677 9.36a.413.413 0 0 1-.41-.405 1.794 1.794 0 0 1 .12-.65c-.54-.051-.85-.3-.91-.711a.647.647 0 0 1 .515-.718.709.709 0 0 1 .181-.023.782.782 0 0 1 .1.006 1.455 1.455 0 0 1 .247-1.026 1.116 1.116 0 0 1 .923-.481.981.981 0 0 1 .978.893 1.3 1.3 0 0 1-.165.789 1.131 1.131 0 0 1 .641.373.953.953 0 0 1 .189.727.758.758 0 0 1-.792.751 1.394 1.394 0 0 1-.516-.109 1.267 1.267 0 0 1-1.1.583Z" data-name="Path 827"></path><path fill="#6a3ab5" d="M35.444 5.491h.059a.828.828 0 0 1 .782.769 1.272 1.272 0 0 1-.253.877c.519.049.991.351.919.98a.624.624 0 0 1-.656.627 1.324 1.324 0 0 1-.574-.148 1.135 1.135 0 0 1-1.042.622.273.273 0 0 1-.273-.265 1.535 1.535 0 0 1 .2-.78h-.066c-.428 0-.858-.148-.926-.6a.51.51 0 0 1 .411-.563.626.626 0 0 1 .148-.017 1.023 1.023 0 0 1 .284.048 1.154 1.154 0 0 1 .987-1.551m0-.278a1.247 1.247 0 0 0-1.035.541 1.57 1.57 0 0 0-.287.963.953.953 0 0 0-.163.024.783.783 0 0 0-.619.874.97.97 0 0 0 .86.812 2.024 2.024 0 0 0-.072.528.533.533 0 0 0 .155.38.564.564 0 0 0 .393.167 1.426 1.426 0 0 0 1.153-.555 1.461 1.461 0 0 0 .465.08.9.9 0 0 0 .93-.873 1.092 1.092 0 0 0-.219-.83 1.208 1.208 0 0 0-.553-.374 1.406 1.406 0 0 0 .106-.718 1.1 1.1 0 0 0-1.043-1.014Z" data-name="Path 828"></path><path fill="#fff" d="M33.084 10.16a.96.96 0 0 1-.756-.486 1.144 1.144 0 0 1-.448.092 1.222 1.222 0 0 1-.688-.22.4.4 0 0 1-.166-.257.38.38 0 0 1 .058-.279 1.65 1.65 0 0 1 .406-.423.823.823 0 0 1-.314-1.016.572.572 0 0 1 .533-.328.7.7 0 0 1 .451.168 1.263 1.263 0 0 1 1.093-.711 1.03 1.03 0 0 1 .626.217.9.9 0 0 1 .242 1.16 1.2 1.2 0 0 1-.518.512 1.063 1.063 0 0 1 .289.611.88.88 0 0 1-.231.656.752.752 0 0 1-.577.3" data-name="Path 829"></path><path fill="#6a3ab5" d="M33.252 6.836a.886.886 0 0 1 .543.188.763.763 0 0 1 .2.986 1.148 1.148 0 0 1-.639.536.813.813 0 0 1 .2 1.218.62.62 0 0 1-.472.255.911.911 0 0 1-.7-.525 1.033 1.033 0 0 1-.5.131 1.08 1.08 0 0 1-.61-.2.25.25 0 0 1-.072-.341 1.385 1.385 0 0 1 .548-.49c-.349-.219-.635-.568-.445-.968a.437.437 0 0 1 .408-.25.536.536 0 0 1 .19.035.735.735 0 0 1 .312.246 1.138 1.138 0 0 1 1.04-.825m0-.278a1.394 1.394 0 0 0-1.136.651.919.919 0 0 0-.119-.051.832.832 0 0 0-.29-.054.715.715 0 0 0-.657.408.905.905 0 0 0 .225 1.068 1.9 1.9 0 0 0-.307.352.511.511 0 0 0-.079.386.539.539 0 0 0 .223.344 1.36 1.36 0 0 0 .766.244 1.26 1.26 0 0 0 .4-.063 1.055 1.055 0 0 0 .807.457.886.886 0 0 0 .683-.352 1.026 1.026 0 0 0 .262-.76 1.126 1.126 0 0 0-.22-.562 1.286 1.286 0 0 0 .433-.486 1.037 1.037 0 0 0-.285-1.336 1.165 1.165 0 0 0-.71-.244" data-name="Path 830"></path><path fill="#fff" d="M36.791 7.216a.389.389 0 0 1-.275-.121.379.379 0 0 1-.105-.268 1.71 1.71 0 0 1 .115-.579.817.817 0 0 1-.814-.68.6.6 0 0 1 .493-.66.72.72 0 0 1 .155-.017.654.654 0 0 1 .091.006 1.331 1.331 0 0 1 .243-.919 1.029 1.029 0 0 1 .848-.44.915.915 0 0 1 .913.846 1.2 1.2 0 0 1-.155.716 1.046 1.046 0 0 1 .573.354.885.885 0 0 1 .163.677.7.7 0 0 1-.731.684 1.283 1.283 0 0 1-.486-.106 1.171 1.171 0 0 1-.994.512Z" data-name="Path 831"></path><path fill="#6a3ab5" d="M37.542 3.675h.073a.759.759 0 0 1 .7.718 1.164 1.164 0 0 1-.247.8c.475.056.9.339.824.913a.568.568 0 0 1-.594.564 1.2 1.2 0 0 1-.539-.145 1.039 1.039 0 0 1-.941.551h-.027a.25.25 0 0 1-.244-.248 1.4 1.4 0 0 1 .2-.711h-.027c-.4 0-.815-.139-.871-.57a.467.467 0 0 1 .386-.507.585.585 0 0 1 .125-.013.894.894 0 0 1 .27.049 1.06 1.06 0 0 1 .912-1.4m0-.278a1.167 1.167 0 0 0-.959.5 1.464 1.464 0 0 0-.277.858.932.932 0 0 0-.131.019.739.739 0 0 0-.6.815.9.9 0 0 0 .767.774 1.866 1.866 0 0 0-.067.464.506.506 0 0 0 .142.366.532.532 0 0 0 .372.167 1.35 1.35 0 0 0 1.071-.484 1.348 1.348 0 0 0 .439.078.841.841 0 0 0 .868-.8 1.023 1.023 0 0 0-.19-.781 1.13 1.13 0 0 0-.488-.352 1.3 1.3 0 0 0 .1-.644 1.031 1.031 0 0 0-.958-.968h-.093" data-name="Path 832"></path><path fill="#fff" d="M26.028 4.581a.965.965 0 0 1-.757-.484 1.138 1.138 0 0 1-.447.091 1.225 1.225 0 0 1-.689-.22.4.4 0 0 1-.165-.255.374.374 0 0 1 .057-.28 1.658 1.658 0 0 1 .407-.424.822.822 0 0 1-.315-1.016.572.572 0 0 1 .533-.328.687.687 0 0 1 .239.043.711.711 0 0 1 .213.125A1.262 1.262 0 0 1 26.2 1.12a1.027 1.027 0 0 1 .626.217.9.9 0 0 1 .242 1.16 1.2 1.2 0 0 1-.518.513 1.051 1.051 0 0 1 .289.609.892.892 0 0 1-.229.658.753.753 0 0 1-.578.3" data-name="Path 833"></path><path fill="#6a3ab5" d="M26.2 1.259a.886.886 0 0 1 .543.188.763.763 0 0 1 .2.986 1.152 1.152 0 0 1-.639.536.813.813 0 0 1 .2 1.218.62.62 0 0 1-.472.255.909.909 0 0 1-.7-.525 1.033 1.033 0 0 1-.5.131 1.08 1.08 0 0 1-.61-.2.25.25 0 0 1-.072-.341 1.375 1.375 0 0 1 .548-.489c-.349-.22-.635-.569-.445-.969a.437.437 0 0 1 .408-.25.536.536 0 0 1 .19.035.735.735 0 0 1 .312.246 1.139 1.139 0 0 1 1.04-.825m0-.278a1.394 1.394 0 0 0-1.136.651.919.919 0 0 0-.12-.056.832.832 0 0 0-.286-.051.716.716 0 0 0-.661.412A.9.9 0 0 0 24.221 3a1.9 1.9 0 0 0-.307.352.511.511 0 0 0-.079.386.539.539 0 0 0 .223.344 1.36 1.36 0 0 0 .766.244 1.265 1.265 0 0 0 .4-.063 1.055 1.055 0 0 0 .807.457.886.886 0 0 0 .683-.352 1.026 1.026 0 0 0 .262-.76 1.136 1.136 0 0 0-.22-.562 1.286 1.286 0 0 0 .433-.486 1.037 1.037 0 0 0-.281-1.336A1.165 1.165 0 0 0 26.2.981" data-name="Path 834"></path><path fill="#d2d6fc" d="m36.661 40.4 1.9-6.152 5.55-1.16L39 44.474Z" data-name="Path 835"></path><path fill="none" stroke="#6a3ab5" stroke-miterlimit="10" stroke-width=".479" d="m36.661 40.4 1.9-6.152 5.55-1.16L39 44.474Z" data-name="Path 836"></path><path fill="#d2d6fc" d="M19.958 10.747a9.1 9.1 0 0 0-.265 2.743 13.832 13.832 0 0 1 .281 2.141 3.311 3.311 0 0 1-1.374 3.124c-.348.211-.743.341-1.069.584a3.453 3.453 0 0 0-1.085 2.082A18.517 18.517 0 0 0 16 24.739a15.137 15.137 0 0 0-1.831.124 12.637 12.637 0 0 1-1.456.154 7.79 7.79 0 0 1-2.007-.307 4.5 4.5 0 0 1-1.865-.819 1.223 1.223 0 0 1-.4-.56c-.1-.327.119-.642.21-.949a9.827 9.827 0 0 0 .3-1.327 9.137 9.137 0 0 0-.014-2.768C8.681 16.751 8.045 15.3 7.8 13.76a5.251 5.251 0 0 1 0-1.957 5.485 5.485 0 0 1 .9-1.9 8.67 8.67 0 0 1 7.1-3.934 3.82 3.82 0 0 1 1.953.515 4.884 4.884 0 0 1 2.2 4.266" data-name="Path 837"></path><path fill="none" stroke="#6a3ab5" stroke-miterlimit="10" stroke-width=".479" d="M19.958 10.747a9.1 9.1 0 0 0-.265 2.743 13.832 13.832 0 0 1 .281 2.141 3.311 3.311 0 0 1-1.374 3.124c-.348.211-.743.341-1.069.584a3.453 3.453 0 0 0-1.085 2.082A18.517 18.517 0 0 0 16 24.739a15.137 15.137 0 0 0-1.831.124 12.637 12.637 0 0 1-1.456.154 7.79 7.79 0 0 1-2.007-.307 4.5 4.5 0 0 1-1.865-.819 1.223 1.223 0 0 1-.4-.56c-.1-.327.119-.642.21-.949a9.827 9.827 0 0 0 .3-1.327 9.137 9.137 0 0 0-.014-2.768C8.681 16.751 8.045 15.3 7.8 13.76a5.251 5.251 0 0 1 0-1.957 5.485 5.485 0 0 1 .9-1.9 8.67 8.67 0 0 1 7.1-3.934 3.82 3.82 0 0 1 1.953.515 4.884 4.884 0 0 1 2.205 4.263Z" data-name="Path 838"></path><path fill="#6034a3" d="M.606 27.892a22.441 22.441 0 0 0-.243 2.356 29.424 29.424 0 0 0 .68 9.665 1.568 1.568 0 0 0 .219.519 1.223 1.223 0 0 0 .5.369 2.453 2.453 0 0 0 2.1-.055 2.481 2.481 0 0 0 1.271-1.685 4.593 4.593 0 0 0 .05-1.086c-.152-3.906-1.024-7.858-.216-11.68a8.788 8.788 0 0 1 .415-2.471c.243-.465.962-1.7 1.541-1.793-1.928.311-4.1.886-5.192 2.659a8.849 8.849 0 0 0-1.123 3.2" data-name="Path 839"></path><path fill="none" stroke="#6034a3" stroke-miterlimit="10" stroke-width=".521" d="M.606 27.892a22.441 22.441 0 0 0-.243 2.356 29.424 29.424 0 0 0 .68 9.665 1.568 1.568 0 0 0 .219.519 1.223 1.223 0 0 0 .5.369 2.453 2.453 0 0 0 2.1-.055 2.481 2.481 0 0 0 1.271-1.685 4.593 4.593 0 0 0 .05-1.086c-.152-3.906-1.024-7.858-.216-11.68a8.788 8.788 0 0 1 .415-2.471c.243-.465.962-1.7 1.541-1.793-1.928.311-4.1.886-5.192 2.659a8.849 8.849 0 0 0-1.125 3.202Z" data-name="Path 840"></path><path fill="#441090" d="M24.469 105.894c-.083.066-.188-.112-.362-.112a4.374 4.374 0 0 0-1.558.085 15.956 15.956 0 0 1-2.228.081c-1.125-.039-2.237-.232-3.361-.267a4.51 4.51 0 0 0-1.891.184 6.226 6.226 0 0 0-.664.439 4.213 4.213 0 0 0-.693.525 4.12 4.12 0 0 0-.561.727 11.98 11.98 0 0 0-.6 1.043c-.1.186-.188.376-.277.567-.044.095-.18.31-.275.1-.031-.07-.028-.156-.076-.216a4.027 4.027 0 0 0-.227 1.78 3.877 3.877 0 0 0 .359 1.627 2.8 2.8 0 0 0 2.755 1.53 4.891 4.891 0 0 0 2.35-1.082 5.862 5.862 0 0 1 2.887-1.232c.674-.082 1.357-.109 2.022-.255a5.986 5.986 0 0 0 1.81-.822 3.911 3.911 0 0 0 1.723-2.515 3.269 3.269 0 0 0-1.032-3.016 2.315 2.315 0 0 1-.038.719.236.236 0 0 1-.061.111" data-name="Path 841"></path><path fill="#441090" d="M25.282 107.451a3.091 3.091 0 0 1-1.408 1.955 5.927 5.927 0 0 1-1.808.823c-.666.148-1.348.172-2.019.255a5.911 5.911 0 0 0-2.892 1.232 4.925 4.925 0 0 1-2.349 1.084 2.844 2.844 0 0 1-3.056-3.145 5.5 5.5 0 0 1 .523-1.677 12.775 12.775 0 0 1 .878-1.606 3.98 3.98 0 0 1 .559-.729 4.035 4.035 0 0 1 .7-.527 6.143 6.143 0 0 1 .665-.439 4.537 4.537 0 0 1 1.89-.183c.365.011.725.041 1.084.071.76.071 1.519.172 2.279.2.412.017.819.012 1.231-.006.33-.011.666-.041.995-.077a2.91 2.91 0 0 1 1.956.089 1.52 1.52 0 0 1 .489.58 3.061 3.061 0 0 1 .288 2.1" data-name="Path 842"></path><path fill="#441090" d="M21.479 105.048a.743.743 0 0 0-.522-.256c-.211-.024-.422-.024-.634-.031-.76-.024-1.519-.124-2.279-.2a1.011 1.011 0 0 0-.177.2.424.424 0 0 0-.029.51.332.332 0 0 0 .323.095c.177-.006.36.011.542.011q.831 0 1.661-.035c.253-.012.506 0 .76-.02a2.26 2.26 0 0 0 .362-.044c.15-.034.079-.145-.007-.237" data-name="Path 843"></path><path fill="#441090" d="M22.356 110.153c-.094.03-.194.053-.288.077-.666.148-1.348.172-2.02.254a5.909 5.909 0 0 0-2.891 1.233 4.934 4.934 0 0 1-2.349 1.084 2.8 2.8 0 0 1-2.756-1.529 2.838 2.838 0 0 1-.3-1.618 5.513 5.513 0 0 1 .524-1.677c.153-.331.318-.657.5-.972a4.535 4.535 0 0 1 .841-.095c.607-.005 1.2.113 1.809.095a3.962 3.962 0 0 0 1.519-.355 4.473 4.473 0 0 1 2.213-.764 22.426 22.426 0 0 0 2.891-.124.946.946 0 0 1 .224.011.64.64 0 0 1 .242.172 2.559 2.559 0 0 1 .494 1.677 3.818 3.818 0 0 1-.653 2.53" data-name="Path 844"></path><path fill="#441090" d="M21.345 106.352c-.155.045-.205-.243-.268-.352a1.848 1.848 0 0 0-.853-.763c-.124-.055-.268-.062-.39-.118a.135.135 0 0 1-.037-.222c.093-.107.2-.066.319-.03a2.158 2.158 0 0 1 .771.425 2.129 2.129 0 0 1 .422.492c.086.138.282.413.086.544a.192.192 0 0 1-.051.025" data-name="Path 845"></path><path fill="#441090" d="M20 106.522c-.156.045-.207-.243-.268-.352a1.857 1.857 0 0 0-.854-.763c-.123-.055-.267-.062-.388-.118a.135.135 0 0 1-.038-.222c.093-.107.2-.067.319-.03a2.15 2.15 0 0 1 .771.425 2.081 2.081 0 0 1 .422.492c.086.138.283.414.086.544a.161.161 0 0 1-.05.025" data-name="Path 846"></path><path fill="#441090" d="M8.939 99.658a12.039 12.039 0 0 0-4.615 2.7 8.132 8.132 0 0 0-.862.968c-.1.135-.571.819-.462.219a.4.4 0 0 0-.227.247 4.842 4.842 0 0 0-.366 2.87 1.742 1.742 0 0 0 .388.876c.83.9 2.436.6 3.343.042a6.572 6.572 0 0 0 1.575-1.415 4.259 4.259 0 0 1 1.618-1.108c1.282-.586 2.652-.955 3.924-1.567a3.962 3.962 0 0 0 1.354-.954 1.77 1.77 0 0 0 .418-1.555 2.226 2.226 0 0 0-1.494-1.332 7.145 7.145 0 0 0-4.6.012" data-name="Path 847"></path><path fill="#441090" d="M14.611 101.4a3.765 3.765 0 0 1-1.313.93v.006c-.012.006-.03.012-.042.017-1.272.611-2.644.983-3.922 1.571a4.165 4.165 0 0 0-1.619 1.108 6.641 6.641 0 0 1-1.577 1.41c-.907.556-2.509.865-3.339-.042a1.641 1.641 0 0 1-.388-.876 4.723 4.723 0 0 1 1.372-3.727c.176-.208.359-.4.542-.575a12.058 12.058 0 0 1 4.616-2.7 7.139 7.139 0 0 1 4.593-.011 2.207 2.207 0 0 1 1.5 1.333 1.76 1.76 0 0 1-.418 1.552" data-name="Path 848"></path><path fill="#441090" d="M13.3 102.326v.006c-.012.006-.03.011-.041.017-1.273.61-2.644.983-3.922 1.57a4.163 4.163 0 0 0-1.619 1.109 6.661 6.661 0 0 1-1.579 1.409c-.907.558-2.509.865-3.339-.041a1.649 1.649 0 0 1-.388-.876 4.727 4.727 0 0 1 1.372-3.727 4.9 4.9 0 0 1 1.054-.249 8.919 8.919 0 0 0 1.908-.225c.76-.266 1.361-.854 2.132-1.114.825-.285 1.661-.533 2.485-.805a.831.831 0 0 1 .294-.06.763.763 0 0 1 .465.243 3.783 3.783 0 0 1 1.037 1.926 7.579 7.579 0 0 1 .141.818" data-name="Path 849"></path><path fill="#6a3ab5" d="M11.294 55.074a2.42 2.42 0 0 0-.769-.778 7.777 7.777 0 0 1-2.387-3.141 7.527 7.527 0 0 0-1.465-2.525c-.413-.447-1.2-1.961-.494-2.5a8.9 8.9 0 0 0-2.666 4.386A19.9 19.9 0 0 0 2.24 59.87a15.952 15.952 0 0 0 .34 1.724 4.9 4.9 0 0 1 .286 1.323c-.174 4.644.332 9.359.575 14v.067a9.31 9.31 0 0 0-.51 1.686 50.286 50.286 0 0 0-1.055 6.99q-.156 2.015-.126 4.037c.024 1.389.119 2.774.213 4.16.184 2.7.7 9.157.74 9.7a4.762 4.762 0 0 0 3.576.258 6.015 6.015 0 0 0 2.936-2.129c.576-.759.2-1.63.172-2.485a82.5 82.5 0 0 1 .052-11.991c.445-3.959 1.746-7.822 1.76-11.806-.147.217-.313.487-.5.767l.717-20.093a2.118 2.118 0 0 0-.127-1" data-name="Path 850"></path><path fill="none" stroke="#6a3ab5" stroke-miterlimit="10" stroke-width=".521" d="M11.294 55.074a2.42 2.42 0 0 0-.769-.778 7.777 7.777 0 0 1-2.387-3.141 7.527 7.527 0 0 0-1.465-2.525c-.413-.447-1.2-1.961-.494-2.5a8.9 8.9 0 0 0-2.666 4.386A19.9 19.9 0 0 0 2.24 59.87a15.952 15.952 0 0 0 .34 1.724 4.9 4.9 0 0 1 .286 1.323c-.174 4.644.332 9.359.575 14v.067a9.31 9.31 0 0 0-.51 1.686 50.286 50.286 0 0 0-1.055 6.99q-.156 2.015-.126 4.037c.024 1.389.119 2.774.213 4.16.184 2.7.7 9.157.74 9.7a4.762 4.762 0 0 0 3.576.258 6.015 6.015 0 0 0 2.936-2.129c.576-.759.2-1.63.172-2.485a82.5 82.5 0 0 1 .052-11.991c.445-3.959 1.746-7.822 1.76-11.806-.147.217-.313.487-.5.767l.717-20.093a2.118 2.118 0 0 0-.122-1.004Z" data-name="Path 851"></path><path fill="#6a3ab5" d="M20.7 66.6c.165-3.424.425-6.885.254-10.308a30.945 30.945 0 0 0-.644-4.892 3.49 3.49 0 0 1-1.595 1.134 6.884 6.884 0 0 1-1.715.922 4.309 4.309 0 0 1-3.131-.572 19.4 19.4 0 0 0-2.7-1.825c-.736-.288-1.647-.7-2.224-.007a17.415 17.415 0 0 0-1.217 1.641 12.5 12.5 0 0 0-2.392 7.226A11.634 11.634 0 0 0 7.97 66.75a4.895 4.895 0 0 1 1.337 2.631q.951 6.693 1.378 13.447c.006.089.011.18.018.269.007 2.257.05 4.513.094 6.769.047 2.375.093 4.751.23 7.123.147 2.562.407 5.116.7 7.665q.109.957.221 1.912c.111.959-.066 1.836 1.012 2.21a5.289 5.289 0 0 0 5.079-.607 4.422 4.422 0 0 0 .837-.928 2.8 2.8 0 0 0 .166-1.81 19.806 19.806 0 0 1-.084-2.161q.069-1.81.153-3.621c.165-3.595.349-7.19.533-10.784q.293-5.744.583-11.488c.15-3.034.3-6.069.406-9.105.019-.558.044-1.116.071-1.676" data-name="Path 852"></path><path fill="none" stroke="#6a3ab5" stroke-miterlimit="10" stroke-width=".521" d="M20.7 66.6c.165-3.424.425-6.885.254-10.308a30.945 30.945 0 0 0-.644-4.892 3.49 3.49 0 0 1-1.595 1.134 6.884 6.884 0 0 1-1.715.922 4.309 4.309 0 0 1-3.131-.572 19.4 19.4 0 0 0-2.7-1.825c-.736-.288-1.647-.7-2.224-.007a17.415 17.415 0 0 0-1.217 1.641 12.5 12.5 0 0 0-2.392 7.226A11.634 11.634 0 0 0 7.97 66.75a4.895 4.895 0 0 1 1.337 2.631q.951 6.693 1.378 13.447c.006.089.011.18.018.269.007 2.257.05 4.513.094 6.769.047 2.375.093 4.751.23 7.123.147 2.562.407 5.116.7 7.665q.109.957.221 1.912c.111.959-.066 1.836 1.012 2.21a5.289 5.289 0 0 0 5.079-.607 4.422 4.422 0 0 0 .837-.928 2.8 2.8 0 0 0 .166-1.81 19.806 19.806 0 0 1-.084-2.161q.069-1.81.153-3.621c.165-3.595.349-7.19.533-10.784q.293-5.744.583-11.488c.15-3.034.3-6.069.406-9.105.015-.555.04-1.114.067-1.672Z" data-name="Path 853"></path><path fill="#6034a3" d="M22.447 30.843a6.89 6.89 0 0 0-.052-.206 4.522 4.522 0 0 0-1.095-2.372 18.688 18.688 0 0 0-2.323-1.625 65.133 65.133 0 0 1-5.723-4.057 4.8 4.8 0 0 0-3.733-1.217 16.14 16.14 0 0 0-4.508 1.157 5.854 5.854 0 0 0-2.9 2.3c-.872 1.415-.886 3.446-.848 5.054.05 2.118.319 4.221.462 6.334.243 3.611-.2 16.763.214 19.767.083.608.388.743.937 1.014a5.762 5.762 0 0 0 .729.334c.391.13.46.052.547-.322a15.9 15.9 0 0 1 .612-1.704q.307-.855.624-1.705a22.338 22.338 0 0 0-.033 4.175.842.842 0 0 0 .043.23.654.654 0 0 0 .14.207 3.017 3.017 0 0 0 1.588.776 20.967 20.967 0 0 0 2.087.459 21.791 21.791 0 0 0 7.949-.138 27.03 27.03 0 0 0 3.282-.841c.591-.2.816-.186.872-.807.326-3.559.545-7.121.922-10.678a99.163 99.163 0 0 0 .73-10.817 22.785 22.785 0 0 0-.522-5.314" data-name="Path 854"></path><path fill="none" stroke="#6034a3" stroke-miterlimit="10" stroke-width=".521" d="M22.447 30.843a6.89 6.89 0 0 0-.052-.206 4.522 4.522 0 0 0-1.095-2.372 18.688 18.688 0 0 0-2.323-1.625 65.133 65.133 0 0 1-5.723-4.057 4.8 4.8 0 0 0-3.733-1.217 16.14 16.14 0 0 0-4.508 1.157 5.854 5.854 0 0 0-2.9 2.3c-.872 1.415-.886 3.446-.848 5.054.05 2.118.319 4.221.462 6.334.243 3.611-.2 16.763.214 19.767.083.608.388.743.937 1.014a5.762 5.762 0 0 0 .729.334c.391.13.46.052.547-.322a15.9 15.9 0 0 1 .612-1.704q.307-.855.624-1.705a22.338 22.338 0 0 0-.033 4.175.842.842 0 0 0 .043.23.654.654 0 0 0 .14.207 3.017 3.017 0 0 0 1.588.776 20.967 20.967 0 0 0 2.087.459 21.791 21.791 0 0 0 7.949-.138 27.03 27.03 0 0 0 3.282-.841c.591-.2.816-.186.872-.807.326-3.559.545-7.121.922-10.678a99.163 99.163 0 0 0 .73-10.817 22.785 22.785 0 0 0-.523-5.318Z" data-name="Path 855"></path><path fill="#d2d6fc" d="M39.278 42.07a1.58 1.58 0 0 0-.082-.186c-.988-1.9-3.343-1.484-4.884-.631-.376.208-.751.416-1.133.615a26.846 26.846 0 0 1-4.506 1.854 11.557 11.557 0 0 1-1.484.37 2.1 2.1 0 0 1-.724.076c-.167-.041-.309-.2-.456-.29a5.1 5.1 0 0 0-1.376-.561 1.48 1.48 0 0 0-.766-.031 3 3 0 0 0-.512.253 8.836 8.836 0 0 1-1.9.475.9.9 0 0 0-.386.178.367.367 0 0 0-.117.389.5.5 0 0 0 .319.245 2.436 2.436 0 0 0 1.106.125c.076.08-.033.2-.128.254a14.561 14.561 0 0 1-2.33 1.044 2.024 2.024 0 0 0-1.193.744.758.758 0 0 1-.226.318 1.121 1.121 0 0 1-.248.075c-.537.168-.338 1.044.141 1.14a.312.312 0 0 0-.039.326.671.671 0 0 0 .22.262 1.741 1.741 0 0 0 1.279.358.558.558 0 0 0 .2.733 1.414 1.414 0 0 0 .806.185 9.081 9.081 0 0 0 3.33-.624 11.315 11.315 0 0 0 2.791-1.573 8.209 8.209 0 0 1 .954-.681c.747-.417 7.459-1.471 8.387-1.777a5.782 5.782 0 0 0 2.361-1.271 2.442 2.442 0 0 0 .6-2.395" data-name="Path 856"></path><path fill="none" stroke="#6a3ab5" stroke-miterlimit="10" stroke-width=".479" d="M39.278 42.07a1.58 1.58 0 0 0-.082-.186c-.988-1.9-3.343-1.484-4.884-.631-.376.208-.751.416-1.133.615a26.846 26.846 0 0 1-4.506 1.854 11.557 11.557 0 0 1-1.484.37 2.1 2.1 0 0 1-.724.076c-.167-.041-.309-.2-.456-.29a5.1 5.1 0 0 0-1.376-.561 1.48 1.48 0 0 0-.766-.031 3 3 0 0 0-.512.253 8.836 8.836 0 0 1-1.9.475.9.9 0 0 0-.386.178.367.367 0 0 0-.117.389.5.5 0 0 0 .319.245 2.436 2.436 0 0 0 1.106.125c.076.08-.033.2-.128.254a14.561 14.561 0 0 1-2.33 1.044 2.024 2.024 0 0 0-1.193.744.758.758 0 0 1-.226.318 1.121 1.121 0 0 1-.248.075c-.537.168-.338 1.044.141 1.14a.312.312 0 0 0-.039.326.671.671 0 0 0 .22.262 1.741 1.741 0 0 0 1.279.358.558.558 0 0 0 .2.733 1.414 1.414 0 0 0 .806.185 9.081 9.081 0 0 0 3.33-.624 11.315 11.315 0 0 0 2.791-1.573 8.209 8.209 0 0 1 .954-.681c.747-.417 7.459-1.471 8.387-1.777a5.782 5.782 0 0 0 2.361-1.271 2.442 2.442 0 0 0 .596-2.394Z" data-name="Path 857"></path><path fill="#fff" d="M14.54 21.453a6.808 6.808 0 0 0-1.616-.3c-.4-.024-.811-.011-1.217-.033A7.172 7.172 0 0 1 10 20.816c-.371-.115-1.03-.186-.99-.668a.38.38 0 0 0-.346.256 1.766 1.766 0 0 0-.06.461 1.486 1.486 0 0 1-.154.414 1.845 1.845 0 0 0-.237.583c-.041.359.312.548.582.692 1.083.578 2.381.474 3.593.662a7.316 7.316 0 0 1 1.566.428 14.4 14.4 0 0 1 1.6.871 10.356 10.356 0 0 1 1.568 1.018c-.064-.056.027-.607.028-.7a4.575 4.575 0 0 0-.019-1.128 2.493 2.493 0 0 0-.229-.721 2.693 2.693 0 0 0-1.072-.983 6.731 6.731 0 0 0-1.285-.552" data-name="Path 858"></path><path fill="none" stroke="#6a3ab5" stroke-miterlimit="10" stroke-width=".479" d="M14.54 21.453a6.808 6.808 0 0 0-1.616-.3c-.4-.024-.811-.011-1.217-.033A7.172 7.172 0 0 1 10 20.816c-.371-.115-1.03-.186-.99-.668a.38.38 0 0 0-.346.256 1.766 1.766 0 0 0-.06.461 1.486 1.486 0 0 1-.154.414 1.845 1.845 0 0 0-.237.583c-.041.359.312.548.582.692 1.083.578 2.381.474 3.593.662a7.316 7.316 0 0 1 1.566.428 14.4 14.4 0 0 1 1.6.871 10.356 10.356 0 0 1 1.568 1.018c-.064-.056.027-.607.028-.7a4.575 4.575 0 0 0-.019-1.128 2.493 2.493 0 0 0-.229-.721 2.693 2.693 0 0 0-1.072-.983 6.731 6.731 0 0 0-1.29-.548Z" data-name="Path 859"></path><path fill="#441090" d="M7.915 16.128a5.9 5.9 0 0 0 1.685 2.73 3.731 3.731 0 0 0 2.991.933 4.727 4.727 0 0 0 2.225-1.164 3.451 3.451 0 0 0 .609-.638 4.2 4.2 0 0 0 .311-.565l.738-1.518a4.1 4.1 0 0 1 .653-1.054 2.026 2.026 0 0 1 1.383-.62.452.452 0 0 0 .256-.055.421.421 0 0 0 .129-.237 11.449 11.449 0 0 0 .635-3.292 7.053 7.053 0 0 0-.818-3.194 1.572 1.572 0 0 1-.254.564.535.535 0 0 1-.546.206c-.193-.06-.309-.253-.466-.382-.3-.244-.43-.02-.6.181a3.689 3.689 0 0 1-.855.653 7.514 7.514 0 0 1-1.958.819c-1.254.344-2.559.463-3.827.755a4.5 4.5 0 0 0-1.844.781c-1.455 1.167-.916 3.584-.443 5.1" data-name="Path 860"></path><path fill="#441090" d="M20.4 8.272a1.455 1.455 0 0 0 .2-1.672 3.151 3.151 0 0 0-1.173-1.387 7.453 7.453 0 0 0-2.366-.882 9.278 9.278 0 0 0-2.882-.243A10.207 10.207 0 0 0 10.5 5.133a8.261 8.261 0 0 0-2.959 2.326 5.806 5.806 0 0 0-.853 1.526c-.015.04-.031.081-.044.121-.56 1.641-.268 4.2 1.568 4.912a4.883 4.883 0 0 0 3.084 0 8.631 8.631 0 0 0 4.067-2.559A22.63 22.63 0 0 1 16.91 9.67a3.148 3.148 0 0 1 2.072-.911 2.79 2.79 0 0 0 .964-.173 1.243 1.243 0 0 0 .451-.312" data-name="Path 861"></path><path fill="#d2d6fc" d="M36.788 45.988a1.967 1.967 0 0 1 .382-.532 1.324 1.324 0 0 1 .556-.183 3.842 3.842 0 0 0 2.06-1.151c.059-.064.135-.136.219-.114a.2.2 0 0 1 .108.091.919.919 0 0 1-.051.957 6.084 6.084 0 0 1-.646.774c-.083.1-.21.207-.06.33a.418.418 0 0 0 .266.07c.15 0 .3-.015.449 0a.605.605 0 0 1 .4.18.886.886 0 0 1 .041.813.476.476 0 0 0-.017.277.7.7 0 0 0 .074.133 1.2 1.2 0 0 1-.022 1.091.806.806 0 0 0-.1.34.98.98 0 0 0 .048.214 1.7 1.7 0 0 1-.479 1.532.414.414 0 0 0-.079.1.626.626 0 0 0-.029.2.759.759 0 0 1-.279.465 1.811 1.811 0 0 1-1.343.407 2.533 2.533 0 0 1-.977-.307c-.271-.147-.437-.391-.705-.538a7.172 7.172 0 0 0-1.321-.314.13.13 0 0 1-.08-.051.134.134 0 0 1 0-.1 2.7 2.7 0 0 0 .087-.827 7.426 7.426 0 0 0-.545-1.618c-.175-.545-.11-1.15.514-1.26a2.568 2.568 0 0 0 1.534-.98" data-name="Path 862"></path><path fill="none" stroke="#6a3ab5" stroke-miterlimit="10" stroke-width=".479" d="M36.788 45.988a1.967 1.967 0 0 1 .382-.532 1.324 1.324 0 0 1 .556-.183 3.842 3.842 0 0 0 2.06-1.151c.059-.064.135-.136.219-.114a.2.2 0 0 1 .108.091.919.919 0 0 1-.051.957 6.084 6.084 0 0 1-.646.774c-.083.1-.21.207-.06.33a.418.418 0 0 0 .266.07c.15 0 .3-.015.449 0a.605.605 0 0 1 .4.18.886.886 0 0 1 .041.813.476.476 0 0 0-.017.277.7.7 0 0 0 .074.133 1.2 1.2 0 0 1-.022 1.091.806.806 0 0 0-.1.34.98.98 0 0 0 .048.214 1.7 1.7 0 0 1-.479 1.532.414.414 0 0 0-.079.1.626.626 0 0 0-.029.2.759.759 0 0 1-.279.465 1.811 1.811 0 0 1-1.343.407 2.533 2.533 0 0 1-.977-.307c-.271-.147-.437-.391-.705-.538a7.172 7.172 0 0 0-1.321-.314.13.13 0 0 1-.08-.051.134.134 0 0 1 0-.1 2.7 2.7 0 0 0 .087-.827 7.426 7.426 0 0 0-.545-1.618c-.175-.545-.11-1.15.514-1.26a2.568 2.568 0 0 0 1.529-.979Z" data-name="Path 863"></path><path fill="#6034a3" d="M36.575 46.857a2.426 2.426 0 0 0-.166-.217.383.383 0 0 0-.157-.123.46.46 0 0 0-.2 0 3.838 3.838 0 0 1-2.061-.545c-.786-.362-1.6-.658-2.393-1a6.019 6.019 0 0 1-3.191-2.621q-.552-1-1.065-2.023-1.012-2.028-1.872-4.113a51.621 51.621 0 0 0-2.776-6.294c-.687-1.191-2.021-2.545-3.34-1.447a5.506 5.506 0 0 0-1.745 4.118 15.46 15.46 0 0 0 2.4 8.374c.713 1.289 1.4 2.6 2.223 3.82a15.078 15.078 0 0 0 1.331 1.728 12.19 12.19 0 0 0 7.153 4.134c1.116.139 2.24.2 3.364.242.557.02 1.116.047 1.674.048.448 0 .669-.388.853-.779a4.073 4.073 0 0 0 .424-1.8 2.792 2.792 0 0 0-.453-1.5" data-name="Path 864"></path><path fill="none" stroke="#6034a3" stroke-miterlimit="10" stroke-width=".521" d="M36.575 46.857a2.426 2.426 0 0 0-.166-.217.383.383 0 0 0-.157-.123.46.46 0 0 0-.2 0 3.838 3.838 0 0 1-2.061-.545c-.786-.362-1.6-.658-2.393-1a6.019 6.019 0 0 1-3.191-2.621q-.552-1-1.065-2.023-1.012-2.028-1.872-4.113a51.621 51.621 0 0 0-2.776-6.294c-.687-1.191-2.021-2.545-3.34-1.447a5.506 5.506 0 0 0-1.745 4.118 15.46 15.46 0 0 0 2.4 8.374c.713 1.289 1.4 2.6 2.223 3.82a15.078 15.078 0 0 0 1.331 1.728 12.19 12.19 0 0 0 7.153 4.134c1.116.139 2.24.2 3.364.242.557.02 1.116.047 1.674.048.448 0 .669-.388.853-.779a4.073 4.073 0 0 0 .424-1.8 2.792 2.792 0 0 0-.456-1.502Z" data-name="Path 865"></path><path fill="#fff" d="M43.987 29.327s.373 3.085.559 3.836c-1.369 2.134-4.8 2.377-6.175 1l-1.123-4.267Z" data-name="Path 866"></path><path fill="none" stroke="#6a3ab5" stroke-miterlimit="10" stroke-width=".521" d="M43.987 29.327s.373 3.085.559 3.836c-1.369 2.134-4.8 2.377-6.175 1l-1.123-4.267Z" data-name="Path 867"></path><path fill="#fff" d="M35.41 26.319a4.974 4.974 0 1 0 4.975-5 4.989 4.989 0 0 0-4.975 5" data-name="Path 868"></path><path fill="none" stroke="#6a3ab5" stroke-miterlimit="10" stroke-width=".479" d="M35.41 26.319a4.974 4.974 0 1 0 4.975-5 4.989 4.989 0 0 0-4.975 5Z" data-name="Path 869"></path></g></g></svg>