<svg xmlns="http://www.w3.org/2000/svg" xmlns:xlink="http://www.w3.org/1999/xlink" data-name="Group 281" viewBox="-1.24 -0.01 64.24 112.01"><defs><clipPath id="c"><path fill="none" d="M0 0h63v112H0z" data-name="Rectangle 51"></path></clipPath><clipPath id="d"><path fill="none" d="M5.286 31.944a.64.64 0 0 0 0 1.218 2.385 2.385 0 0 0 2.136 0 .64.64 0 0 0 0-1.218 2.206 2.206 0 0 0-1.068-.252 2.2 2.2 0 0 0-1.068.252" data-name="Path 771"></path></clipPath><clipPath id="e"><path fill="none" d="M6.174 33.427a.448.448 0 0 0 0 .852 1.667 1.667 0 0 0 1.495 0 .448.448 0 0 0 0-.852 1.667 1.667 0 0 0-1.495 0" data-name="Path 772"></path></clipPath><clipPath id="g"><path fill="none" d="M8.41 34.746a.3.3 0 0 0 0 .564 1.108 1.108 0 0 0 .988 0 .3.3 0 0 0 0-.564 1.1 1.1 0 0 0-.988 0" data-name="Path 773"></path></clipPath><clipPath id="i"><path fill="none" d="M2.874 31.41a.3.3 0 0 0 0 .564 1.108 1.108 0 0 0 .988 0 .3.3 0 0 0 0-.564 1.015 1.015 0 0 0-.494-.117 1.015 1.015 0 0 0-.494.117" data-name="Path 774"></path></clipPath><clipPath id="k"><path fill="none" d="M8.407 30.873c-.251.144-.251.376 0 .518a1.017 1.017 0 0 0 .908 0 .273.273 0 0 0 0-.518 1.021 1.021 0 0 0-.908 0" data-name="Path 775"></path></clipPath><clipPath id="m"><path fill="none" d="M1.551 33.4a.448.448 0 0 0 0 .852 1.669 1.669 0 0 0 1.5 0 .448.448 0 0 0 0-.852 1.539 1.539 0 0 0-.751-.18 1.546 1.546 0 0 0-.748.177" data-name="Path 776"></path></clipPath><clipPath id="o"><path fill="none" d="M3.8 34.022a.288.288 0 0 0 0 .549 1.075 1.075 0 0 0 .961 0c.267-.151.267-.4 0-.549a1.077 1.077 0 0 0-.961 0" data-name="Path 777"></path></clipPath><clipPath id="q"><path fill="none" d="M10.474 31.128a.208.208 0 0 0 0 .4.772.772 0 0 0 .7 0 .208.208 0 0 0 0-.4.72.72 0 0 0-.347-.082.728.728 0 0 0-.349.082" data-name="Path 778"></path></clipPath><clipPath id="s"><path fill="none" d="M8.578 33.323a.209.209 0 0 0 0 .4.778.778 0 0 0 .7 0 .208.208 0 0 0 0-.4.72.72 0 0 0-.347-.082.728.728 0 0 0-.349.082" data-name="Path 779"></path></clipPath><clipPath id="u"><path fill="none" d="M5.571 30.448a.312.312 0 0 0 0 .594 1.168 1.168 0 0 0 1.042 0 .312.312 0 0 0 0-.594 1.16 1.16 0 0 0-1.042 0" data-name="Path 780"></path></clipPath><clipPath id="w"><path fill="none" d="M3.615 32.817c-.141.08-.141.21 0 .289a.561.561 0 0 0 .508 0c.141-.079.141-.209 0-.289a.567.567 0 0 0-.508 0" data-name="Path 781"></path></clipPath><clipPath id="y"><path fill="none" d="M10.119 32.644c-.414.235-.414.616 0 .852a1.673 1.673 0 0 0 1.495 0 .448.448 0 0 0 0-.852 1.667 1.667 0 0 0-1.495 0" data-name="Path 782"></path></clipPath><clipPath id="A"><path fill="none" d="M6.749 24.468a2.244 2.244 0 0 1 .029.34.267.267 0 0 0-.066.01.826.826 0 0 0-.076-.313c-.06-.146-.241-.065-.229.079 0 .026 0 .051.008.078a.253.253 0 0 0-.178.274.216.216 0 0 0 0 .025c-.049-.071-.1-.142-.143-.21-.141-.22-.407-.017-.377.205a.177.177 0 0 0-.107-.024 1.627 1.627 0 0 0-.072-.281.12.12 0 0 0-.231.044 1.166 1.166 0 0 0 .053.437c-.015-.017-.032-.033-.046-.05a.223.223 0 0 0-.326.3c.058.069.116.149.175.226l-.011.008a1.123 1.123 0 0 0-.044-.053c-.172-.208-.455 0-.416.215l-.062-.065a.207.207 0 0 0-.332.023 1.046 1.046 0 0 0-.08-.394c-.046-.148-.247-.063-.228.079a1.291 1.291 0 0 0 .057.316.125.125 0 0 0-.155.053l-.019-.027c-.164-.2-.427-.013-.4.2a.168.168 0 0 0-.019-.019 1.208 1.208 0 0 0-.044-.16c-.048-.142-.248-.064-.225.078a.283.283 0 0 0 .007.03.212.212 0 0 0-.046.028.164.164 0 0 0-.031.04c-.048-.079-.1-.156-.143-.232-.072-.122-.264.013-.195.137.042.076.082.156.125.236a.238.238 0 0 0-.152.425.57.57 0 0 1 .043.041l-.045-.023a.2.2 0 0 0-.162.017.952.952 0 0 0-.236-.261c-.112-.106-.28.1-.174.209a.818.818 0 0 0 .277.246.229.229 0 0 0 .006.068c-.04-.013-.081-.029-.12-.038a.228.228 0 0 0-.146.428 1.769 1.769 0 0 1 .2.107.276.276 0 0 0-.059.141l-.09-.076a.206.206 0 0 0-.293.043l-.133-.218c-.09-.15-.28-.079-.349.051-.131-.15-.4.017-.313.245l.049.131a1.086 1.086 0 0 0-.391-.135c-.16-.026-.231.118-.21.25a.451.451 0 0 0-.221.029c-.1.044-.068.184.01.227a.536.536 0 0 0 .333.033.26.26 0 0 0 .114.3.121.121 0 0 0-.042.04c-.083-.007-.164-.013-.245-.022-.234-.022-.26.325-.058.4a.459.459 0 0 1-.016.059.28.28 0 0 0-.357.011.141.141 0 0 0 .008.209.28.28 0 0 0 .357-.028.109.109 0 0 0 .025-.039.2.2 0 0 0 .06.074.212.212 0 0 0 .075.191.284.284 0 0 0-.115.118.236.236 0 0 0 .024.27c-.049.013-.1.022-.152.036a.141.141 0 0 0-.021.262.287.287 0 0 0 .221.01.281.281 0 0 0 0 .064.331.331 0 0 0-.163.082.222.222 0 0 0-.043.262.169.169 0 0 0-.021 0 .171.171 0 0 0-.083.075.293.293 0 0 0-.169-.084c-.1-.012-.159.122-.1.207a.3.3 0 0 0 .179.125.119.119 0 0 0 .081-.008.229.229 0 0 0 .026.053.422.422 0 0 0-.205.045.227.227 0 0 0-.106.2v.01a.2.2 0 0 0 .08.161.44.44 0 0 0 .193.074.413.413 0 0 0-.139.111.213.213 0 0 0 .088.31.273.273 0 0 0 .073.011c-.039.026-.082.038-.121.064a.127.127 0 0 0 .008.223.211.211 0 0 0 .242-.062.187.187 0 0 0 .068.087c-.011.016-.023.03-.034.049a.251.251 0 0 0 .012.235.408.408 0 0 0-.157.178.207.207 0 0 0 .017.182l-.011.008a.218.218 0 0 0-.027.262.229.229 0 0 0 .019.341.777.777 0 0 0 .071.035.245.245 0 0 0-.018.326.218.218 0 0 0 .036.289.609.609 0 0 0 .381.1c0 .007-.008.01-.011.017a.206.206 0 0 0 .155.274.348.348 0 0 0 .211-.042.19.19 0 0 0 .151.183.31.31 0 0 0 .072 0 .2.2 0 0 0 .207.25.467.467 0 0 0-.07.068.13.13 0 0 0 .052.186.21.21 0 0 0 .242-.083c.007 0 .011.006.016.006a1.364 1.364 0 0 0-.165.24c-.055.113.03.236.145.189a.5.5 0 0 0 .219-.208.2.2 0 0 0 .193.091.189.189 0 0 0 .326.114v.01a.171.171 0 0 0 .305.029.5.5 0 0 0 .085-.208.659.659 0 0 0 .1.379c.091.127.244.064.3-.058a.411.411 0 0 0 .033-.131.165.165 0 0 0 .143-.076.367.367 0 0 0 .014-.034.169.169 0 0 0 .265.012.189.189 0 0 0 .363-.069v-.02a.149.149 0 0 0 .046.017s-.008.007-.01.012a.633.633 0 0 0-.117.4.111.111 0 0 0 .183.072.619.619 0 0 0 .14-.393.125.125 0 0 0-.053-.114.29.29 0 0 0 .038-.021.2.2 0 0 0 .077.086.443.443 0 0 0-.028.078c-.031.147.086.321.235.237a.6.6 0 0 0 .195-.2l.025.032a.551.551 0 0 0-.068.078.2.2 0 0 0 .081.286.259.259 0 0 0 .113.01c0 .01-.01.018-.013.028-.055.164.125.345.258.255.044.11.175.186.266.08a.881.881 0 0 0 .132-.216.389.389 0 0 0 .065.12.178.178 0 0 0 .3-.014.372.372 0 0 0 .027-.08 1.688 1.688 0 0 0 .067.162.194.194 0 0 0 .365-.126c0-.014-.007-.028-.01-.042a.161.161 0 0 0 .05.01c0 .072.088.359.2.362.061 0 .113-.19.087-.35a.38.38 0 0 0-.01-.056l-.008-.029a.175.175 0 0 0 .084.02.2.2 0 0 0 .323.171.34.34 0 0 0 .05-.054c0 .042.044.525.158.447s.122-.246.134-.392c.019.144.176.256.292.15a.164.164 0 0 0 .26.063.342.342 0 0 0 .082-.1.179.179 0 0 0 .255.146.6.6 0 0 0 .029.126c.066.172.268.126.333-.016a.583.583 0 0 0 .039-.23.166.166 0 0 0 .225-.112.6.6 0 0 0 .011-.2.19.19 0 0 0 .194.025.1.1 0 0 0 .088.029l.021-.006a.091.091 0 0 0 .065-.082.124.124 0 0 0 .107-.184c-.006-.011-.012-.018-.016-.028a.1.1 0 0 0 .013-.023.12.12 0 0 0 .033-.023.383.383 0 0 0 .016.074.1.1 0 0 0 .182.017.424.424 0 0 0 .03-.059.151.151 0 0 0 .059.012.253.253 0 0 0-.039.246.1.1 0 0 0 .156.037.268.268 0 0 0 .051-.075.118.118 0 0 0 .091.01.428.428 0 0 0 .112.285.107.107 0 0 0 .157-.03.262.262 0 0 0 .03-.075.348.348 0 0 0 .069.21.1.1 0 0 0 .182-.035.382.382 0 0 0 0-.256.214.214 0 0 0 .068.031.108.108 0 0 0 .112-.076.263.263 0 0 0-.012-.187.1.1 0 0 0 .155-.117.191.191 0 0 0 .068-.069.345.345 0 0 0 .115.143c.083.058.182-.032.143-.133a.41.41 0 0 0-.09-.137.153.153 0 0 0 .013-.133.178.178 0 0 0 .084-.082.183.183 0 0 0 .111-.053.057.057 0 0 0 .006.022.416.416 0 0 0 .22.249.129.129 0 0 0 .164-.15.444.444 0 0 0-.182-.284.107.107 0 0 0-.09-.027.271.271 0 0 0-.024-.1.108.108 0 0 0 .09.02.141.141 0 0 0 .089-.205.181.181 0 0 0 .051-.042.2.2 0 0 0 .284-.162.353.353 0 0 0 0-.064.183.183 0 0 0 .221-.091.44.44 0 0 0 .017.072.152.152 0 1 0 .3-.056v-.012a.148.148 0 0 0 0-.065c0-.017-.009-.035-.013-.052a.176.176 0 0 0-.057-.091.179.179 0 0 0 .156-.205.187.187 0 0 0 .2-.12c.046.041.1.077.144.121a.089.089 0 0 0 .11.012.206.206 0 0 0 .24-.248 1.174 1.174 0 0 0-.106-.267.229.229 0 0 0 .1-.407l-.012-.009a.267.267 0 0 0-.083-.467 1.131 1.131 0 0 0-.076-.015.239.239 0 0 0-.013-.218h.021a.235.235 0 0 0 .1-.392.592.592 0 0 1 .1-.017c.123-.007.111-.194.02-.24a.538.538 0 0 0-.143-.046.207.207 0 0 0-.078-.23.459.459 0 0 0-.122-.065.189.189 0 0 0 .11-.113.407.407 0 0 0 .309.012c.055-.021.056-.1.028-.141a.427.427 0 0 0-.329-.181.189.189 0 0 0 .141-.175.42.42 0 0 0-.037-.2.172.172 0 0 0 .062-.006.186.186 0 0 0 .143-.169.3.3 0 0 0-.1-.246.231.231 0 0 0-.008-.363l.063-.032c.157-.091.138-.4-.064-.4a1.051 1.051 0 0 0-.144 0 .794.794 0 0 0 .1-.049.251.251 0 0 0 .037-.384c.038-.018.075-.036.114-.052.022-.007.044-.012.069-.022l.016-.011a.106.106 0 0 0 .017-.2.484.484 0 0 0-.073-.015.326.326 0 0 0-.33.135.117.117 0 0 0-.011.122h-.05c.017-.141-.1-.3-.238-.235a.1.1 0 0 0 .018-.016.068.068 0 0 0 .011-.014.105.105 0 0 0 .039.015.458.458 0 0 0 .288-.115c.14-.09.044-.328-.11-.255a.843.843 0 0 0-.193.108.256.256 0 0 0-.028-.041 1.688 1.688 0 0 0 .089-.131.116.116 0 0 0-.134-.178c.034-.093-.052-.216-.144-.156a.53.53 0 0 0-.232.245.245.245 0 0 0-.146-.123c.029-.026.057-.052.082-.077a.122.122 0 0 0-.09-.21.461.461 0 0 0-.271.127.191.191 0 0 0-.136-.109h-.012c.012-.01.024-.019.034-.029a.225.225 0 0 0-.027-.34.635.635 0 0 0 .339-.057c.114-.042.078-.256-.039-.256a.524.524 0 0 0-.387.1.121.121 0 0 0 .015.183.194.194 0 0 0-.058 0c-.016 0-.033.008-.049.01s-.014-.018-.021-.028a.274.274 0 0 0 .079-.257 2.5 2.5 0 0 0 .119-.033c.132-.04.14-.258-.009-.274-.042 0-.085-.009-.126-.01a.261.261 0 0 0-.009-.072.294.294 0 0 0 .045-.012c.013 0 .019-.017.029-.027a.122.122 0 0 0 .028.027.517.517 0 0 0 .328.018c.141-.024.118-.235-.009-.261a.5.5 0 0 0-.328.012c-.011.006-.015.016-.023.024a.082.082 0 0 0-.063-.029c-.025 0-.044 0-.065.007a.193.193 0 0 0-.1-.252.464.464 0 0 0-.319.023.248.248 0 0 0 .065-.158.243.243 0 0 0-.089-.212l-.018-.01a.2.2 0 0 0-.217-.022 1.217 1.217 0 0 0-.228.226.237.237 0 0 0-.023-.17.789.789 0 0 0 .331-.218c.09-.09.027-.3-.109-.256a.641.641 0 0 0-.425.3.119.119 0 0 0-.007.048.2.2 0 0 0-.032.009.642.642 0 0 0 .068-.191c.036-.179-.2-.206-.265-.067a.166.166 0 0 1-.016.027.219.219 0 0 0-.157-.033l.016-.013a.137.137 0 0 0-.1-.238.557.557 0 0 0-.318.115c.039-.032-.05-.15-.074-.173a.175.175 0 0 0-.209-.039l-.021.012a.237.237 0 0 0-.194-.041 1.338 1.338 0 0 0 .11-.182c.074-.144-.091-.27-.19-.146l-.056.07a.154.154 0 0 0-.221.023.246.246 0 0 0-.05-.036.208.208 0 0 0-.251.077c0-.021 0-.044.006-.064a.189.189 0 0 0-.139-.206c-.2-.068-.329.286-.352.423a1.113 1.113 0 0 0-.061-.206.165.165 0 0 0-.311.013 1.088 1.088 0 0 0-.068.364 1.422 1.422 0 0 0-.109-.427.18.18 0 0 0-.346.067 1.477 1.477 0 0 0-.009.185.224.224 0 0 0-.078.055h-.023a.237.237 0 0 0-.086-.065 1.067 1.067 0 0 0-.037-.4.129.129 0 0 0-.127-.1.116.116 0 0 0-.114.15" data-name="Path 783"></path></clipPath><clipPath id="C"><path fill="none" d="M0 29.154h13.515v7.288H0z" data-name="Rectangle 46"></path></clipPath><clipPath id="D"><path fill="none" d="M.364 33.558a.243.243 0 0 1 .018-.325.617.617 0 0 1-.071-.033.229.229 0 0 1-.019-.341.217.217 0 0 1 .028-.262l.01-.008a.207.207 0 0 1-.018-.189.42.42 0 0 1 .157-.178.248.248 0 0 1-.011-.235.264.264 0 0 1 .034-.049.183.183 0 0 1-.069-.087.212.212 0 0 1-.242.062.128.128 0 0 1-.008-.224c.039-.024.083-.037.121-.063a.332.332 0 0 1-.074-.01.215.215 0 0 1-.088-.31.446.446 0 0 1 .14-.113.424.424 0 0 1-.193-.073.223.223 0 0 1 .029-.362.413.413 0 0 1 .205-.045.229.229 0 0 1-.026-.053.119.119 0 0 1-.081.008.3.3 0 0 1-.179-.125c-.06-.086 0-.22.1-.207a.293.293 0 0 1 .169.084.186.186 0 0 1 .071-.065.748.748 0 0 0 .283.058c0 .006-.008.01-.011.016a.206.206 0 0 0 .156.274.347.347 0 0 0 .21-.042.191.191 0 0 0 .152.184.255.255 0 0 0 .071 0 .2.2 0 0 0 .207.25.474.474 0 0 0-.07.068.129.129 0 0 0 .053.186.21.21 0 0 0 .242-.088l.016.006a1.347 1.347 0 0 0-.166.239c-.055.114.03.237.145.19a.5.5 0 0 0 .218-.209.2.2 0 0 0 .194.092.189.189 0 0 0 .326.113v.01a.172.172 0 0 0 .305.029.458.458 0 0 0 .082-.207.664.664 0 0 0 .1.379c.091.127.245.063.3-.058a.371.371 0 0 0 .033-.131.163.163 0 0 0 .143-.077.2.2 0 0 0 .014-.033.166.166 0 0 0 .264.009A.189.189 0 0 0 4 31.55v-.019a.159.159 0 0 0 .046.017l-.01.011a.63.63 0 0 0-.117.4.111.111 0 0 0 .183.073.617.617 0 0 0 .14-.393.125.125 0 0 0-.042-.109.248.248 0 0 0 .037-.022.2.2 0 0 0 .077.087.43.43 0 0 0-.027.077c-.032.147.085.321.234.237a.592.592 0 0 0 .195-.2l.026.032a.549.549 0 0 0-.069.077.2.2 0 0 0 .081.287.244.244 0 0 0 .113.01c0 .01-.009.018-.013.029-.055.164.125.344.258.254.044.111.175.187.266.081a.874.874 0 0 0 .132-.217.389.389 0 0 0 .065.12.179.179 0 0 0 .3-.013.531.531 0 0 0 .027-.081 1.2 1.2 0 0 0 .067.162.193.193 0 0 0 .364-.126c0-.013-.006-.027-.009-.041a.145.145 0 0 0 .049.01c0 .072.089.358.2.361.061 0 .113-.189.087-.349a.526.526 0 0 0-.011-.056l-.007-.03a.163.163 0 0 0 .083.021.2.2 0 0 0 .324.17.373.373 0 0 0 .049-.053c0 .042.044.524.158.446s.122-.245.133-.391c.019.143.176.255.292.149a.165.165 0 0 0 .261.064.388.388 0 0 0 .081-.1.179.179 0 0 0 .256.146.538.538 0 0 0 .028.125c.066.173.269.126.333-.015a.566.566 0 0 0 .039-.23.166.166 0 0 0 .225-.112.553.553 0 0 0 .011-.2.2.2 0 0 0 .194.025.1.1 0 0 0 .088.029h.021a.091.091 0 0 0 .065-.082.124.124 0 0 0 .107-.185c-.012-.026-.017-.026-.022-.039a.084.084 0 0 0 .013-.022.124.124 0 0 0 .033-.024.449.449 0 0 0 .016.074.1.1 0 0 0 .182.017.256.256 0 0 0 .03-.058.159.159 0 0 0 .059.012.257.257 0 0 0-.039.245.1.1 0 0 0 .156.038.29.29 0 0 0 .048-.079.118.118 0 0 0 .091.01.422.422 0 0 0 .113.285.107.107 0 0 0 .157-.029.3.3 0 0 0 .029-.076.362.362 0 0 0 .069.211.1.1 0 0 0 .182-.035.382.382 0 0 0 0-.256.19.19 0 0 0 .067.03.108.108 0 0 0 .113-.076.257.257 0 0 0-.013-.185.1.1 0 0 0 .157-.109v-.009a.188.188 0 0 0 .068-.068.358.358 0 0 0 .115.143c.083.058.182-.033.144-.133a.351.351 0 0 0-.093-.135.15.15 0 0 0 .013-.133.182.182 0 0 0 .085-.081.2.2 0 0 0 .11-.053.169.169 0 0 0 .006.021.421.421 0 0 0 .219.249.129.129 0 0 0 .165-.149.44.44 0 0 0-.183-.285.111.111 0 0 0-.089-.027.248.248 0 0 0-.024-.1.111.111 0 0 0 .089.02.142.142 0 0 0 .091-.206.192.192 0 0 0 .051-.041.2.2 0 0 0 .284-.162v-.064a.182.182 0 0 0 .221-.092l.013.074a.152.152 0 1 0 .3-.056v-.013a.149.149 0 0 0 0-.065l-.013-.051a.173.173 0 0 0-.057-.091.179.179 0 0 0 .156-.206.184.184 0 0 0 .2-.119c.047.04.1.077.145.121a.088.088 0 0 0 .11.011.206.206 0 0 0 .24-.247 1.157 1.157 0 0 0-.106-.267.229.229 0 0 0 .1-.407l-.012-.009a.219.219 0 0 0 .093-.172h.089c.2.007.221.31.064.4-.019.011-.041.021-.063.031a.232.232 0 0 1 .008.364.306.306 0 0 1 .1.246.189.189 0 0 1-.2.175.42.42 0 0 1 .037.2.189.189 0 0 1-.142.175.426.426 0 0 1 .33.181.1.1 0 0 1-.028.141.407.407 0 0 1-.309-.012.191.191 0 0 1-.11.113.434.434 0 0 1 .122.065.207.207 0 0 1 .078.23.527.527 0 0 1 .143.046c.091.046.1.233-.02.24a.516.516 0 0 0-.1.017.236.236 0 0 1-.1.392h-.022a.237.237 0 0 1 .013.217l.076.016a.267.267 0 0 1 .083.467l.012.009a.23.23 0 0 1-.1.407 1.22 1.22 0 0 1 .106.267.206.206 0 0 1-.24.247.087.087 0 0 1-.11-.011c-.046-.043-.1-.08-.145-.121a.185.185 0 0 1-.2.12.18.18 0 0 1-.156.206.17.17 0 0 1 .057.09l.013.051a.154.154 0 0 1 0 .066v.012a.152.152 0 1 1-.3.056l-.013-.074a.182.182 0 0 1-.221.091v.064a.2.2 0 0 1-.285.162.171.171 0 0 1-.05.041.144.144 0 0 1-.091.207.113.113 0 0 1-.09-.021.241.241 0 0 1 .025.1.111.111 0 0 1 .089.028.433.433 0 0 1 .182.285.128.128 0 0 1-.164.149.421.421 0 0 1-.219-.249.062.062 0 0 1-.006-.022.189.189 0 0 1-.11.053.189.189 0 0 1-.085.082.15.15 0 0 1-.013.133.346.346 0 0 1 .092.135c.039.1-.061.191-.144.133a.35.35 0 0 1-.114-.143.191.191 0 0 1-.068.069v.008a.1.1 0 0 1-.157.109.253.253 0 0 1 .013.185.108.108 0 0 1-.112.077.183.183 0 0 1-.067-.031.391.391 0 0 1 0 .257.1.1 0 0 1-.182.034.356.356 0 0 1-.07-.21.244.244 0 0 1-.029.075.107.107 0 0 1-.157.03.423.423 0 0 1-.112-.285.118.118 0 0 1-.091-.01.29.29 0 0 1-.048.079.1.1 0 0 1-.156-.037.256.256 0 0 1 .039-.246.154.154 0 0 1-.059-.011.271.271 0 0 1-.03.057.1.1 0 0 1-.182-.017.36.36 0 0 1-.016-.073.15.15 0 0 1-.033.024.167.167 0 0 1-.013.022l.016.027a.123.123 0 0 1-.107.185.091.091 0 0 1-.065.082l-.021.006a.1.1 0 0 1-.088-.029.19.19 0 0 1-.194-.025.6.6 0 0 1-.011.2.168.168 0 0 1-.225.113.565.565 0 0 1-.04.229c-.065.142-.266.188-.332.015a.57.57 0 0 1-.029-.125.179.179 0 0 1-.255-.146.408.408 0 0 1-.081.1.164.164 0 0 1-.261-.063c-.116.1-.273-.007-.292-.149-.011.145-.026.317-.134.391s-.153-.405-.157-.447a.378.378 0 0 1-.049.053.2.2 0 0 1-.324-.169.176.176 0 0 1-.084-.021.265.265 0 0 1 .008.029.569.569 0 0 1 .01.056c.026.161-.025.352-.087.35-.113 0-.2-.29-.2-.362a.144.144 0 0 1-.049-.009c0 .013.007.027.009.04a.193.193 0 0 1-.364.126 1.324 1.324 0 0 1-.068-.161.407.407 0 0 1-.026.08.179.179 0 0 1-.3.014.412.412 0 0 1-.065-.12.869.869 0 0 1-.132.216c-.091.107-.222.03-.267-.081-.132.091-.312-.09-.257-.254 0-.01.009-.018.013-.028a.259.259 0 0 1-.113-.01.2.2 0 0 1-.081-.286.549.549 0 0 1 .069-.077l-.026-.032a.611.611 0 0 1-.195.2c-.149.085-.266-.089-.235-.238a.462.462 0 0 1 .028-.077.2.2 0 0 1-.077-.086c-.013.009-.025.014-.038.022a.122.122 0 0 1 .053.113.619.619 0 0 1-.14.393.111.111 0 0 1-.183-.073.622.622 0 0 1 .117-.4l.01-.012a.177.177 0 0 1-.046-.016v.019a.189.189 0 0 1-.363.069.165.165 0 0 1-.263-.009c-.006.011-.009.023-.014.034a.168.168 0 0 1-.143.077.4.4 0 0 1-.033.131c-.058.121-.212.184-.3.057a.66.66 0 0 1-.1-.379.47.47 0 0 1-.082.206.172.172 0 0 1-.306-.029v-.01a.188.188 0 0 1-.325-.114.2.2 0 0 1-.194-.091.5.5 0 0 1-.219.208c-.115.047-.2-.076-.144-.189a1.223 1.223 0 0 1 .166-.239.129.129 0 0 1-.036-.006.208.208 0 0 1-.242.088.129.129 0 0 1-.052-.186.527.527 0 0 1 .07-.068.2.2 0 0 1-.207-.25.255.255 0 0 1-.071 0 .19.19 0 0 1-.152-.184.342.342 0 0 1-.21.043.206.206 0 0 1-.156-.274c0-.007.008-.01.011-.017a.6.6 0 0 1-.381-.1.219.219 0 0 1-.036-.29" data-name="Path 784"></path></clipPath><clipPath id="E"><path fill="none" d="M.225 32.348h13.176v4.095H.225z" data-name="Rectangle 48"></path></clipPath><clipPath id="F"><path fill="none" d="M.382 33.233a.617.617 0 0 1-.071-.033.229.229 0 0 1-.019-.341.217.217 0 0 1 .028-.262l.01-.008a.241.241 0 0 1-.015-.047.274.274 0 0 0 .133.006.11.11 0 0 0 .116-.023c.045-.043.1-.081.144-.122a.175.175 0 0 0 .1.077c-.008.02-.008.045-.017.069a.209.209 0 0 0 .257.23.118.118 0 0 0 0 .055v.011c-.016.2.3.191.321.016l.009-.066a.2.2 0 0 0 .168.07.2.2 0 0 0 .079.049.15.15 0 0 0 .022.045.162.162 0 0 0-.024.063l-.01.051a.164.164 0 0 0 0 .066v.013a.152.152 0 1 0 .3.035l.008-.075a.2.2 0 0 0 .107.082.139.139 0 0 0 .069.021.141.141 0 0 0 .051-.007.332.332 0 0 0 0 .044c0 .01.007.014.009.023a.132.132 0 0 0-.079.031.392.392 0 0 0-.17.269.126.126 0 0 0 .185.112.407.407 0 0 0 .213-.242.075.075 0 0 0 0-.02.214.214 0 0 0 .12.034.182.182 0 0 0 .062.047.145.145 0 0 0 .032.077.11.11 0 0 0 .028.053.327.327 0 0 0-.088.128.082.082 0 0 0 .021.087.335.335 0 0 0-.059.177.13.13 0 0 0 .175.138.411.411 0 0 0 .2-.264.08.08 0 0 0 0-.022.193.193 0 0 0 .115.046.2.2 0 0 0 .063.06.188.188 0 0 0 .01.044c0 .006.012.009.015.014a.142.142 0 0 0 .027.089.344.344 0 0 0-.082.142.1.1 0 0 0 .154.123.336.336 0 0 0 .092-.128.108.108 0 0 0 .084.052.1.1 0 0 0 .165.094.256.256 0 0 0 0 .185.109.109 0 0 0 .118.068.205.205 0 0 0 .065-.035.385.385 0 0 0 .015.256.1.1 0 0 0 .185.022.36.36 0 0 0 .053-.215.258.258 0 0 0 .035.073.107.107 0 0 0 .189.03.417.417 0 0 0 .089-.292.124.124 0 0 0 .091-.016.289.289 0 0 0 .055.074.1.1 0 0 0 .152-.048.244.244 0 0 0 .008-.086 1.414 1.414 0 0 0 .26-.036.131.131 0 0 0 .114.062.09.09 0 0 0 .071.077h.021a.1.1 0 0 0 .086-.035.192.192 0 0 0 .191-.038.593.593 0 0 0 .026.2.169.169 0 0 0 .234.1.56.56 0 0 0 .059.226c.075.137.28.169.332-.008a.53.53 0 0 0 .019-.126.177.177 0 0 0 .243-.165.376.376 0 0 0 .09.1.162.162 0 0 0 .254-.081c.123.1.272-.026.279-.169.022.144.051.314.165.38s.12-.415.121-.456a.366.366 0 0 0 .053.049.193.193 0 0 0 .3-.107l.085-.012c-.009.159.055.337.114.33.113-.012.174-.3.172-.375a.145.145 0 0 0 .049-.013c0 .014 0 .028-.006.042a.194.194 0 0 0 .373.1 1.2 1.2 0 0 0 .055-.166.512.512 0 0 0 .034.079.178.178 0 0 0 .3-.007.374.374 0 0 0 .055-.125.911.911 0 0 0 .149.206c.1.1.223.015.259-.1.14.082.305-.112.237-.271 0-.01-.011-.018-.014-.028a.263.263 0 0 0 .112-.017.179.179 0 0 0 .09-.21c.022-.015.046-.029.066-.045a.4.4 0 0 0 .059.04.146.146 0 0 0 .21-.1c.026-.006.051-.015.077-.022a.441.441 0 0 0 .131.22.11.11 0 0 0 .176-.086.43.43 0 0 0-.051-.23l.052-.026a.187.187 0 0 0 .256-.107.165.165 0 0 0 .262-.027c.007.01.011.022.017.033a.169.169 0 0 0 .149.067.4.4 0 0 0 .043.128c.067.116.225.169.306.036a.67.67 0 0 0 .066-.384.464.464 0 0 0 .1.2.171.171 0 0 0 .3-.05v-.01A.187.187 0 0 0 12 33.34a.193.193 0 0 0 .185-.1.51.51 0 0 0 .235.192c.118.039.193-.089.129-.2a1.268 1.268 0 0 0-.18-.232l.016-.008a.211.211 0 0 0 .248.071.127.127 0 0 0 .038-.189.429.429 0 0 0-.075-.064.2.2 0 0 0 .187-.263.261.261 0 0 0 .071-.009.187.187 0 0 0 .136-.193.435.435 0 0 0 .15.029v.006l.076.016a.267.267 0 0 1 .083.467l.012.009a.23.23 0 0 1-.1.407 1.22 1.22 0 0 1 .106.267.206.206 0 0 1-.24.247.087.087 0 0 1-.11-.011c-.046-.043-.1-.08-.145-.121a.185.185 0 0 1-.2.12.18.18 0 0 1-.156.206.17.17 0 0 1 .057.09l.013.051a.154.154 0 0 1 0 .066v.012a.152.152 0 1 1-.3.056l-.013-.074a.182.182 0 0 1-.221.091v.064a.2.2 0 0 1-.285.162.171.171 0 0 1-.05.041.144.144 0 0 1-.091.207.113.113 0 0 1-.09-.021.241.241 0 0 1 .025.1.111.111 0 0 1 .089.028.433.433 0 0 1 .182.285.128.128 0 0 1-.164.149.421.421 0 0 1-.219-.249.062.062 0 0 1-.006-.022.189.189 0 0 1-.11.053.189.189 0 0 1-.085.082.15.15 0 0 1-.013.133.346.346 0 0 1 .092.135c.039.1-.061.191-.144.133a.35.35 0 0 1-.114-.143.191.191 0 0 1-.068.069v.008a.1.1 0 0 1-.157.109.253.253 0 0 1 .013.185.108.108 0 0 1-.112.077.183.183 0 0 1-.067-.031.391.391 0 0 1 0 .257.1.1 0 0 1-.182.034.356.356 0 0 1-.07-.21.244.244 0 0 1-.029.075.107.107 0 0 1-.157.03.423.423 0 0 1-.112-.285.118.118 0 0 1-.091-.01.29.29 0 0 1-.048.079.1.1 0 0 1-.156-.037.256.256 0 0 1 .039-.246.154.154 0 0 1-.059-.011.271.271 0 0 1-.03.057.1.1 0 0 1-.182-.017.36.36 0 0 1-.016-.073.15.15 0 0 1-.033.024.167.167 0 0 1-.013.022l.016.027a.123.123 0 0 1-.107.185.091.091 0 0 1-.065.082l-.021.006a.1.1 0 0 1-.088-.029.19.19 0 0 1-.194-.025.6.6 0 0 1-.011.2.168.168 0 0 1-.225.113.565.565 0 0 1-.04.229c-.065.142-.266.188-.332.015a.57.57 0 0 1-.029-.125.179.179 0 0 1-.255-.146.408.408 0 0 1-.081.1.164.164 0 0 1-.261-.063c-.116.1-.273-.007-.292-.149-.011.145-.026.317-.134.391s-.153-.405-.157-.447a.378.378 0 0 1-.049.053.2.2 0 0 1-.324-.169.176.176 0 0 1-.084-.021.265.265 0 0 1 .008.029.569.569 0 0 1 .01.056c.026.161-.025.352-.087.35-.113 0-.2-.29-.2-.362a.144.144 0 0 1-.049-.009c0 .013.007.027.009.04a.193.193 0 0 1-.364.126 1.324 1.324 0 0 1-.068-.161.407.407 0 0 1-.026.08.179.179 0 0 1-.3.014.412.412 0 0 1-.065-.12.869.869 0 0 1-.132.216c-.091.107-.222.03-.267-.081-.132.091-.312-.09-.257-.254 0-.01.009-.018.013-.028a.259.259 0 0 1-.113-.01.2.2 0 0 1-.081-.286.549.549 0 0 1 .069-.077l-.026-.032a.611.611 0 0 1-.195.2c-.149.085-.266-.089-.235-.238a.462.462 0 0 1 .028-.077.2.2 0 0 1-.077-.086c-.013.009-.025.014-.038.022a.122.122 0 0 1 .053.113.619.619 0 0 1-.14.393.111.111 0 0 1-.183-.073.622.622 0 0 1 .117-.4l.01-.012a.177.177 0 0 1-.046-.016v.019a.189.189 0 0 1-.363.069.165.165 0 0 1-.263-.009c-.006.011-.009.023-.014.034a.168.168 0 0 1-.143.077.4.4 0 0 1-.033.131c-.058.121-.212.184-.3.057a.66.66 0 0 1-.1-.379.47.47 0 0 1-.082.206.172.172 0 0 1-.306-.029v-.01a.188.188 0 0 1-.325-.114.2.2 0 0 1-.194-.091.5.5 0 0 1-.219.208c-.115.047-.2-.076-.144-.189a1.223 1.223 0 0 1 .166-.239.129.129 0 0 1-.014-.007.208.208 0 0 1-.242.088.129.129 0 0 1-.052-.186.527.527 0 0 1 .07-.068.2.2 0 0 1-.207-.25.255.255 0 0 1-.071 0 .19.19 0 0 1-.152-.184.342.342 0 0 1-.21.043.206.206 0 0 1-.156-.274c0-.007.008-.01.011-.017a.6.6 0 0 1-.381-.1.219.219 0 0 1-.036-.29.243.243 0 0 1 .018-.325" data-name="Path 785"></path></clipPath><clipPath id="H"><path fill="none" d="M1.161 25.124h11.306v6.975H1.161z" data-name="Rectangle 49"></path></clipPath><linearGradient id="a" x1="-1.459" x2="-1.162" y1="21.729" y2="21.729" gradientUnits="objectBoundingBox"><stop offset="0" stop-color="#4457f1"></stop><stop offset="1" stop-color="#4e60f2"></stop></linearGradient><linearGradient xlink:href="#a" id="f" x1="-2.548" x2="-2.124" y1="30.324" y2="30.324"></linearGradient><linearGradient xlink:href="#a" id="h" x1="-5.435" x2="-4.793" y1="44.976" y2="44.976"></linearGradient><linearGradient xlink:href="#a" id="j" x1="-1.744" x2="-1.102" y1="46.882" y2="46.882"></linearGradient><linearGradient xlink:href="#a" id="l" x1="-5.93" x2="-5.231" y1="51.359" y2="51.359"></linearGradient><linearGradient xlink:href="#a" id="n" x1="-.513" x2="-.089" y1="30.354" y2="30.354"></linearGradient><linearGradient xlink:href="#a" id="p" x1="-2.434" x2="-1.774" y1="46.626" y2="46.626"></linearGradient><linearGradient xlink:href="#a" id="r" x1="-9.765" x2="-8.852" y1="66.853" y2="66.853"></linearGradient><linearGradient xlink:href="#a" id="t" x1="-7.959" x2="-7.046" y1="64.959" y2="64.959"></linearGradient><linearGradient xlink:href="#a" id="v" x1="-3.351" x2="-2.742" y1="45.02" y2="45.02"></linearGradient><linearGradient xlink:href="#a" id="x" x1="-4.516" x2="-3.267" y1="89.338" y2="89.338"></linearGradient><linearGradient xlink:href="#a" id="z" x1="-4.288" x2="-3.864" y1="30.638" y2="30.638"></linearGradient><linearGradient id="b" x1=".038" x2=".104" y1="8.879" y2="8.879" gradientUnits="objectBoundingBox"><stop offset="0" stop-color="#e8eafd"></stop><stop offset="1" stop-color="#fff"></stop></linearGradient><linearGradient xlink:href="#b" id="G" x1=".007" x2=".076" y1="12.059" y2="12.059"></linearGradient><radialGradient id="B" cx=".275" cy=".141" r=".853" gradientTransform="matrix(-.902 0 0 -1 .004 14.39)" gradientUnits="objectBoundingBox"><stop offset="0" stop-color="#f3f4fe"></stop><stop offset=".791" stop-color="#eaecfd"></stop><stop offset="1" stop-color="#e7e9fd"></stop></radialGradient></defs><g clip-path="url(#c)" data-name="Group 280"><g data-name="Group 238"><g clip-path="url(#c)" data-name="Group 237"><path fill="#d2d6fc" d="M10.415 26.6 8.4 30.454s.037.532 0 1.422S6 37.468 6 37.468a3.232 3.232 0 0 1 2.033 1.276c.337.664-.722 1.382-.722 1.382s.541-.065.683.665a2.792 2.792 0 0 1-.576 2.283 2.177 2.177 0 0 1-2.542 0c-1.467-1.413-1.332-3.881-1.457-5.454a20.307 20.307 0 0 1 .466-3.466 30.775 30.775 0 0 1 .939-5.468c.135-.334 1.44-3.038 2.487-5.511.358.021 3.1 3.43 3.1 3.43" data-name="Path 708"></path><path fill="none" stroke="#6a3ab5" stroke-miterlimit="10" stroke-width=".447" d="M10.415 26.6 8.4 30.454s.037.532 0 1.422S6 37.468 6 37.468a3.232 3.232 0 0 1 2.033 1.276c.337.664-.722 1.382-.722 1.382s.541-.065.683.665a2.792 2.792 0 0 1-.576 2.283 2.177 2.177 0 0 1-2.542 0c-1.467-1.413-1.332-3.881-1.457-5.454a20.307 20.307 0 0 1 .466-3.466 30.775 30.775 0 0 1 .939-5.468c.135-.334 1.44-3.038 2.487-5.511.363.025 3.104 3.425 3.104 3.425Z" data-name="Path 709"></path><path fill="#fff" d="M7.5 20.722s-.489 2.074-.551 2.453c.23 2.392 3.751 2.575 3.751 2.575l1.339-2.627Z" data-name="Path 710"></path><path fill="none" stroke="#6a3ab5" stroke-miterlimit="10" stroke-width=".447" d="M7.5 20.722s-.489 2.074-.551 2.453c.23 2.392 3.751 2.575 3.751 2.575l1.339-2.627Z" data-name="Path 711"></path><path fill="#abb3f9" d="M13.729 15.38v4.22l1.3 1.279h4.791l2.162-3.059-.4-6.12Z" data-name="Path 712"></path><path fill="#fff" d="M6.947 18.548a4.654 4.654 0 0 0 4.681 4.626c2.589 0 2.821-1.819 2.821-4.375s-.232-4.879-2.821-4.879a4.656 4.656 0 0 0-4.681 4.628" data-name="Path 713"></path><path fill="none" stroke="#6a3ab5" stroke-miterlimit="10" stroke-width=".447" d="M6.947 18.548a4.654 4.654 0 0 0 4.681 4.626c2.589 0 2.821-1.819 2.821-4.375s-.232-4.879-2.821-4.879a4.656 4.656 0 0 0-4.681 4.628Z" data-name="Path 714"></path><path fill="#fff" d="M23.089 38.655s3.828 4.126 4.658 7.384 2.371 37.953 2.829 41.989c.622 5.478-4.558 7.045-9.894 6.618S9.226 91.229 7.857 87.885c2.016-21.066-.216-47.471 2.055-50.671.851-1.247 13.178 1.441 13.178 1.441" data-name="Path 715"></path><path fill="none" stroke="#6a3ab5" stroke-miterlimit="10" stroke-width=".447" d="M23.089 38.655s3.828 4.126 4.658 7.384 2.371 37.953 2.829 41.989c.622 5.478-4.558 7.045-9.894 6.618S9.226 91.229 7.857 87.885c2.016-21.066-.216-47.471 2.055-50.671.851-1.247 13.177 1.441 13.177 1.441Z" data-name="Path 716"></path><path fill="#d1d1fb" d="M23.089 36.937v1.718a9.8 9.8 0 0 1-4.945 1.445c-5.694.373-8.232-2.883-8.232-2.883l.034-2.1Z" data-name="Path 717"></path><path fill="none" stroke="#6a3ab5" stroke-miterlimit="10" stroke-width=".447" d="M23.089 36.937v1.718a9.8 9.8 0 0 1-4.945 1.445c-5.694.373-8.232-2.883-8.232-2.883l.034-2.1Z" data-name="Path 718"></path><path fill="#fff" d="M25.512 31.234c-.936.8-2.422 5.7-2.422 5.7a9 9 0 0 1-5.431 1.414c-5.37.037-7.713-3.241-7.713-3.241-.107-1.877-.287-4.657-.287-4.657s-2.271-.464-2.7-3.664c-.152-1.151 1.786-4.706 3.46-7.865 1.348-2.545 2.444-4.531 3.461-4.983 1.475-.426 1.692 5.836 1.692 5.836s4.982-3.838 5.62-3.346l5.44 4.2s-.179 9.8-1.117 10.6" data-name="Path 719"></path><path fill="none" stroke="#6a3ab5" stroke-miterlimit="10" stroke-width=".447" d="M25.512 31.234c-.936.8-2.422 5.7-2.422 5.7a9 9 0 0 1-5.431 1.414c-5.37.037-7.713-3.241-7.713-3.241-.107-1.877-.287-4.657-.287-4.657s-2.271-.464-2.7-3.664c-.152-1.151 1.786-4.706 3.46-7.865 1.348-2.545 2.444-4.531 3.461-4.983 1.475-.426 1.692 5.836 1.692 5.836s4.982-3.838 5.62-3.346l5.44 4.2s-.182 9.808-1.12 10.606Z" data-name="Path 720"></path><path fill="#d2d6fc" d="M10.955 8.889c.189.421.253.568.253.568a2.853 2.853 0 0 0-.284.734 38.813 38.813 0 0 0 .932 5.85 3.09 3.09 0 0 0 2.02 1 11.725 11.725 0 0 0 4.762-2.427c1-1.2 1.326-5.471 1.326-5.471L15.6 3.515l-5.184 1.922a33.442 33.442 0 0 0 .539 3.452" data-name="Path 721"></path><path fill="none" stroke="#6a3ab5" stroke-miterlimit="10" stroke-width=".447" d="M10.955 8.889c.189.421.253.568.253.568a2.853 2.853 0 0 0-.284.734 38.813 38.813 0 0 0 .932 5.85 3.09 3.09 0 0 0 2.02 1 11.725 11.725 0 0 0 4.762-2.427c1-1.2 1.326-5.471 1.326-5.471L15.6 3.515l-5.184 1.922a33.442 33.442 0 0 0 .539 3.452Z" data-name="Path 722"></path><path fill="#441090" d="M13.046 6.362c3.927 1.032.009 4.315 6.375 7.559 1.659 1.113-.961 5.109-.5 6.6.538-1.283 2.584-2.2 2.91-1.913a2.948 2.948 0 0 0-.811 2.643c.646-.963 1.429-2.643 2.941-2.652.635 0 1.307 1.138 2.669 2.029a43.675 43.675 0 0 1-1.043-7.367c-.288-3.378.934-11.493-5.732-12.1 0 0-1.29-2.209-4.936-.55-3.319 1.516-5.26 4.577-5.26 5.824a3.713 3.713 0 0 0 1.3 2.456c-.539-3.452.687-3.311.687-3.311s.647-.1 1.405.784" data-name="Path 723"></path><path fill="#d2d6fc" d="M29.73 30.418a43.285 43.285 0 0 1 .847 6.085 19.425 19.425 0 0 1 1.762 3.95c.221.641-1.8 7.9-1.8 7.9s-2.936-6.8-3.259-8.008a8.249 8.249 0 0 1-.18-2.6 25.9 25.9 0 0 1-2.272-6.55c.073-.639 4.469-1.814 4.9-.781" data-name="Path 724"></path><path fill="none" stroke="#6a3ab5" stroke-miterlimit="10" stroke-width=".447" d="M29.73 30.418a43.285 43.285 0 0 1 .847 6.085 19.425 19.425 0 0 1 1.762 3.95c.221.641-1.8 7.9-1.8 7.9s-2.936-6.8-3.259-8.008a8.249 8.249 0 0 1-.18-2.6 25.9 25.9 0 0 1-2.272-6.55c.072-.635 4.472-1.81 4.902-.777Z" data-name="Path 725"></path><path fill="#fff" d="M29.531 27.445s.324 2.623.484 3.262c-1.186 1.815-4.161 2.021-5.351.848l-.972-3.628Z" data-name="Path 726"></path><path fill="none" stroke="#6a3ab5" stroke-miterlimit="10" stroke-width=".447" d="M29.531 27.445s.324 2.623.484 3.262c-1.186 1.815-4.161 2.021-5.351.848l-.972-3.628Z" data-name="Path 727"></path><path fill="#fff" d="M21.583 24.831a4.686 4.686 0 1 0 4.686-4.626 4.657 4.657 0 0 0-4.686 4.626" data-name="Path 728"></path><path fill="none" stroke="#6a3ab5" stroke-miterlimit="10" stroke-width=".447" d="M21.583 24.831a4.686 4.686 0 1 0 4.686-4.626 4.657 4.657 0 0 0-4.686 4.626Z" data-name="Path 729"></path><path fill="#abb3f9" d="M51.1 19.778v3.274l-2.3 2.454-5.08.8-.545-6.243Z" data-name="Path 730"></path><path fill="#441090" d="M41.73 96.355c-.561.752-5.7 2.4-6.515 3.35a2.435 2.435 0 0 0-.117 2.768c.326.392 3.494.642 5.62-.177 1.273-.493 3.252-1.352 4.074-1.673s3.709-.16 4.575-1.279c.65-.883.143-4.271.143-4.271s-7.221.527-7.781 1.281" data-name="Path 731"></path><path fill="#6a3ab5" d="M37.333 57.5c-.507 6.692 4.08 20.492 4.08 20.492s.459 11.036.316 18.366c.586.587 5.831 1.938 8.07-.48.447-3.777.143-34.905.143-34.905s-12.106-4.26-12.609-3.473" data-name="Path 732"></path><path fill="none" stroke="#6a3ab5" stroke-miterlimit="10" stroke-width=".447" d="M37.333 57.5c-.507 6.692 4.08 20.492 4.08 20.492s.459 11.036.316 18.366c.586.587 5.831 1.938 8.07-.48.447-3.777.143-34.905.143-34.905s-12.106-4.26-12.609-3.473Z" data-name="Path 733"></path><path fill="#fff" d="m39.5 30.95 1.6-5.228a16.349 16.349 0 0 1 1.871-3.91 3.528 3.528 0 0 0 .176 2.553 3.183 3.183 0 0 0 1.734 1.489 3.527 3.527 0 0 0 1.405.249c1.3 0 3.275-.538 5.462-3.039l.224.87-1.275 3.241-9.333 7.477Z" data-name="Path 734"></path><path fill="#6a3ab5" d="M42.592 22.827a3.323 3.323 0 0 0 .352 1.64 3.43 3.43 0 0 0 1.835 1.59 3.87 3.87 0 0 0 1.5.27c1.288 0 3.218-.506 5.348-2.8.042.164.078.3.1.4l-1.228 3.119-9.069 7.265-1.695-3.375 1.563-5.124a24.564 24.564 0 0 1 1.287-2.98m.618-1.415c-.8 0-2.329 4.246-2.329 4.246l-1.614 5.308L41.285 35l9.6-7.688 1.323-3.363s-.176-.677-.351-1.36c-2.262 2.747-4.3 3.293-5.571 3.293a3.345 3.345 0 0 1-1.338-.24s-2.768-.864-1.63-4.2a.209.209 0 0 0-.1-.028" data-name="Path 735"></path><path fill="#d2d6fc" d="m45.117 27.072-2.183 7.116-1.74.589-.889-1.8 3.564-6.41Z" data-name="Path 736"></path><path fill="none" stroke="#6a3ab5" stroke-miterlimit="10" stroke-width=".447" d="m45.117 27.072-2.183 7.116-1.74.589-.889-1.8 3.564-6.41Z" data-name="Path 737"></path><path fill="#fff" d="M44.864 25.536s-1.028.786-1.138 1.356a1.106 1.106 0 0 1-.3-1.713Z" data-name="Path 738"></path><path fill="none" stroke="#6a3ab5" stroke-miterlimit="10" stroke-width=".447" d="M44.864 25.536s-1.028.786-1.138 1.356a1.106 1.106 0 0 1-.3-1.713Z" data-name="Path 739"></path><path fill="#d2d6fc" d="m45.117 27.108-1.248-.5.333-1.1 1.394.259Z" data-name="Path 740"></path><path fill="none" stroke="#6a3ab5" stroke-miterlimit="10" stroke-width=".447" d="m45.117 27.108-1.248-.5.333-1.1 1.394.259Z" data-name="Path 741"></path><path fill="#fff" d="M43.683 26.333a.8.8 0 0 1-.324-.43 1.266 1.266 0 0 1 .1-.835l.921.446a2.833 2.833 0 0 0-.7.819" data-name="Path 742"></path><path fill="#6a3ab5" d="m43.587 25.377.4.193a3.075 3.075 0 0 0-.349.405.5.5 0 0 1-.063-.134.864.864 0 0 1 .013-.464m-.228-.606s-.819 1.3.445 1.886c.107-.569 1-1.188 1-1.188Z" data-name="Path 743"></path><path fill="#fff" d="m51.96 22.7-.9-1.443a6.828 6.828 0 0 1-6.116 4.389 3.7 3.7 0 0 1 .17 1.464c5.439-.745 6.844-4.41 6.844-4.41" data-name="Path 744"></path><path fill="none" stroke="#6a3ab5" stroke-miterlimit="10" stroke-width=".447" d="m51.96 22.7-.9-1.443a6.828 6.828 0 0 1-6.116 4.389 3.7 3.7 0 0 1 .17 1.464c5.442-.747 6.846-4.41 6.846-4.41Z" data-name="Path 745"></path><path fill="#d2d6fc" d="M34.055 51.089c.413 1.586 1.693 2.743.656 3.787-.206.113-.188-.12-.839-.471-.821.21-1.7-.484-2.057 1.6-.021.138.615 1.022.542 1.159a2.218 2.218 0 0 1-1.582-.069c-.326-.181-.326-.716-.432-1.991-.351-.539.271-1.525.647-4.406a11.083 11.083 0 0 1 3.065.4" data-name="Path 746"></path><path fill="none" stroke="#6a3ab5" stroke-miterlimit="10" stroke-width=".447" d="M34.055 51.089c.413 1.586 1.693 2.743.656 3.787-.206.113-.188-.12-.839-.471-.821.21-1.7-.484-2.057 1.6-.021.138.615 1.022.542 1.159a2.218 2.218 0 0 1-1.582-.069c-.326-.181-.326-.716-.432-1.991-.351-.539.271-1.525.647-4.406a11.083 11.083 0 0 1 3.065.391Z" data-name="Path 747"></path><path fill="#abb3f9" d="M34.325 53.519s-1.206-1.254-2.042-.552a4.115 4.115 0 0 0-1.065 2.58c-.128 1.285.374 1.515.915 1.543a5.628 5.628 0 0 0 2.64-2.031c.409-.714-.448-1.541-.448-1.541" data-name="Path 748"></path><path fill="#d2d6fc" d="M34.353 53.772s-1.142-1.186-1.932-.522a3.869 3.869 0 0 0-1.005 2.443c-.125 1.215.353 1.431.866 1.457a5.28 5.28 0 0 0 2.493-1.921c.387-.677-.422-1.457-.422-1.457" data-name="Path 749"></path><path fill="none" stroke="#6a3ab5" stroke-miterlimit="10" stroke-width=".447" d="M34.353 53.772s-1.142-1.186-1.932-.522a3.869 3.869 0 0 0-1.005 2.443c-.125 1.215.353 1.431.866 1.457a5.28 5.28 0 0 0 2.493-1.921c.387-.677-.422-1.457-.422-1.457Z" data-name="Path 750"></path><path fill="#6034a3" d="M40.95 20.722c-3.544.166-5.4 4.895-6.936 9.233-1.4 3.957-2.346 6.628-2.528 7.315-.378 1.442-1.126 12.235-1.236 12.775s3.5 1.406 4.63.413c.231-.808 2.07-10.258 2.07-10.258l5.863-16.761s-1.033-2.721-1.863-2.721" data-name="Path 751"></path><path fill="none" stroke="#6034a3" stroke-miterlimit="10" stroke-width=".447" d="M40.95 20.722c-3.544.166-5.4 4.895-6.936 9.233-1.4 3.957-2.346 6.628-2.528 7.315-.378 1.442-1.126 12.235-1.236 12.775s3.5 1.406 4.63.413c.231-.808 2.07-10.258 2.07-10.258l5.863-16.761s-1.033-2.717-1.863-2.717Z" data-name="Path 752"></path><path fill="#6034a3" d="M44.127 23.123c-4.054 4.377-2.686 10.532-2.686 10.532l.912 1.96-.661 22.685-.683.906s-.884 1.443-1.71 1.71c-1.148.37-2.906-1.174-3.28-2.775-.161-2.025-.867-22.792.325-28.129.754-3.1 2.917-5.659 5.079-8.059.791-1.152 3.244.905 2.7 1.173" data-name="Path 753"></path><path fill="none" stroke="#6034a3" stroke-miterlimit="10" stroke-width=".447" d="M44.127 23.123c-4.054 4.377-2.686 10.532-2.686 10.532l.912 1.96-.661 22.685-.683.906s-.884 1.443-1.71 1.71c-1.148.37-2.906-1.174-3.28-2.775-.161-2.025-.867-22.792.325-28.129.754-3.1 2.917-5.659 5.079-8.059.79-1.153 3.243.903 2.704 1.17Z" data-name="Path 754"></path><path fill="#d2d6fc" d="M41.041 12.823c-.726.9-.916 4.081-.916 4.081s0 .133.325.32c-.351 1.361.539 6.913.622 7.421S42.8 26 43.53 25.978s4.621-1.121 5.864-3.388a1.309 1.309 0 0 0 0-.988l1.244-.722 2.106-1.173-.756-4.326-3-3.04-5.488-1.869s-2.113 2.166-2.461 2.351" data-name="Path 755"></path><path fill="none" stroke="#6a3ab5" stroke-miterlimit="10" stroke-width=".447" d="M41.041 12.823c-.726.9-.916 4.081-.916 4.081s0 .133.325.32c-.351 1.361.539 6.913.622 7.421S42.8 26 43.53 25.978s4.621-1.121 5.864-3.388a1.309 1.309 0 0 0 0-.988l1.244-.722 2.106-1.173-.756-4.326-3-3.04-5.488-1.869s-2.111 2.166-2.459 2.351Z" data-name="Path 756"></path><path fill="#441090" d="M41.114 12.927a5.931 5.931 0 0 1 1.174 1.842c1.08-.534 4.3 0 4.3 0a4.706 4.706 0 0 0 .352 2.187c.429.589.7.428 1.212.535a4.048 4.048 0 0 1 .432 2 2.605 2.605 0 0 1 2.163-1.069.929.929 0 0 1 .862 1.069c-.021.826-1.377 1.253-1.4 1.546-.11 1.414 1.918 1.55 1.918 1.55s1.758-1.442 1.865-5.525c.007-.987-.512-7.5-5.3-8.035 0 0-1.945-2.634-7.692 1.335-.549.422-.214 2.188.113 2.562" data-name="Path 757"></path><path fill="#441090" d="M50.864 102.841c-.2 2.053-3.225 6.288-2.119 8.209.646 1.121 5.019 1.53 6.677-.358 1.109-1.263 1.224-3.95 1.224-3.95a6.839 6.839 0 0 0 .541-2.205 7.258 7.258 0 0 0-.4-2.064s-5.438.054-5.927.367" data-name="Path 758"></path><path fill="#6a3ab5" d="m57.654 61.7-.142 17.93a49.848 49.848 0 0 1 1.858 6.122c.214 1.621-.79 15.776-1.057 16.737s-3.216 1.872-5.269 1.48c-1.277-.243-2.741-1.281-2.689-2.126s.832-12.252-.049-16.449c0 0-2.954-7.971-4.974-23.7Z" data-name="Path 759"></path><path fill="none" stroke="#6a3ab5" stroke-miterlimit="10" stroke-width=".447" d="m57.654 61.7-.142 17.93a49.848 49.848 0 0 1 1.858 6.122c.214 1.621-.79 15.776-1.057 16.737s-3.216 1.872-5.269 1.48c-1.277-.243-2.741-1.281-2.689-2.126s.832-12.252-.049-16.449c0 0-2.954-7.971-4.974-23.7Z" data-name="Path 760"></path><path fill="#6034a3" d="M58.762 28.816s-4.365-3.558-6.907-6.226c-.541 5.016-10.415 11.064-10.415 11.064-.72 8.63-.431 25.549-.431 25.549s1.5 3.524 3.444 4.218 12.647-1.441 13.13-1.388c.6-4.59-2.919-10.835-2.972-13.556s4.151-19.661 4.151-19.661" data-name="Path 761"></path><path fill="none" stroke="#6034a3" stroke-miterlimit="10" stroke-width=".447" d="M58.762 28.816s-4.365-3.558-6.907-6.226c-.541 5.016-10.415 11.064-10.415 11.064-.72 8.63-.431 25.549-.431 25.549s1.5 3.524 3.444 4.218 12.647-1.441 13.13-1.388c.6-4.59-2.919-10.835-2.972-13.556s4.151-19.661 4.151-19.661Z" data-name="Path 762"></path><path fill="#d2d6fc" d="M55.459 63.56c-.01.8-2.327 2.35-2.55 2.69s-1.822 2.692-1.237 2.989 2.02-1.787 2.532-1.308c.947 2.348-1.925 4.573-1.773 4.9s2.29.541 3.783-.888a9.5 9.5 0 0 0 1.531-2.543c.433-.826.3-2.376 1.017-5.388-.166-.064-3.3-1.246-3.3-.451" data-name="Path 763"></path><path fill="none" stroke="#6a3ab5" stroke-miterlimit="10" stroke-width=".447" d="M55.459 63.56c-.01.8-2.327 2.35-2.55 2.69s-1.822 2.692-1.237 2.989 2.02-1.787 2.532-1.308c.947 2.348-1.925 4.573-1.773 4.9s2.29.541 3.783-.888a9.5 9.5 0 0 0 1.531-2.543c.433-.826.3-2.376 1.017-5.388-.162-.065-3.295-1.247-3.303-.452Z" data-name="Path 764"></path><path fill="#6034a3" d="M57.1 28.781c3.357-.754 3.994 3.24 3.994 3.24l1.683 18.643-2.7 14.074s-3.97 1.013-5.427-1.335l1.91-13.753-3.031-13.771s-1.186-6.032 3.567-7.1" data-name="Path 765"></path><path fill="none" stroke="#6034a3" stroke-miterlimit="10" stroke-width=".447" d="M57.1 28.781c3.357-.754 3.994 3.24 3.994 3.24l1.683 18.643-2.7 14.074s-3.97 1.013-5.427-1.335l1.91-13.753-3.031-13.771s-1.186-6.032 3.571-7.098Z" data-name="Path 766"></path><path fill="#6a3ab5" d="M5.394 38.515 1.5 33.744l10.773-.25s-4.043 4.573-4.46 5.021a1.621 1.621 0 0 1-2.419 0" data-name="Path 767"></path><path fill="none" stroke="#6a3ab5" stroke-miterlimit="10" stroke-width=".447" d="M5.394 38.515 1.5 33.744l10.773-.25s-4.043 4.573-4.46 5.021a1.621 1.621 0 0 1-2.419 0Z" data-name="Path 768"></path><path fill="#afb7f9" d="M2.465 34.465a9.615 9.615 0 0 0 8.6 0c2.375-1.355 2.375-3.551 0-4.905a9.621 9.621 0 0 0-8.6 0c-2.376 1.354-2.376 3.55 0 4.905" data-name="Path 769"></path><path fill="#e9e9fd" d="M8.712 32.647c2.3 1.273-1.06 3.337-3.429 2.024-2.3-1.273 1.06-3.335 3.429-2.024" data-name="Path 770"></path></g></g><g data-name="Group 240"><g clip-path="url(#d)" data-name="Group 239"><path fill="url(#a)" d="M0 0h3.243v3.74H0z" data-name="Rectangle 32" transform="rotate(-60 30.572 13.143)"></path></g></g><g data-name="Group 242"><g clip-path="url(#e)" data-name="Group 241"><path fill="url(#f)" d="M0 0h2.271v2.619H0z" data-name="Rectangle 33" transform="rotate(-60 32.22 12.593)"></path></g></g><g data-name="Group 244"><g clip-path="url(#g)" data-name="Group 243"><path fill="url(#h)" d="M0 0h1.5v1.73H0z" data-name="Rectangle 34" transform="rotate(-60 34.418 10.9)"></path></g></g><g data-name="Group 246"><g clip-path="url(#i)" data-name="Group 245"><path fill="url(#j)" d="M0 0h1.501v1.731H0z" data-name="Rectangle 35" transform="rotate(-60 28.761 14.026)"></path></g></g><g data-name="Group 248"><g clip-path="url(#k)" data-name="Group 247"><path fill="url(#l)" d="M0 0h1.378v1.589H0z" data-name="Rectangle 36" transform="rotate(-60 31.053 8.9)"></path></g></g><g data-name="Group 250"><g clip-path="url(#m)" data-name="Group 249"><path fill="url(#n)" d="M0 0h2.27v2.617H0z" data-name="Rectangle 37" transform="rotate(-60 29.884 16.578)"></path></g></g><g data-name="Group 252"><g clip-path="url(#o)" data-name="Group 251"><path fill="url(#p)" d="M0 0h1.46v1.684H0z" data-name="Rectangle 38" transform="rotate(-60 31.483 14.505)"></path></g></g><g data-name="Group 254"><g clip-path="url(#q)" data-name="Group 253"><path fill="url(#r)" d="M0 0h1.054v1.215H0z" data-name="Rectangle 39" transform="rotate(-60 32.282 7.061)"></path></g></g><g data-name="Group 256"><g clip-path="url(#s)" data-name="Group 255"><path fill="url(#t)" d="M0 0h1.055v1.217H0z" data-name="Rectangle 40" transform="rotate(-60 33.235 9.802)"></path></g></g><g data-name="Group 258"><g clip-path="url(#u)" data-name="Group 257"><path fill="url(#v)" d="M0 0h1.582v1.824H0z" data-name="Rectangle 41" transform="rotate(-60 29.283 11.252)"></path></g></g><g data-name="Group 260"><g clip-path="url(#w)" data-name="Group 259"><path fill="url(#x)" d="M0 0h.771v.889H0z" data-name="Rectangle 42" transform="rotate(-60 30.29 13.694)"></path></g></g><g data-name="Group 262"><g clip-path="url(#y)" data-name="Group 261"><path fill="url(#z)" d="M0 0h2.269v2.618H0z" data-name="Rectangle 43" transform="rotate(-60 33.514 8.783)"></path></g></g><g data-name="Group 264"><g clip-path="url(#A)" data-name="Group 263"><path fill="url(#B)" d="M0 0h13.675v12.186H0z" data-name="Rectangle 44" transform="translate(-.032 24.317)"></path></g></g><g data-name="Group 279"><g clip-path="url(#c)" data-name="Group 278"><g data-name="Group 269" opacity=".5" style="mix-blend-mode:multiply;isolation:isolate"><g data-name="Group 268"><g clip-path="url(#C)" data-name="Group 267"><g data-name="Group 266"><g clip-path="url(#D)" data-name="Group 265"><path fill="url(#b)" d="M0 0h14.642v9.442H0z" data-name="Rectangle 45" transform="rotate(-9.376 178.322 22.235)"></path></g></g></g></g></g><g data-name="Group 274" opacity=".5" style="mix-blend-mode:multiply;isolation:isolate"><g data-name="Group 273"><g clip-path="url(#E)" data-name="Group 272"><g data-name="Group 271"><g clip-path="url(#F)" data-name="Group 270"><path fill="url(#G)" d="M0 0h13.869v6.709H0z" data-name="Rectangle 47" transform="rotate(-11.591 159.864 19.391)"></path></g></g></g></g></g><g data-name="Group 277" opacity=".4"><g data-name="Group 276"><g clip-path="url(#H)" data-name="Group 275"><path fill="#f9f9fe" d="M6.693 26.336a.33.33 0 0 1 .006.141.074.074 0 0 1-.126.036.308.308 0 0 1-.056-.126.092.092 0 1 1 .176-.05m.865-.637a.5.5 0 0 0-.223.147c-.031.047-.009.131.051.134a.463.463 0 0 0 .245-.1c.1-.06.038-.241-.072-.186m-.119 1.747a.267.267 0 0 0-.015.207.1.1 0 0 0 .2-.028.262.262 0 0 0-.061-.2.076.076 0 0 0-.125.018m.364-2.17a.654.654 0 0 0-.3-.081.093.093 0 0 0-.038.16.153.153 0 0 0 .026.017.2.2 0 0 1-.09-.04.079.079 0 0 0-.116.1.174.174 0 0 0 .244.1.089.089 0 0 0 .029-.123c.065.025.136.036.2.053.1.026.139-.15.045-.185m-.626 1.39c.081.036.159.089.248.063a.1.1 0 0 0 .051-.134c-.055-.092-.153-.11-.243-.146-.127-.05-.176.165-.056.217m.84-.335a.355.355 0 0 1-.158.007c-.1-.029-.133.126-.041.162a.22.22 0 0 0 .248-.035c.044-.042.012-.14-.048-.133m-1.179-.9a.094.094 0 0 0-.039-.159.454.454 0 0 0-.266.071c-.092.038-.051.208.047.185a.472.472 0 0 0 .258-.1m.88.553c-.065.018-.039.128.027.11s.039-.129-.027-.11m-.526-.623a.086.086 0 0 0 .029-.126c-.058-.085-.161-.084-.25-.1s-.129.136-.042.173.173.093.264.051m.686 1.594a.106.106 0 0 0 .091-.047.08.08 0 0 0-.049-.132c-.014 0-.023 0-.026-.013a.08.08 0 0 0-.158.022v.016a.213.213 0 0 0-.094-.064.078.078 0 0 0-.1.059.393.393 0 0 0 .162.324.774.774 0 0 0 .3.175c.1.033.167-.133.071-.186a.8.8 0 0 1-.2-.154m-.37.3c.111-.046.065-.242-.046-.2a.407.407 0 0 1-.191.018c-.081 0-.094.107-.039.152a.271.271 0 0 0 .275.026m1.611-1.381a.1.1 0 0 0-.016-.143.443.443 0 0 0-.293.008c-.136.026-.081.254.054.227a.424.424 0 0 0 .255-.092m.092.206a.147.147 0 0 0-.111.088.1.1 0 0 0 .029.123.137.137 0 0 0 .137.019c.136-.035.08-.271-.055-.23m-.092.676c-.079.01-.108.133-.021.161a.206.206 0 0 0 .053.013c.121.022.14-.178.023-.178a.214.214 0 0 0-.055 0m.648-.88a.084.084 0 0 0-.1-.107.266.266 0 0 0-.152.111c-.066.084.017.218.111.158a.3.3 0 0 0 .139-.162m-1.57-.6a.4.4 0 0 0-.171.068.088.088 0 0 0 .038.15.342.342 0 0 0 .159-.024c.11-.03.088-.225-.025-.195m2.157.872a.106.106 0 0 0-.018-.157c-.152-.088-.327.048-.4.194-.043.083.046.2.124.138.093-.072.214-.094.3-.175m-1.943.682a.1.1 0 0 0-.031.122c.042.1.162.137.248.184.116.063.216-.12.1-.191a.5.5 0 0 0-.278-.124.109.109 0 0 0-.053-.202c-.046.009-.1-.021-.143-.019a.1.1 0 0 0-.068.038c-.059 0-.082.1-.019.11l.03.007a.185.185 0 0 0 .211.082m.246-.525a.114.114 0 0 0 0 .147.35.35 0 0 0 .4.038.131.131 0 0 0 0-.213.346.346 0 0 0-.4.028m-.151-.279a.859.859 0 0 1-.2-.035l-.064-.019a.584.584 0 0 0 .042-.057.11.11 0 1 0-.184-.119c-.043.063-.112.086-.149.153a.1.1 0 0 0 .049.141.165.165 0 0 0 .065 0 .125.125 0 0 0 0 .018c.081.162.317.147.455.108a.1.1 0 0 0-.021-.194m2.417.111a.331.331 0 0 0-.006-.141c-.027-.126-.207-.073-.176.05a.3.3 0 0 0 .056.126.074.074 0 0 0 .126-.036m-5.336.012a.114.114 0 1 0-.208-.094.2.2 0 0 0-.007.148.087.087 0 0 0 .118.051.182.182 0 0 0 .1-.106m-.942.445a.361.361 0 0 1-.1-.012.1.1 0 0 0-.1.14.175.175 0 0 0 .248.08c.1-.045.058-.227-.052-.207m-1.109.023c.017.071.1.114.149.043a1.018 1.018 0 0 1 .12-.2c.054-.05.133-.075.171-.141a.1.1 0 0 0-.035-.139c-.193-.117-.453.243-.406.439m.783 1.524a.174.174 0 0 0 .244.1.089.089 0 0 0 .029-.123 2.045 2.045 0 0 0 .2.052c.1.027.139-.149.045-.184a.654.654 0 0 0-.3-.081.093.093 0 0 0-.038.16.153.153 0 0 0 .026.017.2.2 0 0 1-.09-.04.079.079 0 0 0-.116.1m.011-1.677a.252.252 0 0 0-.1-.128c-.079-.069-.193.055-.125.14.04.05.06.088.12.107s.128-.039.1-.118m.619-.519-.025.03a.091.091 0 0 0 .1.142l.036-.015c.133-.06 0-.287-.112-.157m-.15.559a1.047 1.047 0 0 0 .146.008c0 .03.02.06.056.055a.051.051 0 0 0 .041-.057c.043 0 .088-.006.129-.01a.1.1 0 0 0 .022-.189.417.417 0 0 0-.431.049.085.085 0 0 0 .037.146m-1.72 1.54a.115.115 0 0 0 0 .147.35.35 0 0 0 .4.038.131.131 0 0 0 0-.213.347.347 0 0 0-.4.028m.978-1.42c.049-.119-.124-.2-.17-.077a.321.321 0 0 0-.03.152.075.075 0 0 0 .121.054.3.3 0 0 0 .079-.129m-.652.559a.085.085 0 0 0-.1-.108.269.269 0 0 0-.152.111c-.065.084.017.218.111.158a.3.3 0 0 0 .139-.161m3.221-.372c-.145.007-.149.254 0 .249.1 0 .2.013.281-.06a.109.109 0 0 0-.018-.16c-.075-.058-.173-.032-.26-.029m-4.349 1.1c.092-.073.214-.094.3-.176a.106.106 0 0 0-.018-.156c-.153-.088-.327.048-.4.194-.042.082.047.2.125.138m4.445-.379c.092-.072.214-.093.3-.175a.106.106 0 0 0-.018-.156c-.153-.088-.327.048-.4.194-.042.082.047.2.125.137m2.916-1.257a.326.326 0 0 0-.216.052.1.1 0 0 0 .019.167.317.317 0 0 0 .219-.02c.1-.035.086-.2-.022-.2m-2.7-.376a.084.084 0 0 0-.02-.154.267.267 0 0 0-.143.016c-.073.023-.054.162.02.163a.268.268 0 0 0 .143-.025m-.054 2.1c-.014-.062.044-.093.067-.143a.1.1 0 0 0-.05-.137c-.172-.053-.26.189-.219.338a.1.1 0 1 0 .2-.058M6.3 27c-.065.018-.039.129.027.111S6.368 26.98 6.3 27m.176-1.032a.669.669 0 0 0-.12-.228c-.071-.128-.23-.018-.179.113.039.1.09.208.189.235.072.018.119-.047.111-.12m-.711 1.523a.266.266 0 0 0-.152.111c-.066.084.017.218.111.158a.3.3 0 0 0 .139-.162.084.084 0 0 0-.1-.107m.14-.42a.422.422 0 0 0 .254-.092.1.1 0 0 0-.016-.143.44.44 0 0 0-.292.008c-.137.026-.081.253.054.227m.9 2.061A.1.1 0 0 0 6.817 29c-.046-.052-.112-.067-.154-.124-.089-.122-.257.034-.169.156.078.107.2.178.313.1m-2.675 1.347c-.066.011-.049.125.017.113s.049-.126-.017-.113m4.341-2.4c-.137.013-.1.245.037.232a.417.417 0 0 0 .261-.068.1.1 0 0 0-.006-.144.444.444 0 0 0-.292-.02M8.095 29.1c.077.111.252.127.369.159a.118.118 0 0 0 .076-.222c-.128-.053-.277-.146-.413-.1-.061.022-.065.112-.032.16M6.6 31.425c.082-.034.145-.05.179-.145a.094.094 0 0 0-.048-.117c-.083-.04-.147 0-.225.041-.134.061-.039.278.094.221m.065-.625a1.453 1.453 0 0 0 .273-.017.162.162 0 0 0 .124-.261.14.14 0 0 0-.246.047c-.02.047-.117.045-.157.048-.1.007-.084.169.006.184m-.98-2.281a1.373 1.373 0 0 0 .275-.02.161.161 0 0 0 .124-.26.14.14 0 0 0-.246.047c-.02.047-.117.045-.157.048-.1.006-.084.169.006.184M7.3 30.967c.066-.012.048-.125-.018-.113s-.048.126.018.113m.69-.808a.634.634 0 0 0 .119-.256c.022-.077-.075-.14-.117-.068-.079.135-.256.1-.322.25a.127.127 0 0 0 .039.141c.1.072.2.017.279-.068m-.661.371c.076.11.251.126.369.158a.118.118 0 0 0 .075-.222c-.127-.053-.277-.146-.412-.1-.062.022-.065.113-.032.161m1.033.263c-.013.056 0 .13.062.148.14.04.227-.076.329-.163s-.007-.251-.117-.2-.245.08-.274.213m-2.706-1.049a.474.474 0 0 0 .127-.057c.123-.073.033-.29-.094-.218a.5.5 0 0 0-.116.08c-.07.07-.02.222.083.195m2.877.364a.48.48 0 0 0-.116.08c-.07.07-.021.222.082.195a.461.461 0 0 0 .127-.057c.124-.073.033-.29-.093-.218m-6.187-.8c.1-.085-.006-.251-.116-.2s-.245.079-.274.212c-.013.056 0 .131.061.148.141.04.227-.076.329-.163m2.921 1.467c-.013.055 0 .13.062.147.14.041.226-.075.328-.162s-.006-.252-.116-.2-.245.079-.274.213m-3.988-2.081a.482.482 0 0 0 .126-.056c.124-.073.033-.29-.093-.219a.5.5 0 0 0-.116.081c-.07.07-.02.222.083.194m.452 2.08c.077.111.252.127.369.159a.118.118 0 0 0 .076-.222c-.128-.054-.277-.146-.413-.1-.061.021-.065.112-.032.16m2.791-1.049a.126.126 0 0 0 .039.14c.1.072.205.018.279-.067a.614.614 0 0 0 .119-.257c.023-.076-.074-.14-.117-.068-.079.136-.255.1-.322.251m-.56 1.39c.077.11.252.127.369.159a.118.118 0 0 0 .076-.223c-.128-.053-.277-.145-.413-.1-.061.022-.065.113-.032.161m-.734-.891a1.368 1.368 0 0 0 .272-.018.161.161 0 0 0 .124-.261.141.141 0 0 0-.246.048c-.02.047-.117.045-.157.048-.1.006-.083.169.007.184m6.218-1.3a1.368 1.368 0 0 0 .272-.018.161.161 0 0 0 .124-.26.14.14 0 0 0-.246.047c-.02.047-.117.045-.157.048-.1.006-.083.169.007.184m1.692-.009c-.013.056 0 .131.062.148.14.041.226-.075.328-.163s-.006-.251-.116-.2-.245.079-.274.212m-.234-1.577a.1.1 0 0 0 .01-.128c-.046-.052-.112-.067-.153-.124-.09-.122-.258.034-.169.156.078.106.2.178.312.1m-.143.947a.622.622 0 0 0 .119-.256c.023-.077-.074-.141-.117-.068-.079.135-.255.1-.322.25a.125.125 0 0 0 .039.14c.1.073.205.018.279-.067m-.332 1.672a.127.127 0 0 0 .039.141c.1.072.2.017.279-.068a.622.622 0 0 0 .119-.256c.023-.077-.074-.14-.117-.068-.079.135-.255.1-.322.25m.875-1.729a.535.535 0 0 0-.116.081c-.07.07-.02.222.083.195a.506.506 0 0 0 .127-.057c.123-.073.033-.29-.094-.219m-1.2.427c.076.111.252.127.369.159a.118.118 0 0 0 .075-.222c-.127-.054-.276-.146-.412-.1-.061.021-.065.112-.032.16m1.37-.645c.078.106.2.177.312.1a.1.1 0 0 0 .011-.129c-.047-.051-.113-.066-.154-.123-.09-.122-.258.034-.169.156m.747.371a.218.218 0 0 0 .143.041c.129 0 .149-.217.019-.221a.242.242 0 0 0-.15.029.094.094 0 0 0-.012.151m-3.527 3.724c.081-.034.144-.05.179-.145a.1.1 0 0 0-.049-.117c-.082-.041-.147 0-.225.041-.133.06-.038.278.1.221m.677-.811c.081-.034.144-.05.179-.145a.1.1 0 0 0-.049-.117c-.082-.041-.147 0-.225.04-.133.061-.038.279.1.222m.708-2.2c.066-.012.049-.126-.018-.113s-.048.126.018.113m-.694.458c.081-.034.144-.051.179-.145a.1.1 0 0 0-.049-.117c-.082-.041-.147 0-.225.04-.133.061-.038.279.1.222m-.679.351c.077.107.2.178.312.1a.1.1 0 0 0 .01-.128c-.046-.052-.112-.067-.154-.124-.089-.122-.257.034-.168.156m1.05-1.451a.543.543 0 0 0 .237.084.09.09 0 0 0 .087-.088c.117.061.258-.075.317-.18a.617.617 0 0 0 .081-.39.078.078 0 1 0-.152.029.278.278 0 0 1-.111.259.32.32 0 0 1-.076.039.165.165 0 0 1-.015-.106.071.071 0 0 0-.138-.035.383.383 0 0 0 .03.272v.018a1.273 1.273 0 0 0-.325-.174c-.1-.043-.151.078-.108.156l-.039.018a.413.413 0 0 1-.169.029.094.094 0 0 0-.038.179c.127.067.37.068.42-.108m-.224-.678c.1.007.2.031.285-.034a.108.108 0 0 0-.006-.16c-.07-.065-.17-.049-.257-.053-.145-.008-.169.239-.022.247m.535 3.065c.066-.012.048-.126-.017-.113s-.049.126.017.113" data-name="Path 786"></path></g></g></g><path fill="#fff" d="M16.75 8.295a.755.755 0 0 1-.6-.258 1.164 1.164 0 0 1-.207-.875 1.307 1.307 0 0 1-.9-.923.41.41 0 0 1 .039-.319.392.392 0 0 1 .238-.186 1.978 1.978 0 0 1 .519-.074 1.717 1.717 0 0 1 .173.01.9.9 0 0 1 .443-1.108.631.631 0 0 1 .258-.056.692.692 0 0 1 .59.36.773.773 0 0 1 .1.287 1.483 1.483 0 0 1 .619-.133 1.21 1.21 0 0 1 1.242.918.98.98 0 0 1-.62 1.144 1.29 1.29 0 0 1-.493.1 1.552 1.552 0 0 1-.354-.042 1.156 1.156 0 0 1-.185.754.964.964 0 0 1-.663.388 1.244 1.244 0 0 1-.2.017" data-name="Path 787"></path><path fill="#6a3ab5" d="M16.713 4.633a.565.565 0 0 1 .478.295.83.83 0 0 1 .093.437 1.328 1.328 0 0 1 .737-.218 1.087 1.087 0 0 1 1.115.819.851.851 0 0 1-.543 1 1.149 1.149 0 0 1-.444.087 1.641 1.641 0 0 1-.508-.088.909.909 0 0 1-.715 1.191 1.089 1.089 0 0 1-.177.015c-.6 0-.754-.579-.659-1.1a1.185 1.185 0 0 1-.924-.862.28.28 0 0 1 .187-.346 1.848 1.848 0 0 1 .483-.068 1.321 1.321 0 0 1 .354.046c-.145-.441-.142-.949.317-1.156a.5.5 0 0 1 .2-.045m0-.257a.762.762 0 0 0-.312.068.975.975 0 0 0-.544 1.088h-.019a2.119 2.119 0 0 0-.554.078.523.523 0 0 0-.317.248.541.541 0 0 0-.05.416 1.454 1.454 0 0 0 .89.978 1.226 1.226 0 0 0 .246.868.881.881 0 0 0 .7.3 1.4 1.4 0 0 0 .22-.018 1.11 1.11 0 0 0 .748-.441 1.224 1.224 0 0 0 .211-.672 1.593 1.593 0 0 0 .221.015 1.41 1.41 0 0 0 .545-.107 1.1 1.1 0 0 0 .7-1.29 1.336 1.336 0 0 0-1.369-1.019 1.655 1.655 0 0 0-.526.087.891.891 0 0 0-.079-.177.825.825 0 0 0-.7-.424" data-name="Path 788"></path><path fill="#fff" d="M13.808 6.177a.386.386 0 0 1-.386-.375 1.632 1.632 0 0 1 .113-.6c-.508-.048-.8-.282-.857-.657a.6.6 0 0 1 .485-.664.686.686 0 0 1 .17-.021.751.751 0 0 1 .094.006 1.322 1.322 0 0 1 .234-.948 1.055 1.055 0 0 1 .869-.446.92.92 0 0 1 .923.826 1.194 1.194 0 0 1-.156.729 1.07 1.07 0 0 1 .6.345.873.873 0 0 1 .179.672.71.71 0 0 1-.747.694 1.334 1.334 0 0 1-.486-.1 1.2 1.2 0 0 1-1.035.539Z" data-name="Path 789"></path><path fill="#6a3ab5" d="M14.531 2.6h.056a.773.773 0 0 1 .737.711 1.161 1.161 0 0 1-.238.811c.489.046.933.324.866.906a.583.583 0 0 1-.618.58 1.266 1.266 0 0 1-.54-.137 1.072 1.072 0 0 1-.981.575.254.254 0 0 1-.256-.244 1.381 1.381 0 0 1 .188-.722h-.062c-.4 0-.808-.137-.873-.558A.473.473 0 0 1 13.194 4a.6.6 0 0 1 .14-.016.98.98 0 0 1 .268.045 1.068 1.068 0 0 1 .929-1.429m0-.257a1.183 1.183 0 0 0-.975.5 1.432 1.432 0 0 0-.271.89.914.914 0 0 0-.153.022.725.725 0 0 0-.583.808.907.907 0 0 0 .81.75 1.839 1.839 0 0 0-.067.488.488.488 0 0 0 .146.351.536.536 0 0 0 .37.154 1.353 1.353 0 0 0 1.086-.514 1.4 1.4 0 0 0 .438.074.837.837 0 0 0 .876-.807A1 1 0 0 0 16 4.291a1.139 1.139 0 0 0-.521-.346 1.27 1.27 0 0 0 .1-.664 1.028 1.028 0 0 0-.982-.938Z" data-name="Path 790"></path><path fill="#fff" d="M21.132 8.655a.385.385 0 0 1-.385-.375 1.651 1.651 0 0 1 .112-.6c-.507-.049-.8-.282-.856-.658a.6.6 0 0 1 .485-.663.675.675 0 0 1 .17-.021.762.762 0 0 1 .094.006 1.321 1.321 0 0 1 .234-.948 1.055 1.055 0 0 1 .869-.446.918.918 0 0 1 .922.826 1.189 1.189 0 0 1-.155.728 1.079 1.079 0 0 1 .6.346.869.869 0 0 1 .178.672.709.709 0 0 1-.746.694 1.33 1.33 0 0 1-.486-.1 1.2 1.2 0 0 1-1.038.539Z" data-name="Path 791"></path><path fill="#6a3ab5" d="M21.856 5.077h.056a.773.773 0 0 1 .737.711 1.161 1.161 0 0 1-.238.811c.489.046.933.324.865.906a.582.582 0 0 1-.617.58 1.266 1.266 0 0 1-.54-.137 1.072 1.072 0 0 1-.981.575.255.255 0 0 1-.257-.244 1.4 1.4 0 0 1 .188-.722h-.061c-.4 0-.808-.138-.873-.559a.473.473 0 0 1 .387-.52.6.6 0 0 1 .14-.016.98.98 0 0 1 .268.045 1.068 1.068 0 0 1 .929-1.434m0-.257a1.182 1.182 0 0 0-.975.5 1.434 1.434 0 0 0-.271.89.914.914 0 0 0-.153.022.725.725 0 0 0-.583.808.907.907 0 0 0 .81.75 1.839 1.839 0 0 0-.067.488.488.488 0 0 0 .146.351.536.536 0 0 0 .37.154 1.353 1.353 0 0 0 1.084-.509 1.4 1.4 0 0 0 .438.074.837.837 0 0 0 .876-.808.994.994 0 0 0-.206-.767 1.139 1.139 0 0 0-.521-.346 1.268 1.268 0 0 0 .1-.664 1.029 1.029 0 0 0-.982-.938Z" data-name="Path 792"></path><path fill="#fff" d="M19.633 9.393a.91.91 0 0 1-.713-.449 1.086 1.086 0 0 1-.421.084 1.169 1.169 0 0 1-.649-.2.364.364 0 0 1-.154-.236.336.336 0 0 1 .053-.259 1.514 1.514 0 0 1 .384-.391.751.751 0 0 1-.3-.941.538.538 0 0 1 .5-.3.653.653 0 0 1 .224.04.661.661 0 0 1 .2.116 1.193 1.193 0 0 1 1.029-.658.984.984 0 0 1 .589.2.824.824 0 0 1 .227 1.075 1.113 1.113 0 0 1-.488.474.964.964 0 0 1 .273.564.81.81 0 0 1-.216.608.715.715 0 0 1-.544.281" data-name="Path 793"></path><path fill="#6a3ab5" d="M19.791 6.321a.845.845 0 0 1 .509.179.7.7 0 0 1 .191.912 1.08 1.08 0 0 1-.6.5.743.743 0 0 1 .187 1.126.588.588 0 0 1-.445.236.855.855 0 0 1-.664-.485.987.987 0 0 1-.47.121 1.03 1.03 0 0 1-.575-.182.229.229 0 0 1-.067-.316 1.3 1.3 0 0 1 .516-.453c-.328-.2-.6-.525-.419-.895a.413.413 0 0 1 .384-.231.536.536 0 0 1 .179.032.69.69 0 0 1 .294.227 1.068 1.068 0 0 1 .979-.763m0-.257a1.317 1.317 0 0 0-1.07.6.732.732 0 0 0-.114-.052.788.788 0 0 0-.269-.048.675.675 0 0 0-.619.378.825.825 0 0 0 .212.987 1.769 1.769 0 0 0-.289.325.466.466 0 0 0-.074.357.5.5 0 0 0 .21.318 1.3 1.3 0 0 0 .721.225 1.212 1.212 0 0 0 .374-.058 1 1 0 0 0 .76.422.841.841 0 0 0 .643-.325.937.937 0 0 0 .247-.7 1.03 1.03 0 0 0-.207-.519 1.2 1.2 0 0 0 .408-.449.948.948 0 0 0-.265-1.235 1.111 1.111 0 0 0-.668-.225" data-name="Path 794"></path><path fill="#fff" d="M23.125 6.672a.374.374 0 0 1-.26-.114.34.34 0 0 1-.1-.246 1.526 1.526 0 0 1 .108-.536.765.765 0 0 1-.768-.628.558.558 0 0 1 .465-.611.675.675 0 0 1 .145-.016.817.817 0 0 1 .086 0 1.211 1.211 0 0 1 .229-.848.978.978 0 0 1 .8-.407.855.855 0 0 1 .859.782 1.092 1.092 0 0 1-.148.659.994.994 0 0 1 .539.328.8.8 0 0 1 .152.625.658.658 0 0 1-.689.632 1.245 1.245 0 0 1-.457-.1 1.11 1.11 0 0 1-.936.474Z" data-name="Path 795"></path><path fill="#6a3ab5" d="M23.832 3.4h.068a.708.708 0 0 1 .663.664 1.062 1.062 0 0 1-.233.738c.447.051.848.314.776.845a.532.532 0 0 1-.561.521 1.145 1.145 0 0 1-.507-.134.983.983 0 0 1-.886.51h-.025a.233.233 0 0 1-.23-.229 1.281 1.281 0 0 1 .184-.657h-.025c-.379 0-.767-.128-.82-.527a.434.434 0 0 1 .364-.469.555.555 0 0 1 .117-.012.856.856 0 0 1 .254.046.981.981 0 0 1 .859-1.3m0-.257a1.106 1.106 0 0 0-.9.459 1.331 1.331 0 0 0-.261.793.874.874 0 0 0-.123.017.685.685 0 0 0-.565.753.841.841 0 0 0 .722.715 1.739 1.739 0 0 0-.065.428.467.467 0 0 0 .135.34.506.506 0 0 0 .351.154 1.286 1.286 0 0 0 1.01-.447 1.315 1.315 0 0 0 .412.071.787.787 0 0 0 .819-.744.933.933 0 0 0-.179-.722 1.064 1.064 0 0 0-.459-.325 1.177 1.177 0 0 0 .1-.6.963.963 0 0 0-.9-.895h-.088" data-name="Path 796"></path><path fill="#fff" d="M12.986 4.236a.914.914 0 0 1-.714-.448 1.084 1.084 0 0 1-.42.084 1.169 1.169 0 0 1-.649-.2.364.364 0 0 1-.155-.235.339.339 0 0 1 .054-.259 1.536 1.536 0 0 1 .383-.393.751.751 0 0 1-.3-.939.539.539 0 0 1 .5-.3.649.649 0 0 1 .224.04.666.666 0 0 1 .2.116 1.189 1.189 0 0 1 1.027-.658.979.979 0 0 1 .59.2.821.821 0 0 1 .228 1.073 1.117 1.117 0 0 1-.489.475.963.963 0 0 1 .274.564.818.818 0 0 1-.216.609.716.716 0 0 1-.544.28" data-name="Path 797"></path><path fill="#6a3ab5" d="M13.144 1.164a.845.845 0 0 1 .511.174.7.7 0 0 1 .191.912 1.08 1.08 0 0 1-.6.5.743.743 0 0 1 .187 1.126.588.588 0 0 1-.445.236.855.855 0 0 1-.664-.485.987.987 0 0 1-.47.121 1.03 1.03 0 0 1-.575-.182.229.229 0 0 1-.067-.316 1.287 1.287 0 0 1 .516-.452c-.328-.2-.6-.526-.419-.9a.412.412 0 0 1 .383-.231.537.537 0 0 1 .18.032.69.69 0 0 1 .294.227 1.068 1.068 0 0 1 .979-.763m0-.257a1.317 1.317 0 0 0-1.07.6.732.732 0 0 0-.114-.052.789.789 0 0 0-.27-.048.676.676 0 0 0-.618.377.826.826 0 0 0 .212.988A1.769 1.769 0 0 0 11 3.1a.464.464 0 0 0-.074.356.5.5 0 0 0 .21.319 1.3 1.3 0 0 0 .716.225 1.217 1.217 0 0 0 .374-.058 1 1 0 0 0 .76.422.841.841 0 0 0 .643-.325.937.937 0 0 0 .247-.7 1.039 1.039 0 0 0-.207-.519 1.2 1.2 0 0 0 .408-.449.948.948 0 0 0-.265-1.235 1.111 1.111 0 0 0-.668-.225" data-name="Path 798"></path><path fill="#d2d6fc" d="M49.419 37.147a1.477 1.477 0 0 1-1.651.9 1.073 1.073 0 0 1-1.421.635A1.2 1.2 0 0 1 45.762 37c-.642-.2-1.238-.689-.676-1.5a1.372 1.372 0 0 1 1.267-.651V34.8a.844.844 0 0 1 .869-.694.594.594 0 0 1 .378.269.862.862 0 0 1 1.022-.107 1.044 1.044 0 0 1 .482 1.155 1.529 1.529 0 0 1 .312 1.728" data-name="Path 799"></path><path fill="none" stroke="#906fce" stroke-miterlimit="10" stroke-width=".287" d="M49.419 37.147a1.477 1.477 0 0 1-1.651.9 1.073 1.073 0 0 1-1.421.635A1.2 1.2 0 0 1 45.762 37c-.642-.2-1.238-.689-.676-1.5a1.372 1.372 0 0 1 1.267-.651V34.8a.844.844 0 0 1 .869-.694.594.594 0 0 1 .378.269.862.862 0 0 1 1.022-.107 1.044 1.044 0 0 1 .482 1.155 1.529 1.529 0 0 1 .315 1.724Z" data-name="Path 800"></path><path fill="#fff" d="M48.076 37.646a.841.841 0 0 1-.676-.366l-.081-.117-.119.08a.74.74 0 0 1-.283.123 1.583 1.583 0 0 1-.314.032.613.613 0 0 1-.5-.182 1.065 1.065 0 0 1 .097-1.006.673.673 0 0 1 .284-.254l.153-.071-.094-.138a.516.516 0 0 1 .1-.7.458.458 0 0 1 .278-.1.552.552 0 0 1 .418.226l.085.108.113-.078a.877.877 0 0 1 .5-.166.675.675 0 0 1 .547.28.622.622 0 0 1-.01.772l-.08.1.1.087a.823.823 0 0 1 .28.592.738.738 0 0 1-.248.548.77.77 0 0 1-.535.225" data-name="Path 801"></path><path fill="#906fce" d="M46.915 35.091a.4.4 0 0 1 .3.171l.17.216.225-.157a.743.743 0 0 1 .413-.14.53.53 0 0 1 .433.224.479.479 0 0 1-.01.6l-.16.206.193.176a.685.685 0 0 1 .234.488.6.6 0 0 1-.205.445.627.627 0 0 1-.434.184.7.7 0 0 1-.558-.3l-.163-.233-.237.158a.624.624 0 0 1-.232.1 1.458 1.458 0 0 1-.285.029.468.468 0 0 1-.378-.117.938.938 0 0 1 .094-.851.527.527 0 0 1 .224-.2l.305-.142-.189-.276a.379.379 0 0 1 .064-.507.32.32 0 0 1 .192-.07m0-.285a.608.608 0 0 0-.366.128.659.659 0 0 0-.129.893.812.812 0 0 0-.344.306 1.194 1.194 0 0 0-.1 1.161.719.719 0 0 0 .622.247 1.773 1.773 0 0 0 .343-.035.916.916 0 0 0 .336-.145.984.984 0 0 0 .8.427.908.908 0 0 0 .635-.265.888.888 0 0 0-.033-1.347.762.762 0 0 0 .01-.945.821.821 0 0 0-.663-.336 1.028 1.028 0 0 0-.58.192.69.69 0 0 0-.532-.282" data-name="Path 802"></path><path fill="#d2d6fc" d="M48.017 36.313a.476.476 0 1 1-.476-.47.473.473 0 0 1 .476.47" data-name="Path 803"></path></g></g></g></svg>