<svg xmlns="http://www.w3.org/2000/svg" viewBox="0 0 45 110"><defs><clipPath id="a"><path fill="none" d="M0-.001h45V110H0z" data-name="Rectangle 4"></path></clipPath></defs><g data-name="Wedding planners"><path fill="#6a3ab5" d="m19.263 4.091.487 18.386 11.724.34.111-16.033L25.164.646Z" data-name="Path 50"></path><g data-name="Group 6"><g clip-path="url(#a)" data-name="Group 5"><path fill="#efc29b" d="M12.111 31.405c-1.654.1-3.43.5-5.074.13-.685-.155-2.885-1.024-2.6.712.131.791 1.518 1.265 2.12 1.515a22.01 22.01 0 0 0 5.118 1.338l.436-3.693" data-name="Path 51"></path><path fill="#a2acf8" d="M23.248 15.819C19.717 14 18.84 18.372 18.735 21c-.093 2.3-.157 4.595-.377 6.89a35.63 35.63 0 0 1-.494 3.934 23.408 23.408 0 0 0-2.807-.294c-1.73-.1-3.463-.15-5.191-.267-1.487-.1-2.626-.566-3.334 1.1-.2.479-.422 1.359-.045 1.749.286.3 1.157.4 1.549.528 1.279.41 2.572.827 3.881 1.127 1.942.444 7.92 2.286 9.3-.316.873-1.281 1.106-3.337 1.5-4.651a29.238 29.238 0 0 0 1.166-4.722c.264-2.081.221-4.118.642-6.191.344-1.692.458-3.18-1.273-4.074" data-name="Path 52"></path><path fill="none" stroke="#6a3ab5" stroke-miterlimit="10" stroke-width=".647" d="M23.248 15.819C19.717 14 18.84 18.372 18.735 21c-.093 2.3-.157 4.595-.377 6.89a35.63 35.63 0 0 1-.494 3.934 23.408 23.408 0 0 0-2.807-.294c-1.73-.1-3.463-.15-5.191-.267-1.487-.1-2.626-.566-3.334 1.1-.2.479-.422 1.359-.045 1.749.286.3 1.157.4 1.549.528 1.279.41 2.572.827 3.881 1.127 1.942.444 7.92 2.286 9.3-.316.873-1.281 1.106-3.337 1.5-4.651a29.238 29.238 0 0 0 1.166-4.722c.264-2.081.221-4.118.642-6.191.34-1.687.455-3.174-1.277-4.068Z" data-name="Path 53"></path><path fill="#fff" d="m16.823 41.068-6.189-1.349c-.9-.2-2.567-.224-3.356-.73-.552-.355-.72-1.579-.942-2.234l-4.3-12.676-1.247-3.674 7.786 1.7c.929.2 1.688.06 2.1.843a12.675 12.675 0 0 1 .6 1.772l4.3 12.676 1.247 3.676" data-name="Path 54"></path><path fill="#6a3ab5" d="m16.747 40.843-6.189-1.349c-.9-.2-2.567-.224-3.356-.73-.552-.354-.72-1.579-.942-2.234l-4.3-12.676L.713 20.18l7.786 1.7c.929.2 1.688.06 2.1.843a12.511 12.511 0 0 1 .6 1.772l4.3 12.676 1.247 3.676" data-name="Path 55"></path><path fill="#a2acf8" d="m16.362 41.188-6.189-1.349c-.9-.2-2.567-.224-3.356-.73-.552-.354-.72-1.579-.942-2.232q-2.149-6.34-4.3-12.677L.328 20.525l7.786 1.7c.929.2 1.688.06 2.1.842a12.583 12.583 0 0 1 .6 1.773l4.3 12.676 1.247 3.676" data-name="Path 56"></path><path fill="#573095" d="M16.033 41.588 9.845 40.24c-.9-.2-2.567-.224-3.356-.73-.552-.354-.72-1.579-.942-2.232Q3.4 30.939 1.247 24.6L0 20.926l7.786 1.7c.929.2 1.688.06 2.1.843a12.455 12.455 0 0 1 .6 1.772l4.3 12.676 1.247 3.676" data-name="Path 57"></path><path fill="#d2d6fc" d="M4.411 34.143a1.729 1.729 0 0 1-1.164-.333.528.528 0 0 1-.151-.4.573.573 0 0 1 .12-.328.66.66 0 0 1-.487-.618.6.6 0 0 1 .12-.35.606.606 0 0 1-.337-.547.59.59 0 0 1 .219-.456 1.344 1.344 0 0 1-.655-.459.6.6 0 0 1-.088-.483c.046-.194.219-.521.848-.521a3.784 3.784 0 0 1 2.268.89l.062.091-.013.2a.51.51 0 0 1-.06.115 1.625 1.625 0 0 1 .835.351l.054.07.005.143a.631.631 0 0 1-.3.424c.563.18.533.383.52.471a.747.747 0 0 1-.452.521.909.909 0 0 1 .427.238l.053.07v.135c-.082.564-1.135.769-1.824.769" data-name="Path 58"></path><path fill="#6a3ab5" d="M2.837 29.862c.851 0 2.211.66 2.123.9-.057.151-.243.243-.481.3.7.075 1.327.269 1.305.422-.033.226-.355.4-.767.518.557.091 1 .249.985.377-.041.282-.511.492-1.07.595.592.074 1.119.238 1.1.368-.053.362-.887.592-1.619.592-.6 0-1.122-.152-1.107-.51.01-.215.184-.345.436-.418-.456-.064-.807-.228-.8-.535a.458.458 0 0 1 .328-.409c-.322-.087-.55-.24-.547-.487.005-.285.281-.436.662-.5-.678-.115-1.295-.419-1.192-.85.063-.262.317-.361.647-.361m0-.419c-.8 0-1 .476-1.049.681a.813.813 0 0 0 .115.647 1.309 1.309 0 0 0 .5.426.807.807 0 0 0-.094.372.781.781 0 0 0 .273.609.82.82 0 0 0-.055.286.8.8 0 0 0 .409.713.815.815 0 0 0-.042.226.732.732 0 0 0 .207.551 1.866 1.866 0 0 0 1.313.4c.7 0 1.919-.2 2.03-.949l.026-.174-.121-.187a.668.668 0 0 0-.172-.152.769.769 0 0 0 .237-.449.536.536 0 0 0-.35-.573.718.718 0 0 0 .133-.323l.026-.176-.126-.2a1.4 1.4 0 0 0-.718-.372.53.53 0 0 0-.1-.376 3.9 3.9 0 0 0-2.438-.98" data-name="Path 59"></path><path fill="#d2d6fc" d="M18.864 101.347a15.849 15.849 0 0 0 .888-3.276 10.385 10.385 0 0 1 .337-1.214 8.819 8.819 0 0 0 .248-.868c.045-.233.131-.57.232-.967a18.234 18.234 0 0 0 .687-3.772c0-.446.111-1.267.2-1.992.076-.591.133-1.032.154-1.336h.266c.322 0 .563.014.833.031.225.014.469.029.789.036a16.9 16.9 0 0 0 .9 4.716l-.075 2.663-.819 3.142-.8 3.541-4.44 1.643Z" data-name="Path 60"></path><path fill="#6a3ab5" d="M21.91 88.243c.3 0 .533.014.789.03.152.009.312.02.5.027a17.616 17.616 0 0 0 .865 4.394l-.05 2.586-.814 3.163-.763 3.36-.959.355-2.742 1.014.43-1.695a17.511 17.511 0 0 0 .906-3.344 10.121 10.121 0 0 1 .327-1.175 8.757 8.757 0 0 0 .257-.906c.045-.228.129-.56.229-.95a18.665 18.665 0 0 0 .7-3.85c0-.427.108-1.24.2-1.958.055-.43.1-.776.127-1.05m-.017-.651c-.17 0-.362 0-.59.014.033.495-.359 2.731-.367 3.639a27.977 27.977 0 0 1-.915 4.678c-.1.528-.438 1.313-.584 2.087a15.985 15.985 0 0 1-.884 3.255l-.748 2.943 3.891-1.441 1.286-.476.842-3.7.829-3.218.054-2.782a16.71 16.71 0 0 1-.886-4.8v-.126c-.926-.012-1.261-.074-1.928-.074" data-name="Path 61"></path><path fill="#381077" d="M25.17 92.63c1.01 1.277-.042 3.235-.084 4.725s-.116 3.837-.116 3.837l-.324.2-.467-4.3a13.341 13.341 0 0 0-.345 3.06c-.042 2-2.218 4.138-5.29 4.9-2.34.583-2.012-.59-1.646-1.3a37.563 37.563 0 0 0 1.937-3.282c.042.643 1.346.57 2.2 1.04.2.109 1.56.124 2.107-3.069.225-1.312.708-2.795.937-3.772.269-1.151.493-2.409.493-2.409Z" data-name="Path 62"></path><path fill="#d2d6fc" d="m27.847 107.046-.256-.78a9.379 9.379 0 0 0 .653-3.715 17.737 17.737 0 0 1 .333-3.073A22.692 22.692 0 0 0 29 95.016c-.055-2.422-.3-5.077-.516-6.8a19.562 19.562 0 0 1 3.828.9c-.339 2.251-.595 3.975-.595 4.551a15.916 15.916 0 0 0 .776 3.758l-.774 7.056-1.09 2.638Z" data-name="Path 63"></path><path fill="#6a3ab5" d="M28.85 88.6a19.019 19.019 0 0 1 3.1.741c-.348 2.317-.557 3.775-.557 4.328a15.88 15.88 0 0 0 .771 3.794l-.757 6.894-.994 2.434-2.33-.068-.148-.448a9.938 9.938 0 0 0 .631-3.731 17.489 17.489 0 0 1 .331-3.015 22.926 22.926 0 0 0 .421-4.525c-.05-2.236-.264-4.678-.466-6.406m-.744-.763c.252 1.894.512 4.773.566 7.183.071 3.123-.77 5.208-.752 7.53a8.66 8.66 0 0 1-.676 3.694l.368 1.117 3.224.094 1.2-2.934.783-7.125a16.285 16.285 0 0 1-.783-3.727c0-.575.293-2.527.629-4.764a20.286 20.286 0 0 0-4.558-1.067" data-name="Path 64"></path><path fill="#381077" d="m27.918 102.874-.01 1.565c-.272 1.529-.887 1.989-.064 2.227.046.013 1.615.02 1.658 0 1.352-.612 1.753-1.037 2.065-4.311.149-1.566.241-3.88.431-6.454a8.9 8.9 0 0 1 1.05 1.544 8.273 8.273 0 0 1-.552 3.725c-.369.652.091 3.167-.093 5.449s-3.685 3.236-4.422 3.33-1.585.232-1.769-1.3c-.12-1 1.013-3.486 1.706-5.77" data-name="Path 65"></path><path fill="#573095" d="M18.033 71.9c.1 1.093.722 4.959.986 7.6.2 2.025.965 11.267.978 11.819.743 2.875 5.575 1.484 5.171-.515-.243-.906-.215-10.741-.215-13.212s-.608-5.008-2.483-9.9c-.409-1.076-5.131-3.688-4.437 4.2" data-name="Path 66"></path><path fill="none" stroke="#573095" stroke-miterlimit="10" stroke-width=".598" d="M18.033 71.9c.1 1.093.722 4.959.986 7.6.2 2.025.965 11.267.978 11.819.743 2.875 5.575 1.484 5.171-.515-.243-.906-.215-10.741-.215-13.212s-.608-5.008-2.483-9.9c-.41-1.075-5.131-3.686-4.437 4.208Z" data-name="Path 67"></path><path fill="#573095" d="M26.326 49.772c-.413 3.282-1.041 6.528-1.739 9.759-.339 1.567-.693 3.134-.92 4.724s-.22 3.21-.461 4.8c-.314 2.067-1.727 3.219-3.837 2.645-1.722-.467-1.7-2.29-1.905-3.772a125.2 125.2 0 0 1-1.153-14.8 67.477 67.477 0 0 1 .3-8.3 20.375 20.375 0 0 1 .57-2.917c.232-1.024.9-2.172 1.337-3.6 1.381-.488 3.183 1.286 4.014 2.09a32.035 32.035 0 0 1 2.852 2.899c1.52 1.912 1.243 4.176.942 6.472" data-name="Path 68"></path><path fill="none" stroke="#573095" stroke-miterlimit="10" stroke-width=".598" d="M26.326 49.772c-.413 3.282-1.041 6.528-1.739 9.759-.339 1.567-.693 3.134-.92 4.724s-.22 3.21-.461 4.8c-.314 2.067-1.727 3.219-3.837 2.645-1.722-.467-1.7-2.29-1.905-3.772a125.2 125.2 0 0 1-1.153-14.8 67.477 67.477 0 0 1 .3-8.3 20.375 20.375 0 0 1 .57-2.917c.232-1.024.9-2.172 1.337-3.6 1.381-.488 3.183 1.286 4.014 2.09a32.035 32.035 0 0 1 2.852 2.899c1.516 1.912 1.243 4.176.942 6.472Z" data-name="Path 69"></path><path fill="#573095" d="M34.2 55.039c-.674 7.537-2.51 11.107-2.69 15.2-.277 6.247-4.621 6.494-5.186 4.24a65.078 65.078 0 0 1-1.9-21.484c.27-3.046 3.02-14.221 5.7-11.451a.119.119 0 0 1 .033.034c4.872 4.194 4.76 5.492 4.046 13.465" data-name="Path 70"></path><path fill="none" stroke="#573095" stroke-miterlimit="10" stroke-width=".598" d="M34.2 55.039c-.674 7.537-2.51 11.107-2.69 15.2-.277 6.247-4.621 6.494-5.186 4.24a65.078 65.078 0 0 1-1.9-21.484c.27-3.046 3.02-14.221 5.7-11.451a.119.119 0 0 1 .033.034c4.868 4.19 4.756 5.488 4.043 13.461Z" data-name="Path 71"></path><path fill="#573095" d="M26.609 76.692c1.238 7.088 1.166 15.28 1.24 18.393.848 2.325 4.5 2.533 5.265-.108-.139-.62.4-11.551.4-14.019s-.194-3.613-2.268-8.424c-.86-2-5.684-1.867-4.631 4.159" data-name="Path 72"></path><path fill="none" stroke="#573095" stroke-miterlimit="10" stroke-width=".598" d="M26.609 76.692c1.238 7.088 1.166 15.28 1.24 18.393.848 2.325 4.5 2.533 5.265-.108-.139-.62.4-11.551.4-14.019s-.194-3.613-2.268-8.424c-.865-1.996-5.69-1.867-4.637 4.158Z" data-name="Path 73"></path><path fill="#573095" d="M31.19 40.64c2.066 3.245 2.771 3.779 3.084 6.344s-7.842.28-9.408 3.365c-.538-2.549-1.007-4.751-3.822-6.97a7.231 7.231 0 0 0-3.865-1.479s.741-1.77 1.484-3.876C20.752 37.3 31.19 40.64 31.19 40.64" data-name="Path 74"></path><path fill="none" stroke="#573095" stroke-miterlimit="10" stroke-width=".598" d="M31.19 40.64c2.066 3.245 2.771 3.779 3.084 6.344s-7.842.28-9.408 3.365c-.538-2.549-1.007-4.751-3.822-6.97a7.231 7.231 0 0 0-3.865-1.479s.741-1.77 1.484-3.876C20.752 37.3 31.19 40.64 31.19 40.64Z" data-name="Path 75"></path><path fill="#0c3959" d="M31.794 41.678v.008c-.017-.016-.024-.025-.024-.033l.024.025" data-name="Path 76"></path><path fill="#fff" d="M27.572 42.368c-.163 0-.326-.021-.485-.036-3.753-.433-7.6-2.321-8.221-4.005.024-.047.049-.091.075-.134a4.108 4.108 0 0 0 .467-1.57 22.443 22.443 0 0 0-.035-3.3 16.979 16.979 0 0 1-.05-1.964l-.664-2.614-.088-.092a4.3 4.3 0 0 1-1.1-1.916c-.309-1.294.555-2.756 1.249-3.93.131-.221.256-.433.367-.633a10.68 10.68 0 0 0 .654-2.391c.314-1.509.745-3.576 1.409-3.982a6.915 6.915 0 0 1 2.8-.509 7.774 7.774 0 0 1 1.05.069 18.3 18.3 0 0 1 7.02 3.054l.487.31a18.96 18.96 0 0 1 3.461 3.154c1.792 2.11.1 5.656-1.568 8.509a17.419 17.419 0 0 0-1.18 2.2 15.771 15.771 0 0 1-.834 1.684c-1.062 1.966-2.506 4.637-1.24 7.032a4.934 4.934 0 0 1-3.242 1.07c-.109 0-.219 0-.33-.009" data-name="Path 77"></path><path fill="#6a3ab5" d="M23.942 14.967v.651a7.326 7.326 0 0 1 1.012.068 17.738 17.738 0 0 1 6.894 3.007l.467.3a18.786 18.786 0 0 1 3.419 3.116c1.646 1.939 0 5.356-1.628 8.141a17.6 17.6 0 0 0-1.189 2.228 15.4 15.4 0 0 1-.815 1.645c-1.065 1.969-2.5 4.622-1.359 7.1a4.867 4.867 0 0 1-2.84.829c-.1 0-.207 0-.331-.009-.148 0-.3-.02-.445-.034-3.491-.4-7.179-2.135-7.9-3.66a4.438 4.438 0 0 0 .5-1.69 22.823 22.823 0 0 0-.033-3.356 16.6 16.6 0 0 1-.051-1.919l.009-.111-.028-.107-.632-2.421-.01-.038-.014-.036-.077-.154-.089-.092a3.976 3.976 0 0 1-1.021-1.765c-.279-1.165.547-2.564 1.211-3.688.133-.224.259-.437.372-.642a10.594 10.594 0 0 0 .687-2.482c.268-1.285.717-3.436 1.259-3.767a6.824 6.824 0 0 1 2.632-.465Zm0 0a7.148 7.148 0 0 0-2.963.557c-1.245.76-1.572 5.393-2.178 6.491-.726 1.3-2.048 3.121-1.646 4.8a4.784 4.784 0 0 0 1.214 2.1L19 31.333c-.091 1.153.256 3.474.085 5.264a3.779 3.779 0 0 1-.422 1.429 3.027 3.027 0 0 0-.145.275c.551 1.963 4.723 3.915 8.534 4.355.167.017.339.034.5.038.117.007.233.009.348.009a4.937 4.937 0 0 0 3.639-1.349c-1.812-3.006 1.174-6.54 1.976-8.647a17.481 17.481 0 0 1 1.156-2.153c1.558-2.661 3.532-6.538 1.549-8.874a19.318 19.318 0 0 0-3.548-3.232c-1.554-.975-4.391-2.963-7.634-3.409a8.2 8.2 0 0 0-1.1-.073" data-name="Path 78"></path><path fill="#a2acf8" d="M36.9 23.787a5.326 5.326 0 0 0-1.357-2.879 18.168 18.168 0 0 0-4.978-3.771c-.017-.008-.035-.016-.05-.025-.342-.19-.664-.359-.944-.5a6.541 6.541 0 0 0-2.172-.774c.054-.01.106-.025.161-.034-2.855-.958-7.013-2.251-8.236 1.622a31.216 31.216 0 0 0-.481 3.625C18.7 22.085 17.2 24.375 17 25.4c-.412 2.137.91 2.542 1.371 4.54a24.27 24.27 0 0 1 .649 5.4c.071 2.34-.98 3.906-2.023 5.861-2.344 4.392 11.154 5.869 11.6 5.882a16.453 16.453 0 0 0 2.134-.075 7.364 7.364 0 0 0 3.261-1.031c.969-.646.627-1.084-.033-1.848-1.394-1.614-3.21-3.336-2.823-5.638a11.907 11.907 0 0 1 1.328-3.647c.543-1.056 1.035-2.348 1.673-3.366a1.024 1.024 0 0 0 .055-.092 14.854 14.854 0 0 0 2.667-6.43 1.79 1.79 0 0 0 .024-.233 3.4 3.4 0 0 0 .026-.329.839.839 0 0 0 .009-.113 3.886 3.886 0 0 0-.013-.491m-14.912 6.948c-.093-1.52-.508-2.463-.564-4.331-.094-3.086 1.128-7.507 3.518-9.444a4.829 4.829 0 0 1 4.586-.2c.461.241.756.849.767 2.124.021 2.316-2.172 4.187-3.478 5.768a13.064 13.064 0 0 0-2.964 4.913c-.7 2.027-.816 8.7-1.08 9.582-.389-3.334-.624-5.768-.785-8.41" data-name="Path 79"></path><path fill="none" stroke="#6a3ab5" stroke-miterlimit="10" stroke-width=".647" d="M36.9 23.787a5.326 5.326 0 0 0-1.357-2.879 18.168 18.168 0 0 0-4.978-3.771c-.017-.008-.035-.016-.05-.025-.342-.19-.664-.359-.944-.5a6.541 6.541 0 0 0-2.172-.774c.054-.01.106-.025.161-.034-2.855-.958-7.013-2.251-8.236 1.622a31.216 31.216 0 0 0-.481 3.625C18.7 22.085 17.2 24.375 17 25.4c-.412 2.137.91 2.542 1.371 4.54a24.27 24.27 0 0 1 .649 5.4c.071 2.34-.98 3.906-2.023 5.861-2.344 4.392 11.154 5.869 11.6 5.882a16.453 16.453 0 0 0 2.134-.075 7.364 7.364 0 0 0 3.261-1.031c.969-.646.627-1.084-.033-1.848-1.394-1.614-3.21-3.336-2.823-5.638a11.907 11.907 0 0 1 1.328-3.647c.543-1.056 1.035-2.348 1.673-3.366a1.024 1.024 0 0 0 .055-.092 14.854 14.854 0 0 0 2.667-6.43 1.79 1.79 0 0 0 .024-.233 3.4 3.4 0 0 0 .026-.329.839.839 0 0 0 .009-.113 3.886 3.886 0 0 0-.018-.494Zm-14.907 6.951c-.093-1.52-.508-2.463-.564-4.331-.094-3.086 1.128-7.507 3.518-9.444a4.829 4.829 0 0 1 4.586-.2c.461.241.756.849.767 2.124.021 2.316-2.172 4.187-3.478 5.768a13.064 13.064 0 0 0-2.964 4.913c-.7 2.027-.816 8.7-1.08 9.582-.389-3.334-.624-5.768-.785-8.41" data-name="Path 80"></path><path fill="#d2d6fc" d="m38.575 44.2-2.7-2.529c-.895 1.412-1.615 3.1-2.881 4.228-.113.1-.288.236-.479.392a1.992 1.992 0 0 0-.735-.023 2.378 2.378 0 0 0-1.146.449 4.88 4.88 0 0 0-.81.665.735.735 0 0 0-.283.138c-.56.419-1.116.842-1.673 1.264.481.492 1.516.2 1.994-.169a.89.89 0 0 0 .245-.324c.037.009.06.022.1.03-.023.338-.023.677-.03.978a2.772 2.772 0 0 1-.024.329 9.739 9.739 0 0 0-1.807 3.8c.305.105.749 1.157.832 1.177a3.652 3.652 0 0 1 .407.141 5.121 5.121 0 0 0 1.685-.246c.526.092 1.527-1.727 1.829-2.948a6.057 6.057 0 0 0 .8-3.573c.237-.142.451-.282.6-.38a22.289 22.289 0 0 0 4.076-3.399" data-name="Path 81"></path><path fill="none" stroke="#6a3ab5" stroke-miterlimit="10" stroke-width=".647" d="m38.575 44.2-2.7-2.529c-.895 1.412-1.615 3.1-2.881 4.228-.113.1-.288.236-.479.392a1.992 1.992 0 0 0-.735-.023 2.378 2.378 0 0 0-1.146.449 4.88 4.88 0 0 0-.81.665.735.735 0 0 0-.283.138c-.56.419-1.116.842-1.673 1.264.481.492 1.516.2 1.994-.169a.89.89 0 0 0 .245-.324c.037.009.06.022.1.03-.023.338-.023.677-.03.978a2.772 2.772 0 0 1-.024.329 9.739 9.739 0 0 0-1.807 3.8c.305.105.749 1.157.832 1.177a3.652 3.652 0 0 1 .407.141 5.121 5.121 0 0 0 1.685-.246c.526.092 1.527-1.727 1.829-2.948a6.057 6.057 0 0 0 .8-3.573c.237-.142.451-.282.6-.38a22.289 22.289 0 0 0 4.076-3.399Z" data-name="Path 82"></path><path fill="#a2acf8" d="M44.226 36.216c-.2-.5-.431-.971-.61-1.365-.81-1.778-1.5-3.626-2.439-5.343-1.066-1.959-2.663-3.517-3.754-5.461-.946-1.69-1.738-3.557-4-3-3.7.91-2.343 5.717-.359 7.6 1.619 1.535 3.379 2.619 4.725 4.474a17.89 17.89 0 0 1 2.106 3.759 26.5 26.5 0 0 0-2.635 3.026c-1.05 1.319-2.08 2.655-3.165 3.945-.318.379-.935.838-1.09 1.3a2.51 2.51 0 0 0 .669 2.072c1.017 1.162 1.671.241 2.657-.5s2-1.5 2.928-2.321c1.482-1.311 7.029-5.653 4.971-8.184" data-name="Path 83"></path><path fill="none" stroke="#6a3ab5" stroke-miterlimit="10" stroke-width=".647" d="M44.226 36.216c-.2-.5-.431-.971-.61-1.365-.81-1.778-1.5-3.626-2.439-5.343-1.066-1.959-2.663-3.517-3.754-5.461-.946-1.69-1.738-3.557-4-3-3.7.91-2.343 5.717-.359 7.6 1.619 1.535 3.379 2.619 4.725 4.474a17.89 17.89 0 0 1 2.106 3.759 26.5 26.5 0 0 0-2.635 3.026c-1.05 1.319-2.08 2.655-3.165 3.945-.318.379-.935.838-1.09 1.3a2.51 2.51 0 0 0 .669 2.072c1.017 1.162 1.671.241 2.657-.5s2-1.5 2.928-2.321c1.477-1.313 7.025-5.655 4.967-8.186Z" data-name="Path 84"></path><path fill="#6a3ab5" d="M24.442.348c-2.535 1.062-3.954 2.34-4.422 5.074V3.895c-.99 2.058-.075 4.027 1.648 5.256-1.938-1.524-3.023-3.594-2.033-6.051A4.19 4.19 0 0 1 24.442.348" data-name="Path 85"></path><path fill="#d2d6fc" d="M29.87 17.51a2.3 2.3 0 0 0-.738-.666c0-.026.006-.052.009-.079q-.093-3.311-.183-6.624a9.3 9.3 0 0 0 1.193-4.4A5.333 5.333 0 0 0 22.5.962c-3.12 1.583-3.119 5.233-2.9 8.3.116 1.627.689 4.474 2.1 5.526a1.826 1.826 0 0 0 1.384.324c.058.776.076 1.578.124 2.374a11.35 11.35 0 0 0-.879 2.109c-.561 1.61-1.139 4.066.859 4.889 2.8 1.153 4.751-.949 6.2-3.073.7-1.024 1.264-2.752.478-3.9" data-name="Path 86"></path><path fill="none" stroke="#6a3ab5" stroke-miterlimit="10" stroke-width=".417" d="M29.87 17.51a2.3 2.3 0 0 0-.738-.666c0-.026.006-.052.009-.079q-.093-3.311-.183-6.624a9.3 9.3 0 0 0 1.193-4.4A5.333 5.333 0 0 0 22.5.962c-3.12 1.583-3.119 5.233-2.9 8.3.116 1.627.689 4.474 2.1 5.526a1.826 1.826 0 0 0 1.384.324c.058.776.076 1.578.124 2.374a11.35 11.35 0 0 0-.879 2.109c-.561 1.61-1.139 4.066.859 4.889 2.8 1.153 4.751-.949 6.2-3.073.704-1.023 1.268-2.75.482-3.901Z" data-name="Path 87"></path><path fill="#6a3ab5" d="M19.49 5.6c.144-1.052.425-2.31 1.512-2.731.752-.29 1.6-.072 2.35-.411.79-.359 1.325-1.39 2.17-.57.712.69.775 1.886 1.434 2.632C28.137 2.671 26.284-.031 24.3 0a4.788 4.788 0 0 0-4.81 5.6" data-name="Path 88"></path><path fill="#6a3ab5" d="M30.5 6.061a16.2 16.2 0 0 0-2.488-3.131A32.853 32.853 0 0 0 23.843.647c-.4 1.972 1.739 4.791 3.484 5.453 1.489.564 2.339.042 2.613 1.225a3.625 3.625 0 0 1-.62 2.442 2.175 2.175 0 0 0-.471.912c-.067.512.228 1.182.219 1.713.511-2.1.923-4.229 1.434-6.331" data-name="Path 89"></path><path fill="#6a3ab5" d="M31.531 5.461a6.3 6.3 0 0 0-4.21-5.1c-.837-.29-4.505-.88-3.288 1.172.425.715 1.46 1.2 2.093 1.7a11.565 11.565 0 0 1 2.3 2.645c.36.51.907.732 1.125 1.416a3.714 3.714 0 0 1 .073 1.843c-.1.3-.315.422-.436.666a1.646 1.646 0 0 0-.21 1.067c.005.5.09 1 .081 1.494a7.114 7.114 0 0 0 2.477-6.905" data-name="Path 90"></path><path fill="#6a3ab5" d="M25.967 6.9c-.384-1.657-2.9-3.548-2.226-6.249C22.648 3.155 25.3 5.16 25.967 6.9" data-name="Path 91"></path></g></g></g></svg>