<svg xmlns="http://www.w3.org/2000/svg" viewBox="0.01 0 52.99 79"><defs><clipPath id="a"><path fill="none" d="M0 0h53v79H0z" data-name="Rectangle 17"></path></clipPath></defs><g data-name="Vector Smart Object"><g data-name="Group 38"><g clip-path="url(#a)" data-name="Group 37"><path fill="#d2d6fc" d="M25.553 45.6c.034-1.107.023-4.186.012-6.149l-.012-1.721c0-.171.247-.31.55-.31s.55.139.55.31v.54c-.011 1.543-.037 5.955 0 7.329a19.471 19.471 0 0 1-.073 2.07 35.386 35.386 0 0 1-.215 1.959v18.497a.566.566 0 0 1 .046.214V71.9c0 .079 0 .148.009.214 0 0 .061.361 1.5.741a5.905 5.905 0 0 1 2.72 1.238 1.222 1.222 0 0 1-.266 1.831 2.144 2.144 0 0 1-1.578.505 2.84 2.84 0 0 1-.334-.022c-.089-.012-.176-.03-.263-.048s-.149-.037-.222-.06a3.429 3.429 0 0 1-.339-.118c-.067-.028-.132-.058-.2-.089a3.466 3.466 0 0 1-.328-.182 3.15 3.15 0 0 1-.17-.115 2.5 2.5 0 0 1-.275-.23 1.68 1.68 0 0 1-.136-.152c-.01-.013-.023-.025-.032-.037a2.991 2.991 0 0 1-.178-.283c-.035-.064-.067-.128-.1-.194l-.1-.2a4.815 4.815 0 0 1-.333-1.84v-4.52a.577.577 0 0 1 .045-.214v-18.5c0-.01-.189-1.313-.263-2.669a16.089 16.089 0 0 1-.025-1.359" data-name="Path 265"></path><path fill="none" stroke="#6a3ab5" stroke-miterlimit="10" stroke-width=".369" d="M25.553 45.6c.034-1.107.023-4.186.012-6.149l-.012-1.721c0-.171.247-.31.55-.31s.55.139.55.31v.54c-.011 1.543-.037 5.955 0 7.329a19.471 19.471 0 0 1-.073 2.07 35.386 35.386 0 0 1-.215 1.959v18.497a.566.566 0 0 1 .046.214V71.9c0 .079 0 .148.009.214 0 0 .061.361 1.5.741a5.905 5.905 0 0 1 2.72 1.238 1.222 1.222 0 0 1-.266 1.831 2.144 2.144 0 0 1-1.578.505 2.84 2.84 0 0 1-.334-.022c-.089-.012-.176-.03-.263-.048s-.149-.037-.222-.06a3.429 3.429 0 0 1-.339-.118c-.067-.028-.132-.058-.2-.089a3.466 3.466 0 0 1-.328-.182 3.15 3.15 0 0 1-.17-.115 2.5 2.5 0 0 1-.275-.23 1.68 1.68 0 0 1-.136-.152c-.01-.013-.023-.025-.032-.037a2.991 2.991 0 0 1-.178-.283c-.035-.064-.067-.128-.1-.194l-.1-.2a4.815 4.815 0 0 1-.333-1.84v-4.52a.577.577 0 0 1 .045-.214v-18.5c0-.01-.189-1.313-.263-2.669-.016-.456-.028-.93-.015-1.356Z" data-name="Path 266"></path><path fill="#6a3ab5" d="M16.059 78.422a5.223 5.223 0 0 1-1.351-.192 2.454 2.454 0 0 1-1.264-.911c-.222-.241-.49-.529-.861-.878a7.023 7.023 0 0 0-1.64-1.03 14.35 14.35 0 0 1-.753-.4 3.7 3.7 0 0 1-1.151-1.275c.05-.805.3-2.153.733-2.2.071 0 .141.372.168.512.084.447.2 1.059.765 1.059a5.337 5.337 0 0 0 1.514-.444 3.85 3.85 0 0 1 1.226-.366.623.623 0 0 1 .163.02 4.969 4.969 0 0 0 .447.491 58.18 58.18 0 0 0 2.042 2.031c.332.31.6.614.867.907a8.242 8.242 0 0 0 1.347 1.284c.2.142.179.244.173.277-.052.309-.751.729-1.7 1.021a2.514 2.514 0 0 1-.724.091" data-name="Path 267"></path><path fill="#6a3ab5" d="M9.7 71.786c.024.09.046.208.062.3.085.453.228 1.21.947 1.21a.858.858 0 0 0 .091 0 5.6 5.6 0 0 0 1.493-.454 3.859 3.859 0 0 1 1.155-.352h.047c.087.092.237.251.431.453.522.545 1.3 1.34 2.049 2.038.323.3.594.6.855.894a8.43 8.43 0 0 0 1.37 1.308.343.343 0 0 1 .1.1c-.012.136-.5.544-1.573.875a2.354 2.354 0 0 1-.672.083 5.086 5.086 0 0 1-1.3-.185 2.285 2.285 0 0 1-1.177-.859c-.22-.237-.494-.533-.894-.909l-.039-.038a7.241 7.241 0 0 0-1.617-1c-.266-.136-.524-.265-.741-.4a3.379 3.379 0 0 1-1.037-1.12 4.273 4.273 0 0 1 .45-1.944m.082-.432h-.028c-.8.079-.879 2.466-.879 2.466a3.863 3.863 0 0 0 1.22 1.348 14.465 14.465 0 0 1 2.3 1.345l.065.062c1.147 1.077 1.3 1.58 2.2 1.832a5.488 5.488 0 0 0 1.4.2 2.721 2.721 0 0 0 .78-.1c1.247-.384 2.345-1.072 1.58-1.624a23.724 23.724 0 0 1-2.2-2.176c-.753-.7-1.54-1.508-2.035-2.024-.31-.323-.509-.535-.509-.535a.776.776 0 0 0-.236-.033c-.71 0-1.8.721-2.683.808h-.056c-.746 0-.437-1.57-.927-1.57" data-name="Path 268"></path><path fill="#441090" d="M18.665 77.232a1.547 1.547 0 0 0-1.259.438 2.259 2.259 0 0 1-2.132.661c-1.058-.1-1.709-1.159-2.841-1.958s-2.2-1.127-2.648-1.451c-.582-.422-.842-1.875-.842-1.875a3.65 3.65 0 0 0-.26 1.053 2.029 2.029 0 0 0 .7 1.184 3.319 3.319 0 0 0 1.407.805 6.975 6.975 0 0 1 1.653.892c.373.3 1.112 1.615 2.373 1.865a4.082 4.082 0 0 0 3.39-.6c.719-.681.459-1.014.459-1.014" data-name="Path 269"></path><path fill="#6a3ab5" d="M4.458 78.628a3.791 3.791 0 0 1-1.665-.656 4.243 4.243 0 0 1-1.29-1.63 2.442 2.442 0 0 1-.146-1.55 16.7 16.7 0 0 0 .093-1.227 7.053 7.053 0 0 0-.3-1.917 12.643 12.643 0 0 1-.192-.827 3.708 3.708 0 0 1 .2-1.706 4.949 4.949 0 0 1 1.912-.962.317.317 0 0 1 .225.07c.052.049-.169.33-.274.464-.279.355-.7.892-.243 1.326a5.469 5.469 0 0 0 1.28.795c.514.259 1.046.527 1.181.834l-.083.643a50.61 50.61 0 0 0-.184 2.875c-.015.453-.066.856-.113 1.247a8.3 8.3 0 0 0-.083 1.861.385.385 0 0 1-.056.283.368.368 0 0 1-.261.079" data-name="Path 270"></path><path fill="#6a3ab5" d="M3.052 68.338c-.053.076-.123.165-.178.235-.282.358-.807 1.026-.225 1.575a5.636 5.636 0 0 0 1.324.825 3.493 3.493 0 0 1 1.054.674c-.012.125-.033.343-.057.621a55.561 55.561 0 0 0-.185 2.886 13.53 13.53 0 0 1-.112 1.233 8.42 8.42 0 0 0-.082 1.9.339.339 0 0 1-.008.138.251.251 0 0 1-.126.021 3.682 3.682 0 0 1-1.567-.629 4.053 4.053 0 0 1-1.222-1.553 2.289 2.289 0 0 1-.128-1.452c.034-.321.076-.722.1-1.272v-.06a7.218 7.218 0 0 0-.312-1.873c-.073-.289-.146-.569-.191-.818a3.372 3.372 0 0 1 .163-1.518 4.393 4.393 0 0 1 1.754-.934m.019-.369a5.068 5.068 0 0 0-2.088 1.081 3.855 3.855 0 0 0-.212 1.806 14.573 14.573 0 0 1 .5 2.614v.09c-.057 1.573-.335 2.019.069 2.864A4.375 4.375 0 0 0 2.7 78.129a3.979 3.979 0 0 0 1.761.685c.333 0 .538-.162.5-.563a23.81 23.81 0 0 1 .2-3.085c.034-1.029.122-2.151.185-2.865.038-.446.068-.734.068-.734-.293-.656-1.78-1-2.5-1.688-.607-.573.91-1.42.517-1.79a.493.493 0 0 0-.35-.121" data-name="Path 271"></path><path fill="#441090" d="M4.859 78.666a1.55 1.55 0 0 0-1.16-.66 2.261 2.261 0 0 1-1.9-1.17c-.625-.859-.251-2.049-.4-3.427s-.6-2.4-.649-2.949c-.066-.716.858-1.867.858-1.867a3.671 3.671 0 0 0-.963.5 2.027 2.027 0 0 0-.425 1.302 3.318 3.318 0 0 0 .319 1.589 6.946 6.946 0 0 1 .415 1.831c.02.478-.484 1.9.158 3.014a4.08 4.08 0 0 0 2.682 2.158c.985.094 1.065-.321 1.065-.321" data-name="Path 272"></path><path fill="#573095" d="M10.541 71.347c.674-.281 1.176-.48.948-.916-.212-.4-1.165-.222-1.774-.576s-.354-2.078-.163-2.432a13.045 13.045 0 0 1 2.394-3.04 11.053 11.053 0 0 0 2.049-2.746c0 .5-.008.976-.012 1.429a12.712 12.712 0 0 0 .37 3.528A29.013 29.013 0 0 1 15 72.281a3.669 3.669 0 0 1-1.588.861 10.884 10.884 0 0 1-3.013.194 4.159 4.159 0 0 0-.183-.743c-.413-1.163-.346-.965.328-1.246" data-name="Path 273"></path><path fill="none" stroke="#573095" stroke-miterlimit="10" stroke-width=".369" d="M10.541 71.347c.674-.281 1.176-.48.948-.916-.212-.4-1.165-.222-1.774-.576s-.354-2.078-.163-2.432a13.045 13.045 0 0 1 2.394-3.04 11.053 11.053 0 0 0 2.049-2.746c0 .5-.008.976-.012 1.429a12.712 12.712 0 0 0 .37 3.528A29.013 29.013 0 0 1 15 72.281a3.669 3.669 0 0 1-1.588.861 10.884 10.884 0 0 1-3.013.194 4.159 4.159 0 0 0-.183-.743c-.416-1.163-.349-.965.325-1.246Z" data-name="Path 274"></path><path fill="#573095" d="M7.123 62.5S4.771 47.648 5.611 43.818s2.5-9.546 2.5-9.546l5.981 7.828S14.058 53.888 14 61.9l-6.372 3.025c-.279-1.4-.505-2.429-.505-2.429" data-name="Path 275"></path><path fill="none" stroke="#573095" stroke-miterlimit="10" stroke-width=".369" d="M7.123 62.5S4.771 47.648 5.611 43.818s2.5-9.546 2.5-9.546l5.981 7.828S14.058 53.888 14 61.9l-6.372 3.025c-.28-1.396-.505-2.425-.505-2.425Z" data-name="Path 276"></path><path fill="#573095" d="M8.364 71.017c-.094-1.3.193-2.537 0-3.747a110.076 110.076 0 0 0-.736-4.024L14 60.225c0 .485-.018 2.849-.021 3.3a5.621 5.621 0 0 1-1.528 1.862 27.5 27.5 0 0 0-2.462 2.735c-.285.285-.889 1.374-.279 1.729s1.563.172 1.774.576c.228.437-.274.636-.948.916s-.741.083-.328 1.246a4.159 4.159 0 0 1 .183.743c-.953-.026-1.745-.087-1.745-.087s-.243-1.633-.287-2.232" data-name="Path 277"></path><path fill="none" stroke="#573095" stroke-miterlimit="10" stroke-width=".369" d="M8.364 71.017c-.094-1.3.193-2.537 0-3.747a110.076 110.076 0 0 0-.736-4.024L14 60.225c0 .485-.018 2.849-.021 3.3a5.621 5.621 0 0 1-1.528 1.862 27.5 27.5 0 0 0-2.462 2.735c-.285.285-.889 1.374-.279 1.729s1.563.172 1.774.576c.228.437-.274.636-.948.916s-.741.083-.328 1.246a4.159 4.159 0 0 1 .183.743c-.953-.026-1.745-.087-1.745-.087s-.238-1.628-.282-2.228Z" data-name="Path 278"></path><path fill="#d2d6fc" d="M20.1 24.669s1.621 3.26 2.533 4.721 1.52 5.512 2.331 6.317c.457.453 2.263 1.279 2.626 2.024a4.931 4.931 0 0 1-.042 2.124c-.088.764-.107 1.573-.107 1.573a.782.782 0 0 1-.973-.27 1.872 1.872 0 0 1-.366-1.112c-.075-1.1-.511-.684-.454-.163.109.99-.061.9-.119.867-.157-.085-.189-.3-.3-.438a5.746 5.746 0 0 1-.693-1.352 6.824 6.824 0 0 0-1.507-2.572c-.659-1.125-3.517-5.206-4-6.281-.848-1.87-2.118-4.158-2.118-4.158Z" data-name="Path 279"></path><path fill="none" stroke="#6a3ab5" stroke-miterlimit="10" stroke-width=".369" d="M20.1 24.669s1.621 3.26 2.533 4.721 1.52 5.512 2.331 6.317c.457.453 2.263 1.279 2.626 2.024a4.931 4.931 0 0 1-.042 2.124c-.088.764-.107 1.573-.107 1.573a.782.782 0 0 1-.973-.27 1.872 1.872 0 0 1-.366-1.112c-.075-1.1-.511-.684-.454-.163.109.99-.061.9-.119.867-.157-.085-.189-.3-.3-.438a5.746 5.746 0 0 1-.693-1.352 6.824 6.824 0 0 0-1.507-2.572c-.659-1.125-3.517-5.206-4-6.281-.848-1.87-2.118-4.158-2.118-4.158Z" data-name="Path 280"></path><path fill="#6a3ab5" d="M5.75 71.9a5.94 5.94 0 0 1-2.737-1.931c.034-.157.036-.258-.025-.335l-.054-.071-.105-.008c-.084 0-.187 0-.526.586a4.2 4.2 0 0 1-.688-.615h.018c.09 0 .191.012.3.023a3.316 3.316 0 0 0 .373.027.744.744 0 0 0 .581-.218.949.949 0 0 0 .111-.8c-.175-.949 1.8-3.962 2.648-5.247.178-.273.32-.49.407-.63a11.176 11.176 0 0 1 1.586-1.729 9.669 9.669 0 0 0 .88-.906c1.249-1.69 1.853-3.024 1.8-3.966.533-.671.963-1.177 1.281-1.506l.054-.056v-.078c-.028-.983-.63-14.927-.71-16.783l6.181.3c.349 0 .646 2.093.933 4.118a39.6 39.6 0 0 1 .091 6.717c-.055 1.37-.111 2.786-.1 4.135a7.254 7.254 0 0 1-1.29 4.652c-3.252 5.452-10.2 13.41-11 14.32" data-name="Path 281"></path><path fill="#6a3ab5" d="m11.125 37.852 5.978.293a19.46 19.46 0 0 1 .756 3.958 39.261 39.261 0 0 1 .088 6.687c-.054 1.371-.111 2.789-.1 4.141a7.083 7.083 0 0 1-1.261 4.555c-3.157 5.291-9.809 12.956-10.9 14.2a5.793 5.793 0 0 1-2.474-1.766.494.494 0 0 0-.076-.4l-.076-.092a1.163 1.163 0 0 0 .115-.906c-.162-.877 1.859-3.954 2.618-5.112.18-.274.323-.493.41-.633a11.185 11.185 0 0 1 1.557-1.691 9.581 9.581 0 0 0 .9-.93c1.244-1.683 1.862-3.033 1.838-4.015.515-.649.918-1.12 1.225-1.438l.108-.112v-.156c-.028-.953-.6-14.093-.7-16.583m-9.012 31.9c.065 0 .126.008.189.008h.021c-.022.033-.046.068-.069.106-.049-.038-.1-.077-.14-.114m8.626-32.292s.688 15.924.719 16.982c-.356.368-.819.921-1.336 1.576.067.685-.249 1.873-1.757 3.915a32.883 32.883 0 0 0-2.475 2.65c-.532.866-3.3 4.79-3.076 6.006.124.674-.158.8-.513.8-.221 0-.471-.05-.667-.05a.681.681 0 0 0-.156.015c-.458.11.887 1.054.887 1.054s.368-.672.465-.672c.034 0 .036.075-.015.276a5.85 5.85 0 0 0 3 2.091s7.61-8.59 11.1-14.433a7.466 7.466 0 0 0 1.313-4.749c-.037-3.687.446-7.778 0-10.876-.423-2.99-.63-4.282-1.059-4.282a.26.26 0 0 0-.048.005Z" data-name="Path 282"></path><path fill="#573095" d="M17.89 38.041v1.321S16.949 40.6 13.259 41a35.458 35.458 0 0 1-7.135 0v-1.24a58.215 58.215 0 0 0 7.135-.035 17.029 17.029 0 0 0 4.632-1.683" data-name="Path 283"></path><path fill="none" stroke="#573095" stroke-miterlimit="10" stroke-width=".369" d="M17.89 38.041v1.321S16.949 40.6 13.259 41a35.458 35.458 0 0 1-7.135 0v-1.24a58.215 58.215 0 0 0 7.135-.035 17.029 17.029 0 0 0 4.631-1.684Z" data-name="Path 284"></path><path fill="#573095" d="M17.315 25.665c-.249.114-.465.22-.662.321l-2.264-7.827s1.5-.949 3.874 1.993a22.467 22.467 0 0 1 2 3.13 7.542 7.542 0 0 1-2.953 2.383" data-name="Path 285"></path><path fill="none" stroke="#573095" stroke-miterlimit="10" stroke-width=".369" d="M17.315 25.665c-.249.114-.465.22-.662.321l-2.264-7.827s1.5-.949 3.874 1.993a22.467 22.467 0 0 1 2 3.13 7.542 7.542 0 0 1-2.948 2.383Z" data-name="Path 286"></path><path fill="#441090" d="m16.9 26.839-.247-.853c.2-.1.413-.207.662-.321a7.549 7.549 0 0 0 2.953-2.383c.153.279.3.555.438.816-.41 1.37-2.184 2.4-3.806 2.74" data-name="Path 287"></path><path fill="#6a3ab5" d="M10.108 40.085a7.031 7.031 0 0 1-1.354-.126 3.385 3.385 0 0 0-.661-.066 4.917 4.917 0 0 0-.57.039 4.05 4.05 0 0 1-.447.033 2.23 2.23 0 0 1-1.093-.309c.393-1.851-.174-5.4-.724-8.826a38.437 38.437 0 0 1-.759-7.02c.883-2.888 4.185-3.929 4.218-3.939.057-.023 3.847-1.632 5.23-1.632a.537.537 0 0 1 .327.064 7.475 7.475 0 0 1 3.282 5.971 80.279 80.279 0 0 1 .256 8.519 23.863 23.863 0 0 0 .165 4.5.9.9 0 0 1-.059.785c-.472.789-2.225 1.185-3.877 1.466-.317.054-.628.112-.937.17a16.5 16.5 0 0 1-3 .373" data-name="Path 288"></path><path fill="#6a3ab5" d="M13.946 18.424a.686.686 0 0 1 .212.023 7.319 7.319 0 0 1 3.214 5.847 80.4 80.4 0 0 1 .256 8.5 22.778 22.778 0 0 0 .174 4.56.71.71 0 0 1-.043.631c-.491.823-2.775 1.212-3.749 1.379-.318.055-.63.113-.938.17a16.243 16.243 0 0 1-2.965.37 6.85 6.85 0 0 1-1.318-.123 3.636 3.636 0 0 0-.7-.069 5.268 5.268 0 0 0-.591.041 3.943 3.943 0 0 1-.426.032 1.932 1.932 0 0 1-.884-.227c.345-1.92-.212-5.392-.751-8.754a39.214 39.214 0 0 1-.762-6.935c.877-2.8 4.061-3.808 4.13-3.831a21.673 21.673 0 0 1 5.137-1.61m0-.369c-1.436 0-5.281 1.639-5.281 1.639s-3.422 1.047-4.351 4.1c-.255 3.59 2.26 12.775 1.459 15.955a2.569 2.569 0 0 0 1.3.4c.332 0 .627-.072 1.017-.072a3.163 3.163 0 0 1 .625.062 7.3 7.3 0 0 0 1.39.129 23.892 23.892 0 0 0 3.964-.546c2.128-.363 4.607-.921 4.08-2.491-.384-1.142.117-8.115-.413-12.98a7.682 7.682 0 0 0-3.35-6.094.725.725 0 0 0-.443-.1" data-name="Path 289"></path><path fill="#573095" d="M14.124 18.914a13.625 13.625 0 0 1 1.676 2.817 1.617 1.617 0 0 0-1.019.405 2.818 2.818 0 0 0-1.369 1.747 33.236 33.236 0 0 0-.23-3.759l-.207-1.21s.345-.867 1.147 0" data-name="Path 290"></path><path fill="none" stroke="#573095" stroke-miterlimit="10" stroke-width=".369" d="M14.124 18.914a13.625 13.625 0 0 1 1.676 2.817 1.617 1.617 0 0 0-1.019.405 2.818 2.818 0 0 0-1.369 1.747 33.236 33.236 0 0 0-.23-3.759l-.207-1.21s.346-.867 1.149 0Z" data-name="Path 291"></path><path fill="#d2d6fc" d="m12.976 18.914.628 2.664a3.338 3.338 0 0 1-.328 1.725 17.767 17.767 0 0 1-2.914-1.258 2.6 2.6 0 0 1-1.394-2.276 9.505 9.505 0 0 0 .319-3.534Z" data-name="Path 292"></path><path fill="none" stroke="#6a3ab5" stroke-miterlimit="10" stroke-width=".369" d="m12.976 18.914.628 2.664a3.338 3.338 0 0 1-.328 1.725 17.767 17.767 0 0 1-2.914-1.258 2.6 2.6 0 0 1-1.394-2.276 9.505 9.505 0 0 0 .319-3.534Z" data-name="Path 293"></path><path fill="#d2d6fc" d="M8.91 16.95a7.027 7.027 0 0 0 4.29 2.714c1.806.292 3.755-4.7 1.693-7.748a3.67 3.67 0 0 0-6.034-.444 5.488 5.488 0 0 0 .051 5.478" data-name="Path 294"></path><path fill="none" stroke="#6a3ab5" stroke-miterlimit="10" stroke-width=".369" d="M8.91 16.95a7.027 7.027 0 0 0 4.29 2.714c1.806.292 3.755-4.7 1.693-7.748a3.67 3.67 0 0 0-6.034-.444 5.488 5.488 0 0 0 .051 5.478Z" data-name="Path 295"></path><path fill="#441090" d="M15.291 12.638c-.169.778-.913 1.052-2.607 1.208a12.359 12.359 0 0 0-2.467.483l.212 1.394a1.588 1.588 0 0 1-.512-.05c-.21-.7-.837-.63-1.037-.238a3.056 3.056 0 0 0 .031 1.515 3.765 3.765 0 0 1-1.731-3.058c-.048-1.324 1-4.236 3.412-4.63s5.184 1.145 4.7 3.376" data-name="Path 296"></path><path fill="#d2d6fc" d="m5.964 28.205-2 5.972s3.764 4.708 4.171 5.223a10.225 10.225 0 0 1 1.884 3.051c.176.621.108 4.1-1.571 3.04-.436-.276-1.137-1.986-1.661-3.09-.267-.562-.281-1.3-.467-1.622-.552-.953-1.483-1.551-3.244-2.723A8.76 8.76 0 0 1 .19 34.177a12.57 12.57 0 0 1 1.031-3.83c.574-1.51 1.553-3.913 1.553-3.913Z" data-name="Path 297"></path><path fill="none" stroke="#6a3ab5" stroke-miterlimit="10" stroke-width=".369" d="m5.964 28.205-2 5.972s3.764 4.708 4.171 5.223a10.225 10.225 0 0 1 1.884 3.051c.176.621.108 4.1-1.571 3.04-.436-.276-1.137-1.986-1.661-3.09-.267-.562-.281-1.3-.467-1.622-.552-.953-1.483-1.551-3.244-2.723A8.76 8.76 0 0 1 .19 34.177a12.57 12.57 0 0 1 1.031-3.83c.574-1.51 1.553-3.913 1.553-3.913Z" data-name="Path 298"></path><path fill="#573095" d="M9.29 18.28a4.563 4.563 0 0 0 1.615 2.926c.821.768 2.07 2.187 2.07 2.187a2.631 2.631 0 0 0-1.838-.3 3.111 3.111 0 0 0-1.223.619s-1.8-2.431-1.761-3.827A1.551 1.551 0 0 1 9.29 18.28" data-name="Path 299"></path><path fill="none" stroke="#573095" stroke-miterlimit="10" stroke-width=".369" d="M9.29 18.28a4.563 4.563 0 0 0 1.615 2.926c.821.768 2.07 2.187 2.07 2.187a2.631 2.631 0 0 0-1.838-.3 3.111 3.111 0 0 0-1.223.619s-1.8-2.431-1.761-3.827A1.551 1.551 0 0 1 9.29 18.28Z" data-name="Path 300"></path><path fill="#573095" d="M13.794 22.773s.142.855.484 2.477a16.568 16.568 0 0 1 .352 2.979l-1.02.329-.521-2.892c-.112-.617-.58-2.478-.58-2.478Z" data-name="Path 301"></path><path fill="none" stroke="#573095" stroke-miterlimit="10" stroke-width=".369" d="M13.794 22.773s.142.855.484 2.477a16.568 16.568 0 0 1 .352 2.979l-1.02.329-.521-2.892c-.112-.617-.58-2.478-.58-2.478Z" data-name="Path 302"></path><path fill="#573095" d="M4.636 29.178a7.159 7.159 0 0 1-2.768-1.521c.247-.907.692-2.443 1.21-3.774C3.99 21.54 5.28 21.017 6.292 21c1.158-.022 1.781 1.592 1.715 2.884a40.7 40.7 0 0 1-1.22 5.258 3.626 3.626 0 0 1-2.151.037" data-name="Path 303"></path><path fill="none" stroke="#573095" stroke-miterlimit="10" stroke-width=".369" d="M4.636 29.178a7.159 7.159 0 0 1-2.768-1.521c.247-.907.692-2.443 1.21-3.774C3.99 21.54 5.28 21.017 6.292 21c1.158-.022 1.781 1.592 1.715 2.884a40.7 40.7 0 0 1-1.22 5.258 3.626 3.626 0 0 1-2.151.036Z" data-name="Path 304"></path><path fill="#441090" d="M3.67 29.913a3.86 3.86 0 0 1-2.011-1.466s.077-.308.208-.79a7.168 7.168 0 0 0 2.768 1.521 3.625 3.625 0 0 0 2.151-.037l-.175.615a4.435 4.435 0 0 1-2.942.158" data-name="Path 305"></path><path fill="#d2d6fc" d="M44.54 12.785c1.225-.8 4.7-.753 5.4 2.191a6.788 6.788 0 0 1-.276 2.381c-.493 2.395-2.646 4.408-3.727 3.789a6.063 6.063 0 0 1-2.637-3.49c-.35-1.82-.357-3.825 1.24-4.871" data-name="Path 306"></path><path fill="none" stroke="#6a3ab5" stroke-miterlimit="10" stroke-width=".369" d="M44.54 12.785c1.225-.8 4.7-.753 5.4 2.191a6.788 6.788 0 0 1-.276 2.381c-.493 2.395-2.646 4.408-3.727 3.789a6.063 6.063 0 0 1-2.637-3.49c-.349-1.82-.357-3.825 1.24-4.871Z" data-name="Path 307"></path><path fill="#441090" d="M49.937 14.976a2.236 2.236 0 0 1-1.885.987 9.564 9.564 0 0 1-3.32-1.378 3.27 3.27 0 0 0-.586 1.2c-.667-.407-.975.638-.975.638a3.282 3.282 0 0 1 .248-2.773 2.966 2.966 0 0 1 2.218-1.85 12.263 12.263 0 0 1 1.391.012c.879.046 3.206.427 2.91 3.167" data-name="Path 308"></path><path fill="#441090" d="M35.288 18.9c-.408.049-.492 2.312-.56 3.456s.061 1.813.467 1.813 1.212-1.769 1.078-2.976-.538-2.346-.985-2.293" data-name="Path 309"></path><path fill="#d2d6fc" d="M33.543 50.2a35.221 35.221 0 0 0-.678 7.2c.14 3.229.434 11.459.434 11.459s1.755 1.28 2.428.118c.561-.969.178-2.1.263-2.791.526-4.263 3.343-15.446 3.343-15.446Z" data-name="Path 310"></path><path fill="none" stroke="#6a3ab5" stroke-miterlimit="10" stroke-width=".369" d="M33.543 50.2a35.221 35.221 0 0 0-.678 7.2c.14 3.229.434 11.459.434 11.459s1.755 1.28 2.428.118c.561-.969.178-2.1.263-2.791.526-4.263 3.343-15.446 3.343-15.446Z" data-name="Path 311"></path><path fill="#d2d6fc" d="M43.262 49.778a13.55 13.55 0 0 0-.744 3.282c-.243 1.536-.681 4-.739 5.237-.161 3.37-.028 5.834-.028 5.834l2.784-.244a74.59 74.59 0 0 1 3.324-12.17 5.232 5.232 0 0 0 0-2.148Z" data-name="Path 312"></path><path fill="none" stroke="#6a3ab5" stroke-miterlimit="10" stroke-width=".369" d="M43.262 49.778a13.55 13.55 0 0 0-.744 3.282c-.243 1.536-.681 4-.739 5.237-.161 3.37-.028 5.834-.028 5.834l2.784-.244a74.59 74.59 0 0 1 3.324-12.17 5.232 5.232 0 0 0 0-2.148Z" data-name="Path 313"></path><path fill="#573095" d="M32.579 7.675a4.648 4.648 0 0 0-1.074.6c-.269.268.147.906.537.739a4.149 4.149 0 0 0 .907-.655Z" data-name="Path 314"></path><path fill="none" stroke="#573095" stroke-miterlimit="10" stroke-width=".369" d="M32.579 7.675a4.648 4.648 0 0 0-1.074.6c-.269.268.147.906.537.739a4.149 4.149 0 0 0 .907-.655Z" data-name="Path 315"></path><path fill="#6a3ab5" d="M35.873 53.614a3.182 3.182 0 0 1-.836-.114c-.151-1.778-.6-7.025-.761-8.516-.207-1.935-.009-7.237-.007-7.291v-.062l-.818-1.152c.331-1.155.648-2.123.764-2.475 1.064.137 7.5 1.022 9.136 2.475 2.138 1.9 4.731 11.6 4.676 13.607a8.523 8.523 0 0 1-3.179 1.014c-.831-2.8-3.9-7.174-4.11-7.423s.023-1.177.507-1.967c.292-.475.388-.632.3-.792l-.054-.094-.2-.033a2.479 2.479 0 0 0-1.958 1.258l.459 10.105A8.769 8.769 0 0 1 36 53.612Z" data-name="Path 316"></path><path fill="#6a3ab5" d="M34.347 34.206c1.4.187 7.348 1.049 8.885 2.411 2.08 1.843 4.593 11.182 4.616 13.359a8.335 8.335 0 0 1-2.87.926 34.279 34.279 0 0 0-4.1-7.338 2.547 2.547 0 0 1 .522-1.754l.031-.049c.284-.462.414-.674.272-.928a.448.448 0 0 0-.411-.221 2.657 2.657 0 0 0-2.118 1.35l-.054.093v.108l.479 9.9a8.415 8.415 0 0 1-3.617 1.366h-.117a2.949 2.949 0 0 1-.662-.076c-.228-2.667-.606-7.047-.75-8.39-.2-1.921-.008-7.211-.007-7.264l.005-.126-.072-.1-.729-1.027c.282-.984.551-1.82.689-2.239m-.254-.4s-.41 1.2-.84 2.712l.832 1.172s-.2 5.347.008 7.317c.148 1.389.548 6.025.77 8.639a3.37 3.37 0 0 0 1.008.157h.133a9.142 9.142 0 0 0 3.979-1.541L39.5 42.144a2.439 2.439 0 0 1 1.272-1.054 2.8 2.8 0 0 1 .526-.111c.193 0 .081.171-.206.638-.429.7-.822 1.786-.491 2.182.277.333 3.38 4.81 4.115 7.507a8.8 8.8 0 0 0 3.5-1.111c.153-1.836-2.494-11.871-4.732-13.854-1.844-1.634-9.385-2.539-9.385-2.539" data-name="Path 317"></path><path fill="#6a3ab5" d="M34.655 53.373a4.054 4.054 0 0 1-1.545-1.124c.03-.012-.523-8.663-.631-10.534a17.66 17.66 0 0 1 .853-4.794l.773 1.018a58.459 58.459 0 0 0-.194 7.083c.152 1.448.582 6.438.745 8.351" data-name="Path 318"></path><path fill="#6a3ab5" d="m33.411 37.331.5.664a57.242 57.242 0 0 0-.19 7.047c.136 1.281.489 5.35.718 8.032a4 4 0 0 1-1.121-.86 4502.16 4502.16 0 0 1-.661-10.51 16.332 16.332 0 0 1 .75-4.373m-.158-.818a19.973 19.973 0 0 0-.96 5.212c.11 1.883.669 10.634.669 10.634a4.2 4.2 0 0 0 1.9 1.283c-.224-2.615-.623-7.252-.77-8.64a60.855 60.855 0 0 1 .2-7.118Z" data-name="Path 319"></path><path fill="#6a3ab5" d="M43.69 51.176c-.35 0-.608-.021-.74-.034-.261-.557-1.621-3.459-2.009-4.524-.357-.985-1.116-3.929-1.247-4.442a2.19 2.19 0 0 1 1.121-.907c.1-.025.217-.057.315-.079-.046.081-.107.181-.167.279-.454.739-.929 1.944-.507 2.448a33.327 33.327 0 0 1 4.018 7.225 9.662 9.662 0 0 1-.784.033" data-name="Path 320"></path><path fill="#6a3ab5" d="M40.736 41.489a5 5 0 0 0-.613 1.606c-.1-.388-.183-.7-.229-.882a2.076 2.076 0 0 1 .842-.723m-.328 2.67a34.021 34.021 0 0 1 3.817 6.818c-.179.01-.357.015-.534.015-.266 0-.478-.012-.619-.023-.344-.733-1.59-3.406-1.956-4.413-.179-.49-.458-1.474-.708-2.4m.887-3.178a2.71 2.71 0 0 0-.526.111 2.439 2.439 0 0 0-1.269 1.055s.875 3.44 1.272 4.536c.435 1.2 2.058 4.632 2.058 4.632a6.739 6.739 0 0 0 .865.047 9.592 9.592 0 0 0 1.021-.055c-.735-2.7-3.838-7.173-4.115-7.506-.332-.4.062-1.484.491-2.182.286-.467.4-.638.206-.638" data-name="Path 321"></path><path fill="#6a3ab5" d="M37.43 39.328a7.432 7.432 0 0 1-1.116-.081A11.1 11.1 0 0 1 33 38.032l.1-.731a25.205 25.205 0 0 0 2.308 1.069 3.178 3.178 0 0 0 1.18.206 9.257 9.257 0 0 0 2.136-.342c.388-.093.762-.184 1.1-.233 1.1-.161 3.712-.911 4.52-1.145v.882c-.316.118-1.244.458-2.488.81a17 17 0 0 1-4.432.78" data-name="Path 322"></path><path fill="#6a3ab5" d="M44.165 37.1v.509a32.22 32.22 0 0 1-2.353.761 16.831 16.831 0 0 1-4.382.774 7.332 7.332 0 0 1-1.087-.079 10.74 10.74 0 0 1-3.143-1.133l.049-.346c.47.241 1.242.619 2.094.956a3.332 3.332 0 0 0 1.249.22 9.594 9.594 0 0 0 2.178-.347c.389-.094.757-.183 1.089-.231 1.017-.149 3.31-.792 4.307-1.082m.369-.492s-3.45 1.021-4.73 1.209a21.97 21.97 0 0 1-3.213.574 2.987 2.987 0 0 1-1.113-.194 24.827 24.827 0 0 1-2.524-1.184l-.155 1.116a11.439 11.439 0 0 0 3.49 1.3 7.577 7.577 0 0 0 1.143.082 16.933 16.933 0 0 0 4.482-.787c1.564-.443 2.622-.86 2.622-.86Z" data-name="Path 323"></path><path fill="#d2d6fc" d="M36.21 19.334a8.659 8.659 0 0 0-3.243.56c.289-.935.255-3.507.652-5.506a13.153 13.153 0 0 1 1.249-3.553l-2.254-.883s-1.71 4.363-2.662 6.982a10.668 10.668 0 0 0-.643 6.076c.145.812 1.71.8 3.989.579a24.69 24.69 0 0 1 4.176 0Z" data-name="Path 324"></path><path fill="none" stroke="#6a3ab5" stroke-miterlimit="10" stroke-width=".369" d="M36.21 19.334a8.659 8.659 0 0 0-3.243.56c.289-.935.255-3.507.652-5.506a13.153 13.153 0 0 1 1.249-3.553l-2.254-.883s-1.71 4.363-2.662 6.982a10.668 10.668 0 0 0-.643 6.076c.145.812 1.71.8 3.989.579a24.69 24.69 0 0 1 4.176 0Z" data-name="Path 325"></path><path fill="#573095" d="M45.608 20.663a10.123 10.123 0 0 0-4.3-2.251c-1.356-.327-6.018.483-6.018.483a10.76 10.76 0 0 1 .447 2.829 6.246 6.246 0 0 1-.539 2.441h1.95s-1.854 4.244-2.7 6.513c-1.644 4.387-1.487 6.337-1.487 6.337s3.294 2.441 6.85 1.492c1.783-.477 3.411-.924 4.416-1.2a1.444 1.444 0 0 0 1.06-1.355c.023-.9.076-2.27.192-3.705a27.361 27.361 0 0 0 2.771-4.53c1.152-1.541 1.809-2.3 1.481-4.28s-2.277-2.148-4.114-2.77" data-name="Path 326"></path><path fill="none" stroke="#573095" stroke-miterlimit="10" stroke-width=".369" d="M45.608 20.663a10.123 10.123 0 0 0-4.3-2.251c-1.356-.327-6.018.483-6.018.483a10.76 10.76 0 0 1 .447 2.829 6.246 6.246 0 0 1-.539 2.441h1.95s-1.854 4.244-2.7 6.513c-1.644 4.387-1.487 6.337-1.487 6.337s3.294 2.441 6.85 1.492c1.783-.477 3.411-.924 4.416-1.2a1.444 1.444 0 0 0 1.06-1.355c.023-.9.076-2.27.192-3.705a27.361 27.361 0 0 0 2.771-4.53c1.152-1.541 1.809-2.3 1.481-4.28s-2.286-2.151-4.123-2.774Z" data-name="Path 327"></path><path fill="#441090" d="M43.484 23.583a2.668 2.668 0 0 0 .376 1.576c.469.727 1.52-.135 1.666-.788s0-.788 0-.788Z" data-name="Path 328"></path><path fill="#d2d6fc" d="M48.21 22.364c-.454-.316-.507-.968-1.1-1.43a70.247 70.247 0 0 1-6.13-5.15c-2.236-2.226-3.556-4.133-3.93-4.4a3.205 3.205 0 0 0-3.315-.188 55.925 55.925 0 0 1 3.873 6.004c1.231 2.431 3.374 4.219 5.532 6.084.982.848 2.273 1.876 3.194 2.6.66-.974 1.75-2.3 1.876-3.521" data-name="Path 329"></path><path fill="none" stroke="#6a3ab5" stroke-miterlimit="10" stroke-width=".369" d="M48.21 22.364c-.454-.316-.507-.968-1.1-1.43a70.247 70.247 0 0 1-6.13-5.15c-2.236-2.226-3.556-4.133-3.93-4.4a3.205 3.205 0 0 0-3.315-.188 55.925 55.925 0 0 1 3.873 6.004c1.231 2.431 3.374 4.219 5.532 6.084.982.848 2.273 1.876 3.194 2.6.66-.973 1.75-2.299 1.876-3.52Z" data-name="Path 330"></path><path fill="#6a3ab5" d="M45.592 19.741a6.433 6.433 0 0 1-.153 2.936 4.669 4.669 0 0 1-1.293 2.723c1.048 1 2.309 1.836 3.634 3.15a6.379 6.379 0 0 0 1.994-3.75 2.9 2.9 0 0 0-1.268-3.2c-1.374-.8-2.914-1.856-2.914-1.856" data-name="Path 331"></path><path fill="none" stroke="#6a3ab5" stroke-miterlimit="10" stroke-width=".369" d="M45.592 19.741a6.433 6.433 0 0 1-.153 2.936 4.669 4.669 0 0 1-1.293 2.723c1.048 1 2.309 1.836 3.634 3.15a6.379 6.379 0 0 0 1.994-3.75 2.9 2.9 0 0 0-1.268-3.2c-1.374-.8-2.914-1.859-2.914-1.859Z" data-name="Path 332"></path><path fill="#573095" d="M35.168 74.188c.612.269 1.717-.4 2.239-.4a1.509 1.509 0 0 1 .766.266 1.048 1.048 0 0 0 .24-.366c.2-.629-.629-2.442-1.1-3.751a22.168 22.168 0 0 0-1.224-2.684c-.334-.845-1.877-.14-2.515.09-.321-.212-.5.2-.5.464s-.005.61 0 1c.014.067.433 2.13.653 3.01a4.009 4.009 0 0 0 1.448 2.373" data-name="Path 333"></path><path fill="none" stroke="#573095" stroke-miterlimit="10" stroke-width=".369" d="M35.168 74.188c.612.269 1.717-.4 2.239-.4a1.509 1.509 0 0 1 .766.266 1.048 1.048 0 0 0 .24-.366c.2-.629-.629-2.442-1.1-3.751a22.168 22.168 0 0 0-1.224-2.684c-.334-.845-1.877-.14-2.515.09-.321-.212-.5.2-.5.464s-.005.61 0 1c.014.067.433 2.13.653 3.01a4.009 4.009 0 0 0 1.441 2.371Z" data-name="Path 334"></path><path fill="#441090" d="M35.68 74.733a2.769 2.769 0 0 0 2.493-.682 1.5 1.5 0 0 0-.766-.266c-.522 0-1.627.672-2.239.4a4.011 4.011 0 0 1-1.448-2.372c-.22-.881-.639-2.944-.653-3.01a14.077 14.077 0 0 0 .346 3.563 3.213 3.213 0 0 0 2.266 2.365" data-name="Path 335"></path><path fill="none" stroke="#441090" stroke-miterlimit="10" stroke-width=".199" d="M35.68 74.733a2.769 2.769 0 0 0 2.493-.682 1.5 1.5 0 0 0-.766-.266c-.522 0-1.627.672-2.239.4a4.011 4.011 0 0 1-1.448-2.372c-.22-.881-.639-2.944-.653-3.01a14.077 14.077 0 0 0 .346 3.563 3.213 3.213 0 0 0 2.267 2.367Z" data-name="Path 336"></path><path fill="#573095" d="M49.2 67.277a20.8 20.8 0 0 1-1.939-1.923 50.438 50.438 0 0 1-1.8-1.789c-.274-.286-.448-.472-.448-.472-.607-.187-1.7.6-2.579.684-.734.071-.416-1.431-.89-1.384-.707.07-.777 2.179-.777 2.179a3.415 3.415 0 0 0 1.078 1.191 12.771 12.771 0 0 1 2.029 1.188l.057.056c1.014.951 1.149 1.4 1.945 1.618a3.879 3.879 0 0 0 1.927.088c1.1-.339 2.071-.947 1.4-1.435" data-name="Path 337"></path><path fill="none" stroke="#573095" stroke-miterlimit="10" stroke-width=".369" d="M49.2 67.277a20.8 20.8 0 0 1-1.939-1.923 50.438 50.438 0 0 1-1.8-1.789c-.274-.286-.448-.472-.448-.472-.607-.187-1.7.6-2.579.684-.734.071-.416-1.431-.89-1.384-.707.07-.777 2.179-.777 2.179a3.415 3.415 0 0 0 1.078 1.191 12.771 12.771 0 0 1 2.029 1.188l.057.056c1.014.951 1.149 1.4 1.945 1.618a3.879 3.879 0 0 0 1.927.088c1.103-.34 2.073-.948 1.397-1.436Z" data-name="Path 338"></path><path fill="#441090" d="M49.419 67.585a1.37 1.37 0 0 0-1.113.388 1.994 1.994 0 0 1-1.882.583c-.936-.084-1.51-1.025-2.511-1.729s-1.944-1-2.339-1.283c-.515-.373-.744-1.656-.744-1.656a3.247 3.247 0 0 0-.23.929 1.8 1.8 0 0 0 .619 1.047 2.937 2.937 0 0 0 1.243.711 6.127 6.127 0 0 1 1.46.788c.329.264.983 1.427 2.1 1.647a3.605 3.605 0 0 0 3-.529c.635-.6.406-.9.406-.9" data-name="Path 339"></path><path fill="#573095" d="M43.112 14.115a10.276 10.276 0 0 0 2.688 1.611 8.6 8.6 0 0 0 4.16 0s1.172-3.385-2.779-4.5c-3.383-.957-4.073 2.891-4.073 2.891" data-name="Path 340"></path><path fill="none" stroke="#573095" stroke-miterlimit="10" stroke-width=".369" d="M43.112 14.115a10.276 10.276 0 0 0 2.688 1.611 8.6 8.6 0 0 0 4.16 0s1.172-3.385-2.779-4.5c-3.381-.958-4.069 2.889-4.069 2.889Z" data-name="Path 341"></path><path fill="#441090" d="M49.661 17.358a1.875 1.875 0 0 0 .88.99 1.843 1.843 0 0 0 1.25-.149 2.109 2.109 0 0 0-.915-.841 2.383 2.383 0 0 0-1.215 0" data-name="Path 342"></path><path fill="#6a3ab5" d="M45.37 15.522a14.424 14.424 0 0 1 1.623 1.326c.539.545 1.106 1.252 1.679 1.252 1.223 0 1.25-.448 1.969-.358a2.345 2.345 0 0 1 1.15.457 11.633 11.633 0 0 0-1.866-2.785c-1.31-1.487-4.555.108-4.555.108" data-name="Path 343"></path><path fill="none" stroke="#6a3ab5" stroke-miterlimit="10" stroke-width=".369" d="M45.37 15.522a14.424 14.424 0 0 1 1.623 1.326c.539.545 1.106 1.252 1.679 1.252 1.223 0 1.25-.448 1.969-.358a2.345 2.345 0 0 1 1.15.457 11.633 11.633 0 0 0-1.866-2.785c-1.309-1.487-4.555.108-4.555.108Z" data-name="Path 344"></path><path fill="#d2d6fc" d="M33.751 7.088s11.122-5.314 12.868-6 2.91-1.289 4.694-.6 1.786 2.377 1 2.707-1.534-.437-2.617-1c-1.3-.67-1.558-1.021-3.527-.338S34.434 7.675 34.434 7.675Z" data-name="Path 345"></path><path fill="none" stroke="#6a3ab5" stroke-miterlimit="10" stroke-width=".369" d="M33.751 7.088s11.122-5.314 12.868-6 2.91-1.289 4.694-.6 1.786 2.377 1 2.707-1.534-.437-2.617-1c-1.3-.67-1.558-1.021-3.527-.338S34.434 7.675 34.434 7.675Z" data-name="Path 346"></path><path fill="#6a3ab5" d="M34.557 12.121a4.166 4.166 0 0 1-1.76-2.2 18.666 18.666 0 0 1-.322-2.621 2.683 2.683 0 0 1 1.473-.732.879.879 0 0 1 .121.008c.623.084 1.037.918 1.284 1.417l.118.235a28.754 28.754 0 0 1 1.22 2.743 13.785 13.785 0 0 0-2.135 1.151" data-name="Path 347"></path><path fill="#6a3ab5" d="M33.949 6.752a.906.906 0 0 1 .094.005c.524.071.912.85 1.143 1.315.046.093.087.175.124.243a27.537 27.537 0 0 1 1.145 2.557 14.031 14.031 0 0 0-1.9 1.026 3.847 3.847 0 0 1-1.583-2.02 18.889 18.889 0 0 1-.312-2.5 2.4 2.4 0 0 1 1.286-.627m0-.369a3.021 3.021 0 0 0-1.663.839 18.81 18.81 0 0 0 .328 2.73 4.506 4.506 0 0 0 1.944 2.389 13.463 13.463 0 0 1 2.372-1.269 31.142 31.142 0 0 0-1.3-2.933c-.248-.454-.706-1.634-1.542-1.747a1.042 1.042 0 0 0-.144-.01" data-name="Path 348"></path><path fill="#573095" d="m34.711 12.56-.436-.411a2.123 2.123 0 0 1 .856-.82 6.881 6.881 0 0 1 1.651-.633l.271.685a3.516 3.516 0 0 0-2.341 1.179" data-name="Path 349"></path><path fill="none" stroke="#573095" stroke-miterlimit="10" stroke-width=".369" d="m34.711 12.56-.436-.411a2.123 2.123 0 0 1 .856-.82 6.881 6.881 0 0 1 1.651-.633l.271.685a3.516 3.516 0 0 0-2.342 1.179Z" data-name="Path 350"></path></g></g></g></svg>