<svg xmlns="http://www.w3.org/2000/svg" data-name="Vector Smart Object" viewBox="0.01 0 56.99 93.99"><defs><clipPath id="a"><path fill="none" d="M0 0h57v94H0z" data-name="Rectangle 22"></path></clipPath></defs><g data-name="Group 52"><g clip-path="url(#a)" data-name="Group 51"><path fill="#d2d6fc" d="M14.612 8.671a6.816 6.816 0 0 0 1.336 1.5 7.745 7.745 0 0 0 3.659 1.556 3.87 3.87 0 0 0-.223 1.935c.2 1.014-1.493 1.348-3.321.3a4.429 4.429 0 0 1-2.181-2.4 5.708 5.708 0 0 0 .73-2.889" data-name="Path 533"></path><path fill="none" stroke="#6a3ab5" stroke-miterlimit="10" stroke-width=".421" d="M14.612 8.671a6.816 6.816 0 0 0 1.336 1.5 7.745 7.745 0 0 0 3.659 1.556 3.87 3.87 0 0 0-.223 1.935c.2 1.014-1.493 1.348-3.321.3a4.429 4.429 0 0 1-2.181-2.4 5.708 5.708 0 0 0 .73-2.891Z" data-name="Path 534"></path><path fill="#fff" d="M19.325 33.847c-3.129 0-4.26-7.205-4.271-7.278l-.2-9.56 1.006-2.732 3.363-.389 2.566-.654c.425 1.647 3.265 12.866 3.3 18.494a11.134 11.134 0 0 1-5.589 2.111c-.06.005-.119.008-.177.008" data-name="Path 535"></path><path fill="#6a3ab5" d="M21.638 13.492c.56 2.192 3.174 12.692 3.24 18.133a10.932 10.932 0 0 1-5.394 2c-.054 0-.107.007-.16.007-2.436 0-3.75-5.077-4.058-7.071l-.2-9.48.948-2.611 3.233-.375h.028l.028-.007Zm.3-.514-2.742.7-3.492.4-1.064 2.931.2 9.587s1.131 7.458 4.48 7.458c.065 0 .13 0 .2-.008a11.156 11.156 0 0 0 5.781-2.22c0-6.11-3.36-18.853-3.36-18.853" data-name="Path 536"></path><path fill="#2e1c51" d="M21.391 66.389c.943.546 1.579 1.538 3.467 2.494 1.1.555 3.748 1 3.645-.22a1.278 1.278 0 0 0-.039-.2 1.585 1.585 0 0 1 .16.524c.1 1.217-2.548.775-3.643.22-1.888-.955-2.524-1.948-3.468-2.495a9.324 9.324 0 0 0-.407-.217v.295l-1.882-.89a2.019 2.019 0 0 1-.107-.676c.242.212 1.607.774 2.273 1.16" data-name="Path 537"></path><path fill="#2e373a" d="M22.822 64.014c.469-.1.014-1.114 1.959.912.149.1.31.175.456.26 2.686 1.578 3.171 2.361 3.266 3.476.1 1.217-2.548.774-3.645.22-1.887-.955-2.524-1.947-3.467-2.494-.716-.415-2.241-1.033-2.309-1.2a1.96 1.96 0 0 1-.1-.445c2.14-1.944 2.907-.533 3.84-.727" data-name="Path 538"></path><path fill="#2e1c51" d="M17.886 69.357a3.217 3.217 0 0 0 .225.362c.371.483 3.055 3.944 1.514 4.748s-4.129-.576-4.674-1.743-.452-1.958-1.141-2.656a3.578 3.578 0 0 1-1.056-1.649c.626-.657 1.355-.208 2.618-.022a2.78 2.78 0 0 1 2.515.96" data-name="Path 539"></path><path fill="#2e1c51" d="M12.75 68.417a3.577 3.577 0 0 0 1.059 1.651c.69.7.6 1.488 1.142 2.656s3.134 2.548 4.674 1.744a.846.846 0 0 0 .463-.687.946.946 0 0 1-.463 1.034c-1.54.8-4.129-.576-4.674-1.743-.53-1.137-.458-1.917-1.093-2.6l-.017.221a5.421 5.421 0 0 1-1.191-1.475l.04-.844.06.044" data-name="Path 540"></path><path fill="#091929" d="m19.006 37.894.094-3.742s4.685-.947 6.483-2.656c0 0 .794 9.959.145 14.24S24.7 55.766 24.5 57.647s-.512 5.637.384 7.409c0 0-3.555 1.554-5.888-.258V54.89Z" data-name="Path 541"></path><path fill="#452676" d="M21.549 33.51a61.072 61.072 0 0 1-.733 6.591c-.326 1.206-.965 2.515-1 2.818-.387 2.928-.676 6.225-.816 7.45-.277 2.412-.859 6.969-.98 8.732C17.9 60.751 18 69.7 18 69.7s-2.337.844-5.356-1.123c0 0-.5-8.924-.193-11.307s.277-2.981.427-4.642c.144-1.578-.761-6.443-.733-10.489a46.734 46.734 0 0 1 1.527-9.583s.911 1.94 7.875.952" data-name="Path 542"></path><path fill="none" stroke="#452676" stroke-miterlimit="10" stroke-width=".389" d="M21.549 33.51a61.072 61.072 0 0 1-.733 6.591c-.326 1.206-.965 2.515-1 2.818-.387 2.928-.676 6.225-.816 7.45-.277 2.412-.859 6.969-.98 8.732C17.9 60.751 18 69.7 18 69.7s-2.337.844-5.356-1.123c0 0-.5-8.924-.193-11.307s.277-2.981.427-4.642c.144-1.578-.761-6.443-.733-10.489a46.734 46.734 0 0 1 1.527-9.583s.913 1.944 7.877.954Z" data-name="Path 543"></path><path fill="#441090" d="m18.51 15.182.69-1.5 1.59.926-.34 1.151a48.115 48.115 0 0 1 2.566 10.129c.365 3.343.563 4.524.563 4.524L22.669 32l-1.324-1.265s.027-9.963-1.7-14.7Z" data-name="Path 544"></path><path fill="#fff" d="M18.447 15.691a10.546 10.546 0 0 1-4.632-4.667l.574-.708c.553.748 2.409 3.059 4.549 3.529Z" data-name="Path 545"></path><path fill="#6a3ab5" d="M14.383 10.659c.688.888 2.357 2.8 4.3 3.338l-.367 1.386a10.373 10.373 0 0 1-4.246-4.332Zm.016-.691L13.566 11a10.541 10.541 0 0 0 5.022 4.993l.612-2.311c-2.545-.393-4.8-3.71-4.8-3.71" data-name="Path 546"></path><path fill="#fff" d="M19.432 13.585a15.294 15.294 0 0 0 .262-2.707l.357-.085a7.579 7.579 0 0 1 .762 3.784Z" data-name="Path 547"></path><path fill="#6a3ab5" d="M19.933 11.038a7.547 7.547 0 0 1 .7 3.145l-.966-.693a15.959 15.959 0 0 0 .246-2.446Zm.232-.49-.691.165a14.952 14.952 0 0 1-.273 2.965l1.773 1.273a7.624 7.624 0 0 0-.808-4.4" data-name="Path 548"></path><path fill="#452676" d="M22.867 17.358c-.649-2.44-2.491-6.975-2.491-6.975l1.656.449c2.66 1.969 2.872 5.812 2.872 5.812a48.191 48.191 0 0 1 .307 5.369c.131 2.215.361 5.108.553 7.1s.845 8.575.845 8.575a2.508 2.508 0 0 1-1.4 1.779c-2.722 1.2-2.772-2.364-2.835-3.33s.031-10.512.031-10.512Z" data-name="Path 549"></path><path fill="none" stroke="#452676" stroke-miterlimit="10" stroke-width=".389" d="M22.867 17.358c-.649-2.44-2.491-6.975-2.491-6.975l1.656.449c2.66 1.969 2.872 5.812 2.872 5.812a48.191 48.191 0 0 1 .307 5.369c.131 2.215.361 5.108.553 7.1s.845 8.575.845 8.575a2.508 2.508 0 0 1-1.4 1.779c-2.722 1.2-2.772-2.364-2.835-3.33s.031-10.512.031-10.512Z" data-name="Path 550"></path><path fill="#573095" d="m19.9 10.893.146-.146.6-.6 2.219 3.477-.6.85 1.264.474-.4 7.844-.633-.087c.266-5.745-2.594-11.815-2.594-11.815" data-name="Path 551"></path><path fill="none" stroke="#573095" stroke-miterlimit="10" stroke-width=".389" d="m19.9 10.893.146-.146.6-.6 2.219 3.477-.6.85 1.264.474-.4 7.844-.633-.087c.259-5.742-2.596-11.812-2.596-11.812Z" data-name="Path 552"></path><path fill="#d2d6fc" d="M14.99 1.584a4.272 4.272 0 0 1 4.547.192 4.23 4.23 0 0 1 1.854 2.552c.121.505.272.939.394 1.322s-.277.864-.277.864c.431.54.1 1.826.006 2.138a.684.684 0 0 1 .072.291.337.337 0 0 1-.242.32 6.842 6.842 0 0 0-.175 1.119A1.142 1.142 0 0 1 20 11.744a7.341 7.341 0 0 1-4.053-1.573 8.053 8.053 0 0 1-2.581-4.429 4.018 4.018 0 0 1 1.624-4.158" data-name="Path 553"></path><path fill="none" stroke="#6a3ab5" stroke-miterlimit="10" stroke-width=".421" d="M14.99 1.584a4.272 4.272 0 0 1 4.547.192 4.23 4.23 0 0 1 1.854 2.552c.121.505.272.939.394 1.322s-.277.864-.277.864c.431.54.1 1.826.006 2.138a.684.684 0 0 1 .072.291.337.337 0 0 1-.242.32 6.842 6.842 0 0 0-.175 1.119A1.142 1.142 0 0 1 20 11.744a7.341 7.341 0 0 1-4.053-1.573 8.053 8.053 0 0 1-2.581-4.429 4.018 4.018 0 0 1 1.624-4.158Z" data-name="Path 554"></path><path fill="#6a3ab4" d="M14.845 1.018a4.752 4.752 0 0 1 5.284 0 4.315 4.315 0 0 1 1.355 1.59 1.519 1.519 0 0 1-1.3 2.357 12.814 12.814 0 0 1-3.087-.288c-1.006.653-.606 1.725-.742 2.082s-.283.818-.509.948c-.139.079-.4-.148-.468-.226-.166-.189-1.308-1.512-1.378.119a7.467 7.467 0 0 1-.63-1.863 4.711 4.711 0 0 1-.08-.776 3.564 3.564 0 0 1 1.558-3.947" data-name="Path 555"></path><path fill="none" stroke="#6a3ab4" stroke-miterlimit="10" stroke-width=".422" d="M14.845 1.018a4.752 4.752 0 0 1 5.284 0 4.315 4.315 0 0 1 1.355 1.59 1.519 1.519 0 0 1-1.3 2.357 12.814 12.814 0 0 1-3.087-.288c-1.006.653-.606 1.725-.742 2.082s-.283.818-.509.948c-.139.079-.4-.148-.468-.226-.166-.189-1.308-1.512-1.378.119a7.467 7.467 0 0 1-.63-1.863 4.711 4.711 0 0 1-.08-.776 3.564 3.564 0 0 1 1.555-3.943Z" data-name="Path 556"></path><path fill="#441090" d="M16.353 6.76c-.135.359-.283.818-.509.947-.139.08-.4-.148-.469-.226-.163-.188-1.305-1.513-1.375.119a7.493 7.493 0 0 1-.631-1.863 4.709 4.709 0 0 1-.079-.777 9.142 9.142 0 0 0 3.115.823c-.052.41.02.786-.05.972" data-name="Path 557"></path><path fill="#452676" d="M13.287 11.486s4.371 3.058 6.193 10.527c.532 2.183 2.9 1.527 3.009 3.935.256 5.841.165 12.982-.7 13.761-1.221 1.1-3.73 2.434-8.156 1.245a4.6 4.6 0 0 1-2.391-1.434s1.846-8.2 1.807-10.091-3.81-14.159-3.81-14.159Z" data-name="Path 558"></path><path fill="none" stroke="#452676" stroke-miterlimit="10" stroke-width=".389" d="M13.287 11.486s4.371 3.058 6.193 10.527c.532 2.183 2.9 1.527 3.009 3.935.256 5.841.165 12.982-.7 13.761-1.221 1.1-3.73 2.434-8.156 1.245a4.6 4.6 0 0 1-2.391-1.434s1.846-8.2 1.807-10.091-3.81-14.159-3.81-14.159Z" data-name="Path 559"></path><path fill="#452676" d="m18.791 33.241-.469 1.543-3.422-.436 3.619.735Z" data-name="Path 560"></path><path fill="none" stroke="#452676" stroke-miterlimit="10" stroke-width=".389" d="m18.791 33.241-.469 1.543-3.422-.436 3.619.735Z" data-name="Path 561"></path><path fill="#573095" d="M13.833 10.451S21.3 21.26 22.92 25.117l-7.053-6.846.536-1.609-1.284.193-2.364-5.025Z" data-name="Path 562"></path><path fill="none" stroke="#573095" stroke-miterlimit="10" stroke-width=".389" d="M13.833 10.451S21.3 21.26 22.92 25.117l-7.053-6.846.536-1.609-1.284.193-2.364-5.025Z" data-name="Path 563"></path><path fill="#452676" d="M25.181 20.959a32.865 32.865 0 0 0-.277-4.315 8.813 8.813 0 0 0-2.5-5.507.906.906 0 0 0-.374-.3 7.661 7.661 0 0 1 4.421 3.261 25.342 25.342 0 0 0 2.262 4.029c.949 1.165 2.539 4.024 2.413 5.1s-2.38.843-2.727.7-1.932-1.227-1.932-1.227l-1.287-1.738" data-name="Path 564"></path><path fill="none" stroke="#452676" stroke-miterlimit="10" stroke-width=".389" d="M25.181 20.959a32.865 32.865 0 0 0-.277-4.315 8.813 8.813 0 0 0-2.5-5.507.906.906 0 0 0-.374-.3 7.661 7.661 0 0 1 4.421 3.261 25.342 25.342 0 0 0 2.262 4.029c.949 1.165 2.539 4.024 2.413 5.1s-2.38.843-2.727.7-1.932-1.227-1.932-1.227Z" data-name="Path 565"></path><path fill="#d2d6fc" d="M23.655 20.881c.4-.5 1.273-1.588 1.544-1.848.357-.342.759-.3 1.446-.206s1.846.833 1.878 1.413a1.621 1.621 0 0 1 .07.882c-1.389-.164-3.879-.22-4.938-.242" data-name="Path 566"></path><path fill="none" stroke="#6a3ab5" stroke-miterlimit="10" stroke-width=".421" d="M23.655 20.881c.4-.5 1.273-1.588 1.544-1.848.357-.342.759-.3 1.446-.206s1.846.833 1.878 1.413a1.621 1.621 0 0 1 .07.882c-1.393-.164-3.879-.222-4.938-.241Z" data-name="Path 567"></path><path fill="#d2d6fc" d="m20.5 20.918.027.01c-.413 1.828-.122 2.5-.035 2.653a11.667 11.667 0 0 0-1.51.343c-.231.068-.377.118-.377.118s-.918-1.178-1.9-2.49c1.229-.275 3.8-.635 3.8-.635" data-name="Path 568"></path><path fill="none" stroke="#6a3ab5" stroke-miterlimit="10" stroke-width=".421" d="m20.5 20.918.027.01c-.413 1.828-.122 2.5-.035 2.653a11.667 11.667 0 0 0-1.51.343c-.231.068-.377.118-.377.118s-.918-1.178-1.9-2.49c1.221-.275 3.795-.634 3.795-.634Z" data-name="Path 569"></path><path fill="#e2e9ed" d="m20.547 20.82 1.888.288a1.874 1.874 0 0 1 .735-.238 56.826 56.826 0 0 1 6 .341 2.316 2.316 0 0 1 1.885 2.9c-.405 1.369-.874 1.647-2.426 1.456a25.4 25.4 0 0 1-5.4-1.409 5.863 5.863 0 0 0-1.044-.349c-.894-.141-1.68-.194-1.68-.194s-.481-.591.037-2.8" data-name="Path 570"></path><path fill="#573095" d="M8.746 15.8a1.977 1.977 0 0 1 2.553-.924A10.906 10.906 0 0 1 14.4 18.28c.58 1.128 4.2 5.762 4.2 5.762s.146-.05.377-.118a11.334 11.334 0 0 1 1.509-.344.238.238 0 0 0 .023.035s.786.054 1.68.194a5.863 5.863 0 0 1 1.044.349c.171.066.348.131.529.2a13.137 13.137 0 0 1-3.193 3.774c-1.6.988-2.529 1.692-4.644-.178S10.681 21.7 9.7 20.477a5.3 5.3 0 0 1-.954-4.677" data-name="Path 571"></path><path fill="none" stroke="#573095" stroke-miterlimit="10" stroke-width=".389" d="M8.746 15.8a1.977 1.977 0 0 1 2.553-.924A10.906 10.906 0 0 1 14.4 18.28c.58 1.128 4.2 5.762 4.2 5.762s.146-.05.377-.118a11.334 11.334 0 0 1 1.509-.344.238.238 0 0 0 .023.035s.786.054 1.68.194a5.863 5.863 0 0 1 1.044.349c.171.066.348.131.529.2a13.137 13.137 0 0 1-3.193 3.774c-1.6.988-2.529 1.692-4.644-.178S10.681 21.7 9.7 20.477a5.3 5.3 0 0 1-.954-4.677Z" data-name="Path 572"></path><path fill="#203447" d="M20.488 23.581a.252.252 0 0 0 .023.035s.786.055 1.68.194a5.9 5.9 0 0 1 1.043.349c.172.066.349.131.53.2-.126.209-.331.536-.59.919a15.935 15.935 0 0 0-3.241-1.593c.183-.04.371-.073.556-.1" data-name="Path 573"></path><path fill="#573095" d="M21.052 20.505a5.462 5.462 0 0 0-.061 3.152s3.84 1.448 6.265 2.086 4.085-.233 3.879-2.948-3.508-1.891-4.3-1.976-5.785-.315-5.785-.315" data-name="Path 574"></path><path fill="none" stroke="#573095" stroke-miterlimit="10" stroke-width=".389" d="M21.052 20.505a5.462 5.462 0 0 0-.061 3.152s3.84 1.448 6.265 2.086 4.085-.233 3.879-2.948-3.508-1.891-4.3-1.976-5.783-.314-5.783-.314Z" data-name="Path 575"></path><path fill="#6a3ab5" d="M54.281 24.819a3.026 3.026 0 0 0 0-1.05 17.512 17.512 0 0 0-.968-3.227 17.685 17.685 0 0 1-.793-3.39c-.122-.951-1.157-2.178-2.489-.811s-1.626 6.709 4.25 8.479" data-name="Path 576"></path><path fill="#6a3ab5" d="M44.1 74.783s-.929 1.115-.1 1.639 1.662-.684 2.05-1.377a9.57 9.57 0 0 1 1.223-1.774c.237-.194.373 1.284.373 1.284a16.069 16.069 0 0 1-2.1 3.218 7.671 7.671 0 0 1-3.492.5c-1.005-.085-1.588-.245-1.612-.676s1.519-1.191 1.916-1.512 1.747-1.3 1.747-1.3" data-name="Path 577"></path><path fill="#d2d6fc" d="M42.842 57.471c.22 1.087.659 2.439.786 3.342s.566 4.162.843 5.653a22.352 22.352 0 0 1 .313 5.156 19.474 19.474 0 0 1-.734 3.2c.029-.022-.881 1.081-.055 1.6s1.664-.684 2.051-1.376a9.565 9.565 0 0 1 1.224-1.774.067.067 0 0 1 .026-.014l.155-1.492-.851-10.095s.343-9.891.465-10.822a23.839 23.839 0 0 0-.505-7.119c-.727-3.581-4.689-3.621-4.689-3.621a7.966 7.966 0 0 0-.263 1.113 28.3 28.3 0 0 0-.768 5.34 36.239 36.239 0 0 0 1.172 7.14c.343 1.355.609 2.683.828 3.769" data-name="Path 578"></path><path fill="none" stroke="#6a3ab5" stroke-miterlimit="10" stroke-width=".421" d="M42.842 57.471c.22 1.087.659 2.439.786 3.342s.566 4.162.843 5.653a22.352 22.352 0 0 1 .313 5.156 19.474 19.474 0 0 1-.734 3.2c.029-.022-.881 1.081-.055 1.6s1.664-.684 2.051-1.376a9.565 9.565 0 0 1 1.224-1.774.067.067 0 0 1 .026-.014l.155-1.492-.851-10.095s.343-9.891.465-10.822a23.839 23.839 0 0 0-.505-7.119c-.727-3.581-4.689-3.621-4.689-3.621a7.966 7.966 0 0 0-.263 1.113 28.3 28.3 0 0 0-.768 5.34 36.239 36.239 0 0 0 1.172 7.14c.344 1.355.61 2.682.83 3.769Z" data-name="Path 579"></path><path fill="#d2d6fc" d="M51.634 42.293a5.344 5.344 0 0 0-4.042 2.326c-.849 1.355-1.253 4.167-1.658 6.331s-1.637 8.7-1.556 9.77 1.415 3.6 1.837 4.733a28.836 28.836 0 0 1 .652 5.748c-.023.641-.037 2.728 0 3.3a3.659 3.659 0 0 1-.257 1.299l-.039.056c-.14.216-.578 1 .292 1.177 1.013.211 2.338.025 2.583-1.334a21.183 21.183 0 0 0 .3-3.835 2.871 2.871 0 0 0-.346-1.377v-.473a29.158 29.158 0 0 0 .956-5.933 5.152 5.152 0 0 0-1.677-3.216 30.5 30.5 0 0 1 1.96-5.036 68.642 68.642 0 0 0 3.537-10.074 2.737 2.737 0 0 0-2.547-3.459" data-name="Path 580"></path><path fill="none" stroke="#6a3ab5" stroke-miterlimit="10" stroke-width=".421" d="M51.634 42.293a5.344 5.344 0 0 0-4.042 2.326c-.849 1.355-1.253 4.167-1.658 6.331s-1.637 8.7-1.556 9.77 1.415 3.6 1.837 4.733a28.836 28.836 0 0 1 .652 5.748c-.023.641-.037 2.728 0 3.3a3.659 3.659 0 0 1-.257 1.299l-.039.056c-.14.216-.578 1 .292 1.177 1.013.211 2.338.025 2.583-1.334a21.183 21.183 0 0 0 .3-3.835 2.871 2.871 0 0 0-.346-1.377v-.473a29.158 29.158 0 0 0 .956-5.933 5.152 5.152 0 0 0-1.677-3.216 30.5 30.5 0 0 1 1.96-5.036 68.642 68.642 0 0 0 3.537-10.074 2.737 2.737 0 0 0-2.542-3.462Z" data-name="Path 581"></path><path fill="#573095" d="M53.6 42.033c1.141.619 1.442 3.044.309 5.964s-4.4 10.821-4.4 10.821-.231.237-1.8-.2-5.1-1.519-5.1-1.519-1.879-7.342-1.879-10.046a16.2 16.2 0 0 1 .957-5.667c.36-.927 9.213-.817 11.915.647" data-name="Path 582"></path><path fill="none" stroke="#573095" stroke-miterlimit="10" stroke-width=".389" d="M53.6 42.033c1.141.619 1.442 3.044.309 5.964s-4.4 10.821-4.4 10.821-.231.237-1.8-.2-5.1-1.519-5.1-1.519-1.879-7.342-1.879-10.046a16.2 16.2 0 0 1 .957-5.667c.36-.927 9.213-.817 11.913.647Z" data-name="Path 583"></path><path fill="#d2d6fc" d="M38.2 30.723c-.335-.349-1.105-1.135-1.789-1.121s-3.776.568-5.158.495a15.52 15.52 0 0 1-2.117-.168c-.093-.046-1.592-1.318-1.873-1.432a20.111 20.111 0 0 0-2.167-.489c-.355-.046-.462.081-.368.335s.375.341.8.455 1.05.3 1.043.476-.508.088-.843.088h-.789s-1.692-.442-1.993-.469-.789.027-.728.227.481.247.728.328 1.893.656 1.893.656-.114.08-.174.04-1.685-.435-1.946-.508-.669-.1-.769.053.013.355.261.422a6.378 6.378 0 0 1 .6.214s-.434.054-.32.289.622.327.622.327l.442.114s.829.542 1.11.677a7.9 7.9 0 0 0 1.5.529c.362.046 1.612-.295 2.3-.242a30.824 30.824 0 0 1 3.564.348c1.118.234 5.5.758 6.031.484s.137-2.126.137-2.126" data-name="Path 584"></path><path fill="none" stroke="#6a3ab5" stroke-miterlimit="10" stroke-width=".421" d="M38.2 30.723c-.335-.349-1.105-1.135-1.789-1.121s-3.776.568-5.158.495a15.52 15.52 0 0 1-2.117-.168c-.093-.046-1.592-1.318-1.873-1.432a20.111 20.111 0 0 0-2.167-.489c-.355-.046-.462.081-.368.335s.375.341.8.455 1.05.3 1.043.476-.508.088-.843.088h-.789s-1.692-.442-1.993-.469-.789.027-.728.227.481.247.728.328 1.893.656 1.893.656-.114.08-.174.04-1.685-.435-1.946-.508-.669-.1-.769.053.013.355.261.422a6.378 6.378 0 0 1 .6.214s-.434.054-.32.289.622.327.622.327l.442.114s.829.542 1.11.677a7.9 7.9 0 0 0 1.5.529c.362.046 1.612-.295 2.3-.242a30.824 30.824 0 0 1 3.564.348c1.118.234 5.5.758 6.031.484s.14-2.128.14-2.128Z" data-name="Path 585"></path><path fill="#263033" d="M29.623 29.828h.043Z" data-name="Path 586"></path><path fill="#573095" d="M42.988 21.449c-.824.91-2.421 3.766-3.562 5.246s-1.421 2.462-2.066 2.652a34.492 34.492 0 0 1-5.032.54 21.082 21.082 0 0 1-2.663-.055 7.771 7.771 0 0 1-.19 2.656s3.615.38 5.38.561a12.725 12.725 0 0 0 4.058-.169c.243-.158 4.5-4.451 4.951-5.1s1.354-7.08 1.354-7.08a2.862 2.862 0 0 0-2.23.751" data-name="Path 587"></path><path fill="none" stroke="#573095" stroke-miterlimit="10" stroke-width=".389" d="M42.988 21.449c-.824.91-2.421 3.766-3.562 5.246s-1.421 2.462-2.066 2.652a34.492 34.492 0 0 1-5.032.54 21.082 21.082 0 0 1-2.663-.055 7.771 7.771 0 0 1-.19 2.656s3.615.38 5.38.561a12.725 12.725 0 0 0 4.058-.169c.243-.158 4.5-4.451 4.951-5.1s1.354-7.08 1.354-7.08a2.862 2.862 0 0 0-2.23.749Z" data-name="Path 588"></path><path fill="#6a3ab5" d="M46.61 75.8s-.759 1.022.253 1.233 2.338.025 2.583-1.334a21.183 21.183 0 0 0 .3-3.835 2.871 2.871 0 0 0-.346-1.377v-.473a1.331 1.331 0 0 1 1.08.862c.372.836-.144 2.112-.3 3.033a20.4 20.4 0 0 0-.253 2.651 2.973 2.973 0 0 1-1 2.492 6.932 6.932 0 0 1-3.165 1.31c-.548-.1-.051-3.666.844-4.561" data-name="Path 589"></path><path fill="#6035a4" d="M43.769 35.107a12.332 12.332 0 0 1-.413-6.432 45.415 45.415 0 0 1 1.721-5.4l1.291-2.625-1.881.077a5.156 5.156 0 0 0-1.174 2.747 23.323 23.323 0 0 1-1.421 4.777c-.489 1.066-1.243 1.744-.81 3.055s1.453 2.64 1.576 3.841a3.544 3.544 0 0 1-.212 2.29 19.464 19.464 0 0 0-1.717 7.111 4.967 4.967 0 0 0 1.282.933c.695.32 2.312.486 2.75-2.974 0 0 .347 4.294 2.531 4.338a14 14 0 0 0 7.627-2.157 14.154 14.154 0 0 0-1.449-3.929c-.842-1.156-2.167-2.5-1.738-4.715a46.435 46.435 0 0 1 2.861-7.244l.558-3.746-3.083-2.711s-1.819 3.265-2.63 4.909-5.022 7.608-5.669 7.854" data-name="Path 590"></path><path fill="#d2d6fc" d="M54.84 36.933c-.8-.15-2.251.607-3.153 1.362s-3.813 3.452-4.177 3.587-1.838.2-2.225.31a15.011 15.011 0 0 0-1.669.863c-.3.148-.741.472-.606.607s.231.174.627.146a3.266 3.266 0 0 0 1.074-.42c.23-.109.5-.206.425.006a7.8 7.8 0 0 1-.861.994 10.041 10.041 0 0 1-1.2.851c-.315.178-.97.4-1 .443s-.184.1-.114.3.436.149.591.143 1.763-.051 2.216-.057a2.946 2.946 0 0 0 1.281-.293 19.9 19.9 0 0 0 1.651-1.52 20.01 20.01 0 0 1 2.965-1.962 49.937 49.937 0 0 0 5.26-3.995c.363-.3-.357-1.229-1.088-1.365" data-name="Path 591"></path><path fill="none" stroke="#6a3ab5" stroke-miterlimit="10" stroke-width=".421" d="M54.84 36.933c-.8-.15-2.251.607-3.153 1.362s-3.813 3.452-4.177 3.587-1.838.2-2.225.31a15.011 15.011 0 0 0-1.669.863c-.3.148-.741.472-.606.607s.231.174.627.146a3.266 3.266 0 0 0 1.074-.42c.23-.109.5-.206.425.006a7.8 7.8 0 0 1-.861.994 10.041 10.041 0 0 1-1.2.851c-.315.178-.97.4-1 .443s-.184.1-.114.3.436.149.591.143 1.763-.051 2.216-.057a2.946 2.946 0 0 0 1.281-.293 19.9 19.9 0 0 0 1.651-1.52 20.01 20.01 0 0 1 2.965-1.962 49.937 49.937 0 0 0 5.26-3.995c.367-.303-.354-1.229-1.085-1.365Z" data-name="Path 592"></path><path fill="#573095" d="M47.45 41.724a4.559 4.559 0 0 1 1.1 2.169s4.114-2.73 5.768-4.054 2.434-2.1 2.48-2.849-.3-5.306-.495-6.809-.015-4.809-1.683-5.476-3.046.758-2.637 3.489 1.7 7.752 1.561 8.04-5.71 5.242-6.1 5.49" data-name="Path 593"></path><path fill="none" stroke="#573095" stroke-miterlimit="10" stroke-width=".389" d="M47.45 41.724a4.559 4.559 0 0 1 1.1 2.169s4.114-2.73 5.768-4.054 2.434-2.1 2.48-2.849-.3-5.306-.495-6.809-.015-4.809-1.683-5.476-3.046.758-2.637 3.489 1.7 7.752 1.561 8.04-5.706 5.243-6.094 5.49Z" data-name="Path 594"></path><path fill="#d2d6fc" d="M50.744 18.892a3.878 3.878 0 0 1-.493.541 9.25 9.25 0 0 1-1.615 1.73 11.419 11.419 0 0 1-2.434.968 4.23 4.23 0 0 1-.125 1.2c-.259.776-2.244 5.881-1.071 5.883 1.532 0 5.711-6.028 6.092-7.738a4.121 4.121 0 0 1-.6-1.2 3.07 3.07 0 0 1 .247-1.387" data-name="Path 595"></path><path fill="none" stroke="#6a3ab5" stroke-miterlimit="10" stroke-width=".421" d="M50.744 18.892a3.878 3.878 0 0 1-.493.541 9.25 9.25 0 0 1-1.615 1.73 11.419 11.419 0 0 1-2.434.968 4.23 4.23 0 0 1-.125 1.2c-.259.776-2.244 5.881-1.071 5.883 1.532 0 5.711-6.028 6.092-7.738a4.121 4.121 0 0 1-.6-1.2 3.07 3.07 0 0 1 .246-1.384Z" data-name="Path 596"></path><path fill="#fff" d="M43.832 34.66a12.281 12.281 0 0 1-.543-5.489s.311-1.364.595-2.412c.172-.5.363-1.016.559-1.507a6.026 6.026 0 0 1 .643-.854l.717-.048-1.033 5.39 3.066-4.752 1.606.323a1.081 1.081 0 0 1 .082.089 97.937 97.937 0 0 1-5.691 9.26" data-name="Path 597"></path><path fill="#6a3ab5" d="m45.543 24.578-.776 4.052-.41 2.137 1.179-1.828 2.4-3.717 1.3.262A99.386 99.386 0 0 1 43.9 34.19a11.852 11.852 0 0 1-.413-4.959c0-.013.315-1.38.587-2.392.161-.473.345-.971.547-1.476a5.779 5.779 0 0 1 .561-.761Zm.518-.459-1.074.072a6.29 6.29 0 0 0-.742.982c-.2.493-.389 1.008-.567 1.529-.285 1.058-.6 2.435-.6 2.435a12.43 12.43 0 0 0 .69 5.969 96.142 96.142 0 0 0 6-9.724 1.325 1.325 0 0 0-.232-.269l-1.8-.363-2.555 3.96Z" data-name="Path 598"></path><path fill="#441090" d="M52.268 22.364s-.534 3.577-.924 3.872a2.76 2.76 0 0 1-1.188.348l1.069.75s-5.133 6.613-7.456 7.773c0 0 3.755-5.82 5.289-8.556s2.542-4.674 2.542-4.674Z" data-name="Path 599"></path><path fill="#441090" d="M45.737 22.708s-3.854 6.316-1.968 12.4c0 0-2.754-3.52-.659-9.638l1.061-.121-.16-1.633 1.959-1.96Z" data-name="Path 600"></path><path fill="#fff" d="M43.9 24.976c.407-.674 1.32-2.156 1.967-3.191l.387.045a8.447 8.447 0 0 0-.4 2.164c-.72.38-1.485.767-1.951.982" data-name="Path 601"></path><path fill="#6a3ab5" d="M45.973 22.01a8.56 8.56 0 0 0-.337 1.853c-.4.211-.817.424-1.178.6.4-.673.967-1.587 1.511-2.459m-.217-.45s-2.288 3.656-2.275 3.789c0 .006.007.008.018.008a27.286 27.286 0 0 0 2.563-1.236 8.706 8.706 0 0 1 .469-2.471Z" data-name="Path 602"></path><path fill="#fff" d="M49.45 26.724c-.269-.3-.876-1.126-1.427-1.928A9.718 9.718 0 0 0 50.7 21.02l.687.633a25.576 25.576 0 0 1-1.939 5.071" data-name="Path 603"></path><path fill="#6a3ab5" d="m50.779 21.378.384.354a27.385 27.385 0 0 1-1.753 4.614 31.685 31.685 0 0 1-1.1-1.512 9.9 9.9 0 0 0 2.473-3.456m-.165-.726a9.635 9.635 0 0 1-2.878 4.1 17.532 17.532 0 0 0 1.746 2.269 21.731 21.731 0 0 0 2.127-5.453Z" data-name="Path 604"></path><path fill="#5e1f03" d="m45.023 14.814-.6.639a2.58 2.58 0 0 0 .112 1.5c.311.774.492-2.141.492-2.141" data-name="Path 605"></path><path fill="#d2d6fc" d="M44.408 19.513a2.931 2.931 0 0 1 .043-1.972l.059-.238a1.06 1.06 0 0 1-.119-.81 5.887 5.887 0 0 1 1.492-2.979 3.989 3.989 0 0 1 4.965-.645c1.966 1.279 1.309 3.46 1.137 4.249a8.221 8.221 0 0 1-1.806 2.992 7.074 7.074 0 0 1-3.152 1.952c-1.129.263-1.815.129-2.117-.987-.161-.431-.354-1.13-.5-1.563" data-name="Path 606"></path><path fill="none" stroke="#6a3ab5" stroke-miterlimit="10" stroke-width=".421" d="M44.408 19.513a2.931 2.931 0 0 1 .043-1.972l.059-.238a1.06 1.06 0 0 1-.119-.81 5.887 5.887 0 0 1 1.492-2.979 3.989 3.989 0 0 1 4.965-.645c1.966 1.279 1.309 3.46 1.137 4.249a8.221 8.221 0 0 1-1.806 2.992 7.074 7.074 0 0 1-3.152 1.952c-1.129.263-1.815.129-2.117-.987-.159-.43-.353-1.129-.502-1.562Z" data-name="Path 607"></path><path fill="#6a3ab5" d="M50.546 18.089c.522-.2.775-.241.873-.2l.14.141s.249-.06.263 1.2a2.68 2.68 0 0 0 .816 1.987 7.644 7.644 0 0 1-.374-2.079 11.192 11.192 0 0 0 .625 1.616 9.422 9.422 0 0 1 .87 1.889c.146.561.305 1.119.305 1.119a10.925 10.925 0 0 0-.368-2.141c-.2-.665-1.046-2.192-.991-3.162.094-1.63.569-3.741-1.144-5.515a4.219 4.219 0 0 0-4.683-.776 3.888 3.888 0 0 0-2.458 3.278s.457-.155 1.118.539a2.666 2.666 0 0 1 1.737.28c.973.481 1.5 2.495 3.272 1.816" data-name="Path 608"></path><path fill="#6a3ab5" d="M50.886 17.968a.277.277 0 0 0-.087 0 1.672 1.672 0 0 1-1.729-.553c-.607-.672-1.328-1.8-2.309-1.916s-1.265.449-1.265.449l.042.041a2.673 2.673 0 0 1 1.737.28c.973.481 1.5 2.495 3.272 1.816.13-.051.242-.09.341-.12" data-name="Path 609"></path><path fill="#6a3ab5" d="M48.556 16.091a7.693 7.693 0 0 0 .83 1.077 2.1 2.1 0 0 0 1.711.657l.362-.183a7.729 7.729 0 0 1-1.878-.558 8.257 8.257 0 0 1-1.024-.994" data-name="Path 610"></path><path fill="#6a3ab5" d="M46.974 13.118a4.958 4.958 0 0 1 2.31-1.279 4.529 4.529 0 0 0-2.407.337 3.887 3.887 0 0 0-2.458 3.277s.444-.148 1.089.51a6.634 6.634 0 0 1 1.465-2.845" data-name="Path 611"></path><path fill="#6a3ab5" d="M50.759 12.981a3.358 3.358 0 0 1 .513.5 4.512 4.512 0 0 1 1.082 2.954 4.854 4.854 0 0 1-.052.715 6 6 0 0 0 0-.722 5.387 5.387 0 0 0-1.065-2.908 3.867 3.867 0 0 0-.479-.54" data-name="Path 612"></path><path fill="#2e1c51" d="M5.746 89.378s-.216 1.537 0 1.807a5.14 5.14 0 0 0 3.1.465c1.213-.21.151-2.4.151-2.4Z" data-name="Path 613"></path><path fill="#381077" d="M5.746 88.967s-.216 1.537 0 1.807a5.14 5.14 0 0 0 3.1.465c1.213-.21.151-2.4.151-2.4Z" data-name="Path 614"></path><path fill="#4c2a83" d="M6.478 59.15s.522 8.184.365 10.419S5.3 75.615 5.3 77.44s.121 6.367 0 7.827a19.415 19.415 0 0 0 .324 3.893s2.755.811 3.161.406a36.673 36.673 0 0 0 2.016-3.3s-.015-7.772.648-10.732 1.437-4.169 1.883-6.562 1.572-14.794 1.572-14.794L8.463 53.2Z" data-name="Path 615"></path><path fill="none" stroke="#4c2a83" stroke-miterlimit="10" stroke-width=".422" d="M6.478 59.15s.522 8.184.365 10.419S5.3 75.615 5.3 77.44s.121 6.367 0 7.827a19.415 19.415 0 0 0 .324 3.893s2.755.811 3.161.406a36.673 36.673 0 0 0 2.016-3.3s-.015-7.772.648-10.732 1.437-4.169 1.883-6.562 1.572-14.794 1.572-14.794L8.463 53.2Z" data-name="Path 616"></path><path fill="#381077" d="M12.367 89.259a4.211 4.211 0 0 0 .357 1.879c.409.55 1.2 1.316 1.239 1.7a2.782 2.782 0 0 1-.064.806s-.025.192-1.124-.37-1.417-1.8-1.775-2.364a8.747 8.747 0 0 0-3.256-2.62C6.7 87.961 6.6 88.135 6.6 88.135a12.176 12.176 0 0 1 2-2.646c.651-.371.511.022 1.2.677a11.685 11.685 0 0 1 2.567 3.093" data-name="Path 617"></path><path fill="#2e1c51" d="M12.688 93.6c-1.1-.562-1.417-1.8-1.775-2.364a8.486 8.486 0 0 0-1.172-1.3l-1.85.364s.707.328.746.793c.052.625-.015 1.4.513 1.609.919.358 3.746 1.137 4.318 1.246a5.7 5.7 0 0 1-.782-.347" data-name="Path 618"></path><path fill="#2e1c51" d="M12.776 93.273c-1.1-.562-1.417-1.8-1.775-2.364a8.756 8.756 0 0 0-3.257-2.619C6.7 87.961 6.6 88.135 6.6 88.135l.019-.031-.019.011-.415 1.1c.084-.062.335-.019.677.051a11.252 11.252 0 0 1 3.058 1.661l.231.1.235-.447a5.382 5.382 0 0 1 .526.651c.358.562.677 1.8 1.775 2.364s1.124.37 1.124.37a2.8 2.8 0 0 0 .051-.3c-.078.02-.323-.006-1.087-.4" data-name="Path 619"></path><path fill="#2e1c51" d="M10.062 91.03a12.288 12.288 0 0 0-3.205-1.763c-.342-.07-.593-.113-.677-.051-.194.144.323.646 1.341 1.2a8.863 8.863 0 0 1 2.542.614" data-name="Path 620"></path><path fill="#573095" d="m20.742 58.744-8.442-.283c.388 2.838 3.745 11.882 3.745 11.882A25.844 25.844 0 0 0 13 74.267c-.808 1.533-5.459 12.37-5.459 12.37a9.773 9.773 0 0 1 5.228 3.292s5.177-12.489 6.271-14.193a13.856 13.856 0 0 0 2.836-7.219c.324-3.69-1.135-9.773-1.135-9.773" data-name="Path 621"></path><path fill="none" stroke="#573095" stroke-miterlimit="10" stroke-width=".389" d="m20.742 58.744-8.442-.283c.388 2.838 3.745 11.882 3.745 11.882A25.844 25.844 0 0 0 13 74.267c-.808 1.533-5.459 12.37-5.459 12.37a9.773 9.773 0 0 1 5.228 3.292s5.177-12.489 6.271-14.193a13.856 13.856 0 0 0 2.836-7.219c.324-3.69-1.134-9.773-1.134-9.773Z" data-name="Path 622"></path><path fill="#d2d6fc" d="M13.72 33.407c-.1-.313-.241-2.205.114-2.533s1.237-.327 1.564-1.04a11.127 11.127 0 0 0 .725-2.433c.014-.327-.355-.91-.1-1.423a3.693 3.693 0 0 0-.214-2.391 3.189 3.189 0 0 0-3.057-2.333c-2.175-.114-4.052.54-4.891 2.178a4.888 4.888 0 0 0-.34 4.168 18.286 18.286 0 0 1 1.151 2.889 2.956 2.956 0 0 1-.995 2.111s-.086.911 1.962 1.679a7.97 7.97 0 0 0 4.507 0Z" data-name="Path 623"></path><path fill="none" stroke="#6a3ab5" stroke-miterlimit="10" stroke-width=".421" d="M13.72 33.407c-.1-.313-.241-2.205.114-2.533s1.237-.327 1.564-1.04a11.127 11.127 0 0 0 .725-2.433c.014-.327-.355-.91-.1-1.423a3.693 3.693 0 0 0-.214-2.391 3.189 3.189 0 0 0-3.057-2.333c-2.175-.114-4.052.54-4.891 2.178a4.888 4.888 0 0 0-.34 4.168 18.286 18.286 0 0 1 1.151 2.889 2.956 2.956 0 0 1-.995 2.111s-.086.911 1.962 1.679a7.97 7.97 0 0 0 4.507 0Z" data-name="Path 624"></path><path fill="#441090" d="M14.08 20.856c-1.327-.541-4.228-.74-5.778.854a5.377 5.377 0 0 0-.659 6.22 12.427 12.427 0 0 1 1.025 2.546 2.8 2.8 0 0 0 .954.3 2.9 2.9 0 0 0 2.644-.569c.555-.57.754-1.978 1.167-2.377s1.108-.211 1.294-.212.313-.328.327-.456-.085-1.182.156-1.509a1.442 1.442 0 0 0 .27-1.01 3.165 3.165 0 0 1-.1-.839 5.251 5.251 0 0 1 .143-.854.747.747 0 0 0 .291-.556c.029-.569-.41-1-1.738-1.537" data-name="Path 625"></path><path fill="#441090" d="M7.521 27.6a18.921 18.921 0 0 1 1.151 2.878 2.808 2.808 0 0 0 .954.3 2.9 2.9 0 0 0 2.645-.569c.554-.569.754-1.978 1.166-2.377s1.109-.211 1.294-.212.312-.328.326-.456a6.526 6.526 0 0 1 .052-1.249 13.94 13.94 0 0 1-4.819 1.579 8.438 8.438 0 0 1-2.857-.159c.028.09.056.18.088.27" data-name="Path 626"></path><path fill="#d2d6fc" d="M5.034 55.544C4.9 55.219 3.789 54.28 3.6 53.983a6.285 6.285 0 0 1-.206-1.714l-2.338.49s0 1.98-.015 2.523a13.493 13.493 0 0 0 .1 2.7 6.244 6.244 0 0 0 .98 1.928 10.328 10.328 0 0 0 1.429 1.258c.236.119.418.231.631.061s.692-.552.589-1-.923-1.88-1.043-2.2-.319-.965-.1-1.277.493-.6.538-.57.673 1.959.975 1.983.71.163.532-.626a14.355 14.355 0 0 0-.632-1.995" data-name="Path 627"></path><path fill="none" stroke="#6a3ab5" stroke-miterlimit="10" stroke-width=".421" d="M5.034 55.544C4.9 55.219 3.789 54.28 3.6 53.983a6.285 6.285 0 0 1-.206-1.714l-2.338.49s0 1.98-.015 2.523a13.493 13.493 0 0 0 .1 2.7 6.244 6.244 0 0 0 .98 1.928 10.328 10.328 0 0 0 1.429 1.258c.236.119.418.231.631.061s.692-.552.589-1-.923-1.88-1.043-2.2-.319-.965-.1-1.277.493-.6.538-.57.673 1.959.975 1.983.71.163.532-.626a14.355 14.355 0 0 0-.638-1.995Z" data-name="Path 628"></path><path fill="#573095" d="M4.849 31.8a3.646 3.646 0 0 0-2.219 1.662A39.762 39.762 0 0 0 1.094 40.7c-.151 1.489-.581 7.5-.7 10.09S.2 54.833.2 54.833s3.013 0 3.939-1.189c0 0 .677-5.982.711-6.651s1.237-5.941 1.237-5.941l.452-7.966Z" data-name="Path 629"></path><path fill="none" stroke="#573095" stroke-miterlimit="10" stroke-width=".389" d="M4.849 31.8a3.646 3.646 0 0 0-2.219 1.662A39.762 39.762 0 0 0 1.094 40.7c-.151 1.489-.581 7.5-.7 10.09S.2 54.833.2 54.833s3.013 0 3.939-1.189c0 0 .677-5.982.711-6.651s1.237-5.941 1.237-5.941l.452-7.966Z" data-name="Path 630"></path><path fill="#6035a4" d="M18.94 51.491c-.179-1.923-.774-14.107-.774-14.107l-1.559-1.72s-4.737-2.608-6.557-2.814a3.6 3.6 0 0 1-2.46-1.05 11.417 11.417 0 0 0-2.741 0c-.949.2-1.844 2.332-1.588 4.819A22.761 22.761 0 0 0 6.156 44.8c1.256 1.975 1.41 3.283 1.1 4.539A26.9 26.9 0 0 0 6.1 59.578a21.6 21.6 0 0 0 3.557 1.744l.948-6.9-.174 7.188a22.046 22.046 0 0 0 3.313.889c3.3.605 7.123-1.853 7.635-3.083 0 0-2.255-6-2.434-7.923" data-name="Path 631"></path><path fill="#573095" d="M7.941 31.26a14.948 14.948 0 0 0 2.982 1.04c2.019.524 3.854.686 5.685 3.368a25.708 25.708 0 0 0-2.8-.778 20.558 20.558 0 0 1-4.315-.67 4.7 4.7 0 0 1-2.636-2.15Z" data-name="Path 632"></path><path fill="none" stroke="#573095" stroke-miterlimit="10" stroke-width=".389" d="M7.941 31.26a14.948 14.948 0 0 0 2.982 1.04c2.019.524 3.854.686 5.685 3.368a25.708 25.708 0 0 0-2.8-.778 20.558 20.558 0 0 1-4.315-.67 4.7 4.7 0 0 1-2.636-2.15Z" data-name="Path 633"></path><path fill="#6035a4" d="M21.374 59.413s-2.255-6-2.434-7.923c-.133-1.428-.5-8.515-.673-12.068l-2.842.54s-1.223.948-.952 3.352 1.479 7.5 1.675 10.71c.129 2.111.126 5.642.026 8.432 2.522-.475 4.811-2.111 5.2-3.044" data-name="Path 634"></path><path fill="#d2d6fc" d="M24.745 53.2a3.389 3.389 0 0 0 .764.208 5.916 5.916 0 0 1 2.091 1.023c.541.489.815 1 .738 1.3a5.188 5.188 0 0 1-.421.97c-.112.189-.7.558-.883.806a.572.572 0 0 1-.484.249c-.065 0-.606.36-.845.5s-.479-.026-.955-.447a3.378 3.378 0 0 1-.82-1.88l-.728-.438Z" data-name="Path 635"></path><path fill="none" stroke="#6a3ab5" stroke-miterlimit="10" stroke-width=".421" d="M24.745 53.2a3.389 3.389 0 0 0 .764.208 5.916 5.916 0 0 1 2.091 1.023c.541.489.815 1 .738 1.3a5.188 5.188 0 0 1-.421.97c-.112.189-.7.558-.883.806a.572.572 0 0 1-.484.249c-.065 0-.606.36-.845.5s-.479-.026-.955-.447a3.378 3.378 0 0 1-.82-1.88l-.728-.438Z" data-name="Path 636"></path><path fill="#573095" d="M16.431 36.882a3.535 3.535 0 0 1 3.422 3.672c.141 2.825.177 7.583.795 9.039l4.943 3.811a11.228 11.228 0 0 1-2.251 3.14s-5.1-3.162-5.78-3.6-1.136-2.075-1.375-3.411-1.555-7.44-1.675-8.777-.064-3.542 1.921-3.875" data-name="Path 637"></path><path fill="none" stroke="#573095" stroke-miterlimit="10" stroke-width=".389" d="M16.431 36.882a3.535 3.535 0 0 1 3.422 3.672c.141 2.825.177 7.583.795 9.039l4.943 3.811a11.228 11.228 0 0 1-2.251 3.14s-5.1-3.162-5.78-3.6-1.136-2.075-1.375-3.411-1.555-7.44-1.675-8.777-.063-3.541 1.921-3.874Z" data-name="Path 638"></path></g></g></svg>