<svg xmlns="http://www.w3.org/2000/svg" data-name="Vector Smart Object" viewBox="0 0 85 100"><defs><clipPath id="a"><path fill="none" d="M0 0h85v100H0z" data-name="Rectangle 16"></path></clipPath><clipPath id="b"><path fill="none" d="M0 0h85v100H0z" data-name="Rectangle 9"></path></clipPath><clipPath id="c"><path fill="none" d="M2.198 2.113h23.006v44.305H2.198z" data-name="Rectangle 10"></path></clipPath><clipPath id="d"><path fill="none" d="M59.38 53.726h2.203v12.039H59.38z" data-name="Rectangle 12"></path></clipPath><clipPath id="e"><path fill="none" d="M22.179 76.934h1.58v1.711h-1.58z" data-name="Rectangle 13"></path></clipPath><clipPath id="f"><path fill="none" d="M22.493 80.822h1.888v8.15h-1.888z" data-name="Rectangle 14"></path></clipPath></defs><g data-name="Group 36"><g clip-path="url(#a)" data-name="Group 35"><path fill="#381077" d="m13.981 8.909-.61-.44-6.507 59.758.611.44Z" data-name="Path 83"></path><path fill="#381077" d="m12.761 8.159.611.44L25.2 56.917l-.611-.44Z" data-name="Path 84"></path><path fill="#573095" d="m14.126 9 .737-.426L8.4 67.955l-.738.426Z" data-name="Path 85"></path><path fill="#573095" d="m14.678 8.863-6.423 59-.406.235 6.422-59Zm.373-.573-1.07.618-6.505 59.759 1.069-.618Z" data-name="Path 86"></path><path fill="#573095" d="m13.55 8.675.791-.457 11.754 48-.791.457Z" data-name="Path 87"></path><path fill="#573095" d="m14.24 8.456 11.678 47.691-.513.3L13.728 8.752Zm.2-.474-1.07.618L25.2 56.918l1.07-.619Z" data-name="Path 88"></path><path fill="#573095" d="m11.253 11.025.724-.419-6.914 42.171-.724.418Z" data-name="Path 89"></path><path fill="#573095" d="m11.772 10.9-6.85 41.779-.378.218 6.849-41.775Zm.41-.595-1.07.618-6.978 42.569 1.07-.618Z" data-name="Path 90"></path><path fill="#381077" d="m10.429 10.589.683.338-6.978 42.565-.683-.338Z" data-name="Path 91"></path><path fill="#fff" d="M1.216 13.459 23.01.864l3.59 34.449L4.806 47.909Z" data-name="Path 92"></path><path fill="#6a3ab5" d="m22.869 1.14 3.552 34.083L4.946 47.634 1.394 13.55Zm.281-.551L1.037 13.368l3.628 34.816L26.778 35.4Z" data-name="Path 93"></path><path fill="#573095" d="M.576 13.319 4.2 48.134l.461.05-3.625-34.816L22.719.837l-.03-.3Z" data-name="Path 94"></path><g data-name="Group 18"><g clip-path="url(#b)" data-name="Group 17"><path fill="none" stroke="#573095" stroke-miterlimit="10" stroke-width=".309" d="M1.037 13.368 22.719.837l-.031-.3L.575 13.318 4.2 48.134l.462.05Z" data-name="Path 95"></path></g></g><path fill="#381077" d="m5.789 48.7-1.17-.515v-.512l1.17.515Z" data-name="Path 96"></path><path fill="#d2d6fc" d="m4.9 47.656 21.846-12.638.883.39L5.781 48.046Z" data-name="Path 97"></path><path fill="#6a3ab5" d="m26.753 35.16.6.263L5.773 47.9l-.6-.263Zm-.015-.283L4.619 47.671l1.17.516 22.119-12.8Z" data-name="Path 98"></path><path fill="#381077" d="M27.908 35.9 5.789 48.7v-.512l22.119-12.8Z" data-name="Path 99"></path><g data-name="Group 23"><g clip-path="url(#b)" data-name="Group 22"><g data-name="Group 21" opacity=".1"><g data-name="Group 20"><g clip-path="url(#c)" data-name="Group 19"><path d="M25.2 34.956 5.377 46.418 2.2 13.573l19.824-11.46Z" data-name="Path 100"></path></g></g></g></g></g><path fill="#fff" d="M2.655 13.333 22.163 2.056l3.144 32.479L5.8 45.811Z" data-name="Path 101"></path><path fill="#6a3ab5" d="m22.022 2.331 3.108 32.112L5.94 45.535 2.832 13.423Zm.283-.551L2.478 13.241l3.178 32.845 19.828-11.461Z" data-name="Path 102"></path><path fill="#381077" d="M.918 13.474 1.757 15 24.682 1.755l-.84-1.531Z" data-name="Path 103"></path><path fill="#381077" d="M22.925 0 0 13.25l.918.223L23.843.224Z" data-name="Path 104"></path><g data-name="Group 34"><g clip-path="url(#b)" data-name="Group 33"><path fill="#441090" d="M48.922 16.474a2.459 2.459 0 0 0 0-.848 14.2 14.2 0 0 0-.781-2.605 14.263 14.263 0 0 1-.64-2.736c-.1-.767-.934-1.758-2.008-.654s-1.312 5.415 3.429 6.843" data-name="Path 105"></path><path fill="#260b5b" d="M40.879 56.8s-.749.9-.081 1.323 1.341-.553 1.655-1.111a7.707 7.707 0 0 1 .986-1.432c.191-.156.3 1.037.3 1.037a12.962 12.962 0 0 1-1.7 2.6 6.2 6.2 0 0 1-2.819.4c-.811-.068-1.28-.2-1.3-.546s1.226-.961 1.546-1.22 1.41-1.05 1.41-1.05" data-name="Path 106"></path><path fill="#260b5b" d="M43.44 55.58a7.721 7.721 0 0 0-.987 1.431 4.854 4.854 0 0 1-.315.493 3.24 3.24 0 0 1-.391 1.848 1.492 1.492 0 0 0 .3-.139 13 13 0 0 0 1.7-2.6s-.109-1.193-.3-1.036" data-name="Path 107"></path><path fill="#d2d6fc" d="M39.868 42.827c.177.878.531 1.969.634 2.7s.457 3.359.681 4.563a18.006 18.006 0 0 1 .251 4.161 15.742 15.742 0 0 1-.591 2.579c.023-.017-.712.873-.044 1.3s1.341-.553 1.655-1.111a7.637 7.637 0 0 1 .987-1.431.057.057 0 0 1 .021-.012l.125-1.2-.687-8.158s.277-7.984.375-8.735a19.254 19.254 0 0 0-.408-5.747c-.586-2.89-3.783-2.922-3.783-2.922a6.324 6.324 0 0 0-.212.9 22.834 22.834 0 0 0-.62 4.31 29.294 29.294 0 0 0 .946 5.763c.278 1.093.492 2.165.669 3.042" data-name="Path 108"></path><path fill="none" stroke="#6a3ab5" stroke-miterlimit="10" stroke-width=".253" d="M39.868 42.827c.177.878.531 1.969.634 2.7s.457 3.359.681 4.563a18.006 18.006 0 0 1 .251 4.161 15.742 15.742 0 0 1-.591 2.579c.023-.017-.712.873-.044 1.3s1.341-.553 1.655-1.111a7.637 7.637 0 0 1 .987-1.431.057.057 0 0 1 .021-.012l.125-1.2-.687-8.158s.277-7.984.375-8.735a19.254 19.254 0 0 0-.408-5.747c-.586-2.89-3.783-2.922-3.783-2.922a6.324 6.324 0 0 0-.212.9 22.834 22.834 0 0 0-.62 4.31 29.294 29.294 0 0 0 .946 5.763c.279 1.091.493 2.163.67 3.04Z" data-name="Path 109"></path><path fill="#d2d6fc" d="M46.962 30.577a4.313 4.313 0 0 0-3.262 1.878c-.685 1.094-1.011 3.363-1.337 5.111s-1.32 7.019-1.255 7.885a23.528 23.528 0 0 0 1.481 3.82 23.227 23.227 0 0 1 .526 4.64c-.018.517-.029 2.2 0 2.666a2.955 2.955 0 0 1-.2 1.043l-.031.045c-.114.175-.467.8.235.95.818.17 1.886.02 2.084-1.077a16.983 16.983 0 0 0 .245-3.1 2.319 2.319 0 0 0-.279-1.111v-.382a23.531 23.531 0 0 0 .771-4.789 4.156 4.156 0 0 0-1.354-2.6 24.7 24.7 0 0 1 1.577-4.056 55.345 55.345 0 0 0 2.854-8.13 2.208 2.208 0 0 0-2.054-2.792" data-name="Path 110"></path><path fill="none" stroke="#6a3ab5" stroke-miterlimit="10" stroke-width=".253" d="M46.962 30.577a4.313 4.313 0 0 0-3.262 1.878c-.685 1.094-1.011 3.363-1.337 5.111s-1.32 7.019-1.255 7.885a23.528 23.528 0 0 0 1.481 3.82 23.227 23.227 0 0 1 .526 4.64c-.018.517-.029 2.2 0 2.666a2.955 2.955 0 0 1-.2 1.043l-.031.045c-.114.175-.467.8.235.95.818.17 1.886.02 2.084-1.077a16.983 16.983 0 0 0 .245-3.1 2.319 2.319 0 0 0-.279-1.111v-.382a23.531 23.531 0 0 0 .771-4.789 4.156 4.156 0 0 0-1.354-2.6 24.7 24.7 0 0 1 1.577-4.056 55.345 55.345 0 0 0 2.854-8.13 2.208 2.208 0 0 0-2.055-2.793Z" data-name="Path 111"></path><path fill="#381077" d="M48.551 30.367c.921.5 1.163 2.457.249 4.813s-3.552 8.736-3.552 8.736-.186.19-1.453-.163-4.112-1.226-4.112-1.226-1.519-5.925-1.519-8.107a13.072 13.072 0 0 1 .772-4.574c.291-.748 7.434-.659 9.614.522" data-name="Path 112"></path><path fill="#d2d6fc" d="M36.119 21.239c-.269-.282-.892-.916-1.444-.9s-3.047.459-4.162.4a12.448 12.448 0 0 1-1.708-.136c-.076-.037-1.285-1.064-1.511-1.156a16.033 16.033 0 0 0-1.749-.395c-.286-.038-.372.064-.3.27s.3.276.642.367.848.244.843.384-.41.071-.68.071h-.638s-1.366-.357-1.608-.38-.637.022-.588.184.388.2.588.265.027.21-.183.151-.54-.081-.621.043.011.286.21.34a5.108 5.108 0 0 1 .487.173s-.351.043-.259.233.5.264.5.264l.356.093s.67.438.9.546a6.375 6.375 0 0 0 1.215.427c.292.037 1.3-.238 1.856-.2a24.78 24.78 0 0 1 2.877.282c.9.189 4.438.611 4.866.391s.111-1.716.111-1.716" data-name="Path 113"></path><path fill="none" stroke="#6a3ab5" stroke-miterlimit="10" stroke-width=".253" d="M36.119 21.239c-.269-.282-.892-.916-1.444-.9s-3.047.459-4.162.4a12.448 12.448 0 0 1-1.708-.136c-.076-.037-1.285-1.064-1.511-1.156a16.033 16.033 0 0 0-1.749-.395c-.286-.038-.372.064-.3.27s.3.276.642.367.848.244.843.384-.41.071-.68.071h-.638s-1.366-.357-1.608-.38-.637.022-.588.184.388.2.588.265.027.21-.183.151-.54-.081-.621.043.011.286.21.34a5.108 5.108 0 0 1 .487.173s-.351.043-.259.233.5.264.5.264l.356.093s.67.438.9.546a6.375 6.375 0 0 0 1.215.427c.292.037 1.3-.238 1.856-.2a24.78 24.78 0 0 1 2.877.282c.9.189 4.438.611 4.866.391s.111-1.717.111-1.717Z" data-name="Path 114"></path><path fill="#fff" d="m29.4 20.624-.529-.094a5.11 5.11 0 0 1-.12 1.972l.529.034a6.559 6.559 0 0 0 .12-1.913" data-name="Path 115"></path><path fill="#004a61" d="M29.2 20.517h.034Z" data-name="Path 116"></path><path fill="#573095" d="M39.986 13.754c-.666.734-1.953 3.039-2.874 4.235s-1.146 1.986-1.667 2.14a27.73 27.73 0 0 1-4.06.436 16.947 16.947 0 0 1-2.149-.044 6.276 6.276 0 0 1-.154 2.144s2.917.307 4.341.453a10.274 10.274 0 0 0 3.277-.138c.2-.128 3.628-3.593 4-4.113s1.092-5.72 1.092-5.72a2.311 2.311 0 0 0-1.8.606" data-name="Path 117"></path><path fill="none" stroke="#573095" stroke-miterlimit="10" stroke-width=".309" d="M39.986 13.754c-.666.734-1.953 3.039-2.874 4.235s-1.146 1.986-1.667 2.14a27.73 27.73 0 0 1-4.06.436 16.947 16.947 0 0 1-2.149-.044 6.276 6.276 0 0 1-.154 2.144s2.917.307 4.341.453a10.274 10.274 0 0 0 3.277-.138c.2-.128 3.628-3.593 4-4.113s1.092-5.72 1.092-5.72a2.311 2.311 0 0 0-1.806.607Z" data-name="Path 118"></path><path fill="#260b5b" d="M42.909 57.619s-.612.825.2 1 1.886.02 2.085-1.077a17.166 17.166 0 0 0 .245-3.1 2.325 2.325 0 0 0-.28-1.111v-.382a1.072 1.072 0 0 1 .872.7c.3.674-.117 1.7-.238 2.447a16.572 16.572 0 0 0-.205 2.141 2.4 2.4 0 0 1-.81 2.01 5.585 5.585 0 0 1-2.55 1.053c-.442-.082-.041-2.958.681-3.681" data-name="Path 119"></path><path fill="#573095" d="M40.616 24.777a9.953 9.953 0 0 1-.333-5.192 36.578 36.578 0 0 1 1.388-4.357l1.042-2.118-1.518.061a4.179 4.179 0 0 0-.947 2.218 18.828 18.828 0 0 1-1.148 3.856c-.394.861-1 1.407-.655 2.465s1.174 2.131 1.272 3.1a2.848 2.848 0 0 1-.171 1.847 15.721 15.721 0 0 0-1.385 5.74 3.973 3.973 0 0 0 1.035.753c.56.259 1.865.392 2.218-2.4 0 0 .28 3.465 2.042 3.5a11.293 11.293 0 0 0 6.154-1.741 11.413 11.413 0 0 0-1.17-3.171c-.68-.932-1.749-2.016-1.4-3.805a37.49 37.49 0 0 1 2.31-5.847l.45-3.024-2.487-2.188s-1.469 2.636-2.123 3.963-4.053 6.14-4.574 6.339" data-name="Path 120"></path><path fill="none" stroke="#573095" stroke-miterlimit="10" stroke-width=".309" d="M40.616 24.777a9.953 9.953 0 0 1-.333-5.192 36.578 36.578 0 0 1 1.388-4.357l1.042-2.118-1.518.061a4.179 4.179 0 0 0-.947 2.218 18.828 18.828 0 0 1-1.148 3.856c-.394.861-1 1.407-.655 2.465s1.174 2.131 1.272 3.1a2.848 2.848 0 0 1-.171 1.847 15.721 15.721 0 0 0-1.385 5.74 3.973 3.973 0 0 0 1.035.753c.56.259 1.865.392 2.218-2.4 0 0 .28 3.465 2.042 3.5a11.293 11.293 0 0 0 6.154-1.741 11.413 11.413 0 0 0-1.17-3.171c-.68-.932-1.749-2.016-1.4-3.805a37.49 37.49 0 0 1 2.31-5.847l.45-3.024-2.487-2.188s-1.469 2.636-2.123 3.963-4.052 6.142-4.574 6.34Z" data-name="Path 121"></path><path fill="#d2d6fc" d="M49.55 26.251a4.1 4.1 0 0 0-2.544 1.1c-.728.61-3.077 2.786-3.371 2.9s-1.482.163-1.8.251a12.12 12.12 0 0 0-1.346.7c-.238.12-.6.381-.489.489s.186.141.506.118a2.628 2.628 0 0 0 .867-.339c.185-.088.4-.166.343.005a6.327 6.327 0 0 1-.695.8 8.005 8.005 0 0 1-.964.687c-.254.144-.782.325-.811.357s-.148.084-.093.242.352.12.478.116 1.422-.042 1.788-.046a2.385 2.385 0 0 0 1.034-.237 16.253 16.253 0 0 0 1.334-1.225 16.028 16.028 0 0 1 2.393-1.583 40.277 40.277 0 0 0 4.244-3.224c.294-.245-.288-.993-.878-1.1" data-name="Path 122"></path><path fill="none" stroke="#6a3ab5" stroke-miterlimit="10" stroke-width=".253" d="M49.55 26.251a4.1 4.1 0 0 0-2.544 1.1c-.728.61-3.077 2.786-3.371 2.9s-1.482.163-1.8.251a12.12 12.12 0 0 0-1.346.7c-.238.12-.6.381-.489.489s.186.141.506.118a2.628 2.628 0 0 0 .867-.339c.185-.088.4-.166.343.005a6.327 6.327 0 0 1-.695.8 8.005 8.005 0 0 1-.964.687c-.254.144-.782.325-.811.357s-.148.084-.093.242.352.12.478.116 1.422-.042 1.788-.046a2.385 2.385 0 0 0 1.034-.237 16.253 16.253 0 0 0 1.334-1.225 16.028 16.028 0 0 1 2.393-1.583 40.277 40.277 0 0 0 4.244-3.224c.297-.253-.284-1.001-.874-1.111Z" data-name="Path 123"></path><path fill="#fff" d="m43.689 30.1-.227.118a5.021 5.021 0 0 1 .819 1.711l.254-.2a2.772 2.772 0 0 0-.846-1.63" data-name="Path 124"></path><path fill="#573095" d="M43.587 30.118a3.675 3.675 0 0 1 .891 1.751s3.32-2.2 4.655-3.272 1.964-1.691 2-2.3-.24-4.282-.4-5.5-.012-3.882-1.358-4.42-2.459.612-2.129 2.817 1.37 6.257 1.26 6.49-4.608 4.23-4.921 4.43" data-name="Path 125"></path><path fill="none" stroke="#573095" stroke-miterlimit="10" stroke-width=".309" d="M43.587 30.118a3.675 3.675 0 0 1 .891 1.751s3.32-2.2 4.655-3.272 1.964-1.691 2-2.3-.24-4.282-.4-5.5-.012-3.882-1.358-4.42-2.459.612-2.129 2.817 1.37 6.257 1.26 6.49-4.606 4.234-4.919 4.434Z" data-name="Path 126"></path><path fill="#d2d6fc" d="M46.244 11.689a3.113 3.113 0 0 1-.4.437 7.47 7.47 0 0 1-1.3 1.4 9.182 9.182 0 0 1-1.965.781 3.383 3.383 0 0 1-.1.969c-.209.626-1.811 4.746-.865 4.748 1.237 0 4.609-4.865 4.916-6.246a3.34 3.34 0 0 1-.486-.966 2.49 2.49 0 0 1 .2-1.119" data-name="Path 127"></path><path fill="none" stroke="#6a3ab5" stroke-miterlimit="10" stroke-width=".253" d="M46.244 11.689a3.113 3.113 0 0 1-.4.437 7.47 7.47 0 0 1-1.3 1.4 9.182 9.182 0 0 1-1.965.781 3.383 3.383 0 0 1-.1.969c-.209.626-1.811 4.746-.865 4.748 1.237 0 4.609-4.865 4.916-6.246a3.34 3.34 0 0 1-.486-.966 2.49 2.49 0 0 1 .2-1.123Z" data-name="Path 128"></path><path fill="#fff" d="M40.665 24.421a9.931 9.931 0 0 1-.439-4.436s.251-1.1.479-1.947c.14-.407.294-.819.452-1.215a4.85 4.85 0 0 1 .521-.693l.582-.038-.832 4.341 2.472-3.827 1.314.265a.4.4 0 0 0 .051.07 78.978 78.978 0 0 1-4.6 7.479" data-name="Path 129"></path><path fill="#6a3ab5" d="m42.053 16.274-.627 3.277-.326 1.7.938-1.455 1.937-3 1.059.212a79.951 79.951 0 0 1-4.31 7.042 9.576 9.576 0 0 1-.337-4.014c0-.011.254-1.114.475-1.932.138-.406.288-.807.44-1.193a4.785 4.785 0 0 1 .456-.616Zm.412-.364-.867.057a5.047 5.047 0 0 0-.6.793c-.159.4-.314.814-.458 1.234-.23.855-.484 1.966-.484 1.966a10.024 10.024 0 0 0 .557 4.817 77.4 77.4 0 0 0 4.847-7.847 1.059 1.059 0 0 0-.187-.217l-1.456-.293-2.061 3.2Z" data-name="Path 130"></path><path fill="#381077" d="M47.474 14.491s-.431 2.887-.746 3.125a2.223 2.223 0 0 1-.958.282l.863.6s-4.142 5.337-6.016 6.273c0 0 3.03-4.7 4.268-6.906s2.052-3.765 2.052-3.765Z" data-name="Path 131"></path><path fill="#381077" d="M42.2 14.77s-3.11 5.1-1.588 10.007c0 0-2.223-2.841-.532-7.778l.857-.1-.129-1.318L42.393 14Z" data-name="Path 132"></path><path fill="#fff" d="M40.714 16.606a238.27 238.27 0 0 1 1.592-2.584l.316.036a6.9 6.9 0 0 0-.326 1.751c-.585.309-1.207.624-1.582.8" data-name="Path 133"></path><path fill="#6a3ab5" d="M42.393 14.2h.01a6.987 6.987 0 0 0-.273 1.5c-.335.175-.678.351-.97.5.328-.546.788-1.292 1.233-2m-.173-.358s-1.846 2.951-1.835 3.058c0 0 .005.007.014.007a22.124 22.124 0 0 0 2.067-1 7.044 7.044 0 0 1 .38-1.994Z" data-name="Path 134"></path><path fill="#fff" d="M45.2 18.015c-.217-.238-.708-.91-1.155-1.56a7.844 7.844 0 0 0 2.164-3.055l.557.513a20.571 20.571 0 0 1-1.566 4.1" data-name="Path 135"></path><path fill="#6a3ab5" d="m46.271 13.689.316.291a22.052 22.052 0 0 1-1.418 3.736 27.797 27.797 0 0 1-.9-1.23 8.007 8.007 0 0 0 2-2.8m-.132-.579a7.766 7.766 0 0 1-2.323 3.309 14.068 14.068 0 0 0 1.41 1.832 17.587 17.587 0 0 0 1.716-4.4Z" data-name="Path 136"></path><path fill="#602003" d="m41.629 8.4-.487.515a2.084 2.084 0 0 0 .089 1.213c.251.625.4-1.728.4-1.728" data-name="Path 137"></path><path fill="#d2d6fc" d="M41.132 12.191a2.364 2.364 0 0 1 .034-1.591l.047-.193a.855.855 0 0 1-.095-.653 4.755 4.755 0 0 1 1.2-2.4 3.218 3.218 0 0 1 4.006-.52c1.587 1.032 1.057 2.792.918 3.43a6.633 6.633 0 0 1-1.457 2.415 5.711 5.711 0 0 1-2.543 1.575c-.912.212-1.465.1-1.71-.8-.13-.347-.285-.912-.405-1.261" data-name="Path 138"></path><path fill="none" stroke="#6a3ab5" stroke-miterlimit="10" stroke-width=".253" d="M41.132 12.191a2.364 2.364 0 0 1 .034-1.591l.047-.193a.855.855 0 0 1-.095-.653 4.755 4.755 0 0 1 1.2-2.4 3.218 3.218 0 0 1 4.006-.52c1.587 1.032 1.057 2.792.918 3.43a6.633 6.633 0 0 1-1.457 2.415 5.711 5.711 0 0 1-2.543 1.575c-.912.212-1.465.1-1.71-.8-.125-.349-.279-.913-.4-1.263Z" data-name="Path 139"></path><path fill="#441090" d="M46.084 11.041c.421-.162.625-.193.7-.158L46.9 11s.2-.048.212.971a2.166 2.166 0 0 0 .658 1.6 6.159 6.159 0 0 1-.3-1.678 9.058 9.058 0 0 0 .5 1.3 7.611 7.611 0 0 1 .7 1.524c.118.453.246.9.246.9a8.841 8.841 0 0 0-.3-1.728 8.92 8.92 0 0 1-.8-2.551c.076-1.316.459-3.019-.923-4.452a3.4 3.4 0 0 0-3.779-.625 3.136 3.136 0 0 0-1.983 2.644s.369-.125.9.435a2.156 2.156 0 0 1 1.4.226c.785.388 1.213 2.013 2.64 1.466" data-name="Path 140"></path><path fill="#441090" d="M46.359 10.944a.271.271 0 0 0-.07 0 1.347 1.347 0 0 1-1.4-.446c-.49-.543-1.072-1.456-1.863-1.546s-1.021.362-1.021.362a.514.514 0 0 0 .033.033 2.164 2.164 0 0 1 1.4.226c.785.388 1.214 2.014 2.641 1.467.1-.041.2-.072.275-.1" data-name="Path 141"></path><path fill="#441090" d="M44.48 9.429a6.233 6.233 0 0 0 .67.87 1.7 1.7 0 0 0 1.381.53l.292-.147a6.211 6.211 0 0 1-1.515-.451 6.729 6.729 0 0 1-.827-.8" data-name="Path 142"></path><path fill="#441090" d="M43.2 7.029A4 4 0 0 1 45.067 6a3.647 3.647 0 0 0-1.942.272 3.134 3.134 0 0 0-1.983 2.644s.358-.12.878.412a5.361 5.361 0 0 1 1.183-2.3" data-name="Path 143"></path><path fill="#441090" d="M46.256 6.919a2.779 2.779 0 0 1 .414.4 3.65 3.65 0 0 1 .873 2.385 4.132 4.132 0 0 1-.042.577 4.844 4.844 0 0 0 0-.583 4.373 4.373 0 0 0-.86-2.347 3.121 3.121 0 0 0-.386-.436" data-name="Path 144"></path><path fill="#1c0942" d="m43.87 69.044-2.118 12.611.6-.363 2.118-12.611.005-.017a.447.447 0 0 0-.606.381" data-name="Path 145"></path><path fill="#3d1c7c" d="m41.751 81.654 2.118-12.611a.467.467 0 0 1 .764-.308l4.1 2.5a1.949 1.949 0 0 1 .759 1.235l2.05 15.15.445.272-2.066-15.256A3.007 3.007 0 0 0 48.73 70.7l-4.1-2.5a.724.724 0 0 0-1.195.482l-2.133 12.7Z" data-name="Path 146"></path><path fill="#6a3ab5" d="m44.633 68.2 4.1 2.5a3.007 3.007 0 0 1 1.19 1.938l2.066 15.256.6-.362-2.066-15.259a3 3 0 0 0-1.191-1.938l-4.1-2.5a1.325 1.325 0 0 0-1.664.5.736.736 0 0 1 1.062-.134" data-name="Path 147"></path><path fill="#381077" fill-rule="evenodd" d="M43.751 73.18c.044-.423 1.041-.206 1.041-.206-.516.132-.16.733.525 1.024a3.988 3.988 0 0 0 2.047-.141 3.288 3.288 0 0 1 .765-.742.688.688 0 0 1 .551.046 2.716 2.716 0 0 1 .385 1.326v.085a3.779 3.779 0 0 1-.069.5 10.022 10.022 0 0 1-1.075.034 2.98 2.98 0 0 1-1.563-.622c-.347-.142-.916.009-1.53-.281a2.084 2.084 0 0 1-1.071-.9.446.446 0 0 1-.005-.127" data-name="Path 148"></path><path fill="#1c0942" fill-rule="evenodd" d="M44.827 74.207c.614.291 1.183.14 1.531.281a2.967 2.967 0 0 0 1.562.622 10.043 10.043 0 0 0 1.08-.034 1.058 1.058 0 0 1-.11.31l-.142.228-.5.488-.322.034s.029-.454.024-.915a2.988 2.988 0 0 1-1.563-.622c-.347-.141-.916.01-1.53-.281-.553-.263-1.039-.631-1.1-1.011a2.08 2.08 0 0 0 1.071.9" data-name="Path 149"></path><path fill="#381077" fill-rule="evenodd" d="M45.791 74.034a3.748 3.748 0 0 0-1.058.93 2.8 2.8 0 0 1-1.391 1.365c-.626.165-2.1.52-2.409.619a1.079 1.079 0 0 1-.686 0c-.212-.149-.43-.7.353-1.22 0 0-2.2.681-2.194 1.572 0 .523 1.1.93 2.056.681a26.541 26.541 0 0 1 2.617-.893c.871-.159 3.1.264 3.3-1.035a2.346 2.346 0 0 0-.587-2.021" data-name="Path 150"></path><path fill="#1c0942" fill-rule="evenodd" d="M38.413 77.355c.072.5 1.123.868 2.049.628a26.541 26.541 0 0 1 2.617-.893c.871-.159 3.1.264 3.3-1.035a2.832 2.832 0 0 0 .029-.358 2.711 2.711 0 0 1-.029.5.94.94 0 0 1-.074.25l-.039.072a.923.923 0 0 1-.3.318 12.341 12.341 0 0 0-1.048 1.4l-.535-.122.167-.945a14.642 14.642 0 0 0-1.474.059 26.541 26.541 0 0 0-2.617.893c-.959.249-2.055-.158-2.056-.683a.5.5 0 0 1 .007-.087" data-name="Path 151"></path><path fill="#1c0942" fill-rule="evenodd" d="m65.391 61.876.182 1.18s.083.782-.909.871a1.639 1.639 0 0 1-1.648-1.027c-.294-.465-1.02-1.419-1.8-1.554s-2.251-1.362-1.929-2.127c.28-.663 1.956-.9 3.605.162v.428a1.777 1.777 0 0 0 .908 1.508 5.948 5.948 0 0 0 1.593.558" data-name="Path 152"></path><path fill="#381077" d="m62.374 56.612 3.354.6-.153 4.894s-1.225 1.195-2.252.106a7.063 7.063 0 0 1-1.441-2.723 10.908 10.908 0 0 0 .492-2.879" data-name="Path 153"></path><path fill="#1c0942" d="m74.426 50.2-2.118 12.61.6-.362 2.118-12.611.005-.017a.447.447 0 0 0-.606.381" data-name="Path 154"></path><path fill="#3d1c7c" d="M72.308 62.808 74.426 50.2a.467.467 0 0 1 .763-.309l4.1 2.5a1.951 1.951 0 0 1 .759 1.236L82.1 68.775l.445.271-2.067-15.256a3 3 0 0 0-1.191-1.938l-4.1-2.5a.724.724 0 0 0-1.187.485l-2.133 12.7Z" data-name="Path 155"></path><path fill="#6a3ab5" d="m75.189 49.355 4.1 2.5a3.01 3.01 0 0 1 1.19 1.938l2.066 15.256.6-.362-2.066-15.26a3.011 3.011 0 0 0-1.191-1.938l-4.1-2.5a1.323 1.323 0 0 0-1.663.5.737.737 0 0 1 1.062-.134" data-name="Path 156"></path><path fill="#260b5b" d="M79.764 54.215 72.623 49.9a3.551 3.551 0 0 0-3.336 0l-8.33 5.036a1.087 1.087 0 0 0-.6 1.384 1.088 1.088 0 0 0 .6 1.384L68.1 62.02a3.557 3.557 0 0 0 3.336 0l8.33-5.037a1.087 1.087 0 0 0 .6-1.384 1.086 1.086 0 0 0-.6-1.383" data-name="Path 157"></path><path fill="#a2acf8" d="M69.766 62.267a3.1 3.1 0 0 1-1.581-.392l-7.142-4.317a1.1 1.1 0 0 1-.6-.813 1.914 1.914 0 0 0 .431.349l7.142 4.317a3.716 3.716 0 0 0 3.508 0l8.33-5.036a1.977 1.977 0 0 0 .432-.349 1.1 1.1 0 0 1-.605.812l-8.33 5.037a3.1 3.1 0 0 1-1.581.392" data-name="Path 158"></path><path fill="#6a3ab5" d="M68.264 61.728a4.022 4.022 0 0 0 3 0h-.006a3.217 3.217 0 0 1-2.99 0ZM80.369 55.6a1.475 1.475 0 0 1-.6.633l-8.331 5.036a3.553 3.553 0 0 1-3.336 0l-7.145-4.319a1.464 1.464 0 0 1-.6-.633 1.089 1.089 0 0 0 .6 1.384l7.143 4.318a3.553 3.553 0 0 0 3.336 0l8.331-5.036a1.09 1.09 0 0 0 .6-1.384" data-name="Path 159"></path><path fill="#573095" d="M65.392 45.027c2.728.1 9.016 3.7 9.016 3.7l2.984 1.731a8.229 8.229 0 0 1 0 4.918 4.62 4.62 0 0 1-4.292 2.965l-7.372-1.127-3.428-3.088c-.067-1.6-.107-4.828-.244-5.556s.612-3.64 3.341-3.543" data-name="Path 160"></path><path fill="none" stroke="#573095" stroke-miterlimit="10" stroke-width=".309" d="M65.392 45.027c2.728.1 9.016 3.7 9.016 3.7l2.984 1.731a8.229 8.229 0 0 1 0 4.918 4.62 4.62 0 0 1-4.292 2.965l-7.372-1.127-3.428-3.088c-.067-1.6-.107-4.828-.244-5.556s.608-3.64 3.336-3.543Z" data-name="Path 161"></path><path fill="#d2d6fc" fill-rule="evenodd" d="M73.865 32.8a4.455 4.455 0 0 1-.689-1.636c-.017-.618.74-2.636.345-4.363a4.093 4.093 0 0 0-4.206-3.035 3.3 3.3 0 0 0-3.129 3.253 11.2 11.2 0 0 0 .965 4.066c.219.539.416 1.719 1.253 1.863a1.551 1.551 0 0 0 .728-.176 3.96 3.96 0 0 1 .687 2.355 3.769 3.769 0 0 0 4.046-2.327" data-name="Path 162"></path><path fill="none" stroke="#6a3ab5" stroke-miterlimit="10" stroke-width=".253" d="M73.865 32.8a4.455 4.455 0 0 1-.689-1.636c-.017-.618.74-2.636.345-4.363a4.093 4.093 0 0 0-4.206-3.035 3.3 3.3 0 0 0-3.129 3.253 11.2 11.2 0 0 0 .965 4.066c.219.539.416 1.719 1.253 1.863a1.551 1.551 0 0 0 .728-.176 3.96 3.96 0 0 1 .687 2.355 3.769 3.769 0 0 0 4.046-2.327Z" data-name="Path 163"></path><path fill="#5d37a5" d="M66.444 24.763c1.307-1.725 4.026-1.583 4.92-1.3s2.708 1.323 2.5 4.41l-.662 3a6.6 6.6 0 0 1-1.51.756c-.443.146-1.979.565-2.378-.174-.138-.256-.445-.8-.643-1.172l-.954-.467s-.214-2.021-1.533-2.371c0 0-1.049-.955.258-2.681" data-name="Path 164"></path><path fill="#441090" d="M67.237 28.328a5.561 5.561 0 0 0 1.53.637c2.477.9 5.074-.986 5.075-.988l-.64 2.894a6.6 6.6 0 0 1-1.509.755c-.443.146-1.98.566-2.378-.174-.138-.255-.446-.8-.643-1.172l-.954-.466a4.289 4.289 0 0 0-.481-1.487" data-name="Path 165"></path><path fill="#313131" fill-rule="evenodd" d="M54.96 63.329c1.066.013 1.991.539 3.137-.184a4.272 4.272 0 0 0 2.85 1l.336.753a3.433 3.433 0 0 1 .28 1.461 1.457 1.457 0 0 1-1.649.706c-1.258-.192-1.586-.581-3.088-.441-1.322.124-3.255-.516-3.786-1.682s.747-1.629 1.921-1.615" data-name="Path 166"></path><path fill="#fff" fill-rule="evenodd" d="M77.354 48.984a6.958 6.958 0 0 1-.251-1.492 10.7 10.7 0 0 1 .871-3.871 26.571 26.571 0 0 0 .8-2.657c.038-.174.07-.344.1-.512.018 2.516-.04 7.218-1.128 8.319a.664.664 0 0 1-.385.212m1.26-12.131a28.773 28.773 0 0 0-.522-1.73 7.6 7.6 0 0 1 .522 1.73" data-name="Path 167"></path><path fill="#6a3ab5" d="M78.7 41.921c-.029 2.537-.216 5.86-1.077 6.731a.657.657 0 0 1-.155.119 7.64 7.64 0 0 1-.2-1.325 10.73 10.73 0 0 1 .866-3.771c.2-.586.4-1.184.564-1.755m-2-8.762a3.39 3.39 0 0 1 1.092 1.574c.822 2.46 1.287 4.053.822 6.195s-1.9 5.137-1.672 6.571a6.65 6.65 0 0 0 .3 1.656h.037c1.816 0 1.79-6.388 1.754-9.488-.033-2.8-.511-5.275-2.334-6.509" data-name="Path 168"></path><path fill="#1c0942" d="M62.061 57.787 59.944 70.4l.6-.362 2.118-12.611.005-.017a.447.447 0 0 0-.606.381" data-name="Path 169"></path><path fill="#3d1c7c" d="m59.944 70.4 2.118-12.61a.468.468 0 0 1 .764-.309l4.1 2.5a1.951 1.951 0 0 1 .759 1.236l2.052 15.152.445.272-2.069-15.262a3 3 0 0 0-1.191-1.938l-4.1-2.5a.725.725 0 0 0-1.195.482L59.5 70.125Z" data-name="Path 170"></path><path fill="#6a3ab5" d="m62.825 56.944 4.1 2.5a3.007 3.007 0 0 1 1.19 1.938l2.066 15.256.6-.362-2.067-15.26a3.01 3.01 0 0 0-1.191-1.938l-4.1-2.5a1.325 1.325 0 0 0-1.664.5.736.736 0 0 1 1.062-.134" data-name="Path 171"></path><path fill="#6a3ab5" d="m81.8 49.516-.463.314-1.959 7.641.463-.314Z" data-name="Path 172"></path><path fill="#3d1c7c" d="m81.341 49.83-.284-.348-1.957 7.642.284.347Z" data-name="Path 173"></path><g data-name="Group 26" opacity=".6"><g data-name="Group 25"><g clip-path="url(#d)" data-name="Group 24"><path fill="#263133" d="M59.379 53.726c.512.311 1.58.854 1.58.854s.036.163.081.43l-.083-.075a1.09 1.09 0 0 0-.605 1.383 1.09 1.09 0 0 0 .605 1.384l.231.14a47.459 47.459 0 0 0 .4 7.769 10.052 10.052 0 0 1-1.72.155 59.157 59.157 0 0 1 .021-8.7 12.339 12.339 0 0 0-.506-3.341" data-name="Path 174"></path></g></g></g><path fill="#381077" d="M57.258 60.644c-.139-1.352-1.557-9.826-1.557-9.826a2.561 2.561 0 0 1 2.7-2.447c2.56.072 9.03 2.557 9.03 2.557l7.478.6s.88 4.734-.835 6.562c-1.278 1.361-3.426 2.556-6.539.73s-6.575-4.24-6.575-4.24.035.163.08.43l-.083-.075a1.087 1.087 0 0 0-.6 1.384 1.087 1.087 0 0 0 .6 1.383l.232.141a47.573 47.573 0 0 0 .393 7.768s-2.458.48-3.7-.25-1.105-1.5-1.105-1.5a9.528 9.528 0 0 0 .484-3.214" data-name="Path 175"></path><path fill="#fff" fill-rule="evenodd" d="M70.654 54.372c-1.1 0-3.633-.8-3.669-2.129-.027-1 .021-2.023.062-2.926.023-.477.043-.923.051-1.321.024-1.2-.563-6.216-.747-7.269-.3-1.7.486-3.385 2.274-4.879a54.1 54.1 0 0 1 4.975-3.477.976.976 0 0 1 .307-.032 4.013 4.013 0 0 1 3.721 2.448c.8 2.413 1.276 4 .817 6.106a26.658 26.658 0 0 1-.787 2.62 10.615 10.615 0 0 0-.887 4.013 6.655 6.655 0 0 0 .312 1.69 1.521 1.521 0 0 1-.128 1.771l-.177.242a6.474 6.474 0 0 1-1.86 1.865 11.011 11.011 0 0 1-4.11 1.272c-.047 0-.1.005-.152.005" data-name="Path 176"></path><path fill="#6a3ab5" d="M73.907 32.507a3.84 3.84 0 0 1 3.561 2.333c.8 2.386 1.261 3.952.812 6.017a26.655 26.655 0 0 1-.782 2.6 10.706 10.706 0 0 0-.9 4.057 6.958 6.958 0 0 0 .324 1.761 1.357 1.357 0 0 1-.1 1.607 8.838 8.838 0 0 0-.178.244 6.325 6.325 0 0 1-1.811 1.822 10.82 10.82 0 0 1-4.038 1.252c-.043 0-.09.005-.139.005-1.182 0-3.472-.83-3.5-1.966-.026-.992.021-2.013.062-2.914.022-.478.043-.926.051-1.325.024-1.214-.564-6.246-.75-7.3-.289-1.635.478-3.268 2.215-4.721a54.429 54.429 0 0 1 4.928-3.448.983.983 0 0 1 .246-.021m0-.336a1.09 1.09 0 0 0-.372.045 53.28 53.28 0 0 0-5.018 3.5c-1.976 1.652-2.615 3.435-2.331 5.038.187 1.066.768 6.078.745 7.236s-.155 2.728-.114 4.255c.038 1.456 2.645 2.293 3.838 2.293.058 0 .114 0 .165-.006A11.169 11.169 0 0 0 75 53.239a7.355 7.355 0 0 0 2.083-2.149 1.686 1.686 0 0 0 .151-1.934 6.693 6.693 0 0 1-.3-1.656c-.227-1.433 1.206-4.429 1.672-6.571s0-3.734-.822-6.195a4.143 4.143 0 0 0-3.88-2.563" data-name="Path 177"></path><path fill="#fff" fill-rule="evenodd" d="M69.459 34.232a6.842 6.842 0 0 1 1.4-1.193 27.471 27.471 0 0 1 2.477-1.339l.68.6c-.015 0 .21.585-.768 1.079a9.939 9.939 0 0 1-1.849.666 7.947 7.947 0 0 0-1.206.4c-.179.084-.647.354-.985.554Z" data-name="Path 178"></path><path fill="#6a3ab5" d="m73.308 31.9.53.469c.03.139.03.508-.668.86a9.673 9.673 0 0 1-1.819.655 8.045 8.045 0 0 0-1.23.414 9.99 9.99 0 0 0-.619.339l.1-.3a6.238 6.238 0 0 1 1.35-1.16 26.254 26.254 0 0 1 2.356-1.277m.055-.4a29.222 29.222 0 0 0-2.6 1.4 6.134 6.134 0 0 0-1.463 1.277l-.391 1.2s1.07-.641 1.355-.774c.814-.377 1.883-.48 3.059-1.073s.806-1.354.806-1.354Z" data-name="Path 179"></path><path fill="#d2d6fc" fill-rule="evenodd" d="M63.225 49.5a4 4 0 0 0-.911-.91 6.693 6.693 0 0 0-2.117-.633 2.012 2.012 0 0 0-1.4.791c-.318.395-.557.573-.428.882s.42.41.879.446.594.43 1.158.712a11.919 11.919 0 0 0 1.906.579Z" data-name="Path 180"></path><path fill="none" stroke="#6a3ab5" stroke-miterlimit="10" stroke-width=".253" d="M63.225 49.5a4 4 0 0 0-.911-.91 6.693 6.693 0 0 0-2.117-.633 2.012 2.012 0 0 0-1.4.791c-.318.395-.557.573-.428.882s.42.41.879.446.594.43 1.158.712a11.919 11.919 0 0 0 1.906.579Z" data-name="Path 181"></path><path fill="#fff" fill-rule="evenodd" d="M69.465 52.469a21.127 21.127 0 0 1-2.271-.216 21.86 21.86 0 0 0-1.222-.142c-1.024-.083-4.072-.808-4.452-.9a2.614 2.614 0 0 0-.016-.291 2.13 2.13 0 0 1 .544-1.467.919.919 0 0 1 .64-.3l4.734.13-.039-.205c-.013-.078-1.321-7.011-1.183-8.452.129-1.38.347-2.853 1.322-2.853a1.588 1.588 0 0 1 .6.137c2.222.919 2.695 3.272 2.736 6.768l.013.828c.041 2.445.1 5.8-.816 6.726a.733.733 0 0 1-.543.238Z" data-name="Path 182"></path><path fill="#6a3ab5" d="M67.519 37.941a1.436 1.436 0 0 1 .531.124c2.136.884 2.59 3.186 2.632 6.615l.013.828c.041 2.416.1 5.726-.767 6.606a.582.582 0 0 1-.452.187 20.919 20.919 0 0 1-2.257-.215c-.379-.053-.738-.1-1.231-.143-.937-.075-3.612-.7-4.3-.865a1.144 1.144 0 0 1-.012-.16 1.958 1.958 0 0 1 .5-1.346.76.76 0 0 1 .521-.254.909.909 0 0 1 .095.006l4.426.118.417.011-.077-.411a62.568 62.568 0 0 1-1.185-8.4c.122-1.307.322-2.7 1.155-2.7m0-.336c-1.173 0-1.372 1.732-1.49 3-.138 1.482 1.189 8.5 1.189 8.5l-4.426-.118a.906.906 0 0 0-.1-.006c-.761 0-1.367.979-1.353 1.941.005.369.106.443.106.443s3.4.822 4.517.912c1.222.1 1.645.271 3.5.359h.029c1.8 0 1.55-4.87 1.512-7.962-.037-3.157-.38-5.9-2.84-6.922a1.737 1.737 0 0 0-.659-.149" data-name="Path 183"></path><path fill="#6a3ab5" d="m73.067 54.965.463-.314-1.959 7.642-.463.313Z" data-name="Path 184"></path><path fill="#3d1c7c" d="m73.067 54.965-.284-.348-1.959 7.642.284.347Z" data-name="Path 185"></path><path fill="#381077" d="M84.6 41.945c-.124-.521-.6-.645-1.271-.239l-9.453 5.767a5.2 5.2 0 0 0-2.055 2.984l-.67 3.3c-.129.638.034 1.1.39 1.291.175.505.686.7 1.369.429l3.075-1.209a12.612 12.612 0 0 0 3.238-2.023l3.31-3.017a7.142 7.142 0 0 0 1.847-3.292l.571-2.817c.131-.648-.017-1.063-.352-1.175" data-name="Path 186"></path><path fill="#a2acf8" d="M72.734 48.857a4.374 4.374 0 0 1 1.231-1.239l9.453-5.768a1.252 1.252 0 0 1 .617-.217.369.369 0 0 1 .291.119 1.662 1.662 0 0 0-.715.263l-9.453 5.768a4.586 4.586 0 0 0-1.235 1.2Z" data-name="Path 187"></path><path fill="#6a3ab5" d="M84.035 41.464a1.406 1.406 0 0 0-.7.242l-9.453 5.768A4.7 4.7 0 0 0 72.5 48.9l.467.3a4.556 4.556 0 0 1 1.279-1.282l9.454-5.761a1.409 1.409 0 0 1 .7-.243.624.624 0 0 1 .2.031.557.557 0 0 0-.566-.481" data-name="Path 188"></path><path fill="#a2acf8" d="M71.314 54.486a1.5 1.5 0 0 1 0-.694l.67-3.3a4.36 4.36 0 0 1 .564-1.353l.182.117a4.873 4.873 0 0 0-.707 1.62l-.67 3.3a2.556 2.556 0 0 0-.042.311" data-name="Path 189"></path><path fill="#6a3ab5" d="M72.5 48.905a4.689 4.689 0 0 0-.678 1.553l-.67 3.3c-.13.637.034 1.1.39 1.289a1.607 1.607 0 0 1-.022-.84l.67-3.3a4.842 4.842 0 0 1 .776-1.7Z" data-name="Path 190"></path><path fill="#d2d6fc" fill-rule="evenodd" d="M46.464 74.181a3.373 3.373 0 0 1-1.339-.26l-.324-.16c-.242-.117-.242-.117-.274-.236l-.029-.1a.18.18 0 0 1 .01-.148.362.362 0 0 1 .206-.134c.194-.152.882-.79.768-1.212a7.581 7.581 0 0 0-.309-.757 8.46 8.46 0 0 1-.852-2.6c.02-.985-1.037-8.586-1.048-8.66a3.267 3.267 0 0 1 .692-1.992 1.469 1.469 0 0 1 1.149-.542c1.629.057 6.1 1.715 6.723 1.948l.724 5.889a2.093 2.093 0 0 1-1.752.8 3.924 3.924 0 0 0-3.4 1.7 3.431 3.431 0 0 0 .12 2.412 3.287 3.287 0 0 1 .2 1.19c-.139.643.52 1.528.764 1.828l-.823.638a1.891 1.891 0 0 1-1.152.4Z" data-name="Path 191"></path><path fill="#6a3ab5" d="M45.115 57.506h.057c1.5.054 5.719 1.6 6.549 1.913l.7 5.725a1.888 1.888 0 0 1-1.619.742A4.049 4.049 0 0 0 47.3 67.65a3.5 3.5 0 0 0 .107 2.508 3.331 3.331 0 0 1 .2 1.129 2.675 2.675 0 0 0 .709 1.834l-.72.559a1.775 1.775 0 0 1-1.078.375h-.055a3.237 3.237 0 0 1-1.286-.247 16.729 16.729 0 0 0-.327-.161 1.666 1.666 0 0 0-.184-.083.534.534 0 0 1-.021-.071l-.032-.156a.236.236 0 0 1 .125-.073l.063-.015.049-.043c.208-.185.88-.829.751-1.311a7.437 7.437 0 0 0-.317-.778 8.43 8.43 0 0 1-.841-2.54c.02-.987-1.037-8.606-1.048-8.681A3.155 3.155 0 0 1 44.06 58a1.351 1.351 0 0 1 1.055-.5m0-.253c-1.665 0-2.023 2.274-1.966 2.678s1.065 7.7 1.046 8.64 1.045 2.94 1.165 3.388c.1.367-.675 1.056-.675 1.056s-.411.094-.31.441-.007.222.692.578a3.56 3.56 0 0 0 1.392.273h.063a2.013 2.013 0 0 0 1.232-.428l.927-.719s-.977-1.105-.823-1.821-.9-2.566-.337-3.566a3.8 3.8 0 0 1 3.289-1.634 2.069 2.069 0 0 0 1.877-.939l-.735-5.964s-5.051-1.921-6.773-1.982h-.066" data-name="Path 192"></path><path fill="#d2d6fc" fill-rule="evenodd" d="M40.04 77.451a1.428 1.428 0 0 1-.881-.188c.011-.359.894-1.036 1.508-1.427.021 0 1.249-.377 1.526-.983a5.083 5.083 0 0 0 .042-2.34l-.032-.281c-.071-.645-.626-2.686-1.115-4.486-.283-1.038-.532-1.957-.624-2.377-.036-.165-.092-.37-.154-.6-.372-1.382-.992-3.7.191-4.9a3.279 3.279 0 0 1 2.406-.917 7.135 7.135 0 0 1 3.98 1.438c2.4 1.693 5.248 3.37 5.277 3.387.074.022 3.612.74 4.665 2.318a1.565 1.565 0 0 1 .257 1.211c-.458 2.282-2.515 2.761-4.16 2.761-.293 0-.583-.016-.865-.043-3.959-.39-7.971-5.333-8.012-5.383l-.207.144a7.046 7.046 0 0 1 .82 3.887 13.019 13.019 0 0 0 .4 4.677 1.738 1.738 0 0 0 .571.725A9.548 9.548 0 0 1 44.386 76a2.509 2.509 0 0 1-1.289.648 9.627 9.627 0 0 1-2.969.806Z" data-name="Path 193"></path><path fill="#6a3ab5" d="M42.907 59.077a7.018 7.018 0 0 1 3.908 1.415c2.4 1.7 5.257 3.377 5.286 3.393l.036.022.042.008c.035.007 3.523.715 4.546 2.25a1.428 1.428 0 0 1 .238 1.115c-.44 2.2-2.438 2.66-4.035 2.66-.277 0-.563-.015-.854-.043-3.9-.384-7.885-5.287-7.925-5.336l-.414.288a6.917 6.917 0 0 1 .8 3.808 13.132 13.132 0 0 0 .4 4.732 1.761 1.761 0 0 0 .53.717 8.993 8.993 0 0 1-1.173 1.8 2.391 2.391 0 0 1-1.217.612l-.037.005-.034.015a9.2 9.2 0 0 1-2.891.785h-.077a1.638 1.638 0 0 1-.781-.128 4.69 4.69 0 0 1 1.448-1.237c.239-.076 1.323-.447 1.6-1.054a5.163 5.163 0 0 0 .052-2.418l-.031-.272c-.072-.656-.631-2.706-1.122-4.515-.284-1.045-.529-1.947-.62-2.361-.036-.166-.092-.373-.156-.61-.363-1.356-.97-3.625.161-4.774a3.15 3.15 0 0 1 2.315-.88m0-.253a3.4 3.4 0 0 0-2.495.954c-1.442 1.466-.321 4.491-.071 5.617s1.625 5.835 1.738 6.849a5.867 5.867 0 0 1 0 2.556c-.255.56-1.478.928-1.478.928s-1.532.975-1.591 1.435c-.05.383.759.415 1.032.415h.087a9.43 9.43 0 0 0 2.986-.807 2.62 2.62 0 0 0 1.362-.684 10.335 10.335 0 0 0 1.315-2.053 1.744 1.744 0 0 1-.611-.727 12.884 12.884 0 0 1-.39-4.622 7.112 7.112 0 0 0-.837-3.964s4.039 5.03 8.1 5.429c.287.028.581.044.878.044 1.879 0 3.837-.639 4.283-2.862.517-2.574-4.983-3.664-4.983-3.664S49.381 62 46.96 60.286a7.254 7.254 0 0 0-4.054-1.462" data-name="Path 194"></path><path fill="#1c0942" d="m56.234 61.454-2.118 12.611.6-.363 2.118-12.61.005-.018a.447.447 0 0 0-.606.381" data-name="Path 195"></path><path fill="#3d1c7c" d="m54.116 74.065 2.118-12.611a.467.467 0 0 1 .766-.308l4.1 2.5a1.949 1.949 0 0 1 .759 1.236l2.052 15.153.445.271-2.07-15.258a3.007 3.007 0 0 0-1.191-1.939l-4.1-2.5a.725.725 0 0 0-1.195.482l-2.133 12.7Z" data-name="Path 196"></path><path fill="#6a3ab5" d="m57 60.611 4.1 2.5a3.006 3.006 0 0 1 1.189 1.938L64.351 80.3l.6-.362-2.064-15.255a3.006 3.006 0 0 0-1.19-1.938l-4.1-2.5a1.323 1.323 0 0 0-1.662.5.736.736 0 0 1 1.065-.134" data-name="Path 197"></path><path fill="#260b5b" d="m61.572 65.472-7.14-4.317a3.551 3.551 0 0 0-3.336 0l-8.33 5.037a1.086 1.086 0 0 0-.605 1.383 1.087 1.087 0 0 0 .605 1.383l7.141 4.318a3.555 3.555 0 0 0 3.335 0l8.33-5.037a1.088 1.088 0 0 0 .605-1.383 1.088 1.088 0 0 0-.605-1.384" data-name="Path 198"></path><path fill="#a2acf8" d="M51.574 73.524a3.1 3.1 0 0 1-1.581-.392l-7.141-4.318a1.092 1.092 0 0 1-.6-.812 1.911 1.911 0 0 0 .431.348l7.141 4.317a3.716 3.716 0 0 0 3.508 0l8.33-5.036a1.945 1.945 0 0 0 .432-.348 1.094 1.094 0 0 1-.605.812l-8.33 5.037a3.1 3.1 0 0 1-1.581.392" data-name="Path 199"></path><path fill="#6a3ab5" d="M50.073 72.985a4.02 4.02 0 0 0 3 0h-.006a3.224 3.224 0 0 1-2.99 0Zm12.1-6.129a1.462 1.462 0 0 1-.6.632l-8.33 5.037a3.553 3.553 0 0 1-3.336 0l-7.141-4.317a1.467 1.467 0 0 1-.605-.633 1.089 1.089 0 0 0 .605 1.384l7.141 4.317a3.553 3.553 0 0 0 3.336 0l8.33-5.037a1.088 1.088 0 0 0 .6-1.383" data-name="Path 200"></path><path fill="#d2d6fc" fill-rule="evenodd" d="M58.912 59c.357 0 .754-.169.926-1.338s.5-2.149.588-2.8.985-5.964.985-5.964-.063-4.161-2.218-4.144-1.475 3.4-1.719 5.231a52.57 52.57 0 0 0 0 6.287l-4.224 1.336s-.781-.889-1.245-.831a6.968 6.968 0 0 0-2.32.609c-.312.305-.423 1.237.041 1.528s.451.77 1.364.641c0 0 1.442-.382 1.976-.456s4.847-.1 5.846-.1" data-name="Path 201"></path><path fill="none" stroke="#6a3ab5" stroke-miterlimit="10" stroke-width=".253" d="M58.912 59c.357 0 .754-.169.926-1.338s.5-2.149.588-2.8.985-5.964.985-5.964-.063-4.161-2.218-4.144-1.475 3.4-1.719 5.231a52.57 52.57 0 0 0 0 6.287l-4.224 1.336s-.781-.889-1.245-.831a6.968 6.968 0 0 0-2.32.609c-.312.305-.423 1.237.041 1.528s.451.77 1.364.641c0 0 1.442-.382 1.976-.456S57.913 59 58.912 59Z" data-name="Path 202"></path><path fill="#573095" fill-rule="evenodd" d="m57.246 56.344.229-.072a52.57 52.57 0 0 1 0-6.287c.243-1.835-.437-5.214 1.718-5.231s2.218 4.146 2.218 4.146-.9 5.314-.985 5.964-.416 1.63-.588 2.8c-.02.137-.043.258-.068.368-.535.016-1.464-.224-2.523-1.684" data-name="Path 203"></path><path fill="none" stroke="#573095" stroke-miterlimit="10" stroke-width=".309" d="m57.246 56.344.229-.072a52.57 52.57 0 0 1 0-6.287c.243-1.835-.437-5.214 1.718-5.231s2.218 4.146 2.218 4.146-.9 5.314-.985 5.964-.416 1.63-.588 2.8c-.02.137-.043.258-.068.368-.536.012-1.47-.232-2.524-1.688Z" data-name="Path 204"></path><path fill="#d2d6fc" fill-rule="evenodd" d="M52.628 44.413s-.886.5-1.216-.305a7.078 7.078 0 0 1-.556-3.458 11.615 11.615 0 0 1 .289-2.371 2.886 2.886 0 0 1 3.049-1.74 3.883 3.883 0 0 1 3.5 4.22A4.6 4.6 0 0 1 55.2 44.51a3.111 3.111 0 0 1-2.575-.1" data-name="Path 205"></path><path fill="none" stroke="#6a3ab5" stroke-miterlimit="10" stroke-width=".253" d="M52.628 44.413s-.886.5-1.216-.305a7.078 7.078 0 0 1-.556-3.458 11.615 11.615 0 0 1 .289-2.371 2.886 2.886 0 0 1 3.049-1.74 3.883 3.883 0 0 1 3.5 4.22A4.6 4.6 0 0 1 55.2 44.51a3.111 3.111 0 0 1-2.572-.097Z" data-name="Path 206"></path><path fill="#fff" fill-rule="evenodd" d="M52.965 70.017c-2.016 0-5.089-.817-8.279-4.713-.409-1.076-1.406-4.2-.787-5.182.754-1.195 4.1-2.068 4.139-2.077l2.333.625-.054-.265a8.187 8.187 0 0 0-.487-1.592 2.542 2.542 0 0 1-.246-.942l-.005-.122-.118-.033a1.991 1.991 0 0 1-1.089-.878 2.334 2.334 0 0 1-.083-1.824c.336-1.134 1.228-3.511 2.207-4.385a4.883 4.883 0 0 1 .815-.533c.206-.119.415-.239.609-.369.177-.12.408-.257.673-.406a5.343 5.343 0 0 1 1.1.25 4.258 4.258 0 0 0 1.285.238 3.7 3.7 0 0 0 1.2-.215 1.741 1.741 0 0 0 1.234-1.057 1.831 1.831 0 0 0-.265-1.416 7.042 7.042 0 0 1 2.014-.442 1.344 1.344 0 0 1 .461.066 1.667 1.667 0 0 1 .86.914 4.625 4.625 0 0 1-.2 3.609c-.96 2.477-2.574 7.581-2.142 8.733.08.214.211.514.37.872.6 1.357 1.6 3.628 1.412 5.072a4.91 4.91 0 0 1-.934 3.171 9.751 9.751 0 0 1-5.022 2.837 7.575 7.575 0 0 1-1 .065" data-name="Path 207"></path><path fill="#6a3ab5" d="M59.156 44.846a1.183 1.183 0 0 1 .4.056 1.517 1.517 0 0 1 .764.825 4.454 4.454 0 0 1-.2 3.478c-.866 2.245-2.62 7.595-2.14 8.855.081.216.215.52.375.882.592 1.341 1.584 3.584 1.4 4.981v.063A4.71 4.71 0 0 1 58.86 67a9.552 9.552 0 0 1-4.918 2.78 7.526 7.526 0 0 1-.976.064c-2.826 0-5.631-1.595-8.114-4.609-.591-1.538-1.32-4.22-.81-5.027.579-.918 2.975-1.719 3.955-1.982l2.071.536.522.135-.109-.528a8.261 8.261 0 0 0-.495-1.624 2.385 2.385 0 0 1-.234-.886l-.012-.243-.233-.066a1.824 1.824 0 0 1-.99-.8 2.178 2.178 0 0 1-.067-1.691 11.541 11.541 0 0 1 2.158-4.308 4.913 4.913 0 0 1 .786-.512c.21-.12.422-.243.619-.375.156-.1.354-.223.58-.352a4.256 4.256 0 0 1 1.05.218 4.414 4.414 0 0 0 1.333.245 3.873 3.873 0 0 0 1.252-.224 1.87 1.87 0 0 0 1.354-1.21 1.9 1.9 0 0 0-.2-1.328 6.364 6.364 0 0 1 1.772-.368m0-.336a7.644 7.644 0 0 0-2.273.525 1.43 1.43 0 0 1-.763 2.4 3.524 3.524 0 0 1-1.144.206c-.931 0-1.517-.45-2.467-.465-.268.151-.5.291-.685.413a14.963 14.963 0 0 0-1.441.916c-1.028.916-1.934 3.366-2.257 4.463a2.123 2.123 0 0 0 1.288 2.911c.036.817.419 1.019.736 2.562L48 57.882s-3.439.885-4.239 2.15.8 5.378.8 5.378c2.848 3.477 5.808 4.774 8.409 4.774a7.738 7.738 0 0 0 1.021-.067 9.858 9.858 0 0 0 5.123-2.887 5.013 5.013 0 0 0 .978-3.265c.247-1.871-1.4-4.982-1.792-6.026s1.071-5.851 2.143-8.613.124-4.415-.762-4.741a1.514 1.514 0 0 0-.519-.077" data-name="Path 208"></path><path fill="#441090" fill-rule="evenodd" d="M51.071 37.448a7.844 7.844 0 0 0-.55 1.663 1.622 1.622 0 0 0 .424 1.712c.6.594 1 .326 1.022 1.495s.23 2.47.255 3.136-1.209 2-1.151 2.466.878-.1 1.253.555a4.29 4.29 0 0 0 4.792.821c2.082-1.01 2.24-2.326 1.959-3.178a3.034 3.034 0 0 0-1.006-1.452 4.612 4.612 0 0 1-.34-3.358c.389-1.188.549-4.281-2.423-5.009-2.185-.534-3.75.115-4.235 1.149" data-name="Path 209"></path><path fill="#d2d6fc" fill-rule="evenodd" d="M43.982 59.588a6.968 6.968 0 0 1 2.32-.609c.464-.058 1.245.83 1.245.83l2.484-.892s-.061-.668-.165-1.568l3.151.528c-.09.649.224 1.811.052 2.98s-1.213 1.1-1.567 1.157a9.37 9.37 0 0 1-1.755.085 5.7 5.7 0 0 1-1.76-.617 11.3 11.3 0 0 0-2.6.275c-.913.13-.9-.348-1.364-.64s-.353-1.224-.041-1.528" data-name="Path 210"></path><path fill="none" stroke="#6a3ab5" stroke-miterlimit="10" stroke-width=".253" d="M43.982 59.588a6.968 6.968 0 0 1 2.32-.609c.464-.058 1.245.83 1.245.83l2.484-.892s-.061-.668-.165-1.568l3.151.528c-.09.649.224 1.811.052 2.98s-1.213 1.1-1.567 1.157a9.37 9.37 0 0 1-1.755.085 5.7 5.7 0 0 1-1.76-.617 11.3 11.3 0 0 0-2.6.275c-.913.13-.9-.348-1.364-.64s-.353-1.225-.041-1.529Z" data-name="Path 211"></path><path fill="#573095" fill-rule="evenodd" d="M50.784 48.663c2.155-.017 2.32 4.228 2.32 4.228s.106 4.337.016 4.986.244 1.812.072 2.981-1.283 1.161-1.636 1.213c-.127.019-.352-.017-.551 0-1.5-.864-.975-3.154-.975-3.154s-.392-3.39-.808-5.191-.592-5.045 1.563-5.062" data-name="Path 212"></path><path fill="none" stroke="#573095" stroke-miterlimit="10" stroke-width=".309" d="M50.784 48.663c2.155-.017 2.32 4.228 2.32 4.228s.106 4.337.016 4.986.244 1.812.072 2.981-1.283 1.161-1.636 1.213c-.127.019-.352-.017-.551 0-1.5-.864-.975-3.154-.975-3.154s-.392-3.39-.808-5.191-.593-5.046 1.562-5.063Z" data-name="Path 213"></path><path fill="#6a3ab5" d="m63.612 60.773-.463.314-1.959 7.641.463-.314Z" data-name="Path 214"></path><path fill="#3d1c7c" d="m63.149 61.087-.284-.348-1.958 7.641.284.348Z" data-name="Path 215"></path><path fill="#6a3ab5" d="m54.875 66.222.463-.314-1.959 7.642-.463.313Z" data-name="Path 216"></path><path fill="#3d1c7c" d="m54.875 66.222-.284-.348-1.959 7.642.284.347Z" data-name="Path 217"></path><path fill="#381077" d="M66.41 53.2c-.124-.521-.6-.645-1.271-.239l-9.453 5.768a5.194 5.194 0 0 0-2.055 2.984l-.67 3.3c-.129.638.034 1.1.39 1.291.175.505.686.7 1.369.429l3.075-1.209a12.612 12.612 0 0 0 3.238-2.024l3.31-3.017a7.132 7.132 0 0 0 1.847-3.292l.571-2.817c.131-.647-.017-1.063-.352-1.175" data-name="Path 218"></path><path fill="#a2acf8" d="M54.542 60.113a4.415 4.415 0 0 1 1.232-1.239l9.452-5.768a1.252 1.252 0 0 1 .617-.217.371.371 0 0 1 .292.119 1.661 1.661 0 0 0-.716.263l-9.453 5.768a4.578 4.578 0 0 0-1.235 1.2Z" data-name="Path 219"></path><path fill="#6a3ab5" d="M65.843 52.721a1.409 1.409 0 0 0-.7.242l-9.453 5.768a4.7 4.7 0 0 0-1.378 1.43l.467.3a4.556 4.556 0 0 1 1.279-1.282l9.453-5.768a1.416 1.416 0 0 1 .7-.242.624.624 0 0 1 .2.03.557.557 0 0 0-.566-.48" data-name="Path 220"></path><path fill="#a2acf8" d="M53.122 65.742a1.5 1.5 0 0 1 0-.693l.67-3.3a4.385 4.385 0 0 1 .564-1.353l.182.117a4.873 4.873 0 0 0-.707 1.62l-.67 3.3a2.566 2.566 0 0 0-.042.31" data-name="Path 221"></path><path fill="#6a3ab5" d="M54.308 60.161a4.689 4.689 0 0 0-.678 1.553l-.67 3.3c-.13.637.034 1.1.39 1.289a1.6 1.6 0 0 1-.022-.84l.669-3.3a4.863 4.863 0 0 1 .777-1.7Z" data-name="Path 222"></path><path fill="#573095" d="M27.563 68.686c2.728.1 9.016 3.7 9.016 3.7l2.984 1.731a8.229 8.229 0 0 1 0 4.918A4.62 4.62 0 0 1 35.271 82L27.9 80.873l-3.432-3.088c-.067-1.6-.107-4.828-.244-5.556s.612-3.641 3.341-3.543" data-name="Path 223"></path><path fill="none" stroke="#573095" stroke-miterlimit="10" stroke-width=".309" d="M27.563 68.686c2.728.1 9.016 3.7 9.016 3.7l2.984 1.731a8.229 8.229 0 0 1 0 4.918A4.62 4.62 0 0 1 35.271 82L27.9 80.873l-3.432-3.088c-.067-1.6-.107-4.828-.244-5.556s.611-3.641 3.339-3.543Z" data-name="Path 224"></path><path fill="#381077" fill-rule="evenodd" d="m28.189 85.083.182 1.18s.083.782-.909.871a1.639 1.639 0 0 1-1.648-1.025c-.294-.465-1.02-1.42-1.8-1.555s-2.251-1.361-1.929-2.125c.28-.664 1.956-.9 3.605.162v.428a1.776 1.776 0 0 0 .908 1.507 5.948 5.948 0 0 0 1.593.558" data-name="Path 225"></path><path fill="#573095" d="m25.172 79.819 3.354.6-.153 4.894s-1.225 1.195-2.252.1A7.056 7.056 0 0 1 24.68 82.7a10.9 10.9 0 0 0 .492-2.878" data-name="Path 226"></path><path fill="none" stroke="#573095" stroke-miterlimit="10" stroke-width=".309" d="m25.172 79.819 3.354.6-.153 4.894s-1.225 1.195-2.252.1A7.056 7.056 0 0 1 24.68 82.7a10.9 10.9 0 0 0 .492-2.881Z" data-name="Path 227"></path><path fill="#1c0942" d="m36.445 73.563-2.118 12.61.6-.363 2.119-12.61v-.017a.446.446 0 0 0-.605.381" data-name="Path 228"></path><path fill="#3d1c7c" d="m34.327 86.173 2.118-12.61a.467.467 0 0 1 .764-.308l4.1 2.5a1.951 1.951 0 0 1 .759 1.236l2.05 15.149.445.271L42.5 77.155a3.007 3.007 0 0 0-1.191-1.938l-4.1-2.5a.725.725 0 0 0-1.195.483l-2.132 12.7Z" data-name="Path 229"></path><path fill="#6a3ab5" d="m37.209 72.72 4.1 2.5a3.01 3.01 0 0 1 1.19 1.938l2.067 15.256.6-.362L43.1 76.793a3.013 3.013 0 0 0-1.191-1.939l-4.1-2.5a1.323 1.323 0 0 0-1.663.5.737.737 0 0 1 1.062-.134" data-name="Path 230"></path><path fill="#260b5b" d="m41.784 77.575-7.141-4.317a3.551 3.551 0 0 0-3.336 0l-8.33 5.036a1.887 1.887 0 0 0 0 2.768l7.141 4.316a3.551 3.551 0 0 0 3.336 0l8.33-5.036a1.886 1.886 0 0 0 0-2.767" data-name="Path 231"></path><path fill="#a2acf8" d="M31.785 85.628a3.09 3.09 0 0 1-1.581-.393l-7.142-4.316a1.1 1.1 0 0 1-.6-.813 1.911 1.911 0 0 0 .431.348l7.142 4.317a3.716 3.716 0 0 0 3.508 0l8.33-5.036a1.946 1.946 0 0 0 .432-.348 1.1 1.1 0 0 1-.605.812l-8.33 5.036a3.09 3.09 0 0 1-1.581.393" data-name="Path 232"></path><path fill="#6a3ab5" d="M30.284 85.089a4.022 4.022 0 0 0 3 0h-.007a3.224 3.224 0 0 1-2.99 0Zm12.1-6.129a1.469 1.469 0 0 1-.6.633l-8.33 5.036a3.553 3.553 0 0 1-3.336 0l-7.141-4.317a1.47 1.47 0 0 1-.605-.632 1.087 1.087 0 0 0 .605 1.383l7.141 4.317a3.553 3.553 0 0 0 3.336 0l8.33-5.036a1.088 1.088 0 0 0 .6-1.384" data-name="Path 233"></path><path fill="#441090" d="M20.057 83.85c-.139-1.35-1.557-9.825-1.557-9.825a2.562 2.562 0 0 1 2.7-2.447c2.56.073 9.03 2.557 9.03 2.557l7.478.6s.88 4.734-.835 6.562c-1.278 1.361-3.426 2.556-6.539.73S23.76 77.79 23.76 77.79l-.782.512a1.887 1.887 0 0 0 0 2.768l.995.6a45.893 45.893 0 0 0 .41 7.15s-2.458.48-3.7-.251-1.105-1.5-1.105-1.5a9.528 9.528 0 0 0 .484-3.214" data-name="Path 234"></path><path fill="#d2d6fc" fill-rule="evenodd" d="M36.664 56.009a4.455 4.455 0 0 1-.689-1.636c-.017-.618.74-2.636.345-4.363a4.1 4.1 0 0 0-4.206-3.036 3.3 3.3 0 0 0-3.129 3.254 11.2 11.2 0 0 0 .965 4.066c.219.538.416 1.719 1.253 1.862a1.542 1.542 0 0 0 .728-.175 3.96 3.96 0 0 1 .687 2.355 3.769 3.769 0 0 0 4.047-2.327" data-name="Path 235"></path><path fill="none" stroke="#6a3ab5" stroke-miterlimit="10" stroke-width=".253" d="M36.664 56.009a4.455 4.455 0 0 1-.689-1.636c-.017-.618.74-2.636.345-4.363a4.1 4.1 0 0 0-4.206-3.036 3.3 3.3 0 0 0-3.129 3.254 11.2 11.2 0 0 0 .965 4.066c.219.538.416 1.719 1.253 1.862a1.542 1.542 0 0 0 .728-.175 3.96 3.96 0 0 1 .687 2.355 3.769 3.769 0 0 0 4.046-2.327Z" data-name="Path 236"></path><path fill="#5d37a5" d="M29.242 47.97c1.307-1.724 4.026-1.583 4.92-1.3s2.708 1.323 2.5 4.41l-.662 3a6.624 6.624 0 0 1-1.51.755c-.443.146-1.979.566-2.378-.174-.138-.256-.445-.8-.643-1.172l-.954-.467S30.3 51 28.983 50.651c0 0-1.049-.955.258-2.681" data-name="Path 237"></path><path fill="#6a3ab5" d="M30.035 51.536a5.552 5.552 0 0 0 1.531.637c2.477.9 5.074-.986 5.075-.988L36 54.079a6.6 6.6 0 0 1-1.509.755c-.442.147-1.98.566-2.378-.174-.137-.255-.446-.8-.643-1.172l-.953-.466a4.3 4.3 0 0 0-.482-1.487" data-name="Path 238"></path><path fill="#d2d6fc" fill-rule="evenodd" d="M31.343 52.594a1.166 1.166 0 0 1 .01 1.094c-.215.345-.442.563-.593.182l-.279-.939s.372-1.3.862-.337" data-name="Path 239"></path><path fill="none" stroke="#6a3ab5" stroke-miterlimit="10" stroke-width=".253" d="M31.343 52.594a1.166 1.166 0 0 1 .01 1.094c-.215.345-.442.563-.593.182l-.279-.939s.373-1.301.862-.337Z" data-name="Path 240"></path><path fill="#381077" fill-rule="evenodd" d="M17.759 86.532c1.066.013 1.991.538 3.137-.185a4.272 4.272 0 0 0 2.85 1l.336.753a3.439 3.439 0 0 1 .28 1.461 1.455 1.455 0 0 1-1.649.706c-1.258-.191-1.586-.581-3.088-.44-1.322.123-3.255-.517-3.786-1.682s.747-1.63 1.921-1.615" data-name="Path 241"></path><path fill="#441090" fill-rule="evenodd" d="M39.734 70.708c-.227-1.433 1.206-4.429 1.672-6.571s0-3.735-.822-6.195a3.383 3.383 0 0 0-1.092-1.574c1.823 1.234 2.3 3.708 2.334 6.509.037 3.121.062 9.574-1.791 9.488a6.643 6.643 0 0 1-.3-1.656" data-name="Path 242"></path><path fill="#e8e9ea" fill-rule="evenodd" d="M36.162 54.709a29.224 29.224 0 0 0-2.6 1.4 6.108 6.108 0 0 0-1.462 1.275l-.391 1.2s1.07-.641 1.355-.774c.814-.377 1.883-.48 3.059-1.073s.806-1.354.806-1.354Z" data-name="Path 243"></path><path fill="#573095" fill-rule="evenodd" d="m27.811 75.489 1.805-.035c-.04-1.527.091-3.1.114-4.255s-.557-6.17-.745-7.236c-.283-1.6.356-3.386 2.332-5.038a53.34 53.34 0 0 1 5.018-3.5c.411-.174 3.429.057 4.251 2.518s1.288 4.053.822 6.195-1.9 5.138-1.671 6.572a6.667 6.667 0 0 0 .3 1.655s1.7 2.809-.017 7.34c0 0-3.769 3.053-6.169 3.091s-5.507-2.192-6.411-3.166-.071-3.708.372-4.139" data-name="Path 244"></path><path fill="none" stroke="#573095" stroke-miterlimit="10" stroke-width=".309" d="m27.811 75.489 1.805-.035c-.04-1.527.091-3.1.114-4.255s-.557-6.17-.745-7.236c-.283-1.6.356-3.386 2.332-5.038a53.34 53.34 0 0 1 5.018-3.5c.411-.174 3.429.057 4.251 2.518s1.288 4.053.822 6.195-1.9 5.138-1.671 6.572a6.667 6.667 0 0 0 .3 1.655s1.7 2.809-.017 7.34c0 0-3.769 3.053-6.169 3.091s-5.507-2.192-6.411-3.166-.073-3.71.371-4.141Z" data-name="Path 245"></path><path fill="#d2d6fc" fill-rule="evenodd" d="M26.024 72.706a3.983 3.983 0 0 0-.911-.909A6.641 6.641 0 0 0 23 71.164a2.006 2.006 0 0 0-1.4.791c-.318.394-.557.572-.428.882s.42.41.879.446.594.43 1.158.711a11.956 11.956 0 0 0 1.906.58Z" data-name="Path 246"></path><path fill="none" stroke="#6a3ab5" stroke-miterlimit="10" stroke-width=".253" d="M26.024 72.706a3.983 3.983 0 0 0-.911-.909A6.641 6.641 0 0 0 23 71.164a2.006 2.006 0 0 0-1.4.791c-.318.394-.557.572-.428.882s.42.41.879.446.594.43 1.158.711a11.956 11.956 0 0 0 1.906.58Z" data-name="Path 247"></path><path fill="#e8e9ea" fill-rule="evenodd" d="M30.016 72.312s-1.326-7.012-1.189-8.495.384-3.586 2.149-2.856c2.46 1.018 2.8 3.764 2.84 6.922.037 3.12.293 8.049-1.561 7.96s-2.277-.261-3.5-.358c-1.113-.09-4.517-.912-4.517-.912s-.1-.073-.106-.443c-.015-1.006.647-2.03 1.456-1.935Z" data-name="Path 248"></path><path fill="#441090" fill-rule="evenodd" d="M29.9 72.195s-1.436-6.949-1.3-8.43.821-3.761 2.585-3.031c2.459 1.018 2.773 3.991 2.811 7.149.037 3.12.21 8.261-1.643 8.174s-2.283-.18-3.5-.278c-1.113-.09-4.355-.748-4.355-.748a3.82 3.82 0 0 1-.18-.9c-.015-1.006.977-2.183 1.788-2.089Z" data-name="Path 249"></path><path fill="#441090" fill-rule="evenodd" d="M36.393 54.807a29.224 29.224 0 0 0-2.6 1.4 10.124 10.124 0 0 0-1.843 1.633l-.243.747s1.3-.544 1.585-.676c.814-.378 2.173-.324 3.35-.917a.98.98 0 0 0 .516-1.51Z" data-name="Path 250"></path><path fill="#1c0942" d="m24.081 81.152-2.118 12.609.6-.362 2.118-12.61.005-.017a.447.447 0 0 0-.606.381" data-name="Path 251"></path><path fill="#3d1c7c" d="m21.962 93.762 2.118-12.609a.467.467 0 0 1 .764-.309l4.1 2.5a1.949 1.949 0 0 1 .758 1.235l2.052 15.153.446.268-2.067-15.256a3.006 3.006 0 0 0-1.191-1.937l-4.1-2.5a.724.724 0 0 0-1.195.482l-2.133 12.7Z" data-name="Path 252"></path><path fill="#6a3ab5" d="m24.844 80.31 4.1 2.5a3.007 3.007 0 0 1 1.19 1.938L32.2 100l.6-.363-2.066-15.255a3.007 3.007 0 0 0-1.191-1.938l-4.1-2.5a1.324 1.324 0 0 0-1.663.5.736.736 0 0 1 1.062-.134" data-name="Path 253"></path><path fill="#6a3ab5" d="m43.823 72.876-.463.314-1.96 7.642.463-.314Z" data-name="Path 254"></path><path fill="#3d1c7c" d="m43.36 73.19-.284-.348-1.959 7.641.284.348Z" data-name="Path 255"></path><path fill="#6a3ab5" d="m35.086 78.325.463-.313-1.959 7.64-.463.314Z" data-name="Path 256"></path><path fill="#3d1c7c" d="m35.086 78.325-.284-.347-1.959 7.64.284.348Z" data-name="Path 257"></path><path fill="#381077" d="M46.62 65.305c-.124-.521-.6-.645-1.271-.239L35.9 70.835a5.2 5.2 0 0 0-2.055 2.983l-.67 3.3c-.129.638.034 1.1.39 1.291.175.505.686.7 1.369.429l3.075-1.209a12.612 12.612 0 0 0 3.238-2.023l3.31-3.017A7.132 7.132 0 0 0 46.4 69.3l.571-2.817c.131-.648-.017-1.063-.352-1.175" data-name="Path 258"></path><path fill="#a2acf8" d="M34.752 72.217a4.388 4.388 0 0 1 1.231-1.239l9.453-5.768a1.252 1.252 0 0 1 .617-.217.375.375 0 0 1 .292.118 1.673 1.673 0 0 0-.716.264l-9.453 5.768a4.572 4.572 0 0 0-1.235 1.2Z" data-name="Path 259"></path><path fill="#6a3ab5" d="M46.054 64.825a1.409 1.409 0 0 0-.7.242L35.9 70.835a4.713 4.713 0 0 0-1.378 1.43l.467.3a4.556 4.556 0 0 1 1.279-1.282l9.453-5.768a1.406 1.406 0 0 1 .7-.242.624.624 0 0 1 .2.03.557.557 0 0 0-.566-.48" data-name="Path 260"></path><path fill="#a2acf8" d="M33.332 77.846a1.5 1.5 0 0 1 0-.694l.67-3.3a4.37 4.37 0 0 1 .564-1.354l.182.117a4.877 4.877 0 0 0-.707 1.621l-.67 3.3a2.538 2.538 0 0 0-.042.31" data-name="Path 261"></path><path fill="#6a3ab5" d="M34.519 72.265a4.693 4.693 0 0 0-.678 1.552l-.67 3.3c-.13.637.034 1.1.39 1.289a1.607 1.607 0 0 1-.022-.84l.67-3.3a4.842 4.842 0 0 1 .776-1.7Z" data-name="Path 262"></path><g data-name="Group 29" opacity=".6"><g data-name="Group 28"><g clip-path="url(#e)" data-name="Group 27"><path fill="#192426" d="M22.561 78.645a14.6 14.6 0 0 0-.382-1.711c.511.311 1.58.854 1.58.854l-.781.512a1.71 1.71 0 0 0-.416.345" data-name="Path 263"></path></g></g></g><g data-name="Group 32" opacity=".6"><g data-name="Group 31"><g clip-path="url(#f)" data-name="Group 30"><path fill="#192426" d="m22.977 81.067.994.6a45.874 45.874 0 0 0 .411 7.149 9.914 9.914 0 0 1-1.719.155 52.725 52.725 0 0 1 0-8.15 1.765 1.765 0 0 0 .318.245" data-name="Path 264"></path></g></g></g></g></g></g></g></svg>