<svg xmlns="http://www.w3.org/2000/svg" xmlns:xlink="http://www.w3.org/1999/xlink" viewBox="-0.03 0 64.03 132"><defs><linearGradient id="a" x1="66.166" x2="67.166" y1=".5" y2=".5" gradientUnits="objectBoundingBox"><stop offset="0" stop-color="#e7e9fd"></stop><stop offset="1" stop-color="#e9ebfd"></stop></linearGradient><linearGradient xlink:href="#a" id="b" x1="233.981" x2="233.981" y1=".067" y2=".997"></linearGradient><linearGradient xlink:href="#a" id="c" x1="267.959" x2="267.959" y1=".104" y2=".892"></linearGradient><linearGradient xlink:href="#a" id="d" x1="0" x2="1" y1=".5" y2=".5"></linearGradient><clipPath id="e"><path fill="none" d="M0 0h55v103H0z" data-name="Rectangle 28"></path></clipPath></defs><g data-name="Micro weddings1"><g data-name="4"><g data-name="Group 154"><g data-name="Group 153" style="isolation:isolate"><g data-name="Group 150"><g fill="#edeefd" stroke-miterlimit="10" data-name="Path 624"><path d="m7.056 78.856-.623-.352 6.194-3.524.623.352-6.194 3.524Z"></path><path fill="#6a3ab5" d="m7.056 78.72 5.954-3.387-.383-.217-5.954 3.388.383.216m0 .272-.863-.488 6.434-3.66.862.488-6.433 3.66Z"></path></g></g><g stroke-miterlimit="10" data-name="Group 151"><g fill="#edeefd" data-name="Path 625"><path d="m56.275 106.673-.625-.354 6.194-3.524.627.355-6.196 3.523Z"></path><path fill="#6a3ab5" d="m56.275 106.537 5.956-3.387-.387-.22-5.955 3.388.386.22m0 .271-.865-.49 6.433-3.66.867.49-6.435 3.66Z"></path></g><g fill="url(#a)" data-name="Path 626" transform="translate(-618.847 -1307.955)"><path d="m674.375 1414.07-.028-55.645c.044-15.033-10.793-33.407-24.158-40.96-3.817-2.158-7.479-3.252-10.883-3.252-1.513 0-2.938.22-4.26.656l4.383-2.494c1.85-1.052 3.973-1.586 6.311-1.586 3.363 0 6.986 1.084 10.767 3.22 13.299 7.517 24.083 25.8 24.04 40.756l.025 55.78-6.197 3.525Z"></path><path fill="#6a3ab5" d="M645.74 1310.908c-2.317 0-4.42.528-6.252 1.57l-3.526 2.006a14.056 14.056 0 0 1 3.344-.39c3.425 0 7.106 1.1 10.941 3.268 13.398 7.571 24.262 25.993 24.219 41.063l.027 55.442 5.961-3.39-.026-55.712c.043-14.919-10.714-33.155-23.98-40.652-3.763-2.127-7.366-3.205-10.708-3.205m0-.237c3.262 0 6.94 1.04 10.825 3.236 13.333 7.535 24.143 25.867 24.1 40.859l.026 55.848-6.434 3.66-.028-55.849c.044-14.991-10.766-33.323-24.098-40.857-6.708-3.792-12.796-4.138-17.195-1.635l6.435-3.66c1.85-1.053 4-1.602 6.37-1.602Z"></path></g></g><g fill="url(#b)" stroke-miterlimit="10" data-name="Path 627" transform="translate(-618.847 -1307.955)"><path d="m625.158 1386.256-.027-55.645c.01-3.753.673-7.029 1.967-9.736 1.246-2.607 3.025-4.582 5.287-5.869l4.348-2.474c-1.39 1.204-2.534 2.737-3.415 4.58-1.309 2.74-1.978 6.05-1.99 9.838l.027 55.78-6.197 3.526Z"></path><path fill="#6a3ab5" d="m635.926 1313.128-3.483 1.981c-2.24 1.275-4.003 3.232-5.239 5.817-1.286 2.691-1.944 5.95-1.955 9.685l.027 55.441 5.96-3.39-.025-55.713c.01-3.806.684-7.132 2-9.887.73-1.526 1.638-2.84 2.715-3.934m2.833-1.884c-4.498 2.559-7.29 7.992-7.312 15.706l.026 55.849-6.433 3.66-.027-55.848c.022-7.715 2.815-13.148 7.313-15.707l6.433-3.66Z"></path></g><g fill="url(#c)" stroke-miterlimit="10" data-name="Path 628" transform="translate(-618.847 -1307.955)"><path d="m627.31 1388.935-.023-57.106c.01-3.428.615-6.419 1.796-8.891 1.138-2.38 2.761-4.183 4.825-5.356l3.287-1.948c-2.564 2.435-3.692 6.33-3.709 12.534l.022 57.241-6.198 3.526Z"></path><path fill="#6a3ab5" d="m636.523 1316.17-2.556 1.514c-2.043 1.162-3.65 2.947-4.777 5.305-1.174 2.456-1.774 5.43-1.784 8.84l.022 56.903 5.962-3.391-.022-57.173c.01-3.61.399-6.417 1.19-8.584.487-1.333 1.137-2.465 1.965-3.414m2.637-1.837-.319.188c.104-.064.21-.127.319-.188Zm-.319.188c-3.865 2.385-5.218 6.784-5.237 13.648l.022 57.31-6.434 3.66-.023-57.31c.021-7.048 2.572-12.014 6.68-14.35l4.992-2.958Z"></path></g><g data-name="Group 152"><g fill="#f4f5fe" stroke-miterlimit="10" data-name="Path 629"><path d="m57.58 108.751-3.219-1.819-.022-57.24c.041-14.227-10.218-31.619-22.868-38.768-3.616-2.044-7.084-3.08-10.308-3.08-3.78 0-6.978 1.454-9.248 4.205-2.327 2.82-3.564 6.893-3.578 11.778l.022 57.107-3.217-1.819-.023-57.239c.016-5.562 1.42-10.194 4.061-13.395 2.564-3.106 6.177-4.748 10.45-4.748 1.784 0 3.671.29 5.609.86 1.996.59 4.058 1.48 6.127 2.65 14.49 8.189 26.24 28.107 26.192 44.401l.022 57.107Z"></path><path fill="#6a3ab5" d="M19.63 3.85c-4.236 0-7.818 1.628-10.358 4.707-2.624 3.179-4.019 7.785-4.035 13.319l.023 57.17 2.98 1.685-.021-56.905c.014-4.912 1.26-9.01 3.605-11.852 2.293-2.78 5.522-4.248 9.339-4.248 3.245 0 6.732 1.04 10.366 3.095 12.684 7.168 22.97 24.606 22.929 38.872l.022 57.17 2.981 1.686-.022-56.905c.048-16.256-11.675-36.128-26.131-44.298-2.062-1.165-4.115-2.053-6.103-2.64-1.926-.567-3.802-.855-5.575-.855m0-.237c3.554 0 7.56 1.134 11.794 3.526 14.521 8.207 26.3 28.171 26.252 44.505l.022 57.309L54.243 107l-.022-57.308c.04-14.191-10.192-31.536-22.808-38.666-12.618-7.132-22.917-1.39-22.958 12.8l.022 57.31-3.453-1.953L5 21.876c.034-11.571 5.994-18.262 14.63-18.262Z"></path></g></g><g fill="url(#d)" stroke-miterlimit="10" data-name="Path 630" transform="translate(-618.847 -1307.955)"><path d="m676.53 1416.752-.022-57.106c.048-16.37-11.756-36.381-26.312-44.608-2.085-1.178-4.163-2.077-6.177-2.67-1.96-.578-3.869-.871-5.676-.871-1.686 0-3.271.25-4.739.748l4.293-2.442c2.017-1.148 4.332-1.73 6.881-1.73 1.784 0 3.671.29 5.609.861 1.996.59 4.058 1.481 6.127 2.65 14.489 8.19 26.238 28.107 26.192 44.402l.023 57.241-6.198 3.525Z"></path><path fill="#6a3ab5" d="M644.777 1308.192c-2.527 0-4.822.576-6.821 1.714l-3.399 1.933c1.195-.306 2.46-.46 3.786-.46 1.818 0 3.74.294 5.71.875 2.021.596 4.108 1.498 6.202 2.681 14.589 8.246 26.42 28.303 26.371 44.711l.023 56.902 5.962-3.39-.024-57.172c.047-16.257-11.676-36.129-26.131-44.298-2.062-1.166-4.115-2.054-6.103-2.64-1.926-.568-3.802-.856-5.576-.856m.001-.237c3.553 0 7.561 1.134 11.794 3.527 14.521 8.206 26.299 28.171 26.252 44.504l.023 57.31-6.434 3.659-.023-57.309c.048-16.333-11.73-36.298-26.252-44.505-7.308-4.13-13.94-4.508-18.733-1.782l6.434-3.659c2.016-1.147 4.358-1.745 6.939-1.745Z"></path></g></g></g><g data-name="Group 157"><g data-name="Group 156" style="isolation:isolate"><g data-name="Group 155"><path fill="#441090" d="M29.073 4.645a6.4 6.4 0 0 1 3.252 4.86c.1 1.842-4.945 3.462-5.211 3.547-.29-.36-5.8-7.191-5.9-9.034s1.191-2.666 2.882-1.831a6.269 6.269 0 0 1 2.566 2.624 1.933 1.933 0 0 1 2.411-.166Z" data-name="Path 631"></path></g><g fill="#fff" stroke-miterlimit="10" data-name="Path 632"><path d="M32.535 9.856c.03-.122.04-.244.034-.366-.105-1.922-1.625-4.194-3.388-5.065a3.228 3.228 0 0 0-1.038-.325c.17-.075.362-.113.573-.113.349 0 .731.102 1.137.302 1.622.8 3.02 2.889 3.117 4.655.016.281-.133.59-.435.912ZM26.75 4.465c-.644-1.099-1.58-2.022-2.543-2.497a3.342 3.342 0 0 0-1.029-.33 1.43 1.43 0 0 1 .564-.108c.35 0 .732.102 1.137.302.885.437 1.758 1.307 2.357 2.345l-.059.02-.026.01-.023.014-.378.244Z"></path><path fill="#6a3ab5" d="M25.12 2.247a7.009 7.009 0 0 1 1.708 1.877l.065-.042c-.482-.766-1.114-1.419-1.773-1.835m4.97 2.454a7.028 7.028 0 0 1 1.612 1.725c.491.734.835 1.52 1.001 2.275-.19-1.478-1.308-3.18-2.613-4M23.74 1.287c.374 0 .795.105 1.245.327 1.015.501 1.936 1.481 2.537 2.578l.323-.208c.518-.335 1.267-.332 2.115.087 1.696.837 3.152 3.017 3.252 4.86.037.672-.611 1.314-1.462 1.863l-.879.567c.847-.547 1.49-1.188 1.453-1.857-.1-1.843-1.556-4.023-3.252-4.86-.7-.346-1.323-.395-1.814-.218l-.595.384c-.6-1.116-1.536-2.115-2.566-2.624-.85-.42-1.6-.42-2.122-.084l.888-.573c.246-.159.543-.242.877-.242Zm7.131 10.074-.009.006.01-.006Z"></path></g></g></g></g></g><g data-name="Micro weddings"><g data-name="Group 159"><g clip-path="url(#e)" data-name="Group 158" transform="translate(0 29)"><path fill="#f2ad90" d="M15.476 28.45a3.028 3.028 0 0 0-1.5.064 3.3 3.3 0 0 0-.746.375c-.442.316-.869.651-1.3.987a27.734 27.734 0 0 1-2.29 1.7 7.007 7.007 0 0 1-1 .573.64.64 0 0 1-.733-.085 7.112 7.112 0 0 0-.536-.356 1.6 1.6 0 0 0-.589-.256 1.361 1.361 0 0 0-.608.076 4.012 4.012 0 0 1-1.4.358c-.136-.008-.291-.033-.393.059a.389.389 0 0 0-.046.41.8.8 0 0 1 .078.424.622.622 0 0 1-.279.324l-.449.323a1.024 1.024 0 0 0-.464.546 1.01 1.01 0 0 0 .007.364 1.879 1.879 0 0 1 .026.27 1.653 1.653 0 0 1-.085.461 1.333 1.333 0 0 0-.075.808 1.015 1.015 0 0 1 .066.2.93.93 0 0 1-.04.283 1.37 1.37 0 0 0 .1.658c.035.1.07.208.1.312a.591.591 0 0 0 .084.179.468.468 0 0 0 .528.085 4.811 4.811 0 0 0 1.068-.8 8.514 8.514 0 0 1 2.3-.749 3.525 3.525 0 0 0 1.349-.854 47.041 47.041 0 0 1 5.027-1.544 19.7 19.7 0 0 0 2.079-.719 3.835 3.835 0 0 0 1.344-.871 1.848 1.848 0 0 0 .491-1.744 2.939 2.939 0 0 0-2.114-1.862" data-name="Path 633"></path><path fill="#ff8380" d="M24.855 79.888a9.4 9.4 0 0 1-.051.649 2.205 2.205 0 0 1-.73 1.36 1.626 1.626 0 0 0-.567 1.225 5.048 5.048 0 0 0 .054 1.509 1.674 1.674 0 0 0 1.072 1.252 1.886 1.886 0 0 0 .843.011 3.454 3.454 0 0 0 1.88-.979 2.939 2.939 0 0 0 .832-1.944c.02-.9-.4-1.82-.123-2.674a3.744 3.744 0 0 1 1.022-1.367 2.677 2.677 0 0 0 .884-1.443 1.671 1.671 0 0 0-.349-1.212 2.344 2.344 0 0 0-1.033-.742 4.56 4.56 0 0 0-2.145-.1 2.006 2.006 0 0 0-1.5 1.238 5.231 5.231 0 0 0-.1 2.232 9.529 9.529 0 0 1 .007.987" data-name="Path 634"></path><path fill="#f2ad90" d="M29.172 66.537a12.865 12.865 0 0 0-.239-1.8 35.004 35.004 0 0 1-.256-1.583l.346-.225a24.465 24.465 0 0 1-.423-2.343c0-.025 0-.051.006-.076 0 .007-.009.014-.014.021a24.961 24.961 0 0 1-.225-3.212 12.324 12.324 0 0 0-.388-4.282A8.318 8.318 0 0 0 26.1 50.3a7.212 7.212 0 0 0-1.722-1.441 4.141 4.141 0 0 0-1.757-.5 2.639 2.639 0 0 0-1.9.559c-.89.784-.494 2.011-.255 3q1.207 4.988 2.412 9.978a6.849 6.849 0 0 0 .247.847c0 .422.046.848.05 1.159a31.068 31.068 0 0 0 .28 3.677c.315 2.432.827 4.833 1.2 7.256a37.926 37.926 0 0 1 .439 4.159 5.7 5.7 0 0 0 .232 1.726c.045.124.115.257.242.289.169.041.313-.121.407-.268a14.052 14.052 0 0 0 1.259-2.676 22.789 22.789 0 0 0 .808-2.458 26.951 26.951 0 0 0 .559-3.424l.442-3.7a12.588 12.588 0 0 0 .13-1.942" data-name="Path 635"></path><path fill="#ff8380" d="M27.56 85.472a8.821 8.821 0 0 0-.51 1.051 1.6 1.6 0 0 0-.019 1.143 1.449 1.449 0 0 0 1.1.8 3.279 3.279 0 0 0 1.4-.128 3.961 3.961 0 0 0 1.863-.967 3.706 3.706 0 0 0 .846-1.651 6.873 6.873 0 0 0 .224-1.963 9.188 9.188 0 0 1-.018-1.631A12.83 12.83 0 0 1 32.8 80.8a4.786 4.786 0 0 0 .068-2.08 2.268 2.268 0 0 0-.3-.833 1.729 1.729 0 0 0-1.291-.728 2.619 2.619 0 0 0-1.468.344c-.882.48-.914 1.945-1.046 2.83-.17 1.13-.287 2.272-.567 3.382a8.56 8.56 0 0 1-.637 1.758" data-name="Path 636"></path><path fill="#f9d3be" d="M35.949 52.43a2.074 2.074 0 0 1-.641.55 5.754 5.754 0 0 1-1.487.72 5.824 5.824 0 0 1-3.279.088 16.462 16.462 0 0 1-2.25-.775c-.268-.119-.412-.324-.509.046a2.608 2.608 0 0 0-.028 1.148 5.43 5.43 0 0 1 .029 1.168q-.011 1.365.066 2.728a41.736 41.736 0 0 0 .665 5.414c0 .017.007.033.011.049.183 2.671.4 5.329.676 8 .106 1.024.214 2.048.309 3.073.055.6.106 1.192.116 1.791a11 11 0 0 1-.056 1.743c-.084.588-.24 1.164-.346 1.747a4.724 4.724 0 0 0 0 2.33.82.82 0 0 0 .506.5.839.839 0 0 0 .564-.069 2.053 2.053 0 0 0 .808-.756 10.494 10.494 0 0 0 1.339-4.476 59.058 59.058 0 0 1 1.48-6.572 12.5 12.5 0 0 0 .5-4.222c-.124-1.229-.575-2.414-.773-3.625.029-.151.056-.3.088-.452.139-.658.186-1.334.332-2a14.439 14.439 0 0 1 .651-2.208c.218-.553.48-1.087.687-1.644a17.653 17.653 0 0 0 .645-2.415 11.651 11.651 0 0 0 .383-3c-.174.36-.284.786-.491 1.125" data-name="Path 637"></path><path fill="#fff" d="M14.819 91.776c-2.061-1.077-4.7-2.574-4.6-5.284a52.967 52.967 0 0 1 1.041-9.116q2.5-12.109 5.031-24.212c1.078-5.147 1.971-10.394 3.323-15.478.16-.6.324-1.2.51-1.8.053-.171.447-.944.39-1.1 1.248 3.269 4.917 4.084 8.1 3.828a4.78 4.78 0 0 0 2.2-.485 4.927 4.927 0 0 0 1-.91c.219-.236.634-.467.631-.813a8.9 8.9 0 0 0-1-3.46 14.625 14.625 0 0 1 3.232 2.554 15.277 15.277 0 0 1 2.59 3.665 20.13 20.13 0 0 1 1.433 4.36 82.414 82.414 0 0 1 1.724 11.214 119.856 119.856 0 0 0 2.456 15.232c.3 1.272.416 2.93 1.486 3.8a10.222 10.222 0 0 0 3.8 1.444 13.9 13.9 0 0 1 5.558 3.07 2.512 2.512 0 0 1 .963 2.618 4.392 4.392 0 0 1-.984 1.509c-4.423 4.943-10.843 7.552-17.2 9.35-5.256 1.488-10.766 2.539-16.164 1.722a17.522 17.522 0 0 1-5.519-1.713" data-name="Path 638"></path><path fill="none" stroke="#6a3ab5" stroke-miterlimit="10" stroke-width=".432" d="M14.819 91.776c-2.061-1.077-4.7-2.574-4.6-5.284a52.967 52.967 0 0 1 1.041-9.116q2.5-12.109 5.031-24.212c1.078-5.147 1.971-10.394 3.323-15.478.16-.6.324-1.2.51-1.8.053-.171.447-.944.39-1.1 1.248 3.269 4.917 4.084 8.1 3.828a4.78 4.78 0 0 0 2.2-.485 4.927 4.927 0 0 0 1-.91c.219-.236.634-.467.631-.813a8.9 8.9 0 0 0-1-3.46 14.625 14.625 0 0 1 3.232 2.554 15.277 15.277 0 0 1 2.59 3.665 20.13 20.13 0 0 1 1.433 4.36 82.414 82.414 0 0 1 1.724 11.214 119.856 119.856 0 0 0 2.456 15.232c.3 1.272.416 2.93 1.486 3.8a10.222 10.222 0 0 0 3.8 1.444 13.9 13.9 0 0 1 5.558 3.07 2.512 2.512 0 0 1 .963 2.618 4.392 4.392 0 0 1-.984 1.509c-4.423 4.943-10.843 7.552-17.2 9.35-5.256 1.488-10.766 2.539-16.164 1.722a17.522 17.522 0 0 1-5.52-1.708Z" data-name="Path 639"></path><path fill="#fff" d="M18.215 20.249s-1.036 3.162-1.1 3.531c.222 2.338 3.591 2.518 3.591 2.518l1.849-3.7Z" data-name="Path 640"></path><path fill="none" stroke="#6a3ab5" stroke-miterlimit="10" stroke-width=".432" d="M18.215 20.249s-1.036 3.162-1.1 3.531c.222 2.338 3.591 2.518 3.591 2.518l1.849-3.7Z" data-name="Path 641"></path><path fill="#abb3f9" d="M24.179 15.029v4.125l1.243 1.25h4.587l2.069-2.99-.383-5.98Z" data-name="Path 642"></path><path fill="#fff" d="M17.687 18.125a4.5 4.5 0 0 0 4.481 4.52c2.478 0 2.7-1.778 2.7-4.275s-.222-4.768-2.7-4.768a4.5 4.5 0 0 0-4.481 4.522" data-name="Path 643"></path><path fill="none" stroke="#6a3ab5" stroke-miterlimit="10" stroke-width=".432" d="M17.687 18.125a4.5 4.5 0 0 0 4.481 4.52c2.478 0 2.7-1.778 2.7-4.275s-.222-4.768-2.7-4.768a4.5 4.5 0 0 0-4.481 4.523Z" data-name="Path 644"></path><path fill="#d1d1fb" d="M33.138 36.1v1.678a9.252 9.252 0 0 1-4.733 1.41c-5.45.364-7.879-2.818-7.879-2.818l.032-2.056Z" data-name="Path 645"></path><path fill="none" stroke="#6a3ab5" stroke-miterlimit="10" stroke-width=".432" d="M33.138 36.1v1.678a9.252 9.252 0 0 1-4.733 1.41c-5.45.364-7.879-2.818-7.879-2.818l.032-2.056Z" data-name="Path 646"></path><path fill="#fff" d="M35.457 30.523c-.9.782-2.318 5.573-2.318 5.573a8.489 8.489 0 0 1-5.2 1.382c-5.14.036-7.383-3.167-7.383-3.167-.1-1.835-.275-4.551-.275-4.551s-2.174-.454-2.588-3.581c-.146-1.125 1.709-4.6 3.312-7.686 1.291-2.487 2.339-4.427 3.313-4.87 1.412-.416 1.62 5.7 1.62 5.7s4.768-3.751 5.38-3.269l5.207 4.1s-.171 9.582-1.069 10.361" data-name="Path 647"></path><path fill="none" stroke="#6a3ab5" stroke-miterlimit="10" stroke-width=".432" d="M35.457 30.523c-.9.782-2.318 5.573-2.318 5.573a8.489 8.489 0 0 1-5.2 1.382c-5.14.036-7.383-3.167-7.383-3.167-.1-1.835-.275-4.551-.275-4.551s-2.174-.454-2.588-3.581c-.146-1.125 1.709-4.6 3.312-7.686 1.291-2.487 2.339-4.427 3.313-4.87 1.412-.416 1.62 5.7 1.62 5.7s4.768-3.751 5.38-3.269l5.207 4.1s-.171 9.589-1.068 10.369Z" data-name="Path 648"></path><path fill="#d2d6fc" d="M21.524 8.687c.181.412.242.555.242.555a2.821 2.821 0 0 0-.272.717 38.665 38.665 0 0 0 .892 5.716 2.936 2.936 0 0 0 1.933.973 11.136 11.136 0 0 0 4.558-2.372c.957-1.174 1.269-5.347 1.269-5.347l-4.176-5.5-4.962 1.884a33.318 33.318 0 0 0 .516 3.374" data-name="Path 649"></path><path fill="none" stroke="#6a3ab5" stroke-miterlimit="10" stroke-width=".432" d="M21.524 8.687c.181.412.242.555.242.555a2.821 2.821 0 0 0-.272.717 38.665 38.665 0 0 0 .892 5.716 2.936 2.936 0 0 0 1.933.973 11.136 11.136 0 0 0 4.558-2.372c.957-1.174 1.269-5.347 1.269-5.347l-4.176-5.5-4.962 1.884a33.318 33.318 0 0 0 .516 3.374Z" data-name="Path 650"></path><path fill="#441090" d="M23.525 6.216c3.759 1.008.009 4.217 6.1 7.387 1.589 1.087-.92 4.993-.48 6.454.516-1.254 2.473-2.147 2.787-1.87a2.919 2.919 0 0 0-.777 2.583c.619-.941 1.369-2.583 2.815-2.592.608 0 1.251 1.112 2.554 1.982a43.521 43.521 0 0 1-1-7.2c-.276-3.3.9-11.231-5.486-11.821 0 0-1.234-2.159-4.724-.537-3.172 1.475-5.034 4.466-5.034 5.684a3.652 3.652 0 0 0 1.24 2.4c-.516-3.374.658-3.236.658-3.236s.619-.1 1.344.766" data-name="Path 651"></path><path fill="#fff" d="M27.07 8.1a.718.718 0 0 1-.572-.252A1.155 1.155 0 0 1 26.3 7a1.28 1.28 0 0 1-.865-.9.413.413 0 0 1 .037-.311.376.376 0 0 1 .228-.189 1.838 1.838 0 0 1 .5-.072 1.4 1.4 0 0 1 .167.009.888.888 0 0 1 .424-1.084.589.589 0 0 1 .247-.054.662.662 0 0 1 .565.35.812.812 0 0 1 .094.282 1.392 1.392 0 0 1 .593-.13 1.161 1.161 0 0 1 1.189.9.961.961 0 0 1-.594 1.118 1.217 1.217 0 0 1-.473.094 1.5 1.5 0 0 1-.338-.04 1.152 1.152 0 0 1-.177.736.919.919 0 0 1-.634.379 1.167 1.167 0 0 1-.19.017" data-name="Path 652"></path><path fill="#6a3ab5" d="M27.035 4.527a.539.539 0 0 1 .457.288.826.826 0 0 1 .089.428 1.257 1.257 0 0 1 .705-.213 1.043 1.043 0 0 1 1.067.8.834.834 0 0 1-.52.973 1.08 1.08 0 0 1-.425.085 1.508 1.508 0 0 1-.485-.087.89.89 0 0 1-.685 1.164 1.022 1.022 0 0 1-.17.015c-.573 0-.722-.566-.631-1.076a1.145 1.145 0 0 1-.884-.842.275.275 0 0 1 .179-.338 1.735 1.735 0 0 1 .463-.067 1.24 1.24 0 0 1 .339.045c-.139-.431-.136-.928.3-1.13a.469.469 0 0 1 .2-.044m0-.251a.716.716 0 0 0-.3.066.959.959 0 0 0-.521 1.063H26.2a1.99 1.99 0 0 0-.53.076.5.5 0 0 0-.3.243.544.544 0 0 0-.048.406 1.411 1.411 0 0 0 .852.955 1.22 1.22 0 0 0 .235.849.835.835 0 0 0 .667.3 1.316 1.316 0 0 0 .21-.018A1.059 1.059 0 0 0 28 7.782a1.213 1.213 0 0 0 .2-.657 1.646 1.646 0 0 0 .211.015 1.325 1.325 0 0 0 .522-.105 1.083 1.083 0 0 0 .666-1.26 1.282 1.282 0 0 0-1.311-1 1.53 1.53 0 0 0-.5.085.933.933 0 0 0-.075-.173.79.79 0 0 0-.674-.414" data-name="Path 653"></path><path fill="#fff" d="M24.256 6.035a.377.377 0 0 1-.265-.112.355.355 0 0 1-.1-.254 1.624 1.624 0 0 1 .108-.587c-.487-.046-.766-.275-.82-.642a.584.584 0 0 1 .465-.649.638.638 0 0 1 .163-.02.7.7 0 0 1 .09.006 1.317 1.317 0 0 1 .223-.927 1.006 1.006 0 0 1 .832-.435.885.885 0 0 1 .882.807 1.181 1.181 0 0 1-.148.713 1.023 1.023 0 0 1 .579.338.857.857 0 0 1 .17.657.684.684 0 0 1-.714.678 1.249 1.249 0 0 1-.466-.1 1.159 1.159 0 0 1-.991.526Z" data-name="Path 654"></path><path fill="#6a3ab5" d="M24.946 2.539h.053a.747.747 0 0 1 .705.7 1.151 1.151 0 0 1-.228.793c.468.045.893.317.828.886a.562.562 0 0 1-.591.567 1.192 1.192 0 0 1-.517-.134 1.023 1.023 0 0 1-.938.562.247.247 0 0 1-.246-.24 1.389 1.389 0 0 1 .18-.7h-.058c-.386 0-.773-.134-.835-.546a.461.461 0 0 1 .371-.508.563.563 0 0 1 .13-.019.92.92 0 0 1 .256.044 1.043 1.043 0 0 1 .89-1.4m0-.251a1.124 1.124 0 0 0-.933.489 1.42 1.42 0 0 0-.259.87.858.858 0 0 0-.147.021.707.707 0 0 0-.558.79.876.876 0 0 0 .775.733 1.832 1.832 0 0 0-.065.477.482.482 0 0 0 .14.343.508.508 0 0 0 .354.151 1.285 1.285 0 0 0 1.04-.5 1.341 1.341 0 0 0 .419.072.808.808 0 0 0 .839-.79.987.987 0 0 0-.2-.749 1.089 1.089 0 0 0-.5-.338 1.263 1.263 0 0 0 .1-.649.994.994 0 0 0-.94-.916Z" data-name="Path 655"></path><path fill="#fff" d="M31.266 8.457a.373.373 0 0 1-.37-.366A1.624 1.624 0 0 1 31 7.5c-.487-.046-.766-.275-.82-.642a.584.584 0 0 1 .465-.649.638.638 0 0 1 .163-.02.7.7 0 0 1 .09.006 1.317 1.317 0 0 1 .223-.927 1.006 1.006 0 0 1 .832-.435.885.885 0 0 1 .882.807 1.181 1.181 0 0 1-.148.713 1.019 1.019 0 0 1 .578.337.862.862 0 0 1 .171.657.684.684 0 0 1-.714.678 1.254 1.254 0 0 1-.465-.1 1.142 1.142 0 0 1-.991.527Z" data-name="Path 656"></path><path fill="#6a3ab5" d="M31.957 4.961h.053a.747.747 0 0 1 .705.7 1.151 1.151 0 0 1-.228.793c.468.045.893.317.829.886a.563.563 0 0 1-.592.567 1.192 1.192 0 0 1-.517-.134 1.023 1.023 0 0 1-.939.562.247.247 0 0 1-.246-.24 1.389 1.389 0 0 1 .18-.7h-.058c-.386 0-.773-.134-.835-.546a.461.461 0 0 1 .371-.508.563.563 0 0 1 .134-.016.92.92 0 0 1 .256.044 1.043 1.043 0 0 1 .89-1.4m0-.251a1.124 1.124 0 0 0-.933.489 1.42 1.42 0 0 0-.259.87.858.858 0 0 0-.147.021.707.707 0 0 0-.558.79.876.876 0 0 0 .775.733 1.832 1.832 0 0 0-.065.477.482.482 0 0 0 .14.343.508.508 0 0 0 .354.151 1.285 1.285 0 0 0 1.04-.5 1.314 1.314 0 0 0 .419.072.808.808 0 0 0 .839-.789.988.988 0 0 0-.2-.75 1.089 1.089 0 0 0-.5-.338 1.273 1.273 0 0 0 .1-.649.994.994 0 0 0-.94-.916Z" data-name="Path 657"></path><path fill="#fff" d="M29.83 9.179a.866.866 0 0 1-.681-.439 1.029 1.029 0 0 1-.4.083 1.1 1.1 0 0 1-.62-.2.362.362 0 0 1-.149-.232.344.344 0 0 1 .053-.252 1.489 1.489 0 0 1 .366-.382.745.745 0 0 1-.283-.918.516.516 0 0 1 .48-.3A.631.631 0 0 1 29 6.7a1.139 1.139 0 0 1 .984-.643.927.927 0 0 1 .564.2.814.814 0 0 1 .217 1.043 1.086 1.086 0 0 1-.467.463.961.961 0 0 1 .261.552.8.8 0 0 1-.208.593.678.678 0 0 1-.52.275" data-name="Path 658"></path><path fill="#6a3ab5" d="M29.981 6.177a.8.8 0 0 1 .489.17.69.69 0 0 1 .183.891 1.036 1.036 0 0 1-.576.484.735.735 0 0 1 .179 1.1.559.559 0 0 1-.426.23.821.821 0 0 1-.635-.474.93.93 0 0 1-.45.118.972.972 0 0 1-.55-.178.226.226 0 0 1-.065-.309 1.25 1.25 0 0 1 .494-.442c-.314-.2-.572-.513-.4-.875a.394.394 0 0 1 .368-.226.482.482 0 0 1 .171.032.663.663 0 0 1 .281.222 1.026 1.026 0 0 1 .937-.745m0-.251a1.256 1.256 0 0 0-1.024.588.828.828 0 0 0-.108-.05.749.749 0 0 0-.258-.046.645.645 0 0 0-.591.37.819.819 0 0 0 .2.965 1.717 1.717 0 0 0-.277.318.463.463 0 0 0-.071.349.488.488 0 0 0 .2.31 1.225 1.225 0 0 0 .69.22 1.134 1.134 0 0 0 .358-.057.951.951 0 0 0 .727.413.8.8 0 0 0 .616-.318.928.928 0 0 0 .236-.687 1.019 1.019 0 0 0-.2-.507 1.161 1.161 0 0 0 .391-.439.939.939 0 0 0-.253-1.207 1.049 1.049 0 0 0-.64-.22" data-name="Path 659"></path><path fill="#fff" d="M33.172 6.519a.35.35 0 0 1-.248-.11.343.343 0 0 1-.095-.243 1.548 1.548 0 0 1 .1-.523.737.737 0 0 1-.729-.613.544.544 0 0 1 .444-.6.648.648 0 0 1 .14-.016.588.588 0 0 1 .082.006 1.2 1.2 0 0 1 .219-.83.928.928 0 0 1 .764-.4.826.826 0 0 1 .823.764 1.09 1.09 0 0 1-.143.645.943.943 0 0 1 .516.32.8.8 0 0 1 .147.612.635.635 0 0 1-.659.618 1.154 1.154 0 0 1-.438-.1 1.055 1.055 0 0 1-.9.463Z" data-name="Path 660"></path><path fill="#6a3ab5" d="M33.849 3.321h.065a.685.685 0 0 1 .634.649 1.053 1.053 0 0 1-.223.721c.429.05.812.307.743.825a.513.513 0 0 1-.536.509 1.079 1.079 0 0 1-.486-.131.937.937 0 0 1-.848.5h-.024a.226.226 0 0 1-.22-.224 1.263 1.263 0 0 1 .177-.642h-.024c-.363 0-.735-.125-.785-.515a.422.422 0 0 1 .348-.458.527.527 0 0 1 .112-.012.8.8 0 0 1 .243.045.958.958 0 0 1 .822-1.268m0-.251a1.052 1.052 0 0 0-.865.449 1.325 1.325 0 0 0-.25.775.839.839 0 0 0-.118.017.667.667 0 0 0-.541.736.814.814 0 0 0 .691.7 1.69 1.69 0 0 0-.061.419.458.458 0 0 0 .128.331.48.48 0 0 0 .336.151 1.216 1.216 0 0 0 .966-.438 1.213 1.213 0 0 0 .4.071.759.759 0 0 0 .783-.727.926.926 0 0 0-.171-.705 1.019 1.019 0 0 0-.44-.318 1.172 1.172 0 0 0 .092-.582.931.931 0 0 0-.864-.875h-.084" data-name="Path 661"></path><path fill="#fff" d="M23.468 4.139a.87.87 0 0 1-.682-.438 1.024 1.024 0 0 1-.4.082 1.1 1.1 0 0 1-.621-.2.36.36 0 0 1-.148-.23.338.338 0 0 1 .052-.253 1.5 1.5 0 0 1 .367-.383.744.744 0 0 1-.284-.918.516.516 0 0 1 .48-.3.619.619 0 0 1 .216.039.641.641 0 0 1 .192.113 1.138 1.138 0 0 1 .984-.644.925.925 0 0 1 .564.2.814.814 0 0 1 .212 1.049 1.083 1.083 0 0 1-.467.464.951.951 0 0 1 .261.55.807.807 0 0 1-.206.595.679.679 0 0 1-.521.274" data-name="Path 662"></path><path fill="#6a3ab5" d="M23.619 1.138a.8.8 0 0 1 .489.17.69.69 0 0 1 .183.891 1.039 1.039 0 0 1-.576.484.735.735 0 0 1 .179 1.1.559.559 0 0 1-.426.23.82.82 0 0 1-.635-.474.93.93 0 0 1-.45.118.972.972 0 0 1-.55-.178.226.226 0 0 1-.065-.309 1.24 1.24 0 0 1 .494-.441c-.314-.2-.572-.514-.4-.875a.394.394 0 0 1 .368-.226.482.482 0 0 1 .171.032.663.663 0 0 1 .281.222 1.028 1.028 0 0 1 .937-.745m0-.251a1.256 1.256 0 0 0-1.024.588.827.827 0 0 0-.108-.05.749.749 0 0 0-.258-.046.646.646 0 0 0-.593.368.819.819 0 0 0 .2.966 1.717 1.717 0 0 0-.277.318.463.463 0 0 0-.071.349.487.487 0 0 0 .2.31 1.225 1.225 0 0 0 .69.22 1.138 1.138 0 0 0 .358-.057.951.951 0 0 0 .727.413.8.8 0 0 0 .616-.318.928.928 0 0 0 .236-.687 1.027 1.027 0 0 0-.2-.507 1.161 1.161 0 0 0 .391-.439.939.939 0 0 0-.253-1.207 1.049 1.049 0 0 0-.64-.22" data-name="Path 663"></path><path fill="#d2d6fc" d="m33.055 36.5 1.709-5.559 5-1.048-4.6 10.286Z" data-name="Path 664"></path><path fill="none" stroke="#6a3ab5" stroke-miterlimit="10" stroke-width=".432" d="m33.055 36.5 1.709-5.559 5-1.048-4.6 10.286Z" data-name="Path 665"></path><path fill="#d2d6fc" d="M18 9.71a8.239 8.239 0 0 0-.239 2.479 12.522 12.522 0 0 1 .253 1.934 2.994 2.994 0 0 1-1.239 2.822c-.313.191-.67.309-.964.528a3.122 3.122 0 0 0-.978 1.881 16.763 16.763 0 0 0-.407 3 13.621 13.621 0 0 0-1.651.112 11.371 11.371 0 0 1-1.313.139 7.01 7.01 0 0 1-1.809-.277 4.051 4.051 0 0 1-1.681-.74 1.1 1.1 0 0 1-.363-.506c-.087-.3.107-.58.189-.858a8.894 8.894 0 0 0 .267-1.2 8.272 8.272 0 0 0-.013-2.5c-.221-1.389-.795-2.7-1.019-4.092a4.754 4.754 0 0 1 0-1.769 4.96 4.96 0 0 1 .816-1.718 7.814 7.814 0 0 1 6.4-3.555 3.439 3.439 0 0 1 1.761.466A4.415 4.415 0 0 1 18 9.71" data-name="Path 666"></path><path fill="none" stroke="#6a3ab5" stroke-miterlimit="10" stroke-width=".432" d="M18 9.71a8.239 8.239 0 0 0-.239 2.479 12.522 12.522 0 0 1 .253 1.934 2.994 2.994 0 0 1-1.239 2.822c-.313.191-.67.309-.964.528a3.122 3.122 0 0 0-.978 1.881 16.763 16.763 0 0 0-.407 3 13.621 13.621 0 0 0-1.651.112 11.371 11.371 0 0 1-1.313.139 7.01 7.01 0 0 1-1.809-.277 4.051 4.051 0 0 1-1.681-.74 1.1 1.1 0 0 1-.363-.506c-.087-.3.107-.58.189-.858a8.894 8.894 0 0 0 .267-1.2 8.272 8.272 0 0 0-.013-2.5c-.221-1.389-.795-2.7-1.019-4.092a4.754 4.754 0 0 1 0-1.769 4.96 4.96 0 0 1 .816-1.718 7.814 7.814 0 0 1 6.4-3.555 3.439 3.439 0 0 1 1.761.466A4.415 4.415 0 0 1 18 9.71Z" data-name="Path 667"></path><path fill="#6034a3" d="M.547 25.2a20.316 20.316 0 0 0-.219 2.128 26.638 26.638 0 0 0 .612 8.733 1.418 1.418 0 0 0 .2.469 1.1 1.1 0 0 0 .449.334 2.207 2.207 0 0 0 1.894-.049 2.241 2.241 0 0 0 1.146-1.522 4.158 4.158 0 0 0 .045-.981c-.137-3.529-.924-7.1-.194-10.553a7.955 7.955 0 0 1 .374-2.232c.219-.42.867-1.536 1.389-1.62-1.738.281-3.7.8-4.682 2.4A8.006 8.006 0 0 0 .547 25.2" data-name="Path 668"></path><path fill="none" stroke="#6034a3" stroke-miterlimit="10" stroke-width=".47" d="M.547 25.2a20.316 20.316 0 0 0-.219 2.128 26.638 26.638 0 0 0 .612 8.733 1.418 1.418 0 0 0 .2.469 1.1 1.1 0 0 0 .449.334 2.207 2.207 0 0 0 1.894-.049 2.241 2.241 0 0 0 1.146-1.522 4.158 4.158 0 0 0 .045-.981c-.137-3.529-.924-7.1-.194-10.553a7.955 7.955 0 0 1 .374-2.232c.219-.42.867-1.536 1.389-1.62-1.738.281-3.7.8-4.682 2.4A8.006 8.006 0 0 0 .547 25.2Z" data-name="Path 669"></path><path fill="#441090" d="M22.062 95.676c-.075.059-.17-.1-.326-.1a3.936 3.936 0 0 0-1.4.077 14.357 14.357 0 0 1-2.009.073c-1.014-.035-2.017-.21-3.031-.242a4.058 4.058 0 0 0-1.705.166 5.614 5.614 0 0 0-.6.4 3.8 3.8 0 0 0-.625.474 3.722 3.722 0 0 0-.506.657c-.2.3-.377.62-.543.942-.088.168-.17.34-.25.512-.04.086-.162.28-.248.09-.028-.063-.025-.141-.068-.2a3.645 3.645 0 0 0-.2 1.608 3.509 3.509 0 0 0 .324 1.47 2.52 2.52 0 0 0 2.484 1.382 4.406 4.406 0 0 0 2.119-.978 5.279 5.279 0 0 1 2.6-1.113c.607-.074 1.223-.1 1.823-.23a5.393 5.393 0 0 0 1.632-.743 3.534 3.534 0 0 0 1.553-2.272 2.957 2.957 0 0 0-.93-2.725 2.1 2.1 0 0 1-.034.65.213.213 0 0 1-.055.1" data-name="Path 670"></path><path fill="#441090" d="M22.795 97.083a2.793 2.793 0 0 1-1.269 1.767 5.338 5.338 0 0 1-1.63.743c-.6.134-1.216.155-1.821.23a5.324 5.324 0 0 0-2.608 1.113 4.436 4.436 0 0 1-2.118.98 2.522 2.522 0 0 1-2.484-1.381 2.558 2.558 0 0 1-.271-1.461 4.978 4.978 0 0 1 .472-1.515 11.55 11.55 0 0 1 .792-1.451 3.6 3.6 0 0 1 .5-.659 3.638 3.638 0 0 1 .627-.476 5.537 5.537 0 0 1 .6-.4 4.082 4.082 0 0 1 1.7-.165c.329.01.654.037.977.064.685.064 1.37.155 2.055.177.371.016.738.011 1.11-.006.3-.01.6-.037.9-.07a2.619 2.619 0 0 1 1.763.081 1.372 1.372 0 0 1 .441.524 2.771 2.771 0 0 1 .26 1.9" data-name="Path 671"></path><path fill="#441090" d="M19.367 94.912a.67.67 0 0 0-.471-.231c-.19-.021-.381-.021-.572-.028-.685-.021-1.37-.112-2.055-.177a.913.913 0 0 0-.159.182.384.384 0 0 0-.026.461.3.3 0 0 0 .291.086c.159-.006.324.01.489.01q.749 0 1.5-.032c.228-.011.456 0 .685-.018a2.032 2.032 0 0 0 .326-.04c.136-.031.071-.131-.006-.214" data-name="Path 672"></path><path fill="#441090" d="M20.157 99.524c-.085.027-.175.048-.26.07-.6.134-1.216.155-1.821.23a5.322 5.322 0 0 0-2.607 1.114 4.445 4.445 0 0 1-2.118.98 2.524 2.524 0 0 1-2.485-1.381 2.569 2.569 0 0 1-.271-1.462 4.988 4.988 0 0 1 .473-1.515c.138-.3.287-.594.452-.878a4.08 4.08 0 0 1 .759-.085c.548 0 1.083.1 1.631.085a3.566 3.566 0 0 0 1.37-.321 4.027 4.027 0 0 1 2-.691 20.18 20.18 0 0 0 2.607-.112.851.851 0 0 1 .2.01.577.577 0 0 1 .218.155 2.316 2.316 0 0 1 .445 1.515 3.455 3.455 0 0 1-.589 2.286" data-name="Path 673"></path><path fill="#441090" d="M19.245 96.09c-.14.041-.185-.219-.242-.318a1.667 1.667 0 0 0-.769-.69c-.112-.049-.242-.056-.351-.107a.122.122 0 0 1-.033-.2c.084-.1.182-.059.288-.027a1.945 1.945 0 0 1 .7.384 1.922 1.922 0 0 1 .381.444c.077.125.254.374.077.492a.173.173 0 0 1-.046.022" data-name="Path 674"></path><path fill="#441090" d="M18.033 96.244c-.141.041-.186-.219-.242-.318a1.675 1.675 0 0 0-.77-.69c-.111-.049-.241-.056-.35-.107a.122.122 0 0 1-.034-.2c.084-.1.183-.06.288-.027a1.937 1.937 0 0 1 .7.384 1.879 1.879 0 0 1 .375.444c.077.125.255.374.077.492a.145.145 0 0 1-.045.022" data-name="Path 675"></path><path fill="#441090" d="M8.06 90.042a10.85 10.85 0 0 0-4.16 2.436 7.342 7.342 0 0 0-.777.875c-.091.122-.515.74-.417.2a.363.363 0 0 0-.2.223 4.383 4.383 0 0 0-.33 2.593 1.576 1.576 0 0 0 .35.792c.748.817 2.2.538 3.014.038a5.93 5.93 0 0 0 1.42-1.279 3.84 3.84 0 0 1 1.459-1c1.156-.53 2.391-.862 3.538-1.415a3.572 3.572 0 0 0 1.22-.862 1.6 1.6 0 0 0 .377-1.405 2.008 2.008 0 0 0-1.347-1.2 6.43 6.43 0 0 0-4.143.011" data-name="Path 676"></path><path fill="#441090" d="M13.174 91.613a3.4 3.4 0 0 1-1.184.84v.006l-.038.016c-1.147.552-2.384.888-3.536 1.419a3.755 3.755 0 0 0-1.46 1 5.992 5.992 0 0 1-1.422 1.274c-.818.5-2.262.782-3.011-.038a1.484 1.484 0 0 1-.35-.792 4.273 4.273 0 0 1 1.237-3.367 7.43 7.43 0 0 1 .489-.52 10.867 10.867 0 0 1 4.162-2.436 6.424 6.424 0 0 1 4.142-.01 1.992 1.992 0 0 1 1.349 1.2 1.593 1.593 0 0 1-.377 1.4" data-name="Path 677"></path><path fill="#441090" d="M11.991 92.453v.006c-.011.006-.027.01-.037.016-1.148.551-2.384.888-3.536 1.418a3.753 3.753 0 0 0-1.46 1 6.01 6.01 0 0 1-1.423 1.273c-.818.5-2.262.782-3.011-.037a1.491 1.491 0 0 1-.35-.792 4.276 4.276 0 0 1 1.237-3.367 4.409 4.409 0 0 1 .95-.225 8.026 8.026 0 0 0 1.72-.2c.685-.245 1.227-.774 1.919-1.009.744-.257 1.5-.481 2.241-.728a.748.748 0 0 1 .265-.054.688.688 0 0 1 .419.219 3.42 3.42 0 0 1 .935 1.74 6.861 6.861 0 0 1 .127.739" data-name="Path 678"></path><path fill="#6a3ab5" d="M10.183 49.76a2.185 2.185 0 0 0-.693-.7 7.025 7.025 0 0 1-2.152-2.838 6.8 6.8 0 0 0-1.321-2.282c-.372-.4-1.08-1.771-.445-2.256a8.041 8.041 0 0 0-2.4 3.963 18.013 18.013 0 0 0-1.152 8.446 14.439 14.439 0 0 0 .307 1.558 4.433 4.433 0 0 1 .258 1.2c-.157 4.2.3 8.456.518 12.647v.06a8.425 8.425 0 0 0-.46 1.523 45.521 45.521 0 0 0-.943 6.311q-.141 1.821-.113 3.648c.021 1.255.107 2.506.192 3.758.166 2.436.634 8.273.667 8.767a4.286 4.286 0 0 0 3.224.233 5.424 5.424 0 0 0 2.647-1.924c.519-.686.183-1.473.155-2.245a74.695 74.695 0 0 1 .043-10.834c.4-3.577 1.574-7.067 1.587-10.667-.133.2-.282.44-.447.693l.646-18.154a1.917 1.917 0 0 0-.114-.907" data-name="Path 679"></path><path fill="none" stroke="#6a3ab5" stroke-miterlimit="10" stroke-width=".47" d="M10.183 49.76a2.185 2.185 0 0 0-.693-.7 7.025 7.025 0 0 1-2.152-2.838 6.8 6.8 0 0 0-1.321-2.282c-.372-.4-1.08-1.771-.445-2.256a8.041 8.041 0 0 0-2.4 3.963 18.013 18.013 0 0 0-1.152 8.446 14.439 14.439 0 0 0 .307 1.558 4.433 4.433 0 0 1 .258 1.2c-.157 4.2.3 8.456.518 12.647v.06a8.425 8.425 0 0 0-.46 1.523 45.521 45.521 0 0 0-.943 6.311q-.141 1.821-.113 3.648c.021 1.255.107 2.506.192 3.758.166 2.436.634 8.273.667 8.767a4.286 4.286 0 0 0 3.224.233 5.424 5.424 0 0 0 2.647-1.924c.519-.686.183-1.473.155-2.245a74.695 74.695 0 0 1 .043-10.834c.4-3.577 1.574-7.067 1.587-10.667-.133.2-.282.44-.447.693l.646-18.154a1.917 1.917 0 0 0-.118-.907Z" data-name="Path 680"></path><path fill="#6a3ab5" d="M18.663 60.172c.148-3.094.383-6.22.229-9.313a28.013 28.013 0 0 0-.58-4.414 3.146 3.146 0 0 1-1.438 1.024 6.2 6.2 0 0 1-1.55.829 3.878 3.878 0 0 1-2.823-.517 17.489 17.489 0 0 0-2.431-1.649c-.664-.26-1.485-.628-2-.007a15.732 15.732 0 0 0-1.1 1.482 11.307 11.307 0 0 0-2.157 6.529 10.524 10.524 0 0 0 2.375 6.172 4.426 4.426 0 0 1 1.206 2.377q.857 6.047 1.243 12.15c.006.081.01.163.017.243.006 2.039.045 4.077.085 6.116.042 2.146.084 4.293.207 6.436.133 2.315.367 4.623.627 6.926l.2 1.728c.1.866-.06 1.659.913 2a4.76 4.76 0 0 0 4.579-.548 3.992 3.992 0 0 0 .755-.838 2.538 2.538 0 0 0 .149-1.636 17.931 17.931 0 0 1-.076-1.953q.062-1.635.138-3.271c.148-3.248.314-6.5.48-9.743q.264-5.19.525-10.379c.136-2.742.271-5.483.366-8.227.018-.5.04-1.008.064-1.514" data-name="Path 681"></path><path fill="none" stroke="#6a3ab5" stroke-miterlimit="10" stroke-width=".47" d="M18.663 60.172c.148-3.094.383-6.22.229-9.313a28.013 28.013 0 0 0-.58-4.414 3.146 3.146 0 0 1-1.438 1.024 6.2 6.2 0 0 1-1.55.829 3.878 3.878 0 0 1-2.823-.517 17.489 17.489 0 0 0-2.431-1.649c-.664-.26-1.485-.628-2-.007a15.732 15.732 0 0 0-1.1 1.482 11.307 11.307 0 0 0-2.157 6.529 10.524 10.524 0 0 0 2.375 6.172 4.426 4.426 0 0 1 1.206 2.377q.857 6.047 1.243 12.15c.006.081.01.163.017.243.006 2.039.045 4.077.085 6.116.042 2.146.084 4.293.207 6.436.133 2.315.367 4.623.627 6.926l.2 1.728c.1.866-.06 1.659.913 2a4.76 4.76 0 0 0 4.579-.548 3.992 3.992 0 0 0 .755-.838 2.538 2.538 0 0 0 .149-1.636 17.931 17.931 0 0 1-.076-1.953q.062-1.635.138-3.271c.148-3.248.314-6.5.48-9.743q.264-5.19.525-10.379c.136-2.742.271-5.483.366-8.227.015-.506.037-1.011.061-1.517Z" data-name="Path 682"></path><path fill="#6034a3" d="M20.239 27.867c-.015-.062-.03-.125-.047-.186a4.089 4.089 0 0 0-.984-2.143 16.849 16.849 0 0 0-2.094-1.468 58.727 58.727 0 0 1-5.16-3.665 4.318 4.318 0 0 0-3.365-1.1 14.528 14.528 0 0 0-4.065 1.045 5.28 5.28 0 0 0-2.613 2.081A8.675 8.675 0 0 0 1.147 27c.045 1.914.288 3.814.417 5.723.219 3.263-.178 15.146.193 17.86.075.549.35.671.845.916a5.19 5.19 0 0 0 .657.3c.352.117.415.047.493-.291a14.383 14.383 0 0 1 .548-1.547q.277-.772.562-1.541a20.224 20.224 0 0 0-.029 3.772.762.762 0 0 0 .039.209.591.591 0 0 0 .128.187 2.718 2.718 0 0 0 1.432.7 18.871 18.871 0 0 0 1.881.414 19.607 19.607 0 0 0 7.167-.125 24.331 24.331 0 0 0 2.959-.76c.533-.178.736-.168.786-.73.294-3.216.491-6.434.831-9.648a89.778 89.778 0 0 0 .658-9.773 20.627 20.627 0 0 0-.471-4.8" data-name="Path 683"></path><path fill="none" stroke="#6034a3" stroke-miterlimit="10" stroke-width=".47" d="M20.239 27.867c-.015-.062-.03-.125-.047-.186a4.089 4.089 0 0 0-.984-2.143 16.849 16.849 0 0 0-2.094-1.468 58.727 58.727 0 0 1-5.16-3.665 4.318 4.318 0 0 0-3.365-1.1 14.528 14.528 0 0 0-4.065 1.045 5.28 5.28 0 0 0-2.613 2.081A8.675 8.675 0 0 0 1.147 27c.045 1.914.288 3.814.417 5.723.219 3.263-.178 15.146.193 17.86.075.549.35.671.845.916a5.19 5.19 0 0 0 .657.3c.352.117.415.047.493-.291a14.383 14.383 0 0 1 .548-1.547q.277-.772.562-1.541a20.224 20.224 0 0 0-.029 3.772.762.762 0 0 0 .039.209.591.591 0 0 0 .128.187 2.718 2.718 0 0 0 1.432.7 18.871 18.871 0 0 0 1.881.414 19.607 19.607 0 0 0 7.167-.125 24.331 24.331 0 0 0 2.959-.76c.533-.178.736-.168.786-.73.294-3.216.491-6.434.831-9.648a89.778 89.778 0 0 0 .658-9.773 20.627 20.627 0 0 0-.475-4.799Z" data-name="Path 684"></path><path fill="#d2d6fc" d="M35.414 38.011a1.429 1.429 0 0 0-.074-.168c-.89-1.721-3.014-1.341-4.4-.57-.339.188-.678.375-1.021.556a24.177 24.177 0 0 1-4.067 1.671 10.4 10.4 0 0 1-1.338.335 1.886 1.886 0 0 1-.653.069c-.15-.037-.278-.184-.411-.262a4.588 4.588 0 0 0-1.241-.507 1.332 1.332 0 0 0-.69-.028 2.7 2.7 0 0 0-.462.229 7.954 7.954 0 0 1-1.715.429.812.812 0 0 0-.348.161.332.332 0 0 0-.105.351.446.446 0 0 0 .288.221 2.192 2.192 0 0 0 1 .113c.068.072-.029.181-.115.23a13.116 13.116 0 0 1-2.1.943 1.824 1.824 0 0 0-1.076.672.685.685 0 0 1-.2.287 1.01 1.01 0 0 1-.224.068c-.484.151-.305.943.127 1.03a.283.283 0 0 0-.035.295.606.606 0 0 0 .2.237 1.567 1.567 0 0 0 1.146.327.505.505 0 0 0 .177.663 1.273 1.273 0 0 0 .726.167 8.173 8.173 0 0 0 3-.564 10.2 10.2 0 0 0 2.516-1.421 7.4 7.4 0 0 1 .86-.615c.674-.376 6.725-1.329 7.562-1.606a5.21 5.21 0 0 0 2.128-1.149 2.21 2.21 0 0 0 .543-2.164" data-name="Path 685"></path><path fill="none" stroke="#6a3ab5" stroke-miterlimit="10" stroke-width=".432" d="M35.414 38.011a1.429 1.429 0 0 0-.074-.168c-.89-1.721-3.014-1.341-4.4-.57-.339.188-.678.375-1.021.556a24.177 24.177 0 0 1-4.067 1.671 10.4 10.4 0 0 1-1.338.335 1.886 1.886 0 0 1-.653.069c-.15-.037-.278-.184-.411-.262a4.588 4.588 0 0 0-1.241-.507 1.332 1.332 0 0 0-.69-.028 2.7 2.7 0 0 0-.462.229 7.954 7.954 0 0 1-1.715.429.812.812 0 0 0-.348.161.332.332 0 0 0-.105.351.446.446 0 0 0 .288.221 2.192 2.192 0 0 0 1 .113c.068.072-.029.181-.115.23a13.116 13.116 0 0 1-2.1.943 1.824 1.824 0 0 0-1.076.672.685.685 0 0 1-.2.287 1.01 1.01 0 0 1-.224.068c-.484.151-.305.943.127 1.03a.283.283 0 0 0-.035.295.606.606 0 0 0 .2.237 1.567 1.567 0 0 0 1.146.327.505.505 0 0 0 .177.663 1.273 1.273 0 0 0 .726.167 8.173 8.173 0 0 0 3-.564 10.2 10.2 0 0 0 2.516-1.421 7.4 7.4 0 0 1 .86-.615c.674-.376 6.725-1.329 7.562-1.606a5.21 5.21 0 0 0 2.128-1.149 2.21 2.21 0 0 0 .545-2.164Z" data-name="Path 686"></path><path fill="#fff" d="M13.11 19.383a6.127 6.127 0 0 0-1.457-.269c-.365-.021-.731-.01-1.1-.03a6.455 6.455 0 0 1-1.543-.277c-.335-.1-.928-.168-.892-.6a.342.342 0 0 0-.312.231 1.6 1.6 0 0 0-.054.416 1.344 1.344 0 0 1-.139.374 1.669 1.669 0 0 0-.214.527c-.037.324.281.5.524.625a9.91 9.91 0 0 0 3.239.6 6.586 6.586 0 0 1 1.412.387 12.972 12.972 0 0 1 1.444.787 9.335 9.335 0 0 1 1.414.92c-.058-.05.024-.548.025-.629a4.142 4.142 0 0 0-.018-1.02 2.256 2.256 0 0 0-.206-.651 2.43 2.43 0 0 0-.967-.888 6.062 6.062 0 0 0-1.159-.5" data-name="Path 687"></path><path fill="none" stroke="#6a3ab5" stroke-miterlimit="10" stroke-width=".432" d="M13.11 19.383a6.127 6.127 0 0 0-1.457-.269c-.365-.021-.731-.01-1.1-.03a6.455 6.455 0 0 1-1.543-.277c-.335-.1-.928-.168-.892-.6a.342.342 0 0 0-.312.231 1.6 1.6 0 0 0-.054.416 1.344 1.344 0 0 1-.139.374 1.669 1.669 0 0 0-.214.527c-.037.324.281.5.524.625a9.91 9.91 0 0 0 3.239.6 6.586 6.586 0 0 1 1.412.387 12.972 12.972 0 0 1 1.444.787 9.335 9.335 0 0 1 1.414.92c-.058-.05.024-.548.025-.629a4.142 4.142 0 0 0-.018-1.02 2.256 2.256 0 0 0-.206-.651 2.43 2.43 0 0 0-.967-.888 6.062 6.062 0 0 0-1.156-.503Z" data-name="Path 688"></path><path fill="#441090" d="M7.136 14.571a5.336 5.336 0 0 0 1.518 2.467 3.359 3.359 0 0 0 2.7.843 4.259 4.259 0 0 0 2.006-1.052 3.116 3.116 0 0 0 .549-.576 3.8 3.8 0 0 0 .28-.51l.666-1.372a3.708 3.708 0 0 1 .589-.953 1.825 1.825 0 0 1 1.247-.56.407.407 0 0 0 .23-.049.381.381 0 0 0 .116-.214 10.364 10.364 0 0 0 .572-2.974 6.383 6.383 0 0 0-.737-2.886 1.422 1.422 0 0 1-.229.509.482.482 0 0 1-.492.186c-.174-.054-.278-.229-.42-.345-.267-.22-.388-.018-.545.164a3.327 3.327 0 0 1-.771.59 6.767 6.767 0 0 1-1.765.74c-1.131.31-2.307.418-3.45.682a4.055 4.055 0 0 0-1.663.705c-1.312 1.055-.826 3.238-.4 4.6" data-name="Path 689"></path><path fill="#441090" d="M18.391 7.474a1.316 1.316 0 0 0 .183-1.513 2.845 2.845 0 0 0-1.057-1.253 6.711 6.711 0 0 0-2.133-.8 8.348 8.348 0 0 0-2.6-.219 9.189 9.189 0 0 0-3.317.945A7.451 7.451 0 0 0 6.8 6.74a5.249 5.249 0 0 0-.77 1.379 2.056 2.056 0 0 0-.04.11c-.505 1.482-.242 3.795 1.414 4.438a4.394 4.394 0 0 0 2.781 0 7.78 7.78 0 0 0 3.667-2.312 20.434 20.434 0 0 1 1.395-1.616 2.836 2.836 0 0 1 1.868-.823 2.511 2.511 0 0 0 .869-.156 1.121 1.121 0 0 0 .407-.282" data-name="Path 690"></path><path fill="#d2d6fc" d="M33.17 41.551a1.777 1.777 0 0 1 .345-.48 1.192 1.192 0 0 1 .5-.165 3.462 3.462 0 0 0 1.857-1.04c.053-.058.122-.123.2-.1a.176.176 0 0 1 .1.082.832.832 0 0 1-.046.864 5.494 5.494 0 0 1-.583.7c-.075.089-.189.187-.054.3a.377.377 0 0 0 .24.063c.136 0 .271-.014.4 0a.545.545 0 0 1 .361.163.8.8 0 0 1 .037.734.431.431 0 0 0-.016.25.636.636 0 0 0 .066.12 1.086 1.086 0 0 1-.02.986.729.729 0 0 0-.092.308.887.887 0 0 0 .043.193 1.535 1.535 0 0 1-.432 1.384.374.374 0 0 0-.071.095.567.567 0 0 0-.026.178.686.686 0 0 1-.252.42 1.631 1.631 0 0 1-1.211.368 2.28 2.28 0 0 1-.881-.277c-.244-.133-.394-.353-.636-.486a6.454 6.454 0 0 0-1.191-.283.117.117 0 0 1-.072-.046.121.121 0 0 1 0-.088 2.439 2.439 0 0 0 .078-.747 6.72 6.72 0 0 0-.491-1.462c-.158-.493-.1-1.039.464-1.138a2.315 2.315 0 0 0 1.383-.886" data-name="Path 691"></path><path fill="none" stroke="#6a3ab5" stroke-miterlimit="10" stroke-width=".432" d="M33.17 41.551a1.777 1.777 0 0 1 .345-.48 1.192 1.192 0 0 1 .5-.165 3.462 3.462 0 0 0 1.857-1.04c.053-.058.122-.123.2-.1a.176.176 0 0 1 .1.082.832.832 0 0 1-.046.864 5.494 5.494 0 0 1-.583.7c-.075.089-.189.187-.054.3a.377.377 0 0 0 .24.063c.136 0 .271-.014.4 0a.545.545 0 0 1 .361.163.8.8 0 0 1 .037.734.431.431 0 0 0-.016.25.636.636 0 0 0 .066.12 1.086 1.086 0 0 1-.02.986.729.729 0 0 0-.092.308.887.887 0 0 0 .043.193 1.535 1.535 0 0 1-.432 1.384.374.374 0 0 0-.071.095.567.567 0 0 0-.026.178.686.686 0 0 1-.252.42 1.631 1.631 0 0 1-1.211.368 2.28 2.28 0 0 1-.881-.277c-.244-.133-.394-.353-.636-.486a6.454 6.454 0 0 0-1.191-.283.117.117 0 0 1-.072-.046.121.121 0 0 1 0-.088 2.439 2.439 0 0 0 .078-.747 6.72 6.72 0 0 0-.491-1.462c-.158-.493-.1-1.039.464-1.138a2.315 2.315 0 0 0 1.383-.896Z" data-name="Path 692"></path><path fill="#6034a3" d="M32.978 42.336a2.191 2.191 0 0 0-.149-.2.345.345 0 0 0-.142-.112.414.414 0 0 0-.179 0 3.455 3.455 0 0 1-1.858-.493c-.709-.327-1.443-.595-2.158-.907a5.429 5.429 0 0 1-2.877-2.368q-.5-.9-.961-1.828-.914-1.822-1.69-3.71a46.69 46.69 0 0 0-2.5-5.687c-.619-1.076-1.822-2.3-3.011-1.308a4.98 4.98 0 0 0-1.573 3.72 13.99 13.99 0 0 0 2.163 7.566c.642 1.164 1.263 2.346 2 3.452a13.62 13.62 0 0 0 1.2 1.561 10.986 10.986 0 0 0 6.45 3.735c1.007.125 2.02.183 3.033.218.5.018 1.007.043 1.509.044.4 0 .6-.35.769-.7a3.687 3.687 0 0 0 .383-1.626 2.526 2.526 0 0 0-.408-1.357" data-name="Path 693"></path><path fill="none" stroke="#6034a3" stroke-miterlimit="10" stroke-width=".47" d="M32.978 42.336a2.191 2.191 0 0 0-.149-.2.345.345 0 0 0-.142-.112.414.414 0 0 0-.179 0 3.455 3.455 0 0 1-1.858-.493c-.709-.327-1.443-.595-2.158-.907a5.429 5.429 0 0 1-2.877-2.368q-.5-.9-.961-1.828-.914-1.822-1.69-3.71a46.69 46.69 0 0 0-2.5-5.687c-.619-1.076-1.822-2.3-3.011-1.308a4.98 4.98 0 0 0-1.573 3.72 13.99 13.99 0 0 0 2.163 7.566c.642 1.164 1.263 2.346 2 3.452a13.62 13.62 0 0 0 1.2 1.561 10.986 10.986 0 0 0 6.45 3.735c1.007.125 2.02.183 3.033.218.5.018 1.007.043 1.509.044.4 0 .6-.35.769-.7a3.687 3.687 0 0 0 .383-1.626 2.526 2.526 0 0 0-.409-1.357Z" data-name="Path 694"></path><path fill="#fff" d="M39.661 26.5s.336 2.787.5 3.466c-1.234 1.928-4.331 2.148-5.568.9l-1.012-3.855Z" data-name="Path 695"></path><path fill="none" stroke="#6a3ab5" stroke-miterlimit="10" stroke-width=".47" d="M39.661 26.5s.336 2.787.5 3.466c-1.234 1.928-4.331 2.148-5.568.9l-1.012-3.855Z" data-name="Path 696"></path><path fill="#fff" d="M31.927 23.78a4.485 4.485 0 1 0 4.485-4.52 4.5 4.5 0 0 0-4.485 4.52" data-name="Path 697"></path><path fill="none" stroke="#6a3ab5" stroke-miterlimit="10" stroke-width=".432" d="M31.927 23.78a4.485 4.485 0 1 0 4.485-4.52 4.5 4.5 0 0 0-4.485 4.52Z" data-name="Path 698"></path></g></g></g></svg>