<svg xmlns="http://www.w3.org/2000/svg" viewBox="0.01 0 55.99 112"><defs><clipPath id="a"><path fill="none" d="M0 0h56v112H0z" data-name="Rectangle 27"></path></clipPath></defs><g data-name="Group 55"><g clip-path="url(#a)" data-name="Group 54"><path fill="#d2d6fc" d="M4.842 50.905c-.242-.461-1.184-.58-1.572-.614a7.891 7.891 0 0 1-1.078.931 1.312 1.312 0 0 0-.215.122c-.5.359-1.025.634-1.188 1.416a11.666 11.666 0 0 1-.339 1.169 1.59 1.59 0 0 0-.087.463v.163a8.533 8.533 0 0 0-.074 2.615 1.054 1.054 0 0 0 1.042.272c.459-.068 1.1-.788 1.451-1.422.27-.486 1.018-1.69 1.346-2.22l.669-.444a6.072 6.072 0 0 0 .045-2.447" data-name="Path 339"></path><path fill="none" stroke="#6a3ab5" stroke-miterlimit="10" stroke-width=".417" d="M4.842 50.905c-.242-.461-1.184-.58-1.572-.614a7.891 7.891 0 0 1-1.078.931 1.312 1.312 0 0 0-.215.122c-.5.359-1.025.634-1.188 1.416a11.666 11.666 0 0 1-.339 1.169 1.59 1.59 0 0 0-.087.463v.163a8.533 8.533 0 0 0-.074 2.615 1.054 1.054 0 0 0 1.042.272c.459-.068 1.1-.788 1.451-1.422.27-.486 1.018-1.69 1.346-2.22l.669-.444a6.072 6.072 0 0 0 .045-2.451Z" data-name="Path 340"></path><path fill="#d2d6fc" d="M29.147 53.623c.408-.321 1.316-.044 1.684.085A7.864 7.864 0 0 0 31.438 55a1.41 1.41 0 0 1 .148.2 2.249 2.249 0 0 1 .508 1.779 11.767 11.767 0 0 0-.166 1.206 1.611 1.611 0 0 1-.109.458c-.021.045-.041.1-.062.151a8.5 8.5 0 0 1-1 2.411 1.048 1.048 0 0 1-1.061-.179 2.939 2.939 0 0 1-.746-1.894c-.048-.554-.237-1.959-.323-2.583l-.432-.681a6.075 6.075 0 0 1 .955-2.251" data-name="Path 341"></path><path fill="none" stroke="#6a3ab5" stroke-miterlimit="10" stroke-width=".417" d="M29.147 53.623c.408-.321 1.316-.044 1.684.085A7.864 7.864 0 0 0 31.438 55a1.41 1.41 0 0 1 .148.2 2.249 2.249 0 0 1 .508 1.779 11.767 11.767 0 0 0-.166 1.206 1.611 1.611 0 0 1-.109.458c-.021.045-.041.1-.062.151a8.5 8.5 0 0 1-1 2.411 1.048 1.048 0 0 1-1.061-.179 2.939 2.939 0 0 1-.746-1.894c-.048-.554-.237-1.959-.323-2.583l-.432-.681a6.075 6.075 0 0 1 .952-2.245Z" data-name="Path 342"></path><path fill="#fff" d="M1.935 50.674 4 39.3l3.479-15.921 5.892 5.077-7.751 23.03Z" data-name="Path 343"></path><path fill="#6a3ab5" d="m7.667 23.94 5.354 4.612-7.6 22.579-3.136-.691 2-11.062Zm-.374-1.123L3.7 39.247 1.586 50.909l4.234.932 7.9-23.483Z" data-name="Path 344"></path><path fill="#381077" d="m5.663 97.24 5.281-3.776a4.707 4.707 0 0 1 2.827-.067c.488.129.578-.239.537.221l.451 1.935c.443 1.292-.588 2.1-2.072 2.6l-5.044 1.583a3.982 3.982 0 0 1-3.27-.333l-.214-.157c-.754-.552.387-1.367 1.505-2.005" data-name="Path 345"></path><path fill="#d2d6fc" d="M12.483 94.754a2.029 2.029 0 0 1-1.4-.45.54.54 0 0 1-.158-.419l.27-4.622 3.055.091-.27 4.6c-.031.547-.8.8-1.5.8" data-name="Path 346"></path><path fill="#6a3ab5" d="m11.48 89.575 2.449.072-.25 4.291c-.016.282-.552.51-1.194.51A1.763 1.763 0 0 1 11.3 94.1a.235.235 0 0 1-.076-.193Zm-.57-.625-.287 4.916c-.046.783.912 1.19 1.861 1.19.883 0 1.755-.352 1.8-1.083l.288-4.915Z" data-name="Path 347"></path><path fill="#6035a4" d="M12.573 92.7a3.414 3.414 0 0 1-2.024-.755C10.376 89.815 8.1 61.366 8.918 46.4l10.927-3.72c-1.477 9.522-4.53 24.757-4.562 24.912l-.016.086.034.08c2.629 6.136 1.21 13.735.07 19.841-.287 1.535-.557 2.99-.754 4.338a3.45 3.45 0 0 1-2.045.766" data-name="Path 348"></path><path fill="#6035a4" d="M19.5 43.094c-1.5 9.538-4.456 24.29-4.486 24.442l-.035.173.069.16c2.6 6.059 1.186 13.611.052 19.679-.278 1.494-.543 2.91-.738 4.229a3.108 3.108 0 0 1-1.786.644 3.074 3.074 0 0 1-1.755-.626c-.237-2.941-2.4-30.448-1.631-45.187Zm.694-.829L8.648 46.2c-.884 15.613 1.632 45.9 1.632 45.9a3.735 3.735 0 0 0 2.291.887 3.766 3.766 0 0 0 2.3-.892c.978-6.849 4.011-16.669.68-24.443 0 0 3.17-15.784 4.634-25.383" data-name="Path 349"></path><path fill="#d2d6fc" d="M25.172 98.486c-.554 0-1.163-.169-1.21-.64l-.462-4.582 3.048-.4.462 4.565a.6.6 0 0 1-.173.476 2.393 2.393 0 0 1-1.661.582" data-name="Path 350"></path><path fill="#6a3ab5" d="m26.274 93.2.431 4.254a.294.294 0 0 1-.1.241 2.116 2.116 0 0 1-1.437.482c-.433 0-.886-.126-.91-.367l-.436-4.289Zm.538-.684L23.166 93l.494 4.876c.064.633.751.914 1.512.914 1.042 0 2.222-.526 2.135-1.393Z" data-name="Path 351"></path><path fill="#6035a4" d="M24.806 96.483a2.967 2.967 0 0 1-1.53-.45c-.16-1.226-1.423-10.7-3.314-20.61-.547-2.868-1.188-5.751-1.809-8.539a115.47 115.47 0 0 1-2.621-14.407l10.148-6.212c-.076 6.15.327 18.663.508 23.863a9.351 9.351 0 0 0 .959 3.817c2.284 4.677.362 20.017.174 21.458a4.05 4.05 0 0 1-2.516 1.078" data-name="Path 352"></path><path fill="#6035a4" d="M25.4 46.768c-.048 6.293.336 18.3.512 23.371a9.661 9.661 0 0 0 .988 3.933c2.2 4.5.415 19.215.163 21.186a3.708 3.708 0 0 1-2.253.944 2.61 2.61 0 0 1-1.273-.344c-.223-1.68-1.465-10.881-3.3-20.487-.547-2.873-1.189-5.756-1.81-8.545a117.38 117.38 0 0 1-2.6-14.2Zm.571-1.006-10.732 6.566c.53 6.6 2.873 14.882 4.45 23.149C21.726 86.156 23.016 96.2 23.016 96.2a3.269 3.269 0 0 0 1.792.563 4.375 4.375 0 0 0 2.778-1.212s2.266-16.71-.188-21.728a9.149 9.149 0 0 1-.93-3.7c-.192-5.546-.6-18.476-.5-24.358" data-name="Path 353"></path><path fill="#fff" d="M16.865 68.516c-3.432 0-6.312-.983-7.9-2.7A5.137 5.137 0 0 1 7.61 61.8c.136-5.139.019-27.45-.618-34.323.131-4.931 1.32-10.851 6.24-10.851a8.56 8.56 0 0 1 2.921.581l.068.024 3.1-.348c.532.29 1.04.563 1.524.822 5.679 3.048 7.8 4.188 6.517 10.813l.1 33.618c-.109 4.139-5.54 6.378-10.6 6.378" data-name="Path 354"></path><path fill="#6a3ab5" d="M13.233 16.93a8.265 8.265 0 0 1 2.816.564l.133.049.142-.016 2.94-.329q.753.41 1.442.778c5.691 3.053 7.607 4.081 6.363 10.486l-.012.058v.061l.1 33.54c-.077 2.952-3.711 6.091-10.292 6.091-3.3 0-6.171-.972-7.68-2.6a4.872 4.872 0 0 1-1.273-3.816c.134-5.117.019-27.379-.616-34.308.132-4.825 1.27-10.557 5.935-10.557m0-.608c-3.959 0-6.344 3.68-6.542 11.184.621 6.683.759 28.907.617 34.273-.345 4.84 4.5 7.041 9.558 7.041 5.274 0 10.784-2.393 10.9-6.683l-.1-33.558c1.448-7.453-1.37-8.235-8.278-12.005l-3.127.35a8.838 8.838 0 0 0-3.025-.6" data-name="Path 355"></path><path fill="#381077" d="m23.644 97.669.254 3.105a18.507 18.507 0 0 0 .538 2.624 2.155 2.155 0 0 0 1.905 1.349 2.976 2.976 0 0 0 2.184-3.771 510.191 510.191 0 0 0-1.228-3.71 4.215 4.215 0 0 1-3.654.4" data-name="Path 356"></path><path fill="#fff" d="m27.567 24.408 2.821 10.441a60.41 60.41 0 0 1 1.6 10.976l.45 8.537-4.835.256-5.528-25.338" data-name="Path 357"></path><path fill="none" stroke="#6a3ab5" stroke-miterlimit="10" stroke-width=".606" d="m27.567 24.408 2.821 10.441a60.41 60.41 0 0 1 1.6 10.976l.45 8.537-4.835.256-5.528-25.338" data-name="Path 358"></path><path fill="#573095" d="M16.64 22.217a.833.833 0 0 1-.744-.451l-.138-.266-.033-.129c1.032-.431 4.458-2.308 5.49-3.991l.467 1.1c-.482.633-2.616 3.288-4.882 3.718a.811.811 0 0 1-.161.016" data-name="Path 359"></path><path fill="#573095" d="m21.143 17.99.189.448c-.618.79-2.564 3.08-4.588 3.465a.614.614 0 0 1-.1.01.533.533 0 0 1-.474-.287l-.07-.126a16.438 16.438 0 0 0 5.044-3.508m.062-1.417c-.156 1.582-4.291 3.975-5.507 4.43a.427.427 0 0 0-.209.638l.138.267a1.141 1.141 0 0 0 1.014.615 1.1 1.1 0 0 0 .217-.021c2.717-.517 5.172-3.977 5.172-3.977Z" data-name="Path 360"></path><path fill="#573095" d="M15.237 21.129a.711.711 0 0 1-.485-.19c-.427-.444.022-1.432.46-2.14a7.919 7.919 0 0 0 .738 1.887l-.173.216a.758.758 0 0 1-.54.226" data-name="Path 361"></path><path fill="#573095" d="M15.129 19.6a8.94 8.94 0 0 0 .463 1.061l-.03.03a.458.458 0 0 1-.325.137.382.382 0 0 1-.256-.089c-.18-.186-.079-.64.149-1.14m.292-1.626s-1.8 2.24-.877 3.192a1 1 0 0 0 .693.275 1.065 1.065 0 0 0 .755-.317l.195-.2a.287.287 0 0 0 .057-.333 6.166 6.166 0 0 1-.823-2.62" data-name="Path 362"></path><path fill="#573095" d="M14.908 22.773a.225.225 0 0 1-.018-.216.283.283 0 0 1 .207-.2.206.206 0 0 1 .029.218.289.289 0 0 1-.207.2Z" data-name="Path 363"></path><path fill="#573095" d="M15.1 22.048a.574.574 0 0 0-.494.406.444.444 0 0 0 .224.614.321.321 0 0 0 .091.012.571.571 0 0 0 .492-.406.444.444 0 0 0-.223-.614.333.333 0 0 0-.091-.012" data-name="Path 364"></path><path fill="#573095" d="M14.282 24.618a.229.229 0 0 1-.017-.216.283.283 0 0 1 .207-.2.208.208 0 0 1 .029.218.289.289 0 0 1-.208.2Z" data-name="Path 365"></path><path fill="#573095" d="M14.472 23.893a.574.574 0 0 0-.494.406.445.445 0 0 0 .224.614.321.321 0 0 0 .091.012.571.571 0 0 0 .492-.406.444.444 0 0 0-.223-.614.333.333 0 0 0-.091-.012" data-name="Path 366"></path><path fill="#a2acf8" d="M13.025 31.312a1.8 1.8 0 0 1-.584-.09 1.216 1.216 0 0 1-.266-.123 3.208 3.208 0 0 0-.329-.63l-.045-.063h-.1a.513.513 0 0 1-.319-.284 5.078 5.078 0 0 1-.3-.982.537.537 0 0 1 .076-.4l.075-.113-.1-.088a.5.5 0 0 1-.186-.352c-.031-.3-.047-.622-.06-.952a.563.563 0 0 1 .136-.376l.088-.1-.09-.1a.5.5 0 0 1-.128-.36c.008-.309.019-.621.047-.935a.589.589 0 0 1 .166-.364l.092-.091-.075-.1a.542.542 0 0 1-.1-.372c.036-.3.075-.616.122-.926a.553.553 0 0 1 .2-.338l.111-.085-.076-.119a.523.523 0 0 1-.073-.376c.056-.307.12-.611.185-.916a.529.529 0 0 1 .219-.318l.113-.073-.059-.12a.552.552 0 0 1-.045-.384c.077-.314.168-.608.258-.9a.49.49 0 0 1 .243-.305l.123-.067-.057-.129a.542.542 0 0 1-.016-.4c.109-.293.217-.581.34-.864a.494.494 0 0 1 .271-.281l.131-.052-.042-.135a.527.527 0 0 1 .029-.402c.148-.3.3-.577.455-.84a.508.508 0 0 1 .317-.242l.138-.032-.023-.14a.538.538 0 0 1 .1-.394 6.2 6.2 0 0 1 .646-.749.5.5 0 0 1 .356-.149h.038a7.79 7.79 0 0 0-.006 1.31c-.062.07-.121.147-.179.225a.479.479 0 0 1-.288.192l-.134.034.022.139a.517.517 0 0 1-.074.346q-.216.372-.409.774a.541.541 0 0 1-.264.246l-.122.053.039.129a.506.506 0 0 1-.016.357c-.111.271-.214.546-.321.829a.469.469 0 0 1-.229.278l-.131.063.059.134a.563.563 0 0 1 .022.379c-.092.273-.171.559-.247.843a.513.513 0 0 1-.211.309l-.1.075.057.115a.557.557 0 0 1 .048.373c-.068.287-.128.579-.179.873a.563.563 0 0 1-.2.321l-.11.085.075.118a.493.493 0 0 1 .079.361c-.048.276-.079.549-.109.83a.521.521 0 0 1-.173.373l-.106.091.081.114a.554.554 0 0 1 .1.362c-.024.3-.038.6-.048.885a.5.5 0 0 1-.138.344l-.093.1.094.1a.541.541 0 0 1 .138.343c0 .3.023.587.046.859a.5.5 0 0 1-.077.351l-.073.111.1.088a.54.54 0 0 1 .177.3 5.085 5.085 0 0 0 .231.761.488.488 0 0 1 .019.362l-.027.08.1.122.143.023a.844.844 0 0 0 .276-.064c-.038.018.038.038.149.038a1.287 1.287 0 0 0 .207-.018 5.316 5.316 0 0 0 .761-.2c.243-.09.5-.209.776-.339a.536.536 0 0 1 .242-.057.53.53 0 0 1 .122.013l.125.027.048-.119a.566.566 0 0 1 .24-.284c.247-.137.5-.293.763-.457a.559.559 0 0 1 .282-.078l.132.021.115-.124a.514.514 0 0 1 .22-.3l.744-.513a.539.539 0 0 1 .311-.1h.122l.092-.118a.527.527 0 0 1 .2-.312l.726-.532a.47.47 0 0 1 .3-.107h.121l.092-.117a.538.538 0 0 1 .2-.326l.711-.561a.525.525 0 0 1 .312-.112h.129l.075-.125a.562.562 0 0 1 .2-.334l.7-.568a.522.522 0 0 1 .334-.12h.129l.047-.129a.522.522 0 0 1 .185-.324l.69-.588a.522.522 0 0 1 .336-.129h.133l.033-.13a.547.547 0 0 1 .16-.317 2.116 2.116 0 0 0 .427-.592.485.485 0 0 1 .195-.211l.125-.069-.063-.13a.474.474 0 0 1-.04-.288 2.16 2.16 0 0 0-.033-.732.579.579 0 0 1 .025-.292l.046-.134-.128-.055a.47.47 0 0 1-.2-.188 1.9 1.9 0 0 0-.174-.241c-.145-.174-.233-.281-.331-.384a.583.583 0 0 1-.144-.333l-.015-.135h-.143a.478.478 0 0 1-.316-.122 7.704 7.704 0 0 0-.581-.457l.077-.633a2.207 2.207 0 0 0 .413-.317 6.975 6.975 0 0 1 .778.6.554.554 0 0 1 .186.366l.011.13.131.007a.538.538 0 0 1 .368.17c.14.153.27.3.392.448a3.757 3.757 0 0 1 .241.339.523.523 0 0 1 .045.463l-.05.13.123.062a.5.5 0 0 1 .277.362 3.037 3.037 0 0 1 .047 1.087.554.554 0 0 1-.252.389l-.114.07.054.123a.528.528 0 0 1 0 .456 3.28 3.28 0 0 1-.633.87.551.551 0 0 1-.381.157h-.136l-.019.135a.534.534 0 0 1-.186.343l-.7.589a.563.563 0 0 1-.342.124h-.131l-.045.135a.52.52 0 0 1-.184.324l-.709.589a.6.6 0 0 1-.347.113h-.128l-.05.126a.513.513 0 0 1-.194.332c-.237.188-.473.377-.716.563a.55.55 0 0 1-.321.111h-.122l-.085.117a.6.6 0 0 1-.207.338l-.737.544a.527.527 0 0 1-.315.1H18.7l-.1.115a.544.544 0 0 1-.215.32l-.756.517a.5.5 0 0 1-.286.089l-.133-.023-.129.123a.542.542 0 0 1-.235.314 26.6 26.6 0 0 1-.8.482.507.507 0 0 1-.261.07.545.545 0 0 1-.125-.015l-.126-.028-.048.119a.561.561 0 0 1-.265.3 7.391 7.391 0 0 1-.882.38 7.236 7.236 0 0 1-.99.273 2.532 2.532 0 0 1-.328.022" data-name="Path 367"></path><path fill="#6a3ab5" d="M14.854 14.878a7.861 7.861 0 0 0 0 1.083c-.05.06-.1.124-.149.192a.334.334 0 0 1-.2.129l-.271.068.046.276a.374.374 0 0 1-.058.249c-.143.248-.281.508-.407.768a.394.394 0 0 1-.195.185l-.243.109.076.256a.366.366 0 0 1-.012.261c-.11.265-.213.542-.323.836a.312.312 0 0 1-.151.185l-.261.129.119.267a.406.406 0 0 1 .019.261c-.1.283-.174.572-.255.873a.361.361 0 0 1-.149.213l-.208.149.113.231a.411.411 0 0 1 .039.27 13.3 13.3 0 0 0-.179.869.405.405 0 0 1-.145.241l-.221.171.152.236a.338.338 0 0 1 .057.25c-.047.271-.077.54-.109.814l-.008.083a.329.329 0 0 1-.114.219l-.213.181.163.227a.415.415 0 0 1 .076.258c-.025.306-.039.605-.05.905a.348.348 0 0 1-.1.237l-.188.208.191.205a.4.4 0 0 1 .1.233c0 .309.023.6.048.893a.349.349 0 0 1-.057.241l-.144.224.2.173a.393.393 0 0 1 .128.225 4.85 4.85 0 0 0 .241.785.344.344 0 0 1 .012.25l-.053.159.105.13a.378.378 0 0 0 .3.135.875.875 0 0 0 .242-.043.946.946 0 0 0 .183.016 1.474 1.474 0 0 0 .225-.018 5.6 5.6 0 0 0 .794-.211c.249-.094.507-.214.795-.349a.387.387 0 0 1 .172-.04.483.483 0 0 1 .092.01l.248.053.1-.236a.42.42 0 0 1 .173-.202c.253-.141.513-.3.767-.461a.425.425 0 0 1 .231-.053h.033l.266.041.071-.261a.377.377 0 0 1 .167-.218c.134-.095.273-.19.413-.284l.325-.225a.411.411 0 0 1 .249-.068h.012l.269.027.057-.265a.372.372 0 0 1 .144-.221l.74-.543a.337.337 0 0 1 .221-.066h.017l.266.026.058-.263a.38.38 0 0 1 .149-.242l.346-.273.354-.281a.388.388 0 0 1 .245-.086h.006l.282.028.046-.281a.409.409 0 0 1 .142-.239l.7-.571a.377.377 0 0 1 .25-.085l.271.011.041-.269a.378.378 0 0 1 .134-.235l.691-.587a.359.359 0 0 1 .243-.091l.269.006.039-.267a.4.4 0 0 1 .116-.23 2.268 2.268 0 0 0 .456-.631.335.335 0 0 1 .134-.148l.25-.141-.127-.259a.337.337 0 0 1-.027-.2 2.243 2.243 0 0 0-.033-.764.457.457 0 0 1 .019-.227l.098-.271-.258-.111a.32.32 0 0 1-.134-.129l-.035-.053a1.718 1.718 0 0 0-.144-.194l-.062-.074c-.088-.1-.18-.215-.275-.316a.434.434 0 0 1-.11-.25l-.029-.269h-.27a.33.33 0 0 1-.219-.086 8.196 8.196 0 0 0-.515-.41l.051-.48a2.466 2.466 0 0 0 .29-.22 8.319 8.319 0 0 1 .657.521.4.4 0 0 1 .136.266l.024.261.26.015a.389.389 0 0 1 .267.122c.137.151.265.3.38.438a3.109 3.109 0 0 1 .232.326.374.374 0 0 1 .034.331l-.1.258.247.124a.359.359 0 0 1 .2.265 2.906 2.906 0 0 1 .044 1.022.406.406 0 0 1-.181.287l-.226.14.109.243a.378.378 0 0 1 0 .323 3.143 3.143 0 0 1-.6.83.409.409 0 0 1-.279.115h-.273l-.03.273a.364.364 0 0 1-.129.241l-.7.588a.412.412 0 0 1-.263.091l-.27-.011-.041.269a.377.377 0 0 1-.132.232l-.7.579a.452.452 0 0 1-.277.088l-.267-.011-.044.265a.363.363 0 0 1-.148.244c-.232.186-.465.371-.7.553a.4.4 0 0 1-.252.079h-.007l-.267-.026-.057.263a.459.459 0 0 1-.146.247c-.121.092-.243.181-.365.27s-.253.184-.375.276a.4.4 0 0 1-.252.069h-.013l-.267-.026-.058.263a.392.392 0 0 1-.148.224l-.194.134c-.192.132-.38.261-.569.388a.349.349 0 0 1-.2.061.425.425 0 0 1-.068-.006l-.266-.044-.074.261a.385.385 0 0 1-.167.225c-.277.173-.54.331-.8.481a.349.349 0 0 1-.183.049.417.417 0 0 1-.094-.011l-.249-.055-.1.238a.417.417 0 0 1-.192.218 7.445 7.445 0 0 1-.882.379 7.205 7.205 0 0 1-.939.259 2.534 2.534 0 0 1-.311.021 1.69 1.69 0 0 1-.537-.081 1.187 1.187 0 0 1-.172-.072 5.38 5.38 0 0 0-.348-.626l-.057-.079-.092-.032a.336.336 0 0 0-.1-.017.374.374 0 0 1-.195-.193 4.877 4.877 0 0 1-.289-.944.4.4 0 0 1 .052-.3l.149-.225-.207-.175a.355.355 0 0 1-.132-.258 12.79 12.79 0 0 1-.059-.932.4.4 0 0 1 .1-.273l.177-.2-.179-.2a.352.352 0 0 1-.09-.263c.007-.3.017-.606.048-.925a.414.414 0 0 1 .123-.263l.184-.182-.151-.211a.383.383 0 0 1-.071-.264c.035-.3.074-.615.12-.915a.4.4 0 0 1 .14-.248l.221-.17-.152-.236a.389.389 0 0 1-.051-.266c.056-.305.121-.609.184-.907a.374.374 0 0 1 .155-.228l.225-.147-.119-.242a.4.4 0 0 1-.033-.284c.075-.3.163-.594.255-.894a.334.334 0 0 1 .169-.21l.247-.134-.115-.258a.376.376 0 0 1-.012-.278c.109-.294.214-.58.342-.87a.337.337 0 0 1 .184-.192l.26-.1-.083-.269a.374.374 0 0 1 .019-.281c.145-.29.3-.569.45-.831a.365.365 0 0 1 .221-.169l.273-.064-.045-.28a.383.383 0 0 1 .068-.277 5.978 5.978 0 0 1 .634-.734.366.366 0 0 1 .121-.079m.371-.716a.687.687 0 0 0-.189.389h-.057a.644.644 0 0 0-.46.193 6.332 6.332 0 0 0-.663.767.686.686 0 0 0-.123.508.652.652 0 0 0-.414.312c-.157.265-.311.549-.46.847a.68.68 0 0 0-.038.508.644.644 0 0 0-.353.362c-.125.284-.233.576-.344.876a.682.682 0 0 0 .019.508.638.638 0 0 0-.316.394c-.091.3-.181.594-.259.905a.692.692 0 0 0 .054.492.683.683 0 0 0-.284.414c-.064.305-.129.611-.186.92a.685.685 0 0 0 .1.486.7.7 0 0 0-.253.435c-.048.311-.088.626-.125.932a.7.7 0 0 0 .127.478.726.726 0 0 0-.213.458c-.03.317-.041.632-.048.938a.645.645 0 0 0 .167.472.706.706 0 0 0-.173.482c.013.332.028.655.06.956a.649.649 0 0 0 .24.457.7.7 0 0 0-.1.518 5.245 5.245 0 0 0 .31 1.012.684.684 0 0 0 .4.369.109.109 0 0 0 .034 0h.038a6.411 6.411 0 0 1 .362.664 1.3 1.3 0 0 0 .307.143 1.944 1.944 0 0 0 .634.1 2.689 2.689 0 0 0 .348-.023 7.175 7.175 0 0 0 1.017-.28 7.591 7.591 0 0 0 .9-.388.711.711 0 0 0 .339-.377.7.7 0 0 0 .16.018.666.666 0 0 0 .336-.09c.263-.152.527-.311.808-.486a.7.7 0 0 0 .3-.4.737.737 0 0 0 .116.01.647.647 0 0 0 .37-.114c.248-.165.5-.34.762-.52a.7.7 0 0 0 .272-.41.694.694 0 0 0 .475-.126c.246-.187.5-.361.743-.548a.763.763 0 0 0 .259-.423.466.466 0 0 0 .058 0 .692.692 0 0 0 .411-.142c.246-.186.483-.376.72-.565a.664.664 0 0 0 .249-.425h.035a.744.744 0 0 0 .444-.148l.708-.587a.685.685 0 0 0 .238-.421h.025a.709.709 0 0 0 .442-.159l.7-.591a.681.681 0 0 0 .236-.441.7.7 0 0 0 .486-.2 3.44 3.44 0 0 0 .664-.912.688.688 0 0 0 .006-.587.715.715 0 0 0 .323-.5 3.237 3.237 0 0 0-.048-1.136.664.664 0 0 0-.359-.47.675.675 0 0 0-.057-.6 3.528 3.528 0 0 0-.254-.357q-.183-.222-.394-.453a.7.7 0 0 0-.473-.219.7.7 0 0 0-.236-.467 8.466 8.466 0 0 0-.767-.6.307.307 0 0 0-.14-.067 2.19 2.19 0 0 1-.524.41l-.1.8c.232.167.439.323.639.5a.627.627 0 0 0 .416.16.744.744 0 0 0 .184.421c.121.128.229.261.331.383a1.812 1.812 0 0 1 .157.219.632.632 0 0 0 .272.247.755.755 0 0 0-.031.376 1.953 1.953 0 0 1 .03.676.639.639 0 0 0 .056.377.633.633 0 0 0-.258.278 2 2 0 0 1-.4.549.7.7 0 0 0-.2.4H23.8a.665.665 0 0 0-.434.164l-.687.586a.679.679 0 0 0-.238.421h-.029a.675.675 0 0 0-.427.153l-.7.571a.711.711 0 0 0-.25.425h-.054a.684.684 0 0 0-.407.145c-.237.19-.471.369-.708.559a.681.681 0 0 0-.255.414.594.594 0 0 0-.067 0 .616.616 0 0 0-.392.136q-.363.268-.728.534a.683.683 0 0 0-.261.4h-.067a.693.693 0 0 0-.4.124c-.252.175-.5.343-.739.51a.668.668 0 0 0-.284.385.719.719 0 0 0-.1-.009.707.707 0 0 0-.361.1c-.256.163-.511.317-.759.455a.731.731 0 0 0-.3.36.737.737 0 0 0-.155-.017.688.688 0 0 0-.3.072 10.86 10.86 0 0 1-.767.337 5.363 5.363 0 0 1-.73.194 1.1 1.1 0 0 1-.184.016.585.585 0 0 1-.2-.029.782.782 0 0 1-.229.056.086.086 0 0 1-.07-.023.646.646 0 0 0-.023-.472 4.731 4.731 0 0 1-.223-.732.7.7 0 0 0-.225-.385.671.671 0 0 0 .1-.447c-.024-.27-.042-.555-.046-.856a.709.709 0 0 0-.179-.438.653.653 0 0 0 .178-.441c.011-.286.024-.581.048-.881a.723.723 0 0 0-.132-.459.635.635 0 0 0 .218-.418c.034-.3.064-.586.115-.877a.648.648 0 0 0-.1-.469.713.713 0 0 0 .251-.423q.076-.438.178-.865a.722.722 0 0 0-.06-.474.656.656 0 0 0 .266-.391c.077-.283.154-.566.247-.842a.707.707 0 0 0-.029-.482.616.616 0 0 0 .3-.36c.105-.282.207-.557.316-.819a.655.655 0 0 0 .023-.464.7.7 0 0 0 .338-.318c.128-.266.263-.519.4-.761a.652.652 0 0 0 .094-.45.636.636 0 0 0 .373-.249 3.146 3.146 0 0 1 .215-.265 8.649 8.649 0 0 1 .057-1.9" data-name="Path 368"></path><path fill="#6a3ab5" d="M21.793 24.934a.87.87 0 0 1 .048.1 1.58 1.58 0 0 1-2.781 1.486.7.7 0 0 1-.057-.1.88.88 0 0 1-.05-.1.868.868 0 0 1 .152-.689 2.472 2.472 0 0 1 1.981-1.059.869.869 0 0 1 .65.261.851.851 0 0 1 .057.1" data-name="Path 369"></path><path fill="#a2acf8" d="M21.793 24.934a.653.653 0 0 1-.1.789 2.476 2.476 0 0 1-1.981 1.059.86.86 0 0 1-.653-.259.7.7 0 0 1-.057-.1.88.88 0 0 1-.05-.1.868.868 0 0 1 .152-.689 2.472 2.472 0 0 1 1.981-1.059.869.869 0 0 1 .65.261.851.851 0 0 1 .057.1" data-name="Path 370"></path><path fill="#6a3ab5" d="M19.536 25.518a1.818 1.818 0 0 1 1.343-.64c.525.019.722.393.445.84a1.8 1.8 0 0 1-1.445.768c-.465-.016-.673-.317-.509-.7-.111.3.057.526.425.54a1.444 1.444 0 0 0 1.161-.621c.224-.359.064-.659-.357-.673a1.464 1.464 0 0 0-1.063.487" data-name="Path 371"></path><path fill="#6a3ab5" d="M20.651 25.761a.949.949 0 0 1-.7.334c-.273-.009-.377-.2-.233-.439a.944.944 0 0 1 .755-.4c.244.009.353.165.269.366.058-.157-.03-.276-.223-.282a.754.754 0 0 0-.609.324c-.117.187-.034.344.188.352a.771.771 0 0 0 .555-.255" data-name="Path 372"></path><path fill="#6a3ab5" d="M12.916 26.175a.82.82 0 0 1-.075.085 1.577 1.577 0 0 1-2.146.159 1.594 1.594 0 0 1-.307-2.144.836.836 0 0 1 .067-.091.825.825 0 0 1 .074-.085.861.861 0 0 1 .691-.131 2.483 2.483 0 0 1 1.748 1.413.881.881 0 0 1 .016.7.837.837 0 0 1-.067.091" data-name="Path 373"></path><path fill="#a2acf8" d="M12.916 26.175a.82.82 0 0 1-.075.085.866.866 0 0 1-.686.134 2.483 2.483 0 0 1-1.748-1.413.869.869 0 0 1-.019-.7.836.836 0 0 1 .067-.091.825.825 0 0 1 .074-.085.861.861 0 0 1 .691-.131 2.483 2.483 0 0 1 1.748 1.413.881.881 0 0 1 .016.7.837.837 0 0 1-.067.091" data-name="Path 374"></path><path fill="#6a3ab5" d="M11.5 24.32a1.827 1.827 0 0 1 1.114.989c.188.491-.075.82-.594.74a1.8 1.8 0 0 1-1.27-1.031c-.168-.436.027-.747.44-.747-.317.016-.46.261-.327.605a1.451 1.451 0 0 0 1.025.829c.416.064.628-.2.477-.594a1.477 1.477 0 0 0-.865-.791" data-name="Path 375"></path><path fill="#6a3ab5" d="M11.711 25.446a.956.956 0 0 1-.583-.518c-.1-.256.04-.429.311-.386a.939.939 0 0 1 .664.538c.088.228-.013.391-.23.391.166-.009.241-.136.171-.316a.759.759 0 0 0-.536-.434c-.218-.034-.329.1-.249.311a.774.774 0 0 0 .452.413" data-name="Path 376"></path><path fill="#6a3ab5" d="M16.555 28.829c.006.039.015.072.018.112a1.58 1.58 0 0 1-3.088.636.865.865 0 0 1-.027-.111.583.583 0 0 1-.018-.112.867.867 0 0 1 .339-.617 2.472 2.472 0 0 1 2.2-.452.868.868 0 0 1 .548.435.658.658 0 0 1 .028.109" data-name="Path 377"></path><path fill="#a2acf8" d="M16.555 28.829c.006.039.015.072.018.112a.883.883 0 0 1-.335.616 2.475 2.475 0 0 1-2.2.453.641.641 0 0 1-.58-.544.583.583 0 0 1-.018-.112.867.867 0 0 1 .339-.617 2.472 2.472 0 0 1 2.2-.452.868.868 0 0 1 .548.435.658.658 0 0 1 .028.109" data-name="Path 378"></path><path fill="#6a3ab5" d="M14.226 28.747a1.816 1.816 0 0 1 1.469-.232.5.5 0 0 1 .19.931 1.8 1.8 0 0 1-1.6.327c-.442-.148-.557-.5-.293-.817-.19.255-.093.521.256.638a1.444 1.444 0 0 0 1.288-.265.4.4 0 0 0-.152-.747 1.463 1.463 0 0 0-1.158.165" data-name="Path 379"></path><path fill="#6a3ab5" d="M15.227 29.3a.952.952 0 0 1-.768.122.263.263 0 0 1-.1-.487.942.942 0 0 1 .837-.171c.231.078.29.26.152.428.1-.134.05-.273-.133-.334a.756.756 0 0 0-.674.139.211.211 0 0 0 .08.391.765.765 0 0 0 .6-.086" data-name="Path 380"></path><path fill="#6a3ab5" d="M13.566 18.507a.98.98 0 0 1 .056.1 1.6 1.6 0 0 1-.554 2.09 1.579 1.579 0 0 1-2.117-.412.71.71 0 0 1-.064-.094.65.65 0 0 1 .047-.8 2.481 2.481 0 0 1 1.9-1.2.868.868 0 0 1 .665.215.8.8 0 0 1 .064.094" data-name="Path 381"></path><path fill="#a2acf8" d="M13.566 18.507a.98.98 0 0 1 .056.1.874.874 0 0 1-.1.7 2.481 2.481 0 0 1-1.9 1.2.861.861 0 0 1-.669-.213.71.71 0 0 1-.064-.094.65.65 0 0 1 .047-.8 2.481 2.481 0 0 1 1.9-1.2.868.868 0 0 1 .665.215.8.8 0 0 1 .064.094" data-name="Path 382"></path><path fill="#6a3ab5" d="M11.356 19.246a1.823 1.823 0 0 1 1.3-.733c.524-.018.748.34.5.806a1.8 1.8 0 0 1-1.386.868c-.465.017-.693-.27-.558-.662-.09.306.094.521.462.508a1.449 1.449 0 0 0 1.115-.7c.2-.374.018-.662-.4-.648a1.47 1.47 0 0 0-1.027.561" data-name="Path 383"></path><path fill="#6a3ab5" d="M12.484 19.412a.95.95 0 0 1-.678.383c-.273.01-.391-.177-.263-.421a.942.942 0 0 1 .725-.455c.246-.009.363.141.294.346.046-.159-.051-.272-.242-.266a.76.76 0 0 0-.584.367c-.1.2-.01.346.211.338a.761.761 0 0 0 .537-.293" data-name="Path 384"></path><path fill="#d2d6fc" d="M16.832 20.677a1.551 1.551 0 0 1-1.193-.4.633.633 0 0 1-.121-.547 4.944 4.944 0 0 0-.2-2.326 10.247 10.247 0 0 0 4.495-2 8.184 8.184 0 0 0 1.333-1.39 8.174 8.174 0 0 0 .926 3.018 5.69 5.69 0 0 1-2.645 2.852 5.4 5.4 0 0 1-2.59.789" data-name="Path 385"></path><path fill="#6a3ab5" d="M20.986 14.551a8.845 8.845 0 0 0 .847 2.5 5.615 5.615 0 0 1-2.518 2.649 5.192 5.192 0 0 1-2.483.76 1.377 1.377 0 0 1-1.028-.318.409.409 0 0 1-.075-.368 4.932 4.932 0 0 0-.139-2.195 10.6 10.6 0 0 0 4.352-2 7.872 7.872 0 0 0 1.044-1.026m.386-1.223a8.642 8.642 0 0 1-1.7 1.911 9.8 9.8 0 0 1-4.649 1.986 4.941 4.941 0 0 1 .283 2.467c-.144.744.5 1.2 1.524 1.2a5.6 5.6 0 0 0 2.7-.817 5.64 5.64 0 0 0 2.77-3.063 7.293 7.293 0 0 1-.928-3.685" data-name="Path 386"></path><path fill="#d2d6fc" d="M14.873 17.423c-1.134-.019-1.275-.8-1.273-1.482a8.747 8.747 0 0 0-.229-1.516l-.028-.119-.115-.038c-.087-.028-.146-.077-.16-.222a.7.7 0 0 1 .076-.27l.029-.07-.021-.072c-.252-.87-.41-2.055-.031-2.533l.109-.136-.111-.135c-.12-.146-.408-.592-.312-.9l.1-.315c.133-.414.279-.871.4-1.386A5.274 5.274 0 0 1 15.579 5.1a5.537 5.537 0 0 1 3.084-.93 4.424 4.424 0 0 1 2.454.685 4.913 4.913 0 0 1 1.97 5.083 10.009 10.009 0 0 1-3.2 5.52 9.163 9.163 0 0 1-4.952 1.96Z" data-name="Path 387"></path><path fill="#6a3ab5" d="M18.662 4.39A4.212 4.212 0 0 1 21 5.039 4.7 4.7 0 0 1 22.876 9.9a9.924 9.924 0 0 1-3.125 5.391 8.922 8.922 0 0 1-4.873 1.913c-.886-.015-1.065-.517-1.062-1.3a9.158 9.158 0 0 0-.233-1.524l-.067-.256-.232-.075a.8.8 0 0 1 .062-.187l.058-.14-.042-.146a3.425 3.425 0 0 1-.07-2.338l.215-.272-.219-.27c-.149-.184-.327-.527-.273-.7l.1-.3c.133-.414.284-.884.411-1.412a5.07 5.07 0 0 1 2.179-3 5.316 5.316 0 0 1 2.963-.893m0-.431a5.778 5.778 0 0 0-3.2.967A5.406 5.406 0 0 0 13.1 8.181c-.154.644-.345 1.2-.5 1.686s.352 1.1.352 1.1c-.547.69-.122 2.33-.007 2.727a.878.878 0 0 0-.092.372.43.43 0 0 0 .307.408 8.747 8.747 0 0 1 .223 1.428 1.456 1.456 0 0 0 1.484 1.736h.064a9.381 9.381 0 0 0 5.085-2.008A10.274 10.274 0 0 0 23.3 9.983a5.13 5.13 0 0 0-2.063-5.3 4.61 4.61 0 0 0-2.573-.723" data-name="Path 388"></path><path fill="#441090" d="M21.42 3.96a6.016 6.016 0 0 0-6.713 0 5.5 5.5 0 0 0-1.722 2.027 1.938 1.938 0 0 0 1.654 3.007 16.237 16.237 0 0 0 3.923-.368c1.278.834.769 2.2.941 2.657s.359 1.043.647 1.208c.177.1.509-.188.6-.288.208-.241 1.659-1.929 1.751.157a9.534 9.534 0 0 0 .8-2.376 5.863 5.863 0 0 0 .1-.989A4.553 4.553 0 0 0 21.42 3.96" data-name="Path 389"></path><path fill="#6034a3" d="M20.244 12.295a2.389 2.389 0 0 1-.483-.937l-.057-.152a1.7 1.7 0 0 1-.027-.464c0-.156.006-.327 0-.507a12.192 12.192 0 0 0 3.493-.89c-.017.2-.042.4-.08.6a8.818 8.818 0 0 1-.5 1.678.649.649 0 0 0-.624-.508c-.369 0-.831.316-1.373.937a.832.832 0 0 1-.346.244" data-name="Path 390"></path><path fill="#6034a3" d="M22.912 9.686a6.945 6.945 0 0 1-.036.216 8.31 8.31 0 0 1-.333 1.23.779.779 0 0 0-.58-.236c-.443 0-.946.333-1.543 1.022a1.291 1.291 0 0 1-.129.117 4.612 4.612 0 0 1-.327-.745l-.059-.16a2.1 2.1 0 0 1-.012-.386v-.32a12.669 12.669 0 0 0 3.016-.738m.486-.694a11.621 11.621 0 0 1-3.957 1.049c.067.524-.027 1 .063 1.24.172.458.358 1.044.646 1.208a.162.162 0 0 0 .086.022.941.941 0 0 0 .511-.31c.131-.151.751-.873 1.217-.873.277 0 .5.254.534 1.029a9.591 9.591 0 0 0 .8-2.375 6.019 6.019 0 0 0 .1-.991" data-name="Path 391"></path><path fill="#a2acf8" d="M15.285 2.534A4.87 4.87 0 0 1 19.3.369a6.725 6.725 0 0 1 2.642.6 3.834 3.834 0 0 1 2.193 2.163 6.758 6.758 0 0 1-.254 4.415Z" data-name="Path 392"></path><path fill="#6a3ab5" d="M19.3.74a6.374 6.374 0 0 1 2.5.57 3.438 3.438 0 0 1 1.99 1.953A6 6 0 0 1 23.679 7l-7.847-4.575A4.461 4.461 0 0 1 19.3.74m0-.74a5.339 5.339 0 0 0-4.527 2.663l9.292 5.419s2.562-5.5-1.977-7.451A7.031 7.031 0 0 0 19.3 0" data-name="Path 393"></path><path fill="#a2acf8" d="M16.987 30.973c.387-1.575 1.647-6.165 3.8-9.217 2.5-3.548 1.067-8.855.7-10.05l1.221-1.1c.72 1.8 3.147 8.332 2.547 13.4-.573 4.847-6.427 6.547-8.263 6.963" data-name="Path 394"></path><path fill="#6a3ab5" d="M22.555 11.237c.87 2.27 2.873 8.129 2.329 12.73-.494 4.182-5.2 5.916-7.387 6.5a28.956 28.956 0 0 1 3.59-8.5c2.461-3.488 1.274-8.568.817-10.145Zm.289-1.253-1.786 1.607s2.123 6.128-.572 9.953S16.5 31.45 16.5 31.45s8.4-1.315 9.119-7.394-2.775-14.072-2.775-14.072" data-name="Path 395"></path><path fill="#a2acf8" d="M23.04 14.517c-.241-.165-.324-.457-.448-.955-.321-1.281-.759-3.036-5.406-3.683-5.334-.743-6.659-2.566-6.869-2.918.129-2.9 2.227-4.695 5.5-4.695a11.5 11.5 0 0 1 5.793 1.743c3.034 1.8 3.4 5.32 2.726 8.009-.421 1.688-1.1 2.471-1.3 2.5" data-name="Path 396"></path><path fill="#6a3ab5" d="M15.817 2.637a11.132 11.132 0 0 1 5.606 1.691 5.981 5.981 0 0 1 2.83 5.537 7.659 7.659 0 0 1-1.153 4.129 4.422 4.422 0 0 1-.151-.521c-.414-1.659-1.2-3.331-5.713-3.96-4.853-.675-6.255-2.24-6.544-2.647.195-3.113 2.756-4.228 5.125-4.228m0-.74c-3.273 0-5.773 1.822-5.87 5.148 0 0 .941 2.331 7.189 3.2s4.433 3.735 5.707 4.584a.339.339 0 0 0 .19.058c1.376 0 4.172-7.984-1.234-11.2A11.916 11.916 0 0 0 15.817 1.9" data-name="Path 397"></path><path fill="#6a3ab5" d="M11.849 3.1a8.765 8.765 0 0 0 4.421 7.013l1.73.276s-4.674-3.475-4.809-8.033a5.762 5.762 0 0 0-1.343.743" data-name="Path 398"></path><path fill="#6a3ab5" d="M18.3 2.585s2.923 6.1 2.761 9.007c0 0 1.015.65 1.027 1.1 0 0 1.7-3.737-1.891-9.345Z" data-name="Path 399"></path><path fill="#6a3ab5" d="M24.082 13.549s.23 11.3-3.062 16.365c0 0 4.837-2.116 5-6.556s-1.872-9.8-1.872-9.8Z" data-name="Path 400"></path><path fill="#573095" d="M33.748 51.762c-.233-3.233-.068-7.965-.386-10.689-.3-2.544-2.3-2.145-1.718-5.262.09-1.7 3.108-4.894 3.252-6.135.225-1.963.381-3.774 4.5-5.779l1.8.359a11.524 11.524 0 0 1 2.467.785c8.321 3.731 10.142 3.887 9.507 8.815-.121 2.53-1.6.592-2.069 2.274-.9 3.23-4.314 6.564-3.183 12.177.227 1.133 1.107 1.89.09 2.664-4.406 3.351-12.764 4.136-14.262.792" data-name="Path 401"></path><path fill="none" stroke="#573095" stroke-miterlimit="10" stroke-width=".609" d="M33.748 51.762c-.233-3.233-.068-7.965-.386-10.689-.3-2.544-2.3-2.145-1.718-5.262.09-1.7 3.108-4.894 3.252-6.135.225-1.963.381-3.774 4.5-5.779l1.8.359a11.524 11.524 0 0 1 2.467.785c8.321 3.731 10.142 3.887 9.507 8.815-.121 2.53-1.6.592-2.069 2.274-.9 3.23-4.314 6.564-3.183 12.177.227 1.133 1.107 1.89.09 2.664-4.408 3.349-12.762 4.134-14.26.791Z" data-name="Path 402"></path><path fill="#ad5340" d="M47.3 26.627a8.714 8.714 0 0 0-1.948-.847l-1.071-3.8s.518.763-.662 1.949l.2.771a3.92 3.92 0 0 0 1.84 2.442l1.178.571Z" data-name="Path 403"></path><path fill="#d2d6fc" d="M48.057 25.694c-.2-.252-.42-.489-.6-.758a4.641 4.641 0 0 1-.623-2.257 18.412 18.412 0 0 0-.127-2.354 2.16 2.16 0 0 1-.158.355 3.237 3.237 0 0 1-.41.395 5.679 5.679 0 0 1-.926.656 5.442 5.442 0 0 1-2.175.692.968.968 0 0 0-.311.061.775.775 0 0 0-.312.318 2.171 2.171 0 0 0-.345.927.7.7 0 0 1-.105.3 4.251 4.251 0 0 0-1.153 1.044 5.032 5.032 0 0 0-.749 1.825c-.045.2-.086.4-.12.6a11.142 11.142 0 0 0 .381 5.324c.09.275.138.461.42.575a.869.869 0 0 0 .671 0 2.039 2.039 0 0 0 .756-.835 9.91 9.91 0 0 1 2.739-2.585 27.079 27.079 0 0 0 3.051-2.24 2.124 2.124 0 0 0 .61-.8c.128-.352-.214-.841-.414-1.108l-.105-.135" data-name="Path 404"></path><path fill="none" stroke="#6a3ab5" stroke-miterlimit="10" stroke-width=".39" d="M48.057 25.694c-.2-.252-.42-.489-.6-.758a4.641 4.641 0 0 1-.623-2.257 18.412 18.412 0 0 0-.127-2.354 2.16 2.16 0 0 1-.158.355 3.237 3.237 0 0 1-.41.395 5.679 5.679 0 0 1-.926.656 5.442 5.442 0 0 1-2.175.692.968.968 0 0 0-.311.061.775.775 0 0 0-.312.318 2.171 2.171 0 0 0-.345.927.7.7 0 0 1-.105.3 4.251 4.251 0 0 0-1.153 1.044 5.032 5.032 0 0 0-.749 1.825c-.045.2-.086.4-.12.6a11.142 11.142 0 0 0 .381 5.324c.09.275.138.461.42.575a.869.869 0 0 0 .671 0 2.039 2.039 0 0 0 .756-.835 9.91 9.91 0 0 1 2.739-2.585 27.079 27.079 0 0 0 3.051-2.24 2.124 2.124 0 0 0 .61-.8c.128-.352-.214-.841-.414-1.108Z" data-name="Path 405"></path><path fill="#d2d6fc" d="M44 12.726a5.613 5.613 0 0 0-3.039 1.525 5.38 5.38 0 0 0-.837 1.416 4 4 0 0 0-.457 1.771 3.78 3.78 0 0 1 .011.721 5.022 5.022 0 0 1-.217.648 3.257 3.257 0 0 0 .027 1.559q.279 1.457.694 2.883a1.444 1.444 0 0 0 .271.58 1.346 1.346 0 0 0 .552.323 3.467 3.467 0 0 0 .959.236 4.2 4.2 0 0 0 1.236-.16q.8-.19 1.605-.4a3.561 3.561 0 0 0 .928-.342 2.766 2.766 0 0 0 1.141-1.773.673.673 0 0 1 .12-.294.691.691 0 0 1 .178-.128 5.144 5.144 0 0 0 2.386-2.969 4.573 4.573 0 0 0-.531-3.751 4.252 4.252 0 0 0-1.488-1.371A5.392 5.392 0 0 0 44 12.726" data-name="Path 406"></path><path fill="none" stroke="#6a3ab5" stroke-miterlimit="10" stroke-width=".39" d="M44 12.726a5.613 5.613 0 0 0-3.039 1.525 5.38 5.38 0 0 0-.837 1.416 4 4 0 0 0-.457 1.771 3.78 3.78 0 0 1 .011.721 5.022 5.022 0 0 1-.217.648 3.257 3.257 0 0 0 .027 1.559q.279 1.457.694 2.883a1.444 1.444 0 0 0 .271.58 1.346 1.346 0 0 0 .552.323 3.467 3.467 0 0 0 .959.236 4.2 4.2 0 0 0 1.236-.16q.8-.19 1.605-.4a3.561 3.561 0 0 0 .928-.342 2.766 2.766 0 0 0 1.141-1.773.673.673 0 0 1 .12-.294.691.691 0 0 1 .178-.128 5.144 5.144 0 0 0 2.386-2.969 4.573 4.573 0 0 0-.531-3.751 4.252 4.252 0 0 0-1.488-1.371A5.392 5.392 0 0 0 44 12.726Z" data-name="Path 407"></path><path fill="#6a3ab5" d="M49.9 11.433c-4.514-3.331-10.695.148-10.062 4.63l1.371-1.717c2.468 3.849 4.221 4.138 5.056 4.3 0-.009 0-.018.008-.027a1.46 1.46 0 0 1 1.817-.627c.627.294.477 1.046.1 1.686-.293.495-.494.769-1.019.734l.213.847c.339 1.689 2.062.967 3.7 1.485s5.486-6.389-1.184-11.311" data-name="Path 408"></path><path fill="#fff" d="M45.116 19.822a.741.741 0 0 1-.592-.26 1.186 1.186 0 0 1-.206-.884 1.308 1.308 0 0 1-.9-.933.425.425 0 0 1 .039-.321.388.388 0 0 1 .236-.188 1.9 1.9 0 0 1 .515-.074 1.6 1.6 0 0 1 .173.009.916.916 0 0 1 .44-1.119.6.6 0 0 1 .26-.052.685.685 0 0 1 .586.362.832.832 0 0 1 .1.292 1.456 1.456 0 0 1 .615-.135 1.2 1.2 0 0 1 1.233.929A.992.992 0 0 1 47 18.6a1.265 1.265 0 0 1-.491.1 1.566 1.566 0 0 1-.351-.041 1.186 1.186 0 0 1-.183.762.963.963 0 0 1-.658.391 1.148 1.148 0 0 1-.2.017" data-name="Path 409"></path><path fill="#6a3ab5" d="M45.081 16.125a.561.561 0 0 1 .474.3.868.868 0 0 1 .093.442 1.3 1.3 0 0 1 .731-.22 1.081 1.081 0 0 1 1.107.826.863.863 0 0 1-.54 1.006 1.13 1.13 0 0 1-.44.088 1.6 1.6 0 0 1-.5-.09.918.918 0 0 1-.71 1.2 1.01 1.01 0 0 1-.175.016c-.6 0-.749-.585-.653-1.112a1.184 1.184 0 0 1-.918-.87.284.284 0 0 1 .186-.349 1.772 1.772 0 0 1 .48-.069 1.287 1.287 0 0 1 .351.046c-.144-.446-.14-.959.316-1.168a.469.469 0 0 1 .2-.045m0-.26a.746.746 0 0 0-.31.068.991.991 0 0 0-.541 1.1h-.018a2.056 2.056 0 0 0-.55.079.519.519 0 0 0-.313.25.556.556 0 0 0-.051.421 1.46 1.46 0 0 0 .883.987 1.248 1.248 0 0 0 .244.876.865.865 0 0 0 .692.307 1.28 1.28 0 0 0 .218-.019 1.1 1.1 0 0 0 .743-.445 1.246 1.246 0 0 0 .209-.679 1.7 1.7 0 0 0 .219.016 1.382 1.382 0 0 0 .541-.108 1.119 1.119 0 0 0 .692-1.3 1.33 1.33 0 0 0-1.36-1.028 1.609 1.609 0 0 0-.523.086.908.908 0 0 0-.077-.179.817.817 0 0 0-.7-.428" data-name="Path 410"></path><path fill="#fff" d="M42.2 17.683a.393.393 0 0 1-.276-.117.365.365 0 0 1-.106-.263 1.681 1.681 0 0 1 .109-.606c-.5-.049-.792-.284-.849-.664a.6.6 0 0 1 .482-.671.726.726 0 0 1 .169-.021.8.8 0 0 1 .094.006 1.352 1.352 0 0 1 .231-.958 1.043 1.043 0 0 1 .863-.451.918.918 0 0 1 .916.835 1.224 1.224 0 0 1-.154.737 1.059 1.059 0 0 1 .6.349.891.891 0 0 1 .178.679.708.708 0 0 1-.742.7 1.288 1.288 0 0 1-.483-.1 1.186 1.186 0 0 1-1.027.544Z" data-name="Path 411"></path><path fill="#6a3ab5" d="M42.914 14.07h.056a.772.772 0 0 1 .731.718 1.185 1.185 0 0 1-.236.819c.485.046.927.328.859.915a.581.581 0 0 1-.612.586 1.245 1.245 0 0 1-.537-.137 1.063 1.063 0 0 1-.974.581.255.255 0 0 1-.254-.248 1.405 1.405 0 0 1 .186-.728h-.062c-.4 0-.8-.139-.866-.565a.478.478 0 0 1 .385-.525.619.619 0 0 1 .139-.016.932.932 0 0 1 .265.045 1.077 1.077 0 0 1 .923-1.447m0-.26a1.169 1.169 0 0 0-.968.5 1.474 1.474 0 0 0-.269.9.872.872 0 0 0-.151.023.731.731 0 0 0-.58.816.907.907 0 0 0 .8.757 1.9 1.9 0 0 0-.067.493.5.5 0 0 0 .145.354.515.515 0 0 0 .367.156 1.335 1.335 0 0 0 1.079-.518 1.369 1.369 0 0 0 .436.075.836.836 0 0 0 .869-.817 1.014 1.014 0 0 0-.2-.774 1.128 1.128 0 0 0-.517-.35 1.308 1.308 0 0 0 .1-.671 1.028 1.028 0 0 0-.975-.946h-.069Z" data-name="Path 412"></path><path fill="#fff" d="M49.469 20.187a.393.393 0 0 1-.276-.117.365.365 0 0 1-.106-.263 1.69 1.69 0 0 1 .11-.606c-.5-.049-.794-.284-.851-.664a.6.6 0 0 1 .483-.671.708.708 0 0 1 .171-.02.786.786 0 0 1 .094.006 1.355 1.355 0 0 1 .231-.956 1.043 1.043 0 0 1 .864-.452.919.919 0 0 1 .916.834 1.222 1.222 0 0 1-.155.738 1.063 1.063 0 0 1 .6.349.891.891 0 0 1 .177.679.708.708 0 0 1-.742.7 1.288 1.288 0 0 1-.483-.1 1.186 1.186 0 0 1-1.027.544Z" data-name="Path 413"></path><path fill="#6a3ab5" d="M50.185 16.574h.056a.774.774 0 0 1 .732.718 1.192 1.192 0 0 1-.237.819c.485.046.927.328.859.915a.581.581 0 0 1-.612.586 1.245 1.245 0 0 1-.537-.137 1.063 1.063 0 0 1-.974.581.256.256 0 0 1-.254-.248 1.405 1.405 0 0 1 .186-.728h-.064c-.4 0-.8-.139-.866-.565a.478.478 0 0 1 .385-.525.626.626 0 0 1 .141-.014.932.932 0 0 1 .265.045 1.077 1.077 0 0 1 .923-1.447m0-.26a1.169 1.169 0 0 0-.968.5 1.474 1.474 0 0 0-.269.9.9.9 0 0 0-.152.023.73.73 0 0 0-.578.816.907.907 0 0 0 .8.757 1.9 1.9 0 0 0-.067.493.5.5 0 0 0 .145.354.52.52 0 0 0 .367.156 1.335 1.335 0 0 0 1.079-.518 1.369 1.369 0 0 0 .436.075.838.838 0 0 0 .87-.817 1.019 1.019 0 0 0-.206-.774 1.128 1.128 0 0 0-.517-.35 1.306 1.306 0 0 0 .1-.67 1.028 1.028 0 0 0-.975-.947h-.069Z" data-name="Path 414"></path><path fill="#fff" d="M47.98 20.932a.9.9 0 0 1-.708-.452 1.077 1.077 0 0 1-.419.084 1.138 1.138 0 0 1-.642-.205.377.377 0 0 1-.155-.237.35.35 0 0 1 .053-.263 1.5 1.5 0 0 1 .381-.395.766.766 0 0 1-.3-.949.538.538 0 0 1 .5-.306.631.631 0 0 1 .221.04.682.682 0 0 1 .2.117 1.177 1.177 0 0 1 1.02-.665.965.965 0 0 1 .586.2.841.841 0 0 1 .226 1.085 1.122 1.122 0 0 1-.485.479.98.98 0 0 1 .271.57.825.825 0 0 1-.214.613.705.705 0 0 1-.54.284" data-name="Path 415"></path><path fill="#6a3ab5" d="M48.136 17.83a.829.829 0 0 1 .508.175.712.712 0 0 1 .189.921 1.083 1.083 0 0 1-.6.5.759.759 0 0 1 .186 1.136.583.583 0 0 1-.443.238.849.849 0 0 1-.658-.49.96.96 0 0 1-.467.122 1.015 1.015 0 0 1-.571-.182.235.235 0 0 1-.067-.32 1.3 1.3 0 0 1 .513-.457c-.327-.2-.594-.53-.416-.9a.407.407 0 0 1 .381-.232.533.533 0 0 1 .178.032.694.694 0 0 1 .292.23 1.063 1.063 0 0 1 .973-.769m0-.26a1.3 1.3 0 0 0-1.062.609.739.739 0 0 0-.113-.052.749.749 0 0 0-.267-.049.67.67 0 0 0-.615.38.845.845 0 0 0 .211 1 1.8 1.8 0 0 0-.287.328.476.476 0 0 0-.074.36.5.5 0 0 0 .208.321 1.271 1.271 0 0 0 .716.228 1.2 1.2 0 0 0 .371-.058.989.989 0 0 0 .754.427.828.828 0 0 0 .639-.329.958.958 0 0 0 .244-.71 1.041 1.041 0 0 0-.2-.524 1.2 1.2 0 0 0 .405-.453.966.966 0 0 0-.264-1.252 1.088 1.088 0 0 0-.663-.228" data-name="Path 416"></path><path fill="#fff" d="M51.446 18.185a.377.377 0 0 1-.26-.117.344.344 0 0 1-.1-.248 1.582 1.582 0 0 1 .106-.542.764.764 0 0 1-.761-.633.563.563 0 0 1 .461-.617l.144-.016a.654.654 0 0 1 .086 0 1.242 1.242 0 0 1 .227-.857.964.964 0 0 1 .792-.411.853.853 0 0 1 .854.79 1.118 1.118 0 0 1-.148.666.961.961 0 0 1 .535.329.819.819 0 0 1 .151.633.657.657 0 0 1-.684.638 1.179 1.179 0 0 1-.454-.1 1.094 1.094 0 0 1-.929.479Z" data-name="Path 417"></path><path fill="#6a3ab5" d="M52.148 14.878a.631.631 0 0 1 .068 0 .709.709 0 0 1 .658.67 1.087 1.087 0 0 1-.231.746c.444.051.842.316.771.853a.531.531 0 0 1-.557.525 1.131 1.131 0 0 1-.5-.135.973.973 0 0 1-.88.514h-.025a.234.234 0 0 1-.229-.231 1.3 1.3 0 0 1 .184-.664h-.025c-.376 0-.761-.13-.814-.532a.438.438 0 0 1 .362-.474.555.555 0 0 1 .116-.012.853.853 0 0 1 .253.046.989.989 0 0 1 .853-1.309m0-.26a1.09 1.09 0 0 0-.9.463 1.371 1.371 0 0 0-.26.8.821.821 0 0 0-.122.017.689.689 0 0 0-.56.761.84.84 0 0 0 .716.722 1.76 1.76 0 0 0-.063.433.477.477 0 0 0 .133.343.5.5 0 0 0 .348.156 1.263 1.263 0 0 0 1-.452 1.249 1.249 0 0 0 .41.073.787.787 0 0 0 .813-.751.96.96 0 0 0-.179-.729 1.049 1.049 0 0 0-.455-.328 1.211 1.211 0 0 0 .094-.6.962.962 0 0 0-.9-.9h-.087" data-name="Path 418"></path><path fill="#fff" d="M41.38 15.724a.9.9 0 0 1-.708-.452 1.077 1.077 0 0 1-.419.084 1.138 1.138 0 0 1-.642-.205.373.373 0 0 1-.155-.238.35.35 0 0 1 .054-.263 1.551 1.551 0 0 1 .38-.394.768.768 0 0 1-.3-.949.541.541 0 0 1 .51-.307.643.643 0 0 1 .223.04.7.7 0 0 1 .2.117 1.18 1.18 0 0 1 1.02-.665.955.955 0 0 1 .584.2.84.84 0 0 1 .227 1.084 1.119 1.119 0 0 1-.486.479.974.974 0 0 1 .271.569.825.825 0 0 1-.214.615.707.707 0 0 1-.54.283" data-name="Path 419"></path><path fill="#6a3ab5" d="M41.537 12.623a.826.826 0 0 1 .508.175.711.711 0 0 1 .189.921 1.085 1.085 0 0 1-.6.5.759.759 0 0 1 .185 1.136.583.583 0 0 1-.443.238.849.849 0 0 1-.658-.49.96.96 0 0 1-.467.122 1.015 1.015 0 0 1-.571-.182.235.235 0 0 1-.067-.32 1.3 1.3 0 0 1 .513-.457c-.327-.2-.594-.53-.416-.9a.407.407 0 0 1 .381-.232.5.5 0 0 1 .178.032.694.694 0 0 1 .292.23 1.063 1.063 0 0 1 .973-.769m0-.26a1.3 1.3 0 0 0-1.062.609.688.688 0 0 0-.113-.052.749.749 0 0 0-.267-.049.671.671 0 0 0-.615.38.845.845 0 0 0 .211 1 1.8 1.8 0 0 0-.287.328.476.476 0 0 0-.074.36.5.5 0 0 0 .208.321 1.271 1.271 0 0 0 .716.228 1.2 1.2 0 0 0 .371-.058.989.989 0 0 0 .754.427.828.828 0 0 0 .639-.329.953.953 0 0 0 .244-.71 1.041 1.041 0 0 0-.2-.524 1.2 1.2 0 0 0 .405-.453.967.967 0 0 0-.263-1.247 1.092 1.092 0 0 0-.664-.228" data-name="Path 420"></path><path fill="#6a3ab5" d="m35.3 107.616 5.447-3.93a7.1 7.1 0 0 1 3.159-.2.792.792 0 0 1 .708.807l-.048.845c-.022 1.219-.172 1.388-1.092 1.776l-5.466 2.306a3.708 3.708 0 0 1-2.929-.04l-.2-.115c-.69-.41-.5-1.063.419-1.451" data-name="Path 421"></path><path fill="#d2d6fc" d="M38.864 105.916a7.979 7.979 0 0 1 1.89-1.632l.148-.1-.023-.184c-1.5-12.764-3.292-31.349-3.336-47.5l10.3-8.624c-.411 3.973-.847 7.784-1.272 11.483-1.115 9.725-2.171 18.911-2.39 28.087a11.683 11.683 0 0 0 .371 2.726 11.709 11.709 0 0 1 .348 2.288 39.877 39.877 0 0 1-.489 5.367 36.48 36.48 0 0 0-.485 5.886c-.059.7-.953 1.236-1.781 1.337a11.758 11.758 0 0 1-3.161.873s-.09 0-.12-.007" data-name="Path 422"></path><path fill="#6a3ab5" d="M47.461 48.591c-.386 3.7-.795 7.264-1.192 10.725-1.113 9.735-2.169 18.93-2.389 28.123a11.854 11.854 0 0 0 .379 2.8 11.63 11.63 0 0 1 .339 2.225 39.583 39.583 0 0 1-.486 5.323 37.256 37.256 0 0 0-.489 5.9c-.074.554-.832.983-1.512 1.066l-.074.009-.069.027a18.373 18.373 0 0 1-2.317.74 15.633 15.633 0 0 1 1.278-.992l.294-.208-.042-.36c-1.494-12.72-3.28-31.221-3.332-47.322Zm.756-1.424L37.24 56.358c.036 16.942 2 36.241 3.34 47.678-.722.51-2.462 1.807-1.979 2.112a.74.74 0 0 0 .382.078 12.238 12.238 0 0 0 3.2-.875c.94-.114 1.97-.732 2.045-1.65-.139-3.224 1.016-7.93.975-11.244-.018-1.6-.759-3.342-.719-5 .316-12.822 2.216-25.423 3.733-40.29" data-name="Path 423"></path><path fill="#6a3ab5" d="m43.475 110.158 5.3-4.131a7.082 7.082 0 0 1 3.149-.315.792.792 0 0 1 .739.779l-.017.846c.025 1.218-.119 1.393-1.024 1.816l-5.377 2.508a3.718 3.718 0 0 1-2.929.07l-.2-.108c-.705-.384-.542-1.043.363-1.466" data-name="Path 424"></path><path fill="#d2d6fc" d="M46.967 108.327a7.7 7.7 0 0 1 1.739-1.632l.168-.129-.064-.2c-4.678-14.905-5.995-28.679-7.517-44.627l-.18-1.88 9.526-8.865a973.255 973.255 0 0 1-.215 11.348C50.2 71.928 50 80.985 50.62 90a11.582 11.582 0 0 0 .624 2.665A11.689 11.689 0 0 1 51.8 94.9a38.433 38.433 0 0 1 0 5.287 34.978 34.978 0 0 0 .054 5.8c0 .672-.834 1.23-1.647 1.359a11.13 11.13 0 0 1-3.173.991s-.052 0-.074 0" data-name="Path 425"></path><path fill="#6a3ab5" d="M50.328 51.7c-.047 3.666-.128 7.2-.207 10.626-.219 9.6-.427 18.668.2 27.7a11.864 11.864 0 0 0 .638 2.735 11.558 11.558 0 0 1 .546 2.172 38.148 38.148 0 0 1 0 5.241 35.691 35.691 0 0 0 .051 5.808c-.022.524-.73.958-1.389 1.061l-.073.012-.068.028a17.394 17.394 0 0 1-2.284.826 14.973 14.973 0 0 1 1.149-.97l.335-.259-.128-.4c-4.668-14.873-5.981-28.629-7.5-44.557l-.167-1.738Zm.622-1.406L40.8 59.735c1.6 16.684 2.837 31.148 7.725 46.719-.745.577-2.281 1.84-1.807 2.115a.664.664 0 0 0 .327.064 11.556 11.556 0 0 0 3.219-.994c.933-.147 1.91-.794 1.9-1.7-.437-3.161.288-7.823-.058-11.076-.167-1.567-1.071-3.252-1.183-4.884-.867-12.6-.121-25.037.03-39.691" data-name="Path 426"></path><path fill="#573095" d="M48.948 49.906c4.609 0 4.884 37.957 5.73 50.777 0 0-10.094 7.577-19.273.658l-.67-22.359-.665-27.441Z" data-name="Path 427"></path><path fill="none" stroke="#573095" stroke-miterlimit="10" stroke-width=".609" d="M48.948 49.906c4.609 0 4.884 37.957 5.73 50.777 0 0-10.094 7.577-19.273.658l-.67-22.359-.665-27.441Z" data-name="Path 428"></path><path fill="#573095" d="m48.948 49.906-2.191 2.035c4.609.006 4.6 47.921.851 49.878a20.132 20.132 0 0 1-4.6 2.4c6.394.423 11.674-3.538 11.674-3.538-.846-12.821-1.12-50.773-5.73-50.777" data-name="Path 429"></path><path fill="none" stroke="#573095" stroke-miterlimit="10" stroke-width=".609" d="m48.948 49.906-2.191 2.035c4.609.006 4.6 47.921.851 49.878a20.132 20.132 0 0 1-4.6 2.4c6.394.423 11.674-3.538 11.674-3.538-.85-12.818-1.125-50.77-5.734-50.775Z" data-name="Path 430"></path><path fill="#ff5cab" d="M33.476 51.741c-.006.122-.011-.009 0 0" data-name="Path 431"></path><path fill="#ffa05e" d="M31.568 35.672c.09-1.7 3.109-4.894 3.252-6.135l.224.09c-.157 1.362-2.255 4.957-2.353 6.822-.547 2.936 1.209 4.367 1.926 6.478l-1.062-.338c-.3-2.544-2.567-3.8-1.987-6.917" data-name="Path 432"></path><path fill="#d98b22" d="M47.078 41.933s-3.213 2.907-5.441 2.467c0 0 3.94 1.332 5.407.8s.035-3.272.035-3.272" data-name="Path 433"></path><path fill="#e07428" d="m33.277 41.385.077.113a4.569 4.569 0 0 0 1.873 1.644l-1.55.118" data-name="Path 434"></path><path fill="#573095" d="m35.309 27.579-6.041 9.9s.837 7.485 6.8 4.954c8.266-3.506-.763-14.858-.763-14.858" data-name="Path 435"></path><path fill="none" stroke="#573095" stroke-miterlimit="10" stroke-width=".609" d="m35.309 27.579-6.041 9.9s.837 7.485 6.8 4.954c8.27-3.503-.759-14.854-.759-14.854Z" data-name="Path 436"></path><path fill="#a2acf8" d="M53.551 72.437a1 1 0 0 1-.186-.236 66.376 66.376 0 0 0-6.1-7.807c-4.747-5.518-10.126-11.773-13.584-21.557a28.231 28.231 0 0 0-.869-2.128c-1.422-3.232-2.368-5.379 3.109-13.652 1.828 1.738 12.764 12.279 15.16 18.12.054.13.1.258.148.382 1.573 4.4 2.444 17.489 2.56 25.375a3.126 3.126 0 0 1-.242 1.5" data-name="Path 437"></path><path fill="#6a3ab5" d="M35.978 27.528c2.416 2.312 12.548 12.209 14.828 17.765q.078.188.142.368c1.562 4.375 2.427 17.415 2.543 25.277a4.965 4.965 0 0 1-.05.818A69.6 69.6 0 0 0 47.5 64.2c-4.732-5.5-10.092-11.733-13.53-21.465a29.61 29.61 0 0 0-.877-2.15c-1.414-3.21-2.281-5.179 2.885-13.058m-.106-.937C28.968 36.911 31.69 38.1 33.4 42.94c5.2 14.731 14.892 21.677 19.708 29.424.174.28.327.4.456.4.359 0 .544-.909.531-1.833-.106-7.194-.922-20.832-2.578-25.473-.046-.129-.1-.26-.151-.394-2.66-6.484-15.494-18.471-15.494-18.471" data-name="Path 438"></path><path fill="none" stroke="#573095" stroke-linecap="round" stroke-miterlimit="10" stroke-width=".606" d="M33.937 36.006s3.944 8.217 8.053 13.054a50.739 50.739 0 0 1 6.526 9.965" data-name="Path 439"></path><path fill="none" stroke="#573095" stroke-linecap="round" stroke-miterlimit="10" stroke-width=".606" d="M35.469 34.877s7.976 8.9 10.776 11.776" data-name="Path 440"></path><path fill="#d2d6fc" d="M41.378 57.628a.222.222 0 0 1-.086-.023 1.4 1.4 0 0 0-.565-.1l-.405.012a4.3 4.3 0 0 1-2.207-1.111 8.87 8.87 0 0 1-1.389-1.7 25.82 25.82 0 0 1-8.534-9.064c-.256-.459.365-3.006 1.371-5.649l3.192 3.207-.606.922.086.118a37.659 37.659 0 0 1 3.021 5.092 17.5 17.5 0 0 0 2.468 3.933 1.241 1.241 0 0 0 .722.378c.1-.006.157-.009.214-.009a3.931 3.931 0 0 1 1.558.439 3.964 3.964 0 0 0 1.436.423.8.8 0 0 1 .536.142h-.134a3.982 3.982 0 0 0-.918.117l-.871.18.29.281a4.616 4.616 0 0 0 .853.632 4.951 4.951 0 0 1 .777.557.768.768 0 0 1 .218.859c-.068.179-.172.253-.212.253a4.164 4.164 0 0 0-.392-.2l-.227-.1-.062.242s-.046.165-.134.165" data-name="Path 441"></path><path fill="#6a3ab5" d="m29.643 40.376 2.841 2.854-.429.655-.161.244.172.237a37.452 37.452 0 0 1 3 5.066 17.508 17.508 0 0 0 2.513 3.992 1.417 1.417 0 0 0 .917.43c.053 0 .105-.006.156-.006a3.747 3.747 0 0 1 1.475.421 7.4 7.4 0 0 0 .795.314l-.311.064-.789.162.581.559a4.762 4.762 0 0 0 .889.66 4.872 4.872 0 0 1 .746.535.55.55 0 0 1 .2.457.557.557 0 0 1-.071.244c-.146-.075-.288-.137-.288-.137l-.479-.167-.1.423a1.685 1.685 0 0 0-.578-.086c-.083 0-.166 0-.242.007h-.222a4.143 4.143 0 0 1-2.006-1.055A8.57 8.57 0 0 1 36.9 54.59l-.05-.074-.074-.049a25.283 25.283 0 0 1-8.4-8.926c-.179-.39.3-2.552 1.267-5.165m-.161-.761c-.962 2.465-1.828 5.5-1.474 6.131a25.56 25.56 0 0 0 8.541 9.076 8.919 8.919 0 0 0 1.423 1.743 4.569 4.569 0 0 0 2.214 1.157.871.871 0 0 0 .134.009c.116 0 .258-.011.4-.011a1.169 1.169 0 0 1 .48.079.43.43 0 0 0 .172.04c.261 0 .339-.326.339-.326a4.191 4.191 0 0 1 .39.2.247.247 0 0 0 .087.017c.386 0 .768-.919.133-1.483s-1.057-.647-1.621-1.184c.524-.107.887-.194 1.468-.3.427-.077.229-.458-.509-.478-.968-.026-1.868-.863-3-.863-.063 0-.127 0-.191.009h-.024a1.11 1.11 0 0 1-.567-.311c-1.885-2.026-2.693-5.164-5.472-9l.619-.944Z" data-name="Path 442"></path><path fill="#d2d6fc" d="M55.372 46.7c-.162-3.229.365-2.686-.761-2.412l-4.309.464.3 5.645c-1.142 4.709-.732 7.935-1.72 10.6 0 0-.083.31-.247.362-1.32.422-1.909 1.8-2.963 2.273-.761.339-.8.824-.327.718a4.569 4.569 0 0 0 1.783-.823c-.354.8-.9 1.592-1.311 2.434-.452.929.5 1.777.858 1.434a4.7 4.7 0 0 1 .325-.373s.312.434.655.077c.264-.286.812-.385 1.031-.521a5.178 5.178 0 0 0 1.814-2.166 10.7 10.7 0 0 0 .806-2.741c.044-.239.068-.481.1-.722a27.436 27.436 0 0 0 3.836-10.92 18.138 18.138 0 0 0 .128-3.326" data-name="Path 443"></path><path fill="none" stroke="#6a3ab5" stroke-miterlimit="10" stroke-width=".477" d="M55.372 46.7c-.162-3.229.365-2.686-.761-2.412l-4.309.464.3 5.645c-1.142 4.709-.732 7.935-1.72 10.6 0 0-.083.31-.247.362-1.32.422-1.909 1.8-2.963 2.273-.761.339-.8.824-.327.718a4.569 4.569 0 0 0 1.783-.823c-.354.8-.9 1.592-1.311 2.434-.452.929.5 1.777.858 1.434a4.7 4.7 0 0 1 .325-.373s.312.434.655.077c.264-.286.812-.385 1.031-.521a5.178 5.178 0 0 0 1.814-2.166 10.7 10.7 0 0 0 .806-2.741c.044-.239.068-.481.1-.722a27.436 27.436 0 0 0 3.836-10.92 18.138 18.138 0 0 0 .13-3.329Z" data-name="Path 444"></path><path fill="#573095" d="m48.35 34.681 1.232 8.7a2.355 2.355 0 0 0 2.226 2.155c1.688.038 3.861-.314 3.886-2.357a35.586 35.586 0 0 0-2.058-12.6c-.409-1.114-1.54-1.413-2.878-2.262-.217-.137-.145 1.163-.388 1.35a5.467 5.467 0 0 0-2.019 5.015" data-name="Path 445"></path><path fill="none" stroke="#573095" stroke-miterlimit="10" stroke-width=".609" d="m48.35 34.681 1.232 8.7a2.355 2.355 0 0 0 2.226 2.155c1.688.038 3.861-.314 3.886-2.357a35.586 35.586 0 0 0-2.058-12.6c-.409-1.114-1.54-1.413-2.878-2.262-.217-.137-.145 1.163-.388 1.35a5.467 5.467 0 0 0-2.02 5.014Z" data-name="Path 446"></path><path fill="#6a3ab5" d="M47.934 21.151s-2.525.62-1.777 4.065l-.189.461s-2.559.7-2.083 5.034c0 0-3.13 1.936-1.178 5.041s5.95.342 5.473-2.353c0 0 5-1.3 2.129-5.078 0 0 6.244-2.287 2.411-8.593Z" data-name="Path 447"></path></g></g></svg>