<svg xmlns="http://www.w3.org/2000/svg" viewBox="0.04 0 56 80.04"><defs><clipPath id="a"><path fill="none" d="M0 0h56.05v80.047H0z" data-name="Rectangle 21"></path></clipPath></defs><g data-name="Vector Smart Object"><g data-name="Group 50"><g clip-path="url(#a)" data-name="Group 49"><path fill="#4d4d4d" d="M43.879 70.259c0 .028 0 .055-.006.082 0-.027 0-.054.006-.082" data-name="Path 468"></path><path fill="#381077" d="M47.98 74.188a2.754 2.754 0 0 0 .7-1.939 29.675 29.675 0 0 0-.875-3.657l4.5-.06c0 1.1-.005 1.014.038 2.139a21.673 21.673 0 0 0 .38 2.746l.352 1.157a1.569 1.569 0 0 1-.341 1.707 45.593 45.593 0 0 1-4.491 3.275 4.532 4.532 0 0 1-2.417.466c-1.145-.178-2.433-.958-2.294-1.71.324-1.739 3.169-2.866 4.447-4.124" data-name="Path 469"></path><path fill="#381077" d="M34.223 73.051a2.345 2.345 0 0 1-.471-1.894c.625-1.269 5.457-2.467 5.7-3.114a6.576 6.576 0 0 0 .482-1.681 10.857 10.857 0 0 0-.4-2.724l4.046.2a14.728 14.728 0 0 0-.518 2.831 15.783 15.783 0 0 0 .655 2.257 3.937 3.937 0 0 1 .18.9c-.01.507-.007 1.16-.339 1.294-1.7.69-5.578 1.948-7.328 2.45-.314.091-1.543.254-2-.52" data-name="Path 470"></path><path fill="#6a3ab4" d="m52.516 62.672-.548-1.54-.545-3.332.187-1.42 1.5-11.995-.773-4.509-11.618-3.954s-.87 4.308-.983 5.106-.543 11.094-.543 11.094l-.113 2.444s-.048 2.078-.127 4.545a10.958 10.958 0 0 0 .022 1.414c.091.776-.44 4.411-.251 4.79a14.315 14.315 0 0 1 .807 1.381c.051.466 0 .554 0 .554s.216.93 2.2.835a2 2 0 0 0 1.631-.682 1.846 1.846 0 0 0 .151-.632c.034-.264.641-.774.667-1.03.155-1.54-.276-3.858-.185-4.573a19.932 19.932 0 0 0-.02-2.217l.5-3.359.607-2.154-.211-3.687.641 6.97.9 3.384s.213 1.879.475 3.857c.053.4.147 1.72.266 2.42.147.856-.058 3.693.36 4.148a3.806 3.806 0 0 1 .734 1.154c.052.241.245.871.245.871s.568.982 2.506.548 1.8-1.292 1.8-1.292a6.9 6.9 0 0 1 .467-1.221 2.878 2.878 0 0 0 .253-1.758c-.152-.379-.836-3.9-.836-3.9Z" data-name="Path 471"></path><path fill="none" stroke="#6a3ab4" stroke-miterlimit="10" stroke-width=".502" d="m52.516 62.672-.548-1.54-.545-3.332.187-1.42 1.5-11.995-.773-4.509-11.618-3.954s-.87 4.308-.983 5.106-.543 11.094-.543 11.094l-.113 2.444s-.048 2.078-.127 4.545a10.958 10.958 0 0 0 .022 1.414c.091.776-.44 4.411-.251 4.79a14.315 14.315 0 0 1 .807 1.381c.051.466 0 .554 0 .554s.216.93 2.2.835a2 2 0 0 0 1.631-.682 1.846 1.846 0 0 0 .151-.632c.034-.264.641-.774.667-1.03.155-1.54-.276-3.858-.185-4.573a19.932 19.932 0 0 0-.02-2.217l.5-3.359.607-2.154-.211-3.687.641 6.97.9 3.384s.213 1.879.475 3.857c.053.4.147 1.72.266 2.42.147.856-.058 3.693.36 4.148a3.806 3.806 0 0 1 .734 1.154c.052.241.245.871.245.871s.568.982 2.506.548 1.8-1.292 1.8-1.292a6.9 6.9 0 0 1 .467-1.221 2.878 2.878 0 0 0 .253-1.758c-.152-.379-.836-3.9-.836-3.9Z" data-name="Path 472"></path><path fill="#381077" d="M35.847 40.656a8.916 8.916 0 0 1 1.162-2.149 2.817 2.817 0 0 0 .184-1.325c-.192-1.724-.6-4.495.08-6.129.311-.745.865-2.507.865-2.507l.828-7.642 3.282 2.287-1.091 5.057L38.5 38.3s.18.372.313.613a5.372 5.372 0 0 1 .132 2.83 7.076 7.076 0 0 1-.289.753.327.327 0 0 1-.366-.1c-.143-.185.009-1.471-.338-1.735-.208-.14-.163-.181-.309-.131a1.58 1.58 0 0 0-.506.921 7.388 7.388 0 0 0 .408 1.146 1.652 1.652 0 0 1 .441.389c.081.162-.066.469-.066.469a4.243 4.243 0 0 1-1.141-.307 4.968 4.968 0 0 1-.929-2.487" data-name="Path 473"></path><path fill="#6a3ab4" d="M45.394 24.207s-1.189-2.975-1.293-3.074a18.319 18.319 0 0 1-.326-4.569l-.219.14c-.446.132-1.157.342-1.68.49-.363.1-.881.256-1.346.4a3.214 3.214 0 0 0-1.541 1.118 6.635 6.635 0 0 0-.395 1.311l-.382 2-.565 5.346s-.6 3.629-.782 4.381a21.4 21.4 0 0 0-.448 3.89c.1.364.242.425.242.425l-.121 1.061a4.44 4.44 0 0 0 1.378.8 3.083 3.083 0 0 0 1.313-.155l.283-.97s.243.062.425-.323a25.316 25.316 0 0 0 .566-2.708l-.157-1.648-.561-6.988-.3-1.452.318 1.407.718 8.578-1.6 8.757s1.019 2.417 5.309 4.121Z" data-name="Path 474"></path><path fill="none" stroke="#6a3ab4" stroke-miterlimit="10" stroke-width=".502" d="M45.394 24.207s-1.189-2.975-1.293-3.074a18.319 18.319 0 0 1-.326-4.569l-.219.14c-.446.132-1.157.342-1.68.49-.363.1-.881.256-1.346.4a3.214 3.214 0 0 0-1.541 1.118 6.635 6.635 0 0 0-.395 1.311l-.382 2-.565 5.346s-.6 3.629-.782 4.381a21.4 21.4 0 0 0-.448 3.89c.1.364.242.425.242.425l-.121 1.061a4.44 4.44 0 0 0 1.378.8 3.083 3.083 0 0 0 1.313-.155l.283-.97s.243.062.425-.323a25.316 25.316 0 0 0 .566-2.708l-.157-1.648-.561-6.988-.3-1.452.318 1.407.718 8.578-1.6 8.757s1.019 2.417 5.309 4.121Z" data-name="Path 475"></path><path fill="#6a3ab4" d="M43.211 28.876c-.121 4.427.728 14.976-.06 17.28a7.209 7.209 0 0 0 2.08.748c2.77.916 7.694 0 7.694 0L53 45.051a2.6 2.6 0 0 1-.524-.184 1.041 1.041 0 0 1-.4-.328l-.121-.2-.081-.565a1.366 1.366 0 0 1-.353-.627c-.065-.344-.19-3.832-.19-3.832l-.187-2.324-.235-1.9-1.21-5.81 1.256 5.948.374 3.882s.039 3.639.141 4.021a1.6 1.6 0 0 0 .384.657l.091.567.121.191a1.886 1.886 0 0 0 1.082.525c.767.146 1.36.013 1.456-.383.035-.146.1-.284.564-.648.388-.3.456-2.63.62-4.568a8.066 8.066 0 0 0-.147-1.353c-.112-.941-.326-1.962-.326-1.962s-.518-10.291-.787-11.487a6.138 6.138 0 0 0-1.23-2.7c-1.214-1.071-3.42-3.008-3.42-3.008L48.467 17.4l-.134-.108v.137s.8 3.151-3.863 4.016c-.19.035-.722.9-.722.9s-.481 3.5-.541 6.53" data-name="Path 476"></path><path fill="none" stroke="#6a3ab4" stroke-miterlimit="10" stroke-width=".502" d="M43.211 28.876c-.121 4.427.728 14.976-.06 17.28a7.209 7.209 0 0 0 2.08.748c2.77.916 7.694 0 7.694 0L53 45.051a2.6 2.6 0 0 1-.524-.184 1.041 1.041 0 0 1-.4-.328l-.121-.2-.081-.565a1.366 1.366 0 0 1-.353-.627c-.065-.344-.19-3.832-.19-3.832l-.187-2.324-.235-1.9-1.21-5.81 1.256 5.948.374 3.882s.039 3.639.141 4.021a1.6 1.6 0 0 0 .384.657l.091.567.121.191a1.886 1.886 0 0 0 1.082.525c.767.146 1.36.013 1.456-.383.035-.146.1-.284.564-.648.388-.3.456-2.63.62-4.568a8.066 8.066 0 0 0-.147-1.353c-.112-.941-.326-1.962-.326-1.962s-.518-10.291-.787-11.487a6.138 6.138 0 0 0-1.23-2.7c-1.214-1.071-3.42-3.008-3.42-3.008L48.467 17.4l-.134-.108v.137s.8 3.151-3.863 4.016c-.19.035-.722.9-.722.9s-.477 3.5-.537 6.531Z" data-name="Path 477"></path><path fill="#381077" d="M51.366 42.505a17.86 17.86 0 0 1-6.6.194 8.053 8.053 0 0 1-5.283-3.39l.1-.794a8.4 8.4 0 0 0 5.221 3.518 15.249 15.249 0 0 0 6.535-.168Z" data-name="Path 478"></path><path fill="#381077" d="M53.034 45.046a4.366 4.366 0 0 0 1 .08c-.05.323-.1.818-.1.818a22.579 22.579 0 0 1 .226 3.285c-.118.554-1.153 2.029-1.574 2.092s-1.775.06-1.951-.453c-.033-.1.457-.933.554-1.543a9.986 9.986 0 0 0 .018-1.1c.022-.188-1.366 1.355-1.755.958-.3-.1 1.091-1.876 1.091-1.876l1.612-1.852-.039-.862a2.48 2.48 0 0 0 .913.451" data-name="Path 479"></path><path fill="#573095" d="M39.437 38.6a2.2 2.2 0 0 1-.259-1c0-.555.333-2.591.481-4.517s-.555-5.331-.592-9.848a7.826 7.826 0 0 1 3.147-6.553l1.513-.1a.056.056 0 0 1 .02.1 4.415 4.415 0 0 0-1.126 3.411c.334 1.926 3.954 1.889 5.434 1.037s.477-3.645.477-3.645 3.861 1.758 4.346 4.062c-3.073-.261-3.662 3.905-3.741 5.8a11.079 11.079 0 0 0 .963 4.183l.861 3.7.439 6.81s-5 1.222-8.072-.444-3.887-3-3.887-3" data-name="Path 480"></path><path fill="none" stroke="#573095" stroke-miterlimit="10" stroke-width=".502" d="M39.437 38.6a2.2 2.2 0 0 1-.259-1c0-.555.333-2.591.481-4.517s-.555-5.331-.592-9.848a7.826 7.826 0 0 1 3.147-6.553l1.513-.1a.056.056 0 0 1 .02.1 4.415 4.415 0 0 0-1.126 3.411c.334 1.926 3.954 1.889 5.434 1.037s.477-3.645.477-3.645 3.861 1.758 4.346 4.062c-3.073-.261-3.662 3.905-3.741 5.8a11.079 11.079 0 0 0 .963 4.183l.861 3.7.439 6.81s-5 1.222-8.072-.444-3.891-2.996-3.891-2.996Z" data-name="Path 481"></path><path fill="#6a3ab5" d="m39.761 32.8-.606 1.7.081 3.152 1.274 1.228.606-.182.3-4.486-.242-.364Z" data-name="Path 482"></path><path fill="#6a3ab5" d="M40.509 35.505c-.161-.084-1.475-1.091-1.475-1.091l.545-1.7 1.476 1.091a6.5 6.5 0 0 0-.546 1.7" data-name="Path 483"></path><path fill="#6a3ab5" d="m41.535 34.189-.447 1.8.118 3.3a9.754 9.754 0 0 0 1.5.995c.285.058.676-.411.676-.411l.271-4.442-.277-.365Z" data-name="Path 484"></path><path fill="#6a3ab5" d="M42.8 36.733c-.226-.077-1.846-.871-1.846-.871l.585-1.673 1.846.87s-.36 1.75-.585 1.674" data-name="Path 485"></path><path fill="#6a3ab5" d="m44.409 35.817-.322 4.795s.127.673.26.711a14.071 14.071 0 0 0 5.693.248c.23-.039.307-.656.307-.656V36.28a18.383 18.383 0 0 1-3.02.054 20.78 20.78 0 0 1-2.921-.517" data-name="Path 486"></path><path fill="#6a3ab5" d="M50.453 36.251a19.135 19.135 0 0 1-3.062.052 15.926 15.926 0 0 1-3.032-.662l-.3 1.577a17.815 17.815 0 0 0 3.332.782 17.5 17.5 0 0 0 3.284-.153Z" data-name="Path 487"></path><path fill="#6a3ab5" d="M39.772 24.417a10.4 10.4 0 0 0 2.977 2.3 18.991 18.991 0 0 0 4.488 2.009c.362.209.362-1.238 0-1.447a19.67 19.67 0 0 1-4.513-2.023c-2.461-1.475-2.952-2.287-2.952-2.287-.362-.208-.362 1.238 0 1.447" data-name="Path 488"></path><path fill="#6a3ab5" d="M39.933 26.685a12.4 12.4 0 0 0 2.976 2.3A21.6 21.6 0 0 0 47.4 31c.362.208.362-1.238 0-1.447a21.159 21.159 0 0 1-4.513-2.023 10.545 10.545 0 0 1-2.952-2.287c-.362-.209-.362 1.238 0 1.447" data-name="Path 489"></path><path fill="#6a3ab5" d="M40.169 29.02a10.945 10.945 0 0 0 2.977 2.3 17.664 17.664 0 0 0 4.294 1.815c.363.21.363-1.237 0-1.446a19 19 0 0 1-4.319-1.829 19.624 19.624 0 0 1-2.952-2.287c-.362-.209-.362 1.238 0 1.447" data-name="Path 490"></path><path fill="#6a3ab5" d="M40.158 31.017A13.867 13.867 0 0 0 43.1 33.44a24.638 24.638 0 0 0 4.443 1.844c.358.207.358-1.225 0-1.432a16.264 16.264 0 0 1-4.468-1.858 12.043 12.043 0 0 1-2.922-2.409c-.359-.206-.359 1.225 0 1.432" data-name="Path 491"></path><path fill="#d2d6fc" d="M44.4 21.106c-.077 0-.181-.159-.256-.275a1.381 1.381 0 0 0-.169-.227 6.934 6.934 0 0 1-.459-1.477 9.912 9.912 0 0 1 .171-1.42l4.37-3.25a11.462 11.462 0 0 0 .234 4.366c-.309.306-1.617 1.467-2.482 2.224a6.729 6.729 0 0 0-.416-.013 6.615 6.615 0 0 0-.984.072Z" data-name="Path 492"></path><path fill="#6a3ab5" d="M47.843 14.835a11.252 11.252 0 0 0 .237 3.942c-.366.348-1.384 1.255-2.335 2.089-.088 0-.209-.01-.355-.01a6.582 6.582 0 0 0-.962.068 1.439 1.439 0 0 1-.137-.189 1.423 1.423 0 0 0-.173-.233 7.168 7.168 0 0 1-.428-1.4 9.609 9.609 0 0 1 .158-1.3Zm.431-.763-4.752 3.535a11.368 11.368 0 0 0-.184 1.542 6.245 6.245 0 0 0 .509 1.581c.154.155.3.554.55.554h.037a6.517 6.517 0 0 1 .956-.07c.293 0 .477.02.477.02s2.656-2.326 2.63-2.378c-.654-1.328-.223-4.781-.223-4.781" data-name="Path 493"></path><path fill="#d2d6fc" d="M44.21 18.242a1.532 1.532 0 0 1-.792-.2 1.3 1.3 0 0 1-.614-1.225l-.663-4.76a5.819 5.819 0 0 1 .412-2.195 4.38 4.38 0 0 1 1.583-1.485 2.919 2.919 0 0 1 1.264-.283 5.3 5.3 0 0 1 1.277.184 3.542 3.542 0 0 1 2.109 1.257 5.121 5.121 0 0 1 .407 2.422 19.732 19.732 0 0 1-1.626 4.225 17.6 17.6 0 0 1-2.492 1.9 2.706 2.706 0 0 1-.862.157" data-name="Path 494"></path><path fill="#6a3ab5" d="M45.4 8.271a5.143 5.143 0 0 1 1.234.178 3.376 3.376 0 0 1 2.008 1.189 4.992 4.992 0 0 1 .375 2.3 20.025 20.025 0 0 1-1.6 4.14A17.09 17.09 0 0 1 45 17.917a2.379 2.379 0 0 1-.794.148 1.369 1.369 0 0 1-.7-.174 1.132 1.132 0 0 1-.527-1.051l.005-.046-.006-.046-.658-4.686a5.512 5.512 0 0 1 .378-2.1 4.215 4.215 0 0 1 1.51-1.422 2.759 2.759 0 0 1 1.192-.269m0-.355a3.107 3.107 0 0 0-1.333.3 4.485 4.485 0 0 0-1.657 1.547 6.266 6.266 0 0 0-.441 2.321l.662 4.714a1.5 1.5 0 0 0 .7 1.4 1.714 1.714 0 0 0 .882.224 2.7 2.7 0 0 0 .96-.187 18.956 18.956 0 0 0 2.541-1.95 19.9 19.9 0 0 0 1.657-4.31 5.208 5.208 0 0 0-.441-2.543A3.648 3.648 0 0 0 46.717 8.1a5.47 5.47 0 0 0-1.32-.189" data-name="Path 495"></path><path fill="#6a3ab5" d="M41.873 10.311a6.024 6.024 0 0 0 1.606.784 4.969 4.969 0 0 0 2.16-.193l.551-.122.739-.077a10.741 10.741 0 0 0-.039 1.136 2.681 2.681 0 0 0 .51 1.451s.587-.91.931-.641-.015 1.109-.015 1.109l.122.79.972-1.944s.087-1.251.061-1.824a7.6 7.6 0 0 0-.19-1.723c-.054-.151-.454-.3-.6-.411-.382-.3-1.078-1.108-1.2-1.118a104.49 104.49 0 0 0-2.442-.09 3.222 3.222 0 0 0-2.37 1.216 5.371 5.371 0 0 0-.792 1.657" data-name="Path 496"></path><path fill="#6a3ab4" d="M46.966 13.632a8.891 8.891 0 0 1-.374 1.9c-.243.532-.9 1.784-.9 1.784l.424-.128a15.31 15.31 0 0 0 .78-1.453 7.634 7.634 0 0 0 .407-1.6Z" data-name="Path 497"></path><path fill="none" stroke="#6a3ab4" stroke-miterlimit="10" stroke-width=".539" d="M46.966 13.632a8.891 8.891 0 0 1-.374 1.9c-.243.532-.9 1.784-.9 1.784l.424-.128a15.31 15.31 0 0 0 .78-1.453 7.634 7.634 0 0 0 .407-1.6Z" data-name="Path 498"></path><path fill="#6a3ab4" d="M42.552 16.938a4.2 4.2 0 0 0 2.5.806c.189-.129.636-.424.636-.424l.992-.213s-1.1.733-1.484 1.029a1.171 1.171 0 0 1-.485.143 3.461 3.461 0 0 1-2.121-.779Z" data-name="Path 499"></path><path fill="#6a3ab4" d="M46.649 13.237c-1.548-.475-3.621-1.41-5.214-1.745a.977.977 0 0 1-.5-.915c.346-1.309 1.433-3.95 4.185-4.211.669-.064 4.32 1.212 4.822 1.848 1.183 1.5.764 3.463.492 4.663 0 0 .073.432.168.813a8.837 8.837 0 0 1-.4 1.831c-.1.393-.677.4-.677.4s-1.556-.6-1.947-1.383c-.26-.455-.707-1.235-.934-1.3" data-name="Path 500"></path><path fill="none" stroke="#6a3ab4" stroke-miterlimit="10" stroke-width=".539" d="M46.649 13.237c-1.548-.475-3.621-1.41-5.214-1.745a.977.977 0 0 1-.5-.915c.346-1.309 1.433-3.95 4.185-4.211.669-.064 4.32 1.212 4.822 1.848 1.183 1.5.764 3.463.492 4.663 0 0 .073.432.168.813a8.837 8.837 0 0 1-.4 1.831c-.1.393-.677.4-.677.4s-1.556-.6-1.947-1.383c-.255-.451-.702-1.231-.929-1.301Z" data-name="Path 501"></path><path fill="#441090" d="M3.055 66.729s-.3 1.292-.326 1.771 4.338 3 6.148 4.087 4.564-.366 4.234-1.456c-.75-2.476-5.887-5.288-5.887-5.288Z" data-name="Path 502"></path><path fill="#441090" d="m14.954 61.23 2.71-1.2 1.084.876s5.333 1.678 5.633 2.738-.255 3.19-1.841 2.848-8.487-2.594-8.776-3.069 1.19-2.189 1.19-2.189" data-name="Path 503"></path><path fill="#381077" d="M3.2 65.852s-.439 1.864-.469 2.344 4.337 3 6.148 4.086 4.564-.365 4.234-1.456c-.751-2.475-5.887-5.288-5.887-5.288Z" data-name="Path 504"></path><path fill="#381077" d="m14.954 60.926 2.71-1.2 1.084.877s5.333 1.677 5.633 2.737-.255 3.191-1.841 2.848-8.487-2.593-8.776-3.068 1.19-2.19 1.19-2.19" data-name="Path 505"></path><path fill="#441090" d="m2.929 64.32 2.027-8.957 1.509-6.391s-.23-4.16-.65-7.913c-.151-1.336-.849-3.978-.837-4.8.038-3.122.768-4.238.768-4.238L17.555 28s.645 4.381.759 5.191.541 11.279.541 11.279l.11 2.487s.925 9.98.7 11.73a7.948 7.948 0 0 1-.305 1.445c-.2.574-.333 1.583-.825 1.777s-1.132.438-1.761.657a3.647 3.647 0 0 1-2.738-.533l-.053-1.369-.707-1.6.08-4.817.411-4.633-.789-3.807.212-3.748-.657 7.312-1.2 3.346S9.578 63.054 9.7 64.32c.059.611-.462.944-.622 1.517a9.454 9.454 0 0 1-.367 1.069 8.4 8.4 0 0 1-2.585 1.025 7.748 7.748 0 0 1-2.541-.652c-.215-.086-.416-.757-.416-.757Z" data-name="Path 506"></path><path fill="#573095" d="M5.32 32.1a2.339 2.339 0 0 0-2.161.78.319.319 0 0 0-.054.114 3.23 3.23 0 0 1-.467-.678c-.178-.367-.774-.709-.951-.949a15.675 15.675 0 0 1-.6-2.411C.939 28.091.65 26.879.65 26.879a5.184 5.184 0 0 1-.3-2.711c.211-.661 1.243-3.311 2.134-5.156.522-1.087 1.347-3.346 1.879-4.37a15.225 15.225 0 0 1 2.792-2.894c.371-.353 3.105-2.527 3.105-2.527l3.566-.467a16.05 16.05 0 0 1 2.314.284 5.661 5.661 0 0 1 2.179 1.081c.532.521 1.1 2.7 1.2 3.979s.622 5.368.775 6.368.952 1.217 1.921 2.809c.419.689-.414 2.455-1.176 2.633-.863.2-3.394-2.7-3.394-2.7l.655-6.218-.975 8.787.221.8.951 6.682a15.5 15.5 0 0 1-2.637 3.4c-.136.117-1.012.6-1.166.71-.134.093-.45-10.661-.45-10.661s.4 10.755.214 10.847c-3.075 1.506-7.942 1.7-9.449.879-.5-.27.578-7.279.578-7.279L5.511 29.9l-.076-1.219-.553-4.19 2.723-3.549-3.58 4.673s.853 2.623 1.236 4.542c.044.219-.174.782-.137.967.113.563.189.942.2.971" data-name="Path 507"></path><path fill="none" stroke="#573095" stroke-miterlimit="10" stroke-width=".502" d="M5.32 32.1a2.339 2.339 0 0 0-2.161.78.319.319 0 0 0-.054.114 3.23 3.23 0 0 1-.467-.678c-.178-.367-.774-.709-.951-.949a15.675 15.675 0 0 1-.6-2.411C.939 28.091.65 26.879.65 26.879a5.184 5.184 0 0 1-.3-2.711c.211-.661 1.243-3.311 2.134-5.156.522-1.087 1.347-3.346 1.879-4.37a15.225 15.225 0 0 1 2.792-2.894c.371-.353 3.105-2.527 3.105-2.527l3.566-.467a16.05 16.05 0 0 1 2.314.284 5.661 5.661 0 0 1 2.179 1.081c.532.521 1.1 2.7 1.2 3.979s.622 5.368.775 6.368.952 1.217 1.921 2.809c.419.689-.414 2.455-1.176 2.633-.863.2-3.394-2.7-3.394-2.7l.655-6.218-.975 8.787.221.8.951 6.682a15.5 15.5 0 0 1-2.637 3.4c-.136.117-1.012.6-1.166.71-.134.093-.45-10.661-.45-10.661s.4 10.755.214 10.847c-3.075 1.506-7.942 1.7-9.449.879-.5-.27.578-7.279.578-7.279L5.511 29.9l-.076-1.219-.553-4.19 2.723-3.549-3.58 4.673s.853 2.623 1.236 4.542c.044.219-.174.782-.137.967l.196.976Z" data-name="Path 508"></path><path fill="#d2d6fc" d="M6.162 38.15a4.7 4.7 0 0 1-1.887-1.572 21.931 21.931 0 0 1-.586-3.235l-.234-.538a2.014 2.014 0 0 1 1.46-.551l.051.29 2.1 1.462a8.882 8.882 0 0 1 1.472 1.346.166.166 0 0 1-.094.025 3.877 3.877 0 0 1-1.218-.455 1.309 1.309 0 0 0-.462-.187H6.67l-.066.082-.053.078.035.1a2.573 2.573 0 0 1 .065.266 4.6 4.6 0 0 0 .232.819 5.289 5.289 0 0 0 .7 1.046 3.313 3.313 0 0 1 .224.3c-.033.3-1.081.661-1.639.721Z" data-name="Path 509"></path><path fill="#6a3ab5" d="m4.768 32.438.011.065.026.144.121.085 2.024 1.41a15.012 15.012 0 0 1 1.145.977 7.872 7.872 0 0 1-.789-.355 1.33 1.33 0 0 0-.542-.206h-.2l-.106.155-.1.175.06.17c.016.045.033.132.057.239a4.759 4.759 0 0 0 .242.85 5.364 5.364 0 0 0 .72 1.086l.147.187a2.981 2.981 0 0 1-1.419.549 4.785 4.785 0 0 1-1.73-1.469 21.533 21.533 0 0 1-.57-3.181l-.006-.053-.022-.048-.166-.371a1.822 1.822 0 0 1 1.1-.411m.177-.361a2.156 2.156 0 0 0-1.7.693l.267.6a23.717 23.717 0 0 0 .6 3.292 4.612 4.612 0 0 0 2.046 1.67h.021c.425-.046 1.751-.391 1.79-.939.011-.1-.68-.8-.927-1.378a9.866 9.866 0 0 1-.294-1.078c-.006-.013 0-.019.012-.019a7.625 7.625 0 0 0 1.681.642.28.28 0 0 0 .264-.12c.262-.176-1.541-1.574-1.541-1.574L5.129 32.44l-.064-.361h-.12" data-name="Path 510"></path><path fill="#441090" d="M17.537 33.338c-.147.376.007.55.344.39l5.842-2.787a2.077 2.077 0 0 0 .876-.971l3.31-8.506c.146-.376-.009-.552-.347-.388l-5.843 2.786a2.024 2.024 0 0 0-.871.969Z" data-name="Path 511"></path><path fill="#d2d6fc" d="M25.191 28.811a1.589 1.589 0 0 1-.381-.933 5.259 5.259 0 0 1 .854-2.558.761.761 0 0 1 .3-.047c.277 0 .582.1.591.249a6.319 6.319 0 0 1-.178 2.438 2.287 2.287 0 0 1-1.183.851" data-name="Path 512"></path><path fill="#6a3ab5" d="M25.961 25.451a1.011 1.011 0 0 1 .414.08 6.233 6.233 0 0 1-.162 2.354 1.973 1.973 0 0 1-.966.712 1.492 1.492 0 0 1-.261-.735 5.524 5.524 0 0 1 .749-2.38.657.657 0 0 1 .226-.031m0-.355a.929.929 0 0 0-.378.066 5.084 5.084 0 0 0-.95 2.733 1.67 1.67 0 0 0 .513 1.119s1.1-.35 1.389-.979a7.194 7.194 0 0 0 .194-2.524c-.018-.293-.424-.415-.768-.415" data-name="Path 513"></path><path fill="#6a3ab4" d="M14.566 11.63c.191.665.437 1.825.437 1.825l1.094.152a7.181 7.181 0 0 0-.77-2.354c-.5-.672-1.286-1.915-1.286-1.915l.03.44s.3 1.188.495 1.852" data-name="Path 514"></path><path fill="none" stroke="#6a3ab4" stroke-miterlimit="10" stroke-width=".502" d="M14.566 11.63c.191.665.437 1.825.437 1.825l1.094.152a7.181 7.181 0 0 0-.77-2.354c-.5-.672-1.286-1.915-1.286-1.915l.03.44s.302 1.188.495 1.852Z" data-name="Path 515"></path><path fill="#6a3ab4" d="M11.884 14.463 10.7 15.552a18.469 18.469 0 0 0-.943-2.214 4.15 4.15 0 0 1-.839-2.105 3.365 3.365 0 0 1 .9-1.7 4.8 4.8 0 0 0-.03 1.862 14.1 14.1 0 0 0 2.1 3.073" data-name="Path 516"></path><path fill="none" stroke="#6a3ab4" stroke-miterlimit="10" stroke-width=".502" d="M11.884 14.463 10.7 15.552a18.469 18.469 0 0 0-.943-2.214 4.15 4.15 0 0 1-.839-2.105 3.365 3.365 0 0 1 .9-1.7 4.8 4.8 0 0 0-.03 1.862 14.1 14.1 0 0 0 2.096 3.068Z" data-name="Path 517"></path><path fill="#fff" d="M12.74 14.593a6.248 6.248 0 0 0 1.649-.585 5.119 5.119 0 0 1-.764 1.677c-.2-.251-.527-.646-.885-1.092" data-name="Path 518"></path><path fill="#6a3ab5" d="M13.982 14.476a4.971 4.971 0 0 1-.381.785l-.42-.518a6.963 6.963 0 0 0 .8-.267m.754-1a5.553 5.553 0 0 1-2.45.949c.574.722 1.109 1.371 1.3 1.607a4.1 4.1 0 0 1 .058.566 2.145 2.145 0 0 1 .018-.547 5.235 5.235 0 0 0 1.073-2.575M13.645 16.6c.023.91.145 2.628.145 2.628s-.08-1.71-.145-2.628" data-name="Path 519"></path><path fill="#573095" d="m8.661 43.253.1 3.793s-.181.478-.269.491a5.971 5.971 0 0 1-.978-.1 3.95 3.95 0 0 1-1.3-.478c-.148-.057-.235-.587-.235-.587l.015-3.322.125-.292a1.73 1.73 0 0 0 1.284.659 2.112 2.112 0 0 0 1.261-.161" data-name="Path 520"></path><path fill="none" stroke="#573095" stroke-miterlimit="10" stroke-width=".502" d="m8.661 43.253.1 3.793s-.181.478-.269.491a5.971 5.971 0 0 1-.978-.1 3.95 3.95 0 0 1-1.3-.478c-.148-.057-.235-.587-.235-.587l.015-3.322.125-.292a1.73 1.73 0 0 0 1.284.659 2.112 2.112 0 0 0 1.258-.164Z" data-name="Path 521"></path><path fill="#441090" d="M6 42.733a2.043 2.043 0 0 0 1.363.651 2.573 2.573 0 0 0 1.3-.131l.166 1.2a3.312 3.312 0 0 1-1.5.185 2.494 2.494 0 0 1-1.5-.753Z" data-name="Path 522"></path><path fill="#d2d6fc" d="M12.171 13.53c-.862-.757-2.091-1.849-2.39-2.144a11.464 11.464 0 0 0 .235-4.366l4.369 3.25a9.928 9.928 0 0 1 .171 1.42 4.968 4.968 0 0 1-.868 1.172l-.091.1a.291.291 0 0 1-.131.042.272.272 0 0 1-.039 0 1.3 1.3 0 0 0-.194-.014 1.378 1.378 0 0 0-1.062.545" data-name="Path 523"></path><path fill="#6a3ab5" d="m10.227 7.4 3.995 2.972a10.191 10.191 0 0 1 .16 1.286 5.512 5.512 0 0 1-.821 1.082 1.842 1.842 0 0 0-.083.089h-.023a1.437 1.437 0 0 0-.222-.017 1.5 1.5 0 0 0-1.076.474c-.9-.791-1.822-1.613-2.167-1.941a11.249 11.249 0 0 0 .237-3.945M9.8 6.635s.431 3.453-.223 4.781c-.026.052 2.63 2.378 2.63 2.378a1.279 1.279 0 0 1 1.03-.632 1.116 1.116 0 0 1 .169.013.891.891 0 0 0 .129.012c.143 0 .152-.068.282-.2a4.8 4.8 0 0 0 .919-1.276 11.368 11.368 0 0 0-.184-1.542Z" data-name="Path 524"></path><path fill="#d2d6fc" d="M13.86 10.805a2.541 2.541 0 0 1-.89-.172 17.746 17.746 0 0 1-2.464-1.888A19.741 19.741 0 0 1 8.88 4.519 5.11 5.11 0 0 1 9.288 2.1 3.539 3.539 0 0 1 11.4.841a5.3 5.3 0 0 1 1.273-.184 2.923 2.923 0 0 1 1.261.284 4.38 4.38 0 0 1 1.583 1.485 5.82 5.82 0 0 1 .41 2.224l-.661 4.686a1.334 1.334 0 0 1-.614 1.27 1.532 1.532 0 0 1-.792.2" data-name="Path 525"></path><path fill="#6a3ab5" d="M12.674.834a2.746 2.746 0 0 1 1.187.269 4.214 4.214 0 0 1 1.51 1.423 5.494 5.494 0 0 1 .377 2.1l-.658 4.685-.005.046.005.043a1.136 1.136 0 0 1-.527 1.054 1.374 1.374 0 0 1-.7.174 2.386 2.386 0 0 1-.8-.148 17.071 17.071 0 0 1-2.413-1.835A20.057 20.057 0 0 1 9.056 4.5a5.006 5.006 0 0 1 .374-2.3 3.377 3.377 0 0 1 2.009-1.191 5.157 5.157 0 0 1 1.235-.175m0-.355a5.463 5.463 0 0 0-1.32.189 3.641 3.641 0 0 0-2.21 1.325A5.185 5.185 0 0 0 8.7 4.536a19.847 19.847 0 0 0 1.656 4.31A19.019 19.019 0 0 0 12.9 10.8a2.7 2.7 0 0 0 .96.187 1.714 1.714 0 0 0 .882-.224 1.5 1.5 0 0 0 .7-1.4l.658-4.717a6.245 6.245 0 0 0-.441-2.321A4.49 4.49 0 0 0 14.007.778a3.111 3.111 0 0 0-1.333-.3" data-name="Path 526"></path><path fill="#6a3ab5" d="M16.2 2.874a6.024 6.024 0 0 1-1.606.784 4.974 4.974 0 0 1-2.161-.193l-.55-.122-.739-.077a11.025 11.025 0 0 1 .037 1.134 2.681 2.681 0 0 1-.509 1.451s-.588-.91-.931-.641.015 1.109.015 1.109l-.122.79-.972-1.942S8.575 3.916 8.6 3.343a7.6 7.6 0 0 1 .19-1.723c.054-.151.454-.3.6-.411C9.772.913 10.468.1 10.594.091 10.767.077 12 .029 13.036 0a3.222 3.222 0 0 1 2.37 1.216 5.371 5.371 0 0 1 .794 1.658" data-name="Path 527"></path><path fill="#573095" d="M14 .188s-2.19-.055-3.057 1.161a7.55 7.55 0 0 0-.979 3.331l-.2-.137a7.558 7.558 0 0 1 .976-3.331c.867-1.215 3-1.093 3-1.093Z" data-name="Path 528"></path><path fill="#573095" d="M10.679 5.832c-.022.471-.338.661-.7.425a1.568 1.568 0 0 1-.622-1.275c.022-.469.336-.66.7-.424a1.569 1.569 0 0 1 .622 1.274" data-name="Path 529"></path><path fill="#d2d6fc" d="M10.087 6.307a.437.437 0 0 1-.231-.08 1.457 1.457 0 0 1-.565-1.165c.009-.2.087-.407.277-.407a.443.443 0 0 1 .233.08 1.46 1.46 0 0 1 .564 1.165c-.009.2-.087.408-.278.408" data-name="Path 530"></path><path fill="#6a3ab5" d="M9.568 4.78a.333.333 0 0 1 .165.061 1.319 1.319 0 0 1 .507 1.053c-.006.133-.05.289-.153.289a.322.322 0 0 1-.163-.06 1.32 1.32 0 0 1-.509-1.055c0-.029.018-.288.153-.288m0-.25c-.224 0-.387.193-.4.527a1.572 1.572 0 0 0 .622 1.276.559.559 0 0 0 .3.1c.223 0 .387-.193.4-.527a1.576 1.576 0 0 0-.622-1.275.556.556 0 0 0-.3-.1" data-name="Path 531"></path><path fill="#573095" d="M10.077 5.88c-.015.316-.208.444-.429.287a1.077 1.077 0 0 1-.376-.853c.014-.314.207-.442.429-.285a1.078 1.078 0 0 1 .376.851" data-name="Path 532"></path></g></g></g></svg>