<svg xmlns="http://www.w3.org/2000/svg" xmlns:xlink="http://www.w3.org/1999/xlink" viewBox="0 0 74 82.99"><defs><linearGradient id="a" x1="17.765" x2="17.31" y1=".951" y2="-.192" gradientUnits="objectBoundingBox"><stop offset="0" stop-color="#fff"></stop><stop offset="1"></stop></linearGradient><linearGradient xlink:href="#a" id="b" x1="28.147" x2="27.393" y1="2.08" y2="-.068"></linearGradient></defs><g data-name="Vector Smart Object"><g data-name="Group 75"><g data-name="Group 59"><g data-name="Group 58"><path fill="#441090" d="m24.37 38.945-9.044-4.83a.7.7 0 0 0-1.11.672l-.044 9.891a2.252 2.252 0 0 0 1.108 1.833l6.308 4.348 1.566-.577a.9.9 0 0 0 .644-.774l1.466-8.727a1.873 1.873 0 0 0-.894-1.836Z" data-name="Path 639"></path><path fill="#441090" d="m23.363 35.697.137 5.434h1.544l-.125-5.573Z" data-name="Path 640"></path><path fill="#441090" d="M12.238 35.62a.7.7 0 0 1 1.11-.672l9.044 4.83a1.874 1.874 0 0 1 .9 1.835l-1.466 8.727a.869.869 0 0 1-1.324.675l-7.193-3.672a2.246 2.246 0 0 1-1.11-1.833Z" data-name="Path 641"></path><path fill="#a2acf8" d="M24.88 42.369h-1.551l.171-1.163 1.544-.07Z" data-name="Path 642"></path><path fill="#381077" d="M28.88 81.854v-.067c0-.023.006-.073.007-.116v-.201a1.194 1.194 0 0 0-.322-.912l-.215-.159-.07-.047-.261-.189-.037-.027-.37-.265c-.7-.5-1.55-1.1-1.936-1.394s-1.24-1.029-1.865-1.576l-.1-.084-.243-.213-.072-.064-.129-.114-.169-.149s-3.2-2.787-4.74-1.231a2.341 2.341 0 0 0-.573 1.2 7.325 7.325 0 0 0-.032.392c0 .044 0 .08-.007.119 0 .078-.006.15-.009.214s-.007.114-.012.168v.061a1.917 1.917 0 0 1-.051.255 1.547 1.547 0 0 0 .688 1.946 3.976 3.976 0 0 0 1.468.779 1.388 1.388 0 0 1 .928.473 8.256 8.256 0 0 0 3.584 2.052c.1.026.2.045.3.068v.006c.056.013.111.022.168.033.1.023.2.043.306.061s.216.036.324.052.2.027.295.038.214.017.32.023.188.011.281.011.208-.006.312-.011c.088 0 .178-.008.265-.018.1-.013.2-.034.3-.053.08-.016.162-.03.241-.05.1-.028.2-.068.3-.106.071-.027.143-.049.211-.081a2.784 2.784 0 0 0 .315-.181c.053-.033.109-.059.16-.1a2.788 2.788 0 0 0 .419-.379l.007-.045v-.032l.014-.087Z" data-name="Path 643"></path><path fill="#573095" stroke="#573095" stroke-miterlimit="10" stroke-width=".383" d="M17.727 75.697a28.215 28.215 0 0 0-.159-5.86c-.431-2.735-1.056-5.3-.6-7.742s-2.834-15.9-2.834-15.9l-.454-2.698 6.251-3.871a96.26 96.26 0 0 1 2.75 11.191c.876 5.26-.25 8.036-.25 11.57s1.5 14.474 1.5 14.474-4.822 2.252-6.204-1.164Z" data-name="Path 644"></path><path fill="#381077" d="M9.449 75.24a.81.81 0 0 0 .045-.081.727.727 0 0 0 .041-.11.5.5 0 0 0 .019-.053h-.006c.006-.024.016-.047.019-.07a1.249 1.249 0 0 0-.01-.283c0-.032-.01-.067-.016-.1a3.495 3.495 0 0 0-.055-.265l-.03-.122a4.85 4.85 0 0 0-.106-.34l-.024-.074a6.667 6.667 0 0 0-.168-.424l-.009-.021a4.1 4.1 0 0 0-.471-.841 15.549 15.549 0 0 1-.888-1.291 24.117 24.117 0 0 1-.543-2.5 8.257 8.257 0 0 0-1.919-3.4 1.3 1.3 0 0 0-.261-.1c-.032-.008-.069-.013-.1-.02a2.279 2.279 0 0 0-.233-.038c-.047 0-.095 0-.143-.007h-.247c-.054 0-.108.008-.163.015a2.41 2.41 0 0 0-.26.047c-.056.013-.111.024-.168.04a2.558 2.558 0 0 0-.284.109c-.046.02-.092.035-.137.059a2.052 2.052 0 0 0-.386.256c-.03.025-.055.06-.084.088a1.929 1.929 0 0 0-.221.23l-.023.041a2.191 2.191 0 0 0-.312.582 1.946 1.946 0 0 0-.608 1.347 12.793 12.793 0 0 0 .824 2.649 1.789 1.789 0 0 0 .287.454 5.193 5.193 0 0 0 .874 2.654 7.321 7.321 0 0 0 .781.789 8.565 8.565 0 0 0 .892.686l.149.1c.15.1.3.189.453.273l.037.022a5.372 5.372 0 0 0 .485.232c.046.019.092.035.14.053a3.463 3.463 0 0 0 .355.115c.046.013.093.026.14.036a2.185 2.185 0 0 0 .449.056 3.564 3.564 0 0 0 .439-.026c.047-.006.087-.016.132-.024.087-.014.175-.027.253-.048.05-.013.093-.03.14-.045.065-.02.132-.04.19-.064s.088-.043.131-.065.1-.048.145-.075.078-.055.115-.083a1.129 1.129 0 0 0 .106-.081 1.1 1.1 0 0 0 .1-.1c.025-.027.052-.053.073-.082a1 1 0 0 0 .061-.1Z" data-name="Path 645"></path><path fill="#4c2a83" stroke="#4c2a83" stroke-miterlimit="10" stroke-width=".417" d="M2.58 65.555a5.232 5.232 0 0 1 0-1.9 12.188 12.188 0 0 1 1.877-5.73 12.463 12.463 0 0 0 2.2-6.184c.3-2.315 1.344-11.36 1.344-11.36l8.043 1.136s-2.334 9.762-3.376 13.589-3.927 6.943-4.86 8.709-.382 5.909-.382 5.909-4.846 2.24-4.846-4.169Z" data-name="Path 646"></path><g fill="#a2acf8" stroke-miterlimit="10" data-name="Path 647"><path d="m18.059 28.66.23-7.44v-.022l-.216-2.737c.237.088.601.255.976.55.852.668 1.358 1.645 1.504 2.904.328 2.807-.572 5.62-.756 6.158l-1.738.586Z"></path><path fill="#6a3ab5" d="m18.306 18.783.191 2.422-.222 7.162 1.358-.458c.234-.706 1.02-3.341.714-5.97-.23-1.975-1.35-2.819-2.04-3.156m-.465-.61s2.546.526 2.917 3.718c.373 3.192-.8 6.347-.8 6.347l-2.117.714.24-7.738-.24-3.042Z"></path></g><path fill="#d2d6fc" stroke="#6a3ab5" stroke-miterlimit="10" stroke-width=".314" d="m25.149 33.833-.775-1.543s-1.505.564-2.015.667-3.832.1-3.832.1l-.223 3.381 5.468-.507Z" data-name="Path 648"></path><g fill="#d2d6fc" stroke-miterlimit="10" data-name="Path 649"><path d="M14.003 22.139c-.813 0-1.64-.219-2.326-.616-1.686-.974-2.186-2.205-2.28-2.48.15-.283.749-1.475.798-2.669.375.499.777.925 1.18 1.249 1.069.862 2.645 1.555 3.896 1.722-.002.23.11.503.243.83.122.3.26.64.33 1.002a.485.485 0 0 1-.115.42c-.271.33-.949.542-1.726.542Z"></path><path fill="#6a3ab5" d="M10.316 16.781c-.134 1.009-.577 1.942-.748 2.273.131.345.652 1.447 2.187 2.333a4.559 4.559 0 0 0 2.248.595c.732 0 1.362-.19 1.605-.484a.332.332 0 0 0 .083-.291c-.067-.346-.203-.68-.323-.973-.115-.283-.215-.529-.245-.752-1.256-.2-2.794-.888-3.846-1.737a6.783 6.783 0 0 1-.961-.964m-.295-.923c.448.67.955 1.242 1.452 1.642 1.07.863 2.704 1.583 3.977 1.708-.136.374.384 1.089.549 1.94.215 1.111-2.413 1.66-4.4.51-1.99-1.147-2.372-2.632-2.372-2.632s.965-1.714.794-3.168Z"></path></g><g fill="#a2acf8" stroke-miterlimit="10" data-name="Path 650"><path d="M12.127 47.478c-2.988 0-4.713-.898-5.147-1.156.36-2.06 1.033-7.142 1.148-8.695.118-1.578-1.223-5.271-1.345-5.605l-1.506-9.175c.99-1.007 3.232-2.934 3.896-3.502.164.264.486.727.97 1.191.965.929 2.119 1.42 3.338 1.419.423 0 .86-.058 1.302-.173.056-.015.485-.137.748-.618.275-.502.272-1.197-.009-2.069l2.274-.692c1.23 1.03 2.017 2.668 2.34 4.874.263 1.795.15 3.6-.044 4.691-.4 2.258-.184 7.888-.137 8.993.082 1.903 1.179 7.156 1.397 8.183-.895.379-5.478 2.25-8.864 2.33-.12.003-.242.004-.36.004Z"></path><path fill="#6a3ab5" d="M12.129 47.686v-.415c.116 0 .235-.002.354-.004 3.185-.075 7.456-1.76 8.63-2.248-.282-1.34-1.287-6.218-1.365-8.049-.048-1.11-.265-6.76.14-9.038.19-1.075.302-2.855.043-4.625-.308-2.102-1.042-3.672-2.183-4.672l-1.967.598c.235.836.213 1.518-.068 2.03a1.454 1.454 0 0 1-.88.72c-.457.12-.912.18-1.352.18-2.364 0-3.795-1.682-4.354-2.506-.798.685-2.69 2.323-3.628 3.261l1.485 9.051c.16.438 1.47 4.078 1.351 5.674-.116 1.558-.753 6.392-1.126 8.57.564.31 2.21 1.058 4.919 1.058v.415m0 0c-3.592 0-5.377-1.263-5.377-1.263.357-1.981 1.052-7.22 1.17-8.811.12-1.592-1.34-5.537-1.34-5.537l-1.526-9.297c1.13-1.173 4.172-3.752 4.172-3.752s1.819 3.517 5.504 2.554c0 0 1.358-.309.526-2.621l2.585-.787c3.035 2.433 2.811 7.822 2.454 9.833-.356 2.012-.222 6.872-.134 8.947.09 2.075 1.428 8.315 1.428 8.315s-5.261 2.325-9.098 2.415c-.123.002-.245.004-.365.004Z"></path></g><path fill="#441090" d="M17.842 18.172h-1.843c2.107 1.017 7.174 15.463 7.174 15.463l1.421-.908A74.35 74.35 0 0 0 19.73 21.35a26.637 26.637 0 0 0-1.888-3.178Z" data-name="Path 651"></path><g data-name="Group 53"><path fill="#d2d6fc" stroke="#6a3ab5" stroke-miterlimit="10" stroke-width=".314" d="M10.432 8.087a4.824 4.824 0 0 1 6.958 3.01c.131.552.295 1.029.427 1.448s-.3.947-.3.947c.466.593.1 2 .006 2.345a.762.762 0 0 1 .079.319.371.371 0 0 1-.263.351 7.559 7.559 0 0 0-.19 1.228 1.249 1.249 0 0 1-1.27 1.491 7.923 7.923 0 0 1-4.4-1.726 8.84 8.84 0 0 1-2.806-4.856 4.421 4.421 0 0 1 1.759-4.557Z" data-name="Path 652"></path><path fill="#5d37a5" d="M10.274 7.465a5.129 5.129 0 0 1 5.744 0 4.729 4.729 0 0 1 1.473 1.744 1.666 1.666 0 0 1-1.411 2.588 13.786 13.786 0 0 1-3.355-.315c-1.093.715-.659 1.891-.806 2.283s-.307.9-.554 1.039c-.151.088-.436-.161-.509-.248-.178-.207-1.419-1.657-1.5.134a8.24 8.24 0 0 1-.686-2.042 5.089 5.089 0 0 1-.086-.851 3.924 3.924 0 0 1 1.69-4.332Z" data-name="Path 653"></path><path fill="#6a3ab5" d="M11.914 13.76c-.147.393-.307.9-.554 1.039-.151.088-.436-.161-.509-.248-.178-.207-1.419-1.657-1.5.134a8.24 8.24 0 0 1-.686-2.042 5.089 5.089 0 0 1-.086-.851 9.873 9.873 0 0 0 3.386.9c-.055.452.024.866-.051 1.068Z" data-name="Path 654"></path></g><g data-name="Group 56"><path fill="#441090" d="M12.637 47.983.791 40.913l4.4-10.423 11.847 7.07Z" data-name="Path 655"></path><g data-name="Group 54"><g fill="#4c2a83" stroke-miterlimit="10" data-name="Path 656"><path d="m10.551 46.328-9.477-5.656 3.523-8.35c.08-.052.266-.155.454-.155.078 0 .146.018.208.055l9.589 5.723-3.466 8.217a.85.85 0 0 0-.202-.024c-.26 0-.493.11-.629.19Z"></path><path d="M5.051 32.375a.66.66 0 0 0-.289.09l-3.425 8.121 9.22 5.503a1.429 1.429 0 0 1 .695-.157l3.333-7.901-9.433-5.63a.185.185 0 0 0-.1-.026m0-.417c.104 0 .212.023.314.085l9.744 5.815-3.615 8.573c-.424-.252-.938.143-.938.143L.812 40.758l3.616-8.573s.296-.227.623-.227Z"></path></g><g fill="#573095" stroke-miterlimit="10" data-name="Path 657"><path d="M10.466 46.297 1.054 40.68l3.465-8.217 9.412 5.617-3.465 8.217Z"></path><path d="m10.375 46.019 3.315-7.86-9.08-5.419-3.315 7.86 9.08 5.419m.182.555L.812 40.76l3.616-8.574 9.745 5.816-3.616 8.573Z"></path></g><path fill="#d4dbdf" d="m11.431 46.397 3.591-8.512a.593.593 0 0 0-.292-.08.741.741 0 0 0-.5.233l-3.564 8.443a.886.886 0 0 1 .765-.084Z" data-name="Path 658"></path></g><g data-name="Group 55"><path fill="#d4dbdf" d="m9.86 45.416-7.98-4.763 2.961-7.021 7.98 4.763Z" data-name="Path 659"></path><g fill="#573095" stroke-miterlimit="10" data-name="Path 660"><path d="M9.39 45.238 1.74 40.674l2.86-6.78.211-.056 7.52 4.488-.03.007-.037.087-2.876 6.818Z"></path><path d="m4.783 34.044-.042.01-2.758 6.54 7.315 4.367 2.77-6.569-7.285-4.348m.058-.412 7.98 4.763-.38.1-2.96 7.02L1.5 40.754l2.961-7.021.38-.1Z"></path></g><path fill="#441090" d="M9.48 45.516 1.5 40.753l2.961-7.021 7.98 4.763Z" data-name="Path 661"></path></g></g><g stroke-miterlimit="10" data-name="Group 57"><path fill="#d2d6fc" stroke="#6a3ab5" stroke-width=".314" d="m14.75 42.972-.413.982a2.538 2.538 0 0 1-.9-.63c-.182-.313.182-.556.911-.74s1.143-.318 1.11-.7-1.525-.251-2.071-.184a28.8 28.8 0 0 0-2.965 1c-.414 0-1.969-1.677-3.311-3.952a14.83 14.83 0 0 0-2.877-3.491 6.93 6.93 0 0 1 1-2.308c.911-1.589 1.938-4.014 1.938-4.014L2.965 27.13S1.01 31.997.613 33.401a4.857 4.857 0 0 0 .629 4.315c.96 1.171 5.45 5.318 6 5.869a18.571 18.571 0 0 0 2.386 1.923 15.178 15.178 0 0 0 2.931 1.255 3.087 3.087 0 0 0 2.27-.837 4.345 4.345 0 0 0 .632-2.141c-.002-.482-.711-.813-.711-.813Z" data-name="Path 662"></path><g fill="#a2acf8" data-name="Path 663"><path d="M4.712 35.174c-2.845-.772-3.225-.891-3.846-1.087-.169-.053-.356-.112-.613-.19.851-3.062 3.875-9.794 4.924-10.946.056-.021.192-.064.372-.064.743 0 1.408.709 1.874 1.995 1.004 2.773.087 4.94-1.026 7.098l-1.685 3.194Z"></path><path fill="#6a3ab5" d="M5.549 23.095c-.11 0-.199.02-.253.035-.494.577-1.475 2.438-2.534 4.815C1.77 30.175.913 32.388.51 33.758l.42.131c.607.192.982.31 3.677 1.041l1.606-3.045c1.092-2.116 1.991-4.238 1.016-6.932-.434-1.198-1.03-1.858-1.68-1.858m0-.416c.54 0 1.415.322 2.07 2.132 1.017 2.808.134 4.995-1.037 7.264l-1.763 3.343C.857 34.345 1.479 34.484 0 34.036c.744-2.852 3.926-10.088 5.055-11.258 0 0 .196-.099.494-.099Z"></path></g></g><path fill="#d2d6fc" stroke="#6a3ab5" stroke-miterlimit="10" stroke-width=".314" d="M22.58 33.735s.985-.779 1.19-.948.484-.642.94-.5.561.956.561.956a.771.771 0 0 1 .3.55 1.1 1.1 0 0 1-.061.613.933.933 0 0 1 .074.726 1.5 1.5 0 0 1-.31.62s.114.535-.189.712a5.835 5.835 0 0 1-2.068-.053c-.189-.069-.288-.321-.387-.75a4.616 4.616 0 0 1-.05-1.926Z" data-name="Path 664"></path><path fill="#d2d6fc" stroke="#6a3ab5" stroke-miterlimit="10" stroke-width=".314" d="M23.22 33.065a.809.809 0 0 0 .069.657c.2.291.681 1.12.287 1.39s-.931-.135-1.234-.717a1.083 1.083 0 0 1 .106-1.27c.196-.191.772-.06.772-.06Z" data-name="Path 665"></path></g></g><g data-name="Group 74"><g data-name="Group 73"><g data-name="Group 65"><g data-name="Group 64"><path fill="#441090" d="M51.921 56.239a12.839 12.839 0 0 1 11.713 0c1.617.944 2.426 2.177 2.426 3.414v1.122c0 1.235-.81 2.471-2.426 3.414a12.839 12.839 0 0 1-11.713 0c-1.617-.942-2.425-2.179-2.425-3.414v-1.122c-.001-1.237.808-2.47 2.425-3.414Z" data-name="Path 666"></path><path fill="#381077" d="M51.921 56.239c-3.234 1.885-3.234 4.945 0 6.828a12.826 12.826 0 0 0 11.713 0c3.235-1.883 3.235-4.943 0-6.828a12.839 12.839 0 0 0-11.713 0Z" data-name="Path 667"></path><g data-name="Group 60"><path fill="#441090" d="M58.711 42.435a3.2 3.2 0 0 0-1.546 0c-.214.061-.321.144-.321.225v17.237c0 .082.107.164.321.226a3.261 3.261 0 0 0 1.546 0c.214-.063.319-.144.319-.226V42.66c0-.08-.105-.163-.319-.225Z" data-name="Path 668"></path><path fill="#b8bfc3" d="M58.711 42.435c.426.123.426.326 0 .451a3.2 3.2 0 0 1-1.546 0c-.428-.125-.428-.329 0-.451a3.2 3.2 0 0 1 1.546 0Z" data-name="Path 669"></path></g><g data-name="Group 63"><path fill="#6a3ab5" d="M51.417 50.397a11.141 11.141 0 0 0 2.223.7h-.02a15.9 15.9 0 0 0 4.333.6 16.236 16.236 0 0 0 10.148-28.754 12.448 12.448 0 0 0-3.7-2.392c-6.62-2.834-14.731 1.517-18.555 9.393s-2.248 17.066 5.571 20.453Zm8.25-21.8c.036-.557.036-1.937 1.178-2.342s5.691.969 7.606 1.959a14.246 14.246 0 0 1 2.581 1.742 17.2 17.2 0 0 1 .046 5.3 17.252 17.252 0 0 0-3.179-2.353c-2.3-1.4-5.7-1.785-7.035-2.15a1.78 1.78 0 0 1-1.197-2.156Z" data-name="Path 670"></path><path fill="#6a3ab5" d="M60.747 26.297a3.087 3.087 0 0 0-.6 1.971 1.781 1.781 0 0 0 1.2 2.15c1.331.364 4.734.749 7.035 2.15a19.583 19.583 0 0 1 2.779 1.979c-.025.238-.053.473-.086.708a17.252 17.252 0 0 0-3.179-2.353c-2.3-1.4-5.7-1.785-7.035-2.15a1.78 1.78 0 0 1-1.2-2.151c.042-.544.042-1.862 1.086-2.304Z" data-name="Path 671"></path><g fill="#a2acf8" stroke-miterlimit="10" data-name="Path 672"><path d="M57.952 51.462c-.275 0-.55-.008-.824-.022 3.071-.373 5.64-1.917 7.339-3.24 2.385-1.857 4.459-4.375 5.69-6.909 1.333-2.74 2.038-6.1 1.935-9.219-.077-2.352-.608-4.473-1.56-6.284a16.017 16.017 0 0 1 3.243 9.696c0 4.268-1.646 8.28-4.635 11.298-2.988 3.018-6.961 4.68-11.188 4.68Z"></path><path fill="#6a3ab5" d="M59.427 51.167c3.61-.34 6.958-1.923 9.553-4.543 2.947-2.976 4.57-6.932 4.57-11.14 0-2.671-.661-5.247-1.888-7.524a15.88 15.88 0 0 1 .655 4.105c.104 3.155-.61 6.553-1.958 9.324-1.245 2.564-3.343 5.111-5.754 6.989-1.668 1.3-3.416 2.237-5.178 2.79m-1.475.519c-1.5 0-2.954-.21-4.332-.6 7.056 1.427 13.774-4.624 16.334-9.894 2.375-4.88 3.345-13.335-1.853-18.26A16.225 16.225 0 0 1 74 35.482c0 8.948-7.184 16.204-16.048 16.204Z"></path></g><g fill="#a2acf8" stroke-miterlimit="10" data-name="Path 673"><path d="M55.743 50.443a10.01 10.01 0 0 1-3.989-.838c-2.977-1.286-5.131-3.55-6.232-6.545-1.395-3.797-.996-8.445 1.094-12.752 2.838-5.85 8.267-9.78 13.508-9.78 1.377 0 2.705.27 3.947.801 2.981 1.276 5.039 3.404 6.117 6.325.203.55.372 1.133.504 1.737a13.942 13.942 0 0 0-2.138-1.377c-1.753-.906-5.47-2.056-7.147-2.056-.267 0-.475.028-.637.085-1.21.429-1.285 1.777-1.32 2.425l-.007.114v.008c-.14 1.963.95 2.262 1.362 2.375.331.09.784.182 1.309.287 1.577.318 3.961.798 5.668 1.838 1.358.827 2.333 1.542 3.057 2.241-.283 1.933-.867 3.877-1.65 5.487-1.162 2.39-3.124 4.77-5.383 6.528-1.814 1.413-4.686 3.097-8.063 3.097Z"></path><path fill="#6a3ab5" d="M60.124 20.753c-5.157 0-10.504 3.88-13.306 9.653-2.063 4.253-2.459 8.837-1.084 12.577 1.078 2.936 3.19 5.154 6.11 6.416 1.258.543 2.57.819 3.9.819 3.313 0 6.138-1.658 7.924-3.05 2.232-1.738 4.171-4.089 5.32-6.448.757-1.559 1.326-3.435 1.61-5.306-.702-.663-1.642-1.345-2.933-2.132-1.673-1.02-4.034-1.495-5.596-1.809a21.965 21.965 0 0 1-1.324-.291c-.714-.196-1.204-.642-1.418-1.29-.167-.504-.131-1.013-.11-1.318l.001-.006.007-.112c.035-.642.118-2.146 1.47-2.625.186-.066.42-.098.712-.098 1.707 0 5.476 1.164 7.25 2.08.563.292 1.121.634 1.67 1.026-.102-.381-.219-.751-.35-1.107-1.056-2.86-3.073-4.945-5.994-6.196a9.744 9.744 0 0 0-3.859-.783m0-.45c1.409 0 2.767.276 4.036.82 3.04 1.301 5.139 3.472 6.239 6.453.287.778.493 1.577.633 2.38a14.246 14.246 0 0 0-2.581-1.742c-1.915-.99-6.465-2.361-7.606-1.959-1.142.405-1.142 1.785-1.178 2.342-.04.557-.134 1.786 1.197 2.15 1.331.366 4.735.749 7.035 2.15 1.431.872 2.445 1.626 3.179 2.353-.306 2.177-.956 4.165-1.686 5.666-1.176 2.418-3.161 4.827-5.447 6.608-1.841 1.433-4.76 3.144-8.202 3.144-1.395 0-2.767-.29-4.078-.856-3.036-1.312-5.232-3.62-6.354-6.674-1.416-3.855-1.014-8.566 1.102-12.928 2.875-5.925 8.386-9.907 13.711-9.907Zm10.954 14.946v.002-.002Z"></path></g><g data-name="Group 62"><path fill="#381077" d="M48.936 37.165a18.089 18.089 0 0 1 16.5 0c2.255 1.313 3.393 3.033 3.416 4.755a19.972 19.972 0 0 1-4.91 5.6 13.725 13.725 0 0 1-8.2 3.144 10.237 10.237 0 0 1-4.078-.856 11.425 11.425 0 0 1-6.147-6.151V41.97c0-1.736 1.14-3.473 3.419-4.805Z" data-name="Path 674"></path><path stroke="#000" stroke-miterlimit="10" stroke-width=".074" d="M113.656 238.487a16.732 16.732 0 0 0 8.252 1.993 17.9 17.9 0 0 0 6.766-1.26l-.009.007a13.725 13.725 0 0 1-8.2 3.144 10.237 10.237 0 0 1-4.078-.856 11.425 11.425 0 0 1-6.147-6.151v-1.687c-.002 1.742 1.138 3.483 3.416 4.81Z" data-name="Path 675" opacity=".4" style="mix-blend-mode:multiply;isolation:isolate" transform="translate(-64.72 -191.703)"></path><g data-name="Group 61" opacity=".3" style="mix-blend-mode:screen;isolation:isolate"><path fill="url(#a)" d="M113.656 228.868a16.453 16.453 0 0 1 7.7-1.985 16.132 16.132 0 0 0-7.528 1.942c-2.228 1.3-3.343 3-3.343 4.708s1.115 3.407 3.343 4.706a16.352 16.352 0 0 0 8.077 1.95 16.7 16.7 0 0 0 7.679-1.73c-.3.264-.6.518-.913.762a17.883 17.883 0 0 1-6.766 1.26 16.732 16.732 0 0 1-8.252-1.993c-2.278-1.327-3.417-3.067-3.417-4.81s1.141-3.478 3.42-4.81Z" data-name="Path 676" transform="translate(-64.72 -191.703)"></path><path fill="url(#b)" d="M133.284 234.111a3.863 3.863 0 0 0 .044-.579c0-1.7-1.115-3.407-3.344-4.708a16.374 16.374 0 0 0-8.075-1.949 16.743 16.743 0 0 1 8.251 1.992c2.255 1.313 3.393 3.033 3.416 4.755-.094.164-.191.325-.292.489Z" data-name="Path 677" transform="translate(-64.72 -191.703)"></path></g></g></g></g></g><g data-name="Group 72"><path fill="#d2d6fc" fill-rule="evenodd" stroke="#6a3ab5" stroke-miterlimit="10" stroke-width=".34" d="m62.887 8.032-4.649 2.677c.19 1.316-.864 1.839-1.243 2.577-.349.676-2.246 6.435 0 6.871 1.777.346 6.388-4.878 7.7-7.313.345-.641-.777-1.58-.777-1.58a9.948 9.948 0 0 1-1.031-3.232Z" data-name="Path 678"></path><g data-name="Group 66"><path fill="#6b4831" d="M49.302 36.617s-2.891 1.395-3.674 1.8c-2.35 1.211-3.478 3.409-2.9 6.4.5 2.586 6.439.651 7.8-.339s7.953-4.809 9.279-8.049c.087-.208.2-.285.309-.3l-.034-.033c-1.002-.963-6.22-1.225-10.78.521Z" data-name="Path 679"></path></g><path fill="#78553e" fill-rule="evenodd" d="M63.711 36.557s-5.961.171-8.775 2.241-7.657 3.2-7.732 6.232 3.822 2.973 4.811 2.973a7.274 7.274 0 0 0 2.083-.381s11.069-4.152 12.55-5.9 1.409-6.182-2.937-5.165Z" data-name="Path 680"></path><path fill="#d2d6fc" fill-rule="evenodd" stroke="#6a3ab5" stroke-miterlimit="10" stroke-width=".34" d="M42.649 53.743a7.526 7.526 0 0 1-.126 3.6 14.785 14.785 0 0 1-2.324 4.072l-1.225.965-.126.947a3.824 3.824 0 0 0 1.117.872 17.1 17.1 0 0 0 3.98-1.51l2.432-1.511.595-2.163a5.97 5.97 0 0 1-.793-1.781 45.581 45.581 0 0 1 .162-5.112Z" data-name="Path 681"></path><path fill="#381077" fill-rule="evenodd" d="M40.199 61.411s-3.045 1.293-3.8 3.092.305 1.748 2.107 1.4 2.81-1.545 3.872-2.035 2.9-.782 4.127-1.729.467-3.128.467-3.128.324.764-2.522 2.383-4.6 1.806-4.936 1.16c-.198-.379.685-1.143.685-1.143Z" data-name="Path 682"></path><path fill="#573095" fill-rule="evenodd" stroke="#573095" stroke-miterlimit="10" stroke-width=".416" d="M58.991 34.066a7.48 7.48 0 0 1-3.433-3.113l-.789 1.365-7.976 5.233c-1.411.936-3.587 2.179-4.123 4.04s-.476 10.393-.522 12.483a40.035 40.035 0 0 1-.991 6.053 10.416 10.416 0 0 0 6.015-.21s-.386-6.852-.149-8.6a40.742 40.742 0 0 1 2.014-6.093l10.536-7.927Z" data-name="Path 683"></path><path fill="#d2d6fc" fill-rule="evenodd" stroke="#6a3ab5" stroke-miterlimit="10" stroke-width=".34" d="m45.78 69.057.163-1.092.552-.831a13.4 13.4 0 0 0 1.34-4.575c.018-1.922 0-4.305 0-4.305l3.278-.965s.595 5.055 1.369 6.495c0 0 .468.962-.7 2.562s-4.162 2.783-4.252 2.837a16.8 16.8 0 0 1-1.75-.126Z" data-name="Path 684"></path><path fill="#381077" fill-rule="evenodd" d="M46.534 67.038a24.344 24.344 0 0 0-3.171 3.4c-.522.981.576 1.31 1.874 1.419a6.226 6.226 0 0 0 4.143-1.36c.757-.817 1.8-2.662 2.665-3.24s.938-2.234.434-3.47c0 0-.018 1.49-1.964 3.181s-3.025 1.947-3.746 1.49-.235-1.42-.235-1.42Z" data-name="Path 685"></path><g data-name="Group 67"><path fill="#441090" d="M67.906 33.903s-5.589 1.444-8.915.163a9.134 9.134 0 0 1-2.946 2.941c-1.585.755-8.935 5.211-8.841 8.022s-.367 19.986-.367 19.986 3.721 2.008 5.751-1.089c0 0-.26-4.745-.189-6.647.072-1.928 1.6-5.507.477-9.355 0 0 9.781-2.227 12.43-4.519a8.371 8.371 0 0 0 2.6-9.502Z" data-name="Path 686"></path></g><g fill="#fff" fill-rule="evenodd" stroke-miterlimit="10" data-name="Path 687"><path d="m65.233 35.116-.158-.003c-2.038-.069-6.112-1.19-6.243-1.225-1.586-.487-2.434-1.22-2.866-1.748-.364-.446-.502-.826-.545-.971.518-1.164.94-2.997.469-4.453-.1-.308-.182-.575-.255-.81-.288-.932-.419-1.357-.8-1.683-.063-.054-.149-.116-.258-.194-.333-.24-.836-.603-1.2-1.11-.428-.595-.542-1.215-.348-1.894.518-1.82 2.745-7.69 3.062-8.526l1.382-.475c-.044.083-.08.16-.102.214-1.032 2.698-1.437 4.133-.95 4.993.237.418.666.669 1.35.789.132.023.27.035.408.035 1.286 0 2.563-.981 3.266-1.821.296-.355.759-1.06 1.249-1.805.503-.766 1.024-1.559 1.442-2.098.14-.18.218-.36.235-.54 1.081.68 3.36 2.287 4.148 4.168-.227.919-2.239 9.116-2.383 10.717-.075.837.357 2.43.856 4.276.315 1.161.64 2.36.866 3.473-.348.194-1.364.69-2.625.69Z"></path><path fill="#6a3ab5" d="M65.233 34.89c1.066 0 1.95-.372 2.369-.585-.222-1.059-.53-2.194-.828-3.294-.505-1.866-.942-3.477-.863-4.355.142-1.58 2.071-9.462 2.37-10.677-.73-1.66-2.658-3.102-3.773-3.832-.044.103-.106.21-.193.323-.412.532-.93 1.32-1.432 2.084-.494.75-.96 1.46-1.264 1.825-.735.877-2.076 1.902-3.44 1.902-.152 0-.303-.013-.448-.038-.745-.132-1.237-.426-1.506-.9-.516-.911-.147-2.331.841-4.94l-.8.276c-.426 1.118-2.52 6.657-3.02 8.408-.354 1.242.494 2.06 1.463 2.758.114.082.203.146.273.206.43.369.577.843.869 1.787.072.235.155.502.254.809.48 1.484.075 3.332-.443 4.536.141.41.776 1.732 3.233 2.487.177.049 4.188 1.15 6.187 1.217l.15.003m0 .452c-.054 0-.11 0-.165-.003-2.112-.071-6.298-1.234-6.298-1.234-3.216-.986-3.587-2.957-3.587-2.957.472-1.027.972-2.88.493-4.362-.479-1.48-.568-2.033-.987-2.39-.42-.36-2.442-1.45-1.877-3.433.565-1.982 3.107-8.643 3.107-8.643l2.043-.704s-.307.518-.38.704c-1.419 3.713-1.688 5.14.228 5.477 1.273.223 2.682-.776 3.463-1.708.58-.695 1.846-2.814 2.685-3.896.462-.595-.062-.95-.062-.95s3.813 2.072 4.861 4.699c0 0-2.245 9.092-2.395 10.754-.12 1.334 1.184 4.949 1.75 7.842 0 0-1.227.804-2.878.804Zm3.99-18.234Z"></path></g><g data-name="Group 68"><path fill="#573095" stroke="#573095" stroke-miterlimit="10" stroke-width=".416" d="m64.162 40.162-15.361-8.953a.546.546 0 0 0-.493 0l-10.063 5.866a.171.171 0 0 0-.1.149v.315a.173.173 0 0 0 .1.144l15.359 9.1a.546.546 0 0 0 .493 0l10.064-5.867a.175.175 0 0 0 .1-.143v-.465a.178.178 0 0 0-.099-.146Z" data-name="Path 688"></path><path fill="#381077" d="M48.308 31.208a.546.546 0 0 1 .493 0l15.361 8.953a.152.152 0 0 1 0 .286l-10.064 5.867a.539.539 0 0 1-.493 0l-15.359-8.955a.151.151 0 0 1 0-.286Z" data-name="Path 689"></path></g><g data-name="Group 69"><path fill="#d2d6fc" fill-rule="evenodd" stroke="#6a3ab5" stroke-miterlimit="10" stroke-width=".34" d="M51.164 32.434a8.864 8.864 0 0 0-1.315 1.661 6.013 6.013 0 0 1-1.169 2.202c-.586.5-1.253.928-1.487.689s.777-1.246.777-1.246.553-1.273-.035-.811-1.359 1.574-1.642 1.416a.713.713 0 0 1-.347-.39s-.2.225-.3-.072a4.436 4.436 0 0 1-.262-1.765c.08-.732.49-1.942 1.078-1.981a6.307 6.307 0 0 1 1.317-.007 13.709 13.709 0 0 0 2.828-1.385Z" data-name="Path 690"></path></g><g data-name="Group 70"><path fill="#d2d6fc" fill-rule="evenodd" stroke="#6a3ab5" stroke-miterlimit="10" stroke-width=".34" d="M62.015 38.126a8.322 8.322 0 0 1-1.977 1.548 26.3 26.3 0 0 0-2.629.953c-.418.309-.569.542-.528.776s.3.562-.116.6a5.127 5.127 0 0 1-1.424-.347s-1.143.034-1.3-.908a2.312 2.312 0 0 1 1.266-2.451c1.027-.587 2.234-.439 3.291-.814a8.533 8.533 0 0 0 2.86-1.7c1.389-1.067 1.759.965 1.759.965Z" data-name="Path 691"></path></g><g fill="#fff" fill-rule="evenodd" stroke-miterlimit="10" data-name="Path 692"><path d="M60.678 39.295c-.317-.512-1.074-1.649-1.784-2.097.742-.785 3.222-3.404 3.784-3.912.672-.607 2.442-2.414 2.517-2.49l.072-.073-.008-.103-.504-6.72v-.006l-.002-.006c-.008-.063-.77-6.272 1.876-7.54.603-.29 1.069-.43 1.422-.43.26 0 .449.075.597.235.54.585.52 2.242.305 4.908-.205 2.536-.25 5.152-.284 7.061-.026 1.497-.046 2.68-.13 2.962-.19.641-1.09 2.118-2.287 3.223-1.046.963-4.673 4.188-5.574 4.988Z"></path><path fill="#6a3ab5" d="M68.051 16.144c-.314 0-.76.137-1.324.408-1.264.606-1.679 2.515-1.804 4.01a17.82 17.82 0 0 0 .055 3.297l.002.024.52 6.925-.143.146c-.076.077-1.85 1.888-2.527 2.5-.518.468-2.698 2.765-3.594 3.712.585.465 1.15 1.256 1.492 1.783 1.143-1.017 4.392-3.906 5.37-4.808 1.152-1.063 2.046-2.52 2.224-3.122.075-.253.098-1.539.121-2.9.033-1.913.079-4.533.284-7.076.161-1.989.288-4.159-.246-4.737-.07-.075-.18-.162-.43-.162m0-.452c1.363 0 1.415 1.822 1.127 5.387-.371 4.59-.216 9.374-.422 10.069-.206.696-1.146 2.213-2.351 3.325-1.206 1.112-5.78 5.171-5.78 5.171s-1.221-2.095-2.105-2.379c0 0 3.333-3.538 4.006-4.147.675-.61 2.508-2.48 2.508-2.48l-.505-6.721s-.823-6.419 2.002-7.773c.63-.302 1.13-.452 1.52-.452Z"></path></g><g fill="#fff" fill-rule="evenodd" stroke-miterlimit="10" data-name="Path 693"><path d="m50.373 33.428-.898-1.22-.398-.577 5.186-5.385.056-.058.007-.08c0-.01.064-.805.117-1.618.04.03.073.056.098.077.282.24.4.626.662 1.471.073.238.156.506.256.818.273.842.299 2.053.072 3.255l-5.158 3.317Z"></path><path fill="#6a3ab5" d="m50.43 33.123 4.896-3.15c.202-1.134.173-2.262-.082-3.048-.1-.313-.184-.582-.258-.82-.155-.504-.256-.82-.356-1.034-.041.582-.078 1.047-.079 1.054l-.013.161-5.17 5.369.29.422.771 1.046m-.112.61-1.027-1.394-.504-.732L54.1 26.09s.087-1.082.143-2.022c.194.14.356.252.445.328.419.358.508.91.987 2.39.33 1.02.277 2.378.06 3.464l-5.418 3.484Z"></path></g><path fill="#fff" fill-rule="evenodd" stroke="#6a3ab5" stroke-miterlimit="10" stroke-width=".452" d="M55.918 12.32c-1.471.508-1.732 2.967-1.752 4.7.849-2.331 1.752-4.7 1.752-4.7Z" data-name="Path 694"></path><g data-name="Group 71"><g fill="#a2acf8" stroke-miterlimit="10" data-name="Path 695"><path d="M53.147 46.358a.409.409 0 0 1-.06-.03L38.452 37.52a1.44 1.44 0 0 1-.541-.714l-2.51-9.117a.317.317 0 0 1-.014-.094l.197-.221a.384.384 0 0 1 .065.033l14.635 8.81c.22.132.472.466.54.715l2.509 9.111a.37.37 0 0 1 .015.088l-.018.02-.183.206Z"></path><path fill="#6a3ab5" d="m53.1 46.072.005-.006-2.498-9.073a1.225 1.225 0 0 0-.439-.581L35.631 27.66l-.004.004 2.501 9.083c.052.191.27.479.44.581l14.531 8.744m.081.521a.425.425 0 0 1-.21-.073l-14.634-8.806c-.27-.163-.559-.543-.642-.848l-2.51-9.116c-.04-.146-.025-.248.03-.298l.25-.28c.059-.048.165-.04.302.044l14.634 8.81c.27.161.558.543.641.848l2.509 9.11c.045.166.021.277-.052.318l-.243.273a.15.15 0 0 1-.075.018Z"></path></g><path fill="#441090" d="M53.305 46.261c.083.3-.068.423-.336.259l-14.634-8.806a1.656 1.656 0 0 1-.642-.848l-2.51-9.116c-.083-.3.069-.419.338-.258l14.635 8.805a1.653 1.653 0 0 1 .64.849Z" data-name="Path 696"></path><path fill="#2e373a" d="m118.025 237.964-2.51-9.11a1.653 1.653 0 0 0-.64-.849l-14.634-8.809c-.269-.161-.421-.047-.338.258l.03.108c.06-.052.168-.044.307.04l14.4 8.664a1.634 1.634 0 0 1 .64.847l2.439 8.852a.349.349 0 0 1-.008.273c.256.139.396.022.314-.274Z" data-name="Path 697" opacity=".3" style="mix-blend-mode:screen;isolation:isolate" transform="translate(-64.72 -191.703)"></path></g><path fill="#5d37a5" fill-rule="evenodd" d="m57.48 8.511.579-1.942-3.252-1.288a5.811 5.811 0 0 0 .232 2.968c.562 1.18.921 2.014.722 2.425a5.7 5.7 0 0 1-.5.57 2.582 2.582 0 0 0 .723-.149 3.67 3.67 0 0 1-.723.953 2.657 2.657 0 0 0 .688-.139 7.69 7.69 0 0 1-.688.708c2.265-.155 2.555-2.747 2.555-2.747l-.12-.014a3.684 3.684 0 0 0 .12-.554l-.2.006a3.916 3.916 0 0 0 .2-.811Z" data-name="Path 698"></path><path fill="#d2d6fc" fill-rule="evenodd" stroke="#6a3ab5" stroke-miterlimit="10" stroke-width=".34" d="M55.33 4.897a15.509 15.509 0 0 0-.187 2.335c.095.316.4.52.39.928a4.5 4.5 0 0 0 .482 2.18s-.143.63-.059.746a.977.977 0 0 0 .379.194 2.831 2.831 0 0 1 .272.538c.084.254.485 1.249.858 1.413a4.306 4.306 0 0 0 3.181-.953 11.857 11.857 0 0 0 3.215-3.914c.673-1.229 1.029-4.213.131-5.824A4.374 4.374 0 0 0 58.779.715a6.141 6.141 0 0 0-3.449 4.182Z" data-name="Path 699"></path><path fill="#291919" fill-rule="evenodd" d="M63.392 1.491A4.5 4.5 0 0 0 57.743.94a5.039 5.039 0 0 0-2.618 3.468c-.061.961.131 1.069.131 1.069a7.254 7.254 0 0 0 .893 1.045c.289.2.638.024 1.513.124 1.244.141 1.439.849 1.886 1.029s.86-.209 1.561.224.924.784 1.064.717.15.019.271-.509c.095-.409 1.145-.856 1.8-.745a5.288 5.288 0 0 0-.852-5.871Z" data-name="Path 700"></path><path fill="#d2d6fc" fill-rule="evenodd" stroke="#6a3ab5" stroke-miterlimit="10" stroke-width=".34" d="M62.743 7.72s.561-.871 1.074-.8.41.538.195 1.264-1.147 2.01-1.344 1.481a5.635 5.635 0 0 1 .075-1.945Z" data-name="Path 701"></path><path fill="#6a3ab5" fill-rule="evenodd" d="M65.415 4.902c-.278-2.6-1.635-4.3-3.494-4.7-2.97-.651-5.554.311-6.532 2.709-1.609 1.725-.245 4.318-.245 4.318a1.127 1.127 0 0 1 .243-.515c.784 2.087 3.943 1.719 3.943 1.719a5.754 5.754 0 0 1-.955-.484 8.335 8.335 0 0 0 1.564.447s-1.128-.5-1.261-.955c0 0 3.315.69 3.192 1.773a3.4 3.4 0 0 1-.491 1.236 2.607 2.607 0 0 0 .79-.415 5.8 5.8 0 0 1-.558 1.187 3.77 3.77 0 0 0 .575-.246c-.284.654-.61 1.086-.57 1.073.087-.03.168-.061.25-.093l-.572 1.332a8.084 8.084 0 0 0 2.778-1.843c.875-1.079 1.641-3.771 1.343-6.543Z" data-name="Path 702"></path></g></g></g></g></g></svg>