<svg xmlns="http://www.w3.org/2000/svg" viewBox="0 0 54 82"><defs><clipPath id="a"><path fill="none" d="M0 0h53.999v82H0z" data-name="Rectangle 42"></path></clipPath></defs><g data-name="Vector Smart Object"><g data-name="Group 106"><g clip-path="url(#a)" data-name="Group 105"><path fill="#d2d6fc" d="M13.1 69.79a1.56 1.56 0 0 1-1.078-.465 75.378 75.378 0 0 1-.793-.769 5.461 5.461 0 0 0-1.466-1.173c-.648-.343-1.2-1.952-.625-3.79.644-2.06.256-6-.322-9.007a23.081 23.081 0 0 1-.082-5.794 8.536 8.536 0 0 0-.008-2.662c-.179-.476 2.508-2.183 5.234-3.554a46.793 46.793 0 0 0-.527 4.733 20.472 20.472 0 0 1-.389 4.148c-.315 1.769-.807 9.072-.82 11.525a10.772 10.772 0 0 0 1.984 5.518l.06.094a.544.544 0 0 1-.012.571 1.352 1.352 0 0 1-1.159.626" data-name="Path 770"></path><path fill="#6a3ab5" d="M13.722 42.9a43.279 43.279 0 0 0-.477 4.408 20.283 20.283 0 0 1-.385 4.119c-.324 1.822-.811 9.036-.823 11.556a10.934 10.934 0 0 0 2.015 5.617l.061.094a.36.36 0 0 1-.019.385 1.178 1.178 0 0 1-1 .532 1.378 1.378 0 0 1-.952-.415 75.076 75.076 0 0 1-.791-.767 5.614 5.614 0 0 0-1.51-1.2c-.579-.306-1.075-1.851-.536-3.575.654-2.09.265-6.068-.316-9.1a22.931 22.931 0 0 1-.08-5.745 8.418 8.418 0 0 0-.012-2.7c.065-.454 2.213-1.873 4.823-3.208m.467-.642S8.18 45.215 8.55 46.195s-.55 5.146.082 8.425.92 7.023.326 8.919-.037 3.607.714 4a9.568 9.568 0 0 1 2.219 1.913 1.731 1.731 0 0 0 1.2.516c.952 0 1.715-.861 1.325-1.476a10.787 10.787 0 0 1-2.02-5.512c.012-2.406.495-9.682.817-11.495a20.533 20.533 0 0 0 .391-4.177c.024-1.562.579-5.054.579-5.054" data-name="Path 771"></path><path fill="#381077" d="M14.422 68.5a24.4 24.4 0 0 1 2.184 2.021c.547.662-1.147 1.638-2.759 1.078s-2.936-2.073-4.215-3.211c-1.254-1.116-1.6-1.516-1.533-2.8a2.5 2.5 0 0 1 .682-1.294 5.728 5.728 0 0 0 2.237 3.685c1.753 1.038 2.476 1.2 3.4.517" data-name="Path 772"></path><path fill="#d2d6fc" d="M7.977 72.61a1.56 1.56 0 0 1-1.077-.465 74.19 74.19 0 0 1-.794-.771A5.466 5.466 0 0 0 4.639 70.2c-.648-.343-1.2-1.951-.625-3.79.644-2.059.256-6-.321-9.007a18.287 18.287 0 0 1-.059-4.987 6.877 6.877 0 0 0 1.037.074 11.746 11.746 0 0 0 1.422-.1 2.962 2.962 0 0 0 .3.028 2.071 2.071 0 0 0-.3.669c-.3 1.157.011 5.112.288 8.6.158 2 .3 3.727.291 4.6a7.227 7.227 0 0 0 1.985 4.463c.2.256.379.475.493.655a.542.542 0 0 1-.012.571 1.35 1.35 0 0 1-1.159.626" data-name="Path 773"></path><path fill="#6a3ab5" d="M6.072 52.581h.015a2.288 2.288 0 0 0-.173.463c-.311 1.188.005 5.16.283 8.664.151 1.912.294 3.718.29 4.584a7.387 7.387 0 0 0 2.025 4.578c.2.253.376.47.482.639a.36.36 0 0 1-.017.386 1.178 1.178 0 0 1-1 .532 1.38 1.38 0 0 1-.952-.415c-.327-.312-.581-.562-.791-.767a5.591 5.591 0 0 0-1.509-1.2c-.579-.306-1.075-1.851-.536-3.575.654-2.091.265-6.069-.317-9.1a17.684 17.684 0 0 1-.072-4.745 7.36 7.36 0 0 0 .873.049 11.863 11.863 0 0 0 1.4-.093m-2.6-.374a18.834 18.834 0 0 0 .041 5.234c.631 3.279.92 7.023.326 8.918s-.037 3.608.713 4a9.566 9.566 0 0 1 2.22 1.913 1.731 1.731 0 0 0 1.2.516c.952 0 1.716-.861 1.325-1.476-.552-.869-2.461-2.615-2.449-5.021S5.8 54.919 6.268 53.137a1.955 1.955 0 0 1 .51-.895h-.165a4.417 4.417 0 0 1-.542-.031 11.521 11.521 0 0 1-1.4.1 6.477 6.477 0 0 1-1.2-.1" data-name="Path 774"></path><path fill="#381077" d="M9.3 71.315a24.4 24.4 0 0 1 2.184 2.021c.547.662-1.147 1.638-2.759 1.078S5.791 72.342 4.512 71.2c-1.254-1.116-1.6-1.516-1.533-2.8a2.5 2.5 0 0 1 .682-1.294A5.728 5.728 0 0 0 5.9 70.8c1.753 1.038 2.476 1.2 3.4.517" data-name="Path 775"></path><path fill="#fff" d="M16.292 24.865c-.145-.007-.475-.117-1.051-.763a6.959 6.959 0 0 1-1.849-3.22L9.861 10.693a2.873 2.873 0 0 1 1.055-.192 3.765 3.765 0 0 1 1.6.377c1.358.633 3.857 5.815 4.979 9.1l.109.32.28-.191c.7-.481 1.542-1.054 2.09-1.437.873-.611 2.1-1.31 2.539-1.557.181.175.523.507.907.89a7.23 7.23 0 0 1 .732.847 51.1 51.1 0 0 1-3.855 4.179 6.763 6.763 0 0 1-3.927 1.833Z" data-name="Path 776"></path><path fill="#6a3ab5" d="M10.916 10.757a3.522 3.522 0 0 1 1.49.354c1.178.548 3.614 5.348 4.845 8.955l.218.639.559-.38c.707-.482 1.546-1.056 2.093-1.439.77-.539 1.822-1.15 2.35-1.448.191.186.465.453.766.752a7.212 7.212 0 0 1 .584.657 49.024 49.024 0 0 1-3.7 4 6.6 6.6 0 0 1-3.754 1.767h-.062c-.029 0-.3-.033-.873-.677l-.05-.056-.029-.017a6.683 6.683 0 0 1-1.711-3.034l-.006-.026-.008-.025-3.44-9.921a2.772 2.772 0 0 1 .726-.1m0-.513a2.843 2.843 0 0 0-1.373.314l3.6 10.383a7.124 7.124 0 0 0 1.906 3.33 2.247 2.247 0 0 0 1.23.849h.09a7.053 7.053 0 0 0 4.1-1.9 53.888 53.888 0 0 0 4-4.355 6.825 6.825 0 0 0-.873-1.042c-.57-.568-1.047-1.024-1.047-1.024s-1.629.893-2.729 1.664c-.545.382-1.382.955-2.087 1.435-1.111-3.258-3.629-8.562-5.113-9.254a4.018 4.018 0 0 0-1.708-.4" data-name="Path 777"></path><path fill="#fff" d="M9.21 65.905a2.593 2.593 0 0 1-1.542-.674 2.092 2.092 0 0 0-.816-.453l-.129-.011a2.438 2.438 0 0 0-1 .36 3.581 3.581 0 0 1-1.6.518c-.046 0-.094 0-.141-.005-.662-.051-.985-.908-1.244-1.6-.167-.441-.286-.759-.5-.886a.669.669 0 0 0-.344-.08 2.78 2.78 0 0 0-.391.04 2.94 2.94 0 0 1-.445.045c-.3 0-.613-.082-.811-.68.014-.258.058-.883.119-1.766.111-1.6.279-4.021.366-7.133.136-4.837.3-10.743.6-13.637a14.744 14.744 0 0 1 .5-3.059 34.972 34.972 0 0 1 9.147-1.674c3.121 0 4.82.958 5.051 2.848.7 5.74 1.525 21.917 1.586 23.118-.457.863-.754 1.065-1.538 1.065-.451 0-.575.5-.7.975-.1.377-.213.846-.461.935a3.381 3.381 0 0 1-1.158.211 4.427 4.427 0 0 1-1.32-.24 2.636 2.636 0 0 0-.717-.152.723.723 0 0 0-.388.1 2.1 2.1 0 0 0-.6.723c-.315.506-.64 1.029-1.348 1.1a1.67 1.67 0 0 1-.172.009" data-name="Path 778"></path><path fill="#6a3ab5" d="M10.972 35.47c2.97 0 4.583.883 4.8 2.623.687 5.638 1.5 21.374 1.58 23.028-.41.762-.646.867-1.276.867-.651 0-.822.676-.947 1.17-.054.213-.179.712-.3.755a3.124 3.124 0 0 1-1.07.2 4.172 4.172 0 0 1-1.245-.229 2.791 2.791 0 0 0-.791-.162.987.987 0 0 0-.522.138 2.285 2.285 0 0 0-.688.807c-.346.557-.612.926-1.155.979a1.424 1.424 0 0 1-.146.007 2.351 2.351 0 0 1-1.387-.623 2.3 2.3 0 0 0-.927-.5.952.952 0 0 0-.173-.014A2.589 2.589 0 0 0 5.6 64.9a3.389 3.389 0 0 1-1.481.49c-.04 0-.08 0-.121-.005-.5-.038-.8-.844-1.023-1.431-.184-.489-.318-.843-.611-1.016a.919.919 0 0 0-.474-.116 3.051 3.051 0 0 0-.429.043 2.881 2.881 0 0 1-.406.042c-.206 0-.39-.034-.539-.427.007-.343.048-.941.1-1.742.111-1.6.28-4.027.367-7.147v-.118c.132-4.733.3-10.621.593-13.5a18.11 18.11 0 0 1 .446-2.881 34.394 34.394 0 0 1 8.943-1.622m0-.513a35.431 35.431 0 0 0-9.331 1.721s-.261.322-.562 3.242-.463 8.807-.6 13.656S0 61.61 0 62.562a1.037 1.037 0 0 0 1.055.856c.308 0 .612-.085.836-.085a.421.421 0 0 1 .212.045c.407.24.611 2.42 1.857 2.516.054 0 .108.006.161.006 1.115 0 2.029-.877 2.6-.877a.574.574 0 0 1 .084.006c.561.1 1.241 1.132 2.4 1.132.065 0 .13 0 .2-.009 1.283-.127 1.505-1.523 2.059-1.858a.484.484 0 0 1 .255-.064 14.5 14.5 0 0 0 2.036.391A3.646 3.646 0 0 0 15 64.394c.716-.257.542-1.894 1.07-1.894.935 0 1.3-.314 1.8-1.265 0 0-.857-17.194-1.591-23.2-.287-2.357-2.6-3.073-5.307-3.073" data-name="Path 779"></path><path fill="#573095" d="M1.235 15.723c.311-1.231 4.246-3.381 4.246-3.381s1.959 1.244 2.7 1.826c.713.557 1.864-.013 1.124-2.02a7.586 7.586 0 0 1 .121-2.48s.3-.074.723-.15c.643.709 1.907 2.593 2.592 3.373.662.753 3.23 3.1 2.508 5.535a20.088 20.088 0 0 1-.864 2.244c-.431 1 .754 5.111 1.267 7.453a82.169 82.169 0 0 1 1.353 10.223s-4.605 3.445-9.074 3.686a10.606 10.606 0 0 1-7.457-2.89S1.442 31.8 2.1 29.508c.757-2.627 2.31-6.255 2.251-7.4 0 0-4.143-2.323-3.119-6.387" data-name="Path 780"></path><path fill="none" stroke="#573095" stroke-miterlimit="10" stroke-width=".516" d="M1.235 15.723c.311-1.231 4.246-3.381 4.246-3.381s1.959 1.244 2.7 1.826c.713.557 1.864-.013 1.124-2.02a7.586 7.586 0 0 1 .121-2.48s.3-.074.723-.15c.643.709 1.907 2.593 2.592 3.373.662.753 3.23 3.1 2.508 5.535a20.088 20.088 0 0 1-.864 2.244c-.431 1 .754 5.111 1.267 7.453a82.169 82.169 0 0 1 1.353 10.223s-4.605 3.445-9.074 3.686a10.606 10.606 0 0 1-7.457-2.89S1.442 31.8 2.1 29.508c.757-2.627 2.31-6.255 2.251-7.4.003.002-4.14-2.321-3.116-6.385Z" data-name="Path 781"></path><path fill="#fff" d="M11.787 18.576c-2.227-2.234-5.371-5.606-6-6.287.1-.24.3-.73.493-1.283A6.552 6.552 0 0 0 7.842 12a1.991 1.991 0 0 0 .776.162 2.182 2.182 0 0 0 1.3-.47c.085.17.2.377.344.63.8 1.437 2.266 4.047 1.522 6.254" data-name="Path 782"></path><path fill="#6a3ab5" d="M6.4 11.429a6.3 6.3 0 0 0 1.344.808 2.273 2.273 0 0 0 .877.181 2.33 2.33 0 0 0 1.209-.354c.061.112.131.238.212.382.733 1.309 2.027 3.619 1.616 5.632-2.081-2.1-4.783-5-5.572-5.843.083-.2.2-.485.315-.807m-.247-.865c-.288.909-.671 1.777-.671 1.777s3.9 4.2 6.4 6.693c1.409-3.079-1.7-7.021-1.857-7.768a2.086 2.086 0 0 1-1.407.64 1.754 1.754 0 0 1-.678-.141 7.151 7.151 0 0 1-1.789-1.2" data-name="Path 783"></path><path fill="#d2d6fc" d="M8.616 11.723a1.563 1.563 0 0 1-.6-.127A6.636 6.636 0 0 1 6.361 10.5a6.533 6.533 0 0 0 .274-1.231l.006-.069-.041-.075a4.31 4.31 0 0 1-.613-.965 5.235 5.235 0 0 1 .862-5.247 3.859 3.859 0 0 1 2.545-.963 3.5 3.5 0 0 1 3.243 2.23 6.423 6.423 0 0 1-.558 5.945c-.572.912-1.253 1.457-1.822 1.457a.8.8 0 0 1-.243-.036c-.1-.03-.211-.077-.327-.124l-.087-.037-.081.052a1.661 1.661 0 0 1-.9.286" data-name="Path 784"></path><path fill="#6a3ab5" d="M9.395 2.132a3.326 3.326 0 0 1 3.078 2.128 6.24 6.24 0 0 1-.546 5.769c-.532.846-1.171 1.372-1.67 1.372a.651.651 0 0 1-.189-.028 3.96 3.96 0 0 1-.311-.119l-.177-.074-.162.1a1.475 1.475 0 0 1-.8.258 1.381 1.381 0 0 1-.534-.113 6.306 6.306 0 0 1-1.513-.986 6.24 6.24 0 0 0 .248-1.174l.011-.145-.091-.114a4.108 4.108 0 0 1-.587-.923 5.026 5.026 0 0 1 .82-5.043 3.669 3.669 0 0 1 2.422-.913m0-.364a4.021 4.021 0 0 0-2.675 1.02 5.387 5.387 0 0 0-.9 5.45 4.5 4.5 0 0 0 .637 1.006v.018a6.643 6.643 0 0 1-.3 1.307 7.138 7.138 0 0 0 1.79 1.2 1.736 1.736 0 0 0 .675.141 1.848 1.848 0 0 0 1-.316c.122.05.244.1.343.13a1.01 1.01 0 0 0 .3.044c1.779 0 4.116-4.454 2.546-7.663a3.715 3.715 0 0 0-3.415-2.332" data-name="Path 785"></path><path fill="#6a3ab5" d="M4.8 3.986a3.254 3.254 0 0 1 1.773-2.624c1.89-1.039 3.132-1.414 5.2.085 2.492.413 2.176 1.29 2.4 3.216 0 0-1.807 2.111-3.939.644-1.381 1.6-3.762 1.777-4.016 3.63A6.664 6.664 0 0 1 4.8 3.986" data-name="Path 786"></path><path fill="#441090" d="M7.281.449C4.14 1.611 3.759 3.2 2.972 6.247s-.043 5.733-.8 7.907c-.032.093-.051.176-.074.261 1.392-.9 2.273-.815 3.378-2.074a7.934 7.934 0 0 0 1.024-4.4C6.265 6.9 4.9 1.4 11.254.745c0 0-.831-1.459-3.973-.3" data-name="Path 787"></path><path fill="#fff" d="M6.441 6.437c-.146-.938-.356-3.267.844-4.658A3.024 3.024 0 0 1 9.683.727a4.523 4.523 0 0 1 1.41.234l.117.159h-.121a5.08 5.08 0 0 0-2.627.789c-1.631.986-1.687 3.621-1.677 4.254Z" data-name="Path 788"></path><path fill="#6a3ab5" d="M9.683.983c.1 0 .207 0 .3.012a5.786 5.786 0 0 0-1.659.693 4.51 4.51 0 0 0-1.742 3.429 4.775 4.775 0 0 1 .9-3.171 2.779 2.779 0 0 1 2.2-.963m0-.513A3.308 3.308 0 0 0 7.09 1.611C5.462 3.5 6.266 6.9 6.266 6.9l.781-.622S6.886 3.161 8.6 2.127a4.813 4.813 0 0 1 2.493-.753 2.675 2.675 0 0 1 .682.074l-.516-.7A4.65 4.65 0 0 0 9.683.47" data-name="Path 789"></path><path fill="#fff" d="M11.359 32.154c-1.211-.215-6.568-1.186-7.977-1.713a3.478 3.478 0 0 1-2.01-2.284l.027-.013-.085-.22a3.573 3.573 0 0 1-.2-.661L1 26.7a24.577 24.577 0 0 1-.455-9.348 4.533 4.533 0 0 1 2.6-3.472h.007c.526 0 1.42 1.417 1.648 2.741a28.868 28.868 0 0 1 .248 5.09 26.141 26.141 0 0 0 .127 3.715c.021.149.028.275.034.388a2.443 2.443 0 0 0 .051.435l.033.138.136.045c.771.255 1.632.576 2.562.953a35.287 35.287 0 0 1 4.041 2.022 4.377 4.377 0 0 0-.52 1.659c-.074.579-.125.905-.156 1.086" data-name="Path 790"></path><path fill="#6a3ab5" d="M3.222 14.128a4.29 4.29 0 0 1 1.327 2.537 28.611 28.611 0 0 1 .245 5.046 26.386 26.386 0 0 0 .129 3.751c.021.142.027.262.033.37a2.644 2.644 0 0 0 .057.477l.067.278.272.09c.767.254 1.623.573 2.546.947a34.391 34.391 0 0 1 3.795 1.883 4.9 4.9 0 0 0-.431 1.528c-.047.369-.084.632-.113.82-1.569-.282-6.369-1.167-7.674-1.654a3.112 3.112 0 0 1-1.795-1.929l.043-.024-.169-.421a3.237 3.237 0 0 1-.187-.613l-.112-.565A24.352 24.352 0 0 1 .8 17.4a4.286 4.286 0 0 1 2.423-3.273m-.01-.517a.4.4 0 0 0-.165.034A4.835 4.835 0 0 0 .293 17.3c-.781 4 .207 8.138.566 10.01a3.82 3.82 0 0 0 .216.707 3.778 3.778 0 0 0 2.22 2.661c1.624.607 8.266 1.768 8.266 1.768a9 9 0 0 0 .213-1.349 3.517 3.517 0 0 1 .63-1.773 36.069 36.069 0 0 0-4.31-2.177 41.585 41.585 0 0 0-2.578-.958c-.055-.227-.032-.456-.081-.8-.332-2.336.14-5.821-.376-8.812-.216-1.254-1.135-2.966-1.845-2.966" data-name="Path 791"></path><path fill="#d2d6fc" d="M16.956 34.84a7.509 7.509 0 0 1-3.194-1.24c-.579-.443-2.051-1.277-2.114-1.313a2.193 2.193 0 0 1 .708-2.789c.176-.009.758-.036 1.381-.036.369 0 .754.009 1.075.038.246.022.513.026.767.031a3.524 3.524 0 0 1 .883.074c-.017.011-.048.056-.119.125a1.884 1.884 0 0 1-1.221.429 1.42 1.42 0 0 0-.766.209.306.306 0 0 0-.139.281c.025.174.2.249.482.372a5.239 5.239 0 0 1 1.5.925 3.823 3.823 0 0 1 1.5 2.228.659.659 0 0 1-.227.517.769.769 0 0 1-.52.146" data-name="Path 792"></path><path fill="#6a3ab5" d="M13.736 29.648c.426 0 .782.012 1.06.037.25.023.523.027.78.031.144 0 .325.006.482.014a2.042 2.042 0 0 1-.954.252 1.569 1.569 0 0 0-.864.248.477.477 0 0 0-.2.447c.038.276.281.381.59.516a5.02 5.02 0 0 1 1.454.893 3.74 3.74 0 0 1 1.441 2.093.476.476 0 0 1-.168.381.619.619 0 0 1-.4.1 7.347 7.347 0 0 1-3.084-1.2c-.511-.392-1.7-1.077-2.042-1.274a1.952 1.952 0 0 1 .591-2.505c.223-.011.755-.033 1.315-.033m0-.364c-.751 0-1.445.039-1.445.039a2.338 2.338 0 0 0-.734 3.126s1.517.858 2.092 1.3a7.634 7.634 0 0 0 3.306 1.273.94.94 0 0 0 .642-.193c.757-.685-.094-1.963-1.275-3.016s-2.215-1.007-1.852-1.3 1.336 0 2-.65-.664-.454-1.642-.54c-.325-.03-.716-.039-1.092-.039" data-name="Path 793"></path><path fill="#d2d6fc" d="M24.47 18.655c-.561-.349-1.732-1.21-1.735-1.85.023 0 1.294-2.4 1.9-3.464.367-.649.682-.891.8-.891.014.007.054.068.054.237a1.832 1.832 0 0 1-.516 1.368c-.073.1-.206.292-.116.464a.319.319 0 0 0 .313.156 3.579 3.579 0 0 0 1.781-.857 4.055 4.055 0 0 1 2.289-1.107 1.373 1.373 0 0 1 .618.138.472.472 0 0 1 .194.4c.059.726-.542 1.928-2.016 2.979a85.362 85.362 0 0 1-3.558 2.421" data-name="Path 794"></path><path fill="#6a3ab5" d="M25.3 12.736c0 .534-.086.651-.512 1.256a.569.569 0 0 0-.1.611.5.5 0 0 0 .475.254 3.72 3.72 0 0 0 1.9-.9 3.885 3.885 0 0 1 2.167-1.061 1.2 1.2 0 0 1 .536.12c.031.015.082.1.095.256.04.5-.323 1.664-1.941 2.817a89.53 89.53 0 0 1-3.452 2.353c-.662-.424-1.46-1.1-1.545-1.56.245-.46 1.329-2.5 1.866-3.449a2.933 2.933 0 0 1 .507-.693m.129-.468c-.225 0-.583.328-.954.983-.612 1.08-1.92 3.551-1.92 3.551 0 .934 1.92 2.066 1.92 2.066s1.439-.9 3.662-2.487 2.4-3.394 1.8-3.694a1.552 1.552 0 0 0-.7-.159 4.1 4.1 0 0 0-2.411 1.154 3.435 3.435 0 0 1-1.659.811c-.167 0-.222-.086-.077-.292a2.055 2.055 0 0 0 .578-1.514c0-.28-.09-.419-.237-.419" data-name="Path 795"></path><path fill="#573095" d="M49.169 76.668a3.052 3.052 0 0 0-.093-.868l-9.553 3.643a1.977 1.977 0 0 0-.175.812c.025.383.523.669 1.241 1.082a2.549 2.549 0 0 0 2.244.248 10.785 10.785 0 0 0 2.509-1.627c.818-.649 1.524-1.4 1.967-1.639v.281a5.843 5.843 0 0 0 1.422-.633 1.534 1.534 0 0 0 .438-1.3Z" data-name="Path 796"></path><path fill="none" stroke="#573095" stroke-miterlimit="10" stroke-width=".516" d="M49.169 76.668a3.052 3.052 0 0 0-.093-.868l-9.553 3.643a1.977 1.977 0 0 0-.175.812c.025.383.523.669 1.241 1.082a2.549 2.549 0 0 0 2.244.248 10.785 10.785 0 0 0 2.509-1.627c.818-.649 1.524-1.4 1.967-1.639v.281a5.843 5.843 0 0 0 1.422-.633 1.534 1.534 0 0 0 .438-1.3Z" data-name="Path 797"></path><path fill="#381077" d="M43.385 74.355a26.271 26.271 0 0 1-3.035 3.76c-1.129.957-1.149 1.5-.8 1.983a3.2 3.2 0 0 0 2.58 1.072c1.318-.07 2.529-1.27 3.217-1.862a17.2 17.2 0 0 1 2.953-1.989c.468-.23.788-.494.781-1.688A9.983 9.983 0 0 0 48.86 74Z" data-name="Path 798"></path><path fill="#573095" d="M43.825 73.638a3.051 3.051 0 0 0-.093-.868l-9.553 3.643a1.959 1.959 0 0 0-.175.812c.025.383.523.669 1.24 1.082a2.55 2.55 0 0 0 2.244.248A10.738 10.738 0 0 0 40 76.928c.82-.649 1.526-1.4 1.97-1.639v.283a5.86 5.86 0 0 0 1.422-.633 1.533 1.533 0 0 0 .433-1.301Z" data-name="Path 799"></path><path fill="none" stroke="#573095" stroke-miterlimit="10" stroke-width=".516" d="M43.825 73.638a3.051 3.051 0 0 0-.093-.868l-9.553 3.643a1.959 1.959 0 0 0-.175.812c.025.383.523.669 1.24 1.082a2.55 2.55 0 0 0 2.244.248A10.738 10.738 0 0 0 40 76.928c.82-.649 1.526-1.4 1.97-1.639v.283a5.86 5.86 0 0 0 1.422-.633 1.533 1.533 0 0 0 .433-1.301Z" data-name="Path 800"></path><path fill="#381077" d="M38.039 71.324A26.271 26.271 0 0 1 35 75.084c-1.129.957-1.149 1.5-.8 1.984a3.2 3.2 0 0 0 2.58 1.072c1.318-.07 2.529-1.27 3.217-1.863a17.2 17.2 0 0 1 2.954-1.989c.468-.23.788-.494.781-1.688a9.983 9.983 0 0 0-.218-1.627Z" data-name="Path 801"></path><path fill="#fff" d="M40.582 73.269a3.957 3.957 0 0 1-2.4-.705c-.662-.488-.851-.754-.593-1.28a3.977 3.977 0 0 0 .037-2.583c-.077-.429-.166-.923-.24-1.5a38.682 38.682 0 0 1-.192-3.939c-.031-1.663-.066-3.547-.245-5.842-.318-4.071-.113-10.9-.045-13.147l.016-.59a20.611 20.611 0 0 1 .7-5.437 9.2 9.2 0 0 0 .357-1.976l5.591 4.223c0 1.62-.038 18 .184 21.143.213 3.007-1.2 10.261-1.425 11.39a6.59 6.59 0 0 1-1.746.248" data-name="Path 802"></path><path fill="#6a3ab5" d="m38.2 36.75 5.116 3.865c-.005 2.287-.036 17.907.185 21.034.2 2.861-1.093 9.652-1.391 11.167a6.336 6.336 0 0 1-1.524.2 3.709 3.709 0 0 1-2.246-.655c-.669-.492-.674-.639-.515-.963a4.2 4.2 0 0 0 .059-2.739c-.077-.431-.165-.918-.238-1.491a38.677 38.677 0 0 1-.19-3.912c-.031-1.666-.066-3.555-.246-5.857-.316-4.057-.112-10.876-.044-13.116l.016-.595a20.369 20.369 0 0 1 .693-5.379 10.8 10.8 0 0 0 .325-1.559m-.46-.99c0 2.469-.935 2.594-1.072 7.912-.035 1.37-.324 9.228.03 13.763.35 4.489.149 7.537.438 9.794.26 2.032.688 3 .227 3.941-.369.751.07 1.156.671 1.6a4.259 4.259 0 0 0 2.552.755 6.6 6.6 0 0 0 1.969-.305s1.695-8.284 1.46-11.607-.183-21.252-.183-21.252Z" data-name="Path 803"></path><path fill="#fff" d="M45.447 75.929a3.691 3.691 0 0 1-2.711-1.243c-.546-.615-.577-.89-.207-1.835a1.634 1.634 0 0 0-.13-1.182 2.617 2.617 0 0 1-.2-.8c-.059-1.717-.071-3.728-.083-5.673-.012-1.915-.024-3.724-.077-5.1-.208-5.232-.478-14.005-.478-14.005-.031-.12-1.409-3.74-1.186-5.706.15-1.324 6.342-2.806 10.388-3.465a40.4 40.4 0 0 1 .234 9.7c-.326 2.106-1.536 17.62-1.917 24.125a2.641 2.641 0 0 0 .386 1.777c.1.165.143.237.134.358-.079 1.064-.829 1.84-2.588 2.674a3.625 3.625 0 0 1-1.559.365" data-name="Path 804"></path><path fill="#6a3ab5" d="M50.538 37.221a39.333 39.333 0 0 1 .2 9.368c-.328 2.114-1.539 17.643-1.92 24.15a2.875 2.875 0 0 0 .423 1.927c.092.148.1.169.1.2-.072.959-.779 1.673-2.442 2.462a3.352 3.352 0 0 1-1.448.34 3.467 3.467 0 0 1-2.519-1.157c-.457-.515-.51-.678-.161-1.571a1.853 1.853 0 0 0-.128-1.364 2.4 2.4 0 0 1-.188-.719c-.059-1.714-.071-3.725-.083-5.67-.011-1.915-.023-3.725-.077-5.1-.2-5.171-.476-13.915-.478-14V46l-.031-.08c-.013-.036-1.369-3.6-1.154-5.5.1-.873 4.584-2.311 9.911-3.2m.439-.59s-10.63 1.679-10.862 3.731 1.18 5.744 1.18 5.744.272 8.773.478 14.007c.11 2.76.044 7.359.162 10.766.025.725.565 1.329.35 1.879-.39 1-.377 1.387.254 2.1a3.971 3.971 0 0 0 2.9 1.331 3.863 3.863 0 0 0 1.669-.39c1.713-.814 2.64-1.638 2.734-2.888.041-.552-.61-.581-.52-2.139.382-6.535 1.593-22.027 1.915-24.1.626-4.039-.27-10.036-.27-10.036" data-name="Path 805"></path><path fill="#6a3ab4" d="M39.118 14.856s-1.93.274-2.919 3.662c-.984 3.371-2.37 7.491-2.37 7.491s3.064 1.11 3.329 1.189 2.045-5.291 2.158-5.53a23.885 23.885 0 0 0 1.24-5.876c-.025-.823-1.438-.937-1.438-.937" data-name="Path 806"></path><path fill="none" stroke="#6a3ab4" stroke-miterlimit="10" stroke-width=".516" d="M39.118 14.856s-1.93.274-2.919 3.662c-.984 3.371-2.37 7.491-2.37 7.491s3.064 1.11 3.329 1.189 2.045-5.291 2.158-5.53a23.885 23.885 0 0 0 1.24-5.876c-.025-.822-1.438-.936-1.438-.936Z" data-name="Path 807"></path><path fill="#573095" d="M40.87 14.856s-1.373-.3-2.246 2.189a68.289 68.289 0 0 0-1.692 11.867c0 5.459-.56 12.763-.56 12.763s.718.422 1.874-.384a4.846 4.846 0 0 0 1.229-1.881 4.373 4.373 0 0 0 1.808 4.035c2.441 1.5 6.983.944 8.234.414a7.171 7.171 0 0 0 2.238-1.4s.345-6.137-.148-8.592c-.3-1.51.442-10-.136-12.837-.382-1.875-4.326-3.5-5.388-4.214-1.913-1.293-3.047-2.1-5.213-1.958" data-name="Path 808"></path><path fill="none" stroke="#573095" stroke-miterlimit="10" stroke-width=".516" d="M40.87 14.856s-1.373-.3-2.246 2.189a68.289 68.289 0 0 0-1.692 11.867c0 5.459-.56 12.763-.56 12.763s.718.422 1.874-.384a4.846 4.846 0 0 0 1.229-1.881 4.373 4.373 0 0 0 1.808 4.035c2.441 1.5 6.983.944 8.234.414a7.171 7.171 0 0 0 2.238-1.4s.345-6.137-.148-8.592c-.3-1.51.442-10-.136-12.837-.382-1.875-4.326-3.5-5.388-4.214-1.913-1.295-3.047-2.102-5.213-1.96Z" data-name="Path 809"></path><path fill="#d2d6fc" d="M41.542 22.948a38.183 38.183 0 0 0 .31-6.123c.845-.743 2.68-2.088 3.445-2.088h.026a11.992 11.992 0 0 0 .915 2.732 4.962 4.962 0 0 1-1.43 1.811 26.216 26.216 0 0 0-1.878 2.08c-.476.556-1.032 1.2-1.387 1.587" data-name="Path 810"></path><path fill="#6a3ab5" d="M45.175 14.93a12.254 12.254 0 0 0 .862 2.541 4.828 4.828 0 0 1-1.344 1.667 24.869 24.869 0 0 0-1.9 2.1c-.315.368-.688.8-1.005 1.162a35.768 35.768 0 0 0 .259-5.507 10.051 10.051 0 0 1 3.13-1.968m.122-.375c-.912 0-2.944 1.571-3.641 2.2a38.552 38.552 0 0 1-.357 6.673c.371-.211 3.054-3.557 3.621-4.006a5.125 5.125 0 0 0 1.517-1.958 11.7 11.7 0 0 1-.959-2.883.556.556 0 0 0-.181-.027" data-name="Path 811"></path><path fill="#fff" d="M40.415 29.032c.011-1.855.036-5.03.082-5.582a31.394 31.394 0 0 1 .818-3.363l1.245-1.118 1.588.786a4.545 4.545 0 0 1-.558 1.942c-.426.583-2.256 5.056-3.176 7.335" data-name="Path 812"></path><path fill="#6a3ab5" d="m42.6 19.275 1.272.63a4.061 4.061 0 0 1-.492 1.641c-.375.513-1.718 3.731-2.7 6.145.014-1.881.039-3.813.073-4.22a29.27 29.27 0 0 1 .789-3.243Zm-.084-.614-1.429 1.285a33.217 33.217 0 0 0-.848 3.482c-.068.806-.091 6.952-.091 6.952s3.109-7.794 3.648-8.532a5.242 5.242 0 0 0 .62-2.245Z" data-name="Path 813"></path><path fill="#fff" d="M42.778 18.853a6.642 6.642 0 0 0 3.317-2.281.339.339 0 0 1 .057.093 3.22 3.22 0 0 1-.759 2.484 3.886 3.886 0 0 1-2.6 1.48Z" data-name="Path 814"></path><path fill="#6a3ab5" d="M45.95 17.166a4.209 4.209 0 0 1-.77 1.839 3.477 3.477 0 0 1-2.131 1.315l-.011-1.284a7.13 7.13 0 0 0 2.912-1.87m.056-.92a6.444 6.444 0 0 1-3.485 2.415l.021 2.255a4.278 4.278 0 0 0 3.058-1.624c1.04-1.525 1.1-2.933.4-3.046" data-name="Path 815"></path><path fill="#441090" d="M41.544 21.3a8.32 8.32 0 0 0-.853 1.373 17.629 17.629 0 0 0-.539 4.354c.023 1.611.112 2.574.112 2.574s1.1-2.957 1.28-3.381a18.476 18.476 0 0 0 .315-2.66 16.311 16.311 0 0 0 .3-2.059c-.1-.022-.619-.2-.619-.2" data-name="Path 816"></path><path fill="#441090" d="M45.662 15.491s.133.46.233.882c.135.567-.519 1.725-1.218 2.619a22.437 22.437 0 0 0-2.158 4.184c-1.2 2.965-2.195 6.291-2.195 6.291a48.759 48.759 0 0 1 .234-5.843 34.643 34.643 0 0 1 1.009-4.724c.072-.3-.12-1.023-.091-1.4-.59.114-.62-.159-.965-.679a2.946 2.946 0 0 0-.876 1.431c.217.284.728.72.822 1.1-.373.191-.708.219-1.075.4-.416 1.925-.1 9.878.523 11.279 1.138-1.137 5.134-8.046 6.064-9.22a9.247 9.247 0 0 0-.565-1.287s.749.115 1.328.158a7.26 7.26 0 0 0 .748-3.082s-.9-2-1.817-2.106" data-name="Path 817"></path><path fill="#fff" d="M41.377 19.815a4.088 4.088 0 0 1-.128-.979 6.28 6.28 0 0 1 .084-1.133l.179.015a2.264 2.264 0 0 0 .668.974Z" data-name="Path 818"></path><path fill="#6a3ab5" d="M41.52 18.324a2.634 2.634 0 0 0 .321.4l-.316.442a5.303 5.303 0 0 1-.006-.843m-.4-.894a6.191 6.191 0 0 0-.132 1.41 3.5 3.5 0 0 0 .309 1.521l1.218-1.7-.025-.047a1.953 1.953 0 0 1-.78-1.137Z" data-name="Path 819"></path><path fill="#441090" d="M41.913 21.778a2.656 2.656 0 0 0 1.077-.906l-.47-2.211a3.818 3.818 0 0 0-1.452 1.8c-.1.438.336.831.386 1.175.08-.1.08-.1.459.14" data-name="Path 820"></path><path fill="#462712" d="M39.83 31.424c-.044.339-.478 4.747-.478 4.747a6.976 6.976 0 0 0 .478-4.747" data-name="Path 821"></path><path fill="#fff" d="M45.363 27.457a1.273 1.273 0 1 1 .986-1.239 1.136 1.136 0 0 1-.986 1.239" data-name="Path 822"></path><path fill="#6a3ab5" d="M45.363 25.233c.4 0 .729.45.729.984s-.333.983-.729.983-.729-.45-.729-.983.333-.984.729-.984m0-.513a1.522 1.522 0 1 0 1.243 1.5 1.388 1.388 0 0 0-1.243-1.5" data-name="Path 823"></path><path fill="#d2d6fc" d="M42.037 35.186a4.918 4.918 0 0 1-2.2-.6L43.5 32.61a2.507 2.507 0 0 1 .256 1.663 1.13 1.13 0 0 1-.654.7 2.533 2.533 0 0 1-1.063.215" data-name="Path 824"></path><path fill="#6a3ab5" d="M43.412 32.864a2.156 2.156 0 0 1 .169 1.355.96.96 0 0 1-.557.586 2.342 2.342 0 0 1-.987.2 4.592 4.592 0 0 1-1.8-.425Zm.164-.5-4.077 2.2a4.615 4.615 0 0 0 2.539.806 2.7 2.7 0 0 0 1.14-.233c1.581-.729.4-2.774.4-2.774" data-name="Path 825"></path><path fill="#6a3ab4" d="M49.847 18.991a12.673 12.673 0 0 0-1.375 4.725 26.66 26.66 0 0 0 .448 5.7s-1.183.654-1.514.783l-5.316 2.056a4.86 4.86 0 0 1 .639 2.526 11.1 11.1 0 0 0 0 1.649s5.428-.633 7.878-1.814 3.146-1.279 3.134-5.616c-.013-4.944-.628-9.157-3.894-10.014" data-name="Path 826"></path><path fill="none" stroke="#6a3ab4" stroke-miterlimit="10" stroke-width=".516" d="M49.847 18.991a12.673 12.673 0 0 0-1.375 4.725 26.66 26.66 0 0 0 .448 5.7s-1.183.654-1.514.783l-5.316 2.056a4.86 4.86 0 0 1 .639 2.526 11.1 11.1 0 0 0 0 1.649s5.428-.633 7.878-1.814 3.146-1.279 3.134-5.616c-.013-4.939-.627-9.152-3.894-10.009Z" data-name="Path 827"></path><path fill="#fff" d="m31.046 27.594-.258-6.065 6.967 8.742.258 6.065Z" data-name="Path 828"></path><path fill="#6a3ab5" d="m31.079 22.306 6.421 8.059.221 5.195L31.3 27.5Zm-.579-1.554.3 6.936 7.5 9.425-.3-6.936Z" data-name="Path 829"></path><path fill="#fff" d="m31.928 22.217 3.427 4.283-3.262.2Z" data-name="Path 830"></path><path fill="#6a3ab5" d="m32.214 22.985 2.63 3.286-2.506.157Zm-.572-1.534.2 5.522 4.02-.251Z" data-name="Path 831"></path><path fill="#6a3ab4" d="m31.643 21.45-.509.387.255 5.549.456-.414Z" data-name="Path 832"></path><path fill="#fff" d="m30.959 27.679 7.084-5.623 7.321 9.225-7.083 5.622z" data-name="Rectangle 37"></path><path fill="#6a3ab5" d="m38.022 22.258 7.191 9.023-6.882 5.442L31.14 27.7Zm.041-.36-7.285 5.761 7.512 9.425 7.284-5.762Z" data-name="Path 833"></path><path fill="#fff" d="m32.714 27.933 5.177-4.113 5.726 7.208-5.177 4.113z" data-name="Rectangle 38"></path><path fill="#6a3ab5" d="m37.85 24.2 5.426 6.808-4.776 3.775-5.425-6.808Zm.083-.72-5.581 4.414 6.066 7.61L44 31.089Z" data-name="Path 834"></path><path fill="#573095" d="m33.576 27.994 4.181-3.319.261.33-4.18 3.318z" data-name="Rectangle 39"></path><path fill="#573095" d="m34.128 28.687 4.181-3.319.261.33-4.18 3.318z" data-name="Rectangle 40"></path><path fill="#573095" d="m35.112 29.921 4.181-3.319 3.144 3.961-4.181 3.319z" data-name="Rectangle 41"></path><path fill="#d2d6fc" d="M34.335 32.566c-.148 0-.438-.128-.983-.738a2.184 2.184 0 0 1-.56-1.712.715.715 0 0 1 .642-.425.727.727 0 0 1 .106-.008 1.413 1.413 0 0 1 1.013.574 1.468 1.468 0 0 1 .32 1.245c-.147.639-.3 1.064-.538 1.064" data-name="Path 835"></path><path fill="#6a3ab5" d="M33.541 29.865a1.229 1.229 0 0 1 .871.5 1.292 1.292 0 0 1 .284 1.092c-.2.856-.326.923-.36.923s-.272-.033-.846-.677a2 2 0 0 1-.525-1.529c.038-.106.132-.252.5-.306a.493.493 0 0 1 .078-.006m0-.364a.941.941 0 0 0-.133.009c-1.467.219-.671 1.9-.191 2.439.508.57.861.8 1.119.8.393 0 .562-.534.716-1.2a1.744 1.744 0 0 0-1.513-2.046" data-name="Path 836"></path><path fill="#d2d6fc" d="M41.812 17.319a2.805 2.805 0 0 1-1.912-1.473 6.379 6.379 0 0 1-.754-5.723 3.469 3.469 0 0 1 3.27-2.362A3.775 3.775 0 0 1 44.8 8.6a5.369 5.369 0 0 1 .945 5.263 6.982 6.982 0 0 1-3.656 3.412.825.825 0 0 1-.277.044Z" data-name="Path 837"></path><path fill="#6a3ab5" d="M42.418 7.944a3.579 3.579 0 0 1 2.267.789 5.166 5.166 0 0 1 .892 5.062 6.763 6.763 0 0 1-3.547 3.3.637.637 0 0 1-.218.037c-.516 0-1.189-.533-1.757-1.391a6.187 6.187 0 0 1-.739-5.551 3.294 3.294 0 0 1 3.1-2.251m0-.364a3.656 3.656 0 0 0-3.438 2.471c-1.378 3.22 1.079 7.454 2.834 7.454a1 1 0 0 0 .344-.058 7.152 7.152 0 0 0 3.763-3.519 5.548 5.548 0 0 0-.994-5.465 3.969 3.969 0 0 0-2.507-.878" data-name="Path 838"></path><path fill="#6a3ab5" d="M43.9 5.855c3.536-.505 4.381 5 3.883 6.089-.959 2.094-2.056 2.239-2.056 2.239a3.3 3.3 0 0 0 .033-1.641c-.216-.424-.9-.5-1.127.257a3.8 3.8 0 0 1-2.533-2.521c-2.292 1.843-3.526.777-3.888.428-.583-5.4 4.191-6.129 5.688-4.852" data-name="Path 839"></path></g></g></g></svg>