<svg xmlns="http://www.w3.org/2000/svg" viewBox="0 0 62 92"><defs><clipPath id="a"><path fill="none" d="M0 0h62v92H0z" data-name="Rectangle 18"></path></clipPath><clipPath id="b"><path fill="none" d="M17.5 3.272c.02.043.022.038 0 0" data-name="Path 438"></path></clipPath><radialGradient id="c" cx=".378" cy=".351" r=".28" gradientTransform="matrix(1.955 0 0 -1 755.552 4117.898)" gradientUnits="objectBoundingBox"><stop offset="0" stop-color="#805333"></stop><stop offset=".847" stop-color="#845736"></stop><stop offset="1" stop-color="#845736"></stop></radialGradient></defs><g data-name="Vector Smart Object"><g data-name="Group 44"><g clip-path="url(#a)" data-name="Group 43"><path fill="#d2d6fc" d="M10.785 9.132s-.175 2.151-2.851 4.039c0 0 3.676 5.569 6.065 6.97s2.194-.394 2.39-2.129.4-6.212-.561-7.567-5.042-1.313-5.042-1.313" data-name="Path 391"></path><path fill="none" stroke="#6a3ab5" stroke-miterlimit="10" stroke-width=".274" d="M10.785 9.132s-.175 2.151-2.851 4.039c0 0 3.676 5.569 6.065 6.97s2.194-.394 2.39-2.129.4-6.212-.561-7.567-5.043-1.313-5.043-1.313Z" data-name="Path 392"></path><path fill="#d2d6fc" d="M25.695 39.592c-.066.072-.25 2.551-.759 1.7.13.215-.5.2-.373-.147a10.307 10.307 0 0 0 .339-1.925c-.03-.174-.091-.1-.091-.1s-.964 1.475-1.178 1.5-.328-.068-.267-.279.871-1.45.984-1.663 0-.4-.1-.332-1.015 1.333-1.171 1.317-.125-.294-.033-.574.739-.929.8-1.346.038-1.858.038-1.858l1.387.365.59 2.394Z" data-name="Path 393"></path><path fill="none" stroke="#6a3ab5" stroke-miterlimit="10" stroke-width=".274" d="M25.695 39.592c-.066.072-.25 2.551-.759 1.7.13.215-.5.2-.373-.147a10.307 10.307 0 0 0 .339-1.925c-.03-.174-.091-.1-.091-.1s-.964 1.475-1.178 1.5-.328-.068-.267-.279.871-1.45.984-1.663 0-.4-.1-.332-1.015 1.333-1.171 1.317-.125-.294-.033-.574.739-.929.8-1.346.038-1.858.038-1.858l1.387.365.59 2.394Z" data-name="Path 394"></path><path fill="#d2d6fc" d="M24.033 39.468a.7.7 0 0 1-.3-.708 5.553 5.553 0 0 0 .13-1.521 14.813 14.813 0 0 1-.909-1.872 9.194 9.194 0 0 1-.193-1.293c-.073-.246-1.32-2.795-1.989-4.018s-2.182-4.88-2.182-4.88l1.659-4.158a17.952 17.952 0 0 1 2.2 4.654c.409 1.929 1.911 7.72 2.232 8.736s1.037 2.852 1.088 3.337a18.591 18.591 0 0 1-.091 2.407c-.05.391-.427 1.35-.61 1.285s-.2-.414-.194-.676a7.411 7.411 0 0 0 .19-1.724c-.075-.7-.162-1.367-.162-1.367s-.613 1.861-.869 1.8" data-name="Path 395"></path><path fill="none" stroke="#6a3ab5" stroke-miterlimit="10" stroke-width=".274" d="M24.033 39.468a.7.7 0 0 1-.3-.708 5.553 5.553 0 0 0 .13-1.521 14.813 14.813 0 0 1-.909-1.872 9.194 9.194 0 0 1-.193-1.293c-.073-.246-1.32-2.795-1.989-4.018s-2.182-4.88-2.182-4.88l1.659-4.158a17.952 17.952 0 0 1 2.2 4.654c.409 1.929 1.911 7.72 2.232 8.736s1.037 2.852 1.088 3.337a18.591 18.591 0 0 1-.091 2.407c-.05.391-.427 1.35-.61 1.285s-.2-.414-.194-.676a7.411 7.411 0 0 0 .19-1.724c-.075-.7-.162-1.367-.162-1.367s-.614 1.859-.869 1.798Z" data-name="Path 396"></path><path fill="#fff" d="m17.374 12.236.337-.782a4.014 4.014 0 0 1 1.834 2.654 27.257 27.257 0 0 1 .525 5.447Z" data-name="Path 397"></path><path fill="#6a3ab5" d="M17.8 11.714a3.959 3.959 0 0 1 1.571 2.441 22.664 22.664 0 0 1 .49 4.3l-2.291-6.213Zm-.18-.505-.439 1.022 3.078 8.357a32.424 32.424 0 0 0-.533-6.524 3.919 3.919 0 0 0-2.105-2.855" data-name="Path 398"></path><path fill="#d2d6fc" d="M5.624 65.21a20.821 20.821 0 0 1 .051-2.332c.1-1.253-1.989-2.975-1.989-2.975S1.715 62.425 1.8 63.262s2.176 2.707 3.82 1.948" data-name="Path 399"></path><path fill="none" stroke="#6a3ab5" stroke-miterlimit="10" stroke-width=".274" d="M5.624 65.21a20.821 20.821 0 0 1 .051-2.332c.1-1.253-1.989-2.975-1.989-2.975S1.715 62.425 1.8 63.262s2.179 2.707 3.824 1.948Z" data-name="Path 400"></path><path fill="#573095" d="M5.62 63.563s.507.152.472.6.037 3.27.069 3.666.787 1.171 1.16 1.82.9 2.1.086 2.653-2.321.318-3.471-.85-1.768-3.845-2.025-4.372A26.974 26.974 0 0 1 .318 63.8c-.191-.766-.2-1.311-.038-1.5a14.717 14.717 0 0 1 1.92-1.936c.479-.282 1.054-.4 1.216-.261a.543.543 0 0 1-.1.4 5.485 5.485 0 0 0-.57 2.809 2.207 2.207 0 0 0 1.3 1.436c.447.11.788.175.958.02s1.138-.661.615-1.209" data-name="Path 401"></path><path fill="none" stroke="#573095" stroke-miterlimit="10" stroke-width=".335" d="M5.62 63.563s.507.152.472.6.037 3.27.069 3.666.787 1.171 1.16 1.82.9 2.1.086 2.653-2.321.318-3.471-.85-1.768-3.845-2.025-4.372A26.974 26.974 0 0 1 .318 63.8c-.191-.766-.2-1.311-.038-1.5a14.717 14.717 0 0 1 1.92-1.936c.479-.282 1.054-.4 1.216-.261a.543.543 0 0 1-.1.4 5.485 5.485 0 0 0-.57 2.809 2.207 2.207 0 0 0 1.3 1.436c.447.11.788.175.958.02s1.139-.657.616-1.205Z" data-name="Path 402"></path><path fill="#fff" d="M.675 61.844a5.562 5.562 0 0 0 .047 1.613 12.856 12.856 0 0 0 1.587 2.979 17.014 17.014 0 0 1 .9 2.962 3.2 3.2 0 0 0 1.482 2.113c.894.482 2.553.788 3.108-.591a1.292 1.292 0 0 1-.391 1.38c-.814.555-2.321.318-3.471-.85s-1.768-3.843-2.026-4.37A26.974 26.974 0 0 1 .318 63.8c-.191-.766-.2-1.311-.037-1.5.047-.059.2-.231.394-.452" data-name="Path 403"></path><path fill="#381077" d="M5.22 69.1a12.582 12.582 0 0 1-.048-2.835 7.579 7.579 0 0 0-.014-1.61c.314-.222.893-.643.462-1.1 0 0 .507.153.472.6s.037 3.27.069 3.665a.4.4 0 0 0 .016.085 2.632 2.632 0 0 0 .333.784c.23.336.393.95 0 1.151a.881.881 0 0 1-1.29-.74" data-name="Path 404"></path><path fill="#381077" d="M2.2 60.364c.479-.282 1.055-.4 1.217-.261a.551.551 0 0 1-.1.406 5.463 5.463 0 0 0-.57 2.808 2.428 2.428 0 0 0 1.012 1.315 19.2 19.2 0 0 1-1.051 2.8 3.8 3.8 0 0 0-.4-.994 12.856 12.856 0 0 1-1.586-2.981 5.562 5.562 0 0 1-.047-1.613 10.73 10.73 0 0 1 1.525-1.48" data-name="Path 405"></path><path fill="#d2d6fc" d="M16.4 70.313a7.627 7.627 0 0 1-.808-1.939c-.171-.866-2.721-.735-2.721-.735v3.471c0 .484 3.2 1.834 3.529-.8" data-name="Path 406"></path><path fill="none" stroke="#6a3ab5" stroke-miterlimit="10" stroke-width=".274" d="M16.4 70.313a7.627 7.627 0 0 1-.808-1.939c-.171-.866-2.721-.735-2.721-.735v3.471c.004.483 3.206 1.833 3.529-.797Z" data-name="Path 407"></path><path fill="#573095" d="M12.947 68.547a3.81 3.81 0 0 0-.4 1.641 9.949 9.949 0 0 0 .2 2.994 24.942 24.942 0 0 0 1.639 2.108c.605.755 1.8 2.264 2.978 2.5a4.645 4.645 0 0 0 2.856-.288 1.093 1.093 0 0 0 .708-1.306 3.176 3.176 0 0 0-.708-1.294c-.33-.491-1.757-1.94-2.168-2.683a17.176 17.176 0 0 0-1.243-2.2c-.226-.167-.535-.191-.864.215s-.585.934-1.335 1.09a1.363 1.363 0 0 1-1.53-.851c-.174-.491.133-1.832-.134-1.928" data-name="Path 408"></path><path fill="none" stroke="#573095" stroke-miterlimit="10" stroke-width=".335" d="M12.947 68.547a3.81 3.81 0 0 0-.4 1.641 9.949 9.949 0 0 0 .2 2.994 24.942 24.942 0 0 0 1.639 2.108c.605.755 1.8 2.264 2.978 2.5a4.645 4.645 0 0 0 2.856-.288 1.093 1.093 0 0 0 .708-1.306 3.176 3.176 0 0 0-.708-1.294c-.33-.491-1.757-1.94-2.168-2.683a17.176 17.176 0 0 0-1.243-2.2c-.226-.167-.535-.191-.864.215s-.585.934-1.335 1.09a1.363 1.363 0 0 1-1.53-.851c-.173-.489.134-1.83-.133-1.926Z" data-name="Path 409"></path><path fill="#fff" d="M12.557 72.01a4.717 4.717 0 0 0 .524 1.005c.452.646 1.213.946 1.705 1.593s.781 1.676 1.571 2.227a3.825 3.825 0 0 0 2.67.348c.366-.119 1.386-.8 1.889-1.032l.012.049a1.1 1.1 0 0 1-.709 1.307 4.645 4.645 0 0 1-2.856.288c-1.18-.24-2.373-1.75-2.978-2.5a24.942 24.942 0 0 1-1.639-2.108 3.822 3.822 0 0 1-.19-1.172" data-name="Path 410"></path><path fill="#381077" d="M15.6 70.7c.125-.153.233-.315.351-.46a.659.659 0 0 1 .64-.32 2 2 0 0 0 .377.93c.636 1 1.828 3 2.136 3.307s.544.706.134 1.042a1.212 1.212 0 0 1-1.644-.3A30.9 30.9 0 0 1 15.6 70.7" data-name="Path 411"></path><path fill="#381077" d="M12.947 68.547c.266.1-.04 1.437.134 1.928a1.363 1.363 0 0 0 1.49.857 22.042 22.042 0 0 1 .516 3.747 4.12 4.12 0 0 0-.3-.471c-.494-.646-1.254-.946-1.705-1.593a4.712 4.712 0 0 1-.524-1 17.811 17.811 0 0 1-.01-1.822 3.81 3.81 0 0 1 .4-1.641" data-name="Path 412"></path><path fill="#381077" d="M18.438 36.779a21.678 21.678 0 0 1-.956 6.739c-1.075 3.119-2.925 7.786-3.492 9.118s-3.637 4.423-4.616 5.673a34.127 34.127 0 0 0-3.554 4.9 1.63 1.63 0 0 1-1.493-.219c-.9-.521-1.191-3.139-1.191-3.139a30.492 30.492 0 0 0 1.617-3.817c.625-1.893 2.195-4.669 4.077-5.419l3.384-14.609Z" data-name="Path 413"></path><path fill="#573095" d="M6.874 42.247a17.86 17.86 0 0 1-.413-9.179l6.339 2.938s1.755 8.121 2.253 11.518a30.361 30.361 0 0 1 .408 7.468c-.159 2.625-.672 6.552-.374 8.552s1.042 5.589 1.042 5.589a2.543 2.543 0 0 1-3.571 0 21.889 21.889 0 0 0-.994-3.71c-.6-1.445-1.652-3.83-1.591-5.9s1.157-3.493.805-5.589-3.036-8.746-3.9-11.685" data-name="Path 414"></path><path fill="none" stroke="#573095" stroke-miterlimit="10" stroke-width=".335" d="M6.874 42.247a17.86 17.86 0 0 1-.413-9.179l6.339 2.938s1.755 8.121 2.253 11.518a30.361 30.361 0 0 1 .408 7.468c-.159 2.625-.672 6.552-.374 8.552s1.042 5.589 1.042 5.589a2.543 2.543 0 0 1-3.571 0 21.889 21.889 0 0 0-.994-3.71c-.6-1.445-1.652-3.83-1.591-5.9s1.157-3.493.805-5.589-3.036-8.748-3.904-11.687Z" data-name="Path 415"></path><path fill="#fff" d="M11.946 38.667c-2.511 0-3.509-.54-3.739-.69l-.36-4.053-1.537 2.858-.41-.761a7.328 7.328 0 0 1 .77-3.81c.324-.665.747-1.375 1.155-2.061.949-1.593 1.93-3.242 1.915-4.671A7.522 7.522 0 0 0 7.964 21.4l.246-1.368-.154-.047a2.934 2.934 0 0 1-.295-.105c-.628-.269-.79-3.461-.706-5.689l1.563-1.34c.665.875 4.008 5.155 7.227 6.993l.2.111.069-.213a13.113 13.113 0 0 0-.369-8.335l1.724-.019a34.484 34.484 0 0 0 1.356 5.269c1.054 2.571 2.041 4.985 1.183 6.314a2.656 2.656 0 0 1-.825.735A19.352 19.352 0 0 0 17.2 27.92a5.783 5.783 0 0 0 .586 2.415 12.846 12.846 0 0 1 .695 2.253 31.764 31.764 0 0 1 .36 3.622s-.321 1.933-4.823 2.353c-.738.069-1.435.1-2.073.1" data-name="Path 416"></path><path fill="#6a3ab5" d="M17.315 11.575a33.585 33.585 0 0 0 1.345 5.171c1.028 2.51 2 4.88 1.191 6.128a2.467 2.467 0 0 1-.769.68l-.079.05-.045.081a19.2 19.2 0 0 0-1.939 4.215 5.877 5.877 0 0 0 .6 2.5 12.576 12.576 0 0 1 .686 2.22 31.268 31.268 0 0 1 .357 3.558c-.05.2-.578 1.825-4.657 2.205-.731.068-1.423.1-2.055.1a7.438 7.438 0 0 1-3.565-.615l-.3-3.356-.109-1.212-.576 1.075L6.31 36.4l-.217-.4a7.04 7.04 0 0 1 .743-3.7c.32-.658.741-1.365 1.147-2.048.962-1.615 1.956-3.285 1.94-4.767a7.614 7.614 0 0 0-1.764-4.122l.2-1.127.056-.317-.308-.1a2.821 2.821 0 0 1-.276-.1c-.421-.18-.7-2.7-.6-5.436l1.356-1.161c.881 1.152 4.033 5.1 7.163 6.886l.391.222.138-.427a13.131 13.131 0 0 0-.267-8.212Zm.3-.367-2.16.023a12.7 12.7 0 0 1 .479 8.458c-3.584-2.046-7.287-7.1-7.287-7.1l-1.771 1.519s-.224 5.5.814 5.943a3.186 3.186 0 0 0 .31.112l-.23 1.293a7.579 7.579 0 0 1 1.788 4.024c.021 1.991-1.986 4.463-3.051 6.651a7.17 7.17 0 0 0-.767 3.975l.57 1.062 1.41-2.622.313 3.528s.872.775 3.914.775c.606 0 1.3-.03 2.089-.1 4.75-.444 4.99-2.541 4.99-2.541a31.674 31.674 0 0 0-.364-3.646c-.295-1.717-1.418-3.541-1.28-4.613a20.249 20.249 0 0 1 1.9-4.08 2.831 2.831 0 0 0 .881-.792c.912-1.411-.082-3.833-1.167-6.481a36.421 36.421 0 0 1-1.373-5.383" data-name="Path 417"></path><path fill="#260b5b" d="m13.01 37.622-10.691-6.6L6.286 21.3l10.691 6.6Z" data-name="Path 418"></path><path fill="#d4dbdf" d="m12.562 35.028-8.11-5 3.01-7.376 8.11 5Z" data-name="Path 419"></path><path fill="#441090" d="m15.572 27.653-8.11-5-.386.1-3.011 7.377 8.11 5 3.01-7.376Z" data-name="Path 420"></path><path fill="#573095" d="m12.176 35.133-8.11-5 3.01-7.376 8.11 5Z" data-name="Path 421"></path><path fill="none" stroke="#573095" stroke-miterlimit="10" stroke-width=".335" d="m12.176 35.133-8.11-5 3.01-7.376 8.11 5Z" data-name="Path 422"></path><path fill="#441090" d="M8.027 24.422c-.338-.208-.75.118-.75.118l-2.891 7.088 7.793 4.807s.412-.326.75-.118l2.891-7.087Z" data-name="Path 423"></path><path fill="#381077" d="m12.178 36.434-7.793-4.807 2.892-7.087 7.793 4.807Z" data-name="Path 424"></path><path fill="#d4dbdf" d="m12.836 36.33 2.872-7.036a.466.466 0 0 0-.233-.066.588.588 0 0 0-.4.192l-2.85 6.98a.685.685 0 0 1 .608-.07" data-name="Path 425"></path><path fill="#573095" d="M7.023 25.038c-.338-.208-.749.118-.749.118l-2.893 7.087 7.794 4.807s.411-.326.75-.118l2.891-7.086Z" data-name="Path 426"></path><path fill="none" stroke="#573095" stroke-miterlimit="10" stroke-width=".335" d="M7.023 25.038c-.338-.208-.749.118-.749.118l-2.893 7.087 7.794 4.807s.411-.326.75-.118l2.891-7.086Z" data-name="Path 427"></path><path fill="#441090" d="m11.174 37.05-7.793-4.807 2.893-7.086 7.792 4.807Z" data-name="Path 428"></path><path fill="#d4dbdf" d="M11.243 37.125a.691.691 0 0 1 .608-.07l2.871-7.036a.473.473 0 0 0-.232-.066.581.581 0 0 0-.4.193" data-name="Path 429"></path><path fill="#d2d6fc" d="M3.642 27.09s1.912 2.328 2.589 3.244 2.078 2.921 2.46 3.233.392.293.592.326 1.92-.386 2.338-.409 1.682-.118 1.99-.135.491.284.335.454a2.9 2.9 0 0 1-1.356.41c-.56.054-.919.143-.847.439s.835.92 1.005 1l.957-.629a.919.919 0 0 1 .053.941 3.859 3.859 0 0 1-1.673 1.625 2.227 2.227 0 0 1-1.787.215c-.354-.21-1.936-1.469-2.422-1.856s-4.184-4.163-5.15-5.031-2.565-3.035-2.5-3.636 2.481-6.424 3.327-8.33 1.768-3.622 2.594-3.923 3.9.683 2.647 3.3-5.152 8.762-5.152 8.762" data-name="Path 430"></path><path fill="none" stroke="#6a3ab5" stroke-miterlimit="10" stroke-width=".274" d="M3.642 27.09s1.912 2.328 2.589 3.244 2.078 2.921 2.46 3.233.392.293.592.326 1.92-.386 2.338-.409 1.682-.118 1.99-.135.491.284.335.454a2.9 2.9 0 0 1-1.356.41c-.56.054-.919.143-.847.439s.835.92 1.005 1l.957-.629a.919.919 0 0 1 .053.941 3.859 3.859 0 0 1-1.673 1.625 2.227 2.227 0 0 1-1.787.215c-.354-.21-1.936-1.469-2.422-1.856s-4.184-4.163-5.15-5.031-2.565-3.035-2.5-3.636 2.481-6.424 3.327-8.33 1.768-3.622 2.594-3.923 3.9.683 2.647 3.3-5.152 8.762-5.152 8.762Z" data-name="Path 431"></path><path fill="#fff" d="M7.534 21.069c-.419-.572-2.132-2.778-3.87-3.132a11.032 11.032 0 0 1 3.356-3.82c.4.163 2.273 1.15 2.089 5.221a4.428 4.428 0 0 1-1.574 1.731" data-name="Path 432"></path><path fill="#6a3ab5" d="M7.033 14.323c.488.236 2.042 1.282 1.9 4.937a4.132 4.132 0 0 1-1.348 1.568c-.531-.7-2.043-2.536-3.641-3.009a10.692 10.692 0 0 1 3.091-3.5M7 13.917a11.45 11.45 0 0 0-3.619 4.161c1.98.177 4.1 3.226 4.1 3.226a4.33 4.33 0 0 0 1.814-1.956C9.5 14.671 7 13.917 7 13.917" data-name="Path 433"></path><path fill="#441090" d="m17.042 10.105-1.32 1.821 2.669 5.8c1.716-3.4-1.349-7.623-1.349-7.623" data-name="Path 434"></path><path fill="#d2d6fc" d="M17.629 3.628a12.37 12.37 0 0 0 .386 1.623c.151.321-.178.843-.058 1.274a4.394 4.394 0 0 1 .215 2.066c-.182.71-.691 1.749-.729 2.27s0 1.286-1.427 1.315-3.831-1.462-4.983-3.395-2.99-7.687 1.245-8.5 5.351 3.343 5.351 3.343" data-name="Path 435"></path><path fill="none" stroke="#6a3ab5" stroke-miterlimit="10" stroke-width=".274" d="M17.629 3.628a12.37 12.37 0 0 0 .386 1.623c.151.321-.178.843-.058 1.274a4.394 4.394 0 0 1 .215 2.066c-.182.71-.691 1.749-.729 2.27s0 1.286-1.427 1.315-3.831-1.462-4.983-3.395-2.99-7.687 1.245-8.5 5.351 3.347 5.351 3.347Z" data-name="Path 436"></path><path fill="#441090" d="M17.436 3.1c-.366-2.09-5.4-5.426-7.739-.674-3.013 6.115-2.386 11.481.351 12.847s2.445 4.644 2.445 4.644a18.541 18.541 0 0 0 .724-3.762 8.39 8.39 0 0 0-1.45-4.8c-.79-.977.046-4.347.046-4.347s1.9-4.266 3.744-4.488a1.869 1.869 0 0 1 1.947.756 2.608 2.608 0 0 1-.069-.172" data-name="Path 437"></path></g></g><g data-name="Group 46"><g clip-path="url(#b)" data-name="Group 45"><path fill="url(#c)" d="M0 0h.022v.043H0z" data-name="Rectangle 19" transform="translate(17.505 3.272)"></path></g></g><g data-name="Group 48"><g clip-path="url(#a)" data-name="Group 47"><path fill="#441090" d="M16.552 2.581s-2.858-2.69-4.713-2.35C8.049 1.9 10 6.721 10 6.721s1.156-.321 1.581 1.459c5.057-3.246 4.971-5.6 4.971-5.6" data-name="Path 439"></path><path fill="#260b5b" d="M48.5 83.284c-.054 0-2.03-1.611-2.641-.7a2.61 2.61 0 0 0-.269 2.65c.377.806 1.192 1.271 1.333 2.542s.787 1.934 1.865 1.952 1.6-1.5 1.6-2.776Z" data-name="Path 440"></path><path fill="#573095" d="M48.784 89.73c-1.077-.018-1.724-.68-1.865-1.952s-.955-1.737-1.333-2.542a2.548 2.548 0 0 1-.238-.925 2.491 2.491 0 0 0 .238 1.214c.378.806 1.193 1.272 1.333 2.542s.788 1.933 1.865 1.953c.616.01.98-.483 1.178-1.145a1.339 1.339 0 0 1-1.178.856" data-name="Path 441"></path><path fill="#260b5b" d="m40.746 88.584-4.039-2.178c-1.925-.5-4.2-.9-4.343.18-.249 1.861 1.7 3.456 2.746 3.727s2.655.9 3.7 1.243 1.789.324 2.132-.469a5.006 5.006 0 0 0-.2-2.5" data-name="Path 442"></path><path fill="#573095" d="M40.944 91.087c-.343.793-1.084.811-2.131.468s-2.655-.972-3.7-1.243a4.127 4.127 0 0 1-2.763-3.288c-.088 1.773 1.754 3.262 2.763 3.522 1.049.27 2.656.9 3.7 1.243s1.789.324 2.131-.468a1.96 1.96 0 0 0 .112-.819 1.656 1.656 0 0 1-.112.584" data-name="Path 443"></path><path fill="#d2d6fc" d="M58.005 9.752c.02-.82-.579-1.528-.767-2.124a4.606 4.606 0 0 0-1.757-1.733c-.579-.354-1.14-.689-1.551-.5s-1.14.447-1.2.82a5.283 5.283 0 0 0 .729 1.939c.319.6 1.01 2.105.8 2.515s-1.057-.149-1.538-.689-1.551-.587-.863.418c.752 1.1.471 1.414 2.154 2.085s2.211.759 2.453 1.466l2.151-1.565a11.251 11.251 0 0 1-.617-2.627" data-name="Path 444"></path><path fill="none" stroke="#6a3ab5" stroke-miterlimit="10" stroke-width=".274" d="M58.005 9.752c.02-.82-.579-1.528-.767-2.124a4.606 4.606 0 0 0-1.757-1.733c-.579-.354-1.14-.689-1.551-.5s-1.14.447-1.2.82a5.283 5.283 0 0 0 .729 1.939c.319.6 1.01 2.105.8 2.515s-1.057-.149-1.538-.689-1.551-.587-.863.418c.752 1.1.471 1.414 2.154 2.085s2.211.759 2.453 1.466l2.151-1.565a11.251 11.251 0 0 1-.611-2.632Z" data-name="Path 445"></path><path fill="#573095" d="M50.093 49.226a14.949 14.949 0 0 0 .379 2.431 29.468 29.468 0 0 1 .4 7.826 73.843 73.843 0 0 0-.34 9.918 50.935 50.935 0 0 1 .8 8.15c-.144 2.609-.834 9.259-.834 9.259s-.115 1.548-1.5 1.491-2.56-4.07-2.56-4.07a40.765 40.765 0 0 0-.518-6.393c-.46-1.662-.49-6.6-.72-8.237S42.995 56.73 42.995 56.73l-1.41-6.708Z" data-name="Path 446"></path><path fill="none" stroke="#573095" stroke-miterlimit="10" stroke-width=".335" d="M50.093 49.226a14.949 14.949 0 0 0 .379 2.431 29.468 29.468 0 0 1 .4 7.826 73.843 73.843 0 0 0-.34 9.918 50.935 50.935 0 0 1 .8 8.15c-.144 2.609-.834 9.259-.834 9.259s-.115 1.548-1.5 1.491-2.56-4.07-2.56-4.07a40.765 40.765 0 0 0-.518-6.393c-.46-1.662-.49-6.6-.72-8.237S42.995 56.73 42.995 56.73l-1.41-6.708Z" data-name="Path 447"></path><path fill="#573095" d="M36.84 50.252s-2.013 6.248-2.04 9.087.949 8.428 1.294 11.725.4 15.719.4 15.719-.4 2.522 1.582 3.21a2.557 2.557 0 0 0 2.991-.745s.748-6.88 1.006-8.169-.662-8.84-.662-10.129S43.369 60 43.369 60a9.726 9.726 0 0 0 1.668-3.1c.748-2.093 0-7.482 0-7.482Z" data-name="Path 448"></path><path fill="none" stroke="#573095" stroke-miterlimit="10" stroke-width=".335" d="M36.84 50.252s-2.013 6.248-2.04 9.087.949 8.428 1.294 11.725.4 15.719.4 15.719-.4 2.522 1.582 3.21a2.557 2.557 0 0 0 2.991-.745s.748-6.88 1.006-8.169-.662-8.84-.662-10.129S43.369 60 43.369 60a9.726 9.726 0 0 0 1.668-3.1c.748-2.093 0-7.482 0-7.482Z" data-name="Path 449"></path><path fill="#d2d6fc" d="M40.94 30.7a13.119 13.119 0 0 0 .555-3.437c-.189-.727-.893-.728-1.082-1.617a17.9 17.9 0 0 1-.3-5.283 3.662 3.662 0 0 1 2.787-3.128c1.731-.485 4.787.62 5.273 2.614a7.63 7.63 0 0 1-.243 4.878c-.541 1.321-1.406 4.1.136 4.825 0 0 .459 2.21-2.3 2.965S40.94 30.7 40.94 30.7" data-name="Path 450"></path><path fill="none" stroke="#6a3ab5" stroke-miterlimit="10" stroke-width=".274" d="M40.94 30.7a13.119 13.119 0 0 0 .555-3.437c-.189-.727-.893-.728-1.082-1.617a17.9 17.9 0 0 1-.3-5.283 3.662 3.662 0 0 1 2.787-3.128c1.731-.485 4.787.62 5.273 2.614a7.63 7.63 0 0 1-.243 4.878c-.541 1.321-1.406 4.1.136 4.825 0 0 .459 2.21-2.3 2.965S40.94 30.7 40.94 30.7Z" data-name="Path 451"></path><path fill="#441090" d="M48.454 19.141c-.807-1.6-3.215-2.522-5.248-2.393a3.561 3.561 0 0 0-3.2 2.565 2.624 2.624 0 0 0 .037 1.531 14.409 14.409 0 0 0 .047 2.533c.308-.241.873.183.994.488a11.128 11.128 0 0 0 1.3 2.937c.73.944 2.975.863 3.894.539a2.561 2.561 0 0 0 1.075-.819 11.552 11.552 0 0 1 .575-1.8c.034-.082.066-.166.1-.251.366-.742 1.234-3.741.426-5.336" data-name="Path 452"></path><path fill="#5d37a5" d="M47.355 26.523a11.552 11.552 0 0 1 .575-1.8c.034-.082.066-.166.1-.251.024-.05.052-.112.08-.182a8.685 8.685 0 0 1-2.524.408 7.333 7.333 0 0 1-5.574-2.872c0 .505.036 1.038.083 1.547.308-.241.873.183.994.488a11.128 11.128 0 0 0 1.3 2.937c.73.944 2.975.863 3.894.539a2.561 2.561 0 0 0 1.075-.819" data-name="Path 453"></path><path fill="#381077" d="M47.886 29.373s.236 1.312-1.931 1.925-5.066-.76-5.066-.76-2.154 1.2-3.491 1.986c-1.529.9-3.037 1.753-2.014 7.85.679 4.043 1.7 7.209 1.376 8.492s-1.145 2.79.758 3.315 4.549 1.2 6.541.823 6.435-.928 6.874-1.716-.527-3.734-.615-4.318a14.241 14.241 0 0 1-.585-2.568c.058-.671 3.016-7 3.572-8.521s3.924-4.729 5.271-6.158a25.832 25.832 0 0 0 2.789-3.943l-3.723-2.646A38.772 38.772 0 0 1 53.8 26.57c-1.113.7-4.1 2.542-5.917 2.8" data-name="Path 454"></path><path fill="#381077" d="M61.865 21.947c-.246-.877-3.127-9.9-3.127-9.9a3.649 3.649 0 0 1-2.786 1.388l1.071 10.639 3.585 2.432c1.576-.885 1.5-3.681 1.257-4.558" data-name="Path 455"></path><path fill="#d2d6fc" d="M32.747 60.972c-.192-.156-.908-.783-.908-.783s.192-.192.384-1.741a9.855 9.855 0 0 0 .035-2.523l-2.445-.349a9.538 9.538 0 0 0-1.117 1.9A10.075 10.075 0 0 0 29.255 60a4.337 4.337 0 0 0 1.711 1.376 2.475 2.475 0 0 0 1.169.069c.332 0 .8-.314.611-.47" data-name="Path 456"></path><path fill="none" stroke="#6a3ab5" stroke-miterlimit="10" stroke-width=".274" d="M32.747 60.972c-.192-.156-.908-.783-.908-.783s.192-.192.384-1.741a9.855 9.855 0 0 0 .035-2.523l-2.445-.349a9.538 9.538 0 0 0-1.117 1.9A10.075 10.075 0 0 0 29.255 60a4.337 4.337 0 0 0 1.711 1.376 2.475 2.475 0 0 0 1.169.069c.332-.003.804-.317.612-.473Z" data-name="Path 457"></path><path fill="#381077" d="M37.424 32.64c-1.709.84-2.433 1.621-3.23 4.711s-1.115 8.743-1.842 10.917-2.763 7.3-2.763 7.3.811 2.126 1.89 1.885c2.345-.526 2.694-2.513 3.518-4.155a42.531 42.531 0 0 0 3.075-8.007c1.066-3.831 3.1-14.486-.648-12.646" data-name="Path 458"></path><path fill="#a2acf8" d="M41.754 49.852a6.884 6.884 0 0 1-1.677-.151.591.591 0 0 1-.321-.331c-1.191-2.318.463-13.655 1.418-16.319.485-1.355 2.621-2.416 4.865-2.416a4.885 4.885 0 0 1 5 3.45c.93 3.2 1.48 10.039.767 12.641-.57 2.082-6.751 3.126-10.05 3.126" data-name="Path 459"></path><path fill="#6a3ab5" d="M46.04 30.8a4.728 4.728 0 0 1 4.837 3.33c.9 3.117 1.459 10.022.766 12.55-.5 1.834-6.192 3-9.889 3a6.742 6.742 0 0 1-1.631-.144c-.069-.02-.147-.107-.218-.246-1.144-2.229.5-13.608 1.427-16.187.462-1.293 2.531-2.3 4.708-2.306m0-.334c-2.267 0-4.5 1.063-5.023 2.527-1.031 2.877-2.953 16.3-.985 16.866a6.926 6.926 0 0 0 1.723.158c3.351 0 9.608-1.045 10.213-3.25.74-2.7.122-9.667-.768-12.732a5.009 5.009 0 0 0-5.16-3.57" data-name="Path 460"></path><path fill="#573095" d="M46.428 29.5a6.079 6.079 0 0 1 4.127 3.128c-2.367-3.558-8.612-2.226-9.538.358-1 2.8-2.847 15.573-1.135 16.789l-.007.01s-3.379-2.194-3.961-4.111S37.82 35.3 38.569 32.842c1.009-3.32 4.284-4.132 7.859-3.338" data-name="Path 461"></path><path fill="none" stroke="#573095" stroke-miterlimit="10" stroke-width=".335" d="M46.428 29.5a6.079 6.079 0 0 1 4.127 3.128c-2.367-3.558-8.612-2.226-9.538.358-1 2.8-2.847 15.573-1.135 16.789l-.007.01s-3.379-2.194-3.961-4.111S37.82 35.3 38.569 32.842c1.009-3.319 4.284-4.132 7.859-3.342Z" data-name="Path 462"></path><path fill="#381077" d="M45.2 29.73a7.868 7.868 0 0 1 3.008.451 5.758 5.758 0 0 1 1.714 1.519 6.848 6.848 0 0 0-4.694-1.51c-2.163.1-4.139 1.152-4.6 2.438a43.733 43.733 0 0 0-1.838 9.542l-.465-.032a44.432 44.432 0 0 1 1.864-9.665c.528-1.473 2.639-2.629 5.011-2.743" data-name="Path 463"></path><path fill="#381077" d="M44.853 28.459a3.027 3.027 0 0 1 2.841 1.475l.2.272a3 3 0 0 0-2.464-.969 3.624 3.624 0 0 0-2.85 1.574l-.58-.777a3.626 3.626 0 0 1 2.85-1.574" data-name="Path 464"></path><path fill="#381077" d="M39.738 30.685s-1.217-.838-1.767-.153a22.913 22.913 0 0 0-1.551 2.686l1.945-.423Z" data-name="Path 465"></path><path fill="#381077" d="M48.281 30.4c-.371-.5-.234-1.786.506-1.917a1.713 1.713 0 0 1 1.213.193l-.278 2.5a5.624 5.624 0 0 1-1.44-.78" data-name="Path 466"></path><path fill="#5d37a5" d="M49.075 32.269s2.471 8.031 2.257 14.046c0 0-.563.556-.545.272.317-4.721-2.43-14.318-2.43-14.318Z" data-name="Path 467"></path></g></g></g></svg>