<svg xmlns="http://www.w3.org/2000/svg" xmlns:xlink="http://www.w3.org/1999/xlink" data-name="Vector Smart Object" viewBox="0.01 0 55.99 95.99"><defs><clipPath id="c"><path fill="none" d="M0 0h56v96H0z" data-name="Rectangle 36"></path></clipPath><clipPath id="d"><path fill="none" d="M0 0h56v96H0z" data-name="Rectangle 24"></path></clipPath><clipPath id="e"><path fill="none" d="M38.76 44.571h15.214v21.621H38.76z" data-name="Rectangle 23"></path></clipPath><clipPath id="f"><path fill="none" d="M44.809 49.952" data-name="Path 755"></path></clipPath><clipPath id="g"><path fill="none" d="M48.832 47.668v.3l.606.35v-.3a.256.256 0 0 0-.116-.2l-.374-.218a.106.106 0 0 0-.052-.015c-.037 0-.064.031-.064.082" data-name="Path 756"></path></clipPath><clipPath id="h"><path fill="none" d="M48.845 47.613" data-name="Path 757"></path></clipPath><clipPath id="j"><path fill="none" d="M48.853 47.6c.02-.022.055-.025.095 0l.374.218a.256.256 0 0 1 .116.2v.3l.093-.059v-.3a.257.257 0 0 0-.116-.2l-.373-.216a.1.1 0 0 0-.052-.013.186.186 0 0 0-.137.074" data-name="Path 758"></path></clipPath><clipPath id="l"><path fill="none" d="M48.437 46.779a.5.5 0 0 1 0 .061v1.507l.39.173v-1.471c0-.2-.1-.308-.24-.308a.37.37 0 0 0-.155.039" data-name="Path 761"></path></clipPath><clipPath id="n"><path fill="none" d="M44.2 50.32" data-name="Path 762"></path></clipPath><clipPath id="p"><path fill="none" d="M48.221 48.037v.3l.606.352v-.3a.257.257 0 0 0-.115-.2l-.375-.216a.1.1 0 0 0-.05-.015c-.039 0-.066.029-.066.082" data-name="Path 763"></path></clipPath><clipPath id="r"><path fill="none" d="M48.235 47.983" data-name="Path 764"></path></clipPath><clipPath id="t"><path fill="none" d="M48.242 47.973a.074.074 0 0 1 .095 0l.375.216a.257.257 0 0 1 .115.2v.3l.094-.059v-.3a.258.258 0 0 0-.116-.2l-.374-.216a.1.1 0 0 0-.052-.013.188.188 0 0 0-.137.074" data-name="Path 765"></path></clipPath><linearGradient id="a" x1="-7964.076" x2="-7755.86" y1="7837.398" y2="7837.398" gradientUnits="objectBoundingBox"><stop offset="0" stop-color="#b48025"></stop><stop offset=".006" stop-color="#b48025"></stop><stop offset=".36" stop-color="#efe0a5"></stop><stop offset=".753" stop-color="#855e13"></stop><stop offset="1" stop-color="#b48025"></stop></linearGradient><linearGradient id="b" x1="-51.94" x2="-50.69" y1="50.783" y2="50.783" gradientUnits="objectBoundingBox"><stop offset="0" stop-color="#825200"></stop><stop offset=".006" stop-color="#825200"></stop><stop offset=".36" stop-color="#bdae77"></stop><stop offset=".753" stop-color="#572c00"></stop><stop offset="1" stop-color="#825200"></stop></linearGradient><linearGradient xlink:href="#a" id="i" x1="-7445.426" x2="-7266.854" y1="7348.918" y2="7348.918"></linearGradient><linearGradient xlink:href="#a" id="k" x1="-47.929" x2="-46.775" y1="46.556" y2="46.556"></linearGradient><linearGradient id="m" x1="-117.415" x2="-114.574" y1="27.611" y2="27.611" gradientUnits="objectBoundingBox"><stop offset="0" stop-color="#455257"></stop><stop offset=".543" stop-color="#2e373a"></stop><stop offset=".648" stop-color="#1e2426"></stop><stop offset="1" stop-color="#1e2426"></stop></linearGradient><linearGradient xlink:href="#a" id="o" x1="-7861.84" x2="-7653.458" y1="7774.608" y2="7774.608"></linearGradient><linearGradient xlink:href="#b" id="q" x1="-51.288" x2="-50.037" y1="50.397" y2="50.397"></linearGradient><linearGradient xlink:href="#a" id="s" x1="-8239.226" x2="-8039.116" y1="8510.31" y2="8510.31"></linearGradient><linearGradient xlink:href="#a" id="u" x1="-47.283" x2="-46.131" y1="46.171" y2="46.171"></linearGradient></defs><g data-name="Group 104"><g clip-path="url(#c)" data-name="Group 103"><g data-name="Group 80"><g clip-path="url(#d)" data-name="Group 79"><path fill="#d2d6fc" d="M28.2 34.825c-.774 1.165-1.079 2.013-1.387 2.5a3.127 3.127 0 0 0-.647 1.98c.032.9 1.205 3.688 1.94 3.8.581.087.959-.515 1.084-.9a2.507 2.507 0 0 0 .028-.629 3.375 3.375 0 0 1-.246-1.292 9.016 9.016 0 0 0-.045-1.445c.613-.39.716-.648 1.067-1.606 0 0 .467-1.637-.26-2.287a1.285 1.285 0 0 0-1.535-.115" data-name="Path 703"></path><path fill="none" stroke="#6a3ab5" stroke-miterlimit="10" stroke-width=".587" d="M28.2 34.825c-.774 1.165-1.079 2.013-1.387 2.5a3.127 3.127 0 0 0-.647 1.98c.032.9 1.205 3.688 1.94 3.8.581.087.959-.515 1.084-.9a2.507 2.507 0 0 0 .028-.629 3.375 3.375 0 0 1-.246-1.292 9.016 9.016 0 0 0-.045-1.445c.613-.39.716-.648 1.067-1.606 0 0 .467-1.637-.26-2.287a1.285 1.285 0 0 0-1.534-.121Z" data-name="Path 704"></path><path fill="#d2d6fc" d="M22.839 43.77s2.546-2.576 2.568-2.786a7.041 7.041 0 0 1-.21-1.692c.117-.543.337-1.018.394-1.257s.043-.793.635-.774.3.79.337 1.027-.142.673.777.5a8.1 8.1 0 0 0 1.678-.41c.225-.122.5-.008.634.436a.518.518 0 0 1-.137.507s.262.275.224.5a1.478 1.478 0 0 1-.323.533 1.942 1.942 0 0 1-.13 1.03c-.225.454-.826 1.5-1.5 1.736a5.782 5.782 0 0 0-1.625 1.324c-1.18 1.4-2.792 3.571-2.792 3.571Z" data-name="Path 705"></path><path fill="none" stroke="#6a3ab5" stroke-miterlimit="10" stroke-width=".587" d="M22.839 43.77s2.546-2.576 2.568-2.786a7.041 7.041 0 0 1-.21-1.692c.117-.543.337-1.018.394-1.257s.043-.793.635-.774.3.79.337 1.027-.142.673.777.5a8.1 8.1 0 0 0 1.678-.41c.225-.122.5-.008.634.436a.518.518 0 0 1-.137.507s.262.275.224.5a1.478 1.478 0 0 1-.323.533 1.942 1.942 0 0 1-.13 1.03c-.225.454-.826 1.5-1.5 1.736a5.782 5.782 0 0 0-1.625 1.324c-1.18 1.4-2.792 3.571-2.792 3.571Z" data-name="Path 706"></path><path fill="#d2d6fc" d="M27.864 42.761c.007.148.075.493.4.4s.485-.516.485-.516a.692.692 0 0 0 .463-.381c.209-.355.308-.867.063-.963s-.649.283-.788.627c0 0-.661-.048-.623.831" data-name="Path 707"></path><path fill="none" stroke="#6a3ab5" stroke-miterlimit="10" stroke-width=".587" d="M27.864 42.761c.007.148.075.493.4.4s.485-.516.485-.516a.692.692 0 0 0 .463-.381c.209-.355.308-.867.063-.963s-.649.283-.788.627c0 .002-.661-.046-.623.833Z" data-name="Path 708"></path><path fill="#d2d6fc" d="M28.542 38.272a1.566 1.566 0 0 1-.4.327s.382 1.67.025 1.761c-.671.173-.887-1.077-1.015-1.443a4.205 4.205 0 0 1-.239-1.765 1.138 1.138 0 0 1 .458-.644" data-name="Path 709"></path><path fill="none" stroke="#6a3ab5" stroke-miterlimit="10" stroke-width=".587" d="M28.542 38.272a1.566 1.566 0 0 1-.4.327s.382 1.67.025 1.761c-.671.173-.887-1.077-1.015-1.443a4.205 4.205 0 0 1-.239-1.765 1.138 1.138 0 0 1 .458-.644" data-name="Path 710"></path><path fill="#fff" d="M30.013 36.525a2.676 2.676 0 0 0-1.823-1.439l.156-1.172-.034-.075a1.24 1.24 0 0 1-.036-.6c.278-1.873 1.292-6.158 1.747-7.682.242-.809 3.181-7.159 4.435-9.87l.418-.907a4.081 4.081 0 0 1 2.2-2l-1.155 10.6-2.432 4.562c-.032.085-1.235 3.805-1.608 4.814-.034.089-.082.233-.143.412a18.5 18.5 0 0 1-.8 2.065.772.772 0 0 1-.356.369l-.1.04-.055.1Z" data-name="Path 711"></path><path fill="#6a3ab5" d="m36.725 13.268-1.086 9.964-2.413 4.568-.023.045-.016.049c-.012.038-1.211 3.751-1.584 4.755-.034.091-.083.238-.145.42a18.778 18.778 0 0 1-.779 2.027.574.574 0 0 1-.191.223l-.213.079-.105.2-.17.328a2.991 2.991 0 0 0-1.478-1.056l.11-.835.012-.163-.052-.138a1 1 0 0 1-.02-.456c.276-1.865 1.286-6.127 1.738-7.641.237-.794 3.292-7.395 4.442-9.88l.4-.858a3.616 3.616 0 0 1 1.579-1.631m.692-.918a4.47 4.47 0 0 0-2.806 2.3c-.85 1.843-4.588 9.875-4.869 10.817-.479 1.6-1.484 5.879-1.757 7.723a1.492 1.492 0 0 0 .059.767l-.182 1.378a2.386 2.386 0 0 1 2.1 1.924l.729-1.386a1.045 1.045 0 0 0 .513-.51 25.554 25.554 0 0 0 .951-2.507c.381-1.029 1.592-4.78 1.592-4.78l2.466-4.667Z" data-name="Path 712"></path><path fill="#d2d6fc" d="M4.231 62.288c-.415-.066-1.354-2.067-1.275-2.712a14.036 14.036 0 0 0 .015-1.892l1.279-.244.74 3.21c-.2.914-.573 1.639-.752 1.639Z" data-name="Path 713"></path><path fill="#6a3ab5" d="m4.028 57.782.662 2.869a4.672 4.672 0 0 1-.476 1.272 5.067 5.067 0 0 1-.965-2.308 12.737 12.737 0 0 0 .027-1.689Zm.444-.683-1.8.346a16.666 16.666 0 0 1 0 2.1c-.083.655.842 2.931 1.519 3.038a.38.38 0 0 0 .052 0c.647 0 1.052-1.933 1.052-1.933Z" data-name="Path 714"></path><path fill="#a2acf8" d="m2.735 54.489-.1-.08a1.351 1.351 0 0 1-.394-.5 2.543 2.543 0 0 1-.073-.531 5.805 5.805 0 0 0-.452-1.972 29.427 29.427 0 0 1-.828-4.962C.739 45.239.6 44.1.463 43.354a29.686 29.686 0 0 1 .307-8.333 3 3 0 0 1 1.209-1.881c.383 2.03.913 4.984.933 5.5-.062.393.108 2.583 2.068 18.044l-2.059.523Z" data-name="Path 715"></path><path fill="#6a3ab5" d="M1.782 33.677c.437 2.339.84 4.681.838 5.008a.4.4 0 0 1 .013-.1c-.088.647.182 3.349 2.023 17.878l-1.468.373-.153-2.236-.018-.262-.205-.161a1.1 1.1 0 0 1-.3-.356 2.566 2.566 0 0 1-.06-.464 5.978 5.978 0 0 0-.474-2.065 30.453 30.453 0 0 1-.807-4.886C1.03 45.2.891 44.054.75 43.3a29.912 29.912 0 0 1 .3-8.2 3.423 3.423 0 0 1 .73-1.424m.418-.948s-1.139.209-1.709 2.212a29.994 29.994 0 0 0-.314 8.467c.371 1.99.743 6.869 1.27 8.113A9.423 9.423 0 0 1 1.958 54a1.655 1.655 0 0 0 .493.644l.2 2.941 2.649-.677S3 38.742 3.174 38.741l.012.009c.153 0-.99-6.024-.99-6.024" data-name="Path 716"></path><path fill="#d2d6fc" d="M5.131 32.513a5.674 5.674 0 0 0 .6-2.432c-.045-1.686-1.453-2.4-1.358-4.74s1.42-4.284 2.74-4.82 4.411-.668 5.77 1.473 1.038 2.86.831 3.257.075.909.114 1.212a9.266 9.266 0 0 1-.785 3.628c-.433.668-1.461.293-1.631.671a5.159 5.159 0 0 0 .452 3.39s-2.509 2.027-5.283 1.4a1.965 1.965 0 0 1-1.446-3.042" data-name="Path 717"></path><path fill="none" stroke="#6a3ab5" stroke-miterlimit="10" stroke-width=".587" d="M5.131 32.513a5.674 5.674 0 0 0 .6-2.432c-.045-1.686-1.453-2.4-1.358-4.74s1.42-4.284 2.74-4.82 4.411-.668 5.77 1.473 1.038 2.86.831 3.257.075.909.114 1.212a9.266 9.266 0 0 1-.785 3.628c-.433.668-1.461.293-1.631.671a5.159 5.159 0 0 0 .452 3.39s-2.509 2.027-5.283 1.4a1.965 1.965 0 0 1-1.45-3.039Z" data-name="Path 718"></path><path fill="#441090" d="M11.8 20.072a6.319 6.319 0 0 0-5.8.64 5.356 5.356 0 0 0-1.08 7.076 6.008 6.008 0 0 1 .8 2.066 3.249 3.249 0 0 0 2.376.693c1.71-.153 2.165-.754 2.28-1.527s1.056-2.448 1.94-1.925l.351-.354a4.608 4.608 0 0 1 .246-1.6c.176-.186-.05-1.386.22-2.119a.923.923 0 0 0 .382-.387c.389-.743-.288-1.785-1.713-2.566" data-name="Path 719"></path><path fill="#441090" d="M10.369 29.023c.114-.773 1.054-2.448 1.939-1.925l.353-.354a8.1 8.1 0 0 1 .117-1.276 22.434 22.434 0 0 1-3.236 2.411c-.887.434-3.1.275-4.631-.089a5.981 5.981 0 0 1 .8 2.068 3.251 3.251 0 0 0 2.376.693c1.71-.154 2.167-.755 2.281-1.527" data-name="Path 720"></path><path fill="#d2d6fc" d="M45.694 9.145s-.307 2.248.52 3.283c0 0-3.355 4.472-5.955 3.809s-.685-3.512-.685-3.512Z" data-name="Path 721"></path><path fill="none" stroke="#6a3ab5" stroke-miterlimit="10" stroke-width=".587" d="M45.694 9.145s-.307 2.248.52 3.283c0 0-3.355 4.472-5.955 3.809s-.685-3.512-.685-3.512Z" data-name="Path 722"></path><path fill="#210b4c" d="M40.663 74.107c-1.147.667-1.92 1.877-4.216 3.042-1.333.676-4.556 1.217-4.431-.267a1.5 1.5 0 0 1 .046-.248 1.932 1.932 0 0 0-.194.64c-.125 1.484 3.1.944 4.431.267 2.3-1.165 3.069-2.374 4.216-3.042a9.37 9.37 0 0 1 .5-.265v.359l2.285-1.076a2.48 2.48 0 0 0 .13-.824c-.294.259-1.955.943-2.765 1.415" data-name="Path 723"></path><path fill="#381077" d="M38.923 71.212c-.571-.119-.018-1.359-2.38 1.112a3.684 3.684 0 0 1-.555.319c-1.324.6-3.855 2.877-3.97 4.239-.125 1.484 3.1.944 4.431.267 2.295-1.165 3.069-2.374 4.216-3.042.87-.506 2.726-1.259 2.808-1.465a2.349 2.349 0 0 0 .121-.543c-2.6-2.371-3.534-.649-4.67-.887" data-name="Path 724"></path><path fill="#381077" d="M41.045 74.761a3.7 3.7 0 0 1-.266.426c-.439.567-3.608 4.629-1.789 5.574s4.879-.676 5.522-2.047.533-2.3 1.35-3.117a4.2 4.2 0 0 0 1.246-1.935c-.739-.771-1.6-.243-3.093-.026-.851.123-1.469-.335-2.971 1.126" data-name="Path 725"></path><path fill="#210b4c" d="M47.112 73.658a4.179 4.179 0 0 1-1.251 1.942c-.815.818-.7 1.749-1.348 3.118s-3.7 2.991-5.521 2.047a.991.991 0 0 1-.547-.807 1.111 1.111 0 0 0 .547 1.216c1.819.944 4.878-.677 5.521-2.047.628-1.335.541-2.251 1.29-3.054l.022.259a6.436 6.436 0 0 0 1.407-1.732l-.048-.991-.071.052" data-name="Path 726"></path><path fill="#573095" d="M34.46 35.614a41.52 41.52 0 0 0-.49 11.787c.712 6.027 2.693 14.349 2.713 16.654.023 2.61-.7 8.587-.7 8.587s4.017 1.045 7.028-1.025L41.178 39.41Z" data-name="Path 727"></path><path fill="none" stroke="#573095" stroke-miterlimit="10" stroke-width=".542" d="M34.46 35.614a41.52 41.52 0 0 0-.49 11.787c.712 6.027 2.693 14.349 2.713 16.654.023 2.61-.7 8.587-.7 8.587s4.017 1.045 7.028-1.025L41.178 39.41Z" data-name="Path 728"></path><path fill="#6035a4" d="M47.109 54.589c.251-2.366 2.988-10.582.819-17.457l-9.132.931s.825 14.516 1.358 18.356 1.592 15.037.418 19.037c0 0 4.565 1.049 6.611-1.851 0 0 .934-8.346.711-10.847s-1.036-5.8-.785-8.17" data-name="Path 729"></path><path fill="#fff" d="M41.017 38.447a13.727 13.727 0 0 1-2.313-.18 6.779 6.779 0 0 1-4.459-2.529 4.53 4.53 0 0 1 .419-1.57 8.235 8.235 0 0 0 .356-1.077 21.2 21.2 0 0 0 .138-2.465c.029-1.044.062-2.227.148-3.015.172-1.606.153-4.746.152-4.879v-.062l-.027-.06a6.33 6.33 0 0 1-.105-3.241c.392-2.5 1.276-5.569 2.228-6.728l2-.068c-.309.958-.682 2.494-.027 2.86a6.263 6.263 0 0 0 2.515.718 1.35 1.35 0 0 0 .928-.288c.559-.5 2.546-2.175 2.908-2.48l.787-.161a29.982 29.982 0 0 1 4.424 4.507c-.644 3.489-1.763 8.831-2.272 9.588a15.319 15.319 0 0 0-1.715 4.5 27.017 27.017 0 0 0 .654 4.576l.037.156c.131.527.166.86-.478 1.039a26.278 26.278 0 0 1-6.3.856" data-name="Path 730"></path><path fill="#6a3ab5" d="M39.149 12.883c-.446 1.529-.368 2.472.234 2.808a6.567 6.567 0 0 0 2.659.755 1.627 1.627 0 0 0 1.125-.362c.526-.474 2.366-2.024 2.844-2.426l.575-.119a29.778 29.778 0 0 1 4.19 4.261c-.663 3.568-1.753 8.68-2.2 9.349a15.706 15.706 0 0 0-1.762 4.627 25.123 25.123 0 0 0 .656 4.676l.04.168c.127.5.119.574-.272.683a25.942 25.942 0 0 1-6.219.844 13.5 13.5 0 0 1-2.261-.174 6.711 6.711 0 0 1-4.226-2.314 5.71 5.71 0 0 1 .412-1.391 8.4 8.4 0 0 0 .368-1.121 20.271 20.271 0 0 0 .145-2.518c.028-1.038.061-2.214.145-2.991.175-1.623.156-4.779.155-4.912v-.129l-.048-.111a6.167 6.167 0 0 1-.084-3.075c.366-2.333 1.2-5.3 2.084-6.485Zm.822-.62-2.554.087c-1.1 1.217-2.013 4.627-2.38 6.974a6.422 6.422 0 0 0 .129 3.41s.022 3.237-.151 4.845-.13 4.714-.281 5.452-.974 2.325-.758 2.824a7.012 7.012 0 0 0 4.68 2.7 13.993 13.993 0 0 0 2.361.183 26.7 26.7 0 0 0 6.379-.867c1.081-.3.736-1.13.649-1.543a27.222 27.222 0 0 1-.649-4.474 15.1 15.1 0 0 1 1.667-4.377c.736-1.1 2.338-9.824 2.338-9.824a30.321 30.321 0 0 0-4.656-4.753l-1 .2s-2.357 1.979-2.973 2.535a1.084 1.084 0 0 1-.732.212 5.98 5.98 0 0 1-2.373-.681c-.622-.348.3-2.911.3-2.911" data-name="Path 731"></path><path fill="#573095" d="M41.061 18.028 40.27 16l-1.331 1.552.317 1.435a58.507 58.507 0 0 0-2.724 15.84l1.257 2.3 1.384-1.395s.373-8.9.6-10.78.35-5.843.35-5.843Z" data-name="Path 732"></path><path fill="none" stroke="#573095" stroke-miterlimit="10" stroke-width=".542" d="M41.061 18.028 40.27 16l-1.331 1.552.317 1.435a58.507 58.507 0 0 0-2.724 15.84l1.257 2.3 1.384-1.395s.373-8.9.6-10.78.35-5.843.35-5.843Z" data-name="Path 733"></path><path fill="#fff" d="M40.565 15.537h.128c1.094 0 3.113-1.09 5.057-3.477l.635.851c-.528.789-2.833 4.1-5.033 5.028ZM38.8 16.984a6.481 6.481 0 0 1 .6-2.957 1.856 1.856 0 0 0 .717 1.363Z" data-name="Path 734"></path><path fill="#6a3ab5" d="m45.736 12.541.287.383c-.648.948-2.594 3.631-4.495 4.612l-.561-1.717c1.149-.149 2.987-1.193 4.769-3.278m-6.38 2.386a1.812 1.812 0 0 0 .346.5l-.572.694a6.154 6.154 0 0 1 .226-1.2m6.4-3.344c-2.027 2.613-4.106 3.665-5.063 3.665a.78.78 0 0 1-.348-.068c-.829-.415-.676-2.071-.676-2.071-1.519 1.737-1.114 4.638-1.114 4.638l1.736-2.1.876 2.686c2.7-.895 5.576-5.425 5.576-5.425Z" data-name="Path 735"></path><path fill="#381077" d="M5.022 90.781s-.24 2.018.283 2.391a2.1 2.1 0 0 0 2.207 0c.613-.461 1.2-1.886 2.141-2.149s3.249-1.4 3.43-2.741-2.273-1.492-3.737-.987-4.325 3.486-4.325 3.486" data-name="Path 736"></path><path fill="#381077" d="M19.923 91.787c-.353-.654-1.041-.664-3.162-.675-2.1-.011-2.967.352-3.715-.16l-4.731 1.367s-.455 2.468-.107 3 1.55.885 3.074.536a19.1 19.1 0 0 1 4.33-.348c1.31 0 5.676-1.191 4.311-3.725" data-name="Path 737"></path><path fill="#573095" d="m9.331 55.289-5.11-2.161a22.153 22.153 0 0 0-.7 5.026c-.043 2.688 1.681 7.008 1.769 9.874a46.318 46.318 0 0 1-1.045 8.242 38.721 38.721 0 0 0 0 7.494c.281 2.468.72 8.683.72 8.683s5.445.088 5.49-4.54c0 0 1.053-8.466 1.186-12.96s-2.31-19.658-2.31-19.658" data-name="Path 738"></path><path fill="none" stroke="#573095" stroke-miterlimit="10" stroke-width=".542" d="m9.331 55.289-5.11-2.161a22.153 22.153 0 0 0-.7 5.026c-.043 2.688 1.681 7.008 1.769 9.874a46.318 46.318 0 0 1-1.045 8.242 38.721 38.721 0 0 0 0 7.494c.281 2.468.72 8.683.72 8.683s5.445.088 5.49-4.54c0 0 1.053-8.466 1.186-12.96s-2.31-19.658-2.31-19.658Z" data-name="Path 739"></path><path fill="#4c2a83" d="M7.582 54.484s-1.277 2.6-.224 6.876S9.952 74.043 9.6 76.071s-1.011 3.238-1.2 6.809-.322 11.827-.322 11.827 5.847-.248 7.346-3.379c0 0-1.037-6.42-.384-9.9s2.221-10.154 2.573-15.664a50.5 50.5 0 0 0-.737-11.135s-2.446 2.766-9.3-.143" data-name="Path 740"></path><path fill="none" stroke="#4c2a83" stroke-miterlimit="10" stroke-width=".589" d="M7.582 54.484s-1.277 2.6-.224 6.876S9.952 74.043 9.6 76.071s-1.011 3.238-1.2 6.809-.322 11.827-.322 11.827 5.847-.248 7.346-3.379c0 0-1.037-6.42-.384-9.9s2.221-10.154 2.573-15.664a50.5 50.5 0 0 0-.737-11.135s-2.443 2.764-9.294-.145Z" data-name="Path 741"></path><path fill="#a2acf8" d="M13.313 56.094a11.645 11.645 0 0 1-3.807-.629c-1.044-.39-1.924-.628-2.7-.838a11.357 11.357 0 0 1-2.263-.773c-.7-.359-.349-1.955-.1-3.123a6.65 6.65 0 0 0 .217-1.377 14.55 14.55 0 0 0-1.757-5.609 18.01 18.01 0 0 1-1.633-7.468 4.962 4.962 0 0 1 1.1-3.3l3.14-1.19a6.609 6.609 0 0 0 4.018 1.4 8.587 8.587 0 0 1 1.921.294 38.089 38.089 0 0 0 3.82 3.108c.169.958.69 9.089.683 11.308a18.7 18.7 0 0 0 .72 5.872 1.432 1.432 0 0 1-.06 1.376c-.47.6-1.675.947-3.3.947" data-name="Path 742"></path><path fill="#6a3ab5" d="M5.447 32.127a7.058 7.058 0 0 0 4.062 1.356 8.872 8.872 0 0 1 1.79.263A37.6 37.6 0 0 0 15 36.76c.182 1.339.667 9.024.661 11.14a18.929 18.929 0 0 0 .747 6 1.169 1.169 0 0 1-.014 1.057c-.417.53-1.567.847-3.077.847a11.347 11.347 0 0 1-3.705-.61 28.466 28.466 0 0 0-2.727-.848 11.037 11.037 0 0 1-2.2-.749c-.5-.255-.137-1.908.056-2.8a6.7 6.7 0 0 0 .224-1.453 14.919 14.919 0 0 0-1.791-5.737 17.7 17.7 0 0 1-1.6-7.331 4.652 4.652 0 0 1 .966-3.046Zm.13-.677L2.2 32.73a5.117 5.117 0 0 0-1.221 3.551 18.212 18.212 0 0 0 1.669 7.6 14.482 14.482 0 0 1 1.722 5.48c.036.977-1.234 4.1.037 4.753s2.772.79 5 1.625a11.883 11.883 0 0 0 3.91.647c1.526 0 2.937-.308 3.537-1.07a1.735 1.735 0 0 0 .087-1.67 18.435 18.435 0 0 1-.694-5.746c.007-2.341-.571-11.385-.724-11.492a36.865 36.865 0 0 1-3.923-3.185 8.348 8.348 0 0 0-2.056-.328 6.1 6.1 0 0 1-3.967-1.445" data-name="Path 743"></path><path fill="#a2acf8" d="M11.941 34.02a22.165 22.165 0 0 1-5.467-.507 3.25 3.25 0 0 1-1.842-1.485l1.04-.867a6.489 6.489 0 0 0 3.683 1.259l.206.02a4.743 4.743 0 0 1 1.851 1.008l.641.573Z" data-name="Path 744"></path><path fill="#6a3ab5" d="M5.673 31.542a7 7 0 0 0 3.655 1.169l.2.02a4.389 4.389 0 0 1 1.679.929l.069.062a17.525 17.525 0 0 1-4.7-.484 3.138 3.138 0 0 1-1.562-1.145Zm.009-.771-1.407 1.171a3.326 3.326 0 0 0 2.1 1.847 21.873 21.873 0 0 0 5.569.524c.532 0 .873-.008.873-.008L11.6 33.222a5.163 5.163 0 0 0-2.008-1.075 6.265 6.265 0 0 1-3.908-1.376" data-name="Path 745"></path><path fill="#d2d6fc" d="M39.618 2.4a6.26 6.26 0 0 0-1.236 2.22 6.087 6.087 0 0 0-.282 2.168 3.6 3.6 0 0 1-.015.979 8.869 8.869 0 0 0 .21 2.07c.149.681.138 2.652.952 3.1s2.867.671 4.931-1.219a10.152 10.152 0 0 0 2.82-5.5c.172-.892-.022-4.262-2.546-5.18S39.618 2.4 39.618 2.4" data-name="Path 746"></path><path fill="none" stroke="#6a3ab5" stroke-miterlimit="10" stroke-width=".587" d="M39.618 2.4a6.26 6.26 0 0 0-1.236 2.22 6.087 6.087 0 0 0-.282 2.168 3.6 3.6 0 0 1-.015.979 8.869 8.869 0 0 0 .21 2.07c.149.681.138 2.652.952 3.1s2.867.671 4.931-1.219a10.152 10.152 0 0 0 2.82-5.5c.172-.892-.022-4.262-2.546-5.18S39.618 2.4 39.618 2.4Z" data-name="Path 747"></path><path fill="#441090" d="M44.325.278c-4.538-1.284-6.074 2.278-6.176 2.913a2.025 2.025 0 0 0 .036 1.209 1.884 1.884 0 0 0 1.23.944c.8.172 2.835-.555 3.437.229s.319 1.224.585 1.4A2.087 2.087 0 0 1 44.18 8c.088.382.608.995.923.5.239-.377 1.111-1.061 1.85-.688a13.119 13.119 0 0 0 .383-1.523 2.36 2.36 0 0 0 .033-.253s1.563-4.454-3.044-5.758" data-name="Path 748"></path><path fill="#441090" d="M46.994 6.219a2.71 2.71 0 0 0 .032-.245 5.62 5.62 0 0 1-3.539 1.117 1.91 1.91 0 0 1 .467.777c.086.368.586.957.89.479.23-.363 1.068-1.021 1.779-.662a12.338 12.338 0 0 0 .37-1.466" data-name="Path 749"></path><path fill="#a2acf8" d="M20.61 50.239a2.906 2.906 0 0 1-1.552-.548c-2.713-1.743-5.83-7.558-6.256-9.1-.3-1.1-.194-3.832 1.123-4.219a1.513 1.513 0 0 1 .424-.063c1.01 0 1.877 1.061 2.52 1.984 1.157 1.661 3.649 6.577 3.674 6.626l.17.334.287-.242s1.812-1.566 2.806-2.465h.008c.028 0 .111-.016.183-.026l.078-.008 1.055-.812a2.573 2.573 0 0 1 1.236 2.134l-.627.878-.011.069a2.237 2.237 0 0 1-.137.544l-.132.219a13.8 13.8 0 0 1-.963 1.433l-.21.27a12.9 12.9 0 0 1-2.255 2.483 2.7 2.7 0 0 1-1.421.506" data-name="Path 750"></path><path fill="#6a3ab5" d="M14.35 36.607c.873 0 1.676.992 2.28 1.857 1.146 1.645 3.628 6.541 3.653 6.591l.339.669.566-.489c.018-.015 1.735-1.5 2.735-2.4a.792.792 0 0 1 .1-.015l.159-.02.128-.1.833-.64a2.34 2.34 0 0 1 .916 1.694l-.52.73-.081.114-.021.139a2.849 2.849 0 0 1-.1.436l-.132.219a13.6 13.6 0 0 1-.943 1.405l-.205.262a12.966 12.966 0 0 1-2.181 2.422 2.439 2.439 0 0 1-1.269.462 2.631 2.631 0 0 1-1.4-.5c-2.656-1.706-5.713-7.416-6.132-8.928-.306-1.106-.121-3.551.924-3.858a1.194 1.194 0 0 1 .351-.05Zm0-.588a1.808 1.808 0 0 0-.507.074c-1.549.455-1.646 3.416-1.324 4.58.419 1.515 3.545 7.444 6.38 9.267a3.172 3.172 0 0 0 1.712.593 2.974 2.974 0 0 0 1.571-.547 14.559 14.559 0 0 0 2.546-2.826 16.4 16.4 0 0 0 1.113-1.677 2.641 2.641 0 0 0 .178-.656l.647-.909a2.8 2.8 0 0 0-1.571-2.559l-1.138.874a1.038 1.038 0 0 0-.35.1c-.993.9-2.8 2.46-2.8 2.46s-2.513-4.963-3.7-6.661c-.6-.864-1.558-2.108-2.759-2.108" data-name="Path 751"></path><path fill="#4c2a83" d="M40.629 54.959a.838.838 0 0 1 .376-.653l14.619-8.539c.206-.119.375-.021.375.218v11.8a.836.836 0 0 1-.375.653l-14.619 8.537c-.206.119-.376.021-.376-.218Z" data-name="Path 752"></path><path fill="#693ab4" d="M37.632 53.221a.836.836 0 0 1 .376-.653l14.62-8.539a.333.333 0 0 1 .348.024l2.589 1.5.294.175a.277.277 0 0 0-.234.038L41 54.306a.834.834 0 0 0-.375.653v11.8c0 .23.158.328.355.226l-.008.007a.821.821 0 0 1-.722-.016l-2.248-1.305a.84.84 0 0 1-.373-.629v-.02Z" data-name="Path 753"></path><g data-name="Group 78" opacity=".5" style="mix-blend-mode:multiply;isolation:isolate"><g data-name="Group 77"><g clip-path="url(#e)" data-name="Group 76"><path fill="#2e373a" d="M38.76 66.106V54.061a1.259 1.259 0 0 1 .575-1l14.535-8.49.1.061-14.589 8.523a1.009 1.009 0 0 0-.452.787l-.047 10.206.027 2.045Z" data-name="Path 754"></path></g></g></g></g></g><g data-name="Group 82"><g clip-path="url(#f)" data-name="Group 81"><path fill="url(#a)" d="M0 0h.006v.006H0z" data-name="Rectangle 25" transform="rotate(-36.77 97.48 -42.418)"></path></g></g><g data-name="Group 84"><g clip-path="url(#g)" data-name="Group 83"><path fill="url(#b)" d="M0 0h.937v.955H0z" data-name="Rectangle 26" transform="rotate(-40.3 89.469 -42.088)"></path></g></g><g data-name="Group 86"><g clip-path="url(#h)" data-name="Group 85"><path fill="url(#i)" d="M0 0h.007v.007H0z" data-name="Rectangle 27" transform="rotate(-36.776 96.034 -49.66)"></path></g></g><g data-name="Group 88"><g clip-path="url(#j)" data-name="Group 87"><path fill="url(#k)" d="M0 0h1.016v1.043H0z" data-name="Rectangle 28" transform="rotate(-36.773 96.16 -49.01)"></path></g></g><g data-name="Group 90"><g fill="#573095" clip-path="url(#d)" data-name="Group 89"><path d="m48.782 45.909-3.445 2a1.246 1.246 0 0 0-.558.971v2.02l.507-.294V49.1a.971.971 0 0 1 .433-.755L48.4 46.8c.239-.139.435-.026.435.252v1.506l.507-.294v-2.031c0-.356-.251-.5-.558-.323" data-name="Path 759"></path><path d="m45.336 47.906 3.445-2a.39.39 0 0 1 .388-.042l-.424-.223a.42.42 0 0 0-.355.058l-3.444 2a1.245 1.245 0 0 0-.559.97V50.7l.391.208v-2.032a1.243 1.243 0 0 1 .558-.97" data-name="Path 760"></path></g></g><g data-name="Group 92"><g clip-path="url(#l)" data-name="Group 91"><path fill="url(#m)" d="M0 0h.412v1.784H0z" data-name="Rectangle 30" transform="translate(48.42 46.741)"></path></g></g><g data-name="Group 94"><g clip-path="url(#n)" data-name="Group 93"><path fill="url(#o)" d="M0 0h.006v.006H0z" data-name="Rectangle 31" transform="rotate(-36.77 97.73 -41.317)"></path></g></g><g data-name="Group 96"><g clip-path="url(#p)" data-name="Group 95"><path fill="url(#q)" d="M0 0h.937v.955H0z" data-name="Rectangle 32" transform="rotate(-40.291 89.71 -41.097)"></path></g></g><g data-name="Group 98"><g clip-path="url(#r)" data-name="Group 97"><path fill="url(#s)" d="M0 0h.006v.006H0z" data-name="Rectangle 33" transform="rotate(-36.77 96.23 -48.553)"></path></g></g><g data-name="Group 100"><g clip-path="url(#t)" data-name="Group 99"><path fill="url(#u)" d="M0 0h1.017v1.043H0z" data-name="Rectangle 34" transform="rotate(-36.773 96.41 -47.906)"></path></g></g><g data-name="Group 102"><g clip-path="url(#d)" data-name="Group 101"><path fill="#d2d6fc" d="M46.6 44.867a12.162 12.162 0 0 1-1.262 1.1 1.767 1.767 0 0 0-.678 1.53 1.8 1.8 0 0 0 .335.815s-.323 1.259.289 1.384a5.079 5.079 0 0 1 1.006.34 4.1 4.1 0 0 0 2.2-.865 2.329 2.329 0 0 0 .959-1.3 17.1 17.1 0 0 0 .275-2.621c.087-.867.784-3.814.784-3.814l-2.659-.7Z" data-name="Path 766"></path><path fill="none" stroke="#6a3ab5" stroke-miterlimit="10" stroke-width=".587" d="M46.6 44.867a12.162 12.162 0 0 1-1.262 1.1 1.767 1.767 0 0 0-.678 1.53 1.8 1.8 0 0 0 .335.815s-.323 1.259.289 1.384a5.079 5.079 0 0 1 1.006.34 4.1 4.1 0 0 0 2.2-.865 2.329 2.329 0 0 0 .959-1.3 17.1 17.1 0 0 0 .275-2.621c.087-.867.784-3.814.784-3.814l-2.659-.7Z" data-name="Path 767"></path><path fill="#fff" d="M49.079 45.34a4.093 4.093 0 0 1-2.144-.7l.365-1.94-.021-.071a4.736 4.736 0 0 1-.213-.963c.119-1.958.409-7.847.409-7.847.169-1.933.312-7.676.313-7.735-.132-2.249.025-8.089 2.314-8.376a2.574 2.574 0 0 1 .32-.021c2.178 0 2.214 3.5 2.252 7.209l.014 1.069c.068 4.391-1.562 11.931-1.578 12.007a795.39 795.39 0 0 0-.5 4.32 1.482 1.482 0 0 1-.521 1.058l-.088.06-.525 1.9a2.35 2.35 0 0 1-.4.033" data-name="Path 768"></path><path fill="#6a3ab5" d="M50.423 17.984c1.754 0 1.913 2.739 1.958 6.916l.013 1.07c.067 4.355-1.555 11.864-1.58 12 0 0-.376 3.218-.5 4.292a1.242 1.242 0 0 1-.385.843l-.186.122-.06.215-.44 1.6c-.049 0-.1.006-.164.006a3.678 3.678 0 0 1-1.817-.55l.314-1.671.027-.142-.042-.139a5.249 5.249 0 0 1-.2-.858c.117-1.939.405-7.792.407-7.829.171-1.953.31-7.528.315-7.815-.151-2.52.152-7.8 2.055-8.039a2.431 2.431 0 0 1 .285-.018m0-.591a2.936 2.936 0 0 0-.357.024c-3.066.385-2.57 8.66-2.57 8.66s-.143 5.77-.313 7.728c0 0-.289 5.886-.409 7.844A5.328 5.328 0 0 0 47 42.714l-.39 2.07a4.487 4.487 0 0 0 2.471.853 2.039 2.039 0 0 0 .633-.082l.539-1.958a1.762 1.762 0 0 0 .65-1.271c.121-1.072.5-4.29.5-4.29s1.653-7.6 1.584-12.075c-.067-4.294.132-8.568-2.559-8.568" data-name="Path 769"></path></g></g></g></g></svg>