<svg xmlns="http://www.w3.org/2000/svg" viewBox="0 0 103 114"><defs><clipPath id="a"><path fill="none" d="M0 0h103v114H0z" data-name="Rectangle 3"></path></clipPath></defs><g data-name="Group 4"><g clip-path="url(#a)" data-name="Group 3"><path fill="#381077" d="M94.365 104.8 97 108.009l.654 3.056s-1.249.707-1.286 1.707.967 1.111 2.044 1.223 4.089-1.483 4.5-2.78-.781-4.224-.929-5.188.112-3.8-1.636-4.42a7.848 7.848 0 0 0-3.271 0c-1.167.29-2.713 3.2-2.713 3.2" data-name="Path 1"></path><path fill="#6035a4" d="M96.63 107.649c-5.174-1.245-19.329-7.327-19.476-7.391-1.217-.754-2.315-5.314-2.978-12.5a59.513 59.513 0 0 1-.211-2.662c.248-2.324.567-4.948.707-5.541l.259-.064a21.375 21.375 0 0 1 4.963-.729 5.19 5.19 0 0 1 3.8 1.164 3.309 3.309 0 0 1 .83 2.5 71.565 71.565 0 0 1-.92 9.907c-.112.729-.207 1.346-.265 1.881l-.044.4.392-.121a.609.609 0 0 1 .189-.024c1.174 0 4.244 1.716 5.9 2.8 1.36.89 6.276 3.3 7.962 4.118a1.906 1.906 0 0 0-.483.458c-.88 1.155-1 3.5-.735 5.191q.047.315.112.6" data-name="Path 2"></path><path fill="#6035a4" d="M79.893 79.04a4.946 4.946 0 0 1 3.607 1.082 3.007 3.007 0 0 1 .754 2.306 71.423 71.423 0 0 1-.917 9.874 43.117 43.117 0 0 0-.268 1.892l-.088.813.783-.244a.334.334 0 0 1 .108-.012c1.059 0 4 1.61 5.754 2.753 1.282.839 5.669 3 7.618 3.952a2.421 2.421 0 0 0-.206.238c-.931 1.224-1.066 3.59-.787 5.391q.014.1.031.2c-5.3-1.4-18.154-6.9-18.981-7.255-.9-.609-2.107-4.145-2.859-12.3a61.352 61.352 0 0 1-.208-2.608c.23-2.176.52-4.563.666-5.342l.1-.023a21.124 21.124 0 0 1 4.9-.72m0-.536a24.591 24.591 0 0 0-5.408.823h-.006c-.172 0-.783 5.783-.783 5.783a64.908 64.908 0 0 0 .213 2.68c.378 4.1 1.314 11.592 3.138 12.716 0 0 15.1 6.5 19.955 7.5a7.013 7.013 0 0 1-.22-1c-.351-2.269.027-5.385 1.632-5.577 0 0-6.874-3.316-8.494-4.374-1.5-.976-4.739-2.841-6.048-2.841a.892.892 0 0 0-.269.036 88.931 88.931 0 0 0 1.188-11.81c.085-3.145-2.366-3.939-4.9-3.939" data-name="Path 3"></path><path fill="#381077" d="m54.557 95.316-.31 4.3a12.2 12.2 0 0 1-3.036.328c-1.413-.074-3.606-.519-4.239.556s-.334 2.261 1.117 3.077a12.187 12.187 0 0 0 5.835 1.111 5.817 5.817 0 0 1 3.271.927c1.077.265 3.528.53 3.528-1.767s-2.6-7.462-2.6-7.462Z" data-name="Path 4"></path><path fill="#573095" d="M84.792 82.441c-.239 3.42-3.609 4.472-6.145 4.777a15.837 15.837 0 0 1-2.8.086 11.677 11.677 0 0 1-1.937.483c-8.374 1.343-17.831-5.894-17.831-5.894 2.011 4.949 4.339 18.935 4.339 18.935a3.139 3.139 0 0 1-1.652.754c-2.269.291-4.519-1.951-4.519-1.951s-.251-.543-4.3-10.024c-6.039-14.145-3.677-15.342-3.677-15.342a6.118 6.118 0 0 1 4.43-2.549c6.052-1.045 15.23 2.144 15.23 2.144l.484-1.635.5.041 16.544 1.224c.531 3.01 1.566 5.716 1.333 8.951" data-name="Path 5"></path><path fill="none" stroke="#573095" stroke-miterlimit="10" stroke-width=".537" d="M84.792 82.441c-.239 3.42-3.609 4.472-6.145 4.777a15.837 15.837 0 0 1-2.8.086 11.677 11.677 0 0 1-1.937.483c-8.374 1.343-17.831-5.894-17.831-5.894 2.011 4.949 4.339 18.935 4.339 18.935a3.139 3.139 0 0 1-1.652.754c-2.269.291-4.519-1.951-4.519-1.951s-.251-.543-4.3-10.024c-6.039-14.145-3.677-15.342-3.677-15.342a6.118 6.118 0 0 1 4.43-2.549c6.052-1.045 15.23 2.144 15.23 2.144l.484-1.635.5.041 16.544 1.224c.531 3.01 1.566 5.716 1.334 8.951Z" data-name="Path 6"></path><path fill="#fff" d="m81.707 67.072 10.818-14.91c.339 1.971 1.186 7.937-.026 12.548A13.551 13.551 0 0 1 89 70.326a33.734 33.734 0 0 1-5.621 4.654Z" data-name="Path 7"></path><path fill="#6a3ab5" d="M92.349 52.9c.369 2.419.946 7.629-.133 11.736a13.269 13.269 0 0 1-3.43 5.49 33.208 33.208 0 0 1-5.211 4.374l-1.429-6.759-.126-.6Zm.34-1.463L81.394 67.005l.179.854 1.606 7.6a33.736 33.736 0 0 0 6.033-4.928 14.026 14.026 0 0 0 3.57-5.744c1.5-5.71-.093-13.345-.093-13.345" data-name="Path 8"></path><path fill="#d2d6fc" d="m46.462 39.093.711-.4-1.212-1.125a2.765 2.765 0 0 0-1.951-2.39 22.1 22.1 0 0 1-2.421-.806l-.937-.4a5.682 5.682 0 0 0-.88-.932 4.811 4.811 0 0 0-.894-.477c-.346-.69-2.925.727-2.739 1.335a9.377 9.377 0 0 0 .581 1.726 3.511 3.511 0 0 0 1.423.985 5.093 5.093 0 0 0-1.285-.123c-.974.07-.92.778-.5.889l2.162.571a11.532 11.532 0 0 1 3.065.667 8.34 8.34 0 0 0 3.04.416l1.531 2.252.948-1.057s-.415-.57-.883-1.194Z" data-name="Path 9"></path><path fill="none" stroke="#6a3ab5" stroke-miterlimit="10" stroke-width=".581" d="m46.462 39.093.711-.4-1.212-1.125a2.765 2.765 0 0 0-1.951-2.39 22.1 22.1 0 0 1-2.421-.806l-.937-.4a5.682 5.682 0 0 0-.88-.932 4.811 4.811 0 0 0-.894-.477c-.346-.69-2.925.727-2.739 1.335a9.377 9.377 0 0 0 .581 1.726 3.511 3.511 0 0 0 1.423.985 5.093 5.093 0 0 0-1.285-.123c-.974.07-.92.778-.5.889l2.162.571a11.532 11.532 0 0 1 3.065.667 8.34 8.34 0 0 0 3.04.416l1.531 2.252.948-1.057s-.415-.57-.883-1.194Z" data-name="Path 10"></path><path fill="#441090" d="M75.958 40.664s-.79-3.473 2.091-4.253a8.053 8.053 0 0 1 8.986 3.449c.432 2.167-11.077.8-11.077.8" data-name="Path 11"></path><path fill="#fff" d="M74.852 78.219a9.984 9.984 0 0 1-7.32-2.7 7.063 7.063 0 0 1-1.3-1.719 104.291 104.291 0 0 1 1.489-12.248c.144-.688.3-1.343.461-1.954.084-.305.17-.6.261-.879.835-2.622 3.158-4.432 4.96-5.49a18.139 18.139 0 0 1 3.467-1.586l8.057-3.123a10.823 10.823 0 0 1 3.069-.49c2.817 0 4.325 1.4 4.482 4.164.3 5.316-4.524 12.944-6.586 16.2-.449.71-.785 1.242-.94 1.538a21.3 21.3 0 0 0-1.289 5.746 6.355 6.355 0 0 1-2.91 1.559 20.342 20.342 0 0 1-5.9.978" data-name="Path 12"></path><path fill="#6a3ab5" d="M87.994 48.324c2.67 0 4.041 1.271 4.19 3.889.3 5.223-4.495 12.8-6.542 16.029-.457.724-.788 1.246-.952 1.56a21.106 21.106 0 0 0-1.311 5.756 6.332 6.332 0 0 1-2.715 1.4 20.082 20.082 0 0 1-5.813.965 9.7 9.7 0 0 1-7.114-2.615 7.008 7.008 0 0 1-1.212-1.573A103.817 103.817 0 0 1 68 61.614c.157-.748.307-1.383.456-1.935.084-.3.168-.592.259-.872.806-2.534 3.071-4.294 4.83-5.325a18.043 18.043 0 0 1 3.444-1.573l8.018-3.109a10.552 10.552 0 0 1 2.987-.477m0-.584a11.013 11.013 0 0 0-3.175.509l-8.037 3.116a18.262 18.262 0 0 0-3.53 1.614C71.255 54.151 69 56 68.162 58.63c-.093.284-.179.582-.265.893a36.112 36.112 0 0 0-.465 1.971 104.843 104.843 0 0 0-1.5 12.366 6.961 6.961 0 0 0 1.393 1.867 10.268 10.268 0 0 0 7.526 2.784 20.514 20.514 0 0 0 5.985-.992 6.424 6.424 0 0 0 3.106-1.719s.385-4.023 1.267-5.73 7.93-11.367 7.559-17.891c-.207-3.633-2.651-4.439-4.774-4.439" data-name="Path 13"></path><path fill="#fff" d="M68.761 61.938c-.143-.1-.569-.353-1.186-.7-3.5-1.955-13.023-6.939-13.322-7.091-4.6-3.521-9.267-14.646-9.313-14.759a.617.617 0 0 1 .127-.538 2.16 2.16 0 0 1 1.537-.829c1.212.69 4.268 4.522 6.51 7.333 2.177 2.729 3.033 3.774 3.4 3.923 1.424.6 10.266 4.1 10.356 4.137a21.236 21.236 0 0 0 3.59.338 6.868 6.868 0 0 0 2.805-.452 1.261 1.261 0 0 1 .771 1.08c.232 2.12-2.965 6.139-4.693 7.295a1.235 1.235 0 0 1-.568.262Z" data-name="Path 14"></path><path fill="#6a3ab5" d="M46.533 38.319c1.21.77 4.29 4.632 6.353 7.218 2.432 3.05 3.1 3.84 3.509 4.009 1.429.6 10 4 10.362 4.139l.054.022.057.01a22.654 22.654 0 0 0 3.587.326 7.519 7.519 0 0 0 2.795-.421.957.957 0 0 1 .492.789c.216 1.986-2.93 5.927-4.562 7.02a2 2 0 0 1-.355.2 30.835 30.835 0 0 0-1.108-.643c-3.364-1.881-12.479-6.654-13.282-7.071-4.572-3.535-9.179-14.524-9.219-14.622a.361.361 0 0 1 .092-.276 1.883 1.883 0 0 1 1.225-.7m.141-.59c-1.075 0-2.3 1-2 1.773 0 0 4.685 11.268 9.449 14.907.351.179 9.868 5.16 13.311 7.086.6.338 1.023.582 1.175.688a.281.281 0 0 0 .165.048 1.546 1.546 0 0 0 .731-.312c2.2-1.469 6.974-7.675 3.749-8.939a6.366 6.366 0 0 1-2.8.483 22.1 22.1 0 0 1-3.481-.318s-8.912-3.533-10.352-4.135c-.816-.338-7.9-10.248-9.947-11.281" data-name="Path 15"></path><path fill="#d2d6fc" d="M84.82 38.246c-3.239-1.964-6.92-1-8.034.407a10.709 10.709 0 0 0-1.636 3.123l-1.492 1.158a.549.549 0 0 0-.151.689l.264.456a.746.746 0 0 1 .091.5c-.111.669-.318 2.44.479 2.97a13.588 13.588 0 0 0 2.781 1.615l-.336 2.2s5.048.5 8.034-2.057l-.382-1.626a4.1 4.1 0 0 0 2.2-1.875 5.4 5.4 0 0 0-1.815-7.56" data-name="Path 16"></path><path fill="none" stroke="#6a3ab5" stroke-miterlimit="10" stroke-width=".581" d="M84.82 38.246c-3.239-1.964-6.92-1-8.034.407a10.709 10.709 0 0 0-1.636 3.123l-1.492 1.158a.549.549 0 0 0-.151.689l.264.456a.746.746 0 0 1 .091.5c-.111.669-.318 2.44.479 2.97a13.588 13.588 0 0 0 2.781 1.615l-.336 2.2s5.048.5 8.034-2.057l-.382-1.626a4.1 4.1 0 0 0 2.2-1.875 5.4 5.4 0 0 0-1.818-7.56Z" data-name="Path 17"></path><path fill="#441090" d="M87.746 41.387a6.292 6.292 0 0 0-2.421-3.307c-3.352-2.644-8.4-.53-8.4-.53a5.249 5.249 0 0 0-.269 2.283c.179 3.18 2.767 3.528 3.246 4.195.356.494-.038 1.834-.266 2.5.394-.539.979-.8 1.388-.565.453.26.507 1.01.123 1.675a1.784 1.784 0 0 1-.647.652c.135.327.563 1.222 1.193 1.176a6.434 6.434 0 0 0 5.108-2.85 6.727 6.727 0 0 0 .944-5.225" data-name="Path 18"></path><path fill="#4a2c84" d="M42.738 34.507c.05-.113.007-.237-.148-.326l-1.449-.834a.928.928 0 0 0-.837 0l-1.439.834a.293.293 0 0 0-.171.241v1.077a.294.294 0 0 0 .175.244l1.449.834a.917.917 0 0 0 .837 0l1.439-.834a.3.3 0 0 0 .173-.24v-1.078a.231.231 0 0 1-.028.082" data-name="Path 19"></path><path fill="#6034a3" d="M42.59 34.181c.233.135.234.349 0 .483l-1.439.834a.915.915 0 0 1-.835 0l-1.45-.834a.255.255 0 0 1 0-.483l1.439-.834a.924.924 0 0 1 .837 0Z" data-name="Path 20"></path><path fill="#664f9e" d="M42.59 34.181c.233.135.234.349 0 .483l-1.439.834a.915.915 0 0 1-.835 0l-1.45-.834a.255.255 0 0 1 0-.483l1.439-.834a.924.924 0 0 1 .837 0Z" data-name="Path 21"></path><path fill="#442a75" d="M42.2 34.232c.184.106.185.275 0 .381l-1.136.659a.727.727 0 0 1-.66 0l-1.144-.659a.2.2 0 0 1 0-.381l1.136-.658a.727.727 0 0 1 .66 0Z" data-name="Path 22"></path><path fill="#6034a3" d="M44.567 33.967c.013 0-.824-.973-.824-.973-.028-.034-.12-.014-.257.066l-1.441.834a2 2 0 0 0-.607.556l-.668 1.1c-.043.07-.052.117-.033.139l.835.976c.006.034.1.027.258-.067l1.439-.834a2.017 2.017 0 0 0 .609-.556l.668-1.1c.047-.077.048-.121.02-.14" data-name="Path 23"></path><path fill="#fff" d="M43.879 35.206a2 2 0 0 1-.607.556l-1.439.834c-.232.133-.332.1-.227-.073l.669-1.1a1.981 1.981 0 0 1 .607-.555l1.439-.834c.232-.135.332-.1.226.072Z" data-name="Path 24"></path><path fill="#442a75" d="M43.879 35.206a2 2 0 0 1-.607.556l-1.439.834c-.232.133-.332.1-.227-.073l.669-1.1a1.981 1.981 0 0 1 .607-.555l1.439-.834c.232-.135.332-.1.226.072Z" data-name="Path 25"></path><path fill="#d2d6fc" d="m41.2 33.346-.168-.1a.383.383 0 0 0-.384.037 1.182 1.182 0 0 0-.538.928.374.374 0 0 0 .157.345l.169.1a.386.386 0 0 0 .385-.038 1.18 1.18 0 0 0 .536-.928.373.373 0 0 0-.158-.345m-.548 1.078a.384.384 0 0 1-.226.058.377.377 0 0 1-.061-.219 1 1 0 0 1 .453-.782.393.393 0 0 1 .226-.058.38.38 0 0 1 .061.219 1 1 0 0 1-.453.782" data-name="Path 26"></path><path fill="#d2d6fc" d="M6.4 97.025c-1.408-.531-2.876-1.124-3.15-1.3-.12-.226-.567-.978-2.339-3.72a6.341 6.341 0 0 1 .343-3.341c.072-.184.116-.32.161-.458l.052-.159c.1-.68.854-6.3-.087-9.645a11.67 11.67 0 0 1-.349-3.3A24.018 24.018 0 0 1 3 66.089l.041-.084-.23-1.285C2.2 61.27.84 52.9 1.134 49.732a11.325 11.325 0 0 0-.222-2.95C.546 44.606.169 42.355 2.925 38.3a30.679 30.679 0 0 1 2.538-3.217l12.778.637.649 4.862a58.313 58.313 0 0 1-4.762 5.518 16.415 16.415 0 0 1-3.621 2.9l-.159.084v.181c0 .016.035 1.744-.033 4.193a79.049 79.049 0 0 1-.66 8.668c-.07.507-.128.979-.182 1.425-.074.6-.143 1.162-.228 1.7-.028.164-.059.331-.091.492a10 10 0 0 1-.307 1.215c-.051.159-.1.319-.168.477a135.6 135.6 0 0 0-.448 1.945C7.129 74.251 4.61 85.653 4.6 88.419l-.107.092.115.09.2.755c.576 2.22 1.081 4.144 2.449 5.544Z" data-name="Path 27"></path><path fill="#6a3ab5" d="M5.59 35.382 17.983 36l.6 4.5a57.742 57.742 0 0 1-4.662 5.392 16.125 16.125 0 0 1-3.551 2.848l-.319.168.007.36c0 .017.034 1.739-.031 4.182a79.045 79.045 0 0 1-.656 8.635c-.071.508-.129.981-.184 1.429-.074.6-.142 1.154-.227 1.681a15.03 15.03 0 0 1-.091.488 9.244 9.244 0 0 1-.3 1.18c-.049.153-.1.306-.162.459l-.014.039-.01.041s-.169.726-.448 1.958c-1.089 4.8-3.583 16.092-3.633 19l-.048.079.063.238.2.752c.574 2.189 1.072 4.1 2.4 5.533l-.681 1.688c-1.191-.45-2.416-.95-2.77-1.134-.19-.34-.72-1.2-2.269-3.6a5.98 5.98 0 0 1 .311-3.1l.023-.042.016-.044c.055-.145.1-.284.144-.423l.054-.161.016-.051.007-.052c.091-.635.851-6.3-.108-9.714a11.462 11.462 0 0 1-.337-3.212 23.7 23.7 0 0 1 1.937-8.9l.08-.169-.033-.183-.214-1.19c-.6-3.441-1.958-11.78-1.667-14.914a11.513 11.513 0 0 0-.226-3.026c-.372-2.218-.723-4.312 1.97-8.274a30.193 30.193 0 0 1 2.42-3.079m-.251-.6a31.813 31.813 0 0 0-2.655 3.35c-4.011 5.9-1.532 8.11-1.84 11.57-.304 3.266 1.121 11.89 1.674 15.068l.214 1.195A24.357 24.357 0 0 0 .739 75.1a12.054 12.054 0 0 0 .36 3.379c.93 3.312.164 8.961.092 9.475-.063.188-.119.371-.191.566a6.551 6.551 0 0 0-.375 3.581s2.341 3.622 2.388 3.8A33.344 33.344 0 0 0 6.564 97.4L7.6 94.826c-1.57-1.494-2.013-3.673-2.715-6.3-.05-2.516 2.556-14.319 3.624-19.034l.013-.052c.265-1.179.435-1.9.435-1.9.064-.165.121-.329.173-.494a10.263 10.263 0 0 0 .316-1.246c.033-.165.064-.333.093-.5.149-.929.246-1.93.41-3.125a79.1 79.1 0 0 0 .663-8.7c.069-2.486.033-4.208.033-4.208a16.982 16.982 0 0 0 3.69-2.952 58.6 58.6 0 0 0 4.865-5.652l-.7-5.222Z" data-name="Path 28"></path><path fill="#d2d6fc" d="m19.355 88.783-2.907-.93-2.888-.884c-.691-.9-.506-1.877.609-3.258l.071-.088-.007-.114a65.714 65.714 0 0 0-1.087-9.027c-.152-.578-.3-1.19-.441-1.828a19.739 19.739 0 0 1-.155-8.733 13.345 13.345 0 0 1 .5-1.625l.031-.085s-2.148-8.656-2.186-8.819L9.62 48.283l-.754-3.068L5 38.76l12.528-1.81 1.4 3.811c.027.08 2.862 8.591-.283 20.77-.007.11.007.251.01.51a12.083 12.083 0 0 1-.261 2.514c-.052.247-.145 1.116-.283 2.653-.362 4.139-1.036 13.581-.812 16.352.545 1.528 2.13 2.694 4.483 3.363a2.922 2.922 0 0 1 1.646 2.712Z" data-name="Path 29"></path><path fill="#6a3ab5" d="m17.334 37.273 1.31 3.579c.028.084 2.833 8.524-.287 20.607l-.026.1.01.1c0 .014.013.145.016.383a11.718 11.718 0 0 1-.254 2.445c-.021.1-.083.393-.289 2.691-.428 4.922-1.027 13.722-.804 16.455l.008.058.02.053c.559 1.535 2.213 2.763 4.641 3.456a2.3 2.3 0 0 1 1.194 1.213 2.693 2.693 0 0 1 .262.865l-3.691-.778-2.914-.932-2.794-.856c-.408-.567-.546-1.331.659-2.823l.141-.176-.013-.224a65.619 65.619 0 0 0-1.1-9.085 39.989 39.989 0 0 1-.438-1.814 19.491 19.491 0 0 1-.157-8.6 13.35 13.35 0 0 1 .491-1.592l.065-.171-.044-.177c-.7-2.807-1.994-8.034-2.149-8.666l-.017-.07L9.9 48.215l-.755-3.07-.021-.085-.045-.075-3.607-6Zm.386-.645-13.2 1.907 4.059 6.749.755 3.07 1.274 5.1c0 .013 2.167 8.738 2.167 8.738a13.869 13.869 0 0 0-.512 1.661 20.352 20.352 0 0 0 .154 8.861c.137.644.29 1.26.443 1.843a66.286 66.286 0 0 1 1.077 8.97c-1.013 1.255-1.537 2.5-.553 3.69l2.971.911 2.936.939 4.346.913a3.077 3.077 0 0 0-1.781-3.335c-2.041-.582-3.733-1.623-4.271-3.1v-.008c-.215-2.675.413-11.733.812-16.3.125-1.4.226-2.374.278-2.623a12.415 12.415 0 0 0 .266-2.574c0-.285-.021-.434-.021-.434 3.208-12.419.275-20.942.275-20.942Z" data-name="Path 30"></path><path fill="#fff" d="M9.618 66.946a21.194 21.194 0 0 1-5.612-.7 7.714 7.714 0 0 1-2.661-1.236C2.1 60.464.717 50.046.657 49.6.221 46.578-.272 43.164 2 39.78h16.8c1.875 4.28 1.7 9.207 1.481 15.422-.088 2.526-.18 5.136-.156 8.04-1.528 2.733-6.6 3.7-10.511 3.7Z" data-name="Path 31"></path><path fill="#6a3ab5" d="M18.612 40.072c1.767 4.179 1.6 9.026 1.382 15.118-.085 2.39-.18 5.092-.157 7.975-1.255 2.124-5.237 3.49-10.22 3.49a20.925 20.925 0 0 1-5.53-.687 7.831 7.831 0 0 1-2.426-1.084c.7-4.675-.655-14.882-.716-15.33-.422-2.927-.9-6.233 1.214-9.483Zm.388-.583H1.848C-.515 42.9-.113 46.315.368 49.637c0 0 1.477 11.03.662 15.487a7.609 7.609 0 0 0 2.9 1.4 21.435 21.435 0 0 0 5.692.709c4.56 0 9.356-1.208 10.8-3.922C20.326 52.952 21.759 45.6 19 39.489" data-name="Path 32"></path><path fill="#6a3ab5" d="M20.088 4.715a5.76 5.76 0 0 0-2.83-4.06 5.316 5.316 0 0 0-4.924-.1 3.074 3.074 0 0 0-1.621 1.778 3.51 3.51 0 0 0 .959 3.055 12.152 12.152 0 0 0 4.306 3.088 9.958 9.958 0 0 0 2.5 1.039c.716.094 1.13-1.211 1.323-1.753a6.167 6.167 0 0 0 .289-3.05" data-name="Path 33"></path><path fill="#d2d6fc" d="M25.779 30.248c.073-.048 1.99-1.248 1.99-1.248a10.471 10.471 0 0 0 3.631-1.887c1.406-1.213 1.9-1.713 1.9-1.713a11.924 11.924 0 0 0 1.081-1.911.847.847 0 0 0 0-.979c.44-.481-1.143-1.629-1.67-1.274L28.727 24.1l-.118-.161a12.66 12.66 0 0 0 .605-2.241c.094-.736-.517-.971-.749-.226a7.041 7.041 0 0 1-.844 2.065 11.675 11.675 0 0 0-1.377 3.625 3.477 3.477 0 0 1-1.326 1.789Z" data-name="Path 34"></path><path fill="none" stroke="#6a3ab5" stroke-miterlimit="10" stroke-width=".581" d="M25.779 30.248c.073-.048 1.99-1.248 1.99-1.248a10.471 10.471 0 0 0 3.631-1.887c1.406-1.213 1.9-1.713 1.9-1.713a11.924 11.924 0 0 0 1.081-1.911.847.847 0 0 0 0-.979c.44-.481-1.143-1.629-1.67-1.274L28.727 24.1l-.118-.161a12.66 12.66 0 0 0 .605-2.241c.094-.736-.517-.971-.749-.226a7.041 7.041 0 0 1-.844 2.065 11.675 11.675 0 0 0-1.377 3.625 3.477 3.477 0 0 1-1.326 1.789Z" data-name="Path 35"></path><path fill="#6a3ab4" d="M27.509 29.163s-1.2-.734-1.367-1.65l-2.452.548-2.407-10.4c-.337-2.1-.974-3.848-2.617-4.436l-1.707 4.02S18 30.347 22.233 32.429c2.348 1.118 3.711-1.452 5.276-3.267" data-name="Path 36"></path><path fill="none" stroke="#6a3ab4" stroke-miterlimit="10" stroke-width=".583" d="M27.509 29.163s-1.2-.734-1.367-1.65l-2.452.548-2.407-10.4c-.337-2.1-.974-3.848-2.617-4.436l-1.707 4.02S18 30.347 22.233 32.429c2.349 1.119 3.711-1.452 5.276-3.266Z" data-name="Path 37"></path><path fill="#573095" d="M1.847 39.488a25.547 25.547 0 0 0 3.3 1.823c9.611 4.433 13.845-1.823 13.845-1.823a22.926 22.926 0 0 1 .2-9.912 2.812 2.812 0 0 0 2.559-2.869c0-2.516-2.334-4.162-3.1-6.7s.012-6.784.012-6.784l-5.236.529s-1.8-1.035-4.646 1.07c-2.7 2-5.013 4.009-5.013 4.009s.5 2.093.99 4.7c.755 3.975 1.522 9.172.578 10.077-1.567 1.492-3.489 5.88-3.489 5.88" data-name="Path 38"></path><path fill="none" stroke="#573095" stroke-miterlimit="10" stroke-width=".583" d="M1.847 39.488a25.547 25.547 0 0 0 3.3 1.823c9.611 4.433 13.845-1.823 13.845-1.823a22.926 22.926 0 0 1 .2-9.912 2.812 2.812 0 0 0 2.559-2.869c0-2.516-2.334-4.162-3.1-6.7s.012-6.784.012-6.784l-5.236.529s-1.8-1.035-4.646 1.07c-2.7 2-5.013 4.009-5.013 4.009s.5 2.093.99 4.7c.755 3.975 1.522 9.172.578 10.077-1.567 1.492-3.489 5.88-3.489 5.88Z" data-name="Path 39"></path><path fill="#d2d6fc" d="M23.081 22.526c.1-.6-.556-.581-.556-.581a5.535 5.535 0 0 1 .126-.587c.069-.6-1.458-.907-2.027.213-.515 1.016-.878 2.123-1.4 3.057a5.555 5.555 0 0 0-.513-2.338c-.25-.543-.689-.146-.458.843.32 1.37-.589 2.952-.026 4.546a2.139 2.139 0 0 1 .206 1.071c-.076.492-.944 1.1-.818 1.023.293-.176-.179.695-.106 1.028a1 1 0 0 0 .271.432c.145.162.45.658.677.691s.5-.342.646-.481q.721-.673 1.394-1.4a12.916 12.916 0 0 0 2.07-2.789 6.285 6.285 0 0 0 .769-3.349 4.8 4.8 0 0 1-.254-1.384" data-name="Path 40"></path><path fill="none" stroke="#6a3ab5" stroke-miterlimit="10" stroke-width=".581" d="M23.081 22.526c.1-.6-.556-.581-.556-.581a5.535 5.535 0 0 1 .126-.587c.069-.6-1.458-.907-2.027.213-.515 1.016-.878 2.123-1.4 3.057a5.555 5.555 0 0 0-.513-2.338c-.25-.543-.689-.146-.458.843.32 1.37-.589 2.952-.026 4.546a2.139 2.139 0 0 1 .206 1.071c-.076.492-.944 1.1-.818 1.023.293-.176-.179.695-.106 1.028a1 1 0 0 0 .271.432c.145.162.45.658.677.691s.5-.342.646-.481q.721-.673 1.394-1.4a12.916 12.916 0 0 0 2.07-2.789 6.285 6.285 0 0 0 .769-3.349 4.8 4.8 0 0 1-.255-1.379Z" data-name="Path 41"></path><path fill="#d2d6fc" d="M19.448 10.5a5.205 5.205 0 0 1-.358-3.378 6.015 6.015 0 0 0-1.52-4.3c-.9-1.149-2.546-1.128-3.882-.961a5.867 5.867 0 0 0-3.855 1.717 4.5 4.5 0 0 0-.892 3.41 9.268 9.268 0 0 0 1.226 3.387c.118.212.256.413.386.619-.049.084-.1.166-.143.252q-.7 1.375-1.316 2.788a2.447 2.447 0 0 0-.294 1.349 2.292 2.292 0 0 0 .774 1.191 13.449 13.449 0 0 0 2.094 1.644 2.216 2.216 0 0 0 1.92.443 1.754 1.754 0 0 0 .947-1.3c.121-.546.1-1.113.186-1.665a4.237 4.237 0 0 1 .44-1.313 1.806 1.806 0 0 1 .112-.172 5.521 5.521 0 0 0 1.513.321c2.162-.2 1.6-2.408 2.019-3.057.339-.038.976-.4.642-.969" data-name="Path 42"></path><path fill="none" stroke="#6a3ab5" stroke-miterlimit="10" stroke-width=".583" d="M19.448 10.5a5.205 5.205 0 0 1-.358-3.378 6.015 6.015 0 0 0-1.52-4.3c-.9-1.149-2.546-1.128-3.882-.961a5.867 5.867 0 0 0-3.855 1.717 4.5 4.5 0 0 0-.892 3.41 9.268 9.268 0 0 0 1.226 3.387c.118.212.256.413.386.619-.049.084-.1.166-.143.252q-.7 1.375-1.316 2.788a2.447 2.447 0 0 0-.294 1.349 2.292 2.292 0 0 0 .774 1.191 13.449 13.449 0 0 0 2.094 1.644 2.216 2.216 0 0 0 1.92.443 1.754 1.754 0 0 0 .947-1.3c.121-.546.1-1.113.186-1.665a4.237 4.237 0 0 1 .44-1.313 1.806 1.806 0 0 1 .112-.172 5.521 5.521 0 0 0 1.513.321c2.162-.2 1.6-2.408 2.019-3.057.339-.04.977-.398.643-.975Z" data-name="Path 43"></path><path fill="#6a3ab5" d="M13.032.336a5.782 5.782 0 0 0-2.381.241C3.9 2.538 3.84 12.944 10.827 15.472a12.807 12.807 0 0 1 .07-3.008 5.417 5.417 0 0 1 .183-.722 2.613 2.613 0 0 1-.611-1.9c.113-1.249 1.46-.857 1.9-.029A15.717 15.717 0 0 1 14.454 8.7a5.992 5.992 0 0 0 2-1.816 6.33 6.33 0 0 0 .963-2.2C18.089 1.778 15.9.73 13.032.336" data-name="Path 44"></path><path fill="#6a3ab5" d="M18.26 5.106a5.729 5.729 0 0 0-2.433-.831l.618-1.758a1.015 1.015 0 0 1 .3-.51c.333-.247.805-.015 1.121.254a4.958 4.958 0 0 1 1.62 4.719c-.207-.21-.229-.691-.391-.972a2.82 2.82 0 0 0-.835-.9" data-name="Path 45"></path><path fill="#6a3ab4" d="M19.735 30.866c-.522-.765-1.011-1.63-1.819-1.517L9.6 34.774l-2.4-9.13c-.337-3.2-1.379-5.6-3.44-6.81a8.752 8.752 0 0 0-1.37 8.925C3.75 32.9 5.267 37.768 8.336 39.852c4.072 1.632 7.681-4.62 11.4-8.986" data-name="Path 46"></path><path fill="none" stroke="#6a3ab4" stroke-miterlimit="10" stroke-width=".583" d="M19.735 30.866c-.522-.765-1.011-1.63-1.819-1.517L9.6 34.774l-2.4-9.13c-.337-3.2-1.379-5.6-3.44-6.81a8.752 8.752 0 0 0-1.37 8.925C3.75 32.9 5.267 37.768 8.336 39.852c4.072 1.632 7.681-4.62 11.399-8.986Z" data-name="Path 47"></path><path fill="#6a3ab5" d="M1 88.524c-1.132.913-1.091 2.766-.856 4.151.524 1.116 1.281 1.8 2.148 3.441l.819 1.078c1.637 1.374 4.575 1.561 5.611.843.678-1.172-.122-2.337-2.133-4.392.763 1.574-.118 2.336-2.112 2.118-.947-.183-1.577-1.451-2.605-3.172C.932 90.785.3 89.725 1 88.524" data-name="Path 48"></path><path fill="#6a3ab5" d="M13.642 83.919a3.626 3.626 0 0 0-1.131 4.267c.972 1.391 3.081.477 4.518.872 3.3.912 3.306 1.674 4.893 1.645 2.566-.046 4.26-1.128 4.125-1.969-.109-.69-1.216-1.385-3.017-2.065l-2.974-.713a9.428 9.428 0 0 0 1.8.688c.917.6.59 1.23-.266 1.991-.955.411-2.148 0-3.671-.8l-3.282-1.573a1.945 1.945 0 0 1-1-2.34" data-name="Path 49"></path></g></g></svg>