<svg xmlns="http://www.w3.org/2000/svg" data-name="Vector Smart Object" viewBox="-0.02 0 49.01 85.01"><defs><clipPath id="a"><path fill="none" d="M0 0h49v85H0z" data-name="Rectangle 47"></path></clipPath><clipPath id="b"><path fill="none" d="M0 0h49v85H0z" data-name="Rectangle 46"></path></clipPath><clipPath id="c"><path fill="none" d="M45.879 30.868h.232v.031h-.232z" data-name="Rectangle 43"></path></clipPath><clipPath id="d"><path fill="none" d="M3.948 51.45h4.874v28.104H3.948z" data-name="Rectangle 44"></path></clipPath><clipPath id="e"><path fill="none" d="M13.87 17.665h.028v.013h-.028z" data-name="Rectangle 45"></path></clipPath></defs><g data-name="Group 119"><g clip-path="url(#a)" data-name="Group 118"><g data-name="Group 117"><g clip-path="url(#b)" data-name="Group 116"><path fill="#d2d6fc" d="M34.874 39.154c-.376 0-1.007-.8-1.14-1.052a3 3 0 0 1 .2-2.86l1.882-6.35c0 .011 0 .016.015.016a.437.437 0 0 0 .108-.034.572.572 0 0 0 .288-.185 1.2 1.2 0 0 1 1.621-.421 1.148 1.148 0 0 1 .43 1.586l-3.155 5.319.055.087a1.221 1.221 0 0 1 .144.322A1.329 1.329 0 0 1 35 36.711a1.91 1.91 0 0 0-.367.823 2.283 2.283 0 0 0 .217.863 1.92 1.92 0 0 1 .183.678.2.2 0 0 1-.163.079" data-name="Path 840"></path><path fill="#6a3ab5" d="M37.256 28.28a1.031 1.031 0 0 1 .507.134.987.987 0 0 1 .471.6.969.969 0 0 1-.1.752L35.028 35l-.1.176.109.172a1.021 1.021 0 0 1 .125.277 1.19 1.19 0 0 1-.3.994 2.016 2.016 0 0 0-.393.9 2.365 2.365 0 0 0 .227.937 3.8 3.8 0 0 1 .173.53c-.26-.017-.838-.694-.976-.96a2.853 2.853 0 0 1 .205-2.713l.02-.067.007-.023 1.83-6.17.057-.024a.707.707 0 0 0 .371-.254 1.021 1.021 0 0 1 .877-.494m0-.338a1.364 1.364 0 0 0-1.176.662c-.045.076-.4.161-.427.241l-1.864 6.284c0 .015-.007.03-.011.045a3.19 3.19 0 0 0-.2 3.005c.105.2.782 1.145 1.294 1.145a.381.381 0 0 0 .309-.158c.171-.255-.413-1.2-.373-1.615.062-.656.926-1.153.682-2.014a1.378 1.378 0 0 0-.164-.367l3.1-5.231a1.313 1.313 0 0 0-.493-1.816 1.372 1.372 0 0 0-.68-.18" data-name="Path 841"></path><path fill="#d2d6fc" d="M37.556 68.847a.286.286 0 0 1-.12-.02c.02-.06.177-.57.252-.814.12-.392.149-.5.128-.588-.109-.36-1.424-9.3-1.956-14.354l-.1-.987a55.208 55.208 0 0 1-.151-1.592 74.581 74.581 0 0 1-.445-13.771 7.077 7.077 0 0 1 1.027-2.927l.031-.047v-.056a3.758 3.758 0 0 1 3.023-1.314 4.315 4.315 0 0 1 .862.088 4.147 4.147 0 0 1 1.422.583c1.317.85 1.114 2.368.737 4.12-.238 1.1-1.865 16.773-1.76 18.579.048.8-1.015 11.167-1.027 11.263-.007.05-.014.131-.02.228a4.374 4.374 0 0 1-.063.544 2.852 2.852 0 0 1-1.837 1.067" data-name="Path 842"></path><path fill="#6a3ab5" d="M39.243 32.545a4.138 4.138 0 0 1 .824.084 3.973 3.973 0 0 1 1.366.558c1.225.791 1.025 2.255.663 3.944-.238 1.106-1.871 16.809-1.764 18.623.044.754-.981 10.827-1.026 11.226a3.854 3.854 0 0 0-.022.243 4.287 4.287 0 0 1-.058.518 2.934 2.934 0 0 1-1.54.919c.042-.189.123-.451.168-.6.128-.415.163-.541.13-.675l-.014-.059c-.166-.78-1.431-9.474-1.936-14.268l-.049-.484-.052-.51a55.183 55.183 0 0 1-.15-1.594 74.362 74.362 0 0 1-.445-13.732 6.93 6.93 0 0 1 1-2.85l.062-.093v-.07a3.809 3.809 0 0 1 2.848-1.177m0-.338c-1.868 0-3.216 1.174-3.2 1.494a7.194 7.194 0 0 0-1.054 3.005 75.3 75.3 0 0 0 .445 13.8c.021.314.075.869.15 1.593l.1.988c.53 5.04 1.885 14.266 1.96 14.376.033.14-.487 1.409-.293 1.511a.423.423 0 0 0 .2.041c.615 0 1.911-.762 2.005-1.2.057-.266.065-.64.087-.786 0-.02 1.077-10.474 1.028-11.293-.106-1.817 1.516-17.42 1.757-18.534.371-1.731.608-3.38-.811-4.3a4.325 4.325 0 0 0-1.482-.605 4.482 4.482 0 0 0-.9-.09" data-name="Path 843"></path><path fill="#381077" d="M35.186 70.052C37.169 68.447 37.6 68 37.6 68c.054.387.928.4 1.6.123a.442.442 0 0 0 .285-.309c.313.959.286 1.479-.01 1.8-.249.3-.782.391-1.294.925-.194.237-.463.445-.836.829a2.771 2.771 0 0 1-3.131.593c-.454-.351.078-1.184.977-1.912" data-name="Path 844"></path><path fill="#d2d6fc" d="M43.192 70.423c-.167 0-.279-.273-.345-.5a7.168 7.168 0 0 1-.154-1.536 18.298 18.298 0 0 0-.1-1.525 59.553 59.553 0 0 0-2.005-10.1l-.016-.051-.09-.1a.017.017 0 0 0 .011 0c.019 0 .014-.062 0-.183l-.007-.094c0-.134-.019-.355-.045-.731-.132-1.971-1.676-8.411-1.851-9.138a3.062 3.062 0 0 1-.059-.757 3.623 3.623 0 0 1 .269-1.138l.025-.05-.013-.055a68.096 68.096 0 0 1-.351-1.927l-.092-.554c1.607-.384 3.213-.787 4.817-1.19l1.227-.308c1.191 1.959 1.2 4.375 1.106 6.684-.016.4-.264 1.956-.3 2.176a41.024 41.024 0 0 0-.14 10.857 33.207 33.207 0 0 1-.4 7.273c-.09.691-.169 1.291-.208 1.751-.071.814-.168.94-.2.959a.876.876 0 0 1-.1-.027.845.845 0 0 0-.256-.05.548.548 0 0 0-.343.124.681.681 0 0 1-.38.19" data-name="Path 845"></path><path fill="#6a3ab5" d="M44.33 40.681c1.1 1.9 1.109 4.242 1.017 6.482-.015.367-.253 1.883-.3 2.154a41.252 41.252 0 0 0-.14 10.9 33.183 33.183 0 0 1-.4 7.233 46.26 46.26 0 0 0-.21 1.758 4.093 4.093 0 0 1-.117.772.92.92 0 0 0-.264-.043.708.708 0 0 0-.45.162.646.646 0 0 1-.267.153s-.09-.054-.184-.381a7.071 7.071 0 0 1-.146-1.5c-.018-.465-.037-.992-.1-1.537a59.455 59.455 0 0 0-2.025-10.17.513.513 0 0 0-.057-.1l-.013-.151h-.007.007c0-.021-.006-.072-.01-.114 0-.15-.02-.371-.043-.708-.133-1.989-1.678-8.437-1.853-9.167a2.854 2.854 0 0 1-.055-.713 3.448 3.448 0 0 1 .246-1.068l.049-.1-.022-.11a65.108 65.108 0 0 1-.351-1.921l-.067-.4c1.552-.371 3.1-.76 4.649-1.149Zm.165-.391c-2.107.527-4.212 1.063-6.323 1.566.056.343.045.265.119.708s.241 1.386.353 1.934a3.716 3.716 0 0 0-.279 1.2 3.207 3.207 0 0 0 .064.8 91.5 91.5 0 0 1 1.846 9.112c.045.669.055.84.054.84v-.01c.032.409.036.221.1.361a59.624 59.624 0 0 1 2 10.074 30.637 30.637 0 0 0 .258 3.087c.124.432.291.626.511.626a.852.852 0 0 0 .489-.227.361.361 0 0 1 .233-.087c.136 0 .256.074.359.074.163 0 .284-.181.366-1.113.161-1.843.944-5.968.612-9.056a40.539 40.539 0 0 1 .137-10.81c.041-.236.288-1.794.3-2.2.094-2.322.086-4.864-1.2-6.886m-4.18 15.98.014.181v-.068l-.009-.113" data-name="Path 846"></path><path fill="#381077" d="M42.636 69.381a14.262 14.262 0 0 1-2.019 3.506c-.728.917-.4 1.828.348 2.005a2.107 2.107 0 0 0 2.563-1.331c.683-2.329 1.017-1.62 1-4.013a.972.972 0 0 1-.738.391c-.536.014-1.151-.14-1.151-.559" data-name="Path 847"></path><path fill="#573095" d="M48 50.317c-.1-2.184-.649-11.892-2.342-16.918l-10.3.846a66.884 66.884 0 0 0-1.771 16.708h.033a3.526 3.526 0 0 0 2.136 2.95 11.55 11.55 0 0 0 10.251.018c1.732-.978 2.391-2.333 1.989-3.6" data-name="Path 848"></path><path fill="none" stroke="#573095" stroke-miterlimit="10" stroke-width=".483" d="M48 50.317c-.1-2.184-.649-11.892-2.342-16.918l-10.3.846a66.884 66.884 0 0 0-1.771 16.708h.033a3.526 3.526 0 0 0 2.136 2.95 11.55 11.55 0 0 0 10.251.018c1.739-.978 2.393-2.332 1.993-3.604Z" data-name="Path 849"></path><path fill="#d2d6fc" d="M36.828 30.188c-.589-.04-1.133-.4-1.19-.678l.015-.184-.069-2.068-.69-11.448v-.122a1.735 1.735 0 0 1 3.469.025L38.26 28.3l-.267 1.3-.017.147c-.07.244-.505.447-1.008.447h-.14" data-name="Path 850"></path><path fill="#6a3ab5" d="m36.627 13.833.008.338a1.552 1.552 0 0 1 1.552 1.539l-.1 12.482v.092l-.268 1.316-.011.1a.943.943 0 0 1-.842.33h-.127a1.35 1.35 0 0 1-1.024-.515l.009-.2-.069-2.062-.69-11.43v-.133a1.554 1.554 0 0 1 1.564-1.518Zm0 0a1.889 1.889 0 0 0-1.91 1.853v.133l.69 11.444.069 2.054-.012.227c.078.371.708.769 1.348.812.051 0 .1.006.151.006.6 0 1.085-.249 1.182-.6l.015-.131.268-1.28a.256.256 0 0 0 0-.054v-.1l.1-12.48a1.891 1.891 0 0 0-1.892-1.88h-.012" data-name="Path 851"></path><path fill="#6a3ab5" d="M38.015 8.035s-1.789 10.838-.842 11.777S40.3 12.3 40.3 12.3Z" data-name="Path 852"></path><path fill="#441090" d="M46.653 6.49c.951 1.133 1.1 2.535-.457 4.533s-1.651 6.409 2.8 5.785c0 0-1.125 1.894-4.281 1.643-2.854-.227-4.046-3.746-3.7-5.424.6-2.867 3.187-4.711 2.643-5.841s2.989-.7 2.989-.7" data-name="Path 853"></path><path fill="#6a3ab4" d="M35.493 14.694a1.694 1.694 0 0 1 1.878-.625 17.919 17.919 0 0 1 9.415 5.141 1.883 1.883 0 0 1 .458 1.563c-.354 2.137-3.2 9.579-1.45 13.058.368.732-.437 1.638-1.538 2.261a8.2 8.2 0 0 1-4.733.821v.032c-.046-.015-.09-.035-.135-.05a7.032 7.032 0 0 1-2.561-.79 2.442 2.442 0 0 1-1.514-2.241c-.028.161.151-.894.37-2.263.509-3.178.108-2.961-1.009-5.7-.074-.182-.56-.609-.876-1.076a3.5 3.5 0 0 1-.4-.919c-.323-.826.476-3.7 1.452-6.358.258-.7.316-2.389.644-2.858" data-name="Path 854"></path><path fill="none" stroke="#6a3ab4" stroke-miterlimit="10" stroke-width=".483" d="M35.493 14.694a1.694 1.694 0 0 1 1.878-.625 17.919 17.919 0 0 1 9.415 5.141 1.883 1.883 0 0 1 .458 1.563c-.354 2.137-3.2 9.579-1.45 13.058.368.732-.437 1.638-1.538 2.261a8.2 8.2 0 0 1-4.733.821v.032c-.046-.015-.09-.035-.135-.05a7.032 7.032 0 0 1-2.561-.79 2.442 2.442 0 0 1-1.514-2.241c-.028.161.151-.894.37-2.263.509-3.178.108-2.961-1.009-5.7-.074-.182-.56-.609-.876-1.076a3.5 3.5 0 0 1-.4-.919c-.323-.826.476-3.7 1.452-6.358.256-.698.315-2.384.643-2.854Z" data-name="Path 855"></path><path fill="#d2d6fc" d="M35.233 38.753a1.164 1.164 0 0 1-.166-.01.368.368 0 0 1-.227-.09.258.258 0 0 1-.021-.174 1.377 1.377 0 0 1 .542-.852c.029-.025.932-.911 1.525-1.37l.514-.4-.647.1a1.633 1.633 0 0 0-.632.211 1.375 1.375 0 0 1 .949-.607 4.105 4.105 0 0 1 .589-.089c.1 0 .2-.01.3-.01a2.968 2.968 0 0 1 .308.016l.07.017.12-.025 7.072-4.325-1.522-10.1a1.776 1.776 0 0 1 1.716-1.821A1.8 1.8 0 0 1 47.6 20.9l.526 11.288a1.361 1.361 0 0 1-.867 1.318l-8.039 3.231-.032.063a4.38 4.38 0 0 1-.681.465 7.651 7.651 0 0 0-.662.435 4.832 4.832 0 0 1-1.661.886 3.832 3.832 0 0 1-.953.162" data-name="Path 856"></path><path fill="#6a3ab5" d="M45.808 19.394a1.607 1.607 0 0 1 1.623 1.518l.513 11.026.013.261a1.193 1.193 0 0 1-.761 1.155l-7.978 3.206-.074.03-.054.059-.019.022a3.782 3.782 0 0 1-.653.454 7.557 7.557 0 0 0-.678.448 4.7 4.7 0 0 1-1.6.855 3.773 3.773 0 0 1-.905.155 1.073 1.073 0 0 1-.14-.009c-.059-.009-.092-.02-.1-.02a1.154 1.154 0 0 1 .477-.792l.021-.015.018-.018c.009-.009.905-.888 1.489-1.339l.977-.756c.08 0 .164 0 .278.014l.028.009h.01l.14.032.123-.074 6.977-4.267.192-.117-.033-.218-1.5-9.958a1.606 1.606 0 0 1 1.55-1.661Zm-8.09 16.248-.665.1.055-.014a3.706 3.706 0 0 1 .557-.083h.053m8.09-16.586h-.091a1.945 1.945 0 0 0-1.879 2.015l1.506 9.991-6.977 4.267a.6.6 0 0 0-.059-.016h-.019a3.076 3.076 0 0 0-.326-.017c-.105 0-.207 0-.315.01a4.022 4.022 0 0 0-.617.092 2.232 2.232 0 0 0-1.107.594.207.207 0 0 0 0 .293.013.013 0 0 0 .007.012.227.227 0 0 0 .152.056.236.236 0 0 0 .116-.03l.012-.012a1.489 1.489 0 0 1 .566-.188c-.607.471-1.52 1.366-1.52 1.366-.49.353-.748 1.042-.55 1.272a.533.533 0 0 0 .335.148 1.341 1.341 0 0 0 .19.012 4.017 4.017 0 0 0 1-.17 4.987 4.987 0 0 0 1.718-.913 15.449 15.449 0 0 0 1.39-.956l.006-.01 7.977-3.205a1.527 1.527 0 0 0 .974-1.483l-.013-.263-.508-11.024a1.954 1.954 0 0 0-1.968-1.841" data-name="Path 857"></path><g data-name="Group 109" opacity=".15" style="mix-blend-mode:multiply;isolation:isolate"><g data-name="Group 108"><g clip-path="url(#c)" data-name="Group 107"><path fill="#7baeff" d="M46.111 30.9c-.14-.017-.232-.03-.232-.03s.091.01.232.03" data-name="Path 858"></path></g></g></g><path fill="#d2d6fc" d="M41 17.8a3.211 3.211 0 0 1-1.552-.36.978.978 0 0 1-.584-.745.89.89 0 0 1 .467-.734l.072-.05v-.086a15.114 15.114 0 0 1 .327-3.933 2.627 2.627 0 0 1 1.222-.272 2.541 2.541 0 0 1 1.226.284 20.185 20.185 0 0 1 .526 3.977l.007.073.059.045a.832.832 0 0 1 .393.692 1.013 1.013 0 0 1-.6.743A3.24 3.24 0 0 1 41 17.8" data-name="Path 859"></path><path fill="#6a3ab5" d="M40.955 11.785a2.464 2.464 0 0 1 1.075.227 22.746 22.746 0 0 1 .506 3.88l.013.148.12.09a.674.674 0 0 1 .326.547.858.858 0 0 1-.509.609 3.114 3.114 0 0 1-1.486.341 3.041 3.041 0 0 1-1.465-.337c-.311-.177-.489-.391-.5-.607a.741.741 0 0 1 .393-.589l.144-.1v-.172a17.245 17.245 0 0 1 .284-3.808 2.5 2.5 0 0 1 1.091-.231m0-.338a2.766 2.766 0 0 0-1.329.311c-.273.153-.362 2.681-.392 4.059-.759.519-.723 1.282.13 1.765a3.7 3.7 0 0 0 3.294-.007c.831-.469.9-1.2.221-1.714-.119-1.316-.367-3.97-.611-4.108a2.729 2.729 0 0 0-1.313-.307" data-name="Path 860"></path><path fill="#d2d6fc" d="M38.248 14.66a1.158 1.158 0 0 1-.227-.017c-.882-.181-1.383-1.936-1.277-4.472.092-2.232 1.477-4.047 3.085-4.047a3.414 3.414 0 0 1 2.351 1.2 4.149 4.149 0 0 1 1.085 3.112c-.3 3.47-4.094 4.222-5.017 4.222" data-name="Path 861"></path><path fill="#6a3ab5" d="M39.83 6.293h.08a3.228 3.228 0 0 1 2.14 1.143 3.984 3.984 0 0 1 1.042 2.986c-.289 3.343-3.953 4.067-4.844 4.067a1.023 1.023 0 0 1-.192-.013c-.783-.161-1.24-1.889-1.14-4.3.09-2.142 1.4-3.885 2.913-3.885m0-.338c-1.71 0-3.16 1.859-3.257 4.209-.1 2.394.323 4.42 1.413 4.644a1.357 1.357 0 0 0 .263.021c1.21 0 4.887-.9 5.189-4.377a4.193 4.193 0 0 0-3.514-4.5h-.094" data-name="Path 862"></path><path fill="#32425b" d="m42.572 12.969.016-.008c-.013.013-.016.008-.016.008" data-name="Path 863"></path><path fill="#6a3ab5" d="M43.424 3.981a3.839 3.839 0 0 1 2.841 2.969 10.064 10.064 0 0 1 .045 1.385l-.015.011a9.143 9.143 0 0 1-3.852 4.663l.006-.027a8.109 8.109 0 0 1 .343-1 1.965 1.965 0 0 0 .15-.8 1.753 1.753 0 0 0-.31-1.123v.03c-.293-.52-1.273.738-2.152-.232-.6-.66-1.36-2.83-2.48-2.512a1.338 1.338 0 0 0-.963.972 2.076 2.076 0 0 1-1.119-1.743c-.044-.713 4.816-3.671 7.51-2.6" data-name="Path 864"></path><path fill="#2b3b51" d="M42.584 13.332" data-name="Path 865"></path><path fill="#2b3b51" d="M42.562 12.972" data-name="Path 866"></path><path fill="#d2d6fc" d="M21.151 30.86c-2.445 0-6.415-.849-8.205-2.065a2.426 2.426 0 0 1-1.135-1.8 1.645 1.645 0 0 1 .644-1.375 1.926 1.926 0 0 1 1.174-.572 3.4 3.4 0 0 1 1.621.77c1.225.809 5.77 1.149 5.963 1.162l.111.009 3.693-6.665.05-.081c.157-.3.325-.706.506-1.138a14.781 14.781 0 0 1 .837-1.789 4.821 4.821 0 0 0 .4-.792c.077-.19.077-.19.5-.283l.225-.051a.848.848 0 0 1 .183-.022.651.651 0 0 1 .579.394 2.992 2.992 0 0 1 .03 2.373 5.293 5.293 0 0 1-1.175 1.148l-.121.091.078.129c-.02.525-3.892 9.824-4.249 10.262a2.936 2.936 0 0 1-1.709.295Z" data-name="Path 867"></path><path fill="#6a3ab5" d="M27.713 16.334c.11 0 .274.031.428.307a2.888 2.888 0 0 1 .036 2.2 5.153 5.153 0 0 1-1.135 1.106l-.222.2.121.2c-.274 1.007-3.77 9.394-4.21 10.089a3.015 3.015 0 0 1-1.581.251c-2.413 0-6.393-.871-8.105-2.036a2.254 2.254 0 0 1-1.062-1.671 1.486 1.486 0 0 1 .584-1.239 1.78 1.78 0 0 1 1.062-.531 3.346 3.346 0 0 1 1.523.741c1.242.819 5.559 1.155 6.047 1.191l.223.016.107-.192 3.631-6.555.066-.109c.155-.3.325-.707.505-1.139a14.54 14.54 0 0 1 .826-1.768 5.194 5.194 0 0 0 .414-.815c.02-.051.032-.089.021-.09a2.711 2.711 0 0 1 .351-.09l.227-.051a.649.649 0 0 1 .142-.017m0-.338a.986.986 0 0 0-.222.027c-1.093.252-.522.04-1.23 1.2-.494.812-.974 2.216-1.342 2.927l-.055.088-3.639 6.569s-4.677-.342-5.878-1.133a3.485 3.485 0 0 0-1.717-.8 2.06 2.06 0 0 0-1.286.612c-1.2.993-.769 2.578.5 3.444 1.824 1.241 5.865 2.1 8.3 2.1a3.255 3.255 0 0 0 1.83-.351c.28-.232 4.411-10.108 4.319-10.383a.361.361 0 0 0-.046-.082 5.48 5.48 0 0 0 1.215-1.191c.431-.657.4-3.027-.755-3.027" data-name="Path 868"></path><path fill="#d2d6fc" d="M3.119 24.853A2.412 2.412 0 0 1 .94 23.521a2.091 2.091 0 0 1-.014-1.688 3.551 3.551 0 0 1 1.948-1.942c.164-.03 6.108-.86 9.224-1.294l.07-.01 6.246-8.073c.2-.15.274-.164.291-.164a1.218 1.218 0 0 1 .118.218 2.971 2.971 0 0 0 .4.652c.435.532.331.633-.245 1.2l-4.63 8.646a1.67 1.67 0 0 1-.316.2l-.169.08L4.2 24.6a2.478 2.478 0 0 1-1.078.249" data-name="Path 869"></path><path fill="#6a3ab5" d="m18.634 10.573.032.068a3.129 3.129 0 0 0 .417.686c.338.413.338.413-.256.993l-.038.036-.024.047-4.549 8.532a1.164 1.164 0 0 1-.264.176l-.133.066L4.1 24.461a2.273 2.273 0 0 1-.983.223A2.24 2.24 0 0 1 1.1 23.447a1.929 1.929 0 0 1-.007-1.555 3.376 3.376 0 0 1 1.819-1.831c.527-.085 6.787-.958 9.215-1.3l.141-.02.086-.11 6.176-7.984c.045-.033.08-.059.109-.078m.071-.391a.847.847 0 0 0-.428.231l-6.2 8.017s-9.211 1.283-9.267 1.307c-1.758.732-2.65 2.6-2.022 3.859a2.6 2.6 0 0 0 2.334 1.427 2.635 2.635 0 0 0 1.135-.257l9.678-3.27.17-.081a1.516 1.516 0 0 0 .393-.274l4.576-8.582c.6-.582.821-.784.281-1.443-.412-.5-.417-.933-.647-.933" data-name="Path 870"></path><path fill="#d2d6fc" d="M19.048 11.874a.76.76 0 0 1-.679-.414c-.186-.454-.152-.665-.091-.76.205-.328.457-.672.728-1.045.216-.3.446-.612.674-.949a1.7 1.7 0 0 1 1.395-.669c.436 0 .984.165 1.094.629.227.953-.017 1.037-.384 1.166a1.228 1.228 0 0 0-.648.412 7.006 7.006 0 0 1-1.349 1.262 1.048 1.048 0 0 1-.738.368" data-name="Path 871"></path><path fill="#6a3ab5" d="M21.073 8.207c.4 0 .844.154.926.5.192.806.055.853-.274.968a1.4 1.4 0 0 0-.732.473 6.846 6.846 0 0 1-1.309 1.224l-.025.018-.021.022a.841.841 0 0 1-.59.3.586.586 0 0 1-.52-.308c-.186-.457-.113-.6-.1-.61.2-.319.453-.666.719-1.032.218-.3.449-.618.679-.956a1.521 1.521 0 0 1 1.251-.593m0-.338a1.86 1.86 0 0 0-1.539.745c-.514.756-1.033 1.407-1.4 2a1.117 1.117 0 0 0 .078.913.93.93 0 0 0 .84.52 1.176 1.176 0 0 0 .839-.4 7.093 7.093 0 0 0 1.388-1.3c.448-.614 1.454-.058 1.061-1.714a1.2 1.2 0 0 0-1.262-.76" data-name="Path 872"></path><path fill="#aec5e5" d="m21.89 6.636-.012-.007a.063.063 0 0 0-.048.008l-.334.188A.216.216 0 0 0 21.4 7v.13a.079.079 0 0 0 .031.071l.385.22.044-.234.313-.237.091-.1Z" data-name="Path 873"></path><path fill="#c4dbf7" d="M21.842 6.63a.088.088 0 0 0-.018.007l-.333.188a.165.165 0 0 0-.054.055l.473.267.262-.2.079-.087Z" data-name="Path 874"></path><path fill="#809fbc" d="m22.217 7.231-.333.189c-.051.029-.092 0-.092-.069V7.22a.217.217 0 0 1 .092-.172l.333-.189c.051-.029.092 0 .092.069v.13a.215.215 0 0 1-.092.172" data-name="Path 875"></path><path fill="#d2d6fc" d="M18.853 11.244a.444.444 0 0 1-.238-.068.371.371 0 0 1-.17-.241.346.346 0 0 1 .065-.272 6.434 6.434 0 0 1 .689-.545c.213-.146.432-.285.661-.412a4.609 4.609 0 0 1 1.478-.557h.006c.057 0 .092.026.1.059s0 .157-.077.185a5.646 5.646 0 0 0-1.2.662 7.969 7.969 0 0 0-.512.494 6.6 6.6 0 0 0-.45.526.438.438 0 0 1-.352.17" data-name="Path 876"></path><path fill="#6a3ab5" d="M20.821 9.455a3.939 3.939 0 0 0-.769.474c-.173.15-.349.321-.525.506a6.762 6.762 0 0 0-.462.54.262.262 0 0 1-.212.1.273.273 0 0 1-.145-.041.2.2 0 0 1-.093-.13.176.176 0 0 1 .034-.141.236.236 0 0 1 .038-.04 7.255 7.255 0 0 1 .611-.467c.224-.153.436-.287.646-.4a5.318 5.318 0 0 1 .877-.4m.534-.476a.276.276 0 0 0-.048 0 4.849 4.849 0 0 0-1.534.576c-.233.13-.457.272-.675.422a7.321 7.321 0 0 0-.64.49h-.007a.6.6 0 0 0-.082.089.515.515 0 0 0 .152.755.621.621 0 0 0 .331.094.613.613 0 0 0 .492-.238 6.326 6.326 0 0 1 .438-.511 7.11 7.11 0 0 1 .5-.482 5.557 5.557 0 0 1 1.145-.632.336.336 0 0 0 .186-.373.256.256 0 0 0-.257-.2" data-name="Path 877"></path><path fill="#fff" d="M3.7 81.18a2 2 0 0 1-.52-.065.486.486 0 0 1-.4-.452v-.048l-.019-.048a1.952 1.952 0 0 1 .077-1.639A6.017 6.017 0 0 0 5 78.3c.259-.188.493-.345.744-.492a12.612 12.612 0 0 1 3.133-.491 1.213 1.213 0 0 1 .588.077.47.47 0 0 1 .242.419c-.014.237-.26.909-2.255 2.005-.652.358-2.381 1.044-2.4 1.051a3.492 3.492 0 0 1-1.352.311" data-name="Path 878"></path><path fill="#6a3ab5" d="M8.876 77.55a2.084 2.084 0 0 1 .448.034c.146.1.142.176.14.211-.006.11-.138.715-2.132 1.811-.639.351-2.354 1.031-2.405 1.053a3.224 3.224 0 0 1-1.231.284 1.77 1.77 0 0 1-.457-.056c-.173-.047-.215-.15-.219-.215v-.1l-.042-.094a1.663 1.663 0 0 1 .013-1.315 6.578 6.578 0 0 0 2.109-.652l.046-.022.04-.03a7.442 7.442 0 0 1 .666-.445 12.891 12.891 0 0 1 3.02-.465m0-.476a12.287 12.287 0 0 0-3.258.526 7.9 7.9 0 0 0-.723.481 5.612 5.612 0 0 1-2.181.613h-.024a2.213 2.213 0 0 0-.153 1.968.725.725 0 0 0 .577.683 2.249 2.249 0 0 0 .585.073 3.707 3.707 0 0 0 1.448-.333s1.753-.693 2.427-1.064c2.572-1.414 2.71-2.352 2.036-2.825a1.473 1.473 0 0 0-.731-.122" data-name="Path 879"></path><path fill="#381077" d="M2.584 78.314a5.551 5.551 0 0 0 2.208-.614 7.732 7.732 0 0 1 .724-.482c.345-.2 3.461-.774 3.989-.4.673.473.534 1.412-2.036 2.825-.669.368-2.427 1.057-2.427 1.057a3.332 3.332 0 0 1-2.033.261.726.726 0 0 1-.577-.684 2.209 2.209 0 0 1 .153-1.968" data-name="Path 880"></path><path fill="#6035a4" d="M3.912 79.356a2.324 2.324 0 0 1-1.1-.345.9.9 0 0 1-.564-.744c0-.025-.025-.3-.071-.753-.2-2.045-.745-7.476-.936-11.924a14.845 14.845 0 0 1 .334-3.325 6.552 6.552 0 0 0 .162-1.21c-.011-.133-.064-.683-.145-1.5C1.276 56.394.448 48 .512 47.1l.008-.106c.252-3.757 1.9-5.661 4.884-5.661a8.416 8.416 0 0 1 1.29.106 3.8 3.8 0 0 1 2.562 1.642 4.318 4.318 0 0 1 .634 3.444c-.186.767-.351 1.536-.52 2.305l-.27 1.234-.717 3.551C7.9 56.027 6.564 65.527 6.364 67.934c-.2 2.377-.848 10.146-.837 10.329.016.274-.182.542-.555.754a2.143 2.143 0 0 1-1.06.338" data-name="Path 881"></path><path fill="#6035a4" d="M5.405 41.553a8.185 8.185 0 0 1 1.253.1A3.58 3.58 0 0 1 9.07 43.2a4.1 4.1 0 0 1 .6 3.272c-.186.768-.352 1.537-.52 2.308-.089.411-.178.822-.272 1.242l-.716 3.548C7.683 55.988 6.341 65.5 6.14 67.916c-.387 4.629-.847 10.184-.84 10.359s-.152.387-.444.552a1.923 1.923 0 0 1-.947.31 2.119 2.119 0 0 1-1-.318c-.287-.153-.45-.352-.447-.547 0-.046 0-.07-.072-.78-.2-2.043-.744-7.471-.934-11.911a14.679 14.679 0 0 1 .336-3.281 6.374 6.374 0 0 0 .164-1.274c-.01-.127-.065-.687-.147-1.515C1.5 56.362.674 47.992.737 47.116l.007-.107c.244-3.62 1.812-5.456 4.661-5.456m0-.44c-4.858 0-5.04 4.912-5.116 5.971-.082 1.132 1.166 13.326 1.22 13.981a33.238 33.238 0 0 0-.5 4.534c.24 5.461 1.014 12.531 1.011 12.665a1.1 1.1 0 0 0 .681.94 2.561 2.561 0 0 0 1.211.372 2.368 2.368 0 0 0 1.173-.369 1.09 1.09 0 0 0 .667-.957c-.011-.181.836-10.3.836-10.3.2-2.4 1.545-11.926 2.016-14.293l.716-3.547c.264-1.179.5-2.359.787-3.535a4.341 4.341 0 0 0-3.379-5.355 8.607 8.607 0 0 0-1.328-.107" data-name="Path 882"></path><g data-name="Group 112" opacity=".11" style="mix-blend-mode:multiply;isolation:isolate"><g data-name="Group 111"><g clip-path="url(#d)" data-name="Group 110"><path fill="#3e6593" d="M5.752 78.251c-.01-.181.836-10.3.836-10.3.2-2.4 1.546-11.926 2.016-14.293l.218-1.079a3.259 3.259 0 0 0-2.514.749 7.8 7.8 0 0 0-1.694-1.849c-.867-.606-.43 8.716-.621 11.049-.131 1.611.055 11.229.183 17.027a2.692 2.692 0 0 0 .909-.348 1.087 1.087 0 0 0 .667-.956" data-name="Path 883"></path></g></g></g><path fill="#fff" d="M10.256 84.762a1 1 0 0 1-.481-.085c-.359-.2-.371-.288-.394-.455-.007-.05-.047-.25-.053-.293l-.007-.073a2.408 2.408 0 0 1 .007-.548c.091-.873.618-1.8 1.416-1.8a1.329 1.329 0 0 1 .4.067 6.7 6.7 0 0 0 2.052.331 8.573 8.573 0 0 0 1.55-.16l.451-.085a8.824 8.824 0 0 1 1.43-.2c.237 0 .388.042.454.125s.11.274-.021.738c-.376 1.332-2.1 1.806-3.6 1.806-.105 0-.312-.008-.312-.008a5.436 5.436 0 0 0-1.519.416 6 6 0 0 1-1.374.226" data-name="Path 884"></path><path fill="#6a3ab5" d="M16.626 81.7a.8.8 0 0 1 .258.03c.006.014.051.138-.061.532-.34 1.2-2.023 1.631-3.361 1.631-.1 0-.2 0-.3-.007h-.054a5.44 5.44 0 0 0-1.549.426 5.59 5.59 0 0 1-1.305.217.8.8 0 0 1-.358-.052c-.225-.127-.259-.188-.259-.188a.785.785 0 0 1-.017-.094 2.685 2.685 0 0 0-.034-.192.916.916 0 0 1-.018-.1l-.007-.068a2.243 2.243 0 0 1 .007-.5c.064-.612.439-1.58 1.175-1.58a1.066 1.066 0 0 1 .324.054 6.959 6.959 0 0 0 2.128.342 8.809 8.809 0 0 0 1.594-.164l.452-.085a8.673 8.673 0 0 1 1.383-.2m0-.476a13.022 13.022 0 0 0-1.924.292 8.166 8.166 0 0 1-1.5.156 6.422 6.422 0 0 1-1.978-.319 1.554 1.554 0 0 0-.474-.077c-.99 0-1.562 1.081-1.659 2.008a2.7 2.7 0 0 0-.008.6l.012.083a1.308 1.308 0 0 0 .029.153c.062.282-.024.453.537.77a1.273 1.273 0 0 0 .6.116 6.141 6.141 0 0 0 1.47-.245 5.6 5.6 0 0 1 1.384-.4h.03c.105 0 .213.008.323.008 1.5 0 3.408-.484 3.83-1.98.254-.9-.034-1.165-.667-1.165" data-name="Path 885"></path><path fill="#381077" d="M8.963 83.426a2.7 2.7 0 0 1 .007-.6c.112-1.066.853-2.337 2.134-1.931a6.662 6.662 0 0 0 3.482.164c1.816-.333 3.323-.481 2.663 1.021-.726 1.653-2.7 1.9-4.225 1.823a5.306 5.306 0 0 0-1.413.4s-1.5.451-2.071.129-.476-.488-.538-.77a1.309 1.309 0 0 1-.029-.153l-.011-.083" data-name="Path 886"></path><path fill="#6035a4" d="M10.925 82.721a2.243 2.243 0 0 1-1.04-.321.943.943 0 0 1-.582-.685l-.021-.161a429.2 429.2 0 0 1-1.588-13.643C7.618 67.127 5.831 52.851 5 51.984c-2.379-2.477-2.569-3.359-2.769-4.293-.036-.164-.071-.33-.119-.5-.332-1.255.192-1.59.537-1.812.158-.1.307-.2.32-.375.134-1.866 3.3-2.528 5.971-2.528.341 0 .662.01.953.031a4.2 4.2 0 0 1 3.942 4.443c-.385 5.334-1.3 34.548-1.3 34.665a.892.892 0 0 1-.528.733 2.082 2.082 0 0 1-1.085.377" data-name="Path 887"></path><path fill="#6035a4" d="M8.941 42.691c.326 0 .64.01.936.03a3.975 3.975 0 0 1 3.733 4.212c-.387 5.367-1.3 34.569-1.3 34.684.006.177-.148.373-.422.539a1.887 1.887 0 0 1-.967.345 2.038 2.038 0 0 1-.934-.3c-.281-.149-.45-.333-.464-.509 0 0-.007-.064-.022-.174-.28-2.105-.995-7.648-1.586-13.631-.015-.144-1.815-15.076-2.75-16.053-2.336-2.434-2.513-3.247-2.715-4.189a11.273 11.273 0 0 0-.12-.513c-.291-1.1.115-1.364.442-1.573a.736.736 0 0 0 .421-.544c.116-1.606 2.971-2.324 5.748-2.324m0-.44c-2.523 0-6.043.611-6.2 2.733-.019.272-1.349.367-.85 2.257.321 1.217.121 1.956 2.942 4.894.713.743 2.487 14.3 2.634 15.8.718 7.266 1.6 13.754 1.607 13.8a1.148 1.148 0 0 0 .7.86 2.465 2.465 0 0 0 1.149.349 2.313 2.313 0 0 0 1.2-.41 1.1 1.1 0 0 0 .636-.928c0-.09.917-29.384 1.3-34.638a4.412 4.412 0 0 0-4.149-4.685 13.9 13.9 0 0 0-.968-.032" data-name="Path 888"></path><path fill="#fff" d="M7.142 47.5a10.054 10.054 0 0 1-2.23-.243c-3.023-.692-3.826-2.234-3.833-2.25A2.092 2.092 0 0 1 .808 44c0-.333-.169-11.177-.469-14.873a17.3 17.3 0 0 1 .441-6.341A4.287 4.287 0 0 1 3 19.917a3.6 3.6 0 0 1 1.281-.179l.239-.01a14.182 14.182 0 0 1 5.484 1.76 32.042 32.042 0 0 1 4.4 2.983c.128.116 1.212 1.133 1.161 2.04a6.24 6.24 0 0 1-.121.879 17.08 17.08 0 0 0-.149.708c-.15.747-.4 2-.659 3.023-.017.137-.949 10.244-1.112 12.842-.007.066-.013.185-.013.185l-.012.054a3.2 3.2 0 0 1-1.8 2.214A9.578 9.578 0 0 1 7.142 47.5Z" data-name="Path 889"></path><path fill="#6a3ab5" d="M4.509 19.968A13.931 13.931 0 0 1 9.891 21.7a32.3 32.3 0 0 1 4.356 2.952 3 3 0 0 1 1.08 1.853 5.934 5.934 0 0 1-.111.824 14.16 14.16 0 0 0-.154.727c-.15.745-.4 1.991-.657 3.013l-.005.031v.035c-.009.1-.931 10.09-1.1 12.8 0 .052-.01.1-.012.15l-.01.083a2.974 2.974 0 0 1-1.683 2.036 9.321 9.321 0 0 1-4.44 1.054 9.79 9.79 0 0 1-2.175-.237c-2.902-.655-3.68-2.102-3.69-2.13a1.847 1.847 0 0 1-.238-.883c0-.335-.168-11.177-.47-14.9a16.9 16.9 0 0 1 .436-6.27 4.042 4.042 0 0 1 2.091-2.708 3.5 3.5 0 0 1 1.191-.155Zm.006-.477A4.567 4.567 0 0 0 2.9 19.7a4.553 4.553 0 0 0-2.358 3.03A17.456 17.456 0 0 0 .1 29.149C.391 32.785.569 43.567.565 44a2.321 2.321 0 0 0 .295 1.111s.8 1.647 4 2.377a10.3 10.3 0 0 0 2.285.25 9.767 9.767 0 0 0 4.683-1.118 3.4 3.4 0 0 0 1.922-2.39.081.081 0 0 0 .013-.03 2.05 2.05 0 0 1 .014-.216v-.008c.164-2.624 1.1-12.8 1.1-12.8.385-1.534.749-3.53.806-3.721a6.236 6.236 0 0 0 .129-.933c.056-1-1.035-2.043-1.234-2.225a32.679 32.679 0 0 0-4.447-3.018 14.4 14.4 0 0 0-5.617-1.789" data-name="Path 890"></path><path fill="#d2d6fc" d="M7.64 22.631a2.878 2.878 0 0 1-1.211-.24c-.389-.182-.606-.438-.611-.72.007-.163.433-3.522.719-5.74a1.264 1.264 0 0 1 2.425.515c.36 1.936.9 4.805.913 4.934a.9.9 0 0 1-.5.783 3.242 3.242 0 0 1-1.736.468" data-name="Path 891"></path><path fill="#6a3ab5" d="m7.705 15 .042.339a1.072 1.072 0 0 1 1.042 1.1v.037l.007.037c.353 1.877.888 4.728.908 4.88.02.207-.134.436-.423.63a3.063 3.063 0 0 1-1.639.438 2.749 2.749 0 0 1-1.142-.223c-.323-.151-.51-.359-.513-.555s.43-3.5.712-5.688a1.092 1.092 0 0 1 1-.657Zm0 0a1.431 1.431 0 0 0-1.339.912s-.722 5.606-.72 5.763a1.04 1.04 0 0 0 .71.87 3.068 3.068 0 0 0 1.284.255 3.4 3.4 0 0 0 1.834-.5 1.059 1.059 0 0 0 .573-.94c-.013-.128-.913-4.91-.913-4.91A1.412 1.412 0 0 0 7.761 15h-.056" data-name="Path 892"></path><path fill="#d2d6fc" d="M8.941 19.154a5.979 5.979 0 0 1-1.913-.335 1.23 1.23 0 0 1-.781-.6A.792.792 0 0 0 6 17.9a5.686 5.686 0 0 1-1.883-2.713 5.65 5.65 0 0 1 .1-4.42 3.2 3.2 0 0 1 1.865-1.683 6.806 6.806 0 0 1 1.978-.369c1.662 0 2.911 1.078 3.933 3.393a11.985 11.985 0 0 1 1.08 3.979 4.816 4.816 0 0 1-.135 1.534 6.506 6.506 0 0 1-4 1.534" data-name="Path 893"></path><path fill="#6a3ab5" d="M8.059 8.885c1 0 2.472.341 3.776 3.291a11.842 11.842 0 0 1 1.065 3.913 6.094 6.094 0 0 1-.1 1.422 6.305 6.305 0 0 1-3.857 1.474 5.74 5.74 0 0 1-1.859-.326 1.066 1.066 0 0 1-.677-.515.965.965 0 0 0-.3-.382 5.532 5.532 0 0 1-1.825-2.635 5.485 5.485 0 0 1 .1-4.287 3.028 3.028 0 0 1 1.753-1.594 6.6 6.6 0 0 1 1.924-.361m0-.338a6.864 6.864 0 0 0-2.03.377c-2.081.649-3.119 3.518-2.076 6.32a5.809 5.809 0 0 0 1.947 2.79.623.623 0 0 1 .195.251 1.393 1.393 0 0 0 .883.694 6.123 6.123 0 0 0 1.968.344 6.6 6.6 0 0 0 4.112-1.579c.193-.15.195-1.416.193-1.657a12.127 12.127 0 0 0-1.1-4.045c-1.207-2.737-2.644-3.495-4.092-3.495" data-name="Path 894"></path><path fill="#6a3ab5" d="M10.372 8.077c-.3-.026-1.246-.536-1.747-.568-3.973-.253-6.063 3.311-6.332 5.105a4.083 4.083 0 0 0 .222 1.286s-1.232.765.974 3.247a42.82 42.82 0 0 0 1.555 1.651 3.536 3.536 0 0 1 .747.351 5.922 5.922 0 0 0 .879.389 4.23 4.23 0 0 0 1.578-.371c1.19-.591 1.083-1.966 1.318-3.055.207-.963.106-1.933.308-2.875a1.9 1.9 0 0 1 .267-.674c-.094-.9.813-.933.937-.988 3.306-1.434.834-3.364-.706-3.5" data-name="Path 895"></path><path fill="#fff" d="M18.9 30.917a.286.286 0 0 1-.076-.01c-.091-.014-5.875-.8-7.076-2.677a1.97 1.97 0 0 1-.232-1.912 2.7 2.7 0 0 1 1.6-1.446 3.347 3.347 0 0 1 .728-.071c2.382 0 6.1 1.833 6.136 1.852.447.126.64 1.153.3 2.365-.333 1.173-.972 1.9-1.374 1.9" data-name="Path 896"></path><path fill="#6a3ab5" d="M13.844 25.04c2.321 0 5.989 1.808 6.026 1.826l.043.022.048.012c.158.043.431.816.081 2.056-.32 1.131-.911 1.722-1.15 1.722l-.032-.009h-.033c-1.59-.211-5.922-1.08-6.87-2.559a1.75 1.75 0 0 1-.213-1.694 2.475 2.475 0 0 1 1.428-1.306 3.09 3.09 0 0 1 .674-.066m0-.476a3.565 3.565 0 0 0-.784.078c-.828.188-2.794 1.724-1.517 3.716s7.217 2.779 7.217 2.779a.548.548 0 0 0 .142.018c.575 0 1.269-.875 1.608-2.072.367-1.3.179-2.479-.42-2.642 0 0-3.778-1.877-6.246-1.877" data-name="Path 897"></path><path fill="#6a3ab5" d="M25.213 24.212s1.156 1.593.111 2.047-1.869.149-1.347-2.416 1.236.369 1.236.369" data-name="Path 898"></path><path fill="#6a3ab5" d="M31.2 18.755s2.09-.082 2.063.922-.656 1.576-2.784.3.721-1.221.721-1.221" data-name="Path 899"></path><path fill="#d2d6fc" d="M30.78 19.846a1.065 1.065 0 0 1-.538-.275l-3.274-2.125a2.223 2.223 0 0 0-1.318-.432c-.064 0-.127 0-.192.009l-1.261.108a1.998 1.998 0 0 1-.19.008 2.194 2.194 0 0 1-1.185-.345 2.1 2.1 0 0 1-.944-1.371 2.075 2.075 0 0 1 .342-1.623 2.169 2.169 0 0 1 1.78-.884 2.38 2.38 0 0 1 1.283.372l1.765 1.126a3.844 3.844 0 0 1 1.065.8l2.875 3.386a.993.993 0 0 1 .306.726.59.59 0 0 1-.261.422.433.433 0 0 1-.253.1" data-name="Path 900"></path><path fill="#6a3ab5" d="M24 13.085a2.2 2.2 0 0 1 1.189.346l1.791 1.141.056.03a3.5 3.5 0 0 1 .938.718l2.887 3.4a.818.818 0 0 1 .257.592.419.419 0 0 1-.192.3.248.248 0 0 1-.151.066 1.172 1.172 0 0 1-.451-.254l-3.247-2.106a2.42 2.42 0 0 0-1.433-.472c-.068 0-.136 0-.205.01l-1.261.107a1.708 1.708 0 0 1-.175.008 2.024 2.024 0 0 1-1.091-.317 1.945 1.945 0 0 1-.87-1.261 1.914 1.914 0 0 1 .316-1.491A1.968 1.968 0 0 1 24 13.085m0-.338a2.33 2.33 0 0 0-1.924.96 2.266 2.266 0 0 0 .649 3.227 2.374 2.374 0 0 0 1.28.372c.068 0 .137 0 .2-.009l1.261-.108c.058 0 .117-.008.175-.008a2.049 2.049 0 0 1 1.224.4l3.271 2.119a1.173 1.173 0 0 0 .642.31.6.6 0 0 0 .358-.132c.516-.377.367-.976-.016-1.391L28.243 15.1a3.858 3.858 0 0 0-1.041-.8l-.056-.03-1.765-1.127a2.57 2.57 0 0 0-1.378-.4" data-name="Path 901"></path><path fill="#d2d6fc" d="M24.431 24.474c-.333 0-.511-.3-.6-.552l-1.759-4.2a3.547 3.547 0 0 1-.213-1.212l-.177-2.133a2.208 2.208 0 0 1 1.916-2.4 2.321 2.321 0 0 1 .242-.012 2.166 2.166 0 0 1 2.16 1.95 2.074 2.074 0 0 1-.348 1.346l-.696 1.039a2.1 2.1 0 0 0-.333 1.513l.339 3.711c.082.508.073.75-.2.872a.812.812 0 0 1-.331.078Z" data-name="Path 902"></path><path fill="#6a3ab5" d="M23.836 14.136a1.994 1.994 0 0 1 1.991 1.793 1.906 1.906 0 0 1-.321 1.238l-.695 1.033a2.253 2.253 0 0 0-.362 1.609l.344 3.745c.082.5.045.615-.1.681a.653.653 0 0 1-.262.067c-.233 0-.368-.238-.446-.453l-1.751-4.178a3.391 3.391 0 0 1-.205-1.163v-.091l-.177-2.055a2.036 2.036 0 0 1 1.763-2.216 1.984 1.984 0 0 1 .224-.012m0-.338a2.407 2.407 0 0 0-.261.014 2.376 2.376 0 0 0-2.069 2.58l.177 2.055v.063a3.733 3.733 0 0 0 .226 1.275l1.756 4.193a.853.853 0 0 0 .766.663.976.976 0 0 0 .407-.1c.413-.188.368-.6.3-1.04l-.341-3.723a1.941 1.941 0 0 1 .306-1.393l.695-1.035a2.249 2.249 0 0 0 .369-1.448 2.326 2.326 0 0 0-2.334-2.1" data-name="Path 903"></path><path fill="#d2d6fc" d="M27.472 4.326a1.042 1.042 0 0 1-.422-.337 1.089 1.089 0 0 1 .069-.332 1.255 1.255 0 0 0 .059-.247 1.313 1.313 0 0 0 0-.234c-.037-.486-.042-.765.252-.953a.789.789 0 0 1 .412-.111.449.449 0 0 1 .312.094.122.122 0 0 1 .03.1.681.681 0 0 1-.135.355.778.778 0 0 0-.154.38 1.735 1.735 0 0 1-.2.626l-.04.094c-.01.046-.073.471-.093.586a.459.459 0 0 0-.082-.023" data-name="Path 904"></path><path fill="#6a3ab5" d="M27.838 2.281A1.147 1.147 0 0 1 28 2.3h.008a.506.506 0 0 1-.108.274.953.953 0 0 0-.181.454 1.573 1.573 0 0 1-.189.572l-.02.043-.026.06-.008.039c-.009.039-.021.127-.038.233 0 .036-.012.084-.019.135a1.1 1.1 0 0 1-.2-.168 2.068 2.068 0 0 1 .061-.233 1.352 1.352 0 0 0 .066-.287 1.808 1.808 0 0 0-.008-.3c-.035-.464-.015-.628.177-.751a.615.615 0 0 1 .318-.085m0-.338a.965.965 0 0 0-.507.14c-.386.247-.365.634-.334 1.058a1.381 1.381 0 0 1 .008.259c-.008.134-.178.5-.116.652a1.135 1.135 0 0 0 .55.441c.124.024.174.1.214.1a.028.028 0 0 0 .017 0 5.913 5.913 0 0 0 .144-.777.116.116 0 0 1 .01-.024 2.017 2.017 0 0 0 .239-.72c.033-.3.248-.329.29-.737.025-.255-.228-.382-.515-.382" data-name="Path 905"></path><path fill="#6a3ab5" d="m27.369.954 1.115 2.813a.31.31 0 0 1-.181.4.321.321 0 0 1-.412-.178.315.315 0 0 1-.014-.043l-.691-2.94A.093.093 0 0 1 27.259.9a.1.1 0 0 1 .11.057" data-name="Path 906"></path><path fill="#d2d6fc" d="M27.765 3.646a.964.964 0 0 1-.134-.868c.04-.088.275-.3.367-.3 0 .074-.113.6-.173.88-.022.1-.043.2-.059.291" data-name="Path 907"></path><path fill="#6a3ab5" d="M28 2.305c-.187 0-.469.283-.524.4a1.1 1.1 0 0 0 .384 1.248c.025 0 .042-.019.045-.063.015-.3.352-1.424.183-1.559A.134.134 0 0 0 28 2.305" data-name="Path 908"></path><path fill="#441090" d="M28.017.741a.841.841 0 0 1-1.674.166A.827.827 0 0 1 27.1 0a.837.837 0 0 1 .922.736" data-name="Path 909"></path><path fill="#d2d6fc" d="M22.514 9.593c-.2 0-.532-.034-.584-.266-.348-1.587.916-2 2.254-2.428.17-.055.338-.109.5-.165a1.548 1.548 0 0 0 1.016-.852c.145-.236.282-.5.422-.771a6.8 6.8 0 0 1 .926-1.47.289.289 0 0 0 .056-.089.785.785 0 0 0 .265.367l.037.019.1.015A.371.371 0 0 0 27.7 3.9a7.479 7.479 0 0 1-1.456 3.62c-.465.325-2.137 1.43-2.929 1.9a1.784 1.784 0 0 1-.8.18" data-name="Path 910"></path><path fill="#6a3ab5" d="M27.081 3.864a.612.612 0 0 0 .208.2.486.486 0 0 0 .216.053 7.573 7.573 0 0 1-1.363 3.255c-.459.322-2.123 1.421-2.917 1.89a1.633 1.633 0 0 1-.712.156c-.193 0-.4-.041-.415-.132-.295-1.342.611-1.738 2.139-2.232.17-.055.34-.11.5-.167a1.716 1.716 0 0 0 1.107-.924c.147-.239.286-.507.428-.781a7.528 7.528 0 0 1 .8-1.323m0-.976c-.123.061-.065.536-.162.64A13.9 13.9 0 0 0 25.553 5.8a1.391 1.391 0 0 1-.927.778c-1.428.5-3.295.832-2.865 2.789.064.3.394.4.752.4a1.96 1.96 0 0 0 .891-.2c.788-.466 2.466-1.573 2.94-1.9a7.161 7.161 0 0 0 1.527-4.124c-.114.086-.241.256-.363.256a.129.129 0 0 1-.058-.014 1.862 1.862 0 0 1-.367-.882" data-name="Path 911"></path><path fill="#fff" d="M25.3 18.375a.873.873 0 0 0-.222-.489 2.86 2.86 0 0 0-1.938-.581c-.148 0-1.453.013-1.758.459a1.617 1.617 0 0 1-.363-.691 1.25 1.25 0 0 1-.08-.751c.782-.727 4.409-2.207 5.247-2.543.971 1.3.711 2.09.321 3.256l-.121.367c-.259.8-.724.973-1.07.973Z" data-name="Path 912"></path><path fill="#6a3ab5" d="M26.1 14.072c.77 1.115.54 1.8.177 2.89l-.122.37c-.145.451-.367.713-.664.785a1.122 1.122 0 0 0-.229-.387 3 3 0 0 0-2.121-.662 3.8 3.8 0 0 0-1.72.343 2.25 2.25 0 0 1-.266-.956 28.759 28.759 0 0 1 4.945-2.383m.169-.582s-4.572 1.8-5.5 2.665c-.319.3.208 1.862.634 1.862a.23.23 0 0 0 .185-.12 2.484 2.484 0 0 1 1.555-.353c.975 0 2.022.269 1.914 1.039a1.068 1.068 0 0 0 .263.03c.356 0 .984-.151 1.3-1.138.458-1.425.944-2.348-.35-3.984" data-name="Path 913"></path><path fill="#6a3ab4" d="M19.656 7.8c.9-.86 3.068-1.5 4.108-.506a4.57 4.57 0 0 1 1.132 2 15.3 15.3 0 0 1 1.4 4.366v.008a1.018 1.018 0 0 1 .037.374 1.865 1.865 0 0 1-.622 1.117 5.491 5.491 0 0 1-3.02 1.348 3.445 3.445 0 0 1-1.526-.039c-.993-.349-1.335-2.049-1.4-2.207l-.333-.8c-.049-.118-.1-.231-.14-.34a1.032 1.032 0 0 0-.045-.1 3.106 3.106 0 0 0-.089-.211v-.014c-.034-.077-.063-.154-.091-.224-.021-.048-.042-.09-.058-.134-.144-.354-1.011-3.033.649-4.625" data-name="Path 914"></path><path fill="none" stroke="#6a3ab4" stroke-miterlimit="10" stroke-width=".483" d="M19.656 7.8c.9-.86 3.068-1.5 4.108-.506a4.57 4.57 0 0 1 1.132 2 15.3 15.3 0 0 1 1.4 4.366v.008a1.018 1.018 0 0 1 .037.374 1.865 1.865 0 0 1-.622 1.117 5.491 5.491 0 0 1-3.02 1.348 3.445 3.445 0 0 1-1.526-.039c-.993-.349-1.335-2.049-1.4-2.207l-.333-.8c-.049-.118-.1-.231-.14-.34a1.032 1.032 0 0 0-.045-.1 3.106 3.106 0 0 0-.089-.211v-.014c-.034-.077-.063-.154-.091-.224-.021-.048-.042-.09-.058-.134-.146-.365-1.009-3.043.647-4.638Z" data-name="Path 915"></path><path fill="#d2d6fc" d="M22.6 9.714a4.611 4.611 0 0 1-2.091-1.131l-.36-.269c-.171-.126-.172-.231-.159-.3.066-.332.755-.764 1.17-.87a.6.6 0 0 1 .147-.017 2.249 2.249 0 0 1 1.566 1.109 1.419 1.419 0 0 1 .283 1.118.484.484 0 0 1-.292.309.681.681 0 0 1-.265.05" data-name="Path 916"></path><path fill="#6a3ab5" d="M21.305 7.3a2.089 2.089 0 0 1 1.419 1.029 1.29 1.29 0 0 1 .266.977.315.315 0 0 1-.194.2.513.513 0 0 1-.2.036 4.562 4.562 0 0 1-1.984-1.092q-.184-.139-.362-.271c-.1-.076-.1-.115-.093-.131.049-.24.654-.639 1.044-.739a.441.441 0 0 1 .1-.011m0-.338a.775.775 0 0 0-.191.023c-.551.141-1.828.913-1.072 1.468.841.617 1.8 1.433 2.554 1.433a.87.87 0 0 0 .332-.062c.525-.213.59-.89.089-1.674a2.393 2.393 0 0 0-1.712-1.188" data-name="Path 917"></path><path fill="#d2d6fc" d="M18.038 12.9a1.686 1.686 0 0 1-1.42-.726 1.576 1.576 0 0 1-.207-.459l-.058-.308c-.024-.134-.042-.272-.06-.409l-.03-.218a1.268 1.268 0 0 1 .03-.37 1.67 1.67 0 0 0 0-.358 1.4 1.4 0 0 0-.067-.233c-.172-.487-.249-.772-.006-1.037a.827.827 0 0 1 .567-.249c.21 0 .227.1.233.138a.707.707 0 0 1-.039.4.811.811 0 0 0-.052.422 1.736 1.736 0 0 1-.03.653l-.013.071.043.058c.066.088.125.172.161.231l.053.084c.093.152.186.3.268.462l.187.339.141.066h.05c.208 0 .315-.074.347-.182.006-.016.13-.489.13-.489l.521-1.363a.461.461 0 0 1 .047-.1.288.288 0 0 1 .237-.1.762.762 0 0 1 .352.106 1.9 1.9 0 0 1 .862 1.468l-.172.449-.628.933a1.757 1.757 0 0 1-.924.646 1.79 1.79 0 0 1-.517.075" data-name="Path 918"></path><path fill="#6a3ab5" d="M16.783 8.705h.063a.545.545 0 0 1-.034.313.977.977 0 0 0-.058.5 1.588 1.588 0 0 1-.029.6l-.025.142.087.116c.062.084.118.164.151.216l.053.086c.092.149.182.294.267.46l.153.275.036.065.06.045a.641.641 0 0 0 .215.106l.074.01h.034a.465.465 0 0 0 .463-.3c.008-.023.127-.471.126-.473l.473-1.234.055-.154a.318.318 0 0 1 .016-.034l.01-.01.007-.013a.131.131 0 0 1 .087-.024.589.589 0 0 1 .263.082 1.728 1.728 0 0 1 .778 1.289l-.146.388c-.106.158-.569.854-.62.928a1.574 1.574 0 0 1-.838.585 1.6 1.6 0 0 1-.462.068 1.514 1.514 0 0 1-1.275-.648 1.443 1.443 0 0 1-.18-.387l-.06-.318a7.402 7.402 0 0 1-.059-.4l-.029-.211a1.1 1.1 0 0 1 .026-.321l.007-.03v-.087a1.36 1.36 0 0 0-.012-.31 1.564 1.564 0 0 0-.074-.257l-.017-.045c-.154-.435-.2-.632-.023-.822a.663.663 0 0 1 .439-.192m0-.338a1.006 1.006 0 0 0-.7.3c-.323.351-.195.737-.047 1.158a1.468 1.468 0 0 1 .079.26 1.677 1.677 0 0 1 0 .29 1.409 1.409 0 0 0-.032.428c.031.209.054.425.091.632l.061.321a1.785 1.785 0 0 0 .228.506 1.863 1.863 0 0 0 1.567.8 1.974 1.974 0 0 0 .565-.082 1.925 1.925 0 0 0 1.019-.715l.647-.968.183-.485V10.8a2.056 2.056 0 0 0-.946-1.617.931.931 0 0 0-.436-.127.463.463 0 0 0-.37.164c-.008.008-.008.015-.016.023a.641.641 0 0 0-.061.127l-.053.149-.472 1.229-.129.485a.136.136 0 0 1-.135.07.2.2 0 0 1-.04 0 .307.307 0 0 1-.076-.045l-.152-.275c-.1-.194-.213-.372-.328-.559-.038-.06-.1-.15-.168-.241a1.9 1.9 0 0 0 .031-.71c-.049-.313.162-.4.091-.822-.032-.2-.2-.28-.4-.28" data-name="Path 919"></path><g data-name="Group 115" opacity=".15" style="mix-blend-mode:multiply;isolation:isolate"><g data-name="Group 114"><g clip-path="url(#e)" data-name="Group 113"><path fill="#965f7e" d="M13.87 17.665a.154.154 0 0 0 .028.013.1.1 0 0 1-.028-.013" data-name="Path 920"></path></g></g></g><path fill="#d2d6fc" d="M21.219 7.841a1.651 1.651 0 0 1-.988-.216L20.2 7.6l-.061-.041a3.638 3.638 0 0 1-2.5-2.417 3.286 3.286 0 0 1 .181-2.677 2.237 2.237 0 0 1 1.421-1.115 2.273 2.273 0 0 1 .515-.058 3.633 3.633 0 0 1 3.25 2.608 6.9 6.9 0 0 1 .2.939l.01.071.059.042a1.461 1.461 0 0 1 .562 1.117 2.229 2.229 0 0 1-1.252 1.557 3.965 3.965 0 0 1-1.364.215" data-name="Path 921"></path><path fill="#6a3ab5" d="M19.752 1.455a3.454 3.454 0 0 1 3.088 2.49 6.623 6.623 0 0 1 .192.916l.02.143.12.084a1.3 1.3 0 0 1 .49.98 2.1 2.1 0 0 1-1.171 1.411 3.816 3.816 0 0 1-1.271.192 1.684 1.684 0 0 1-.847-.151l-.008-.013-.032-.03-.061-.06-.083-.024a3.473 3.473 0 0 1-2.39-2.31 3.12 3.12 0 0 1 .168-2.54 1.98 1.98 0 0 1 1.784-1.087m0-.338a2.4 2.4 0 0 0-.556.064 2.968 2.968 0 0 0-1.724 4.008 3.82 3.82 0 0 0 2.618 2.526c.011.01.015.024.025.033a1.8 1.8 0 0 0 1.1.26 4.127 4.127 0 0 0 1.418-.224 2.383 2.383 0 0 0 1.37-1.717 1.628 1.628 0 0 0-.634-1.254 6.939 6.939 0 0 0-.2-.961 3.8 3.8 0 0 0-3.42-2.736" data-name="Path 922"></path><path fill="#6a3ab5" d="M19.16 5.079a2.944 2.944 0 0 1 2.106-2.6 2.048 2.048 0 0 1 1.181.04s.044-.457.041-.46a3.819 3.819 0 0 0-3.1-1.041A3.207 3.207 0 0 0 16.672 3.6a2.725 2.725 0 0 0 .566 2.2c1.164 1.541 1.9 1.546 1.9 1.546s-.083-.442-.14-.8c-.13-.826-.06-1.219.164-1.464" data-name="Path 923"></path></g></g></g></g></svg>