<svg xmlns="http://www.w3.org/2000/svg" xmlns:xlink="http://www.w3.org/1999/xlink" viewBox="0 0 82.28 112"><defs><clipPath id="c"><path fill="none" d="M0 0h81v112H0z"></path></clipPath><clipPath id="d"><path fill="none" d="M72.8 35.54a.714.714 0 0 0 0 1.355 2.627 2.627 0 0 0 2.361 0 .714.714 0 0 0 0-1.355 2.631 2.631 0 0 0-2.361 0" data-name="Path 296"></path></clipPath><clipPath id="e"><path fill="none" d="M72.526 37.19a.5.5 0 0 0 0 .949 1.838 1.838 0 0 0 1.652 0 .5.5 0 0 0 0-.949 1.834 1.834 0 0 0-1.652 0" data-name="Path 297"></path></clipPath><clipPath id="g"><path fill="none" d="M70.615 38.659a.33.33 0 0 0 0 .626 1.214 1.214 0 0 0 1.091 0 .33.33 0 0 0 0-.626 1.205 1.205 0 0 0-1.091 0" data-name="Path 298"></path></clipPath><clipPath id="i"><path fill="none" d="M76.733 34.947a.331.331 0 0 0 0 .627 1.214 1.214 0 0 0 1.091 0 .331.331 0 0 0 0-.627 1.205 1.205 0 0 0-1.091 0" data-name="Path 299"></path></clipPath><clipPath id="k"><path fill="none" d="M70.707 34.349a.3.3 0 0 0 0 .577 1.119 1.119 0 0 0 1 0 .3.3 0 0 0 0-.577 1.112 1.112 0 0 0-1 0" data-name="Path 300"></path></clipPath><clipPath id="m"><path fill="none" d="M77.632 37.157a.5.5 0 0 0 0 .948 1.834 1.834 0 0 0 1.653 0 .5.5 0 0 0 0-.948 1.836 1.836 0 0 0-1.653 0" data-name="Path 301"></path></clipPath><clipPath id="o"><path fill="none" d="M75.736 37.852a.322.322 0 0 0 0 .611 1.186 1.186 0 0 0 1.062 0 .322.322 0 0 0 0-.611 1.188 1.188 0 0 0-1.062 0" data-name="Path 302"></path></clipPath><clipPath id="q"><path fill="none" d="M68.657 34.632a.232.232 0 0 0 0 .441.849.849 0 0 0 .767 0 .232.232 0 0 0 0-.441.856.856 0 0 0-.767 0" data-name="Path 303"></path></clipPath><clipPath id="s"><path fill="none" d="M70.752 37.076a.231.231 0 0 0 0 .439.844.844 0 0 0 .768 0 .231.231 0 0 0 0-.439.849.849 0 0 0-.768 0" data-name="Path 304"></path></clipPath><clipPath id="u"><path fill="none" d="M73.692 33.876a.348.348 0 0 0 0 .661 1.279 1.279 0 0 0 1.151 0 .348.348 0 0 0 0-.661 1.277 1.277 0 0 0-1.151 0" data-name="Path 305"></path></clipPath><clipPath id="w"><path fill="none" d="M76.443 36.511a.17.17 0 0 0 0 .323.629.629 0 0 0 .563 0 .17.17 0 0 0 0-.323.624.624 0 0 0-.563 0" data-name="Path 306"></path></clipPath><clipPath id="y"><path fill="none" d="M68.166 36.318a.5.5 0 0 0 0 .949 1.834 1.834 0 0 0 1.653 0 .5.5 0 0 0 0-.949 1.836 1.836 0 0 0-1.653 0" data-name="Path 307"></path></clipPath><clipPath id="A"><path fill="none" d="M73.276 27.172a1.192 1.192 0 0 0-.04.447.287.287 0 0 0-.1.072.088.088 0 0 0-.024 0 .3.3 0 0 0-.087-.062 1.861 1.861 0 0 0-.009-.206.2.2 0 0 0-.383-.073 1.628 1.628 0 0 0-.122.474 1.219 1.219 0 0 0-.074-.4.181.181 0 0 0-.337-.024 1.146 1.146 0 0 0-.067.23c-.026-.152-.169-.547-.39-.471a.211.211 0 0 0-.154.23c0 .022.005.048.008.071a.228.228 0 0 0-.277-.086.248.248 0 0 0-.055.04.171.171 0 0 0-.245-.025 2.098 2.098 0 0 0-.061-.079c-.11-.136-.293 0-.21.163a1.467 1.467 0 0 0 .118.2.265.265 0 0 0-.214.045.161.161 0 0 0-.023-.014.192.192 0 0 0-.231.043c-.026.025-.124.157-.081.193a.621.621 0 0 0-.352-.13.154.154 0 0 0-.111.266c0 .005.013.01.017.015a.233.233 0 0 0-.174.038.183.183 0 0 1-.017-.031c-.071-.155-.332-.125-.292.075a.649.649 0 0 0 .075.213.144.144 0 0 0-.036-.009.126.126 0 0 0-.008-.053.7.7 0 0 0-.469-.334c-.149-.049-.218.186-.119.286a.87.87 0 0 0 .366.241.265.265 0 0 0-.026.189 1.345 1.345 0 0 0-.252-.251.218.218 0 0 0-.24.024l-.02.012a.268.268 0 0 0-.1.236.279.279 0 0 0 .073.175.511.511 0 0 0-.352-.026.216.216 0 0 0-.113.282.471.471 0 0 0-.068-.005.088.088 0 0 0-.07.031c-.01-.009-.014-.019-.026-.025a.543.543 0 0 0-.363-.015c-.14.029-.165.263-.01.29a.563.563 0 0 0 .363-.019.172.172 0 0 0 .033-.03c.01.011.015.025.032.03l.049.013a.286.286 0 0 0-.009.08 1.07 1.07 0 0 0-.139.011c-.165.018-.155.26-.01.306.041.012.086.026.131.036a.31.31 0 0 0 .087.286.331.331 0 0 0-.023.031c-.017 0-.037-.01-.054-.012a.239.239 0 0 0-.063 0 .135.135 0 0 0 .015-.2.575.575 0 0 0-.427-.111c-.13 0-.169.236-.045.283a.7.7 0 0 0 .375.065.251.251 0 0 0-.029.377c.011.012.025.023.037.033h-.012a.217.217 0 0 0-.151.122.518.518 0 0 0-.3-.143.136.136 0 0 0-.1.234c.028.028.059.058.09.086a.273.273 0 0 0-.162.137.584.584 0 0 0-.256-.274c-.1-.066-.2.07-.16.174a.129.129 0 0 0-.148.2 1.516 1.516 0 0 0 .118.153.246.246 0 0 0-.03.044.957.957 0 0 0-.214-.12c-.168-.082-.275.184-.119.283a.5.5 0 0 0 .317.128.1.1 0 0 0 .042-.017c0 .005.005.012.012.017a.157.157 0 0 0 .02.017c-.151-.067-.281.1-.262.26h-.058a.13.13 0 0 0-.011-.136.358.358 0 0 0-.365-.15.538.538 0 0 0-.08.017.119.119 0 0 0 .018.219c.014.005.015.011.018.012.028.01.052.017.077.024.042.017.084.039.126.059a.279.279 0 0 0 .039.428c.03.017.067.036.106.054a1.594 1.594 0 0 0-.16 0c-.223.008-.244.344-.071.447.021.012.047.023.068.035a.26.26 0 0 0-.009.4.348.348 0 0 0-.106.274.212.212 0 0 0 .16.189.234.234 0 0 0 .067.005.473.473 0 0 0-.041.227.209.209 0 0 0 .156.194.475.475 0 0 0-.365.2.109.109 0 0 0 .03.158.449.449 0 0 0 .342-.015.217.217 0 0 0 .122.127.487.487 0 0 0-.135.07.232.232 0 0 0-.087.257.546.546 0 0 0-.159.052c-.1.05-.114.258.022.265a.746.746 0 0 1 .116.019.262.262 0 0 0 .111.436h.024a.265.265 0 0 0-.015.242l-.084.017a.3.3 0 0 0-.092.52l-.012.009a.256.256 0 0 0 .106.454 1.333 1.333 0 0 0-.117.3.229.229 0 0 0 .266.275.1.1 0 0 0 .121-.013c.051-.048.109-.089.161-.135a.2.2 0 0 0 .22.134.187.187 0 0 1 .11.33c0 .019-.009.038-.014.057a.161.161 0 0 0 0 .071v.015a.167.167 0 1 0 .328.064.45.45 0 0 0 .02-.082.2.2 0 0 0 .243.1v.071a.217.217 0 0 0 .315.18.188.188 0 0 0 .055.045.159.159 0 0 0 .1.23.122.122 0 0 0 .1-.023.28.28 0 0 0-.028.106.118.118 0 0 0-.1.031.483.483 0 0 0-.2.316.143.143 0 0 0 .181.166.467.467 0 0 0 .242-.278l.005-.024a.211.211 0 0 0 .122.059.2.2 0 0 0 .093.09.17.17 0 0 0 .015.149.465.465 0 0 0-.1.152c-.041.112.067.213.16.148a.394.394 0 0 0 .127-.159.2.2 0 0 0 .075.078.114.114 0 0 0 .171.13.3.3 0 0 0-.012.208.117.117 0 0 0 .123.085.209.209 0 0 0 .075-.035.424.424 0 0 0 0 .284.114.114 0 0 0 .2.039.386.386 0 0 0 .077-.234.323.323 0 0 0 .033.085.116.116 0 0 0 .173.032.469.469 0 0 0 .125-.316.138.138 0 0 0 .1-.012.3.3 0 0 0 .053.087.105.105 0 0 0 .172-.042.285.285 0 0 0-.042-.273.166.166 0 0 0 .064-.013.278.278 0 0 0 .034.064.112.112 0 0 0 .2-.018.329.329 0 0 0 .018-.082.135.135 0 0 0 .037.026.073.073 0 0 0 .014.024c-.005.011-.012.019-.017.031a.138.138 0 0 0 .118.206.1.1 0 0 0 .071.091l.025.005a.11.11 0 0 0 .1-.032.209.209 0 0 0 .213-.027.685.685 0 0 0 .012.226.185.185 0 0 0 .25.125.627.627 0 0 0 .045.256c.071.158.293.209.366.016a.52.52 0 0 0 .033-.139.2.2 0 0 0 .272-.153.409.409 0 0 0 .09.113.18.18 0 0 0 .288-.07c.128.117.3-.008.323-.166.012.161.03.353.148.434s.171-.45.175-.5a.323.323 0 0 0 .054.06.219.219 0 0 0 .357-.189.217.217 0 0 0 .092-.024l-.008.033a.4.4 0 0 0-.012.063c-.028.178.028.391.1.389.125 0 .218-.323.223-.4a.157.157 0 0 0 .055-.01c0 .015-.008.029-.01.044a.214.214 0 0 0 .4.14 1.382 1.382 0 0 0 .074-.179.433.433 0 0 0 .029.09.2.2 0 0 0 .328.016.417.417 0 0 0 .071-.134 1.056 1.056 0 0 0 .146.241c.1.118.245.033.3-.09.147.1.345-.1.285-.283l-.014-.031a.3.3 0 0 0 .125-.011.224.224 0 0 0 .09-.319.624.624 0 0 0-.078-.086l.029-.036a.651.651 0 0 0 .215.219c.165.1.293-.1.26-.262a.528.528 0 0 0-.031-.087.216.216 0 0 0 .086-.1.417.417 0 0 0 .041.025.138.138 0 0 0-.059.126.7.7 0 0 0 .154.437.123.123 0 0 0 .2-.082.711.711 0 0 0-.128-.449l-.012-.013a.3.3 0 0 0 .052-.018v.021a.209.209 0 0 0 .4.078.186.186 0 0 0 .292-.014.4.4 0 0 0 .016.038.179.179 0 0 0 .159.085.423.423 0 0 0 .036.146c.064.135.235.206.335.065a.742.742 0 0 0 .106-.421.549.549 0 0 0 .093.232.189.189 0 0 0 .338-.033v-.011a.208.208 0 0 0 .359-.125.219.219 0 0 0 .214-.1.546.546 0 0 0 .241.232c.127.052.22-.084.161-.211a1.529 1.529 0 0 0-.188-.264l.018-.006a.231.231 0 0 0 .266.1.144.144 0 0 0 .059-.208.469.469 0 0 0-.078-.076.221.221 0 0 0 .229-.278.326.326 0 0 0 .079 0 .214.214 0 0 0 .168-.205.376.376 0 0 0 .232.048.229.229 0 0 0 .172-.3c0-.008-.009-.012-.012-.019a.659.659 0 0 0 .421-.116.243.243 0 0 0 .039-.322.272.272 0 0 0-.021-.363.6.6 0 0 0 .079-.039.256.256 0 0 0 .022-.38.242.242 0 0 0-.03-.292l-.011-.008a.232.232 0 0 0 .018-.2.459.459 0 0 0-.173-.2.281.281 0 0 0 .012-.261.54.54 0 0 0-.037-.055.207.207 0 0 0 .075-.1.235.235 0 0 0 .268.068c.108-.038.1-.194.009-.249-.043-.026-.092-.041-.135-.07a.3.3 0 0 0 .081-.011.239.239 0 0 0 .1-.346.492.492 0 0 0-.153-.125.47.47 0 0 0 .212-.082.249.249 0 0 0-.031-.4.454.454 0 0 0-.226-.05.251.251 0 0 0 .028-.059.128.128 0 0 0 .089.009.326.326 0 0 0 .2-.139c.067-.1.007-.243-.11-.23a.335.335 0 0 0-.186.093.187.187 0 0 0-.092-.083.228.228 0 0 1-.023-.005.245.245 0 0 0-.048-.293.373.373 0 0 0-.179-.091.506.506 0 0 0 0-.07.326.326 0 0 0 .244-.011.159.159 0 0 0-.023-.305c-.06-.016-.114-.026-.167-.04a.267.267 0 0 0 .026-.3.315.315 0 0 0-.127-.131.235.235 0 0 0 .084-.213.217.217 0 0 0 .065-.082.131.131 0 0 0 .028.042.307.307 0 0 0 .394.031.156.156 0 0 0 .01-.232.306.306 0 0 0-.4-.012c-.009-.018-.011-.043-.018-.066.224-.08.194-.464-.063-.441l-.27.025a.14.14 0 0 0-.048-.046.286.286 0 0 0 .134-.335.6.6 0 0 0 .369-.036c.087-.049.119-.206.009-.254a.468.468 0 0 0-.242-.031c.022-.149-.056-.31-.232-.281a1.221 1.221 0 0 0-.432.151l.054-.146c.1-.254-.2-.441-.346-.273-.076-.146-.285-.225-.384-.057-.049.081-.1.161-.147.243a.226.226 0 0 0-.324-.048l-.1.083a.313.313 0 0 0-.065-.155 1.746 1.746 0 0 1 .222-.119.254.254 0 0 0-.162-.477c-.042.011-.087.027-.132.042a.251.251 0 0 0 .007-.075.9.9 0 0 0 .305-.267c.116-.126-.068-.349-.192-.232a1.1 1.1 0 0 0-.261.283.216.216 0 0 0-.179-.017.507.507 0 0 0-.049.024c.015-.014.031-.031.048-.045a.264.264 0 0 0-.169-.472c.048-.089.092-.178.139-.262.076-.138-.136-.288-.215-.153-.05.085-.105.171-.159.258a.366.366 0 0 0-.034-.044.3.3 0 0 0-.051-.031l.008-.032c.025-.159-.2-.245-.249-.087a1.194 1.194 0 0 0-.05.178.191.191 0 0 0-.022.022c.029-.235-.261-.444-.442-.22-.008.01-.013.021-.022.03a.136.136 0 0 0-.171-.059 1.494 1.494 0 0 0 .063-.352c.018-.158-.2-.253-.253-.089a1.22 1.22 0 0 0-.089.438.227.227 0 0 0-.365-.025l-.07.071c.042-.24-.269-.47-.459-.24l-.05.06-.012-.009c.066-.086.131-.174.194-.252.206-.252-.149-.571-.359-.336l-.053.056a1.286 1.286 0 0 0 .059-.487.132.132 0 0 0-.254-.049 1.927 1.927 0 0 0-.08.312.22.22 0 0 0-.118.028c.035-.248-.261-.474-.415-.229-.049.076-.1.154-.159.234v-.028a.28.28 0 0 0-.2-.3c0-.029.008-.058.009-.086.012-.16-.188-.251-.254-.09a.961.961 0 0 0-.084.349.284.284 0 0 0-.074-.011 2.6 2.6 0 0 1 .033-.377.128.128 0 0 0-.126-.167.143.143 0 0 0-.14.117" data-name="Path 308"></path></clipPath><clipPath id="C"><path fill="none" d="M66.066 32.437H81v8.109H66.066z" data-name="Rectangle 21"></path></clipPath><clipPath id="D"><path fill="none" d="M80.6 37.337a.273.273 0 0 0-.02-.363.527.527 0 0 0 .078-.039.256.256 0 0 0 .022-.38.242.242 0 0 0-.03-.292l-.011-.008a.233.233 0 0 0 .018-.2.461.461 0 0 0-.173-.2.281.281 0 0 0 .012-.261.291.291 0 0 0-.038-.055.2.2 0 0 0 .076-.1.234.234 0 0 0 .267.069.143.143 0 0 0 .01-.249c-.043-.027-.092-.042-.135-.071a.3.3 0 0 0 .081-.012.238.238 0 0 0 .1-.344.5.5 0 0 0-.153-.125.478.478 0 0 0 .213-.081.25.25 0 0 0-.033-.4.455.455 0 0 0-.227-.05.253.253 0 0 0 .029-.059.128.128 0 0 0 .089.009.326.326 0 0 0 .2-.139c.066-.1.005-.244-.11-.23a.325.325 0 0 0-.186.093.194.194 0 0 0-.079-.071.825.825 0 0 1-.313.064c0 .006.009.011.012.018a.23.23 0 0 1-.172.306.388.388 0 0 1-.234-.048.211.211 0 0 1-.167.2.278.278 0 0 1-.079 0 .221.221 0 0 1-.228.279.462.462 0 0 1 .077.076.144.144 0 0 1-.058.207.231.231 0 0 1-.267-.1l-.018.006a1.448 1.448 0 0 1 .182.266c.061.127-.033.263-.16.212a.551.551 0 0 1-.241-.232.22.22 0 0 1-.214.1.208.208 0 0 1-.359.125v.012a.189.189 0 0 1-.338.032.515.515 0 0 1-.09-.23.734.734 0 0 1-.106.421c-.1.143-.27.071-.335-.064a.435.435 0 0 1-.036-.146.181.181 0 0 1-.159-.085c-.007-.013-.01-.026-.016-.038a.182.182 0 0 1-.291.009.209.209 0 0 1-.4-.077v-.022a.23.23 0 0 1-.052.018c0 .005.009.008.011.013a.7.7 0 0 1 .128.449.122.122 0 0 1-.2.082.686.686 0 0 1-.154-.437.135.135 0 0 1 .058-.126.314.314 0 0 1-.041-.024.228.228 0 0 1-.086.1.483.483 0 0 1 .031.086c.035.164-.094.357-.26.263a.665.665 0 0 1-.215-.22l-.028.036a.666.666 0 0 1 .076.086.223.223 0 0 1-.089.319.264.264 0 0 1-.125.011c0 .011.011.021.014.031.061.182-.138.384-.285.283-.049.123-.194.208-.294.09a1 1 0 0 1-.147-.241.417.417 0 0 1-.071.134.2.2 0 0 1-.327-.016.5.5 0 0 1-.03-.089 1.452 1.452 0 0 1-.075.179.214.214 0 0 1-.4-.14c0-.015.007-.03.01-.045a.14.14 0 0 1-.055.01c0 .081-.1.4-.223.4-.067 0-.124-.211-.1-.389a.58.58 0 0 1 .012-.063l.008-.032a.2.2 0 0 1-.092.023.219.219 0 0 1-.357.189.359.359 0 0 1-.068-.05c0 .046-.049.583-.174.5s-.137-.273-.148-.435c-.022.159-.2.283-.323.166a.181.181 0 0 1-.288.071.43.43 0 0 1-.09-.114.2.2 0 0 1-.282.163.585.585 0 0 1-.031.139c-.074.192-.3.14-.367-.017a.619.619 0 0 1-.045-.255.186.186 0 0 1-.25-.126.652.652 0 0 1-.011-.225.213.213 0 0 1-.214.027.11.11 0 0 1-.1.032l-.024-.005a.1.1 0 0 1-.072-.092.137.137 0 0 1-.118-.206c.005-.012.012-.019.017-.03a.105.105 0 0 1-.014-.024.14.14 0 0 1-.037-.027.386.386 0 0 1-.018.082.111.111 0 0 1-.2.019.308.308 0 0 1-.034-.065.167.167 0 0 1-.064.014.288.288 0 0 1 .043.273.107.107 0 0 1-.173.042.331.331 0 0 1-.053-.087.137.137 0 0 1-.1.011.477.477 0 0 1-.124.317.118.118 0 0 1-.174-.033.3.3 0 0 1-.031-.084.4.4 0 0 1-.078.234.115.115 0 0 1-.2-.039.427.427 0 0 1 .005-.285.213.213 0 0 1-.076.035.119.119 0 0 1-.124-.085.288.288 0 0 1 .015-.206.115.115 0 0 1-.174-.122v-.009a.212.212 0 0 1-.075-.077.409.409 0 0 1-.127.159c-.092.065-.2-.037-.16-.148a.383.383 0 0 1 .1-.15.168.168 0 0 1-.015-.148.2.2 0 0 1-.093-.091.211.211 0 0 1-.122-.059.07.07 0 0 1-.007.025.463.463 0 0 1-.241.276.142.142 0 0 1-.181-.166.49.49 0 0 1 .2-.317.126.126 0 0 1 .1-.03.263.263 0 0 1 .027-.106.127.127 0 0 1-.1.024.159.159 0 0 1-.1-.23.212.212 0 0 1-.056-.046.216.216 0 0 1-.314-.179v-.071a.2.2 0 0 1-.242-.1l-.015.082h-.005a.167.167 0 1 1-.328-.062v-.015a.166.166 0 0 1 0-.072.95.95 0 0 0 .014-.057.192.192 0 0 1 .063-.1.713.713 0 0 0-.393-.363c-.052.045-.11.086-.161.134a.1.1 0 0 1-.122.014.229.229 0 0 1-.265-.276 1.354 1.354 0 0 1 .117-.3.256.256 0 0 1-.106-.452l.012-.01a.247.247 0 0 1-.1-.191h-.1c-.223.008-.244.346-.071.447.021.012.046.023.068.035a.259.259 0 0 0-.008.4.341.341 0 0 0-.106.274.209.209 0 0 0 .159.189.2.2 0 0 0 .067.005.473.473 0 0 0-.041.227.208.208 0 0 0 .156.194.473.473 0 0 0-.365.2.109.109 0 0 0 .031.158.452.452 0 0 0 .341-.015.22.22 0 0 0 .122.127.469.469 0 0 0-.136.071.231.231 0 0 0-.086.256.579.579 0 0 0-.159.051c-.1.051-.113.259.023.267a.637.637 0 0 1 .115.018.262.262 0 0 0 .111.436h.024a.265.265 0 0 0-.015.242l-.084.017a.3.3 0 0 0-.092.52l-.012.009a.256.256 0 0 0 .106.454 1.333 1.333 0 0 0-.117.3.228.228 0 0 0 .265.275.1.1 0 0 0 .122-.013c.051-.049.109-.089.16-.134a.205.205 0 0 0 .222.133.187.187 0 0 1 .11.33c0 .018-.009.038-.014.057a.185.185 0 0 0 0 .072v.014a.167.167 0 1 0 .328.063l.016-.082a.2.2 0 0 0 .242.1v.071a.216.216 0 0 0 .314.18.19.19 0 0 0 .056.045.159.159 0 0 0 .1.23.122.122 0 0 0 .1-.023.28.28 0 0 0-.028.106.121.121 0 0 0-.1.03.488.488 0 0 0-.2.317.142.142 0 0 0 .18.166.46.46 0 0 0 .242-.278.065.065 0 0 0 .007-.024.211.211 0 0 0 .122.059.2.2 0 0 0 .093.091.168.168 0 0 0 .015.148.41.41 0 0 0-.1.15c-.041.112.067.213.16.149a.409.409 0 0 0 .127-.159.2.2 0 0 0 .075.077v.009a.115.115 0 0 0 .174.122.288.288 0 0 0-.015.206.119.119 0 0 0 .124.085.227.227 0 0 0 .075-.035.434.434 0 0 0 0 .285.114.114 0 0 0 .2.038.386.386 0 0 0 .077-.233.34.34 0 0 0 .033.084.116.116 0 0 0 .173.032.461.461 0 0 0 .124-.316.135.135 0 0 0 .1-.012.278.278 0 0 0 .053.087.106.106 0 0 0 .173-.041.287.287 0 0 0-.043-.273.167.167 0 0 0 .064-.014.309.309 0 0 0 .034.065.112.112 0 0 0 .2-.019.4.4 0 0 0 .018-.082.164.164 0 0 0 .037.026.093.093 0 0 0 .014.025c-.005.01-.012.018-.017.03a.138.138 0 0 0 .118.206.1.1 0 0 0 .072.091l.024.006a.113.113 0 0 0 .1-.032.211.211 0 0 0 .214-.028.632.632 0 0 0 .011.226.184.184 0 0 0 .249.125.644.644 0 0 0 .046.256c.071.158.293.209.367.016a.566.566 0 0 0 .031-.138.2.2 0 0 0 .287-.161.425.425 0 0 0 .09.113.181.181 0 0 0 .288-.07c.127.117.3-.008.323-.166.011.161.028.352.148.435s.169-.451.174-.5a.471.471 0 0 0 .054.059.22.22 0 0 0 .357-.189.19.19 0 0 0 .092-.024l-.008.033a.576.576 0 0 0-.012.063c-.028.178.028.391.1.389.126 0 .218-.323.223-.4a.162.162 0 0 0 .055-.01c0 .015-.008.029-.01.044a.214.214 0 0 0 .4.141 1.468 1.468 0 0 0 .075-.18.54.54 0 0 0 .029.09.2.2 0 0 0 .328.016.417.417 0 0 0 .071-.134.988.988 0 0 0 .147.241c.1.118.244.033.294-.09.147.1.345-.1.285-.283l-.014-.031a.28.28 0 0 0 .125-.011.224.224 0 0 0 .089-.32.741.741 0 0 0-.076-.085l.028-.036a.675.675 0 0 0 .215.22c.165.094.294-.1.26-.265a.506.506 0 0 0-.031-.085.224.224 0 0 0 .086-.1c.013.01.027.016.041.025a.137.137 0 0 0-.059.126.687.687 0 0 0 .155.436.121.121 0 0 0 .2-.081.7.7 0 0 0-.128-.449l-.011-.013a.23.23 0 0 0 .052-.018v.021a.209.209 0 0 0 .4.077.182.182 0 0 0 .291-.01.4.4 0 0 0 .016.038.182.182 0 0 0 .159.086.435.435 0 0 0 .036.146c.064.134.235.205.335.064a.734.734 0 0 0 .106-.421.508.508 0 0 0 .09.23.189.189 0 0 0 .338-.032v-.012a.208.208 0 0 0 .359-.126.214.214 0 0 0 .213-.1.548.548 0 0 0 .242.232c.127.052.22-.084.16-.211a1.379 1.379 0 0 0-.18-.264l.018-.006a.232.232 0 0 0 .267.1.144.144 0 0 0 .058-.207.522.522 0 0 0-.078-.077.221.221 0 0 0 .229-.278.39.39 0 0 0 .079 0 .212.212 0 0 0 .167-.205.38.38 0 0 0 .233.048.229.229 0 0 0 .172-.3c0-.008-.009-.012-.012-.018a.672.672 0 0 0 .421-.116.244.244 0 0 0 .039-.323" data-name="Path 309"></path></clipPath><clipPath id="E"><path fill="none" d="M66.192 35.99h14.559v4.556H66.192z" data-name="Rectangle 23"></path></clipPath><clipPath id="F"><path fill="none" d="M80.578 36.974a.527.527 0 0 0 .078-.039.256.256 0 0 0 .022-.38.242.242 0 0 0-.03-.292l-.011-.008a.287.287 0 0 0 .016-.052.306.306 0 0 1-.147.005.121.121 0 0 1-.127-.026c-.051-.048-.109-.09-.16-.135a.2.2 0 0 1-.113.086c.007.026.015.052.02.079a.23.23 0 0 1-.283.256.145.145 0 0 1 0 .062v.013c.017.224-.337.213-.354.017h-.005l-.01-.073a.218.218 0 0 1-.184.078.2.2 0 0 1-.088.055.153.153 0 0 1-.025.05.186.186 0 0 1 .027.07l.01.057a.206.206 0 0 1 0 .073v.014a.168.168 0 1 1-.332.039l-.009-.083a.209.209 0 0 1-.118.091.145.145 0 0 1-.077.024.15.15 0 0 1-.055-.008v.049c0 .017-.008.016-.01.026a.145.145 0 0 1 .087.035.44.44 0 0 1 .189.3.14.14 0 0 1-.205.124.453.453 0 0 1-.235-.269.208.208 0 0 1-.005-.022.247.247 0 0 1-.134.038.208.208 0 0 1-.067.052.158.158 0 0 1-.035.085.13.13 0 0 1-.03.059.361.361 0 0 1 .1.144.1.1 0 0 1-.023.1.392.392 0 0 1 .064.2.143.143 0 0 1-.193.152.457.457 0 0 1-.22-.293v-.025a.2.2 0 0 1-.126.051.121.121 0 0 0-.079.116c0 .006-.013.01-.017.015a.164.164 0 0 1-.029.1.39.39 0 0 1 .09.157c.033.114-.084.207-.171.137a.369.369 0 0 1-.1-.144.12.12 0 0 1-.092.058.114.114 0 0 1-.181.1.284.284 0 0 1 0 .207.119.119 0 0 1-.13.076.223.223 0 0 1-.073-.039.428.428 0 0 1-.017.284.114.114 0 0 1-.2.025.388.388 0 0 1-.059-.24.319.319 0 0 1-.039.082.118.118 0 0 1-.175.022.466.466 0 0 1-.1-.326.13.13 0 0 1-.1-.017.361.361 0 0 1-.06.083.107.107 0 0 1-.169-.054.322.322 0 0 1-.009-.094 1.714 1.714 0 0 1-.287-.041.144.144 0 0 1-.125.069.1.1 0 0 1-.079.085h-.024a.113.113 0 0 1-.094-.039.212.212 0 0 1-.211-.042.657.657 0 0 1-.029.224.186.186 0 0 1-.257.108.654.654 0 0 1-.065.252c-.084.151-.31.188-.367-.01a.529.529 0 0 1-.021-.14.2.2 0 0 1-.269-.182.426.426 0 0 1-.1.107.18.18 0 0 1-.281-.091c-.136.108-.3-.028-.308-.188-.024.16-.056.349-.181.423s-.134-.461-.135-.508a.466.466 0 0 1-.059.055.213.213 0 0 1-.327-.119l-.093-.014c.01.176-.061.375-.126.367-.124-.013-.192-.337-.19-.417a.161.161 0 0 1-.054-.014c0 .015.005.03.007.045a.215.215 0 0 1-.413.112 1.744 1.744 0 0 1-.06-.185.555.555 0 0 1-.037.087.2.2 0 0 1-.328-.008.428.428 0 0 1-.06-.138 1.019 1.019 0 0 1-.165.23c-.109.111-.247.016-.287-.11-.153.091-.337-.125-.261-.3 0-.011.011-.019.016-.03a.281.281 0 0 1-.124-.019.2.2 0 0 1-.1-.233c-.024-.017-.051-.032-.073-.05a.433.433 0 0 1-.065.044.162.162 0 0 1-.232-.109c-.028-.006-.056-.017-.085-.025a.492.492 0 0 1-.144.245.122.122 0 0 1-.2-.1.483.483 0 0 1 .056-.256.73.73 0 0 1-.056-.028.208.208 0 0 1-.285-.12.181.181 0 0 1-.289-.03.3.3 0 0 1-.02.037.185.185 0 0 1-.164.075.433.433 0 0 1-.048.143c-.075.13-.25.189-.339.04a.736.736 0 0 1-.073-.428.52.52 0 0 1-.108.222.189.189 0 0 1-.335-.056v-.011a.207.207 0 0 1-.348-.151.215.215 0 0 1-.205-.118.554.554 0 0 1-.258.215c-.131.042-.214-.1-.143-.222a1.465 1.465 0 0 1 .2-.252.084.084 0 0 1-.017-.008.233.233 0 0 1-.275.079.143.143 0 0 1-.07-.195.465.465 0 0 1 .084-.07.219.219 0 0 1-.206-.294.316.316 0 0 1-.078-.009.21.21 0 0 1-.151-.216.469.469 0 0 1-.165.033v.006l-.084.017a.3.3 0 0 0-.092.52l-.012.009a.256.256 0 0 0 .106.454 1.333 1.333 0 0 0-.117.3.228.228 0 0 0 .265.275.1.1 0 0 0 .122-.013c.051-.049.109-.089.16-.134a.205.205 0 0 0 .222.133.187.187 0 0 1 .11.33c0 .018-.009.038-.014.057a.185.185 0 0 0 0 .072v.014a.167.167 0 1 0 .328.063l.016-.082a.2.2 0 0 0 .242.1v.071a.216.216 0 0 0 .314.18.19.19 0 0 0 .056.045.159.159 0 0 0 .1.23.122.122 0 0 0 .1-.023.28.28 0 0 0-.028.106.121.121 0 0 0-.1.03.488.488 0 0 0-.2.317.142.142 0 0 0 .18.166.46.46 0 0 0 .242-.278.065.065 0 0 0 .007-.024.211.211 0 0 0 .122.059.2.2 0 0 0 .093.091.168.168 0 0 0 .015.148.41.41 0 0 0-.1.15c-.041.112.067.213.16.149a.409.409 0 0 0 .127-.159.2.2 0 0 0 .075.077v.009a.115.115 0 0 0 .174.122.288.288 0 0 0-.015.206.119.119 0 0 0 .124.085.227.227 0 0 0 .075-.035.434.434 0 0 0 0 .285.114.114 0 0 0 .2.038.393.393 0 0 0 .077-.233.34.34 0 0 0 .033.084.116.116 0 0 0 .173.032.461.461 0 0 0 .124-.316.135.135 0 0 0 .1-.012.278.278 0 0 0 .053.087.106.106 0 0 0 .173-.041.287.287 0 0 0-.043-.273.167.167 0 0 0 .064-.014.309.309 0 0 0 .034.065.112.112 0 0 0 .2-.019.4.4 0 0 0 .018-.082.164.164 0 0 0 .037.026.093.093 0 0 0 .014.025c-.005.01-.012.018-.017.03a.138.138 0 0 0 .118.206.1.1 0 0 0 .072.091l.024.006a.113.113 0 0 0 .1-.032.211.211 0 0 0 .214-.028.632.632 0 0 0 .011.226.184.184 0 0 0 .249.125.644.644 0 0 0 .046.256c.071.158.293.209.367.016a.566.566 0 0 0 .031-.138.2.2 0 0 0 .271-.155.425.425 0 0 0 .09.113.181.181 0 0 0 .288-.07c.127.117.3-.008.323-.166.011.161.028.352.148.435s.169-.451.174-.5a.471.471 0 0 0 .054.059.22.22 0 0 0 .357-.189.19.19 0 0 0 .092-.024l-.008.033a.576.576 0 0 0-.012.063c-.028.178.028.391.1.389.126 0 .218-.323.223-.4a.162.162 0 0 0 .055-.01c0 .015-.008.029-.01.044a.214.214 0 0 0 .4.141 1.468 1.468 0 0 0 .075-.18.54.54 0 0 0 .029.09.2.2 0 0 0 .328.016.417.417 0 0 0 .071-.134.988.988 0 0 0 .147.241c.1.118.244.033.294-.09.147.1.345-.1.285-.283l-.014-.031a.28.28 0 0 0 .125-.011.224.224 0 0 0 .089-.32.741.741 0 0 0-.076-.085l.028-.036a.675.675 0 0 0 .215.22c.165.094.294-.1.26-.265a.506.506 0 0 0-.031-.085.224.224 0 0 0 .086-.1c.013.01.027.016.041.025a.137.137 0 0 0-.059.126.687.687 0 0 0 .155.436.121.121 0 0 0 .2-.081.7.7 0 0 0-.128-.449l-.011-.013a.23.23 0 0 0 .052-.018v.021a.209.209 0 0 0 .4.077.182.182 0 0 0 .291-.01.4.4 0 0 0 .016.038.182.182 0 0 0 .159.086.435.435 0 0 0 .036.146c.064.134.235.205.335.064a.734.734 0 0 0 .106-.421.508.508 0 0 0 .09.23.189.189 0 0 0 .338-.032v-.012a.208.208 0 0 0 .359-.126.214.214 0 0 0 .213-.1.548.548 0 0 0 .242.232c.127.052.22-.084.16-.211a1.379 1.379 0 0 0-.18-.264l.018-.006a.232.232 0 0 0 .267.1.144.144 0 0 0 .058-.207.522.522 0 0 0-.078-.077.221.221 0 0 0 .229-.278.39.39 0 0 0 .079 0 .212.212 0 0 0 .167-.205.38.38 0 0 0 .233.048.229.229 0 0 0 .172-.3c0-.008-.009-.012-.012-.018a.672.672 0 0 0 .421-.116.244.244 0 0 0 .039-.323.273.273 0 0 0-.02-.363" data-name="Path 310"></path></clipPath><clipPath id="H"><path fill="none" d="M67.224 27.953h12.493v7.76H67.224z" data-name="Rectangle 24"></path></clipPath><linearGradient id="a" x1="-17.184" x2="-16.924" y1="21.764" y2="21.764" gradientUnits="objectBoundingBox"><stop offset="0" stop-color="#4457f1"></stop><stop offset="1" stop-color="#4e60f2"></stop></linearGradient><linearGradient xlink:href="#a" id="f" x1="-24.55" x2="-24.179" y1="30.297" y2="30.297"></linearGradient><linearGradient xlink:href="#a" id="h" x1="-36.262" x2="-35.701" y1="44.794" y2="44.794"></linearGradient><linearGradient xlink:href="#a" id="j" x1="-39.411" x2="-38.85" y1="47.02" y2="47.02"></linearGradient><linearGradient xlink:href="#a" id="l" x1="-39.51" x2="-38.9" y1="51.529" y2="51.529"></linearGradient><linearGradient xlink:href="#a" id="n" x1="-26.286" x2="-25.915" y1="30.304" y2="30.304"></linearGradient><linearGradient xlink:href="#a" id="p" x1="-40.019" x2="-39.442" y1="46.564" y2="46.564"></linearGradient><linearGradient xlink:href="#a" id="r" x1="-50.253" x2="-49.455" y1="67.094" y2="67.094"></linearGradient><linearGradient xlink:href="#a" id="t" x1="-51.773" x2="-50.975" y1="64.931" y2="64.931"></linearGradient><linearGradient xlink:href="#a" id="v" x1="-35.884" x2="-35.352" y1="45.245" y2="45.245"></linearGradient><linearGradient xlink:href="#a" id="x" x1="-76.619" x2="-75.528" y1="89.378" y2="89.378"></linearGradient><linearGradient xlink:href="#a" id="z" x1="-23.05" x2="-22.679" y1="30.629" y2="30.629"></linearGradient><linearGradient id="b" x1="-6.459" x2="-6.356" y1="5.187" y2="5.187" gradientUnits="objectBoundingBox"><stop offset="0" stop-color="#e8eafd"></stop><stop offset="1" stop-color="#fff"></stop></linearGradient><linearGradient xlink:href="#b" id="G" x1="-9.281" x2="-9.137" y1="5.334" y2="5.334"></linearGradient><radialGradient id="B" cx=".724" cy=".141" r=".853" gradientTransform="matrix(.902 0 0 -1 -.428 12.529)" gradientUnits="objectBoundingBox"><stop offset="0" stop-color="#f3f4fe"></stop><stop offset=".791" stop-color="#eaecfd"></stop><stop offset="1" stop-color="#e7e9fd"></stop></radialGradient></defs><g clip-path="url(#c)" data-name="Same-sex couples"><g data-name="Group 53"><g clip-path="url(#c)" data-name="Group 52"><g data-name="Group 10"><g clip-path="url(#c)" data-name="Group 9"><path fill="#d2d6fc" d="m69.491 29.6 2.232 4.283s-.04.592 0 1.582 2.641 6.222 2.641 6.222a3.57 3.57 0 0 0-2.247 1.42c-.373.739.8 1.538.8 1.538s-.6-.071-.755.74a3.12 3.12 0 0 0 .638 2.54 2.391 2.391 0 0 0 2.807 0c1.621-1.571 1.473-4.317 1.611-6.068A22.836 22.836 0 0 0 76.7 38a34.4 34.4 0 0 0-1.038-6.084c-.148-.371-1.59-3.38-2.748-6.132-.4.024-3.424 3.817-3.424 3.817" data-name="Path 270"></path><path fill="none" stroke="#6a3ab5" stroke-miterlimit="10" stroke-width=".496" d="m69.491 29.6 2.232 4.283s-.04.592 0 1.582 2.641 6.222 2.641 6.222a3.57 3.57 0 0 0-2.247 1.42c-.373.739.8 1.538.8 1.538s-.6-.071-.755.74a3.12 3.12 0 0 0 .638 2.54 2.391 2.391 0 0 0 2.807 0c1.621-1.571 1.473-4.317 1.611-6.068A22.836 22.836 0 0 0 76.7 38a34.4 34.4 0 0 0-1.038-6.084c-.148-.371-1.59-3.38-2.748-6.132-.394.023-3.423 3.816-3.423 3.816Z" data-name="Path 271"></path><path fill="#fff" d="M72.716 23.054s.541 2.308.608 2.729c-.256 2.662-4.145 2.866-4.145 2.866L67.7 25.726Z" data-name="Path 272"></path><path fill="none" stroke="#6a3ab5" stroke-miterlimit="10" stroke-width=".496" d="M72.716 23.054s.541 2.308.608 2.729c-.256 2.662-4.145 2.866-4.145 2.866L67.7 25.726Z" data-name="Path 273"></path><path fill="#abb3f9" d="M65.829 17.111v4.7l-1.435 1.424H59.1l-2.388-3.4.441-6.809Z" data-name="Path 274"></path><path fill="#fff" d="M73.324 20.637a5.16 5.16 0 0 1-5.173 5.146c-2.861 0-3.117-2.025-3.117-4.867s.256-5.428 3.117-5.428a5.162 5.162 0 0 1 5.173 5.149" data-name="Path 275"></path><path fill="none" stroke="#6a3ab5" stroke-miterlimit="10" stroke-width=".496" d="M73.324 20.637a5.16 5.16 0 0 1-5.173 5.146c-2.861 0-3.117-2.025-3.117-4.867s.256-5.428 3.117-5.428a5.162 5.162 0 0 1 5.173 5.149Z" data-name="Path 276"></path><path fill="#fff" d="M55.487 43.007s-4.231 4.591-5.148 8.215-2.62 42.227-3.127 46.718c-.687 6.095 5.037 7.838 10.932 7.362s12.661-3.8 14.174-7.522c-2.227-23.438.24-52.816-2.271-56.376-.939-1.388-14.561 1.6-14.561 1.6" data-name="Path 277"></path><path fill="none" stroke="#6a3ab5" stroke-miterlimit="10" stroke-width=".496" d="M55.487 43.007s-4.231 4.591-5.148 8.215-2.62 42.227-3.127 46.718c-.687 6.095 5.037 7.838 10.932 7.362s12.661-3.8 14.174-7.522c-2.227-23.438.24-52.816-2.271-56.376-.939-1.387-14.56 1.603-14.56 1.603Z" data-name="Path 278"></path><path fill="#d1d1fb" d="M55.487 41.1v1.911a10.773 10.773 0 0 0 5.465 1.6c6.292.415 9.1-3.208 9.1-3.208l-.037-2.341Z" data-name="Path 279"></path><path fill="none" stroke="#6a3ab5" stroke-miterlimit="10" stroke-width=".496" d="M55.487 41.1v1.911a10.773 10.773 0 0 0 5.465 1.6c6.292.415 9.1-3.208 9.1-3.208l-.037-2.341Z" data-name="Path 280"></path><path fill="#fff" d="M52.809 34.751c1.034.89 2.677 6.345 2.677 6.345s1.96 1.59 6 1.573c5.934.042 8.523-3.606 8.523-3.606.117-2.088.317-5.181.317-5.181s2.51-.517 2.988-4.077c.168-1.28-1.972-5.236-3.824-8.751-1.489-2.831-2.7-5.041-3.824-5.544C64.037 15.037 63.8 22 63.8 22s-5.505-4.272-6.211-3.723l-6.012 4.672s.2 10.91 1.235 11.8" data-name="Path 281"></path><path fill="none" stroke="#6a3ab5" stroke-miterlimit="10" stroke-width=".496" d="M52.809 34.751c1.034.89 2.677 6.345 2.677 6.345s1.96 1.59 6 1.573c5.934.042 8.523-3.606 8.523-3.606.117-2.088.317-5.181.317-5.181s2.51-.517 2.988-4.077c.168-1.28-1.972-5.236-3.824-8.751-1.489-2.831-2.7-5.041-3.824-5.544C64.037 15.037 63.8 22 63.8 22s-5.505-4.272-6.211-3.723l-6.012 4.672s.196 10.914 1.232 11.802Z" data-name="Path 282"></path><path fill="#d2d6fc" d="M68.9 9.89c-.209.469-.279.632-.279.632a3.2 3.2 0 0 1 .313.817 43.5 43.5 0 0 1-1.03 6.507 3.4 3.4 0 0 1-2.232 1.108c-.664 0-4.292-1.525-5.262-2.7-1.106-1.337-1.466-6.087-1.466-6.087l4.816-6.256 5.731 2.138a37.475 37.475 0 0 1-.6 3.841" data-name="Path 283"></path><path fill="none" stroke="#6a3ab5" stroke-miterlimit="10" stroke-width=".496" d="M68.9 9.89c-.209.469-.279.632-.279.632a3.2 3.2 0 0 1 .313.817 43.5 43.5 0 0 1-1.03 6.507 3.4 3.4 0 0 1-2.232 1.108c-.664 0-4.292-1.525-5.262-2.7-1.106-1.337-1.466-6.087-1.466-6.087l4.816-6.256 5.731 2.138A37.475 37.475 0 0 1 68.9 9.89Z" data-name="Path 284"></path><path fill="#441090" d="M66.584 7.078c-4.34 1.148-.01 4.8-7.044 8.41-1.835 1.239 1.061 5.684.554 7.348-.6-1.426-2.855-2.445-3.216-2.128a3.3 3.3 0 0 1 .9 2.94c-.715-1.071-1.58-2.94-3.251-2.951-.7 0-1.444 1.267-2.949 2.257a48.959 48.959 0 0 0 1.152-8.2C53.045 11 51.694 1.971 59.061 1.3c0 0 1.425-2.458 5.454-.611 3.662 1.679 5.813 5.084 5.813 6.47A4.133 4.133 0 0 1 68.9 9.89c.6-3.84-.758-3.683-.758-3.683s-.716-.117-1.553.871" data-name="Path 285"></path><path fill="#d2d6fc" d="M48.148 33.843c-.478 1.148-.936 6.769-.936 6.769a21.65 21.65 0 0 0-1.947 4.395c-.244.713 1.991 8.79 1.991 8.79s3.244-7.562 3.6-8.91a9.243 9.243 0 0 0 .2-2.889 28.916 28.916 0 0 0 2.51-7.287c-.08-.712-4.937-2.018-5.417-.869" data-name="Path 286"></path><path fill="none" stroke="#6a3ab5" stroke-miterlimit="10" stroke-width=".496" d="M48.148 33.843c-.478 1.148-.936 6.769-.936 6.769a21.65 21.65 0 0 0-1.947 4.395c-.244.713 1.991 8.79 1.991 8.79s3.244-7.562 3.6-8.91a9.243 9.243 0 0 0 .2-2.889 28.916 28.916 0 0 0 2.51-7.287c-.081-.711-4.938-2.017-5.418-.868Z" data-name="Path 287"></path><path fill="#fff" d="M48.367 30.535s-.357 2.919-.535 3.629c1.31 2.019 4.6 2.249 5.912.944l1.075-4.037Z" data-name="Path 288"></path><path fill="none" stroke="#6a3ab5" stroke-miterlimit="10" stroke-width=".496" d="M48.367 30.535s-.357 2.919-.535 3.629c1.31 2.019 4.6 2.249 5.912.944l1.075-4.037Z" data-name="Path 289"></path><path fill="#fff" d="M57.15 27.627a5.177 5.177 0 1 1-5.178-5.146 5.163 5.163 0 0 1 5.178 5.146" data-name="Path 290"></path><path fill="none" stroke="#6a3ab5" stroke-miterlimit="10" stroke-width=".496" d="M57.15 27.627a5.177 5.177 0 1 1-5.178-5.146 5.163 5.163 0 0 1 5.178 5.146Z" data-name="Path 291"></path><path fill="#6a3ab5" d="m75.04 42.852 4.307-5.308-11.9-.279s4.463 5.089 4.923 5.587a1.785 1.785 0 0 0 2.674 0" data-name="Path 292"></path><path fill="none" stroke="#6a3ab5" stroke-miterlimit="10" stroke-width=".496" d="m75.04 42.852 4.307-5.308-11.9-.279s4.463 5.089 4.923 5.587a1.785 1.785 0 0 0 2.67 0Z" data-name="Path 293"></path><path fill="#afb7f9" d="M78.275 38.346a10.554 10.554 0 0 1-9.508 0c-2.625-1.507-2.625-3.951 0-5.457a10.561 10.561 0 0 1 9.508 0c2.625 1.506 2.625 3.95 0 5.457" data-name="Path 294"></path><path fill="#e9e9fd" d="M71.373 36.324c-2.539 1.417 1.172 3.711 3.788 2.251 2.54-1.417-1.171-3.711-3.788-2.251" data-name="Path 295"></path></g></g><g data-name="Group 12"><g clip-path="url(#d)" data-name="Group 11"><path fill="url(#a)" d="M0 0h4.183v3.561H0z" data-name="Rectangle 7" transform="rotate(-30 102.375 -115.108)"></path></g></g><g data-name="Group 14"><g clip-path="url(#e)" data-name="Group 13"><path fill="url(#f)" d="M0 0h2.928v2.493H0z" data-name="Rectangle 8" transform="rotate(-30 105.421 -114.661)"></path></g></g><g data-name="Group 16"><g clip-path="url(#g)" data-name="Group 15"><path fill="url(#h)" d="M0 0h1.936v1.648H0z" data-name="Rectangle 9" transform="rotate(-30 107.284 -111.071)"></path></g></g><g data-name="Group 18"><g clip-path="url(#i)" data-name="Group 17"><path fill="url(#j)" d="M0 0h1.936v1.649H0z" data-name="Rectangle 10" transform="rotate(-30 103.415 -124.342)"></path></g></g><g data-name="Group 20"><g clip-path="url(#k)" data-name="Group 19"><path fill="url(#l)" d="M0 0h1.78v1.515H0z" data-name="Rectangle 11" transform="rotate(-30 99.304 -113.5)"></path></g></g><g data-name="Group 22"><g clip-path="url(#m)" data-name="Group 21"><path fill="url(#n)" d="M0 0h2.929v2.494H0z" data-name="Rectangle 12" transform="rotate(-30 107.911 -124.206)"></path></g></g><g data-name="Group 24"><g clip-path="url(#o)" data-name="Group 23"><path fill="url(#p)" d="M0 0h1.882v1.602H0z" data-name="Rectangle 13" transform="rotate(-30 108.35 -121.06)"></path></g></g><g data-name="Group 26"><g clip-path="url(#q)" data-name="Group 25"><path fill="url(#r)" d="M0 0h1.36v1.158H0z" data-name="Rectangle 14" transform="rotate(-30 98.84 -109.838)"></path></g></g><g data-name="Group 28"><g clip-path="url(#s)" data-name="Group 27"><path fill="url(#t)" d="M0 0h1.361v1.159H0z" data-name="Rectangle 15" transform="rotate(-30 104.45 -112.517)"></path></g></g><g data-name="Group 30"><g clip-path="url(#u)" data-name="Group 29"><path fill="url(#v)" d="M0 0h2.041v1.738H0z" data-name="Rectangle 16" transform="rotate(-30 99.893 -119.123)"></path></g></g><g data-name="Group 32"><g clip-path="url(#w)" data-name="Group 31"><path fill="url(#x)" d="M0 0h.995v.847H0z" data-name="Rectangle 17" transform="rotate(-30 106.274 -123.68)"></path></g></g><g data-name="Group 34"><g clip-path="url(#y)" data-name="Group 33"><path fill="url(#z)" d="M0 0h2.93v2.495H0z" data-name="Rectangle 18" transform="rotate(-30 101.608 -106.968)"></path></g></g><g data-name="Group 36"><g clip-path="url(#A)" data-name="Group 35"><path fill="url(#B)" d="M0 0h15.123v13.559H0z" data-name="Rectangle 19" transform="translate(65.925 27.055)"></path></g></g><g data-name="Group 51"><g clip-path="url(#c)" data-name="Group 50"><g data-name="Group 41" opacity=".5" style="mix-blend-mode:multiply;isolation:isolate"><g data-name="Group 40"><g clip-path="url(#C)" data-name="Group 39"><g data-name="Group 38"><g clip-path="url(#D)" data-name="Group 37"><path fill="url(#b)" d="M0 0h10.566v16.087H0z" data-name="Rectangle 20" transform="rotate(-80.624 56.15 -17.922)"></path></g></g></g></g></g><g data-name="Group 46" opacity=".5" style="mix-blend-mode:multiply;isolation:isolate"><g data-name="Group 45"><g clip-path="url(#E)" data-name="Group 44"><g data-name="Group 43"><g clip-path="url(#F)" data-name="Group 42"><path fill="url(#G)" d="M0 0h7.508v15.238H0z" data-name="Rectangle 22" transform="rotate(-78.409 57.371 -19.74)"></path></g></g></g></g></g><g data-name="Group 49" opacity=".4"><g data-name="Group 48"><g clip-path="url(#H)" data-name="Group 47"><path fill="#f9f9fe" d="M73.8 29.357a.35.35 0 0 1-.062.14.081.081 0 0 1-.139-.04.363.363 0 0 1 .001-.157c.029-.139.228-.082.194.056m-1.23-.558a.514.514 0 0 0 .27.107c.066 0 .091-.1.056-.15a.549.549 0 0 0-.247-.163c-.122-.06-.2.14-.08.206m.073 1.718a.288.288 0 0 0-.065.219.112.112 0 0 0 .222.03.3.3 0 0 0-.017-.23.084.084 0 0 0-.139-.019m-.213-2.19a2.207 2.207 0 0 0 .219-.058.1.1 0 0 0 .031.136.192.192 0 0 0 .269-.11.088.088 0 0 0-.128-.111.2.2 0 0 1-.1.045.173.173 0 0 0 .029-.019.1.1 0 0 0-.042-.178.719.719 0 0 0-.33.091c-.1.039-.058.235.05.205m.58 1.093c-.1.039-.207.059-.268.162a.105.105 0 0 0 .056.149c.1.029.184-.03.274-.069.134-.058.078-.3-.062-.242m-.92.016a.242.242 0 0 0 .274.04c.1-.04.061-.212-.046-.179a.394.394 0 0 1-.174-.008c-.067-.009-.1.1-.054.147m1.641-1.045c.109.026.154-.163.052-.206a.5.5 0 0 0-.293-.079.1.1 0 0 0-.043.177.515.515 0 0 0 .285.108m-1.287.63c.072.021.1-.1.029-.123s-.1.1-.029.123m.9-.874c.1-.041.056-.211-.047-.192s-.213.016-.277.11a.1.1 0 0 0 .033.14c.1.046.2-.017.291-.058m-1.274 2c-.105.059-.031.245.08.208a.879.879 0 0 0 .331-.2.44.44 0 0 0 .179-.361.087.087 0 0 0-.106-.066.241.241 0 0 0-.105.071v-.018a.088.088 0 0 0-.175-.024c0 .015-.013.019-.029.014a.089.089 0 0 0-.054.147.113.113 0 0 0 .1.052.846.846 0 0 1-.225.172m.938.13c.062-.05.047-.175-.042-.17a.437.437 0 0 1-.211-.021c-.124-.051-.174.167-.052.218a.3.3 0 0 0 .305-.028m-1.8-1.406c.149.03.21-.224.06-.253a.49.49 0 0 0-.324-.008.108.108 0 0 0-.018.158.459.459 0 0 0 .282.1m-.444.383a.148.148 0 0 0 .15-.021.109.109 0 0 0 .033-.137.164.164 0 0 0-.123-.1c-.149-.045-.211.217-.06.256m.1.492c-.128 0-.109.221.026.2a.232.232 0 0 0 .059-.014c.1-.031.064-.167-.024-.179a.228.228 0 0 0-.061 0m-.5-.795c.1.066.2-.082.123-.176a.3.3 0 0 0-.168-.123.094.094 0 0 0-.108.12.338.338 0 0 0 .153.179m1.554-.631a.391.391 0 0 0 .175.027.1.1 0 0 0 .042-.168.469.469 0 0 0-.19-.076c-.125-.033-.149.182-.027.217m-2.028.948c.086.067.185-.062.138-.153-.085-.163-.278-.314-.447-.216a.118.118 0 0 0-.02.174c.092.091.226.114.329.2m2.052.473.033-.008c.07-.017.043-.125-.021-.122a.105.105 0 0 0-.075-.042c-.053 0-.108.03-.159.021a.121.121 0 0 0-.058.232.545.545 0 0 0-.306.138c-.126.08-.015.283.112.213.1-.053.227-.091.274-.205a.11.11 0 0 0-.034-.135.206.206 0 0 0 .234-.092m-.945-.524a.146.146 0 0 0 0 .236.383.383 0 0 0 .44-.042.127.127 0 0 0 0-.164.38.38 0 0 0-.44-.03m.584-.064c.152.043.413.059.5-.121a.112.112 0 0 0 .005-.021.179.179 0 0 0 .072 0 .112.112 0 0 0 .059-.159c-.042-.076-.117-.1-.165-.171a.121.121 0 1 0-.2.132.662.662 0 0 0 .047.065l-.071.021a1.038 1.038 0 0 1-.222.04.112.112 0 0 0-.024.215m-2.502-.055a.323.323 0 0 0 .062-.14.1.1 0 1 0-.194-.056.363.363 0 0 0-.007.157.081.081 0 0 0 .139.04m5.865.092a.1.1 0 0 0 .13-.058.228.228 0 0 0-.007-.165.127.127 0 1 0-.23.106.2.2 0 0 0 .106.118m.876.608a.192.192 0 0 0 .275-.09.111.111 0 0 0-.106-.155.441.441 0 0 1-.111.015c-.122-.024-.173.179-.058.23m.843-.7a.108.108 0 0 0-.038.154c.042.073.129.1.189.157a1.147 1.147 0 0 1 .134.226c.051.08.144.032.164-.048.052-.218-.236-.619-.449-.489m-.544 2.073a.2.2 0 0 1-.1.045.172.172 0 0 0 .029-.019.1.1 0 0 0-.037-.18.733.733 0 0 0-.33.091c-.1.039-.058.235.049.206.069-.019.149-.032.22-.059a.1.1 0 0 0 .031.136.19.19 0 0 0 .268-.11.087.087 0 0 0-.127-.111m.232-1.623c.067-.021.089-.063.132-.119.075-.1-.05-.233-.138-.155-.052.048-.09.07-.111.143-.026.087.038.155.116.132m-.923-.536.039.018a.1.1 0 0 0 .112-.159.418.418 0 0 1-.028-.033c-.122-.145-.27.109-.123.174m.329.286a.458.458 0 0 0-.476-.054.114.114 0 0 0 .024.211c.045.006.093.009.142.012a.057.057 0 0 0 .046.064c.039.005.061-.027.062-.062a1.126 1.126 0 0 0 .162-.009.1.1 0 0 0 .04-.162m1.426 1.857a.146.146 0 0 0 0 .238.385.385 0 0 0 .44-.043.127.127 0 0 0 0-.164.382.382 0 0 0-.44-.03m-.553-1.4a.083.083 0 0 0 .135-.06.352.352 0 0 0-.034-.17c-.051-.134-.241-.046-.188.086a.335.335 0 0 0 .087.144m.787.658c.1.066.2-.083.122-.176a.29.29 0 0 0-.168-.124.093.093 0 0 0-.106.12.332.332 0 0 0 .153.18m-4-.563a.122.122 0 0 0-.021.177c.092.082.2.064.312.068.162 0 .157-.271 0-.278-.1 0-.2-.031-.288.032m5.227 1.039c-.084-.162-.277-.314-.446-.216a.119.119 0 0 0-.021.174c.093.091.227.114.329.2.086.068.186-.062.138-.153m-4.911-.421c-.085-.163-.278-.314-.446-.216a.118.118 0 0 0-.021.174c.093.091.227.114.329.2.086.067.186-.063.138-.153m-3.385-1.025a.336.336 0 0 0 .241.023.107.107 0 0 0 .022-.186.358.358 0 0 0-.239-.058c-.118 0-.13.184-.024.221m3.167-.612c.083 0 .1-.155.023-.18a.287.287 0 0 0-.159-.018.093.093 0 0 0-.022.172.294.294 0 0 0 .157.027m.124 2.37c.046-.165-.051-.436-.241-.376a.108.108 0 0 0-.055.151c.026.056.09.091.074.16a.116.116 0 1 0 .223.065m.375-1.038c.073.021.1-.1.029-.124s-.1.1-.029.124m-.042-1.139c.11-.029.166-.152.207-.26.058-.146-.118-.269-.2-.126a.751.751 0 0 0-.134.254c-.01.082.043.154.123.133m.557 1.66a.33.33 0 0 0 .153.179c.1.067.194-.082.122-.175a.294.294 0 0 0-.168-.124.093.093 0 0 0-.106.12m.013-.84a.484.484 0 0 0-.324-.009.109.109 0 0 0-.018.159.465.465 0 0 0 .281.1c.15.029.211-.225.061-.253m-.71 2.443c.1-.136-.088-.309-.186-.174-.047.063-.118.079-.171.137a.108.108 0 0 0 .011.143c.125.091.26.012.345-.106m2.591 1.733c.074.013.093-.112.02-.126s-.092.112-.02.126m-5.1-2.774a.108.108 0 0 0-.007.16.449.449 0 0 0 .288.076c.151.015.192-.243.041-.257a.485.485 0 0 0-.323.022m.7.937c-.149-.054-.315.049-.455.108a.131.131 0 0 0 .083.246c.129-.035.324-.053.408-.176.036-.053.031-.154-.036-.178m1.789 2.518c-.086-.04-.157-.09-.249-.045a.107.107 0 0 0-.054.131c.038.1.109.122.2.161.148.064.253-.178.105-.246m-.171-.653c-.043 0-.151 0-.174-.053a.155.155 0 0 0-.272-.052.18.18 0 0 0 .138.289 1.56 1.56 0 0 0 .3.019c.1-.016.116-.2.007-.2m1.083-2.538c-.042 0-.151 0-.173-.053a.155.155 0 0 0-.272-.052.179.179 0 0 0 .137.289 1.56 1.56 0 0 0 .3.019c.1-.016.117-.2.007-.2m-1.765 2.8c-.074-.013-.093.112-.02.126s.093-.112.02-.126m-.474-.7a.141.141 0 0 0 .043-.157c-.073-.164-.268-.127-.355-.279-.047-.08-.154-.01-.129.076a.7.7 0 0 0 .132.285c.083.094.2.155.308.075m.387.159c-.15-.054-.315.049-.456.108a.131.131 0 0 0 .084.246c.129-.035.323-.053.407-.176.037-.053.033-.154-.035-.178m-1.411.235c-.122-.059-.238.126-.128.22s.209.226.363.181c.066-.019.083-.1.068-.165-.033-.148-.192-.182-.3-.236m3.385-1.153a.526.526 0 0 0-.128-.09c-.139-.08-.24.161-.1.243a.507.507 0 0 0 .14.063c.114.03.169-.138.091-.216m-3.373.864a.544.544 0 0 0 .14.064c.114.029.168-.138.091-.217a.581.581 0 0 0-.128-.09c-.14-.08-.24.162-.1.243m7.3-.953c.066-.019.083-.1.068-.165-.033-.148-.192-.182-.3-.236s-.238.126-.128.221.209.226.363.18M74.879 34c-.122-.058-.238.126-.128.22s.209.227.363.181c.066-.019.083-.1.068-.165-.033-.148-.192-.182-.3-.236m4.8-2.3a.547.547 0 0 0-.128-.09c-.14-.08-.24.161-.1.242a.5.5 0 0 0 .14.064c.114.03.168-.138.091-.216m-.627 2.352c-.149-.054-.315.049-.455.108a.131.131 0 0 0 .083.246c.129-.035.324-.053.408-.176.036-.053.031-.154-.036-.178m-3.4-1.271c-.047-.081-.154-.011-.129.075a.7.7 0 0 0 .132.285c.083.094.2.155.308.075a.141.141 0 0 0 .043-.155c-.073-.165-.268-.128-.355-.279m.941 1.649c-.15-.054-.315.049-.456.108a.131.131 0 0 0 .084.247c.129-.035.323-.053.407-.176.037-.053.033-.154-.035-.179m.854-1.017c-.043 0-.151 0-.174-.053A.155.155 0 0 0 77 33.3a.179.179 0 0 0 .138.289 1.554 1.554 0 0 0 .3.019c.1-.016.116-.2.007-.2m-6.871-1.451c-.042 0-.151 0-.173-.052a.155.155 0 0 0-.272-.053.179.179 0 0 0 .138.289 1.544 1.544 0 0 0 .3.021c.1-.016.117-.2.007-.205m-2.18-.04c-.121-.059-.238.126-.128.22s.21.226.364.18c.066-.019.081-.1.068-.164-.034-.149-.193-.184-.3-.236m.9-1.629c.1-.136-.087-.309-.186-.174-.047.064-.118.08-.171.137a.11.11 0 0 0 .012.144c.125.091.258.011.344-.107m.122 1.235a.143.143 0 0 0 .043-.157c-.073-.165-.268-.127-.355-.279-.047-.081-.154-.01-.129.076a.694.694 0 0 0 .131.285c.083.094.2.154.31.075m-.3 1.506c-.046-.08-.154-.01-.128.076a.687.687 0 0 0 .131.285c.083.094.2.155.308.075a.141.141 0 0 0 .043-.157c-.073-.165-.268-.127-.355-.279m-.716-1.4a.507.507 0 0 0 .14.063c.114.03.169-.138.091-.216a.541.541 0 0 0-.127-.09c-.14-.08-.241.161-.1.243m1.4.054c-.149-.054-.315.049-.455.108a.131.131 0 0 0 .083.246c.129-.035.324-.053.408-.176.036-.053.033-.154-.036-.178m-1.665-.714c-.047.064-.118.08-.169.137a.108.108 0 0 0 .011.144c.125.091.258.011.344-.107.1-.135-.087-.309-.186-.174m-.653.418a.259.259 0 0 0-.165-.03c-.144 0-.122.248.021.245a.242.242 0 0 0 .157-.046.1.1 0 0 0-.013-.168m4.021 4.07c-.086-.04-.159-.091-.249-.045a.107.107 0 0 0-.054.131c.038.1.109.122.2.161.148.064.253-.179.105-.246m-.748-.9c-.086-.04-.157-.09-.249-.045a.108.108 0 0 0-.054.131c.038.1.109.122.2.161.147.064.252-.178.1-.246m-.868-2.331c-.073-.014-.093.112-.02.125s.093-.112.02-.125m.853.39c-.086-.04-.157-.091-.249-.045a.107.107 0 0 0-.053.131c.038.1.108.122.2.161.147.064.252-.179.1-.246m.46.463c-.047.063-.118.079-.171.137a.108.108 0 0 0 .011.143c.125.091.26.012.345-.106.1-.136-.088-.309-.186-.174m-.51-1.321a.105.105 0 0 0-.042-.2.443.443 0 0 1-.187-.031c-.016-.006-.03-.014-.043-.021.048-.086-.013-.22-.119-.173a1.406 1.406 0 0 0-.358.193v-.03a.427.427 0 0 0 .034-.3.079.079 0 0 0-.152.039.181.181 0 0 1-.017.117.38.38 0 0 1-.084-.042.314.314 0 0 1-.123-.288c.013-.12-.152-.153-.167-.032a.692.692 0 0 0 .088.434c.065.117.223.268.351.2a.1.1 0 0 0 .1.1.6.6 0 0 0 .262-.093c.054.2.324.2.464.121m-.247-1.156c-.1.005-.206-.012-.283.059a.121.121 0 0 0-.008.178c.1.073.2.045.316.039.161-.011.136-.285-.025-.276m-.546 3.56c-.074-.013-.093.112-.02.126s.093-.113.02-.126" data-name="Path 311"></path></g></g></g><path fill="#d2d6fc" d="M46.508 51.087c0-.008-.014-.016-.022-.024a20.927 20.927 0 0 0 .225-3.758c-.393-1.7-.786-4.395-.786-4.395s-3.381-11.625-3.86-12.774-5.336.159-5.417.869C37.127 34.292 42.08 44.3 42.08 44.3a9.287 9.287 0 0 0 .2 2.89c.143.539.747 2.069 1.419 3.71-.342 3-.863 4.07-.555 4.653.1 1.42.1 2.015.392 2.215a1.668 1.668 0 0 0 1.435.079c.066-.153-.512-1.137-.492-1.29.176-1.273.5-1.61.874-1.7.318.748.529 1.24.529 1.24s.066-.5.163-1.271a1.09 1.09 0 0 0 .3-.048c.592.39.575.649.761.524.939-1.162-.22-2.449-.6-4.213" data-name="Path 312"></path><path fill="none" stroke="#6a3ab5" stroke-miterlimit="10" stroke-width=".448" d="M46.508 51.087c0-.008-.014-.016-.022-.024a20.927 20.927 0 0 0 .225-3.758c-.393-1.7-.786-4.395-.786-4.395s-3.381-11.625-3.86-12.774-5.336.159-5.417.869C37.127 34.292 42.08 44.3 42.08 44.3a9.287 9.287 0 0 0 .2 2.89c.143.539.747 2.069 1.419 3.71-.342 3-.863 4.07-.555 4.653.1 1.42.1 2.015.392 2.215a1.668 1.668 0 0 0 1.435.079c.066-.153-.512-1.137-.492-1.29.176-1.273.5-1.61.874-1.7.318.748.529 1.24.529 1.24s.066-.5.163-1.271a1.09 1.09 0 0 0 .3-.048c.592.39.575.649.761.524.937-1.164-.223-2.451-.598-4.215Z" data-name="Path 313"></path><path fill="#abb3f9" d="M47.048 53.582s-1.063-1.463-1.8-.644a5.751 5.751 0 0 0-.939 3.011c-.113 1.5.329 1.768.807 1.8s1.967-1.539 2.328-2.37a2.053 2.053 0 0 0-.4-1.8" data-name="Path 314"></path><path fill="#d2d6fc" d="M47.073 53.878s-1.007-1.384-1.7-.609a5.389 5.389 0 0 0-.887 2.851c-.111 1.418.312 1.67.763 1.7s1.86-1.453 2.2-2.243a1.94 1.94 0 0 0-.373-1.7" data-name="Path 315"></path><path fill="none" stroke="#6a3ab5" stroke-miterlimit="10" stroke-width=".454" d="M47.073 53.878s-1.007-1.384-1.7-.609a5.389 5.389 0 0 0-.887 2.851c-.111 1.418.312 1.67.763 1.7s1.86-1.453 2.2-2.243a1.94 1.94 0 0 0-.376-1.699Z" data-name="Path 316"></path><path fill="#fff" d="M39.913 21.8a12.427 12.427 0 0 1 .894 1.256 18.684 18.684 0 0 1 2.279 6.749l.469 2.34c.235 1.175.52 2.34.791 3.506.3 1.306.568 2.636.952 3.917a.809.809 0 0 1 .047.242.659.659 0 0 1-.2.412A3.96 3.96 0 0 1 41.5 41.4a1.36 1.36 0 0 1-1.058-.627 46.809 46.809 0 0 1-2.342-6.42 44.461 44.461 0 0 1-1.536-6.306q-.165-.98-.283-1.967a11.591 11.591 0 0 1-.2-1.975c-.1-1.275-.422-4.476 1.693-3.824a6.87 6.87 0 0 1 1.611 1.032 3 3 0 0 1 .519.49" data-name="Path 317"></path><path fill="none" stroke="#6a3ab5" stroke-miterlimit="10" stroke-width=".488" d="M39.913 21.8a12.427 12.427 0 0 1 .894 1.256 18.684 18.684 0 0 1 2.279 6.749l.469 2.34c.235 1.175.52 2.34.791 3.506.3 1.306.568 2.636.952 3.917a.809.809 0 0 1 .047.242.659.659 0 0 1-.2.412A3.96 3.96 0 0 1 41.5 41.4a1.36 1.36 0 0 1-1.058-.627 46.809 46.809 0 0 1-2.342-6.42 44.461 44.461 0 0 1-1.536-6.306q-.165-.98-.283-1.967a11.591 11.591 0 0 1-.2-1.975c-.1-1.275-.422-4.476 1.693-3.824a6.87 6.87 0 0 1 1.611 1.032 3 3 0 0 1 .528.487Z" data-name="Path 318"></path><path fill="#ff8380" d="M29.591 96.986c.224.9.317 1.834.475 2.751.135.787.315 1.566.45 2.353a1.683 1.683 0 0 1-.22 1.459 1.583 1.583 0 0 1-1.386.3 5.611 5.611 0 0 1-3-1.338 4.037 4.037 0 0 1-1.362-2.927c0-.943.384-1.858.351-2.8-.016-.441-.123-.873-.159-1.311a2.443 2.443 0 0 1 .808-2.178 1.82 1.82 0 0 1 1.728-.211 3.4 3.4 0 0 1 1.409 1.394 9.278 9.278 0 0 1 .909 2.51" data-name="Path 319"></path><path fill="#ff8380" d="M42.071 105.169a7.319 7.319 0 0 1 1.236 1.688 3.559 3.559 0 0 1-.232 3.031 2.543 2.543 0 0 1-1.365 1.3 2.212 2.212 0 0 1-1.968-.412 4.5 4.5 0 0 1-1.249-1.647 9.807 9.807 0 0 1-.616-1.59c-.325-1.124-.488-2.382-1.327-3.2-.7-.684-1.807-.973-2.256-1.843a3.089 3.089 0 0 1-.065-1.851 2.086 2.086 0 0 1 .311-.619 2.188 2.188 0 0 1 1.211-1 4.1 4.1 0 0 1 1.931.077 2.823 2.823 0 0 1 1.681 1.56 27.417 27.417 0 0 0 1.576 2.926 14.167 14.167 0 0 0 1.133 1.572" data-name="Path 320"></path><path fill="#f2ad90" d="M33.947 75.838a77.375 77.375 0 0 1-.223-8.918 9.806 9.806 0 0 0 2.175.665 3.3 3.3 0 0 0 2.2-.371 18.972 18.972 0 0 0 1.566-1.421 4.023 4.023 0 0 1 1.96-.709 1.4 1.4 0 0 0 1.216-1.071 10.679 10.679 0 0 0 .277 2.03 17.629 17.629 0 0 1 .035 2.142A23.248 23.248 0 0 1 42.591 72l-.05.231c-.632 2.912-1.432 5.769-1.941 8.71.017.311.028.619.056.9q.2 2.128.263 4.269a63.182 63.182 0 0 1-.348 8.588q-.259 2.389-.7 4.753c-.1.55-.214 1.1-.289 1.652a3.415 3.415 0 0 0-.024 1.489 19.034 19.034 0 0 1 .835 3.2c.047.295.04.68-.238.793a.541.541 0 0 1-.307.011 2.644 2.644 0 0 1-1.34-1.022c-.759-.876-1.6-1.687-2.289-2.616a3.257 3.257 0 0 1-.819-2.478c.144-.715.529-1.194.307-1.925a21.267 21.267 0 0 1-.478-2.483 35.915 35.915 0 0 1-.769-7.132c.049-1.793.366-3.579.255-5.368a22.476 22.476 0 0 0-.684-3.831c.056.006.113.006.168.008-.011-.127-.02-.255-.028-.38q-.111-1.767-.224-3.533" data-name="Path 321"></path><path fill="#f9d3be" d="M24.86 77.067c-.131-3.459-2.338-6.721-2.385-10.234a10.673 10.673 0 0 0 2.463.817 3.574 3.574 0 0 0 2.507-.432c.367-.241.668-.569 1.023-.826a2.729 2.729 0 0 1 1.859-.524c.222.025.408.089.6.114.62.083 1.086.033 1.355.76a3.192 3.192 0 0 1 .094 1.362 65.046 65.046 0 0 1-1.652 10.281l-.031.13a2.735 2.735 0 0 1-.048.92c-.449 1.952-.711 3.971-1.036 5.947q-.282 1.7-.533 3.411a33.894 33.894 0 0 0-.462 5.214c.012 1.383.176 2.769.053 4.147a.568.568 0 0 1-.062.248c-.134.22-.471.171-.7.05a3.894 3.894 0 0 1-1.561-2.234 44.427 44.427 0 0 1-2.689-12.228 12.612 12.612 0 0 1-.021-2.172 39.279 39.279 0 0 1 1.225-4.751" data-name="Path 322"></path><path fill="#fff" d="M36.753 111.753c-1.425 0-2.888-.073-4.347-.218-5.972-.594-12.29-2.342-19.882-5.5a52.094 52.094 0 0 1-7.309-3.594C3.806 101.57.5 99.264.263 96.576a4.119 4.119 0 0 1 1.643-3.452 15.677 15.677 0 0 1 6.239-3.4c.272-.076.554-.146.841-.218a9.079 9.079 0 0 0 3.581-1.452c1.056-.85 1.343-2.287 1.6-3.556.059-.3.117-.584.182-.856a132.512 132.512 0 0 0 2.804-17.162 92.461 92.461 0 0 1 1.959-12.58 22.319 22.319 0 0 1 1.625-4.843A16.892 16.892 0 0 1 23.648 45a16.408 16.408 0 0 1 2.96-2.422 8.591 8.591 0 0 0-.845 3.269 1.237 1.237 0 0 0 .571.889 2.79 2.79 0 0 1 .215.2l.081.086a5.37 5.37 0 0 0 1.111.979 5.141 5.141 0 0 0 2.361.562l.258.019c.409.031.826.05 1.247.05 2.289 0 6.247-.523 7.961-3.885l.132.3c.059.129.108.235.124.288.21.666.4 1.339.578 2.013.9 3.322 11.33 53.214 11.826 55.643.067.333.162.688.261 1.054.369 1.375.787 2.932-.108 4.043-.91 1.13-3.2 1.724-4.876 2.16-.285.073-.551.141-.79.208a37.217 37.217 0 0 1-9.962 1.3" data-name="Path 323"></path><path fill="#6a3ab5" d="M26.07 43.236a7.571 7.571 0 0 0-.555 2.6 1.448 1.448 0 0 0 .657 1.08 2.488 2.488 0 0 1 .2.177l.083.087a5.5 5.5 0 0 0 1.162 1.02 5.326 5.326 0 0 0 2.469.6l.26.019c.424.035.849.051 1.265.051 3.688 0 6.508-1.29 7.934-3.584.022.05.038.09.048.116.211.668.4 1.356.575 2 .9 3.328 11.326 53.2 11.822 55.627.07.338.165.7.266 1.071.37 1.381.754 2.81-.063 3.824-.858 1.065-3.1 1.648-4.744 2.074-.287.073-.554.144-.795.211a36.988 36.988 0 0 1-9.9 1.294c-1.416 0-2.87-.073-4.324-.218-5.946-.591-12.241-2.334-19.81-5.483a52.036 52.036 0 0 1-7.274-3.577c-1.377-.848-4.6-3.1-4.835-5.672a3.889 3.889 0 0 1 1.562-3.247 15.427 15.427 0 0 1 6.139-3.343c.27-.075.551-.145.835-.216a9.406 9.406 0 0 0 3.677-1.5c1.125-.906 1.422-2.39 1.684-3.7.058-.293.115-.578.18-.848A132.772 132.772 0 0 0 17.4 66.507a89.446 89.446 0 0 1 1.954-12.543 22.081 22.081 0 0 1 1.605-4.79 16.665 16.665 0 0 1 2.867-4 16.327 16.327 0 0 1 2.244-1.933m1.085-1.282a16.649 16.649 0 0 0-3.686 2.871 17.17 17.17 0 0 0-2.953 4.123 22.321 22.321 0 0 0-1.644 4.895 91.335 91.335 0 0 0-1.966 12.61 133.333 133.333 0 0 1-2.8 17.133c-.345 1.431-.475 3.3-1.694 4.277-1.194.96-2.9 1.23-4.332 1.625a15.913 15.913 0 0 0-6.34 3.447c-4.1 3.663-.105 7.586 3.344 9.709a52.324 52.324 0 0 0 7.344 3.612 70.487 70.487 0 0 0 19.953 5.52c1.45.144 2.912.219 4.372.219a37.47 37.47 0 0 0 10.03-1.312c1.665-.462 4.671-1.059 5.792-2.451 1.222-1.515.228-3.678-.1-5.3-.4-1.964-10.913-52.258-11.829-55.658a49.006 49.006 0 0 0-.581-2.021c-.061-.192-.51-1.061-.444-1.231-1.265 3.266-4.712 4.353-8.011 4.353-.413 0-.822-.016-1.226-.049a5.5 5.5 0 0 1-2.511-.546 5.59 5.59 0 0 1-1.143-1.025c-.25-.266-.722-.526-.719-.915a9.911 9.911 0 0 1 1.144-3.891" data-name="Path 324"></path><path fill="#441090" d="M21.408 14.286a4.2 4.2 0 1 0 4.2-4.176 4.188 4.188 0 0 0-4.2 4.176" data-name="Path 325"></path><path fill="#d2d6fc" d="M23.273 12.79a4.572 4.572 0 1 0 4.572-4.546 4.559 4.559 0 0 0-4.572 4.546" data-name="Path 326"></path><ellipse cx="4.572" cy="4.546" fill="none" stroke="#6a3ab5" stroke-miterlimit="10" stroke-width=".496" data-name="Ellipse 2" rx="4.572" ry="4.546" transform="translate(23.273 8.244)"></ellipse><path fill="#fff" d="M34.033 49.9a17.842 17.842 0 0 1-7.416-1.786A6.44 6.44 0 0 1 24.927 47a3.108 3.108 0 0 1-.827-1.5 1.556 1.556 0 0 1 .217-1.142l.137-.3a12.073 12.073 0 0 0 .2-8.833 28.174 28.174 0 0 0-1.673-3.61 77.659 77.659 0 0 0-.969-1.731l-.094-.177a1.415 1.415 0 0 0-.532-.642 1.438 1.438 0 0 0-.491-.164c-.256-.052-.32-.078-.364-.224a1.737 1.737 0 0 1 .149-1.239 4.146 4.146 0 0 1 1.02-1.216 24.6 24.6 0 0 1 4.56-2.942 92.681 92.681 0 0 1 2.646-1.4 36.74 36.74 0 0 1 1.375-.653 5 5 0 0 1 .766-.258c.119-.033.241-.068.366-.107l.325-.1a15.818 15.818 0 0 1 4.655-.961 7.366 7.366 0 0 1 .826.045 3.319 3.319 0 0 1 1.2.325c1.418.749 1.771 2.483 2.082 4.013l.091.444a12.105 12.105 0 0 0 1.133 3.351c.149.268.315.53.481.793a5.137 5.137 0 0 1 .937 2.092 4.977 4.977 0 0 1-1.058 3.1 13.182 13.182 0 0 0-.709 1.28 16.846 16.846 0 0 0-1.363 4.774 21.6 21.6 0 0 0-.037 5.246 7.73 7.73 0 0 0 .144.8 4.183 4.183 0 0 1 .14 1.262 1.985 1.985 0 0 1-1.043 1.351 8.272 8.272 0 0 1-4.8 1.223Z" data-name="Path 327"></path><path fill="#6a3ab5" d="M36.39 19.557v.495a7.2 7.2 0 0 1 .8.043 3.07 3.07 0 0 1 1.11.3c1.315.7 1.655 2.368 1.955 3.844l.092.445A12.233 12.233 0 0 0 41.5 28.1c.15.272.319.539.489.807a4.982 4.982 0 0 1 .9 1.987 4.8 4.8 0 0 1-1.025 2.944 13.575 13.575 0 0 0-.721 1.3 17.117 17.117 0 0 0-1.384 4.844 21.883 21.883 0 0 0-.037 5.306 7.994 7.994 0 0 0 .148.828 4.012 4.012 0 0 1 .137 1.19 1.8 1.8 0 0 1-.937 1.169 8.044 8.044 0 0 1-4.659 1.179h-.376a17.6 17.6 0 0 1-7.312-1.76A6.176 6.176 0 0 1 25.1 46.82a2.851 2.851 0 0 1-.763-1.381 1.32 1.32 0 0 1 .2-.978c.046-.1.092-.2.138-.309a12.322 12.322 0 0 0 .206-9.014A28.338 28.338 0 0 0 23.2 31.5a77.84 77.84 0 0 0-.972-1.739 3.006 3.006 0 0 1-.089-.166 1.662 1.662 0 0 0-.624-.742 1.71 1.71 0 0 0-.571-.2.532.532 0 0 1-.175-.053 1.484 1.484 0 0 1 .134-1.057 3.941 3.941 0 0 1 .967-1.139 24.5 24.5 0 0 1 4.51-2.911 84.43 84.43 0 0 1 2.638-1.391c.451-.225.906-.443 1.366-.649a5.012 5.012 0 0 1 .734-.247c.121-.033.242-.068.368-.107l.327-.1a15.652 15.652 0 0 1 4.578-.948Zm0 0a17.2 17.2 0 0 0-5.052 1.072 9.357 9.357 0 0 0-1.16.376q-.7.314-1.384.658c-.895.447-1.776.921-2.653 1.4a24.682 24.682 0 0 0-4.6 2.974 4.352 4.352 0 0 0-1.084 1.293 1.975 1.975 0 0 0-.163 1.416c.142.474.6.314.966.53.293.176.376.447.538.73.329.572.654 1.146.967 1.727a28.355 28.355 0 0 1 1.658 3.577 11.822 11.822 0 0 1-.2 8.652c-.245.577-.529.976-.366 1.6a3.361 3.361 0 0 0 .894 1.608 6.581 6.581 0 0 0 1.755 1.165 18.034 18.034 0 0 0 7.521 1.811c.128 0 .258.005.388.005a8.665 8.665 0 0 0 4.942-1.268 2.2 2.2 0 0 0 1.149-1.532 10.411 10.411 0 0 0-.285-2.115 21.357 21.357 0 0 1 .036-5.186 16.608 16.608 0 0 1 1.343-4.7c.667-1.45 1.984-2.8 1.788-4.507a8.656 8.656 0 0 0-1.448-2.975 11.755 11.755 0 0 1-1.108-3.283c-.346-1.638-.631-3.742-2.3-4.624a3.584 3.584 0 0 0-1.287-.352 7.633 7.633 0 0 0-.856-.048" data-name="Path 328"></path><path fill="#441090" d="M33.941 50.636a14.136 14.136 0 0 0 4.126-.623 14.953 14.953 0 0 0 1.661-.619c.24-.106.472-.245.717-.339a1.237 1.237 0 0 0 .323-.13c.093-.075.068-.213.064-.326a4.021 4.021 0 0 0-.164-.848 7.392 7.392 0 0 0-.37-1.126c-.059-.131-.165-.213-.3-.125s-.251.184-.394.261c-.237.13-.478.252-.722.364a11.663 11.663 0 0 1-1.767.652 11.521 11.521 0 0 1-4.679.312 14.685 14.685 0 0 1-5.917-2.319q-.591-.382-1.153-.8a4.619 4.619 0 0 1-.575-.445c-.13-.137-.194-.325-.43-.273a.774.774 0 0 0-.324.191 6.7 6.7 0 0 0-.748.749c-.123.144-.62.64-.564.836.025.086.311.247.386.308q.236.193.477.379.446.345.91.671a19.792 19.792 0 0 0 3.511 1.983 15.038 15.038 0 0 0 5.934 1.272" data-name="Path 329"></path><path fill="#d2d6fc" d="M26.689 22.832c.256-.317.534-.618.758-.959a5.835 5.835 0 0 0 .8-2.85 22.827 22.827 0 0 1 .162-2.975 2.643 2.643 0 0 0 .2.449 4.048 4.048 0 0 0 .521.5 7.182 7.182 0 0 0 1.182.829 7.018 7.018 0 0 0 2.777.874 1.26 1.26 0 0 1 .4.077.981.981 0 0 1 .4.4 2.734 2.734 0 0 1 .44 1.171.913.913 0 0 0 .134.385 5.339 5.339 0 0 1 1.471 1.318 6.272 6.272 0 0 1 .958 2.307c.059.251.11.5.154.756a13.977 13.977 0 0 1-.488 6.728c-.114.346-.176.581-.538.726a1.114 1.114 0 0 1-.854 0 2.569 2.569 0 0 1-.967-1.054 12.573 12.573 0 0 0-3.5-3.265 34.687 34.687 0 0 1-3.895-2.83 2.723 2.723 0 0 1-.777-1.012c-.165-.446.272-1.063.529-1.4.043-.057.088-.114.134-.171" data-name="Path 330"></path><path fill="none" stroke="#6a3ab5" stroke-miterlimit="10" stroke-width=".496" d="M26.689 22.832c.256-.317.534-.618.758-.959a5.835 5.835 0 0 0 .8-2.85 22.827 22.827 0 0 1 .162-2.975 2.643 2.643 0 0 0 .2.449 4.048 4.048 0 0 0 .521.5 7.182 7.182 0 0 0 1.182.829 7.018 7.018 0 0 0 2.777.874 1.26 1.26 0 0 1 .4.077.981.981 0 0 1 .4.4 2.734 2.734 0 0 1 .44 1.171.913.913 0 0 0 .134.385 5.339 5.339 0 0 1 1.471 1.318 6.272 6.272 0 0 1 .958 2.307c.059.251.11.5.154.756a13.977 13.977 0 0 1-.488 6.728c-.114.346-.176.581-.538.726a1.114 1.114 0 0 1-.854 0 2.569 2.569 0 0 1-.967-1.054 12.573 12.573 0 0 0-3.5-3.265 34.687 34.687 0 0 1-3.895-2.83 2.723 2.723 0 0 1-.777-1.012c-.165-.446.272-1.063.529-1.4.044-.062.087-.119.133-.175Z" data-name="Path 331"></path><path fill="#d2d6fc" d="M31.87 6.448a7.187 7.187 0 0 1 3.88 1.927 6.754 6.754 0 0 1 1.069 1.789A5 5 0 0 1 37.4 12.4a4.726 4.726 0 0 0-.013.91 6.379 6.379 0 0 0 .276.82 4.044 4.044 0 0 1-.033 1.97q-.355 1.842-.885 3.643a1.819 1.819 0 0 1-.345.732 1.727 1.727 0 0 1-.7.408 4.417 4.417 0 0 1-1.225.3 5.44 5.44 0 0 1-1.578-.2q-1.028-.24-2.049-.505a4.6 4.6 0 0 1-1.185-.432A3.489 3.489 0 0 1 28.2 17.8a.848.848 0 0 0-.153-.369.832.832 0 0 0-.228-.162 6.512 6.512 0 0 1-3.044-3.752 5.729 5.729 0 0 1 .677-4.738 5.407 5.407 0 0 1 1.9-1.734 6.949 6.949 0 0 1 4.521-.6" data-name="Path 332"></path><path fill="none" stroke="#6a3ab5" stroke-miterlimit="10" stroke-width=".496" d="M31.87 6.448a7.187 7.187 0 0 1 3.88 1.927 6.754 6.754 0 0 1 1.069 1.789A5 5 0 0 1 37.4 12.4a4.726 4.726 0 0 0-.013.91 6.379 6.379 0 0 0 .276.82 4.044 4.044 0 0 1-.033 1.97q-.355 1.842-.885 3.643a1.819 1.819 0 0 1-.345.732 1.727 1.727 0 0 1-.7.408 4.417 4.417 0 0 1-1.225.3 5.44 5.44 0 0 1-1.578-.2q-1.028-.24-2.049-.505a4.6 4.6 0 0 1-1.185-.432A3.489 3.489 0 0 1 28.2 17.8a.848.848 0 0 0-.153-.369.832.832 0 0 0-.228-.162 6.512 6.512 0 0 1-3.044-3.752 5.729 5.729 0 0 1 .677-4.738 5.407 5.407 0 0 1 1.9-1.734 6.949 6.949 0 0 1 4.518-.597Z" data-name="Path 333"></path><path fill="#441090" d="M32.24 5.149a6.13 6.13 0 0 1 .68.17 7.4 7.4 0 0 1 2.547 1.391 4.674 4.674 0 0 1 1.558 2.8c.022.118.155.84-.028.836-.116 0-.368-.582-.425-.669a1.97 1.97 0 0 0-.881-.8c-.247-.089-.31-.032-.49.106a1.654 1.654 0 0 1-.671.275 6.512 6.512 0 0 1-1.58.212c-.433-.013-.73-.17-1.112.091a4.574 4.574 0 0 0-.921.891 9.579 9.579 0 0 0-1.517 2.555 8.461 8.461 0 0 0-.416 1.406c-.07.346-.02.866-.432 1.005a.286.286 0 0 1-.2 0 .321.321 0 0 1-.13-.122c-.359-.524-.426-1.172-1.186-1.286a.849.849 0 0 0-.909.505 1.76 1.76 0 0 0 .042 1.466.692.692 0 0 1-.254-.246c-1.527-2.092-2.4-4.914-1.05-7.334a5.611 5.611 0 0 1 .326-.513 6.559 6.559 0 0 1 2.079-1.986 7.245 7.245 0 0 1 2.7-.816 7.69 7.69 0 0 1 2.271.058" data-name="Path 334"></path><path fill="#d2d6fc" d="M18.349 43.565a1.113 1.113 0 0 1 .673-.313 3.713 3.713 0 0 1 3.1 1.306 1.709 1.709 0 0 1 .48 1.2 9.658 9.658 0 0 1-.166 1.425c-.058.348-.09.7-.122 1.05q-.138 1.573-.206 3.151-.119 2.784-.022 5.573c.06 1.688-.023 3.4 1.04 4.82a5.07 5.07 0 0 1 1.091 1.944c.055.283.056.573.085.861a4.488 4.488 0 0 0 .355 1.362 3.566 3.566 0 0 1 .323.851.57.57 0 0 1-.193.583.5.5 0 0 1-.508-.033 1.911 1.911 0 0 1-.389-.365.206.206 0 0 0-.15-.086c-.078.006-.119.092-.142.165a6.5 6.5 0 0 0-.146 1.679 3.684 3.684 0 0 1-.112.844 1.969 1.969 0 0 1-.279.812.6.6 0 0 1-.205.171.824.824 0 0 1-.66-.1.457.457 0 0 1-.894.111.427.427 0 0 1-.368.1.813.813 0 0 1-.353-.17 1.556 1.556 0 0 1-.6-1.285c0 .038-.127.154-.151.2-.051.089-.058.154-.151.2a.47.47 0 0 1-.443-.044 1.091 1.091 0 0 1-.368-.529 10.4 10.4 0 0 1-.591-3.351 21.041 21.041 0 0 1 .011-3.236 24.528 24.528 0 0 0 .507-2.994c-.029-.932-.2-1.913-.28-2.853-.19-2.091-.415-4.179-.556-6.274-.061-.9-.106-1.8-.128-2.7a13.97 13.97 0 0 1 .244-3.446 1.362 1.362 0 0 1 .273-.628" data-name="Path 335"></path><path fill="none" stroke="#6a3ab5" stroke-miterlimit="10" stroke-width=".496" d="M18.349 43.565a1.113 1.113 0 0 1 .673-.313 3.713 3.713 0 0 1 3.1 1.306 1.709 1.709 0 0 1 .48 1.2 9.658 9.658 0 0 1-.166 1.425c-.058.348-.09.7-.122 1.05q-.138 1.573-.206 3.151-.119 2.784-.022 5.573c.06 1.688-.023 3.4 1.04 4.82a5.07 5.07 0 0 1 1.091 1.944c.055.283.056.573.085.861a4.488 4.488 0 0 0 .355 1.362 3.566 3.566 0 0 1 .323.851.57.57 0 0 1-.193.583.5.5 0 0 1-.508-.033 1.911 1.911 0 0 1-.389-.365.206.206 0 0 0-.15-.086c-.078.006-.119.092-.142.165a6.5 6.5 0 0 0-.146 1.679 3.684 3.684 0 0 1-.112.844 1.969 1.969 0 0 1-.279.812.6.6 0 0 1-.205.171.824.824 0 0 1-.66-.1.457.457 0 0 1-.894.111.427.427 0 0 1-.368.1.813.813 0 0 1-.353-.17 1.556 1.556 0 0 1-.6-1.285c0 .038-.127.154-.151.2-.051.089-.058.154-.151.2a.47.47 0 0 1-.443-.044 1.091 1.091 0 0 1-.368-.529 10.4 10.4 0 0 1-.591-3.351 21.041 21.041 0 0 1 .011-3.236 24.528 24.528 0 0 0 .507-2.994c-.029-.932-.2-1.913-.28-2.853-.19-2.091-.415-4.179-.556-6.274-.061-.9-.106-1.8-.128-2.7a13.97 13.97 0 0 1 .244-3.446 1.362 1.362 0 0 1 .274-.629Z" data-name="Path 336"></path><path fill="#fff" d="M23.688 29.181a11.447 11.447 0 0 1 .5 1.43 16.644 16.644 0 0 1 .136 6.917l-.279 2.3c-.14 1.154-.226 2.315-.328 3.474-.114 1.3-.273 2.6-.3 3.9a.7.7 0 0 1-.031.239.667.667 0 0 1-.337.319 4.545 4.545 0 0 1-4.062-.021 1.385 1.385 0 0 1-.869-.9 41.765 41.765 0 0 1-.3-6.634 39.523 39.523 0 0 1 .475-6.284q.15-.956.345-1.9a10.482 10.482 0 0 1 .439-1.881c.313-1.205 1.013-4.258 2.944-3.013a6.921 6.921 0 0 1 1.3 1.442 2.887 2.887 0 0 1 .367.609" data-name="Path 337"></path><path fill="none" stroke="#6a3ab5" stroke-miterlimit="10" stroke-width=".496" d="M23.688 29.181a11.447 11.447 0 0 1 .5 1.43 16.644 16.644 0 0 1 .136 6.917l-.279 2.3c-.14 1.154-.226 2.315-.328 3.474-.114 1.3-.273 2.6-.3 3.9a.7.7 0 0 1-.031.239.667.667 0 0 1-.337.319 4.545 4.545 0 0 1-4.062-.021 1.385 1.385 0 0 1-.869-.9 41.765 41.765 0 0 1-.3-6.634 39.523 39.523 0 0 1 .475-6.284q.15-.956.345-1.9a10.482 10.482 0 0 1 .439-1.881c.313-1.205 1.013-4.258 2.944-3.013a6.921 6.921 0 0 1 1.3 1.442 2.887 2.887 0 0 1 .367.612Z" data-name="Path 338"></path></g></g></g></g></g></svg>