<svg xmlns="http://www.w3.org/2000/svg" viewBox="-0.02 0 78.02 107"><defs><clipPath id="a"><path fill="none" d="M0-.001h78V107H0z" data-name="Rectangle 5"></path></clipPath></defs><g data-name="Group 8"><g clip-path="url(#a)" data-name="Group 7" transform="translate(0 .001)"><path fill="#fff" d="M33.26 32.024a.757.757 0 0 1-.546-.2 1.558 1.558 0 0 1-.274-.535 13.356 13.356 0 0 0-.916-1.959 4.074 4.074 0 0 0-1.034-1.276c1-.711 2.007-1.451 2.989-2.2a13.249 13.249 0 0 0 2.911-2.83 21.988 21.988 0 0 0 1.408-2.4 31.09 31.09 0 0 1 1.513-2.533 2.417 2.417 0 0 1 .619-.643 4.674 4.674 0 0 1 1.838-.721c.184-.038.407-.08.639-.1l-.039.033a3.113 3.113 0 0 0-.508.575 2.676 2.676 0 0 0-.546 1.658 8.061 8.061 0 0 1-.274 1.736 8.876 8.876 0 0 0-.293 1.884 5.805 5.805 0 0 0 .642 2.887c.07.131.155.285.133.354-.015.051-.109.127-.172.176l-6.45 5.214a4.032 4.032 0 0 1-1.33.835 1.158 1.158 0 0 1-.314.044" data-name="Path 92"></path><path fill="#6a3ab5" d="m41.563 17.1-.028.039a2.892 2.892 0 0 0-.54 1.75 7.829 7.829 0 0 1-.266 1.668 9.168 9.168 0 0 0-.3 1.95 6.142 6.142 0 0 0 .69 3.062c.015.028.036.063.052.1l-.02.015-1.151.925-5.157 4.175-.143.116a3.811 3.811 0 0 1-1.215.774.819.819 0 0 1-.226.032.45.45 0 0 1-.316-.1 1.538 1.538 0 0 1-.221-.463 13.4 13.4 0 0 0-.924-1.967 5.122 5.122 0 0 0-.8-1.094c.9-.645 1.8-1.308 2.673-1.98a13.789 13.789 0 0 0 2.975-2.9 22.409 22.409 0 0 0 1.433-2.437l.047-.089c.4-.76.864-1.528 1.447-2.415a2.111 2.111 0 0 1 .54-.56 4.023 4.023 0 0 1 1.447-.606m1.209-.812a5.266 5.266 0 0 0-1.07.132 5.069 5.069 0 0 0-1.96.774 2.779 2.779 0 0 0-.7.725 30.713 30.713 0 0 0-1.476 2.466 22.628 22.628 0 0 1-1.438 2.457 13.074 13.074 0 0 1-2.84 2.763q-1.662 1.276-3.379 2.479a3.1 3.1 0 0 1 1.342 1.411 12.862 12.862 0 0 1 .88 1.874 1.881 1.881 0 0 0 .36.682 1.061 1.061 0 0 0 .772.293 1.476 1.476 0 0 0 .4-.056 4.86 4.86 0 0 0 1.586-1.01l6.3-5.1a.743.743 0 0 0 .274-.331.813.813 0 0 0-.158-.6 5.562 5.562 0 0 1-.6-2.732c.018-1.232.559-2.418.568-3.622a2.289 2.289 0 0 1 .414-1.378 3.379 3.379 0 0 1 .527-.617c.227-.19.452-.383.678-.573a2.741 2.741 0 0 0-.478-.039" data-name="Path 93"></path><path fill="#ff8380" d="M49.149 92.314c-.219.885-.31 1.793-.462 2.692-.131.769-.307 1.532-.438 2.3a1.65 1.65 0 0 0 .215 1.427 1.537 1.537 0 0 0 1.351.29 5.458 5.458 0 0 0 2.927-1.308 3.954 3.954 0 0 0 1.328-2.864c0-.921-.375-1.817-.342-2.737.015-.431.119-.854.155-1.284a2.393 2.393 0 0 0-.789-2.13 1.77 1.77 0 0 0-1.685-.205 3.32 3.32 0 0 0-1.372 1.364 9.114 9.114 0 0 0-.887 2.455" data-name="Path 94"></path><path fill="#ff8380" d="M36.981 100.319a7.222 7.222 0 0 0-1.206 1.651 3.5 3.5 0 0 0 .225 2.966 2.492 2.492 0 0 0 1.33 1.275 2.149 2.149 0 0 0 1.92-.4 4.392 4.392 0 0 0 1.22-1.611 9.606 9.606 0 0 0 .6-1.554 6.714 6.714 0 0 1 1.295-3.132c.685-.668 1.761-.95 2.2-1.8a3.033 3.033 0 0 0 .064-1.811 2 2 0 0 0-.3-.6 2.124 2.124 0 0 0-1.179-.975 3.97 3.97 0 0 0-1.885.075 2.762 2.762 0 0 0-1.638 1.526 26.966 26.966 0 0 1-1.537 2.863 13.8 13.8 0 0 1-1.1 1.537" data-name="Path 95"></path><path fill="#f2ad90" d="M44.9 71.627a76.032 76.032 0 0 0 .22-8.727 9.6 9.6 0 0 1-2.12.65 3.214 3.214 0 0 1-2.148-.364 18.719 18.719 0 0 1-1.528-1.386 3.911 3.911 0 0 0-1.911-.694 1.361 1.361 0 0 1-1.185-1.048 10.5 10.5 0 0 1-.271 1.986 17.224 17.224 0 0 0-.033 2.1 22.632 22.632 0 0 0 .551 3.731c.015.076.032.151.048.226.616 2.85 1.4 5.641 1.892 8.521-.017.3-.028.6-.055.885q-.2 2.083-.257 4.176a61.855 61.855 0 0 0 .339 8.4q.253 2.336.685 4.65c.1.537.208 1.073.281 1.616a3.356 3.356 0 0 1 .023 1.456 18.63 18.63 0 0 0-.813 3.129c-.047.288-.041.664.231.774a.524.524 0 0 0 .3.011 2.573 2.573 0 0 0 1.306-1c.741-.857 1.558-1.65 2.232-2.559a3.193 3.193 0 0 0 .8-2.424c-.141-.7-.516-1.168-.3-1.883a20.885 20.885 0 0 0 .465-2.428 35.116 35.116 0 0 0 .75-6.977c-.047-1.754-.356-3.5-.248-5.25a22.063 22.063 0 0 1 .667-3.749 1.435 1.435 0 0 1-.164.009q.015-.188.027-.373l.219-3.456" data-name="Path 96"></path><path fill="#f9d3be" d="M53.763 72.831c.128-3.382 2.279-6.574 2.325-10.011a10.282 10.282 0 0 1-2.4.8 3.469 3.469 0 0 1-2.444-.423c-.357-.234-.65-.556-1-.807a2.659 2.659 0 0 0-1.812-.512c-.216.024-.4.086-.588.112-.6.081-1.06.033-1.323.745a3.131 3.131 0 0 0-.091 1.332 63.813 63.813 0 0 0 1.611 10.055l.03.127a2.686 2.686 0 0 0 .047.9c.437 1.91.694 3.883 1.01 5.816q.274 1.667.52 3.337a33.378 33.378 0 0 1 .451 5.1c-.013 1.353-.173 2.708-.053 4.057a.542.542 0 0 0 .061.242c.131.215.459.167.682.049a3.819 3.819 0 0 0 1.522-2.186A43.645 43.645 0 0 0 54.938 79.6a12.485 12.485 0 0 0 .019-2.124 38.555 38.555 0 0 0-1.194-4.647" data-name="Path 97"></path><path fill="#fff" d="M42.164 106.684a36.087 36.087 0 0 1-9.69-1.272 26.752 26.752 0 0 0-.771-.2c-1.622-.423-3.843-1-4.715-2.087-.849-1.057-.447-2.559-.093-3.886.1-.361.191-.711.258-1.038.482-2.374 10.652-51.168 11.528-54.423.175-.659.357-1.315.562-1.964.017-.049.062-.151.118-.274l.069-.156c1.3 2.366 4.073 3.706 7.755 3.706.41 0 .819-.018 1.22-.049l.255-.019a5.053 5.053 0 0 0 2.331-.56 5.179 5.179 0 0 0 1.1-.973 3.446 3.446 0 0 1 .281-.267 1.263 1.263 0 0 0 .584-.929 8.075 8.075 0 0 0-.733-3 16.085 16.085 0 0 1 2.668 2.224 16.554 16.554 0 0 1 2.823 3.957 21.807 21.807 0 0 1 1.579 4.721A90.421 90.421 0 0 1 61.2 62.482a130.267 130.267 0 0 0 2.739 16.8c.062.264.118.545.175.831a5.714 5.714 0 0 0 1.586 3.523 9.012 9.012 0 0 0 3.519 1.436c.28.071.554.139.819.213a15.191 15.191 0 0 1 6.053 3.308 3.963 3.963 0 0 1 1.578 3.314c-.23 2.6-3.428 4.834-4.792 5.675a50.7 50.7 0 0 1-7.116 3.512c-7.393 3.087-13.546 4.8-19.362 5.376a42.82 42.82 0 0 1-4.235.214" data-name="Path 98"></path><path fill="#6a3ab5" d="M52.889 40.15a15.908 15.908 0 0 1 1.774 1.582 16.183 16.183 0 0 1 2.771 3.881 21.681 21.681 0 0 1 1.553 4.654 87.642 87.642 0 0 1 1.9 12.249 130.795 130.795 0 0 0 2.743 16.837c.064.262.118.54.177.822a5.94 5.94 0 0 0 1.693 3.707 9.257 9.257 0 0 0 3.642 1.5c.276.068.548.137.811.209a14.869 14.869 0 0 1 5.926 3.238 3.618 3.618 0 0 1 1.472 3.05c-.217 2.452-3.32 4.618-4.644 5.436a50.654 50.654 0 0 1-7.069 3.488c-7.365 3.076-13.489 4.776-19.273 5.353a42.432 42.432 0 0 1-4.2.212 35.792 35.792 0 0 1-9.607-1.26c-.234-.066-.5-.134-.775-.207-1.49-.388-3.742-.975-4.547-1.977-.75-.933-.385-2.293-.033-3.608.1-.368.192-.724.262-1.056.482-2.372 10.645-51.14 11.523-54.4.154-.572.321-1.18.5-1.772 1.465 2.127 4.182 3.318 7.694 3.318.412 0 .83-.016 1.245-.049l.254-.019a5.307 5.307 0 0 0 2.471-.6 5.423 5.423 0 0 0 1.169-1.038l.08-.086a2.119 2.119 0 0 1 .18-.162 1.555 1.555 0 0 0 .692-1.172 6.961 6.961 0 0 0-.385-2.133m-1.363-1.667a9.678 9.678 0 0 1 1.113 3.806c.005.38-.455.635-.7.895a5.475 5.475 0 0 1-1.112 1 5.348 5.348 0 0 1-2.447.535q-.591.048-1.2.048c-3.217 0-6.577-1.063-7.81-4.259.064.166-.374 1.018-.433 1.205a50.078 50.078 0 0 0-.567 1.977c-.894 3.325-11.143 52.521-11.532 54.442-.325 1.588-1.292 3.7-.1 5.186 1.094 1.361 4.024 1.945 5.647 2.4A36.42 36.42 0 0 0 42.166 107c1.425 0 2.85-.074 4.265-.215a68.575 68.575 0 0 0 19.452-5.4 50.934 50.934 0 0 0 7.16-3.533c3.363-2.077 7.261-5.913 3.26-9.5a15.489 15.489 0 0 0-6.181-3.376c-1.394-.387-3.061-.651-4.224-1.59-1.188-.959-1.315-2.784-1.652-4.183a131.035 131.035 0 0 1-2.729-16.758A89.618 89.618 0 0 0 59.6 50.112a21.815 21.815 0 0 0-1.6-4.788 16.86 16.86 0 0 0-2.88-4.033 16.293 16.293 0 0 0-3.593-2.808" data-name="Path 99"></path><path fill="#441090" d="M57.127 11.42a4.094 4.094 0 1 1-4.095-4.085 4.09 4.09 0 0 1 4.095 4.085" data-name="Path 100"></path><path fill="#573095" d="M55.309 9.956a4.458 4.458 0 1 1-4.458-4.447 4.453 4.453 0 0 1 4.458 4.447" data-name="Path 101"></path><ellipse cx="4.458" cy="4.447" fill="none" stroke="#573095" stroke-miterlimit="10" stroke-width=".586" data-name="Ellipse 1" rx="4.458" ry="4.447" transform="translate(46.393 5.509)"></ellipse><path fill="#fff" d="M44.447 46.185A7.984 7.984 0 0 1 39.808 45a1.889 1.889 0 0 1-.985-1.267 4.011 4.011 0 0 1 .137-1.212 7.748 7.748 0 0 0 .141-.795 21.285 21.285 0 0 0-.036-5.15 16.626 16.626 0 0 0-1.337-4.69 12.814 12.814 0 0 0-.695-1.257 4.846 4.846 0 0 1-1.023-2.985 5.029 5.029 0 0 1 .9-2.015c.163-.257.325-.516.47-.779a11.83 11.83 0 0 0 1.113-3.3l.09-.436c.3-1.479.64-3.156 1.991-3.872a3.129 3.129 0 0 1 1.14-.309 7.125 7.125 0 0 1 .8-.044 15.367 15.367 0 0 1 4.517.937l.668.2a5.032 5.032 0 0 1 .739.25c.451.2.9.418 1.338.639.869.436 1.725.9 2.578 1.364a24.153 24.153 0 0 1 4.43 2.868 3.993 3.993 0 0 1 .98 1.167 1.615 1.615 0 0 1 .141 1.155c-.03.1-.051.117-.3.167a1.516 1.516 0 0 0-.5.17 1.476 1.476 0 0 0-.549.66l-.089.169c-.321.563-.64 1.125-.947 1.7a27.607 27.607 0 0 0-1.634 3.541 11.918 11.918 0 0 0 .2 8.7l.133.3a1.446 1.446 0 0 1 .207 1.065 2.956 2.956 0 0 1-.789 1.427 6.122 6.122 0 0 1-1.627 1.081 17.254 17.254 0 0 1-7.2 1.739Z" data-name="Path 102"></path><path fill="#6a3ab5" d="M42.521 17.209a14.9 14.9 0 0 1 4.417.92l.319.1c.125.039.245.072.365.106a4.8 4.8 0 0 1 .695.233q.669.3 1.325.632c.878.44 1.749.912 2.568 1.359a23.855 23.855 0 0 1 4.37 2.827 3.729 3.729 0 0 1 .906 1.068 1.351 1.351 0 0 1 .138.859l-.074.013a1.822 1.822 0 0 0-.6.21 1.778 1.778 0 0 0-.666.786c-.025.052-.053.1-.084.157a74.79 74.79 0 0 0-.949 1.7 27.908 27.908 0 0 0-1.653 3.58 12.239 12.239 0 0 0 .2 8.928c.046.108.091.208.137.307.187.406.26.582.189.855a2.639 2.639 0 0 1-.705 1.283 5.807 5.807 0 0 1-1.545 1.02 16.927 16.927 0 0 1-7.065 1.706c-.121 0-.241.005-.362.005a7.687 7.687 0 0 1-4.458-1.127c-.573-.394-.818-.694-.849-1.034a3.819 3.819 0 0 1 .131-1.119 8.056 8.056 0 0 0 .145-.825 21.6 21.6 0 0 0-.036-5.228 16.917 16.917 0 0 0-1.362-4.779 13.081 13.081 0 0 0-.711-1.29 4.6 4.6 0 0 1-.978-2.784 4.75 4.75 0 0 1 .856-1.881c.166-.264.333-.527.48-.8a12.153 12.153 0 0 0 1.145-3.385l.09-.436c.286-1.412.61-3.011 1.829-3.657a2.83 2.83 0 0 1 1.028-.275 6.846 6.846 0 0 1 .762-.042m0-.634a7.4 7.4 0 0 0-.833.046 3.512 3.512 0 0 0-1.255.345c-1.627.863-1.9 2.921-2.242 4.523A11.512 11.512 0 0 1 37.11 24.7a8.458 8.458 0 0 0-1.41 2.91c-.192 1.672 1.094 2.991 1.743 4.409a16.321 16.321 0 0 1 1.31 4.6 20.864 20.864 0 0 1 .034 5.074 10.263 10.263 0 0 0-.277 2.068 2.151 2.151 0 0 0 1.121 1.5 8.423 8.423 0 0 0 4.817 1.239c.126 0 .252 0 .377-.005a17.525 17.525 0 0 0 7.332-1.772 6.369 6.369 0 0 0 1.711-1.139 3.288 3.288 0 0 0 .872-1.573c.159-.612-.117-1-.357-1.568a11.594 11.594 0 0 1-.192-8.462 27.717 27.717 0 0 1 1.616-3.5c.3-.568.623-1.129.943-1.688.159-.278.239-.542.525-.713.353-.213.8-.056.941-.52a1.945 1.945 0 0 0-.16-1.385A4.237 4.237 0 0 0 57 22.913 24.1 24.1 0 0 0 52.514 20a87.387 87.387 0 0 0-2.588-1.369 40.62 40.62 0 0 0-1.348-.644 9.393 9.393 0 0 0-1.131-.366 16.73 16.73 0 0 0-4.927-1.049" data-name="Path 103"></path><path fill="#573095" d="M44.923 46.977a14.2 14.2 0 0 1-4.166-.631 15.233 15.233 0 0 1-1.677-.626c-.241-.108-.478-.248-.723-.345a1.225 1.225 0 0 1-.327-.132c-.094-.075-.07-.214-.064-.33a3.966 3.966 0 0 1 .165-.859 7.438 7.438 0 0 1 .374-1.141c.06-.132.166-.215.3-.127s.254.186.4.265c.238.132.482.255.728.369a11.729 11.729 0 0 0 1.785.66 11.586 11.586 0 0 0 4.724.317 14.808 14.808 0 0 0 5.975-2.35q.6-.388 1.164-.816a4.586 4.586 0 0 0 .579-.45c.132-.138.2-.329.436-.276a.781.781 0 0 1 .327.193 6.672 6.672 0 0 1 .755.76c.125.144.628.649.57.845-.025.087-.314.251-.39.313-.159.129-.32.257-.482.383q-.452.35-.919.679a20.028 20.028 0 0 1-3.546 2.009 15.138 15.138 0 0 1-5.992 1.289" data-name="Path 104"></path><path fill="none" stroke="#573095" stroke-miterlimit="10" stroke-width=".586" d="M44.923 46.977a14.2 14.2 0 0 1-4.166-.631 15.233 15.233 0 0 1-1.677-.626c-.241-.108-.478-.248-.723-.345a1.225 1.225 0 0 1-.327-.132c-.094-.075-.07-.214-.064-.33a3.966 3.966 0 0 1 .165-.859 7.438 7.438 0 0 1 .374-1.141c.06-.132.166-.215.3-.127s.254.186.4.265c.238.132.482.255.728.369a11.729 11.729 0 0 0 1.785.66 11.586 11.586 0 0 0 4.724.317 14.808 14.808 0 0 0 5.975-2.35q.6-.388 1.164-.816a4.586 4.586 0 0 0 .579-.45c.132-.138.2-.329.436-.276a.781.781 0 0 1 .327.193 6.672 6.672 0 0 1 .755.76c.125.144.628.649.57.845-.025.087-.314.251-.39.313-.159.129-.32.257-.482.383q-.452.35-.919.679a20.028 20.028 0 0 1-3.546 2.009 15.138 15.138 0 0 1-5.988 1.29Z" data-name="Path 105"></path><path fill="#d2d6fc" d="M50.654 14.5a.824.824 0 0 1 .222-.158 6.37 6.37 0 0 0 2.968-3.67 5.61 5.61 0 0 0-.661-4.635 5.267 5.267 0 0 0-1.847-1.7 6.763 6.763 0 0 0-4.409-.583 7.008 7.008 0 0 0-3.782 1.886A6.626 6.626 0 0 0 42.1 7.388a4.9 4.9 0 0 0-.568 2.187 4.645 4.645 0 0 1 .014.891 6.388 6.388 0 0 1-.271.8 3.975 3.975 0 0 0 .034 1.926q.345 1.8.864 3.564a1.782 1.782 0 0 0 .337.716 1.681 1.681 0 0 0 .686.4 5.528 5.528 0 0 0 .725.212 4.65 4.65 0 0 0-.954.933 6.149 6.149 0 0 0-.934 2.255q-.086.369-.15.74a13.741 13.741 0 0 0-.039 4.423 13.51 13.51 0 0 0 .516 2.158c.111.338.17.569.522.71a1.08 1.08 0 0 0 .833 0 2.508 2.508 0 0 0 .943-1.03 12.285 12.285 0 0 1 3.41-3.195 33.913 33.913 0 0 0 3.8-2.768 2.659 2.659 0 0 0 .757-.99c.16-.436-.266-1.039-.516-1.37a5.32 5.32 0 0 0-.13-.167c-.25-.31-.521-.6-.739-.938a5.717 5.717 0 0 1-.778-2.788c-.02-.322-.024-.65-.027-.98.022-.072.051-.143.067-.215a.828.828 0 0 1 .15-.362" data-name="Path 106"></path><path fill="none" stroke="#6a3ab5" stroke-miterlimit="10" stroke-width=".409" d="M50.654 14.5a.824.824 0 0 1 .222-.158 6.37 6.37 0 0 0 2.968-3.67 5.61 5.61 0 0 0-.661-4.635 5.267 5.267 0 0 0-1.847-1.7 6.763 6.763 0 0 0-4.409-.583 7.008 7.008 0 0 0-3.782 1.886A6.626 6.626 0 0 0 42.1 7.388a4.9 4.9 0 0 0-.568 2.187 4.645 4.645 0 0 1 .014.891 6.388 6.388 0 0 1-.271.8 3.975 3.975 0 0 0 .034 1.926q.345 1.8.864 3.564a1.782 1.782 0 0 0 .337.716 1.681 1.681 0 0 0 .686.4 5.528 5.528 0 0 0 .725.212 4.65 4.65 0 0 0-.954.933 6.149 6.149 0 0 0-.934 2.255q-.086.369-.15.74a13.741 13.741 0 0 0-.039 4.423 13.51 13.51 0 0 0 .516 2.158c.111.338.17.569.522.71a1.08 1.08 0 0 0 .833 0 2.508 2.508 0 0 0 .943-1.03 12.285 12.285 0 0 1 3.41-3.195 33.913 33.913 0 0 0 3.8-2.768 2.659 2.659 0 0 0 .757-.99c.16-.436-.266-1.039-.516-1.37a5.32 5.32 0 0 0-.13-.167c-.25-.31-.521-.6-.739-.938a5.717 5.717 0 0 1-.778-2.788c-.02-.322-.024-.65-.027-.98.022-.072.051-.143.067-.215a.828.828 0 0 1 .152-.362Z" data-name="Path 107"></path><path fill="#6a3ab5" d="M52.3 14.664a1.1 1.1 0 1 1-1.1-1.1 1.1 1.1 0 0 1 1.1 1.1" data-name="Path 108"></path><path fill="#6a3ab5" d="M46.567 2.483a5.555 5.555 0 0 0-.662.166 7.221 7.221 0 0 0-2.485 1.36 4.588 4.588 0 0 0-1.52 2.734c-.02.115-.151.822.027.816.114 0 .361-.568.417-.654a1.911 1.911 0 0 1 .858-.783c.241-.086.3-.032.478.1a1.593 1.593 0 0 0 .654.269 6.2 6.2 0 0 0 1.541.207c.421-.011.711-.166 1.082.089a4.406 4.406 0 0 1 .9.873 9.347 9.347 0 0 1 1.481 2.505 8.368 8.368 0 0 1 .405 1.375c.069.338.019.848.422.983a.271.271 0 0 0 .194 0 .307.307 0 0 0 .126-.119c.352-.512.415-1.146 1.156-1.257a.828.828 0 0 1 .888.494 1.73 1.73 0 0 1-.042 1.435.686.686 0 0 0 .248-.242c1.489-2.045 2.339-4.807 1.024-7.174a5.845 5.845 0 0 0-.318-.5 6.43 6.43 0 0 0-2.028-1.943 7.032 7.032 0 0 0-2.631-.8 7.492 7.492 0 0 0-2.214.057" data-name="Path 109"></path><path fill="#381077" d="M52.585 7.563a2.011 2.011 0 0 1 .3-1.144c.316-.475.886-.746 1.171-1.241a1.377 1.377 0 0 1 .635 1.053 1.267 1.267 0 0 1-.024.54 2.193 2.193 0 0 1-.26.5 4.251 4.251 0 0 0-.356.739 3.172 3.172 0 0 1-.232.568.628.628 0 0 1-.974.208c-.258-.257-.253-.892-.257-1.22" data-name="Path 110"></path><path fill="#381077" d="M52.017 8.257a1.17 1.17 0 0 0-.4.027 1.026 1.026 0 0 0-.4.26 4.835 4.835 0 0 0-.637.815.275.275 0 0 0-.069.236.243.243 0 0 0 .114.114 1.359 1.359 0 0 0 .769.12 5.465 5.465 0 0 1 .786-.052 1.607 1.607 0 0 0 .753-.008.929.929 0 0 0 .393-.409.731.731 0 0 0 .131-.409c-.05-.635-.994-.668-1.438-.693" data-name="Path 111"></path><path fill="#381077" d="M53.952 9.938a.944.944 0 0 0 .49.278c.1.01.194-.009.291 0 .158.019.3.119.455.139a2.069 2.069 0 0 0 .293-.008.828.828 0 0 1 .785.6 2.921 2.921 0 0 0 .067.3.287.287 0 0 0 .212.2.317.317 0 0 0 .257-.123 1.192 1.192 0 0 0 .277-.646 1.855 1.855 0 0 0-.8-1.826 2.6 2.6 0 0 0-.866-.308 1.945 1.945 0 0 0-1.088.02.93.93 0 0 0-.565.643.582.582 0 0 0 .189.738" data-name="Path 112"></path><path fill="#542c7f" d="M52.313 9.381a1.369 1.369 0 0 0 .055.509c.075.217.185.421.266.636a4.045 4.045 0 0 1 .213 1.324c.01.369-.03.691.436.6.137-.025.178.06.293.079.135.024.264-.09.357-.175a1.987 1.987 0 0 0 .568-.782 2.333 2.333 0 0 0 .1-.807A3.027 3.027 0 0 0 54.45 9.7a1.328 1.328 0 0 0-.708-.781 1.644 1.644 0 0 0-.512-.1c-.136-.009-.258-.053-.389-.067-.363-.041-.5.29-.529.625" data-name="Path 113"></path><path fill="none" stroke="#542c7f" stroke-miterlimit="10" stroke-width=".637" d="M52.313 9.381a1.369 1.369 0 0 0 .055.509c.075.217.185.421.266.636a4.045 4.045 0 0 1 .213 1.324c.01.369-.03.691.436.6.137-.025.178.06.293.079.135.024.264-.09.357-.175a1.987 1.987 0 0 0 .568-.782 2.333 2.333 0 0 0 .1-.807A3.027 3.027 0 0 0 54.45 9.7a1.328 1.328 0 0 0-.708-.781 1.644 1.644 0 0 0-.512-.1c-.136-.009-.258-.053-.389-.067-.362-.037-.503.294-.528.629Z" data-name="Path 114"></path><path fill="#542c7f" d="M52.1 8.355c-.075-.3-.041-.615-.1-.918a1.58 1.58 0 0 0-1.149-1.207.5.5 0 0 1 .332-.4 1.6 1.6 0 0 1 1.466.11 2.305 2.305 0 0 1 .938 1.17 2.033 2.033 0 0 1 .127 1.141 2.593 2.593 0 0 1-.5.975c-.179.245-.48-.016-.668-.169a1.326 1.326 0 0 1-.451-.7" data-name="Path 115"></path><path fill="none" stroke="#542c7f" stroke-miterlimit="10" stroke-width=".637" d="M52.1 8.355c-.075-.3-.041-.615-.1-.918a1.58 1.58 0 0 0-1.149-1.207.5.5 0 0 1 .332-.4 1.6 1.6 0 0 1 1.466.11 2.305 2.305 0 0 1 .938 1.17 2.033 2.033 0 0 1 .127 1.141 2.593 2.593 0 0 1-.5.975c-.179.245-.48-.016-.668-.169a1.326 1.326 0 0 1-.446-.702Z" data-name="Path 116"></path><path fill="#6b3bb6" d="M54.739 6.928a3.4 3.4 0 0 0-1.184.931 2.632 2.632 0 0 0-.607 1.119c-.042.2-.056.327.109.458a.952.952 0 0 0 .621.176 1.764 1.764 0 0 0 .634-.169A2.894 2.894 0 0 0 55.6 8.282c.142-.245.264-.539.539-.66.17-.075.545-.086.592-.319s-.307-.387-.466-.451a2 2 0 0 0-1.526.077" data-name="Path 117"></path><path fill="none" stroke="#6b3bb6" stroke-miterlimit="10" stroke-width=".637" d="M54.739 6.928a3.4 3.4 0 0 0-1.184.931 2.632 2.632 0 0 0-.607 1.119c-.042.2-.056.327.109.458a.952.952 0 0 0 .621.176 1.764 1.764 0 0 0 .634-.169A2.894 2.894 0 0 0 55.6 8.282c.142-.245.264-.539.539-.66.17-.075.545-.086.592-.319s-.307-.387-.466-.451a2 2 0 0 0-1.526.076Z" data-name="Path 118"></path><path fill="#fff" d="M52.839 7.846a.276.276 0 0 1-.276-.4.484.484 0 0 1 .146.189c.071-.023.061-.175.135-.16.037.009.044.057.044.094v.819a2.971 2.971 0 0 0 .1.935 3.581 3.581 0 0 1-.155-.574c-.013-.085-.09-.9.009-.907" data-name="Path 119"></path><path fill="#fff" d="M53.076 7.4c.032.061.13.023.164-.035s.055-.134.117-.163c.079-.037.174.046.177.133a.282.282 0 0 1-.128.218.441.441 0 0 0-.141.128.3.3 0 0 0-.029.11c-.019.185 0 .374-.027.559-.02.167-.055.337-.084.5s-.144.3-.182.451a5.439 5.439 0 0 0 .144-1.155c.005-.218.094-.547-.01-.749" data-name="Path 120"></path><path fill="#fff" d="M53.617 8.44a.942.942 0 0 0 .183-.265c.064-.165.037-.4.235-.477a.147.147 0 0 1 .174.037.125.125 0 0 1 0 .123.27.27 0 0 1-.084.094c-.074.057-.2.082-.252.157s-.067.165-.131.241l-.564.683a1.059 1.059 0 0 1-.225.227 3.519 3.519 0 0 1 .661-.82" data-name="Path 121"></path><path fill="#fff" d="M53.4 9.172a.611.611 0 0 1 .421.081.258.258 0 0 1 .142.213 1.264 1.264 0 0 1-.047.16c-.013.054.006.125.062.134s.1-.046.114-.1a.146.146 0 0 0-.013-.148c-.014-.015-.034-.025-.046-.043-.027-.041 0-.1-.02-.142a.1.1 0 0 0-.037-.035 1.142 1.142 0 0 0-.3-.167.551.551 0 0 0-.338-.018c-.132.039-.244.118-.38.15a2.1 2.1 0 0 0 .441-.085" data-name="Path 122"></path><path fill="#fff" d="M53.684 8.733c.028-.011.056-.022.085-.03.1-.034.2-.058.3-.1a.609.609 0 0 0 .187-.117c.05-.048.078-.117.135-.157s.131-.033.152.023a.1.1 0 0 1-.044.112.6.6 0 0 1-.116.054 1.851 1.851 0 0 0-.169.112 2.335 2.335 0 0 1-.556.166 1.239 1.239 0 0 0-.354.194 3.926 3.926 0 0 0-.161.128 1.077 1.077 0 0 0-.143.127 1.648 1.648 0 0 1 .685-.512" data-name="Path 123"></path><path fill="#d2d6fc" d="m27.783 29.863 1.517-1.288c.788-.667 1.622-1.389 2.73-1.108a3.324 3.324 0 0 1 2.655 3.285 1.971 1.971 0 0 1-.591 1.285 5.066 5.066 0 0 1-.911.621 10.058 10.058 0 0 1-2.054.781c-.746.209-1.5.388-2.255.566a8.41 8.41 0 0 1-1.24.231c-.435.038-.44-.169-.5-.56a2.248 2.248 0 0 0-.985-1.365c-.246-.186-.55-.447-.353-.763a5.756 5.756 0 0 1 1.147-.98l.833-.706" data-name="Path 124"></path><path fill="none" stroke="#6a3ab5" stroke-miterlimit="10" stroke-width=".409" d="m27.783 29.863 1.517-1.288c.788-.667 1.622-1.389 2.73-1.108a3.324 3.324 0 0 1 2.655 3.285 1.971 1.971 0 0 1-.591 1.285 5.066 5.066 0 0 1-.911.621 10.058 10.058 0 0 1-2.054.781c-.746.209-1.5.388-2.255.566a8.41 8.41 0 0 1-1.24.231c-.435.038-.44-.169-.5-.56a2.248 2.248 0 0 0-.985-1.365c-.246-.186-.55-.447-.353-.763a5.756 5.756 0 0 1 1.147-.98Z" data-name="Path 125"></path><path fill="#f2ad90" d="M27.592 34.719a.992.992 0 0 0 .263-.89 1.5 1.5 0 0 1-.136-.411.939.939 0 0 1 .074-.29 1.25 1.25 0 0 0-.014-.809 1.55 1.55 0 0 0-.877-.855 3.572 3.572 0 0 0-2.311.011 1.589 1.589 0 0 0-.814.7 1.08 1.08 0 0 0 0 1.047c.17.28.49.465.592.777a2.292 2.292 0 0 1 .061.408 1.381 1.381 0 0 0 .8 1.048 1.711 1.711 0 0 0 1.237-.057 2.021 2.021 0 0 0 1.119-.678" data-name="Path 126"></path><path fill="#f9d3be" d="M24.881 32.7a1.4 1.4 0 0 0-.127.4.356.356 0 0 0 .166.356.405.405 0 0 0 .415-.094c.333-.275.424-.76.743-1.051.2-.186.487-.256.69-.436.147-.131.079-.442-.009-.593a1.049 1.049 0 0 0-.766-.376.884.884 0 0 0-.623.133.844.844 0 0 0-.306.675 2.6 2.6 0 0 1-.184.99" data-name="Path 127"></path><path fill="#fff" d="M57.407 44.309a3.612 3.612 0 0 1-1.729-.421c-.136-.074-.174-.118-.184-.143l-.011-.133c-.017-.962-.111-1.943-.2-2.891l-.155-1.731c-.075-.876-.147-1.75-.253-2.621l-.275-2.252a16.214 16.214 0 0 1 .122-6.636l.058-.191a9.131 9.131 0 0 1 .413-1.167 2.593 2.593 0 0 1 .318-.53c.086-.106.177-.224.271-.349a4.451 4.451 0 0 1 .921-1 1.272 1.272 0 0 1 .661-.234c.962 0 1.475 2 1.695 2.86l.034.136a6.446 6.446 0 0 1 .333 1.327c.029.171.06.338.091.5.125.611.239 1.225.334 1.843a38.578 38.578 0 0 1 .459 6.1v1a33.108 33.108 0 0 1-.291 5.441c-.041.233-.264.45-.672.646a4.506 4.506 0 0 1-1.937.447Z" data-name="Path 128"></path><path fill="#6a3ab5" d="M57.364 24.331c.715 0 1.22 1.974 1.387 2.623l.034.134.01.044.018.043a5.929 5.929 0 0 1 .3 1.213c.032.175.061.346.1.511.125.6.236 1.218.33 1.829a37.966 37.966 0 0 1 .456 6.046v1a32.806 32.806 0 0 1-.287 5.387c-.014.091-.152.247-.5.412a4.193 4.193 0 0 1-1.8.417 3.3 3.3 0 0 1-1.578-.381l-.029-.016c-.018-.976-.112-1.961-.2-2.912-.03-.31-.06-.622-.086-.933L55.445 39c-.074-.873-.149-1.776-.258-2.665l-.138-1.158-.132-1.094a15.963 15.963 0 0 1 .108-6.5l.056-.182a9.011 9.011 0 0 1 .4-1.137 2.159 2.159 0 0 1 .276-.463c.089-.11.182-.232.278-.359a4.177 4.177 0 0 1 .84-.92.97.97 0 0 1 .488-.184m0-.634a1.543 1.543 0 0 0-.833.286 6.737 6.737 0 0 0-1.267 1.411 2.845 2.845 0 0 0-.36.6 11.635 11.635 0 0 0-.487 1.4 16.352 16.352 0 0 0-.132 6.767l.272 2.251c.136 1.13.221 2.265.32 3.4.111 1.269.266 2.549.288 3.817a.713.713 0 0 0 .029.233.655.655 0 0 0 .328.312 3.934 3.934 0 0 0 1.884.46 4.846 4.846 0 0 0 2.076-.479 1.354 1.354 0 0 0 .847-.88 41 41 0 0 0 .3-6.49 38.733 38.733 0 0 0-.464-6.146c-.1-.622-.208-1.242-.337-1.859a10.126 10.126 0 0 0-.427-1.857c-.254-.985-.774-3.233-2.037-3.233" data-name="Path 129"></path><path fill="#d2d6fc" d="M60.194 42.957a1.072 1.072 0 0 0-.415-.592 3.618 3.618 0 0 0-3.26-.4 1.68 1.68 0 0 0-.994.784 9.485 9.485 0 0 0-.559 1.288c-.121.322-.266.636-.412.948q-.654 1.4-1.37 2.77-1.263 2.418-2.714 4.732c-.878 1.4-1.648 2.893-3.241 3.578a4.979 4.979 0 0 0-1.874 1.117c-.185.213-.329.459-.493.688a4.437 4.437 0 0 1-.968.981 3.535 3.535 0 0 0-.69.564.554.554 0 0 0-.122.587.488.488 0 0 0 .446.219 1.868 1.868 0 0 0 .507-.119.2.2 0 0 1 .169 0c.062.042.056.136.039.209a6.406 6.406 0 0 1-.7 1.493 3.6 3.6 0 0 0-.319.769 1.916 1.916 0 0 0-.161.824.553.553 0 0 0 .089.243.791.791 0 0 0 .6.241.445.445 0 0 0 .7.528.415.415 0 0 0 .263.264.807.807 0 0 0 .381.028 1.531 1.531 0 0 0 1.137-.8c-.017.032.032.193.032.24 0 .1-.027.158.027.246a.46.46 0 0 0 .4.179 1.063 1.063 0 0 0 .569-.27 10.22 10.22 0 0 0 2.139-2.551A20.68 20.68 0 0 0 50.982 59a24.042 24.042 0 0 1 1.038-2.783c.483-.776 1.1-1.527 1.636-2.281 1.185-1.679 2.4-3.339 3.543-5.045a59.81 59.81 0 0 0 1.433-2.228 13.739 13.739 0 0 0 1.484-3.038 1.346 1.346 0 0 0 .077-.665" data-name="Path 130"></path><path fill="none" stroke="#6a3ab5" stroke-miterlimit="10" stroke-width=".409" d="M60.194 42.957a1.072 1.072 0 0 0-.415-.592 3.618 3.618 0 0 0-3.26-.4 1.68 1.68 0 0 0-.994.784 9.485 9.485 0 0 0-.559 1.288c-.121.322-.266.636-.412.948q-.654 1.4-1.37 2.77-1.263 2.418-2.714 4.732c-.878 1.4-1.648 2.893-3.241 3.578a4.979 4.979 0 0 0-1.874 1.117c-.185.213-.329.459-.493.688a4.437 4.437 0 0 1-.968.981 3.535 3.535 0 0 0-.69.564.554.554 0 0 0-.122.587.488.488 0 0 0 .446.219 1.868 1.868 0 0 0 .507-.119.2.2 0 0 1 .169 0c.062.042.056.136.039.209a6.406 6.406 0 0 1-.7 1.493 3.6 3.6 0 0 0-.319.769 1.916 1.916 0 0 0-.161.824.553.553 0 0 0 .089.243.791.791 0 0 0 .6.241.445.445 0 0 0 .7.528.415.415 0 0 0 .263.264.807.807 0 0 0 .381.028 1.531 1.531 0 0 0 1.137-.8c-.017.032.032.193.032.24 0 .1-.027.158.027.246a.46.46 0 0 0 .4.179 1.063 1.063 0 0 0 .569-.27 10.22 10.22 0 0 0 2.139-2.551A20.68 20.68 0 0 0 50.982 59a24.042 24.042 0 0 1 1.038-2.783c.483-.776 1.1-1.527 1.636-2.281 1.185-1.679 2.4-3.339 3.543-5.045a59.81 59.81 0 0 0 1.433-2.228 13.739 13.739 0 0 0 1.484-3.038 1.346 1.346 0 0 0 .078-.668Z" data-name="Path 131"></path><path fill="#6a3ab4" d="M1.638 23.666a43.353 43.353 0 0 0-.78 6.513c-.107 1-.264 2-.437 2.99a2.4 2.4 0 0 0 .249 2.023 1.952 1.952 0 0 0 .786.479 5.829 5.829 0 0 0 2.889.313 1.621 1.621 0 0 0 .842-.316 1.837 1.837 0 0 0 .484-1.105c.432-2.351.637-4.744 1.188-7.069a9.524 9.524 0 0 0 .318-1.7 14.257 14.257 0 0 0-.295-2.541c-.069-.542-.088-1.089-.132-1.634a7.386 7.386 0 0 1-.126-1.3A2.919 2.919 0 0 1 7.7 18.126a13.075 13.075 0 0 0-3.016 1.108 6.85 6.85 0 0 0-3.049 4.432" data-name="Path 132"></path><path fill="none" stroke="#6a3ab4" stroke-miterlimit="10" stroke-width=".637" d="M1.638 23.666a43.353 43.353 0 0 0-.78 6.513c-.107 1-.264 2-.437 2.99a2.4 2.4 0 0 0 .249 2.023 1.952 1.952 0 0 0 .786.479 5.829 5.829 0 0 0 2.889.313 1.621 1.621 0 0 0 .842-.316 1.837 1.837 0 0 0 .484-1.105c.432-2.351.637-4.744 1.188-7.069a9.524 9.524 0 0 0 .318-1.7 14.257 14.257 0 0 0-.295-2.541c-.069-.542-.088-1.089-.132-1.634a7.386 7.386 0 0 1-.126-1.3A2.919 2.919 0 0 1 7.7 18.126a13.075 13.075 0 0 0-3.016 1.108 6.85 6.85 0 0 0-3.046 4.432Z" data-name="Path 133"></path><path fill="#381077" d="m14.246 92.851-.554 4.139-.4.341-.535-.113-.324-3.635Z" data-name="Path 134"></path><path fill="#381077" d="M13.891 91.489c-.155.275-.276.189-.465-.013a2.116 2.116 0 0 0-.414-.321 2.361 2.361 0 0 0-.98-.351c-1.649-.194-3.024 1.573-3.8 2.8-1.279 2.012-2.48 4.223-2.5 6.661-.005.5-.17 1.66.39 1.949.32.165.959-.137 1.267-.275A6.823 6.823 0 0 0 8.6 101.2a8.769 8.769 0 0 0 2.4-2.53 12.531 12.531 0 0 0 .8-1.711 3.483 3.483 0 0 1 1.16-1.46 5.308 5.308 0 0 0 .947-.746 2.767 2.767 0 0 0 .527-1.025 3.572 3.572 0 0 0-.062-2.271 2.124 2.124 0 0 0-.141-.291c-.028-.048-.178-.2-.175-.25a1.3 1.3 0 0 1-.165.577" data-name="Path 135"></path><path fill="#6a3ab5" d="M12.172 89.371c-1.649-.194-3.022 1.573-3.8 2.8-1.281 2.012-2.48 4.223-2.5 6.661-.005.5-.17 1.66.39 1.95.32.165.959-.137 1.267-.276a6.823 6.823 0 0 0 1.22-.739 8.752 8.752 0 0 0 2.4-2.53 12.168 12.168 0 0 0 .8-1.711 1.194 1.194 0 0 1 .525-.692 6.982 6.982 0 0 0 .933-.675 2.936 2.936 0 0 0 .958-1.749 2.785 2.785 0 0 0-.435-1.942 2.51 2.51 0 0 0-1.749-1.094" data-name="Path 136"></path><path fill="#d2d6fc" d="M14.264 74.139c.083-.528.174-1.061.246-1.6a38.613 38.613 0 0 0 .151-5.647c-.029-1.947-.015-3.9-.238-5.835a3.73 3.73 0 0 1-2.6 1.9 3.747 3.747 0 0 1-2.488-1.206 6.505 6.505 0 0 0-1.4-1.025c-.473-.231-1.032-.2-1.49-.474-.262-.156-1-1.04-.908-1.374a7.355 7.355 0 0 0-.2 2.051c0 .243.01.487.022.73a49.478 49.478 0 0 0 1.5 8.985c.428 1.852.836 7.786.959 8.864.211 1.838.3 3.69.668 5.505a24.981 24.981 0 0 1 .581 4.016 5.669 5.669 0 0 1-.255 2.571 8.215 8.215 0 0 0-.856 2.5.971.971 0 0 0 .222.912.913.913 0 0 0 .794.081 5.208 5.208 0 0 0 1.951-1.136 8.467 8.467 0 0 0 1.636-1.7 4.276 4.276 0 0 0 .659-1.492 4.2 4.2 0 0 0-.089-1.617 7.854 7.854 0 0 1 .066-2.516 47.368 47.368 0 0 0 1.138-5.574 18.275 18.275 0 0 0-.238-3.432 11.909 11.909 0 0 1 .166-3.479" data-name="Path 137"></path><path fill="none" stroke="#6a3ab5" stroke-miterlimit="10" stroke-width=".409" d="M14.264 74.139c.083-.528.174-1.061.246-1.6a38.613 38.613 0 0 0 .151-5.647c-.029-1.947-.015-3.9-.238-5.835a3.73 3.73 0 0 1-2.6 1.9 3.747 3.747 0 0 1-2.488-1.206 6.505 6.505 0 0 0-1.4-1.025c-.473-.231-1.032-.2-1.49-.474-.262-.156-1-1.04-.908-1.374a7.355 7.355 0 0 0-.2 2.051c0 .243.01.487.022.73a49.478 49.478 0 0 0 1.5 8.985c.428 1.852.836 7.786.959 8.864.211 1.838.3 3.69.668 5.505a24.981 24.981 0 0 1 .581 4.016 5.669 5.669 0 0 1-.255 2.571 8.215 8.215 0 0 0-.856 2.5.971.971 0 0 0 .222.912.913.913 0 0 0 .794.081 5.208 5.208 0 0 0 1.951-1.136 8.467 8.467 0 0 0 1.636-1.7 4.276 4.276 0 0 0 .659-1.492 4.2 4.2 0 0 0-.089-1.617 7.854 7.854 0 0 1 .066-2.516 47.368 47.368 0 0 0 1.138-5.574 18.275 18.275 0 0 0-.238-3.432 11.909 11.909 0 0 1 .169-3.487Z" data-name="Path 138"></path><path fill="#6a3ab4" d="M28.292 22.6a10.55 10.55 0 0 1 .682 2.557 33.109 33.109 0 0 1 .277 5.963 41.066 41.066 0 0 0 0 2.328c.015 1.046.038 2.094-.02 3.139a4.655 4.655 0 0 1-.471 2.514c-.483.579-1.652.559-2.341.479a4.728 4.728 0 0 1-1.221-.313c-.16-.066-1.038-.414-1.047-.6l-.251-5.275a23.324 23.324 0 0 1 .2-5.742c.18-.892.465-1.76.713-2.636a31.9 31.9 0 0 0 .722-3.195 4.724 4.724 0 0 0 .121-.928c0-.175.061-.346.044-.52a2.549 2.549 0 0 0-.168-.644 4.865 4.865 0 0 1 2.443 2.227 6.834 6.834 0 0 1 .315.643" data-name="Path 139"></path><path fill="none" stroke="#6a3ab4" stroke-miterlimit="10" stroke-width=".637" d="M28.292 22.6a10.55 10.55 0 0 1 .682 2.557 33.109 33.109 0 0 1 .277 5.963 41.066 41.066 0 0 0 0 2.328c.015 1.046.038 2.094-.02 3.139a4.655 4.655 0 0 1-.471 2.514c-.483.579-1.652.559-2.341.479a4.728 4.728 0 0 1-1.221-.313c-.16-.066-1.038-.414-1.047-.6l-.251-5.275a23.324 23.324 0 0 1 .2-5.742c.18-.892.465-1.76.713-2.636a31.9 31.9 0 0 0 .722-3.195 4.724 4.724 0 0 0 .121-.928c0-.175.061-.346.044-.52a2.549 2.549 0 0 0-.168-.644 4.865 4.865 0 0 1 2.443 2.227 6.834 6.834 0 0 1 .317.646Z" data-name="Path 140"></path><path fill="#381077" d="m16.952 86.717.523 4.126.4.341.535-.113.324-3.633Z" data-name="Path 141"></path><path fill="#381077" d="M19.926 85.283c-.227-.041-.475-.087-.705-.105-.29-.023-.572.08-.865.044-.774-.1-.748-1.128-.643-1.677a4.85 4.85 0 0 0-.774 3.064 8.284 8.284 0 0 0 .412 1.426 6.775 6.775 0 0 1 .328 1.907 14.719 14.719 0 0 0 .128 2.256 7.011 7.011 0 0 0 .436 1.618 9.625 9.625 0 0 0 .671 1.321 11.874 11.874 0 0 0 2.26 2.8.915.915 0 0 0 .753.318c.3-.068.456-.4.563-.693a16.887 16.887 0 0 0 .792-2.677c.066-.355.155-.686.188-1.048.037-.417.06-.834.062-1.253a9.322 9.322 0 0 0-.292-2.473l-.067.193a.118.118 0 0 1-.055.076.1.1 0 0 1-.094-.025.934.934 0 0 1-.243-.445c-.08-.2-.168-.4-.259-.6a19.619 19.619 0 0 0-.591-1.144c-.422-.763-.875-1.511-1.268-2.289a1.139 1.139 0 0 0-.325-.452 1.017 1.017 0 0 0-.412-.143" data-name="Path 142"></path><path fill="#6a3ab5" d="M19.926 83.686c-.227-.041-.475-.087-.705-.105-.29-.023-.572.08-.865.044-.084-.011-.551-.181-.4-.373a4.1 4.1 0 0 0-.875 2.7c.038 1.043.541 2 .663 3.026.064.534-.018 1.081.061 1.622a7.011 7.011 0 0 0 .436 1.618 9.538 9.538 0 0 0 .671 1.319 11.855 11.855 0 0 0 2.26 2.8.915.915 0 0 0 .753.318c.3-.068.456-.4.563-.693a16.887 16.887 0 0 0 .792-2.677 10.189 10.189 0 0 0-.014-3.162C23 88 21.63 86.2 20.663 84.281a1.139 1.139 0 0 0-.325-.452 1.017 1.017 0 0 0-.412-.143" data-name="Path 143"></path><path fill="#d2d6fc" d="M22.761 68.119a39.373 39.373 0 0 1 .489-4.211 49.241 49.241 0 0 0 .394-5.638 3.919 3.919 0 0 1-5.265 2.35 3.548 3.548 0 0 0-1.006-.38h-.081c-.274.005-.522.158-.79.1a3.313 3.313 0 0 1-1.455-1.28 52.175 52.175 0 0 0 1.011 5.558 31.4 31.4 0 0 1 .912 5.2c.056.919-.062 1.846.01 2.773.158 2.009.525 3.995.692 6a29.267 29.267 0 0 1 .041 4.248 12.924 12.924 0 0 0-.145 1.514 6.848 6.848 0 0 0 .351 1.623c.344 1.073.847 2.086 1.251 3.137a6.728 6.728 0 0 0 1.145 2.258 1.121 1.121 0 0 0 1 .436c.471-.1.691-.646.755-1.123a7.375 7.375 0 0 0-.127-2.271c-.128-.719-.21-1.484-.4-2.187a14.344 14.344 0 0 1-.329-4.536c.164-2.4 1-4.7 1.412-7.077a20.114 20.114 0 0 0 .18-5.523 8.2 8.2 0 0 1-.043-.969" data-name="Path 144"></path><path fill="none" stroke="#6a3ab5" stroke-miterlimit="10" stroke-width=".409" d="M22.761 68.119a39.373 39.373 0 0 1 .489-4.211 49.241 49.241 0 0 0 .394-5.638 3.919 3.919 0 0 1-5.265 2.35 3.548 3.548 0 0 0-1.006-.38h-.081c-.274.005-.522.158-.79.1a3.313 3.313 0 0 1-1.455-1.28 52.175 52.175 0 0 0 1.011 5.558 31.4 31.4 0 0 1 .912 5.2c.056.919-.062 1.846.01 2.773.158 2.009.525 3.995.692 6a29.267 29.267 0 0 1 .041 4.248 12.924 12.924 0 0 0-.145 1.514 6.848 6.848 0 0 0 .351 1.623c.344 1.073.847 2.086 1.251 3.137a6.728 6.728 0 0 0 1.145 2.258 1.121 1.121 0 0 0 1 .436c.471-.1.691-.646.755-1.123a7.375 7.375 0 0 0-.127-2.271c-.128-.719-.21-1.484-.4-2.187a14.344 14.344 0 0 1-.329-4.536c.164-2.4 1-4.7 1.412-7.077a20.114 20.114 0 0 0 .18-5.523 8.2 8.2 0 0 1-.045-.971Z" data-name="Path 145"></path><path fill="#6035a4" d="M9.3 69.038c-1.746 0-2.794-.413-3.116-1.228a4.456 4.456 0 0 1-.138-1.348A7.456 7.456 0 0 0 6 65.578a63.415 63.415 0 0 0-.422-2.707 56.922 56.922 0 0 1-.451-10.82 48.987 48.987 0 0 1 .95-8.752c.385-1.881.95-3.8 1.5-5.65.183-.622.367-1.244.544-1.865.446.664 1.469 1.355 3.541 1.929a17.85 17.85 0 0 0 4.71.781c.137 0 .272 0 .409-.006a8.4 8.4 0 0 0 3.4-.849l.221-.1a2.266 2.266 0 0 0 .913-.6 2.736 2.736 0 0 0 .413-1.535c2.306 4.949 2.944 10.689 3.258 15.688a49.243 49.243 0 0 0 .637 6.9l.125.9a7.521 7.521 0 0 0 .244 1.03 3.72 3.72 0 0 1 .224 1.731 1.258 1.258 0 0 1-.224.422 14.3 14.3 0 0 1-5.768 4.252 27.189 27.189 0 0 1-8.254 2.505l-.212.027a20.337 20.337 0 0 1-2.458.189" data-name="Path 146"></path><path fill="#6035a4" d="M8.252 36.39A7.835 7.835 0 0 0 11.583 38a18.141 18.141 0 0 0 4.787.792c.141 0 .281 0 .421-.008a8.722 8.722 0 0 0 3.523-.88c.064-.032.135-.063.21-.1a2.479 2.479 0 0 0 1.029-.7 2.2 2.2 0 0 0 .319-.663c1.945 4.636 2.514 9.761 2.822 14.625a50.281 50.281 0 0 0 .639 6.954l.125.9a7.829 7.829 0 0 0 .253 1.07 3.463 3.463 0 0 1 .22 1.587 1.068 1.068 0 0 1-.178.318 14.05 14.05 0 0 1-5.653 4.157 26.9 26.9 0 0 1-8.165 2.48l-.212.027a20.125 20.125 0 0 1-2.423.188c-1.614 0-2.57-.351-2.843-1.044a4.342 4.342 0 0 1-.118-1.247 8.169 8.169 0 0 0-.042-.914 67.816 67.816 0 0 0-.424-2.72 56.965 56.965 0 0 1-.448-10.765 49 49 0 0 1 .944-8.7c.382-1.868.945-3.775 1.49-5.621.132-.45.266-.9.4-1.348m12.7-3.164a7.394 7.394 0 0 1 .462 1.857 2.568 2.568 0 0 1-.332 1.678 2.89 2.89 0 0 1-1.029.617 8.056 8.056 0 0 1-3.283.817c-.132.005-.264.008-.4.008a17.439 17.439 0 0 1-4.63-.771c-1.089-.3-4.029-1.212-3.57-2.922-.776 2.895-1.78 5.813-2.378 8.732a49.7 49.7 0 0 0-.955 8.8A57.151 57.151 0 0 0 5.3 62.916c.154.9.3 1.795.421 2.7a11.5 11.5 0 0 0 .2 2.3c.447 1.134 1.927 1.414 3.39 1.414a22.517 22.517 0 0 0 2.7-.217 27.774 27.774 0 0 0 8.343-2.531 14.39 14.39 0 0 0 5.884-4.348 1.523 1.523 0 0 0 .272-.527c.208-.919-.339-1.953-.464-2.865a56.75 56.75 0 0 1-.76-7.774C24.928 45.5 24.219 39.7 21.7 34.664q-.364-.724-.751-1.438" data-name="Path 147"></path><path fill="#573095" d="M6.88 18.242a2.276 2.276 0 0 0-1.591 1.473 18.3 18.3 0 0 0 .366 7.973c.342 1.449.994 2.763 1.4 4.164a11.622 11.622 0 0 1 .523 4.286 21.3 21.3 0 0 0-.389 2.2c.017.588.523.824 1.037 1.113a11.093 11.093 0 0 0 3.721 1.132 15.025 15.025 0 0 0 6.1-.035 12.433 12.433 0 0 0 3.3-1.361c.76-.478 1.453-1.077 1.323-2.053a13.332 13.332 0 0 0-.389-1.47 7.714 7.714 0 0 1 .081-3.758c.864-3.5 3.622-6.335 4.077-9.943.244-1.911-1.3-2.467-2.794-3.151a30.229 30.229 0 0 0-5.225-1.779 13.853 13.853 0 0 0-4.148-.651 24.026 24.026 0 0 0-6.544 1.558c-.266.093-.56.188-.851.305" data-name="Path 148"></path><path fill="none" stroke="#573095" stroke-miterlimit="10" stroke-width=".637" d="M6.88 18.242a2.276 2.276 0 0 0-1.591 1.473 18.3 18.3 0 0 0 .366 7.973c.342 1.449.994 2.763 1.4 4.164a11.622 11.622 0 0 1 .523 4.286 21.3 21.3 0 0 0-.389 2.2c.017.588.523.824 1.037 1.113a11.093 11.093 0 0 0 3.721 1.132 15.025 15.025 0 0 0 6.1-.035 12.433 12.433 0 0 0 3.3-1.361c.76-.478 1.453-1.077 1.323-2.053a13.332 13.332 0 0 0-.389-1.47 7.714 7.714 0 0 1 .081-3.758c.864-3.5 3.622-6.335 4.077-9.943.244-1.911-1.3-2.467-2.794-3.151a30.229 30.229 0 0 0-5.225-1.779 13.853 13.853 0 0 0-4.148-.651 24.026 24.026 0 0 0-6.544 1.558c-.263.089-.557.184-.848.302Z" data-name="Path 149"></path><path fill="#d2d6fc" d="M12.159 42.693a1.1 1.1 0 0 0-.9-.163 7.079 7.079 0 0 1-.927.177 1.5 1.5 0 0 1-1.057-.387.336.336 0 0 1-.135-.234.317.317 0 0 1 .1-.2 1.186 1.186 0 0 1 .967-.324 2.866 2.866 0 0 1 1 .326c.141.07 1.094.7 1.142.366.018-.119-.2-.313-.263-.4-.128-.181-.17-.406-.3-.583a1.162 1.162 0 0 0-.509-.332l-.778-.33a4.1 4.1 0 0 0-.657-.234 2.672 2.672 0 0 0-1.761.259c-.041.02-.079.046-.119.068a12.331 12.331 0 0 1-1.542-2.064 8.1 8.1 0 0 1-.859-2.118c-.161-.65.01-1.25-.32-1.854a2.66 2.66 0 0 0-1.248-1.148 3.133 3.133 0 0 0-2.518.038 1.867 1.867 0 0 0-1.212 1.865 5.325 5.325 0 0 0 .343 1.751 8.873 8.873 0 0 0 2.843 3.538c.717.593 1.464 1.149 2.164 1.762a12.2 12.2 0 0 1 1.011.972c.053.06.112.131.174.2.01.076.025.153.043.229a2.546 2.546 0 0 0 .435 1.1 2.17 2.17 0 0 0 .668.5 4.366 4.366 0 0 0 1.434.5 2.715 2.715 0 0 0 1.5-.182.987.987 0 0 0 .4-.294 2 2 0 0 0 .163-.316 4.837 4.837 0 0 1 .532-.783 2.165 2.165 0 0 0 .433-.835.9.9 0 0 0-.248-.869" data-name="Path 150"></path><path fill="none" stroke="#6a3ab5" stroke-miterlimit="10" stroke-width=".409" d="M12.159 42.693a1.1 1.1 0 0 0-.9-.163 7.079 7.079 0 0 1-.927.177 1.5 1.5 0 0 1-1.057-.387.336.336 0 0 1-.135-.234.317.317 0 0 1 .1-.2 1.186 1.186 0 0 1 .967-.324 2.866 2.866 0 0 1 1 .326c.141.07 1.094.7 1.142.366.018-.119-.2-.313-.263-.4-.128-.181-.17-.406-.3-.583a1.162 1.162 0 0 0-.509-.332l-.778-.33a4.1 4.1 0 0 0-.657-.234 2.672 2.672 0 0 0-1.761.259c-.041.02-.079.046-.119.068a12.331 12.331 0 0 1-1.542-2.064 8.1 8.1 0 0 1-.859-2.118c-.161-.65.01-1.25-.32-1.854a2.66 2.66 0 0 0-1.248-1.148 3.133 3.133 0 0 0-2.518.038 1.867 1.867 0 0 0-1.212 1.865 5.325 5.325 0 0 0 .343 1.751 8.873 8.873 0 0 0 2.843 3.538c.717.593 1.464 1.149 2.164 1.762a12.2 12.2 0 0 1 1.011.972c.053.06.112.131.174.2.01.076.025.153.043.229a2.546 2.546 0 0 0 .435 1.1 2.17 2.17 0 0 0 .668.5 4.366 4.366 0 0 0 1.434.5 2.715 2.715 0 0 0 1.5-.182.987.987 0 0 0 .4-.294 2 2 0 0 0 .163-.316 4.837 4.837 0 0 1 .532-.783 2.165 2.165 0 0 0 .433-.835.9.9 0 0 0-.247-.87Z" data-name="Path 151"></path><path fill="#d2d6fc" d="M10.685 48.3V48a50.533 50.533 0 0 0-.695-8.433l.53-.089a51.059 51.059 0 0 1 .7 8.822Z" data-name="Path 152"></path><path fill="#d2d6fc" d="M11.752 47.693c0 .182 0 .362-.006.545l-.025.006a2.611 2.611 0 0 1-.515.082c0-.2.005-.393.008-.589q.006-.66.006-1.321c0-1.968-.05-3.95-.226-5.907-.008-.075-.014-.15-.02-.224l.536-.051.024.272c.213 2.388.241 4.8.219 7.186" data-name="Path 153"></path><path fill="#d2d6fc" d="M9.6 48.253c.156-2.279.366-4.585.62-6.856l.535.06a159.598 159.598 0 0 0-.617 6.833Z" data-name="Path 154"></path><path fill="#d2d6fc" d="m13.028 39.691-.093.807c-.24 2.1-.474 4.256-.6 6.385-.013.19-.022.38-.032.57l-.03.542c-.034.024-.07.046-.108.067a1.885 1.885 0 0 1-.421.171l-.025.006.032-.551.014-.264.032-.573c.125-2.121.356-4.262.595-6.352.032-.293.066-.583.1-.873Z" data-name="Path 155"></path><path fill="#d2d6fc" d="M10.791 48.323a2.628 2.628 0 0 1-.544-.1q-.038-.637-.08-1.272c-.137-2.148-.3-4.3-.5-6.432q-.017-.207-.038-.411c-.018-.2-.036-.407-.056-.61l.49-.047h.046l.075.8.023.266c.182 2.02.339 4.054.473 6.086.025.38.05.758.072 1.137.013.2.023.392.034.587" data-name="Path 156"></path><path fill="#573095" d="m13.111 39.141-4.046.015.3 6.907a.871.871 0 0 0 .476.616 2.6 2.6 0 0 0 2.341.027.846.846 0 0 0 .483-.61Z" data-name="Path 157"></path><path fill="none" stroke="#573095" stroke-miterlimit="10" stroke-width=".637" d="m13.111 39.141-4.046.015.3 6.907a.871.871 0 0 0 .476.616 2.6 2.6 0 0 0 2.341.027.846.846 0 0 0 .483-.61Z" data-name="Path 158"></path><path fill="#fff" d="M8.582 34.4a.835.835 0 0 1-.3-.07 1.276 1.276 0 0 1-.2-.112 1.891 1.891 0 0 0-.182-.108 2.01 2.01 0 0 0-.666-.162 3.965 3.965 0 0 1-.263-.038 1.333 1.333 0 0 1-.911-.558.782.782 0 0 1 .057-.94 1.489 1.489 0 0 1 .224-.171 1.122 1.122 0 0 0 .389-.357 1.18 1.18 0 0 0 .122-.342.978.978 0 0 1 .077-.243.643.643 0 0 1 .563-.267 1.474 1.474 0 0 1 1.274.95 3.581 3.581 0 0 1 .1 2.267.312.312 0 0 1-.28.151" data-name="Path 159"></path><path fill="#6a3ab5" d="M7.493 30.872v.317a1.308 1.308 0 0 1 1.121.853 3.456 3.456 0 0 1 .112 2.118.155.155 0 0 1-.149.081.668.668 0 0 1-.239-.058 1.161 1.161 0 0 1-.173-.1 2.078 2.078 0 0 0-.2-.117 2.152 2.152 0 0 0-.718-.177c-.085-.01-.17-.02-.254-.037a1.186 1.186 0 0 1-.805-.485.633.633 0 0 1 .036-.745 1.2 1.2 0 0 1 .2-.152 1.3 1.3 0 0 0 .436-.407 1.313 1.313 0 0 0 .138-.388.937.937 0 0 1 .064-.2.492.492 0 0 1 .424-.185Zm0 0a.785.785 0 0 0-.7.35c-.1.18-.091.4-.2.58-.132.223-.407.314-.59.5a.943.943 0 0 0-.08 1.137 1.509 1.509 0 0 0 1.016.63 3.346 3.346 0 0 1 .888.185c.135.068.254.169.394.226a.961.961 0 0 0 .358.081c.945 0 .53-2.152.332-2.636A1.627 1.627 0 0 0 7.5 30.872h-.007" data-name="Path 160"></path><path fill="#fff" d="M8.3 34.9a3.691 3.691 0 0 1-.579-.066 3.9 3.9 0 0 0-.558-.062h-.024a1.778 1.778 0 0 1-.859-.15.615.615 0 0 1-.342-.622l.258-.015a.409.409 0 0 0 .188-.179 1.266 1.266 0 0 1 1.042-.573A1.338 1.338 0 0 1 8.7 34.556a.338.338 0 0 1-.066.251.468.468 0 0 1-.334.09" data-name="Path 161"></path><path fill="#6a3ab5" d="m7.425 33.073.006.317a1.181 1.181 0 0 1 1.114 1.171.217.217 0 0 1-.023.136c0 .005-.046.042-.22.042a3.927 3.927 0 0 1-.555-.063 3.832 3.832 0 0 0-.606-.065h-.09a1.485 1.485 0 0 1-.695-.131.547.547 0 0 1-.26-.314.555.555 0 0 0 .161-.037.6.6 0 0 0 .271-.255 1.093 1.093 0 0 1 .9-.485Zm0 0a1.413 1.413 0 0 0-1.164.63.317.317 0 0 1-.127.134.222.222 0 0 1-.083.014c-.041 0-.083-.006-.121-.006a.14.14 0 0 0-.113.041.171.171 0 0 0-.034.077.768.768 0 0 0 .419.8 1.762 1.762 0 0 0 .849.17h.114c.316 0 .776.128 1.137.128.328 0 .573-.105.559-.5a1.5 1.5 0 0 0-1.428-1.478h-.008" data-name="Path 162"></path><path fill="#333" d="M7.914 32.1a.359.359 0 0 0-.187 0 1.245 1.245 0 0 0-.258.09.34.34 0 0 0-.152.123c-.067.118 0 .28-.07.394-.03.047-.08.08-.105.129a.161.161 0 0 0 .125.223.311.311 0 0 1 .07.006c.067.024.066.119.1.18a.181.181 0 0 0 .165.074.438.438 0 0 0 .178-.061.334.334 0 0 0 .144-.12c.084-.146-.043-.349.047-.49.032-.052.088-.085.121-.137.071-.113-.058-.376-.18-.414" data-name="Path 163"></path><path fill="#fff" d="M8.945 34.624a2.293 2.293 0 0 1-.123-.293 2.9 2.9 0 0 1-.114-.4c-.022-.087-.042-.175-.066-.261a5.027 5.027 0 0 0-.325-.779c-.057-.117-.114-.234-.166-.352a.959.959 0 0 1 .038-1.01.308.308 0 0 1 .2-.124.341.341 0 0 1 .154.091 1.106 1.106 0 0 0 .714.279 1.876 1.876 0 0 0 .192-.013c.052-.005.105-.01.158-.01a.549.549 0 0 1 .381.213A1.191 1.191 0 0 1 10 33.429a2.574 2.574 0 0 1-.353.352 2.283 2.283 0 0 0-.468.5 1.006 1.006 0 0 1-.236.338" data-name="Path 164"></path><path fill="#6a3ab5" d="M8.384 31.564c.015.011.038.032.055.046l.05.042a1.225 1.225 0 0 0 .769.274c.067 0 .135-.006.2-.013a1.367 1.367 0 0 1 .144-.01.247.247 0 0 1 .075.009.394.394 0 0 1 .183.146 1.028 1.028 0 0 1 .011 1.272 2.464 2.464 0 0 1-.342.338 2.372 2.372 0 0 0-.489.532l-.061.106-.029-.076a2.855 2.855 0 0 1-.094-.343 5.03 5.03 0 0 0-.067-.269 5.11 5.11 0 0 0-.333-.8c-.056-.115-.113-.232-.164-.351a.813.813 0 0 1 .014-.845.221.221 0 0 1 .072-.062m.008-.322a.457.457 0 0 0-.325.181 1.1 1.1 0 0 0-.06 1.175 9.56 9.56 0 0 1 .483 1.113c.061.21.093.428.169.634a1.2 1.2 0 0 0 .207.407.118.118 0 0 0 .06.043h.01a.1.1 0 0 0 .039-.009c.172-.063.245-.26.342-.416a2.137 2.137 0 0 1 .428-.461 2.744 2.744 0 0 0 .385-.383 1.345 1.345 0 0 0-.017-1.663.693.693 0 0 0-.347-.255.612.612 0 0 0-.159-.019c-.116 0-.232.023-.347.023a.907.907 0 0 1-.564-.2.721.721 0 0 0-.227-.156.25.25 0 0 0-.075-.011" data-name="Path 165"></path><path fill="#d2d6fc" d="M7.068 33.869a.66.66 0 0 0 .625-.161.969.969 0 0 0 .3-.592 2.477 2.477 0 0 1 .027-.307.932.932 0 0 1 .2-.341 1.313 1.313 0 0 1 .268-.281.412.412 0 0 1 .662.208 7.6 7.6 0 0 1 .1 1.193 5.648 5.648 0 0 1 .024.655.726.726 0 0 1-.151.474c-.227.242-.6.142-.856.027a4.565 4.565 0 0 1-.869-.5.88.88 0 0 1-.329-.37" data-name="Path 166"></path><path fill="#573095" d="M7.735 32.328a.584.584 0 0 0-.017.253 1.035 1.035 0 0 1-.288.749 2.834 2.834 0 0 0-.277.275.34.34 0 0 0-.048.366.314.314 0 0 0 .307.125.912.912 0 0 0 .324-.128c.2-.113.431-.269.436-.5a1.794 1.794 0 0 1-.023-.3.476.476 0 0 1 .189-.261c.287-.237 1.067-.477.584-.88a.889.889 0 0 0-1.188.3" data-name="Path 167"></path><path fill="none" stroke="#573095" stroke-miterlimit="10" stroke-width=".637" d="M7.735 32.328a.584.584 0 0 0-.017.253 1.035 1.035 0 0 1-.288.749 2.834 2.834 0 0 0-.277.275.34.34 0 0 0-.048.366.314.314 0 0 0 .307.125.912.912 0 0 0 .324-.128c.2-.113.431-.269.436-.5a1.794 1.794 0 0 1-.023-.3.476.476 0 0 1 .189-.261c.287-.237 1.067-.477.584-.88a.889.889 0 0 0-1.187.301Z" data-name="Path 168"></path><path fill="#d2d6fc" d="M9.821 38.287a2.486 2.486 0 0 1-.386-1 16.93 16.93 0 0 1-.24-2.042c-.014-.2-.029-.4-.047-.6a9.832 9.832 0 0 0-1.06-4.062l.094-.053a9.928 9.928 0 0 1 1.072 4.1c.018.2.033.4.048.6a16.639 16.639 0 0 0 .238 2.028 2.382 2.382 0 0 0 .367.957Z" data-name="Path 169"></path><path fill="#fff" d="M7.158 37.032a.835.835 0 0 1-.3-.07 1.336 1.336 0 0 1-.2-.112 1.881 1.881 0 0 0-.183-.109 2.006 2.006 0 0 0-.664-.16 4.532 4.532 0 0 1-.264-.039 1.336 1.336 0 0 1-.911-.558.782.782 0 0 1 .057-.94 1.365 1.365 0 0 1 .225-.171 1.13 1.13 0 0 0 .387-.357 1.18 1.18 0 0 0 .122-.342.978.978 0 0 1 .077-.243.643.643 0 0 1 .563-.267 1.472 1.472 0 0 1 1.274.95 3.581 3.581 0 0 1 .1 2.267.312.312 0 0 1-.28.151" data-name="Path 170"></path><path fill="#6a3ab5" d="M6.069 33.505v.317a1.308 1.308 0 0 1 1.121.853 3.456 3.456 0 0 1 .112 2.118.157.157 0 0 1-.149.081.655.655 0 0 1-.239-.058 1.228 1.228 0 0 1-.173-.1 2.08 2.08 0 0 0-.2-.117 2.121 2.121 0 0 0-.718-.177c-.085-.01-.17-.02-.254-.037a1.186 1.186 0 0 1-.805-.485.633.633 0 0 1 .036-.745 1.2 1.2 0 0 1 .2-.152 1.286 1.286 0 0 0 .435-.407 1.283 1.283 0 0 0 .14-.388.937.937 0 0 1 .064-.2.492.492 0 0 1 .424-.185Zm0 0a.785.785 0 0 0-.7.35c-.1.18-.091.4-.2.58-.132.223-.407.314-.59.5a.943.943 0 0 0-.08 1.137 1.509 1.509 0 0 0 1.016.63 3.346 3.346 0 0 1 .888.185c.135.068.253.167.393.226a.972.972 0 0 0 .36.081c.945 0 .53-2.152.332-2.636a1.627 1.627 0 0 0-1.413-1.049Z" data-name="Path 171"></path><path fill="#fff" d="M6.88 37.529a3.689 3.689 0 0 1-.581-.066 3.9 3.9 0 0 0-.558-.062h-.03a1.756 1.756 0 0 1-.855-.15.614.614 0 0 1-.342-.62l.258-.016a.415.415 0 0 0 .189-.18A1.265 1.265 0 0 1 6 35.865a1.338 1.338 0 0 1 1.277 1.323.338.338 0 0 1-.066.251.467.467 0 0 1-.333.09" data-name="Path 172"></path><path fill="#6a3ab5" d="m6 35.707.006.317a1.179 1.179 0 0 1 1.114 1.17.212.212 0 0 1-.022.136c0 .005-.046.042-.22.042a3.749 3.749 0 0 1-.555-.063 3.832 3.832 0 0 0-.606-.065h-.09a1.485 1.485 0 0 1-.695-.131.552.552 0 0 1-.26-.314.538.538 0 0 0 .16-.037.6.6 0 0 0 .272-.255 1.093 1.093 0 0 1 .9-.485Zm0 0a1.413 1.413 0 0 0-1.164.63.317.317 0 0 1-.127.134.222.222 0 0 1-.083.014c-.041 0-.083-.006-.121-.006a.14.14 0 0 0-.113.041.171.171 0 0 0-.034.077.768.768 0 0 0 .419.8 1.759 1.759 0 0 0 .849.17h.114c.316 0 .776.128 1.137.128.328 0 .573-.105.559-.5a1.5 1.5 0 0 0-1.428-1.478H6" data-name="Path 173"></path><path fill="#333" d="M6.49 34.729a.359.359 0 0 0-.187 0 1.245 1.245 0 0 0-.258.09.34.34 0 0 0-.152.123c-.067.118 0 .28-.07.394-.03.047-.08.08-.105.129a.161.161 0 0 0 .125.223.319.319 0 0 1 .07.006c.067.024.066.119.1.18a.181.181 0 0 0 .165.074.431.431 0 0 0 .178-.061.334.334 0 0 0 .144-.12c.084-.146-.043-.349.046-.49.033-.052.089-.085.122-.137.071-.113-.058-.376-.18-.414" data-name="Path 174"></path><path fill="#fff" d="M7.521 37.258a2.375 2.375 0 0 1-.123-.293 2.9 2.9 0 0 1-.114-.4c-.022-.087-.042-.175-.066-.261a5.027 5.027 0 0 0-.325-.779c-.057-.117-.114-.234-.166-.352a.959.959 0 0 1 .038-1.01.3.3 0 0 1 .2-.124.351.351 0 0 1 .154.093 1.11 1.11 0 0 0 .713.278c.064 0 .3-.023.349-.023a.549.549 0 0 1 .381.213 1.191 1.191 0 0 1 .014 1.469 2.525 2.525 0 0 1-.344.345 2.316 2.316 0 0 0-.476.512 1.021 1.021 0 0 1-.236.338" data-name="Path 175"></path><path fill="#6a3ab5" d="M6.96 34.2a.725.725 0 0 1 .053.046l.051.042a1.224 1.224 0 0 0 .767.274c.067 0 .136-.006.2-.013a1.367 1.367 0 0 1 .144-.01.3.3 0 0 1 .075.009.394.394 0 0 1 .183.146 1.028 1.028 0 0 1 .011 1.272 2.613 2.613 0 0 1-.342.338 2.417 2.417 0 0 0-.489.532l-.061.106-.029-.075a2.941 2.941 0 0 1-.094-.345 5.03 5.03 0 0 0-.067-.269 5.182 5.182 0 0 0-.333-.8c-.056-.117-.113-.233-.164-.351a.813.813 0 0 1 .014-.845.221.221 0 0 1 .081-.057m.008-.322a.457.457 0 0 0-.325.181 1.1 1.1 0 0 0-.061 1.175 9.356 9.356 0 0 1 .484 1.113c.061.21.093.428.169.634a1.2 1.2 0 0 0 .207.407.118.118 0 0 0 .06.043h.01a.1.1 0 0 0 .039-.009c.172-.063.245-.26.342-.416a2.1 2.1 0 0 1 .428-.46 2.9 2.9 0 0 0 .385-.384 1.345 1.345 0 0 0-.017-1.662.7.7 0 0 0-.347-.255.612.612 0 0 0-.159-.019c-.116 0-.232.023-.348.023a.919.919 0 0 1-.565-.2.686.686 0 0 0-.226-.157.25.25 0 0 0-.075-.011" data-name="Path 176"></path><path fill="#d2d6fc" d="M5.643 36.5a.66.66 0 0 0 .625-.161.969.969 0 0 0 .3-.592 2.477 2.477 0 0 1 .027-.307.932.932 0 0 1 .2-.341 1.313 1.313 0 0 1 .268-.281.412.412 0 0 1 .662.208 7.6 7.6 0 0 1 .1 1.193 5.648 5.648 0 0 1 .024.655.726.726 0 0 1-.151.474c-.227.242-.6.142-.856.027a4.565 4.565 0 0 1-.869-.5.88.88 0 0 1-.329-.37" data-name="Path 177"></path><path fill="#573095" d="M6.31 34.961a.584.584 0 0 0-.017.253 1.03 1.03 0 0 1-.288.748 3 3 0 0 0-.277.276.339.339 0 0 0-.048.366.316.316 0 0 0 .307.125.912.912 0 0 0 .324-.128c.2-.113.431-.269.436-.5a1.794 1.794 0 0 1-.023-.3.476.476 0 0 1 .189-.261c.287-.237 1.067-.477.584-.88a.89.89 0 0 0-1.188.3" data-name="Path 178"></path><path fill="none" stroke="#573095" stroke-miterlimit="10" stroke-width=".637" d="M6.31 34.961a.584.584 0 0 0-.017.253 1.03 1.03 0 0 1-.288.748 3 3 0 0 0-.277.276.339.339 0 0 0-.048.366.316.316 0 0 0 .307.125.912.912 0 0 0 .324-.128c.2-.113.431-.269.436-.5a1.794 1.794 0 0 1-.023-.3.476.476 0 0 1 .189-.261c.287-.237 1.067-.477.584-.88a.89.89 0 0 0-1.187.301Z" data-name="Path 179"></path><path fill="#d2d6fc" d="M8.167 39.628a4.656 4.656 0 0 1-2.948-2.405l.1-.048a4.551 4.551 0 0 0 2.879 2.35Z" data-name="Path 180"></path><path fill="#fff" d="M11.11 33.833c-.555 0-1.306-1.383-1.443-1.862a1.461 1.461 0 0 1 .409-1.528.741.741 0 0 1 .445-.174.426.426 0 0 1 .168.033.947.947 0 0 1 .212.143 1.159 1.159 0 0 0 .307.2.86.86 0 0 0 .315.052c.07 0 .335-.02.4-.02a.8.8 0 0 1 .724.711 1.341 1.341 0 0 1-.372 1c-.06.067-.123.131-.185.194a2.017 2.017 0 0 0-.422.535c-.03.063-.053.131-.077.2a1.2 1.2 0 0 1-.088.212c-.118.208-.25.313-.39.313" data-name="Path 181"></path><path fill="#6a3ab5" d="M10.521 30.428a.251.251 0 0 1 .1.02.855.855 0 0 1 .175.12 1.316 1.316 0 0 0 .349.219 1.015 1.015 0 0 0 .375.063c.072 0 .146-.005.221-.011.057 0 .116-.009.174-.009a.775.775 0 0 1 .077 0 .635.635 0 0 1 .489.565 1.182 1.182 0 0 1-.333.878c-.056.063-.117.124-.178.185a2.165 2.165 0 0 0-.455.58 2.79 2.79 0 0 0-.084.214 1.014 1.014 0 0 1-.075.184c-.061.106-.154.233-.252.233-.417 0-1.152-1.258-1.291-1.748a1.3 1.3 0 0 1 .354-1.361.6.6 0 0 1 .347-.138m0-.317a.907.907 0 0 0-.545.208 1.623 1.623 0 0 0-.462 1.694c.126.44.906 1.978 1.6 1.978.187 0 .368-.114.527-.393.075-.132.107-.283.17-.419a3.317 3.317 0 0 1 .584-.692 1.5 1.5 0 0 0 .409-1.122.945.945 0 0 0-.765-.845.9.9 0 0 0-.117-.006c-.132 0-.266.02-.4.02a.691.691 0 0 1-.259-.042c-.192-.074-.325-.255-.515-.336a.577.577 0 0 0-.23-.046" data-name="Path 182"></path><path fill="#fff" d="M11.542 34.117c-.028 0-.118 0-.235-.158a1.34 1.34 0 0 1 .182-1.825 1.246 1.246 0 0 1 .774-.262 1.2 1.2 0 0 1 .389.062.553.553 0 0 0 .189.042.484.484 0 0 0 .271-.127.53.53 0 0 1 .144.668 1.756 1.756 0 0 1-.586.649 3.327 3.327 0 0 0-.418.406c-.238.256-.506.546-.709.546" data-name="Path 183"></path><path fill="#6a3ab5" d="M12.263 32.029a1.084 1.084 0 0 1 .348.058.674.674 0 0 0 .231.047l.086-.005.042-.011a.521.521 0 0 0 .149-.071.541.541 0 0 1-.01.408 1.613 1.613 0 0 1-.536.584 3.506 3.506 0 0 0-.438.426c-.172.185-.459.494-.592.494-.023 0-.065-.037-.105-.094a1.176 1.176 0 0 1 .151-1.607 1.1 1.1 0 0 1 .675-.229m.882-.376c-.1 0-.16.132-.259.16a.161.161 0 0 1-.043.005.458.458 0 0 1-.14-.033 1.366 1.366 0 0 0-.44-.072 1.416 1.416 0 0 0-.873.3 1.5 1.5 0 0 0-.21 2.042.453.453 0 0 0 .362.223c.414 0 .856-.708 1.222-.985a1.862 1.862 0 0 0 .637-.712.767.767 0 0 0-.161-.885.178.178 0 0 0-.076-.041h-.019" data-name="Path 184"></path><path fill="#333" d="M10.408 31.537a.361.361 0 0 1 .149-.112 1.252 1.252 0 0 1 .259-.089.347.347 0 0 1 .2 0c.125.052.172.222.3.267.052.019.112.014.163.037a.163.163 0 0 1 .039.253.3.3 0 0 0-.051.047c-.038.06.023.134.03.205a.181.181 0 0 1-.085.16.421.421 0 0 1-.178.062.338.338 0 0 1-.188-.006c-.155-.063-.182-.3-.339-.357-.058-.02-.123-.013-.18-.033a.368.368 0 0 1-.114-.437" data-name="Path 185"></path><path fill="#fff" d="M11.138 34.163a.741.741 0 0 1-.257-.076 2.352 2.352 0 0 0-.783-.155 2.686 2.686 0 0 1-.511-.06 1.2 1.2 0 0 1-.9-1.163.535.535 0 0 1 .085-.319.758.758 0 0 1 .216-.174 1.89 1.89 0 0 0 .156-.109 1.039 1.039 0 0 0 .375-.6.648.648 0 0 1 .057-.2.205.205 0 0 1 .163-.06.959.959 0 0 1 .748.782c.033.124.06.251.089.378a4.824 4.824 0 0 0 .226.814c.034.082.071.163.109.245a2.878 2.878 0 0 1 .145.349 1.078 1.078 0 0 1 .083.393Z" data-name="Path 186"></path><path fill="#6a3ab5" d="m9.743 31.4.061.006a.82.82 0 0 1 .535.658c.032.124.06.251.088.376a5.027 5.027 0 0 0 .234.834c.034.086.074.17.112.253a2.757 2.757 0 0 1 .15.362l.014.043-.114-.046a2.47 2.47 0 0 0-.729-.119 2.362 2.362 0 0 1-.464-.054 1.037 1.037 0 0 1-.563-.37 1.055 1.055 0 0 1-.216-.637.412.412 0 0 1 .053-.228.725.725 0 0 1 .174-.133c.057-.038.116-.075.169-.118a1.207 1.207 0 0 0 .433-.686l.013-.065v-.005c.005-.027.013-.066 0-.066a.131.131 0 0 1 .047-.006m0-.317a.346.346 0 0 0-.292.127.7.7 0 0 0-.081.262.9.9 0 0 1-.319.507 1.9 1.9 0 0 0-.4.31.692.692 0 0 0-.117.413 1.35 1.35 0 0 0 1.019 1.324 2.733 2.733 0 0 0 .539.065 2.175 2.175 0 0 1 .623.1 1.316 1.316 0 0 0 .426.133.345.345 0 0 0 .1-.015.1.1 0 0 0 .044-.025.108.108 0 0 0 .02-.07 1.2 1.2 0 0 0-.089-.447c-.066-.208-.177-.4-.259-.6a9.637 9.637 0 0 1-.309-1.172 1.1 1.1 0 0 0-.774-.887.622.622 0 0 0-.128-.014" data-name="Path 187"></path><path fill="#d2d6fc" d="M12.17 32.412a.662.662 0 0 1-.592.259.975.975 0 0 1-.6-.28 2.519 2.519 0 0 0-.211-.224.957.957 0 0 0-.366-.148 1.372 1.372 0 0 0-.385-.054.411.411 0 0 0-.393.57 7.726 7.726 0 0 0 .659 1 5.679 5.679 0 0 0 .387.531.726.726 0 0 0 .412.279c.329.051.555-.255.69-.506a4.6 4.6 0 0 0 .372-.931.878.878 0 0 0 .029-.494" data-name="Path 188"></path><path fill="#573095" d="M10.692 31.609a.6.6 0 0 1 .17.188 1.038 1.038 0 0 0 .69.413 3.041 3.041 0 0 1 .389.044.344.344 0 0 1 .264.26.311.311 0 0 1-.164.286.874.874 0 0 1-.334.1.69.69 0 0 1-.653-.124 1.963 1.963 0 0 0-.165-.248.489.489 0 0 0-.311-.089c-.372-.009-1.135.281-1-.332a.888.888 0 0 1 1.118-.5" data-name="Path 189"></path><path fill="none" stroke="#573095" stroke-miterlimit="10" stroke-width=".637" d="M10.692 31.609a.6.6 0 0 1 .17.188 1.038 1.038 0 0 0 .69.413 3.041 3.041 0 0 1 .389.044.344.344 0 0 1 .264.26.311.311 0 0 1-.164.286.874.874 0 0 1-.334.1.69.69 0 0 1-.653-.124 1.963 1.963 0 0 0-.165-.248.489.489 0 0 0-.311-.089c-.372-.009-1.135.281-1-.332a.888.888 0 0 1 1.114-.498Z" data-name="Path 190"></path><path fill="#fff" d="M13.661 34.4a.312.312 0 0 1-.28-.151 3.581 3.581 0 0 1 .1-2.267 1.471 1.471 0 0 1 1.268-.95.647.647 0 0 1 .569.267.988.988 0 0 1 .077.245 1.205 1.205 0 0 0 .121.341 1.152 1.152 0 0 0 .389.357 1.358 1.358 0 0 1 .226.171.786.786 0 0 1 .056.94 1.333 1.333 0 0 1-.91.558 4.195 4.195 0 0 1-.264.038 2.01 2.01 0 0 0-.666.162 1.891 1.891 0 0 0-.184.108 1.276 1.276 0 0 1-.2.112.835.835 0 0 1-.3.07" data-name="Path 191"></path><path fill="#6a3ab5" d="M14.749 30.872v.317a.49.49 0 0 1 .424.185.871.871 0 0 1 .064.2 1.35 1.35 0 0 0 .138.388 1.293 1.293 0 0 0 .437.407 1.144 1.144 0 0 1 .2.152.633.633 0 0 1 .036.745 1.18 1.18 0 0 1-.805.485 3.672 3.672 0 0 1-.253.037 2.166 2.166 0 0 0-.719.177 1.913 1.913 0 0 0-.2.117 1.174 1.174 0 0 1-.174.1.663.663 0 0 1-.239.058.152.152 0 0 1-.147-.081 3.446 3.446 0 0 1 .111-2.118 1.308 1.308 0 0 1 1.121-.853Zm0 0h-.006a1.627 1.627 0 0 0-1.412 1.049c-.2.484-.615 2.636.33 2.636a.956.956 0 0 0 .358-.081c.141-.057.26-.157.394-.226a3.344 3.344 0 0 1 .889-.185 1.506 1.506 0 0 0 1.015-.63.941.941 0 0 0-.08-1.137c-.183-.182-.456-.274-.588-.5-.107-.176-.1-.4-.2-.58a.789.789 0 0 0-.7-.35" data-name="Path 192"></path><path fill="#fff" d="M13.941 34.9a.472.472 0 0 1-.335-.09.34.34 0 0 1-.066-.251 1.339 1.339 0 0 1 1.272-1.324 1.262 1.262 0 0 1 1.038.556.434.434 0 0 0 .2.2l.029.013.114.014.135-.018a.67.67 0 0 1-.365.616 1.633 1.633 0 0 1-.775.15h-.013a3.814 3.814 0 0 0-.656.062 3.691 3.691 0 0 1-.579.066" data-name="Path 193"></path><path fill="#6a3ab5" d="M14.818 33.073v.317a1.1 1.1 0 0 1 .9.494.581.581 0 0 0 .266.246.5.5 0 0 0 .16.037.542.542 0 0 1-.26.314 1.485 1.485 0 0 1-.695.131h-.114a3.869 3.869 0 0 0-.582.065 3.927 3.927 0 0 1-.555.063c-.174 0-.216-.037-.22-.042a.217.217 0 0 1-.023-.136 1.181 1.181 0 0 1 1.114-1.171Zm0 0h-.009a1.5 1.5 0 0 0-1.428 1.478c-.014.4.231.5.559.5.361 0 .821-.128 1.137-.128h.114a1.762 1.762 0 0 0 .849-.17.768.768 0 0 0 .419-.8.171.171 0 0 0-.034-.077.14.14 0 0 0-.113-.041c-.038 0-.081.006-.121.006a.222.222 0 0 1-.083-.014.317.317 0 0 1-.127-.134 1.413 1.413 0 0 0-1.164-.63" data-name="Path 194"></path><path fill="#333" d="M14.329 32.1a.36.36 0 0 1 .187 0 1.245 1.245 0 0 1 .258.09.34.34 0 0 1 .152.123c.067.118 0 .28.07.394.03.047.08.08.105.129a.161.161 0 0 1-.125.223.311.311 0 0 0-.07.006c-.067.024-.066.119-.1.18a.181.181 0 0 1-.165.074.431.431 0 0 1-.178-.061.334.334 0 0 1-.144-.12c-.084-.146.043-.349-.047-.49-.032-.052-.088-.085-.121-.137-.071-.113.058-.376.18-.414" data-name="Path 195"></path><path fill="#fff" d="M13.283 34.615a.738.738 0 0 1-.159-.221 2.324 2.324 0 0 0-.52-.6 2.654 2.654 0 0 1-.365-.361 1.189 1.189 0 0 1 .014-1.468.544.544 0 0 1 .266-.2c.079-.006.133-.008.173-.008s.227.016.29.016a1.053 1.053 0 0 0 .668-.238.625.625 0 0 1 .173-.127h.011a.289.289 0 0 1 .221.12.962.962 0 0 1 .037 1.009c-.053.122-.111.24-.168.359a4.827 4.827 0 0 0-.323.773c-.025.085-.044.171-.065.257a2.847 2.847 0 0 1-.1.366 1.242 1.242 0 0 1-.152.326" data-name="Path 196"></path><path fill="#6a3ab5" d="M13.858 31.564a.219.219 0 0 1 .074.062.815.815 0 0 1 .014.845c-.051.118-.108.234-.164.351a5.06 5.06 0 0 0-.333.8 6.127 6.127 0 0 0-.067.267 2.829 2.829 0 0 1-.107.378l-.017.043-.058-.11a2.413 2.413 0 0 0-.5-.541 2.394 2.394 0 0 1-.332-.33 1.038 1.038 0 0 1-.215-.639 1.054 1.054 0 0 1 .226-.634.394.394 0 0 1 .183-.146.247.247 0 0 1 .075-.009 1.367 1.367 0 0 1 .144.01c.067.006.136.013.206.013a1.223 1.223 0 0 0 .766-.274l.05-.043h.005l.052-.046m-.006-.322a.25.25 0 0 0-.075.011.721.721 0 0 0-.227.156.907.907 0 0 1-.564.2c-.116 0-.232-.023-.348-.023a.612.612 0 0 0-.159.019.693.693 0 0 0-.347.255 1.345 1.345 0 0 0-.017 1.663 2.744 2.744 0 0 0 .385.383 2.137 2.137 0 0 1 .428.461c.1.156.17.352.342.416a.1.1 0 0 0 .039.009h.01a.118.118 0 0 0 .06-.043 1.2 1.2 0 0 0 .207-.407c.076-.205.108-.423.169-.634a9.559 9.559 0 0 1 .483-1.113 1.1 1.1 0 0 0-.06-1.175.457.457 0 0 0-.325-.181" data-name="Path 197"></path><path fill="#d2d6fc" d="M15.175 33.869a.66.66 0 0 1-.625-.161.969.969 0 0 1-.3-.592 2.477 2.477 0 0 0-.027-.307.932.932 0 0 0-.2-.341 1.313 1.313 0 0 0-.268-.281.412.412 0 0 0-.662.208 7.6 7.6 0 0 0-.1 1.193 5.648 5.648 0 0 0-.024.655.726.726 0 0 0 .151.474c.227.242.6.142.856.027a4.566 4.566 0 0 0 .869-.5.88.88 0 0 0 .329-.37" data-name="Path 198"></path><path fill="#573095" d="M14.508 32.328a.584.584 0 0 1 .017.253 1.035 1.035 0 0 0 .288.749 2.7 2.7 0 0 1 .277.275.34.34 0 0 1 .048.366.314.314 0 0 1-.307.125.9.9 0 0 1-.323-.128c-.2-.113-.432-.269-.437-.5a1.794 1.794 0 0 0 .023-.3.476.476 0 0 0-.189-.261c-.287-.237-1.067-.477-.584-.88a.889.889 0 0 1 1.188.3" data-name="Path 199"></path><path fill="none" stroke="#573095" stroke-miterlimit="10" stroke-width=".637" d="M14.508 32.328a.584.584 0 0 1 .017.253 1.035 1.035 0 0 0 .288.749 2.7 2.7 0 0 1 .277.275.34.34 0 0 1 .048.366.314.314 0 0 1-.307.125.9.9 0 0 1-.323-.128c-.2-.113-.432-.269-.437-.5a1.794 1.794 0 0 0 .023-.3.476.476 0 0 0-.189-.261c-.287-.237-1.067-.477-.584-.88a.889.889 0 0 1 1.187.301Z" data-name="Path 200"></path><path fill="#fff" d="M14.309 37.032a.312.312 0 0 1-.28-.151 3.581 3.581 0 0 1 .1-2.267 1.472 1.472 0 0 1 1.269-.95.647.647 0 0 1 .568.267.978.978 0 0 1 .077.243 1.2 1.2 0 0 0 .122.343 1.154 1.154 0 0 0 .387.355 1.371 1.371 0 0 1 .225.172.782.782 0 0 1 .057.94 1.336 1.336 0 0 1-.91.558 4.87 4.87 0 0 1-.266.039 2.006 2.006 0 0 0-.664.16 1.88 1.88 0 0 0-.183.109 1.336 1.336 0 0 1-.2.112.835.835 0 0 1-.3.07" data-name="Path 201"></path><path fill="#6a3ab5" d="M15.4 33.505v.317a.492.492 0 0 1 .424.185.937.937 0 0 1 .064.2 1.068 1.068 0 0 0 .574.795 1.2 1.2 0 0 1 .2.152.633.633 0 0 1 .036.745 1.186 1.186 0 0 1-.805.485 3.612 3.612 0 0 1-.254.037 2.108 2.108 0 0 0-.717.177 1.951 1.951 0 0 0-.2.117 1.16 1.16 0 0 1-.173.1.655.655 0 0 1-.239.058.157.157 0 0 1-.149-.081 3.456 3.456 0 0 1 .112-2.118 1.308 1.308 0 0 1 1.121-.853Zm0 0h-.006a1.627 1.627 0 0 0-1.413 1.049c-.2.484-.614 2.636.332 2.636a.961.961 0 0 0 .358-.081c.141-.058.259-.157.394-.226a3.346 3.346 0 0 1 .888-.185 1.509 1.509 0 0 0 1.016-.63.943.943 0 0 0-.08-1.137c-.183-.182-.457-.274-.59-.5-.105-.176-.1-.4-.2-.58a.785.785 0 0 0-.7-.35" data-name="Path 202"></path><path fill="#fff" d="M14.586 37.529a.467.467 0 0 1-.333-.09.338.338 0 0 1-.066-.251 1.337 1.337 0 0 1 1.27-1.323 1.262 1.262 0 0 1 1.038.556.447.447 0 0 0 .2.194l.03.013.114.014.138-.005a.671.671 0 0 1-.366.615 1.612 1.612 0 0 1-.769.151h-.014a3.825 3.825 0 0 0-.661.061 3.689 3.689 0 0 1-.581.066" data-name="Path 203"></path><path fill="#6a3ab5" d="M15.466 35.707v.317a1.1 1.1 0 0 1 .9.5.586.586 0 0 0 .266.245.5.5 0 0 0 .16.037.542.542 0 0 1-.26.314 1.485 1.485 0 0 1-.695.131h-.114a3.869 3.869 0 0 0-.582.065 3.749 3.749 0 0 1-.555.063c-.174 0-.216-.037-.22-.042a.217.217 0 0 1-.023-.136 1.181 1.181 0 0 1 1.114-1.171Zm0 0h-.009a1.5 1.5 0 0 0-1.428 1.478c-.014.4.231.5.559.5.361 0 .821-.128 1.137-.128h.114a1.762 1.762 0 0 0 .849-.17.768.768 0 0 0 .419-.8.171.171 0 0 0-.034-.077.14.14 0 0 0-.113-.041c-.038 0-.08.006-.121.006a.222.222 0 0 1-.083-.014.317.317 0 0 1-.127-.134 1.413 1.413 0 0 0-1.164-.63" data-name="Path 204"></path><path fill="#333" d="M14.976 34.729a.36.36 0 0 1 .187 0 1.245 1.245 0 0 1 .258.09.34.34 0 0 1 .152.123c.067.118 0 .28.07.394.03.047.08.08.105.129a.161.161 0 0 1-.125.223.312.312 0 0 0-.07.006c-.067.024-.066.119-.1.18a.181.181 0 0 1-.165.074.431.431 0 0 1-.178-.061.334.334 0 0 1-.144-.12c-.084-.146.043-.349-.047-.49-.032-.052-.088-.085-.121-.137-.071-.113.058-.376.18-.414" data-name="Path 205"></path><path fill="#fff" d="M13.932 37.248a.7.7 0 0 1-.16-.221 2.315 2.315 0 0 0-.52-.6 2.578 2.578 0 0 1-.363-.362 1.187 1.187 0 0 1 .013-1.468.568.568 0 0 1 .266-.2c.08-.006.133-.009.174-.009s.229.016.292.016a1.063 1.063 0 0 0 .666-.237.612.612 0 0 1 .173-.128h.01a.289.289 0 0 1 .22.122.959.959 0 0 1 .039 1.01c-.052.118-.109.234-.166.352a4.976 4.976 0 0 0-.325.779c-.025.086-.044.174-.066.261a3 3 0 0 1-.1.362 1.278 1.278 0 0 1-.152.324" data-name="Path 206"></path><path fill="#6a3ab5" d="M14.506 34.2a.219.219 0 0 1 .074.062.813.813 0 0 1 .014.845c-.051.118-.108.234-.164.351a5.182 5.182 0 0 0-.333.8 5.03 5.03 0 0 0-.067.269 2.751 2.751 0 0 1-.107.375.457.457 0 0 1-.017.044l-.061-.106a2.433 2.433 0 0 0-.5-.54 2.562 2.562 0 0 1-.333-.331 1.028 1.028 0 0 1 .011-1.272.394.394 0 0 1 .183-.146.3.3 0 0 1 .076-.009 1.368 1.368 0 0 1 .142.01c.069.006.137.013.206.013a1.223 1.223 0 0 0 .766-.274l.051-.043.052-.046m-.006-.322a.25.25 0 0 0-.075.011.686.686 0 0 0-.226.157.919.919 0 0 1-.565.2c-.116 0-.232-.023-.347-.023a.615.615 0 0 0-.16.019.7.7 0 0 0-.347.255 1.345 1.345 0 0 0-.017 1.663 2.823 2.823 0 0 0 .385.384 2.131 2.131 0 0 1 .428.46c.1.156.17.352.342.416a.1.1 0 0 0 .039.009h.01a.118.118 0 0 0 .06-.043 1.2 1.2 0 0 0 .207-.407c.076-.205.108-.423.169-.634a9.356 9.356 0 0 1 .484-1.113 1.1 1.1 0 0 0-.061-1.175.457.457 0 0 0-.325-.181" data-name="Path 207"></path><path fill="#d2d6fc" d="M15.823 36.5a.66.66 0 0 1-.625-.161.969.969 0 0 1-.3-.592 2.477 2.477 0 0 0-.027-.307.932.932 0 0 0-.2-.341 1.313 1.313 0 0 0-.268-.281.412.412 0 0 0-.662.208 7.6 7.6 0 0 0-.1 1.193 5.648 5.648 0 0 0-.024.655.726.726 0 0 0 .151.474c.227.242.6.142.856.027a4.565 4.565 0 0 0 .869-.5.872.872 0 0 0 .329-.37" data-name="Path 208"></path><path fill="#573095" d="M15.156 34.961a.584.584 0 0 1 .017.253 1.03 1.03 0 0 0 .288.748 2.846 2.846 0 0 1 .277.276.339.339 0 0 1 .048.366.316.316 0 0 1-.307.125.9.9 0 0 1-.323-.128c-.2-.113-.432-.269-.437-.5a1.794 1.794 0 0 0 .023-.3.476.476 0 0 0-.189-.261c-.287-.237-1.067-.477-.584-.88a.889.889 0 0 1 1.188.3" data-name="Path 209"></path><path fill="none" stroke="#573095" stroke-miterlimit="10" stroke-width=".637" d="M15.156 34.961a.584.584 0 0 1 .017.253 1.03 1.03 0 0 0 .288.748 2.846 2.846 0 0 1 .277.276.339.339 0 0 1 .048.366.316.316 0 0 1-.307.125.9.9 0 0 1-.323-.128c-.2-.113-.432-.269-.437-.5a1.794 1.794 0 0 0 .023-.3.476.476 0 0 0-.189-.261c-.287-.237-1.067-.477-.584-.88a.889.889 0 0 1 1.187.301Z" data-name="Path 210"></path><path fill="#d2d6fc" d="m13.259 36.568-.105-.024a19.083 19.083 0 0 0 .324-2.106 14.288 14.288 0 0 0 .107-2.14 8.89 8.89 0 0 0-.173-1.523l.105-.022a9.1 9.1 0 0 1 .175 1.542 14.681 14.681 0 0 1-.108 2.156 19.424 19.424 0 0 1-.325 2.118" data-name="Path 211"></path><path fill="#fff" d="M11.11 37.094c-.555 0-1.306-1.384-1.443-1.863a1.46 1.46 0 0 1 .409-1.527.741.741 0 0 1 .445-.174.426.426 0 0 1 .168.033.948.948 0 0 1 .212.143 1.159 1.159 0 0 0 .307.2.86.86 0 0 0 .315.052c.07 0 .335-.02.4-.02a.8.8 0 0 1 .724.711 1.341 1.341 0 0 1-.372 1c-.06.067-.123.131-.185.194a2.017 2.017 0 0 0-.422.535c-.03.063-.053.131-.077.2a1.2 1.2 0 0 1-.088.212c-.118.208-.25.313-.39.313" data-name="Path 212"></path><path fill="#6a3ab5" d="M10.521 33.689a.251.251 0 0 1 .1.02.855.855 0 0 1 .175.12 1.316 1.316 0 0 0 .349.219 1.015 1.015 0 0 0 .375.063c.072 0 .146-.005.221-.011.057 0 .116-.009.174-.009a.775.775 0 0 1 .077 0 .635.635 0 0 1 .489.565 1.182 1.182 0 0 1-.333.878c-.056.063-.117.124-.178.185a2.165 2.165 0 0 0-.455.58 2.79 2.79 0 0 0-.084.214 1.014 1.014 0 0 1-.075.184c-.061.106-.154.233-.252.233-.417 0-1.152-1.258-1.291-1.748a1.3 1.3 0 0 1 .354-1.361.6.6 0 0 1 .347-.138m0-.317a.907.907 0 0 0-.545.208 1.623 1.623 0 0 0-.462 1.694c.126.44.906 1.978 1.6 1.978.188 0 .368-.114.527-.393.075-.132.107-.283.17-.419a3.317 3.317 0 0 1 .584-.692 1.5 1.5 0 0 0 .409-1.122.945.945 0 0 0-.765-.845.9.9 0 0 0-.117-.006c-.132 0-.266.02-.4.02a.691.691 0 0 1-.259-.042c-.192-.074-.325-.255-.515-.336a.577.577 0 0 0-.23-.046" data-name="Path 213"></path><path fill="#fff" d="M11.542 37.378c-.028 0-.118 0-.235-.158a1.34 1.34 0 0 1 .182-1.825 1.246 1.246 0 0 1 .774-.262 1.2 1.2 0 0 1 .389.062.553.553 0 0 0 .189.042.484.484 0 0 0 .271-.127.53.53 0 0 1 .144.668 1.756 1.756 0 0 1-.586.649 3.327 3.327 0 0 0-.418.406c-.238.256-.506.546-.709.546" data-name="Path 214"></path><path fill="#6a3ab5" d="M12.263 35.29a1.085 1.085 0 0 1 .348.058.674.674 0 0 0 .231.047l.086-.005.042-.011a.521.521 0 0 0 .149-.071.541.541 0 0 1-.01.408 1.613 1.613 0 0 1-.536.584 3.506 3.506 0 0 0-.438.426c-.172.185-.459.494-.592.494-.023 0-.065-.037-.105-.094a1.177 1.177 0 0 1 .151-1.607 1.1 1.1 0 0 1 .675-.229m.882-.376c-.1 0-.16.132-.259.16a.168.168 0 0 1-.043.005.458.458 0 0 1-.14-.033 1.366 1.366 0 0 0-.44-.072 1.42 1.42 0 0 0-.873.3 1.5 1.5 0 0 0-.21 2.043.453.453 0 0 0 .362.223c.414 0 .856-.708 1.222-.985a1.862 1.862 0 0 0 .637-.712.767.767 0 0 0-.161-.885.178.178 0 0 0-.076-.041h-.019" data-name="Path 215"></path><path fill="#333" d="M10.408 34.8a.361.361 0 0 1 .149-.112 1.182 1.182 0 0 1 .259-.089.347.347 0 0 1 .2 0c.125.052.172.222.3.267.052.019.112.014.163.037a.163.163 0 0 1 .039.253.3.3 0 0 0-.051.047c-.038.06.023.134.03.205a.181.181 0 0 1-.085.16.421.421 0 0 1-.178.062.338.338 0 0 1-.188-.006c-.155-.063-.182-.3-.339-.357-.058-.022-.123-.013-.18-.033a.368.368 0 0 1-.114-.437" data-name="Path 216"></path><path fill="#fff" d="M11.138 37.424a.742.742 0 0 1-.257-.076 2.352 2.352 0 0 0-.783-.155 2.686 2.686 0 0 1-.511-.06 1.2 1.2 0 0 1-.9-1.163.535.535 0 0 1 .085-.319.758.758 0 0 1 .216-.174 1.89 1.89 0 0 0 .156-.109 1.039 1.039 0 0 0 .375-.6.649.649 0 0 1 .057-.2.205.205 0 0 1 .163-.06.959.959 0 0 1 .748.782c.033.124.06.251.089.378a4.824 4.824 0 0 0 .226.814c.034.082.071.163.109.245a2.879 2.879 0 0 1 .145.349 1.078 1.078 0 0 1 .083.393Z" data-name="Path 217"></path><path fill="#6a3ab5" d="m9.743 34.665.061.006a.82.82 0 0 1 .535.658c.032.124.06.251.086.376a5.2 5.2 0 0 0 .235.834c.034.086.074.17.112.253a2.758 2.758 0 0 1 .15.362l.014.043-.114-.046a2.469 2.469 0 0 0-.728-.119 2.387 2.387 0 0 1-.465-.054 1.037 1.037 0 0 1-.563-.37 1.055 1.055 0 0 1-.216-.637.412.412 0 0 1 .053-.228.725.725 0 0 1 .174-.133c.057-.038.116-.075.169-.118a1.207 1.207 0 0 0 .433-.686l.013-.065v-.005c.005-.027.013-.066 0-.066a.137.137 0 0 1 .047-.006m0-.317a.346.346 0 0 0-.292.127.7.7 0 0 0-.081.262.9.9 0 0 1-.319.507 1.905 1.905 0 0 0-.4.31.692.692 0 0 0-.117.413 1.35 1.35 0 0 0 1.02 1.32 2.733 2.733 0 0 0 .539.065 2.175 2.175 0 0 1 .623.1 1.316 1.316 0 0 0 .426.133.345.345 0 0 0 .1-.015.1.1 0 0 0 .044-.025.108.108 0 0 0 .02-.07 1.2 1.2 0 0 0-.089-.447c-.066-.208-.177-.4-.259-.6a9.637 9.637 0 0 1-.309-1.172 1.1 1.1 0 0 0-.774-.887.622.622 0 0 0-.128-.014" data-name="Path 218"></path><path fill="#d2d6fc" d="M12.17 35.672a.662.662 0 0 1-.592.259.975.975 0 0 1-.6-.28 2.519 2.519 0 0 0-.211-.224.957.957 0 0 0-.366-.148 1.372 1.372 0 0 0-.385-.054.411.411 0 0 0-.393.57 7.726 7.726 0 0 0 .659 1 5.68 5.68 0 0 0 .387.531.726.726 0 0 0 .412.279c.329.051.555-.255.69-.506a4.6 4.6 0 0 0 .372-.931.878.878 0 0 0 .029-.494" data-name="Path 219"></path><path fill="#573095" d="M10.692 34.87a.6.6 0 0 1 .17.189 1.041 1.041 0 0 0 .69.412 2.831 2.831 0 0 1 .389.046.343.343 0 0 1 .264.259.314.314 0 0 1-.164.288.9.9 0 0 1-.334.1.69.69 0 0 1-.653-.124 1.962 1.962 0 0 0-.165-.248.481.481 0 0 0-.311-.087c-.372-.01-1.135.281-1-.333a.888.888 0 0 1 1.118-.5" data-name="Path 220"></path><path fill="none" stroke="#573095" stroke-miterlimit="10" stroke-width=".637" d="M10.692 34.87a.6.6 0 0 1 .17.189 1.041 1.041 0 0 0 .69.412 2.831 2.831 0 0 1 .389.046.343.343 0 0 1 .264.259.314.314 0 0 1-.164.288.9.9 0 0 1-.334.1.69.69 0 0 1-.653-.124 1.962 1.962 0 0 0-.165-.248.481.481 0 0 0-.311-.087c-.372-.01-1.135.281-1-.333a.888.888 0 0 1 1.114-.502Z" data-name="Path 221"></path><path fill="#d2d6fc" d="M11.652 40.734a2.646 2.646 0 0 1-.393-.033l.017-.105a3.634 3.634 0 0 0 1.835-.265 7.643 7.643 0 0 0 3.706-2.891 3.15 3.15 0 0 0 .476-1.01l.1.024a3.168 3.168 0 0 1-.492 1.044 7.73 7.73 0 0 1-3.758 2.933 4.248 4.248 0 0 1-1.5.3" data-name="Path 222"></path><path fill="#fff" d="M8.688 39.643a.835.835 0 0 1-.3-.07 1.276 1.276 0 0 1-.2-.112 1.9 1.9 0 0 0-.184-.109 1.991 1.991 0 0 0-.667-.161 4.757 4.757 0 0 1-.263-.038 1.338 1.338 0 0 1-.908-.558.782.782 0 0 1 .057-.94 1.3 1.3 0 0 1 .225-.172 1.157 1.157 0 0 0 .387-.356 1.208 1.208 0 0 0 .122-.345 1.042 1.042 0 0 1 .076-.242.649.649 0 0 1 .567-.266 1.473 1.473 0 0 1 1.272.95 3.577 3.577 0 0 1 .1 2.266.314.314 0 0 1-.281.152" data-name="Path 223"></path><path fill="#6a3ab5" d="M7.6 36.116v.317a1.308 1.308 0 0 1 1.121.853 3.456 3.456 0 0 1 .115 2.114.157.157 0 0 1-.149.081.669.669 0 0 1-.239-.058 1.161 1.161 0 0 1-.173-.1 2.079 2.079 0 0 0-.2-.117 2.159 2.159 0 0 0-.718-.177c-.085-.01-.17-.02-.254-.037a1.181 1.181 0 0 1-.805-.485.633.633 0 0 1 .036-.745 1.2 1.2 0 0 1 .2-.152 1.077 1.077 0 0 0 .574-.795.871.871 0 0 1 .064-.2.492.492 0 0 1 .424-.185Zm0 0a.789.789 0 0 0-.7.35c-.1.18-.091.4-.2.58-.133.223-.408.314-.59.5a.943.943 0 0 0-.08 1.137 1.506 1.506 0 0 0 1.016.63 3.346 3.346 0 0 1 .888.185c.135.068.253.169.393.226a.972.972 0 0 0 .36.081c.945 0 .53-2.152.332-2.636a1.627 1.627 0 0 0-1.413-1.049Z" data-name="Path 224"></path><path fill="#fff" d="M8.411 40.14a3.689 3.689 0 0 1-.581-.066 3.9 3.9 0 0 0-.558-.062h-.03a1.756 1.756 0 0 1-.855-.15.614.614 0 0 1-.342-.62l.257-.016a.411.411 0 0 0 .193-.186 1.268 1.268 0 0 1 1.037-.565A1.342 1.342 0 0 1 8.81 39.8a.338.338 0 0 1-.066.251.467.467 0 0 1-.333.09" data-name="Path 225"></path><path fill="#6a3ab5" d="m7.531 38.316.006.317A1.181 1.181 0 0 1 8.652 39.8a.217.217 0 0 1-.023.136c0 .005-.044.042-.219.042a3.765 3.765 0 0 1-.556-.063 3.832 3.832 0 0 0-.606-.065h-.09a1.485 1.485 0 0 1-.695-.131.552.552 0 0 1-.26-.314.509.509 0 0 0 .161-.037.6.6 0 0 0 .271-.255 1.093 1.093 0 0 1 .9-.485Zm0 0a1.415 1.415 0 0 0-1.164.63.322.322 0 0 1-.126.134.233.233 0 0 1-.084.014c-.039 0-.083-.006-.121-.006a.14.14 0 0 0-.113.041.171.171 0 0 0-.034.077.767.767 0 0 0 .421.8 1.754 1.754 0 0 0 .847.17h.114c.316 0 .776.128 1.138.128.327 0 .573-.105.559-.5a1.5 1.5 0 0 0-1.428-1.488h-.009" data-name="Path 226"></path><path fill="#333" d="M8.021 37.339a.36.36 0 0 0-.187 0 1.245 1.245 0 0 0-.258.09.34.34 0 0 0-.152.123c-.067.118 0 .28-.07.394-.03.047-.08.08-.105.129a.161.161 0 0 0 .125.223.312.312 0 0 1 .07.006c.067.024.066.119.1.18a.181.181 0 0 0 .165.074.431.431 0 0 0 .181-.058.334.334 0 0 0 .144-.12c.084-.146-.043-.349.047-.49.032-.052.088-.085.121-.137.071-.113-.058-.376-.18-.414" data-name="Path 227"></path><path fill="#fff" d="M9.05 39.87a2.99 2.99 0 0 1-.127-.309 2.906 2.906 0 0 1-.111-.394 5.64 5.64 0 0 0-.065-.256 5.182 5.182 0 0 0-.321-.772c-.057-.119-.116-.24-.169-.36a.961.961 0 0 1 .037-1.01.308.308 0 0 1 .2-.124.336.336 0 0 1 .151.087 1.108 1.108 0 0 0 .717.283c.064 0 .3-.023.348-.023a.551.551 0 0 1 .384.214 1.191 1.191 0 0 1 .013 1.468 2.7 2.7 0 0 1-.362.36 2.261 2.261 0 0 0-.459.5c-.109.194-.168.3-.238.34" data-name="Path 228"></path><path fill="#6a3ab5" d="M8.489 36.807a.569.569 0 0 1 .053.046l.051.042a1.224 1.224 0 0 0 .767.274c.069 0 .136-.006.2-.013a1.368 1.368 0 0 1 .142-.01.251.251 0 0 1 .076.009.394.394 0 0 1 .183.146 1.028 1.028 0 0 1 .011 1.272 2.613 2.613 0 0 1-.342.338 2.4 2.4 0 0 0-.489.532l-.061.106-.029-.076a2.855 2.855 0 0 1-.094-.343 5.03 5.03 0 0 0-.067-.269 5.1 5.1 0 0 0-.333-.8c-.056-.117-.113-.233-.164-.352a.813.813 0 0 1 .014-.845.221.221 0 0 1 .072-.062m.008-.322a.457.457 0 0 0-.325.181 1.1 1.1 0 0 0-.06 1.175 9.56 9.56 0 0 1 .483 1.113c.061.21.093.428.169.634a1.2 1.2 0 0 0 .207.407.108.108 0 0 0 .06.042h.01a.1.1 0 0 0 .039-.009c.172-.063.245-.26.342-.416a2.137 2.137 0 0 1 .428-.461 2.744 2.744 0 0 0 .385-.383 1.345 1.345 0 0 0-.017-1.663.7.7 0 0 0-.347-.255.615.615 0 0 0-.16-.019c-.114 0-.231.023-.347.023a.913.913 0 0 1-.565-.2.7.7 0 0 0-.226-.156.25.25 0 0 0-.075-.011" data-name="Path 229"></path><path fill="#d2d6fc" d="M7.174 39.112a.663.663 0 0 0 .625-.161.969.969 0 0 0 .3-.592 2.456 2.456 0 0 1 .027-.307.963.963 0 0 1 .2-.342 1.343 1.343 0 0 1 .269-.28.412.412 0 0 1 .662.208 7.6 7.6 0 0 1 .1 1.193 5.648 5.648 0 0 1 .024.655.726.726 0 0 1-.151.474c-.227.242-.6.142-.856.027a4.565 4.565 0 0 1-.869-.5.888.888 0 0 1-.329-.37" data-name="Path 230"></path><path fill="#573095" d="M7.841 37.571a.584.584 0 0 0-.017.253 1.035 1.035 0 0 1-.288.749 2.7 2.7 0 0 0-.277.275.34.34 0 0 0-.048.366.314.314 0 0 0 .307.125.9.9 0 0 0 .323-.128c.2-.113.432-.269.437-.5a1.794 1.794 0 0 1-.023-.3.476.476 0 0 1 .189-.261c.287-.237 1.067-.477.584-.88a.889.889 0 0 0-1.188.3" data-name="Path 231"></path><path fill="none" stroke="#573095" stroke-miterlimit="10" stroke-width=".637" d="M7.841 37.571a.584.584 0 0 0-.017.253 1.035 1.035 0 0 1-.288.749 2.7 2.7 0 0 0-.277.275.34.34 0 0 0-.048.366.314.314 0 0 0 .307.125.9.9 0 0 0 .323-.128c.2-.113.432-.269.437-.5a1.794 1.794 0 0 1-.023-.3.476.476 0 0 1 .189-.261c.287-.237 1.067-.477.584-.88a.889.889 0 0 0-1.187.301Z" data-name="Path 232"></path><path fill="#fff" d="M12.979 39.643a.314.314 0 0 1-.281-.151 3.581 3.581 0 0 1 .1-2.267 1.473 1.473 0 0 1 1.269-.95.648.648 0 0 1 .568.267.978.978 0 0 1 .077.243 1.194 1.194 0 0 0 .122.342 1.145 1.145 0 0 0 .387.356 1.365 1.365 0 0 1 .225.171.784.784 0 0 1 .057.942 1.338 1.338 0 0 1-.911.558c-.086.016-.174.027-.262.038a1.991 1.991 0 0 0-.667.161 1.88 1.88 0 0 0-.183.109 1.336 1.336 0 0 1-.2.112.829.829 0 0 1-.3.07" data-name="Path 233"></path><path fill="#6a3ab5" d="M14.067 36.116v.317a.492.492 0 0 1 .424.185.937.937 0 0 1 .064.2 1.068 1.068 0 0 0 .574.795 1.2 1.2 0 0 1 .2.152.633.633 0 0 1 .036.745 1.181 1.181 0 0 1-.805.485 3.612 3.612 0 0 1-.254.037 2.152 2.152 0 0 0-.718.177 2.079 2.079 0 0 0-.2.117 1.161 1.161 0 0 1-.173.1.669.669 0 0 1-.239.058.157.157 0 0 1-.149-.081 3.456 3.456 0 0 1 .112-2.118 1.308 1.308 0 0 1 1.121-.853Zm0 0h-.007a1.627 1.627 0 0 0-1.413 1.049c-.2.484-.614 2.636.332 2.636a.961.961 0 0 0 .358-.081c.141-.057.259-.157.394-.226a3.346 3.346 0 0 1 .888-.185 1.509 1.509 0 0 0 1.016-.63.943.943 0 0 0-.08-1.137c-.183-.182-.457-.274-.59-.5-.105-.176-.1-.4-.2-.58a.785.785 0 0 0-.7-.35" data-name="Path 234"></path><path fill="#fff" d="M13.256 40.14a.467.467 0 0 1-.333-.09.333.333 0 0 1-.066-.251 1.339 1.339 0 0 1 1.27-1.324 1.265 1.265 0 0 1 1.038.558.448.448 0 0 0 .2.194l.03.013.114.014.138-.005a.671.671 0 0 1-.366.615 1.625 1.625 0 0 1-.771.151h-.01a3.822 3.822 0 0 0-.659.061 3.689 3.689 0 0 1-.581.066" data-name="Path 235"></path><path fill="#6a3ab5" d="M14.134 38.316v.317a1.1 1.1 0 0 1 .9.5.586.586 0 0 0 .266.245.5.5 0 0 0 .16.037.542.542 0 0 1-.26.314 1.485 1.485 0 0 1-.695.131h-.114a3.869 3.869 0 0 0-.582.065 3.765 3.765 0 0 1-.556.063c-.174 0-.215-.037-.219-.042a.215.215 0 0 1-.023-.134 1.182 1.182 0 0 1 1.114-1.172Zm0 0h-.009a1.5 1.5 0 0 0-1.425 1.478c-.014.4.232.5.559.5.362 0 .822-.128 1.138-.128h.114a1.759 1.759 0 0 0 .849-.17.768.768 0 0 0 .419-.8.171.171 0 0 0-.034-.077.14.14 0 0 0-.113-.041c-.038 0-.081.006-.121.006a.233.233 0 0 1-.084-.014.322.322 0 0 1-.126-.134 1.413 1.413 0 0 0-1.164-.63" data-name="Path 236"></path><path fill="#333" d="M13.645 37.339a.36.36 0 0 1 .187 0 1.245 1.245 0 0 1 .258.09.34.34 0 0 1 .152.123c.067.118 0 .28.07.394.03.047.08.08.105.129a.161.161 0 0 1-.125.223.312.312 0 0 0-.07.006c-.067.024-.066.119-.1.18a.184.184 0 0 1-.166.074.437.437 0 0 1-.178-.061.334.334 0 0 1-.144-.12c-.084-.146.043-.349-.046-.49-.033-.052-.089-.085-.122-.137-.071-.113.058-.376.18-.414" data-name="Path 237"></path><path fill="#fff" d="M12.6 39.858a.718.718 0 0 1-.16-.221 2.341 2.341 0 0 0-.52-.6 2.654 2.654 0 0 1-.365-.361 1.189 1.189 0 0 1 .015-1.476.548.548 0 0 1 .266-.2c.08-.006.135-.009.174-.009s.229.016.292.016a1.054 1.054 0 0 0 .666-.238.637.637 0 0 1 .172-.127h.011a.287.287 0 0 1 .22.119.959.959 0 0 1 .039 1.01c-.052.12-.111.237-.168.355a4.993 4.993 0 0 0-.324.777c-.025.086-.044.174-.066.261a2.937 2.937 0 0 1-.1.362 1.226 1.226 0 0 1-.152.326" data-name="Path 238"></path><path fill="#6a3ab5" d="M13.176 36.807a.23.23 0 0 1 .072.062.813.813 0 0 1 .014.845c-.051.118-.108.234-.164.351a5.06 5.06 0 0 0-.333.8c-.025.089-.046.179-.067.267a2.829 2.829 0 0 1-.107.378l-.017.043-.061-.106a2.455 2.455 0 0 0-.5-.542 2.523 2.523 0 0 1-.33-.328 1.028 1.028 0 0 1 .011-1.272.394.394 0 0 1 .183-.146.251.251 0 0 1 .076-.009 1.343 1.343 0 0 1 .142.01c.069.006.136.013.206.013a1.223 1.223 0 0 0 .766-.274l.05-.043h.005l.053-.046m-.008-.322a.25.25 0 0 0-.075.011.7.7 0 0 0-.226.156.913.913 0 0 1-.565.2c-.116 0-.232-.023-.347-.023a.615.615 0 0 0-.16.019.7.7 0 0 0-.347.255 1.345 1.345 0 0 0-.017 1.663 2.813 2.813 0 0 0 .385.383 2.106 2.106 0 0 1 .428.461c.1.156.17.352.342.416a.1.1 0 0 0 .039.009h.01a.108.108 0 0 0 .06-.042 1.2 1.2 0 0 0 .207-.407c.076-.205.108-.423.169-.634a9.356 9.356 0 0 1 .484-1.113 1.1 1.1 0 0 0-.061-1.175.457.457 0 0 0-.325-.181" data-name="Path 239"></path><path fill="#d2d6fc" d="M14.491 39.112a.663.663 0 0 1-.625-.161.969.969 0 0 1-.3-.592 2.456 2.456 0 0 0-.027-.307.948.948 0 0 0-.2-.342 1.337 1.337 0 0 0-.268-.28.412.412 0 0 0-.662.208 7.6 7.6 0 0 0-.1 1.193 5.647 5.647 0 0 0-.024.655.726.726 0 0 0 .151.474c.227.242.6.142.856.027a4.565 4.565 0 0 0 .869-.5.888.888 0 0 0 .329-.37" data-name="Path 240"></path><path fill="#573095" d="M13.825 37.571a.565.565 0 0 1 .015.253 1.036 1.036 0 0 0 .29.749 2.833 2.833 0 0 1 .277.275.34.34 0 0 1 .048.366.316.316 0 0 1-.309.125.931.931 0 0 1-.324-.128c-.2-.113-.429-.269-.435-.5a2.119 2.119 0 0 0 .023-.3.472.472 0 0 0-.191-.261c-.286-.237-1.067-.477-.584-.88a.891.891 0 0 1 1.189.3" data-name="Path 241"></path><path fill="none" stroke="#573095" stroke-miterlimit="10" stroke-width=".637" d="M13.825 37.571a.565.565 0 0 1 .015.253 1.036 1.036 0 0 0 .29.749 2.833 2.833 0 0 1 .277.275.34.34 0 0 1 .048.366.316.316 0 0 1-.309.125.931.931 0 0 1-.324-.128c-.2-.113-.429-.269-.435-.5a2.119 2.119 0 0 0 .023-.3.472.472 0 0 0-.191-.261c-.286-.237-1.067-.477-.584-.88a.891.891 0 0 1 1.19.301Z" data-name="Path 242"></path><path fill="#fff" d="M11.11 40.744c-.555 0-1.306-1.384-1.443-1.863a1.459 1.459 0 0 1 .409-1.527.744.744 0 0 1 .445-.174.43.43 0 0 1 .168.033.948.948 0 0 1 .212.143 1.159 1.159 0 0 0 .307.2.858.858 0 0 0 .316.052c.069 0 .333-.02.4-.02a.8.8 0 0 1 .725.71 1.339 1.339 0 0 1-.372 1c-.06.067-.123.131-.185.2a2 2 0 0 0-.422.535 2.037 2.037 0 0 0-.077.2 1.225 1.225 0 0 1-.088.21c-.119.209-.25.314-.39.314" data-name="Path 243"></path><path fill="#6a3ab5" d="M10.521 37.339a.251.251 0 0 1 .1.02.855.855 0 0 1 .175.12 1.316 1.316 0 0 0 .349.219 1.015 1.015 0 0 0 .375.063c.072 0 .146-.005.22-.011.058 0 .117-.009.175-.009h.077a.635.635 0 0 1 .489.565 1.182 1.182 0 0 1-.333.878c-.056.063-.117.124-.178.185a2.164 2.164 0 0 0-.455.58 2.79 2.79 0 0 0-.084.214 1.014 1.014 0 0 1-.075.184c-.061.106-.154.233-.252.233-.417 0-1.152-1.258-1.291-1.748a1.3 1.3 0 0 1 .354-1.361.6.6 0 0 1 .347-.138m0-.317a.907.907 0 0 0-.545.208 1.623 1.623 0 0 0-.462 1.694c.126.44.906 1.978 1.6 1.978.188 0 .368-.114.527-.393.075-.132.107-.283.17-.419a3.317 3.317 0 0 1 .584-.692 1.5 1.5 0 0 0 .409-1.122.945.945 0 0 0-.765-.845.916.916 0 0 0-.117-.006c-.132 0-.266.02-.4.02a.691.691 0 0 1-.259-.042c-.192-.074-.325-.255-.515-.336a.577.577 0 0 0-.23-.046" data-name="Path 244"></path><path fill="#fff" d="M11.542 41.028c-.029 0-.118 0-.235-.158a1.338 1.338 0 0 1 .182-1.824 1.242 1.242 0 0 1 .774-.264 1.2 1.2 0 0 1 .389.062.574.574 0 0 0 .191.043.491.491 0 0 0 .269-.128.53.53 0 0 1 .144.668 1.744 1.744 0 0 1-.586.648 3.639 3.639 0 0 0-.418.407c-.238.256-.506.546-.709.546" data-name="Path 245"></path><path fill="#6a3ab5" d="M12.263 38.939a1.079 1.079 0 0 1 .348.058.674.674 0 0 0 .231.047l.086-.005.042-.011a.521.521 0 0 0 .149-.071.541.541 0 0 1-.01.408 1.621 1.621 0 0 1-.535.584 3.426 3.426 0 0 0-.44.426c-.172.185-.459.494-.592.494-.023 0-.064-.037-.105-.094a1.177 1.177 0 0 1 .151-1.607 1.1 1.1 0 0 1 .675-.229m.882-.376c-.1 0-.16.132-.259.16a.161.161 0 0 1-.043.005.458.458 0 0 1-.14-.033 1.36 1.36 0 0 0-.44-.072 1.422 1.422 0 0 0-.873.3 1.5 1.5 0 0 0-.21 2.043.453.453 0 0 0 .362.223c.414 0 .856-.708 1.222-.985a1.862 1.862 0 0 0 .637-.712.767.767 0 0 0-.161-.885.165.165 0 0 0-.076-.041h-.019" data-name="Path 246"></path><path fill="#333" d="M10.408 38.448a.361.361 0 0 1 .149-.112 1.252 1.252 0 0 1 .259-.089.336.336 0 0 1 .2 0c.125.051.172.221.3.266.052.019.112.014.163.037a.163.163 0 0 1 .039.253.3.3 0 0 0-.051.047c-.038.061.023.134.03.205a.181.181 0 0 1-.085.16.421.421 0 0 1-.178.062.338.338 0 0 1-.188-.006c-.155-.063-.182-.3-.339-.357-.058-.02-.123-.013-.18-.033a.368.368 0 0 1-.114-.437" data-name="Path 247"></path><path fill="#fff" d="M11.137 41.074a.725.725 0 0 1-.258-.074 2.371 2.371 0 0 0-.78-.153 2.657 2.657 0 0 1-.511-.06 1.188 1.188 0 0 1-.9-1.163.526.526 0 0 1 .085-.319.773.773 0 0 1 .215-.175 1.788 1.788 0 0 0 .156-.106 1.043 1.043 0 0 0 .376-.6.583.583 0 0 1 .057-.205.2.2 0 0 1 .163-.06.96.96 0 0 1 .748.782c.033.124.06.251.088.378a4.95 4.95 0 0 0 .227.814c.033.084.072.165.108.246a2.755 2.755 0 0 1 .146.347 1.079 1.079 0 0 1 .081.393Z" data-name="Path 248"></path><path fill="#6a3ab5" d="m9.743 38.315.061.006a.82.82 0 0 1 .535.658c.032.124.06.251.088.376a5.075 5.075 0 0 0 .234.835c.034.085.074.169.112.252a2.757 2.757 0 0 1 .15.362l.014.043-.114-.046a2.47 2.47 0 0 0-.729-.119 2.373 2.373 0 0 1-.464-.055 1.054 1.054 0 0 1-.563-.37 1.027 1.027 0 0 1-.215-.637.4.4 0 0 1 .052-.228.725.725 0 0 1 .174-.133c.057-.038.116-.075.169-.118a1.2 1.2 0 0 0 .433-.686l.014-.065v-.005c.005-.027.013-.066 0-.066a.131.131 0 0 1 .047-.006m0-.317a.346.346 0 0 0-.292.127.7.7 0 0 0-.081.262.9.9 0 0 1-.319.507 1.938 1.938 0 0 0-.4.31.691.691 0 0 0-.116.413 1.35 1.35 0 0 0 1.017 1.32 2.745 2.745 0 0 0 .54.065 2.173 2.173 0 0 1 .621.1 1.325 1.325 0 0 0 .426.133.345.345 0 0 0 .1-.015.1.1 0 0 0 .044-.025.108.108 0 0 0 .02-.07 1.2 1.2 0 0 0-.089-.447c-.066-.208-.177-.4-.258-.6a9.194 9.194 0 0 1-.309-1.172 1.1 1.1 0 0 0-.775-.887.612.612 0 0 0-.127-.017" data-name="Path 249"></path><path fill="#d2d6fc" d="M12.17 39.322a.662.662 0 0 1-.592.259.975.975 0 0 1-.6-.28 2.519 2.519 0 0 0-.211-.224.957.957 0 0 0-.366-.148 1.372 1.372 0 0 0-.385-.054.411.411 0 0 0-.393.57 7.726 7.726 0 0 0 .659 1 5.68 5.68 0 0 0 .387.531.726.726 0 0 0 .412.279c.329.051.555-.255.69-.506a4.6 4.6 0 0 0 .372-.931.878.878 0 0 0 .029-.494" data-name="Path 250"></path><path fill="#573095" d="M10.692 38.52a.582.582 0 0 1 .17.189 1.041 1.041 0 0 0 .69.412 2.831 2.831 0 0 1 .389.046.343.343 0 0 1 .264.259.314.314 0 0 1-.164.288.9.9 0 0 1-.334.1.69.69 0 0 1-.653-.124 1.962 1.962 0 0 0-.165-.248.481.481 0 0 0-.311-.087c-.372-.01-1.135.281-1-.333a.888.888 0 0 1 1.118-.5" data-name="Path 251"></path><path fill="none" stroke="#573095" stroke-miterlimit="10" stroke-width=".637" d="M10.692 38.52a.582.582 0 0 1 .17.189 1.041 1.041 0 0 0 .69.412 2.831 2.831 0 0 1 .389.046.343.343 0 0 1 .264.259.314.314 0 0 1-.164.288.9.9 0 0 1-.334.1.69.69 0 0 1-.653-.124 1.962 1.962 0 0 0-.165-.248.481.481 0 0 0-.311-.087c-.372-.01-1.135.281-1-.333a.888.888 0 0 1 1.114-.502Z" data-name="Path 252"></path><path fill="#d2d6fc" d="M13.17 29.825a5.871 5.871 0 0 0 .342-.839 3.106 3.106 0 0 1 .372 1.231 1.993 1.993 0 0 1-.3 1.234 1.3 1.3 0 0 0 .017-.343 2.233 2.233 0 0 0-.1-.332c0 .2 0 .406-.005.608a1.28 1.28 0 0 1-.316-1.559" data-name="Path 253"></path><path fill="#d2d6fc" d="M7.145 29.541a5.816 5.816 0 0 0-.133-.9 3.141 3.141 0 0 1 .948.871 1.989 1.989 0 0 1 .366 1.218 1.289 1.289 0 0 0-.16-.3 2.276 2.276 0 0 0-.259-.233q.16.259.306.527c-.621-.018-.966-.639-1.067-1.182" data-name="Path 254"></path><path fill="#d2d6fc" d="M4.346 36.486a5.624 5.624 0 0 0-.175-.89 3.148 3.148 0 0 1 .99.826 1.992 1.992 0 0 1 .421 1.2 1.289 1.289 0 0 0-.174-.3 2.334 2.334 0 0 0-.271-.222c.116.169.225.34.332.513-.623.011-.995-.594-1.122-1.132" data-name="Path 255"></path><path fill="#d2d6fc" d="M17.3 35.519a5.762 5.762 0 0 0 .626-.656 3.114 3.114 0 0 1-.105 1.281 1.994 1.994 0 0 1-.738 1.038 1.264 1.264 0 0 0 .142-.313 2.262 2.262 0 0 0 .025-.349q-.107.285-.229.565a1.28 1.28 0 0 1 .278-1.566" data-name="Path 256"></path><path fill="#d2d6fc" d="M28.158 37.739a2.084 2.084 0 0 0-1.61-.673 5.026 5.026 0 0 0-3.222 1.12c-.54.431-1.021.928-1.546 1.376a7.455 7.455 0 0 1-1.6.953 13.656 13.656 0 0 1-2.249.9 6.347 6.347 0 0 1-2.214.327 4.233 4.233 0 0 1-.938-.342 81.167 81.167 0 0 1-1.068-.413c-.149-.06-.628-.332-.772-.143a.26.26 0 0 0-.036.163 6.638 6.638 0 0 1-.065.926.547.547 0 0 1-.064.219.531.531 0 0 1-.142.139 4.985 4.985 0 0 1-1.138.586 3.1 3.1 0 0 1-1.241.162c-.577-.029-1.143-.157-1.719-.217a.54.54 0 0 0-.344.042c-.216.131-.166.452-.081.688a.684.684 0 0 0-.286.8 1.494 1.494 0 0 1 .1.267 1.849 1.849 0 0 1-.011.29 1.086 1.086 0 0 0 .3.635 6.358 6.358 0 0 0 1.335 1.338 2.933 2.933 0 0 0 1.776.572 6.119 6.119 0 0 0 2.58-1.12 19.72 19.72 0 0 1 5.929-1.854 20.792 20.792 0 0 0 4.613-1.337 8.561 8.561 0 0 0 3.689-2.986 2.632 2.632 0 0 0 .516-1.366 1.79 1.79 0 0 0-.409-.956c-.027-.034-.052-.068-.08-.1" data-name="Path 257"></path><path fill="none" stroke="#6a3ab5" stroke-miterlimit="10" stroke-width=".409" d="M28.158 37.739a2.084 2.084 0 0 0-1.61-.673 5.026 5.026 0 0 0-3.222 1.12c-.54.431-1.021.928-1.546 1.376a7.455 7.455 0 0 1-1.6.953 13.656 13.656 0 0 1-2.249.9 6.347 6.347 0 0 1-2.214.327 4.233 4.233 0 0 1-.938-.342 81.167 81.167 0 0 1-1.068-.413c-.149-.06-.628-.332-.772-.143a.26.26 0 0 0-.036.163 6.638 6.638 0 0 1-.065.926.547.547 0 0 1-.064.219.531.531 0 0 1-.142.139 4.985 4.985 0 0 1-1.138.586 3.1 3.1 0 0 1-1.241.162c-.577-.029-1.143-.157-1.719-.217a.54.54 0 0 0-.344.042c-.216.131-.166.452-.081.688a.684.684 0 0 0-.286.8 1.494 1.494 0 0 1 .1.267 1.849 1.849 0 0 1-.011.29 1.086 1.086 0 0 0 .3.635 6.358 6.358 0 0 0 1.335 1.338 2.933 2.933 0 0 0 1.776.572 6.119 6.119 0 0 0 2.58-1.12 19.72 19.72 0 0 1 5.929-1.854 20.792 20.792 0 0 0 4.613-1.337 8.561 8.561 0 0 0 3.689-2.986 2.632 2.632 0 0 0 .516-1.366 1.79 1.79 0 0 0-.409-.956c-.03-.03-.055-.064-.083-.096Z" data-name="Path 258"></path><path fill="#6a3ab5" d="M6.721 7.132a6.837 6.837 0 0 1 7-7.132c4.059 0 7.7 3 7.7 7.132s-3.528 8.041-7.587 8.041-7.112-3.91-7.112-8.041" data-name="Path 259"></path><path fill="#eaa37e" d="M8.879 11.63a6.023 6.023 0 0 1 3 .33 1.914 1.914 0 0 1-1.53.541 2.315 2.315 0 0 1-1.471-.871" data-name="Path 260"></path><path fill="#d2d6fc" d="M17.44 16.5c-.064-.042-.127-.074-.192-.113.005-.053.017-.1.019-.157l-.178-6.343a8.821 8.821 0 0 0 1.18-4.3 5.231 5.231 0 0 0-10.461 0v2.965a10.5 10.5 0 0 0 .56 3c.529 1.86 1.366 3.232 2.494 3.232a2.5 2.5 0 0 0 .409-.041l.048.607.169 2.1a13.975 13.975 0 0 0-.9 3.749 1.883 1.883 0 0 0 2.8 1.857c4.379-2.538 5.2-5.789 4.048-6.56" data-name="Path 261"></path><path fill="none" stroke="#6a3ab5" stroke-miterlimit="10" stroke-width=".409" d="M17.44 16.5c-.064-.042-.127-.074-.192-.113.005-.053.017-.1.019-.157l-.178-6.343a8.821 8.821 0 0 0 1.18-4.3 5.231 5.231 0 0 0-10.461 0v2.965a10.5 10.5 0 0 0 .56 3c.529 1.86 1.366 3.232 2.494 3.232a2.5 2.5 0 0 0 .409-.041l.048.607.169 2.1a13.975 13.975 0 0 0-.9 3.749 1.883 1.883 0 0 0 2.8 1.857c4.384-2.534 5.203-5.785 4.052-6.556Z" data-name="Path 262"></path><path fill="#efc29b" d="M17.647 6.15a.93.93 0 0 0-.647.161 1.247 1.247 0 0 1 0 1.824c.793.841-.163 1.65-.245 1.729a.787.787 0 0 0 .306.1.692.692 0 0 0 .766-.482l.6-2.35a.83.83 0 0 0-.776-.983" data-name="Path 263"></path><path fill="#efc29b" d="M17.487 8.219c.677 1.351-.427 1.644-.733 1.645a.94.94 0 0 0 .3.1.694.694 0 0 0 .767-.48l.6-2.35a.83.83 0 0 0-.776-.985.959.959 0 0 0-.536.1 1.009 1.009 0 0 1 .151 0c.5.056 1.805.416.225 1.967" data-name="Path 264"></path><path fill="#6a3ab5" d="M9.94 1.912C9.888 5.48 8.075 6.146 7.5 7.89c-.476 1.455-.052-3.565.278-4.352A7.9 7.9 0 0 1 9.656 1.3c.629-.584.285.61.285.61" data-name="Path 265"></path><path fill="#381077" d="M17.356 9.469a.813.813 0 1 1-.813-.811.812.812 0 0 1 .813.811" data-name="Path 266"></path><path fill="#6a3ab5" d="M9.863 1.3c-1.718 4.033 4.748 2.613 6.375 6.364a10.95 10.95 0 0 1 .913 4.413s2.2-.618 2.4-2.11c.382-2.75 1.873-4.413.052-6.632C17.378.622 12.939-.284 10.588.8c-.37.17-.607.229-.725.506" data-name="Path 267"></path><path fill="#d2d6fc" d="M25.527 36.443c.173-.079.353-.228.327-.416a.512.512 0 0 0-.189-.278 1.528 1.528 0 0 0 .391-.48.52.52 0 0 0-.079-.579.4.4 0 0 0 .009-.55 1.18 1.18 0 0 0-.521-.308.373.373 0 0 0-.018-.406.75.75 0 0 0-.337-.259c-.386-.172-.83-.188-1.211-.371a.646.646 0 0 1-.384-.406c-.047-.21.074-.45-.037-.635a.47.47 0 0 0-.512-.147.726.726 0 0 0-.387.21.808.808 0 0 0-.179.475 1.5 1.5 0 0 0 .347 1.08.36.36 0 0 0-.185.279.771.771 0 0 0 .048.348 1.951 1.951 0 0 0 .512.8.907.907 0 0 0 .014.681c.111.255.4.352.5.559.306.663 1.312.67 1.893.4" data-name="Path 268"></path><path fill="none" stroke="#6a3ab5" stroke-miterlimit="10" stroke-width=".409" d="M25.527 36.443c.173-.079.353-.228.327-.416a.512.512 0 0 0-.189-.278 1.528 1.528 0 0 0 .391-.48.52.52 0 0 0-.079-.579.4.4 0 0 0 .009-.55 1.18 1.18 0 0 0-.521-.308.373.373 0 0 0-.018-.406.75.75 0 0 0-.337-.259c-.386-.172-.83-.188-1.211-.371a.646.646 0 0 1-.384-.406c-.047-.21.074-.45-.037-.635a.47.47 0 0 0-.512-.147.726.726 0 0 0-.387.21.808.808 0 0 0-.179.475 1.5 1.5 0 0 0 .347 1.08.36.36 0 0 0-.185.279.771.771 0 0 0 .048.348 1.951 1.951 0 0 0 .512.8.907.907 0 0 0 .014.681c.111.255.4.352.5.559.304.66 1.31.669 1.891.403Z" data-name="Path 269"></path></g></g></svg>