<svg xmlns="http://www.w3.org/2000/svg" viewBox="0 0.01 143 141.99">
  <path d="M133.27,45.16L117.22,22.7C114.18,17.93,108.78,15,103.07,15H40.07c-5.71,0-11.11,2.93-14.15,7.7L9.01,45.16c-2.2,3.16-3.44,7.05-3.44,11.07v55.75c0,6.9,5.6,12.5,12.5,12.5h6.74c6.9,0,12.5-5.6,12.5-12.5v-12.5h70v12.5c0,6.9,5.6,12.5,12.5,12.5h6.74c6.9,0,12.5-5.6,12.5-12.5V56.23C136.71,52.21,135.47,48.32,133.27,45.16ZM40.07,25h63c2.38,0,4.6,1.22,5.93,3.24L124.06,50H18.93L34.14,28.24C35.47,26.22,37.69,25,40.07,25ZM31.25,121.48c-4.14,0-7.5-3.36-7.5-7.5s3.36-7.5,7.5-7.5,7.5,3.36,7.5,7.5S35.39,121.48,31.25,121.48Zm90.5,0c-4.14,0-7.5-3.36-7.5-7.5s3.36-7.5,7.5-7.5,7.5,3.36,7.5,7.5S125.89,121.48,121.75,121.48Z" fill="#ff69b4"/>
  <circle cx="31.25" cy="113.98" r="7.5" fill="#555"/>
  <circle cx="121.75" cy="113.98" r="7.5" fill="#555"/>
  <rect x="18.93" y="60" width="105.14" height="15" fill="#ffffff" rx="3"/>
  <polygon points="45,35 98,35 115,50 28,50" fill="#ff69b4" stroke="#fff" stroke-width="2"/>
</svg>
