<?xml version="1.0" encoding="UTF-8"?><svg id="Layer_4" xmlns="http://www.w3.org/2000/svg" viewBox="0 0 21.44 21.47"><defs><style>.cls-1{fill:#633cae;}}</style></defs><g><path class="cls-1" d="m0,3.59c-.03-.87.04-1.58.24-2.14.19-.56.48-.95.85-1.19S1.92-.05,2.44.03s1.08.34,1.69.76,1.21.97,1.76,1.61c.54.64,1.02,1.35,1.43,2.12s.74,1.59.99,2.45c.25.86.39,1.72.42,2.59s-.04,1.58-.22,2.15c-.18.58-.46,1-.83,1.26s-.82.35-1.34.28c-.52-.08-1.1-.33-1.74-.77-.64-.44-1.23-.98-1.77-1.63-.54-.65-1.02-1.38-1.43-2.17-.41-.8-.74-1.63-.98-2.5C.18,5.31.04,4.45,0,3.59Zm2.34,1.6c.04.89.25,1.74.63,2.54s.89,1.42,1.5,1.84,1.09.48,1.43.17.5-.9.46-1.79-.24-1.75-.62-2.54c-.37-.79-.88-1.4-1.52-1.84s-1.09-.48-1.43-.18c-.34.3-.5.9-.46,1.8Z"/><path class="cls-1" d="m12.08,13.2l.16,4.12-2.11-1.45-.44-11,1.5,1.03.61.42,2.96,2.03.1,2.61-2.96-2.03.07,1.85,2.84,1.95.1,2.42-2.84-1.95Z"/><path class="cls-1" d="m18.55,17.63l.16,4.12-2.12-1.45-.44-11,1.5,1.03.61.42,2.96,2.03.1,2.61-2.96-2.03.07,1.85,2.84,1.95.1,2.42-2.84-1.95Z"/></g></svg>