
<?xml version="1.0" encoding="UTF-8"?><svg id="Layer_4" xmlns="http://www.w3.org/2000/svg" viewBox="0 0 20.87 21.47"><defs><style>.cls-1{fill:#633cae;}</style></defs><path class="cls-1" d="m0,4.11c0-.92.13-1.69.39-2.31.26-.62.63-1.08,1.11-1.38S2.54-.02,3.17,0s1.31.21,2.05.58,1.45.87,2.08,1.48c.64.61,1.19,1.3,1.66,2.08s.83,1.6,1.1,2.48c.26.88.39,1.78.39,2.71s-.13,1.69-.38,2.33c-.25.64-.62,1.12-1.08,1.45s-1.02.49-1.66.47c-.64-.01-1.34-.21-2.1-.59s-1.46-.88-2.1-1.5-1.19-1.33-1.66-2.13c-.47-.79-.83-1.64-1.08-2.53-.25-.89-.38-1.8-.38-2.71Zm2.81,1.4c0,.94.22,1.82.65,2.63.44.81,1.02,1.39,1.76,1.76s1.32.36,1.76,0,.65-1.03.65-1.97-.21-1.83-.63-2.62c-.42-.79-1.01-1.38-1.78-1.76s-1.32-.37-1.76,0c-.44.37-.65,1.03-.65,1.98Z"/><path class="cls-1" d="m18.24,7.38l2.55,1.27v12.25l-6.4-9.62v5.85l-2.53-1.26V3.61l6.39,9.62v-5.85Z"/></svg>