<svg xmlns="http://www.w3.org/2000/svg" width="777.19" height="2530" viewBox="0 0 777.19 2530">
  <defs>
    <style>
      .cls-1 {
        fill: #e2e2e2;
        fill-rule: evenodd;
      }
    </style>
  </defs>
  <path id="shadow.svg" class="cls-1" d="M946.592,1919.18l35.745-20.55a13.565,13.565,0,0,0,6.933-11.09,13.065,13.065,0,0,0-6.583-11.96L569.844,1646.5,844.7,1487.63a13.529,13.529,0,0,0,.023-23.24L422.3,1220.68l581.2-336.255a12.853,12.853,0,0,0,1.47-21.259L988.9,850.622l-13.6-9.524a23.117,23.117,0,0,0-23.12,0L355.151,1187.53a12.159,12.159,0,0,0-1.906.9l-27.55,15.84a17.918,17.918,0,0,0-2.519,1.73l-1.847,1.06a16.6,16.6,0,0,0-7.138,7.97c-3.191,7.81.412,15.85,7.021,19.66l31.816,18.37,387.236,222.97L464.522,1635.31a13.077,13.077,0,0,0-6.583,11.96,13.565,13.565,0,0,0,6.931,11.09l35.744,20.55L877.4,1886.78,554.648,2083.95a13.193,13.193,0,0,0,.023,22.86l36.075,20.74,388.048,216.8L342.673,2736.33a13.067,13.067,0,0,0-6.591,11.91,13.593,13.593,0,0,0,6.973,11.16l35.7,20.53c1.692,0.97,326.575,199.2,430.9,262.84l-22.4,12.8L527.641,3211,349.016,3321.18a16.676,16.676,0,0,0,0,28.88l25.712,14.84a23.1,23.1,0,0,0,23.12,0L877.98,3069.94l30.519-17.63a13.215,13.215,0,0,0,0-22.89L454.434,2744.01v-0.15l629.076-387.97a13.342,13.342,0,0,0,.09-23.02L659.786,2095.24Z" transform="translate(-313 -838)"/>
</svg>
