<svg xmlns="http://www.w3.org/2000/svg" width="1347.31" height="769.19" viewBox="0 0 1347.31 769.19">
  <defs>
    <style>
      .cls-1 {
        fill: #fff;
        fill-rule: evenodd;
      }
    </style>
  </defs>
  <path id="bg-M.svg" class="cls-1" d="M328.192,2337.13a128.011,128.011,0,0,0-1.708,18.8,116.833,116.833,0,0,0,60.63,102.5H241.089Zm116.137-99.08c64.9,0,117.845,52.96,117.845,117.88a116.831,116.831,0,0,1-60.63,102.5H717.593L479.341,2126.14l-90.519,126.43C405.9,2243.17,423.834,2238.05,444.329,2238.05Zm737.111,220.38h165.89L795.812,1689.24l-82.943,115.68Zm-1086.8,0,386.589-539.17,386.588,539.17H1033.71L482.193,1689.24l-0.962,1.34-0.962-1.34L-71.245,2458.43H94.642Z" transform="translate(0 -1689.25)"/>
</svg>
