<svg width="197" height="177" viewBox="0 0 197 177" fill="none" xmlns="http://www.w3.org/2000/svg">
<path d="M75.4795 103.137H28.8905L28.3966 88.8126C28.3752 88.1916 28.4886 87.5734 28.7291 87.0005C28.9695 86.4276 29.3312 85.9136 29.7894 85.4938C30.2475 85.0741 30.7911 84.7587 31.3828 84.5692C31.9745 84.3797 32.6003 84.3206 33.217 84.3961L60.3287 87.716H60.332C64.3514 87.7268 68.2026 89.3304 71.0419 92.1754C73.8811 95.0205 75.4768 98.8749 75.4795 102.894V103.137Z" fill="#E02E88"/>
<path d="M54.7147 52.3252H22.2211C21.3487 52.325 20.5119 52.6713 19.8948 53.2881C19.2777 53.9048 18.9309 54.7414 18.9307 55.6139V88.1093C18.9305 88.5413 19.0155 88.969 19.1807 89.3682C19.3459 89.7673 19.5881 90.1301 19.8935 90.4356C20.1989 90.7412 20.5615 90.9836 20.9606 91.149C21.3596 91.3144 21.7874 91.3996 22.2194 91.3997H54.7147C55.1467 91.3998 55.5745 91.3149 55.9736 91.1497C56.3728 90.9844 56.7355 90.7422 57.0411 90.4368C57.3466 90.1314 57.589 89.7689 57.7545 89.3698C57.9199 88.9707 58.0051 88.543 58.0052 88.111V55.6157C58.0055 54.7433 57.6591 53.9065 57.0423 53.2894C56.4256 52.6723 55.589 52.3254 54.7165 52.3252H54.7147Z" fill="#CCCCCC"/>
<path d="M47.3966 76.6227L32.055 79.6103C31.145 79.7865 30.2023 79.5945 29.4336 79.0764C28.665 78.5583 28.1332 77.7565 27.955 76.8469L26.7757 70.791C26.5996 69.881 26.7916 68.9382 27.3096 68.1696C27.8277 67.401 28.6295 66.8692 29.5392 66.691L44.8808 63.7035C45.7908 63.5273 46.7336 63.7193 47.5022 64.2373C48.2708 64.7554 48.8026 65.5572 48.9808 66.4668L50.1601 72.5227C50.3362 73.4328 50.1443 74.3756 49.6262 75.1442C49.1081 75.9128 48.3063 76.4445 47.3966 76.6227Z" fill="#3F3D56"/>
<path d="M44.3271 69.4686L32.6191 71.7486C32.5129 71.7695 32.4037 71.7693 32.2976 71.7479C32.1915 71.7266 32.0907 71.6846 32.0009 71.6242C31.9111 71.5639 31.8341 71.4864 31.7743 71.3962C31.7145 71.306 31.6731 71.2049 31.6524 71.0987C31.6317 70.9925 31.6322 70.8833 31.6538 70.7772C31.6754 70.6712 31.7177 70.5706 31.7782 70.4809C31.8388 70.3913 31.9165 70.3144 32.0068 70.2548C32.0971 70.1953 32.1983 70.154 32.3046 70.1336L44.0126 67.8537C44.2266 67.8125 44.448 67.858 44.6285 67.9799C44.809 68.1019 44.9337 68.2904 44.9754 68.5042C45.017 68.718 44.9722 68.9397 44.8506 69.1204C44.7291 69.3012 44.5408 69.4264 44.3271 69.4686Z" fill="white"/>
<path d="M42.0514 72.8446L35.9955 74.024C35.8894 74.0446 35.7804 74.0442 35.6745 74.0227C35.5687 74.0012 35.468 73.959 35.3785 73.8987C35.2889 73.8383 35.2121 73.7608 35.1524 73.6707C35.0928 73.5807 35.0514 73.4798 35.0308 73.3738C35.0101 73.2677 35.0106 73.1586 35.0321 73.0528C35.0536 72.9469 35.0957 72.8463 35.1561 72.7567C35.2165 72.6672 35.2939 72.5903 35.384 72.5307C35.474 72.471 35.575 72.4297 35.681 72.409L41.7369 71.2297C41.9509 71.1885 42.1725 71.2338 42.353 71.3558C42.5336 71.4778 42.6584 71.6664 42.7001 71.8803C42.7417 72.0942 42.6968 72.3158 42.5752 72.4966C42.4536 72.6774 42.2652 72.8026 42.0514 72.8446Z" fill="white"/>
<path d="M58.0052 55.6157V59.9344H18.9307V55.6157C18.9304 54.7433 19.2768 53.9065 19.8935 53.2894C20.5103 52.6723 21.3469 52.3254 22.2194 52.3252H54.7147C55.1467 52.3251 55.5745 52.41 55.9736 52.5753C56.3728 52.7405 56.7355 52.9827 57.041 53.2881C57.3466 53.5935 57.589 53.9561 57.7544 54.3552C57.9198 54.7542 58.0051 55.182 58.0052 55.614V55.6157Z" fill="#B3B3B3"/>
<path d="M136.033 61.2875C135.807 60.5593 135.425 59.8894 134.912 59.3251C134.4 58.7607 133.77 58.3156 133.067 58.0211C132.364 57.7265 131.605 57.5897 130.843 57.6203C130.081 57.6509 129.336 57.8481 128.658 58.1981L83.9548 42.1592L81.9858 53.3268L126.547 65.5809C127.21 66.6797 128.254 67.4969 129.479 67.8777C130.705 68.2586 132.028 68.1767 133.197 67.6475C134.366 67.1182 135.301 66.1785 135.823 65.0063C136.346 63.8342 136.421 62.511 136.033 61.2875Z" fill="#FFB8B8"/>
<path opacity="0.2" d="M136.033 61.2875C135.807 60.5593 135.425 59.8894 134.912 59.3251C134.4 58.7607 133.77 58.3156 133.067 58.0211C132.364 57.7265 131.605 57.5897 130.843 57.6203C130.081 57.6509 129.336 57.8481 128.658 58.1981L83.9548 42.1592L81.9858 53.3268L126.547 65.5809C127.21 66.6797 128.254 67.4969 129.479 67.8777C130.705 68.2586 132.028 68.1767 133.197 67.6475C134.366 67.1182 135.301 66.1785 135.823 65.0063C136.346 63.8342 136.421 62.511 136.033 61.2875Z" fill="black"/>
<path d="M91.8895 44.1944L87.6681 55.2227C87.548 55.5365 87.3617 55.8207 87.1218 56.056C86.882 56.2913 86.5942 56.4721 86.2782 56.5861C85.9621 56.7002 85.6252 56.7448 85.2904 56.7169C84.9556 56.689 84.6307 56.5892 84.3379 56.4244L74.0784 50.65C72.477 50.026 71.1883 48.7926 70.4948 47.22C69.8012 45.6475 69.7594 43.8641 70.3785 42.2608C70.9976 40.6575 72.2271 39.365 73.7975 38.6666C75.368 37.9683 77.1512 37.921 78.7564 38.5352L90.2128 41.0761C90.5408 41.149 90.8493 41.2916 91.1171 41.4944C91.385 41.6973 91.606 41.9554 91.7652 42.2513C91.9243 42.5473 92.0178 42.874 92.0392 43.2093C92.0607 43.5446 92.0096 43.8806 91.8895 44.1944Z" fill="#E02E88"/>
<path d="M139.552 71.499L123.534 78.78L125.637 86.6973C129.698 101.986 130.776 117.914 128.811 133.611L140.523 136.057L150.231 111.302L146.833 83.1486L139.552 71.499Z" fill="#E02E88"/>
<path d="M170.981 108.146C160.457 108.146 151.88 115.797 151.464 125.378H190.499C190.083 115.797 181.506 108.146 170.981 108.146Z" fill="#3F3D56"/>
<path d="M162.789 109.797C162.241 66.549 137.61 70.5277 137.61 70.5277C137.61 70.5277 138.071 83.9894 138.293 84.408C153.988 114.104 128.085 148.919 95.1116 142.514C94.4899 142.394 93.8926 142.271 93.3197 142.147C89.1418 141.275 85.4531 138.844 83.0038 135.349C80.5545 131.853 79.5286 127.556 80.1348 123.332C83.3828 97.2485 67.2277 97.71 67.2277 97.71H43.6051L31.3375 86.6691C30.9045 86.2794 30.3826 86.0018 29.8175 85.8604C29.2523 85.719 28.6611 85.7182 28.0956 85.8581C27.5301 85.9979 27.0074 86.2742 26.5734 86.6628C26.1393 87.0514 25.807 87.5403 25.6056 88.087L24.0274 92.3706C24.0274 92.3706 0.728275 94.7977 2.66987 117.611H9.87309C9.8557 118.26 9.88169 118.908 9.95085 119.553L63.7091 119.116C65.2454 119.099 66.7274 119.683 67.8384 120.745C68.9494 121.806 69.6013 123.259 69.6548 124.795C69.6611 126.308 69.0662 127.761 68.0008 128.836C66.9354 129.91 65.4869 130.517 63.9739 130.524C63.9025 130.524 63.8312 130.523 63.7599 130.521L55.0929 130.232C52.4232 142.124 58.9761 150.133 66.1964 155.169C72.9944 159.842 81.0609 162.319 89.3099 162.268H112.855C143.435 162.268 148.775 136.542 148.775 136.542C164.793 129.746 162.789 109.797 162.789 109.797Z" fill="#3F3D56"/>
<path d="M169.525 176.345C184.605 176.345 196.829 164.12 196.829 149.041C196.829 133.962 184.605 121.737 169.525 121.737C154.446 121.737 142.222 133.962 142.222 149.041C142.222 164.12 154.446 176.345 169.525 176.345Z" fill="black"/>
<path d="M169.525 155.733C173.221 155.733 176.217 152.737 176.217 149.041C176.217 145.345 173.221 142.349 169.525 142.349C165.829 142.349 162.833 145.345 162.833 149.041C162.833 152.737 165.829 155.733 169.525 155.733Z" fill="white"/>
<path d="M31.6722 176.344C49.0302 176.344 63.1017 162.273 63.1017 144.915C63.1017 127.557 49.0302 113.485 31.6722 113.485C14.3141 113.485 0.242676 127.557 0.242676 144.915C0.242676 162.273 14.3141 176.344 31.6722 176.344Z" fill="black"/>
<path d="M31.6723 152.619C35.9267 152.619 39.3756 149.17 39.3756 144.915C39.3756 140.661 35.9267 137.212 31.6723 137.212C27.4179 137.212 23.969 140.661 23.969 144.915C23.969 149.17 27.4179 152.619 31.6723 152.619Z" fill="white"/>
<path d="M123.579 80.9313L117.816 65.2774C117.209 63.6298 117.282 61.8087 118.018 60.2147C118.754 58.6207 120.093 57.3844 121.741 56.7778L138.264 50.6951C141.163 49.6276 144.368 49.7554 147.172 51.0504C149.977 52.3455 152.153 54.7017 153.22 57.6007C153.697 58.8891 153.94 60.2523 153.939 61.626C153.933 63.3703 153.538 65.0914 152.784 66.664C152.029 68.2366 150.933 69.6214 149.576 70.7175C148.596 71.5038 147.495 72.1251 146.314 72.5568L123.579 80.9313Z" fill="#3F3D56"/>
<path d="M153.696 61.626C153.695 63.3348 153.311 65.0215 152.571 66.5621C151.832 68.1027 150.757 69.458 149.425 70.5282C147.381 69.9891 145.479 69.0114 143.851 67.663C142.224 66.3146 140.909 64.6279 139.999 62.7201C139.089 60.8124 138.606 58.7293 138.582 56.6158C138.558 54.5022 138.995 52.4089 139.863 50.4813C141.527 50.1192 143.252 50.1346 144.91 50.5264C146.569 50.9182 148.118 51.6763 149.445 52.7452C150.772 53.8141 151.842 55.1666 152.578 56.7033C153.314 58.2401 153.696 59.9222 153.696 61.626Z" fill="#E02E88"/>
<path d="M6.79558 120.766C10.5487 120.766 13.5911 117.072 13.5911 112.514C13.5911 107.957 10.5487 104.263 6.79558 104.263C3.04249 104.263 0 107.957 0 112.514C0 117.072 3.04249 120.766 6.79558 120.766Z" fill="#E02E88"/>
<path d="M96.6245 141.724H102.575L105.407 126.29L96.6235 126.291L96.6245 141.724Z" fill="#FFB8B8"/>
<path d="M95.106 139.782L106.825 139.781C107.806 139.781 108.778 139.974 109.684 140.35C110.59 140.725 111.413 141.275 112.107 141.969C112.8 142.662 113.35 143.485 113.726 144.391C114.101 145.298 114.294 146.269 114.294 147.249V147.492L95.1064 147.493L95.106 139.782Z" fill="#2F2E41"/>
<path d="M103.531 135.389C103.462 135.389 103.392 135.386 103.323 135.379L95.087 134.78C94.754 134.749 94.4325 134.642 94.1473 134.467C93.8621 134.292 93.6209 134.054 93.4423 133.771C93.2636 133.488 93.1523 133.168 93.1169 132.836C93.0815 132.503 93.1229 132.167 93.238 131.853L104.26 107.091C104.338 106.87 104.371 106.635 104.354 106.401C104.338 106.167 104.273 105.94 104.164 105.732C104.056 105.522 103.904 105.337 103.719 105.19C103.534 105.043 103.32 104.936 103.091 104.878C97.9084 103.523 84.6111 99.9157 73.1001 95.695C68.1685 93.8866 65.0625 91.2734 63.8685 87.9277C63.4205 86.5108 63.2652 85.0176 63.4121 83.5389C63.559 82.0601 64.005 80.6267 64.723 79.3256L64.8011 79.1934L75.6326 80.1779L87.375 81.1767L113.108 94.9755C115.264 96.1415 116.902 98.0769 117.695 100.396C118.488 102.716 118.379 105.249 117.388 107.491L105.524 134.095C105.353 134.48 105.073 134.807 104.72 135.037C104.366 135.267 103.953 135.389 103.531 135.389Z" fill="#2F2E41"/>
<path d="M77.5159 31.1875C84.1001 31.1875 89.4377 25.8499 89.4377 19.2656C89.4377 12.6814 84.1001 7.34375 77.5159 7.34375C70.9316 7.34375 65.594 12.6814 65.594 19.2656C65.594 25.8499 70.9316 31.1875 77.5159 31.1875Z" fill="#FFB8B8"/>
<path d="M93.2266 143.181H99.1776L102.009 127.746L93.2256 127.747L93.2266 143.181Z" fill="#FFB8B8"/>
<path d="M91.7083 141.238L103.428 141.237C104.408 141.237 105.38 141.43 106.286 141.806C107.192 142.181 108.016 142.731 108.709 143.425C109.403 144.118 109.953 144.941 110.328 145.847C110.703 146.754 110.897 147.725 110.897 148.705V148.948L91.7086 148.949L91.7083 141.238Z" fill="#2F2E41"/>
<path d="M100.134 136.846C100.064 136.846 99.9947 136.843 99.9248 136.836L91.6893 136.237C91.3562 136.206 91.0348 136.099 90.7496 135.924C90.4644 135.749 90.2232 135.511 90.0445 135.228C89.8659 134.945 89.7546 134.625 89.7192 134.293C89.6838 133.96 89.7252 133.624 89.8403 133.31L100.862 108.547C100.941 108.327 100.973 108.092 100.957 107.858C100.94 107.624 100.876 107.397 100.767 107.189C100.658 106.979 100.507 106.794 100.322 106.647C100.137 106.5 99.9225 106.393 99.6934 106.335C94.5107 104.98 81.2134 101.373 69.7024 97.152C64.7709 95.3436 61.6648 92.7304 60.4708 89.3847C60.0228 87.9678 59.8675 86.4746 60.0144 84.9958C60.1613 83.5171 60.6073 82.0836 61.3253 80.7826L61.4034 80.6504L72.2349 81.6349L83.9772 82.6337L109.71 96.4324C111.866 97.5985 113.504 99.534 114.297 101.853C115.09 104.173 114.981 106.706 113.99 108.948L102.127 135.552C101.955 135.937 101.676 136.264 101.322 136.494C100.968 136.724 100.555 136.846 100.134 136.846Z" fill="#2F2E41"/>
<path d="M81.1928 37.9476L68.5724 33.5791C68.5724 33.5791 60.6498 39.666 64.4558 54.766C66.4428 62.5582 65.864 70.7834 62.8054 78.2205C62.4371 79.1407 62.0126 80.0373 61.5342 80.9053C61.5342 80.9053 75.6107 97.8943 88.7165 85.2739L83.6198 60.7614C83.6198 60.7614 91.6288 44.5005 81.1928 37.9476Z" fill="#E02E88"/>
<path d="M78.9961 31.5926C77.2994 29.0528 75.9603 25.5311 77.8285 23.1147C79.6725 20.7293 83.3097 21.0807 86.1339 20.0252C90.0676 18.5551 92.3489 13.9339 91.6374 9.7952C91.1987 7.73454 90.2312 5.82355 88.83 4.25022C87.4288 2.67688 85.6421 1.49538 83.6458 0.821901C79.6036 -0.470511 75.2273 -0.232308 71.3492 1.49121C68.9416 2.45053 66.7587 3.89783 64.9378 5.74204C63.117 7.58624 61.6976 9.78742 60.769 12.207C59.8861 14.646 59.6767 17.2777 60.1626 19.8256C60.6486 22.3735 61.812 24.7434 63.5306 26.6862C67.3477 30.7045 73.3383 31.7754 78.8802 31.7104" fill="#2F2E41"/>
<path d="M67.9063 9.92832C65.7682 11.6689 62.5061 10.8958 60.211 9.36826C57.9159 7.84068 56.0535 5.66548 53.5703 4.4678C49.1924 2.35635 43.8994 3.75996 39.6386 6.09879C35.3778 8.43762 31.6007 11.6688 27.1001 13.5041C22.5995 15.3395 16.8563 15.4302 13.4484 11.9646C12.6097 14.3945 12.5412 17.0238 13.2521 19.494C13.963 21.9643 15.4187 24.155 17.4206 25.7674C19.4225 27.3797 21.8732 28.3351 24.4382 28.5033C27.0031 28.6714 29.5575 28.0441 31.7528 26.7069C36.6842 23.703 39.408 17.4049 44.9391 15.7469C47.9997 14.8294 51.2863 15.5683 54.3797 16.3687C57.473 17.169 60.6985 18.0338 63.8202 17.3524C66.9419 16.6711 69.8619 13.8658 69.4648 10.6953L67.9063 9.92832Z" fill="#2F2E41"/>
<path d="M138.429 56.7021C138.115 56.0073 137.653 55.3898 137.075 54.8929C136.496 54.3961 135.816 54.0321 135.082 53.8266C134.348 53.6211 133.578 53.5789 132.826 53.7032C132.074 53.8276 131.358 54.1153 130.729 54.5461L84.3882 44.1455L83.8123 55.4708L129.545 62.1331C130.339 63.1416 131.475 63.824 132.738 64.0507C134.001 64.2775 135.304 64.033 136.399 63.3635C137.494 62.6941 138.306 61.6463 138.68 60.4185C139.054 59.1908 138.964 57.8684 138.429 56.7021Z" fill="#FFB8B8"/>
<path d="M92.5134 45.1854L89.685 56.6503C89.6045 56.9765 89.4547 57.2815 89.2457 57.5446C89.0367 57.8077 88.7734 58.0226 88.4739 58.1748C88.1743 58.3269 87.8455 58.4128 87.5098 58.4264C87.1741 58.4401 86.8394 58.3811 86.5285 58.2538L75.6349 53.7893C73.9678 53.3686 72.5355 52.3038 71.6524 50.8285C70.7693 49.3532 70.5074 47.5878 70.9241 45.9196C71.3408 44.2514 72.4022 42.8166 73.8754 41.93C75.3486 41.0433 77.1133 40.7771 78.7825 41.1899L90.4649 42.2978C90.7994 42.3296 91.123 42.4332 91.4139 42.6014C91.7047 42.7696 91.9559 42.9985 92.1503 43.2725C92.3448 43.5465 92.4778 43.8593 92.5405 44.1894C92.6031 44.5195 92.5939 44.8592 92.5134 45.1854Z" fill="#E02E88"/>
<path d="M133.076 65.6999C134.952 65.6999 136.473 64.1786 136.473 62.3021C136.473 60.4256 134.952 58.9043 133.076 58.9043C131.199 58.9043 129.678 60.4256 129.678 62.3021C129.678 64.1786 131.199 65.6999 133.076 65.6999Z" fill="#E02E88"/>
</svg>
