<?xml version="1.0" encoding="UTF-8"?>
<svg version="1.1" xmlns="http://www.w3.org/2000/svg" width="497" height="373">
<path d="M0 0 C1.30155029 -0.00953201 2.60310059 -0.01906403 3.9440918 -0.02888489 C5.35205106 -0.02862346 6.76001033 -0.02768642 8.16796875 -0.02612305 C9.62475709 -0.03001437 11.08154431 -0.03434994 12.53833008 -0.03910828 C15.58451016 -0.04655038 18.63057429 -0.04629341 21.67675781 -0.04101562 C25.57054279 -0.03521676 29.46385274 -0.05217137 33.3575592 -0.0753603 C36.36367544 -0.09012538 39.3696779 -0.09096571 42.37582397 -0.08785057 C43.81107526 -0.08836216 45.24633318 -0.09356942 46.68154907 -0.10366249 C48.69130794 -0.11606521 50.70116337 -0.10727437 52.7109375 -0.09765625 C53.85199951 -0.09828568 54.99306152 -0.0989151 56.16870117 -0.0995636 C61.25723738 0.49798271 64.24505628 2.05853349 67.69812012 5.84033203 C69.91321228 10.43040369 69.91721055 14.19070158 69.87304688 19.22387695 C69.88356079 20.70303085 69.88356079 20.70303085 69.89428711 22.21206665 C69.91185111 25.46238603 69.90024956 28.7118304 69.88671875 31.9621582 C69.88941411 34.22607591 69.8932969 36.4899925 69.89831543 38.75390625 C69.90420834 43.49498534 69.89565387 48.23576267 69.87695312 52.97680664 C69.85416409 59.04988119 69.86728822 65.12224862 69.89124298 71.19529724 C69.90570632 75.86907262 69.90109242 80.54268073 69.89073181 85.21646118 C69.88806603 87.45553674 69.89132904 89.69462756 69.90065002 91.9336853 C69.91082405 95.06467846 69.89530156 98.1945311 69.87304688 101.32543945 C69.8811438 102.24821686 69.88924072 103.17099426 69.89758301 104.12173462 C69.82511017 109.63348823 69.15880602 112.98164152 65.35546875 117.2746582 C62.55367677 119.19839362 60.29292073 119.53459925 56.93261719 119.59350586 C55.62910309 119.62331039 55.62910309 119.62331039 54.29925537 119.65371704 C53.36389954 119.66526825 52.4285437 119.67681946 51.46484375 119.6887207 C50.48743225 119.70808685 49.51002075 119.727453 48.50299072 119.74740601 C45.37057244 119.80710938 42.23811127 119.85339148 39.10546875 119.8996582 C37.04295294 119.93787693 34.98045243 119.97693089 32.91796875 120.0168457 C16.45759383 120.31779369 16.45759383 120.31779369 10.51367188 120.19165039 C9.78472717 120.17895111 9.05578247 120.16625183 8.30474854 120.15316772 C6.40498755 120.11388155 4.50565273 120.05525836 2.60644531 119.99487305 C-1.14832057 120.31801526 -3.4571964 121.29051627 -6.64453125 123.2746582 C-8.68386146 126.33365352 -8.91684525 127.14067758 -9.06161499 130.62138367 C-9.10083384 131.49283177 -9.14005268 132.36427988 -9.18045998 133.26213551 C-9.21162596 134.2030136 -9.24279194 135.1438917 -9.27490234 136.11328125 C-9.33184045 137.58588803 -9.33184045 137.58588803 -9.38992882 139.08824444 C-9.74872264 149.34771538 -9.69414679 159.59384172 -9.55859375 169.85668945 C-9.53673831 171.81824813 -9.51529304 173.77981141 -9.49423218 175.74137878 C-9.44934129 179.79574313 -9.40017649 183.85002437 -9.34765625 187.90429688 C-9.2805005 193.10943485 -9.2235892 198.31462793 -9.16962624 203.51991749 C-9.12696845 207.54406845 -9.07952076 211.56815144 -9.03052902 215.59222984 C-9.00762092 217.51444591 -8.98611274 219.43667919 -8.96602249 221.35892677 C-8.93741376 224.01948242 -8.90247592 226.67987816 -8.86572266 229.34033203 C-8.85839615 230.1343895 -8.85106964 230.92844696 -8.84352112 231.74656677 C-9.11318928 235.30715291 -9.11318928 235.30715291 -7.64453125 238.2746582 C-5.31155692 238.31558758 -2.977479 238.31707544 -0.64453125 238.2746582 C-0.6602417 237.28135498 -0.67595215 236.28805176 -0.69213867 235.26464844 C-0.74673324 231.55412003 -0.78098781 227.84362662 -0.80932617 224.1328125 C-0.82434591 222.53151464 -0.84476788 220.93025745 -0.87084961 219.32910156 C-0.90753563 217.01788249 -0.9243256 214.70721065 -0.9375 212.39575195 C-0.95298386 211.68817245 -0.96846771 210.98059296 -0.98442078 210.25157166 C-0.98632666 204.53057682 0.29524015 200.11973579 3.66796875 195.4621582 C8.41150558 192.12411376 13.72580943 191.98773537 19.32421875 192.04418945 C20.08158325 192.04464767 20.83894775 192.0451059 21.6192627 192.045578 C23.21949839 192.04858805 24.81973148 192.05643683 26.41992188 192.06884766 C28.82042321 192.08689473 31.22053216 192.0893583 33.62109375 192.08911133 C60.98412369 192.14535127 60.98412369 192.14535127 66.35546875 196.2746582 C68.85206919 199.80074467 69.74173278 202.29527907 69.85131836 206.59643555 C69.88402328 207.6345639 69.91672821 208.67269226 69.95042419 209.74227905 C69.96936234 210.85382355 69.98830048 211.96536804 70.0078125 213.1105957 C70.0352504 214.26330963 70.06268829 215.41602356 70.09095764 216.60366821 C70.14425898 219.03942105 70.19001355 221.47534911 70.22875977 223.91137695 C70.29262931 227.62989567 70.39390533 231.34613836 70.49804688 235.0637207 C70.54524793 237.43346807 70.59024265 239.80326062 70.6328125 242.1730957 C70.66592026 243.28059174 70.69902802 244.38808777 70.73313904 245.52914429 C70.83492572 255.52080999 70.83492572 255.52080999 67.85810852 259.81111145 C62.37938596 265.14729832 55.8170472 266.84638164 48.36297607 266.7898407 C47.42721741 266.75776016 46.49145874 266.72567963 45.52734375 266.69262695 C44.5347052 266.68080887 43.54206665 266.66899078 42.51934814 266.65681458 C39.38044423 266.61596676 36.24362445 266.5411435 33.10546875 266.4621582 C29.95327215 266.39925887 26.80125828 266.3437902 23.64874268 266.29963684 C21.69633619 266.2706349 19.7440563 266.23009919 17.79217529 266.17631531 C12.91294151 266.086833 8.89159412 266.20350867 4.35546875 268.2746582 C3.33385783 269.94506261 3.33385783 269.94506261 3.35546875 272.2746582 C3.27683594 273.5121582 3.19820313 274.7496582 3.1171875 276.0246582 C3.08679496 277.44121487 3.0622181 278.8579063 3.04296875 280.2746582 C2.99946289 281.34200195 2.99946289 281.34200195 2.95507812 282.4309082 C2.9121265 285.97276487 3.04547033 287.87581488 5.25 290.7121582 C8.42249651 293.06651554 10.14603059 293.39853349 14.04541016 293.40063477 C15.02047516 293.40444153 15.99554016 293.40824829 17.00015259 293.41217041 C18.05842255 293.41319763 19.1166925 293.41422485 20.20703125 293.4152832 C22.44271846 293.43361818 24.67839582 293.45318912 26.9140625 293.47387695 C30.44271364 293.50279631 33.97073455 293.52465685 37.49951172 293.52514648 C40.90258855 293.52849174 44.30420836 293.56311676 47.70703125 293.6027832 C49.27621811 293.59217865 49.27621811 293.59217865 50.87710571 293.58135986 C57.41623149 293.6893526 62.48209269 294.63940697 67.35546875 299.2746582 C68.99285775 302.08175445 69.62539076 304.17618777 69.76953125 307.4152832 C69.80836426 308.22690918 69.84719727 309.03853516 69.88720703 309.87475586 C69.93337158 311.18645752 69.93337158 311.18645752 69.98046875 312.5246582 C70.03630127 313.89630127 70.03630127 313.89630127 70.09326172 315.2956543 C70.3569553 322.49558281 70.45671794 329.69524516 70.48046875 336.8996582 C70.4851416 337.86935547 70.48981445 338.83905273 70.49462891 339.83813477 C70.45570339 357.31868551 70.45570339 357.31868551 67.66796875 362.2746582 C61.3764724 367.71595235 55.67560876 367.69415526 47.71875 367.6027832 C46.60235641 367.60091003 45.48596283 367.59903687 44.33573914 367.59710693 C41.98315429 367.59040063 39.63058033 367.57651455 37.27807617 367.5559082 C33.67030516 367.52467843 30.06297109 367.51492725 26.45507812 367.5090332 C24.1679634 367.49986573 21.88085313 367.48949078 19.59375 367.4777832 C18.51249344 367.47353333 17.43123688 367.46928345 16.31721497 367.46490479 C14.81501656 367.45049347 14.81501656 367.45049347 13.2824707 367.43579102 C12.40122025 367.42896301 11.51996979 367.42213501 10.61201477 367.4151001 C8.35546875 367.2746582 8.35546875 367.2746582 5.35546875 366.2746582 C5.35546875 365.6146582 5.35546875 364.9546582 5.35546875 364.2746582 C4.36546875 363.9446582 3.37546875 363.6146582 2.35546875 363.2746582 C-0.58198056 357.92305816 -1.16375217 353.24436234 -1.33203125 347.2121582 C-1.36619141 346.36032959 -1.40035156 345.50850098 -1.43554688 344.63085938 C-1.7134443 336.81357654 -1.70571066 328.99177578 -1.6081543 321.17089844 C-1.59522339 319.83973999 -1.59522339 319.83973999 -1.58203125 318.48168945 C-1.56462891 317.29796753 -1.56462891 317.29796753 -1.546875 316.09033203 C-1.44290174 314.25358462 -1.44290174 314.25358462 -2.64453125 313.2746582 C-5.14453125 313.10799154 -5.14453125 313.10799154 -7.64453125 313.2746582 C-9.79237652 315.42250348 -8.83110762 320.36362997 -8.85546875 323.34887695 C-8.88355078 325.23234899 -8.91221532 327.11581241 -8.94140625 328.99926758 C-8.98259065 331.9770471 -9.01946477 334.95466819 -9.04589844 337.93261719 C-9.07358574 340.80087861 -9.11947403 343.66840178 -9.16796875 346.53637695 C-9.17122162 347.42097092 -9.17447449 348.30556488 -9.17782593 349.21696472 C-9.30165009 355.474451 -10.44443987 359.73080254 -14.64453125 364.5871582 C-17.92259101 367.35302112 -20.79694404 367.40963462 -24.92626953 367.46411133 C-26.00393585 367.48082886 -27.08160217 367.49754639 -28.19192505 367.51477051 C-29.93576981 367.53513367 -29.93576981 367.53513367 -31.71484375 367.5559082 C-32.90681366 367.57431763 -34.09878357 367.59272705 -35.32687378 367.61169434 C-40.43868871 367.69053529 -45.55063668 367.75830028 -50.66259766 367.8269043 C-54.38841593 367.87847435 -58.11411518 367.93577353 -61.83984375 367.9934082 C-63.5897612 368.01377136 -63.5897612 368.01377136 -65.37503052 368.0345459 C-66.44639252 368.05126343 -67.51775452 368.06798096 -68.62158203 368.08520508 C-70.04363449 368.10399719 -70.04363449 368.10399719 -71.49441528 368.12316895 C-73.6256289 368.0372021 -73.6256289 368.0372021 -74.64453125 369.2746582 C-76.7454695 369.37152855 -78.84972642 369.39652682 -80.95289612 369.39491272 C-81.95260631 369.39619436 -81.95260631 369.39619436 -82.97251266 369.39750189 C-85.22201759 369.39915855 -87.47144913 369.39363231 -89.72094727 369.38818359 C-91.32698566 369.38790174 -92.93302418 369.38805943 -94.5390625 369.3886261 C-98.91284192 369.38891413 -103.28659417 369.38301652 -107.66036725 369.37605214 C-112.22612703 369.36981951 -116.79188738 369.36921488 -121.35765076 369.36802673 C-130.0097443 369.36491315 -138.66182528 369.3566994 -147.31391329 369.34667724 C-157.16138948 369.33551695 -167.00886626 369.33000587 -176.8563472 369.32498181 C-197.11908225 369.31451681 -217.38180596 369.29691684 -237.64453125 369.2746582 C-237.64453125 368.6146582 -237.64453125 367.9546582 -237.64453125 367.2746582 C-238.94600098 367.29560547 -240.2474707 367.31655273 -241.58837891 367.33813477 C-246.43006328 367.41069014 -251.27169985 367.45651468 -256.11376953 367.49438477 C-258.20695078 367.5144648 -260.30007617 367.54173461 -262.39306641 367.57641602 C-265.40671594 367.62509254 -268.41962198 367.64766332 -271.43359375 367.6652832 C-272.36507233 367.68592834 -273.2965509 367.70657349 -274.2562561 367.72784424 C-279.86008071 367.72976715 -283.3442379 367.2397247 -287.64453125 363.2746582 C-291.3365323 358.09209772 -291.08520088 352.88984544 -291.0859375 346.7668457 C-291.10574928 345.26228317 -291.10574928 345.26228317 -291.1259613 343.72732544 C-291.16673495 340.534741 -291.18849933 337.34244357 -291.20703125 334.1496582 C-291.23083171 330.94981874 -291.25895043 327.75024898 -291.29881287 324.55056763 C-291.32313621 322.56293136 -291.33802213 320.57515204 -291.34242249 318.58737183 C-291.35770241 317.23544235 -291.35770241 317.23544235 -291.37329102 315.85620117 C-291.3797036 314.6708931 -291.3797036 314.6708931 -291.38624573 313.4616394 C-291.68544203 310.92825432 -292.22253285 309.39506513 -293.64453125 307.2746582 C-300.47540724 302.77915204 -310.79877071 304.17201468 -318.62109375 304.31762695 C-320.69400102 304.33999928 -322.76691834 304.3614564 -324.83984375 304.38208008 C-328.0634328 304.4192148 -331.28649817 304.46246885 -334.50976562 304.52148438 C-337.65111791 304.57614772 -340.79188368 304.6050991 -343.93359375 304.63012695 C-345.36670395 304.66580025 -345.36670395 304.66580025 -346.82876587 304.70219421 C-352.96956527 304.72606386 -357.50953762 303.75071946 -362.64453125 300.2746582 C-366.6099889 296.18128256 -366.76765458 291.99474117 -366.78637695 286.48388672 C-366.79341141 285.31910294 -366.80044586 284.15431915 -366.80769348 282.95423889 C-366.81185776 281.70001633 -366.81602203 280.44579376 -366.8203125 279.15356445 C-366.83756875 277.1794973 -366.85484846 275.20543002 -366.87351513 273.23137569 C-366.91903768 268.36749489 -366.95685712 263.50373089 -366.97045898 258.63964844 C-366.9785955 255.90848174 -366.99716632 253.17777374 -367.02738953 250.44676208 C-367.05555193 247.87597385 -367.06844767 245.30496355 -367.06452942 242.73402405 C-367.08102036 241.5660881 -367.09751129 240.39815216 -367.11450195 239.19482422 C-367.12330132 237.65738304 -367.12330132 237.65738304 -367.13227844 236.08888245 C-367.77742286 232.54457572 -369.18211131 230.85551743 -371.64453125 228.2746582 C-375.40609796 226.39387485 -380.01459726 226.91737421 -384.1640625 226.7512207 C-388.9306195 226.09856082 -391.30716969 224.40910973 -394.91015625 221.3527832 C-397.67327654 216.44886701 -397.3300243 211.56778154 -397.39453125 206.0246582 C-397.42200439 204.7586377 -397.44947754 203.49261719 -397.4777832 202.18823242 C-397.55229171 198.44001049 -397.59166263 194.69205107 -397.62237549 190.9432373 C-397.64658495 188.02729792 -397.67664725 185.11144303 -397.70654297 182.19555664 C-397.7593885 176.70149227 -397.79457326 171.20752427 -397.81774902 165.71325684 C-397.82723408 163.51264255 -397.83917788 161.31203742 -397.8536377 159.1114502 C-397.87151181 155.98087516 -397.87526899 152.85059082 -397.875 149.7199707 C-397.88212509 148.78454437 -397.88925018 147.84911804 -397.89659119 146.88534546 C-397.87338774 140.08042057 -397.71554585 133.77049631 -393.20703125 128.3371582 C-389.73945822 125.54618479 -387.21455225 125.14910203 -382.90112305 125.08520508 C-381.93969894 125.06848755 -380.97827484 125.05177002 -379.98771667 125.0345459 C-378.43145317 125.01418274 -378.43145317 125.01418274 -376.84375 124.9934082 C-375.77461868 124.97499878 -374.70548737 124.95658936 -373.60395813 124.93762207 C-370.18003889 124.87882493 -366.75606911 124.8260536 -363.33203125 124.7746582 C-358.83583558 124.70685566 -354.3397928 124.6331185 -349.84375 124.5559082 C-348.81231369 124.54233276 -347.78087738 124.52875732 -346.71818542 124.51477051 C-339.61506687 124.46736987 -339.61506687 124.46736987 -332.64453125 123.2746582 C-331.24195249 120.89346574 -331.24195249 120.89346574 -330.64453125 118.2746582 C-330.31453125 117.6146582 -329.98453125 116.9546582 -329.64453125 116.2746582 C-328.87408359 108.33468505 -328.87408359 108.33468505 -331.64453125 101.1496582 C-332.30453125 100.5309082 -332.96453125 99.9121582 -333.64453125 99.2746582 C-333.64453125 98.6146582 -333.64453125 97.9546582 -333.64453125 97.2746582 C-334.33500046 97.27101257 -335.02546967 97.26736694 -335.73686218 97.26361084 C-342.92346859 97.22180011 -350.10943551 97.15246375 -357.2956543 97.06713867 C-359.9776355 97.03670312 -362.65942877 97.01602288 -365.34155273 97.00366211 C-369.19688684 96.98225548 -373.05121611 96.93561313 -376.90625 96.8840332 C-378.70493782 96.88219025 -378.70493782 96.88219025 -380.53996277 96.88031006 C-388.82905303 96.73447516 -388.82905303 96.73447516 -392.81567383 94.48657227 C-399.95086334 85.85690774 -397.80530068 72.07150408 -397.77490234 61.39233398 C-397.76952251 59.14600939 -397.77489203 56.89988318 -397.78125 54.65356445 C-397.79351466 32.14046233 -397.79351466 32.14046233 -393.64453125 26.2746582 C-388.05604791 22.43314944 -382.4156026 22.83981139 -375.89453125 22.8762207 C-374.76305664 22.87335052 -373.63158203 22.87048035 -372.46582031 22.86752319 C-370.07877094 22.86548597 -367.69170474 22.87099184 -365.3046875 22.88354492 C-361.65717127 22.89960256 -358.01076313 22.88368369 -354.36328125 22.86450195 C-352.04036214 22.86648444 -349.71744373 22.87032824 -347.39453125 22.8762207 C-345.76306152 22.86711166 -345.76306152 22.86711166 -344.09863281 22.8578186 C-338.57922103 22.90892628 -334.33268056 23.01046839 -329.64453125 26.2746582 C-324.0181013 32.23571015 -325.0133598 41.49782446 -324.95703125 49.0871582 C-324.91866887 51.69801909 -324.86962122 54.30849282 -324.8203125 56.91918945 C-324.8035144 58.64165894 -324.8035144 58.64165894 -324.78637695 60.39892578 C-324.77031489 63.3458185 -324.77031489 63.3458185 -323.64453125 66.2746582 C-320.43174885 68.50067065 -317.61791756 68.50908051 -313.78515625 68.4699707 C-312.67011719 68.46352539 -311.55507813 68.45708008 -310.40625 68.45043945 C-309.24738281 68.43368164 -308.08851563 68.41692383 -306.89453125 68.3996582 C-305.72019531 68.39063477 -304.54585938 68.38161133 -303.3359375 68.37231445 C-300.43859589 68.34875883 -297.54166684 68.31586473 -294.64453125 68.2746582 C-294.64453125 67.6146582 -294.64453125 66.9546582 -294.64453125 66.2746582 C-293.98453125 66.2746582 -293.32453125 66.2746582 -292.64453125 66.2746582 C-291.87453871 62.13531796 -291.4927104 58.16561641 -291.3984375 53.95825195 C-291.34913086 52.19384766 -291.34913086 52.19384766 -291.29882812 50.39379883 C-291.23753522 47.935562 -291.18025579 45.47722189 -291.12695312 43.01879883 C-291.09279297 41.84381836 -291.05863281 40.66883789 -291.0234375 39.45825195 C-290.98585327 37.85808228 -290.98585327 37.85808228 -290.94750977 36.22558594 C-290.4862711 31.73324766 -289.53910048 29.10041441 -286.20703125 26.0246582 C-282.80859871 23.70377744 -280.30597205 23.14974517 -276.28851414 23.14157963 C-275.39325852 23.13733858 -274.4980029 23.13309754 -273.57561833 23.12872797 C-272.09869469 23.12930717 -272.09869469 23.12930717 -270.5919342 23.12989807 C-269.54680379 23.12637123 -268.50167337 23.12284438 -267.42487234 23.11921066 C-263.90572103 23.10849447 -260.38659675 23.10483764 -256.86743164 23.10107422 C-254.35134262 23.09477129 -251.83525472 23.08800578 -249.31916809 23.08081055 C-243.89259598 23.06612393 -238.46602936 23.05432545 -233.03944588 23.04486275 C-225.18912223 23.03099508 -217.33883082 23.00980833 -209.48853033 22.98643421 C-196.7466743 22.94851022 -184.00481245 22.91354573 -171.26293945 22.88183594 C-170.50008782 22.87993545 -169.73723618 22.87803495 -168.95126783 22.87607687 C-158.12326554 22.84924005 -147.29525871 22.82536716 -136.467247 22.80269187 C-135.70469856 22.80109457 -134.94215011 22.79949727 -134.15649414 22.79785156 C-133.01406251 22.79546136 -133.01406251 22.79546136 -131.84855146 22.79302288 C-119.15611407 22.76626924 -106.46371109 22.7318766 -93.77131075 22.69119781 C-85.93944043 22.66640485 -78.10760715 22.64808822 -70.27570378 22.6380422 C-64.27738263 22.62978772 -58.27913855 22.61130228 -52.28085136 22.58898163 C-49.81693702 22.58148721 -47.35300957 22.57742394 -44.88908386 22.57698631 C-41.5339909 22.57590892 -38.1791603 22.56270726 -34.82411194 22.54640198 C-33.35053438 22.55032726 -33.35053438 22.55032726 -31.84718758 22.55433184 C-30.94932421 22.54748305 -30.05146085 22.54063425 -29.1263895 22.53357792 C-27.9646063 22.53097355 -27.9646063 22.53097355 -26.77935272 22.52831656 C-24.32905553 22.23717355 -22.73288441 21.5772627 -20.64453125 20.2746582 C-19.44589146 18.01056083 -18.76883667 15.84324039 -18.22265625 13.3449707 C-17.21614463 8.74625382 -16.1857771 5.61916817 -12.64453125 2.2746582 C-8.32376218 0.50590747 -4.64825544 0.01876877 0 0 Z M-311.01953125 142.7121582 C-312.04820312 142.77113281 -312.04820312 142.77113281 -313.09765625 142.83129883 C-316.14937342 143.0242576 -318.72887221 143.30277186 -321.64453125 144.2746582 C-321.64453125 144.9346582 -321.64453125 145.5946582 -321.64453125 146.2746582 C-322.63453125 146.6046582 -323.62453125 146.9346582 -324.64453125 147.2746582 C-329.03483603 160.44557254 -326.79332997 178.13891433 -326.8757019 191.99530029 C-326.88820766 193.84124762 -326.905687 195.68716826 -326.92825317 197.53302002 C-326.95833632 200.16581431 -326.96805767 202.79796056 -326.97265625 205.4309082 C-326.98495773 206.21871674 -326.99725922 207.00652527 -327.00993347 207.81820679 C-326.98647139 213.74623837 -325.77997563 218.21406581 -322.328125 223.16137695 C-316.00350101 227.34355291 -305.2629455 225.23953967 -298.203125 224.13793945 C-294.49435391 222.8865831 -292.38397294 220.75354158 -290.64453125 217.2746582 C-290.53743882 215.17733837 -290.49564633 213.07657899 -290.48339844 210.9765625 C-290.47843353 210.33081268 -290.47346863 209.68506287 -290.46835327 209.01974487 C-290.45372661 206.87944478 -290.44692822 204.73921885 -290.44140625 202.59887695 C-290.4356544 201.11155698 -290.42989667 199.62423704 -290.4241333 198.13691711 C-290.41362133 195.01559097 -290.40778022 191.89429058 -290.40429688 188.77294922 C-290.39881724 184.77809538 -290.37480175 180.78358326 -290.34632492 176.78883648 C-290.327676 173.71500158 -290.32249171 170.64124853 -290.320961 167.56736183 C-290.31793809 166.09499052 -290.30992171 164.62262052 -290.29677582 163.15030479 C-290.2796704 161.08692037 -290.28160611 159.02436457 -290.28808594 156.9609375 C-290.28444031 155.78782516 -290.28079468 154.61471283 -290.27703857 153.40605164 C-290.68493827 149.93035124 -291.55585847 148.05671027 -293.64453125 145.2746582 C-295.8381903 144.05236701 -295.8381903 144.05236701 -298.26953125 143.4621582 C-299.06617188 143.22883789 -299.8628125 142.99551758 -300.68359375 142.75512695 C-304.09241471 141.91989791 -307.5407881 142.49554501 -311.01953125 142.7121582 Z " fill="#e02e88" transform="translate(408.64453125,3.725341796875)"/>
<path d="M0 0 C0.33 0 0.66 0 1 0 C1.06058594 1.19238281 1.12117188 2.38476562 1.18359375 3.61328125 C1.26801149 5.17969925 1.35265887 6.74610488 1.4375 8.3125 C1.47681641 9.09818359 1.51613281 9.88386719 1.55664062 10.69335938 C1.59853516 11.45068359 1.64042969 12.20800781 1.68359375 12.98828125 C1.72025146 13.68477783 1.75690918 14.38127441 1.79467773 15.09887695 C1.95581153 17.2216572 1.95581153 17.2216572 3 20 C6.11612257 22.07741505 9.3351268 22.50024456 13 23 C12.360625 23.28875 11.72125 23.5775 11.0625 23.875 C8.84793921 24.82823451 8.84793921 24.82823451 8 27 C3.52354795 25.63219521 1.39315117 24.04360025 -1 20 C-1.34341891 16.52529941 -1.05903474 13.15800924 -0.75 9.6875 C-0.68425781 8.75615234 -0.61851563 7.82480469 -0.55078125 6.86523438 C-0.38633059 4.57467158 -0.20220182 2.28748761 0 0 Z " fill="#e02e88" transform="translate(82,50)"/>
<path d="M0 0 C1.47118538 0.0001133 1.47118538 0.0001133 2.97209167 0.00022888 C4.028423 0.00539017 5.08475433 0.01055145 6.1730957 0.01586914 C7.79813774 0.01799156 7.79813774 0.01799156 9.45600891 0.02015686 C12.9203262 0.0257598 16.38457915 0.03831281 19.84887695 0.05102539 C22.19588123 0.05604001 24.54288652 0.06060298 26.88989258 0.06469727 C32.64707603 0.07573018 38.4042219 0.09247119 44.16137695 0.11352539 C44.16137695 0.44352539 44.16137695 0.77352539 44.16137695 1.11352539 C43.30360153 1.12565567 43.30360153 1.12565567 42.42849731 1.13803101 C36.49140696 1.22390487 30.55465714 1.32340012 24.61791992 1.4309082 C22.40053005 1.46925673 20.18307672 1.5040991 17.96557617 1.53540039 C14.78321607 1.58092365 11.60129514 1.63893858 8.41918945 1.69946289 C7.42331818 1.7110141 6.4274469 1.72256531 5.40139771 1.73446655 C4.48059418 1.75433624 3.55979065 1.77420593 2.61108398 1.79467773 C1.39196823 1.81466324 1.39196823 1.81466324 0.14822388 1.83505249 C-2.06902363 1.9425162 -2.06902363 1.9425162 -3.83862305 4.11352539 C-3.83862305 3.45352539 -3.83862305 2.79352539 -3.83862305 2.11352539 C-5.48862305 2.44352539 -7.13862305 2.77352539 -8.83862305 3.11352539 C-7.02047436 -0.52277199 -3.63088326 -0.00933389 0 0 Z " fill="#e02e88" transform="translate(25.838623046875,128.886474609375)"/>
<path d="M0 0 C2.5 2.3125 2.5 2.3125 5 5 C5 5.99 5 6.98 5 8 C5.66 8.33 6.32 8.66 7 9 C6.01 9.33 5.02 9.66 4 10 C1.3125 8.5625 1.3125 8.5625 -1 7 C-1.33 7.66 -1.66 8.32 -2 9 C-2 2 -2 2 0 0 Z " fill="#e02e88" transform="translate(83,222)"/>
<path d="M0 0 C1.9375 0.6875 1.9375 0.6875 2.9375 2.6875 C1.9475 2.6875 0.9575 2.6875 -0.0625 2.6875 C-0.0625 3.3475 -0.0625 4.0075 -0.0625 4.6875 C-1.0525 5.1825 -1.0525 5.1825 -2.0625 5.6875 C-2.78409424 7.33113134 -3.45601421 8.99800386 -4.0625 10.6875 C-4.3925 10.6875 -4.7225 10.6875 -5.0625 10.6875 C-5.3925 8.0475 -5.7225 5.4075 -6.0625 2.6875 C-5.4025 2.6875 -4.7425 2.6875 -4.0625 2.6875 C-4.0625 2.0275 -4.0625 1.3675 -4.0625 0.6875 C-2.0625 -0.3125 -2.0625 -0.3125 0 0 Z " fill="#e02e88" transform="translate(87.0625,145.3125)"/>
<path d="M0 0 C0.66 0.33 1.32 0.66 2 1 C1.25 3.4375 1.25 3.4375 0 6 C-2.125 6.8125 -2.125 6.8125 -4 7 C-4 6.34 -4 5.68 -4 5 C-5.65 5.66 -7.3 6.32 -9 7 C-9 5.68 -9 4.36 -9 3 C-4.545 2.505 -4.545 2.505 0 2 C0 1.34 0 0.68 0 0 Z " fill="#e02e88" transform="translate(114,70)"/>
<path d="M0 0 C0.33 0.99 0.66 1.98 1 3 C0.67 3.33 0.34 3.66 0 4 C3.3 4.33 6.6 4.66 10 5 C10 5.33 10 5.66 10 6 C8.08364783 6.05423638 6.16685075 6.09289963 4.25 6.125 C2.64898438 6.15980469 2.64898438 6.15980469 1.015625 6.1953125 C-1.92470106 6.00487687 -3.52361878 5.52670104 -6 4 C-2.25 0 -2.25 0 0 0 Z " fill="#e02e88" transform="translate(23,224)"/>
<path d="M0 0 C0.99 0.33 1.98 0.66 3 1 C2.67 1.66 2.34 2.32 2 3 C1.76827173 5.54615009 1.58105471 8.07396225 1.4375 10.625 C1.39431641 11.33140625 1.35113281 12.0378125 1.30664062 12.765625 C1.20055249 14.51018537 1.09977111 16.25506697 1 18 C0.67 18 0.34 18 0 18 C0 13.71 0 9.42 0 5 C-0.66 4.67 -1.32 4.34 -2 4 C-2 3.01 -2 2.02 -2 1 C-1.34 0.67 -0.68 0.34 0 0 Z " fill="#e02e88" transform="translate(410,273)"/>
<path d="M0 0 C-0.33 1.98 -0.66 3.96 -1 6 C-1.99 6 -2.98 6 -4 6 C-4.66 4.02 -5.32 2.04 -6 0 C-3 -1 -3 -1 0 0 Z " fill="#e02e88" transform="translate(415,361)"/>
<path d="M0 0 C1.875 0.625 1.875 0.625 4 2 C5.25 5.125 5.25 5.125 6 8 C3.625 7.3125 3.625 7.3125 1 6 C-0.3125 3.375 -0.3125 3.375 -1 1 C-0.67 0.67 -0.34 0.34 0 0 Z " fill="#e02e88" transform="translate(472,301)"/>
<path d="M0 0 C3.3 0 6.6 0 10 0 C10.33 0.99 10.66 1.98 11 3 C10.34 3 9.68 3 9 3 C8.67 3.66 8.34 4.32 8 5 C7.34 4.34 6.68 3.68 6 3 C2.99340864 1.933145 2.14820941 1.95059686 -1 3 C-0.67 2.01 -0.34 1.02 0 0 Z " fill="#e02e88" transform="translate(398,242)"/>
<path d="M0 0 C-0.33 0.61875 -0.66 1.2375 -1 1.875 C-2.14193235 3.91018344 -2.14193235 3.91018344 -2 6 C-4.475 5.01 -4.475 5.01 -7 4 C-7 3.01 -7 2.02 -7 1 C-3.375 -1.125 -3.375 -1.125 0 0 Z " fill="#e02e88" transform="translate(391,25)"/>
<path d="M0 0 C0.33 0.99 0.66 1.98 1 3 C-0.65 4.65 -2.3 6.3 -4 8 C-4.33 6.68 -4.66 5.36 -5 4 C-3.35 2.68 -1.7 1.36 0 0 Z " fill="#e02e88" transform="translate(477,360)"/>
<path d="M0 0 C3.79588866 0.54226981 5.47211993 2.20127563 8 5 C7.67 5.66 7.34 6.32 7 7 C5.0625 6.625 5.0625 6.625 3 6 C2.67 5.34 2.34 4.68 2 4 C1.34 3.34 0.68 2.68 0 2 C0 1.34 0 0.68 0 0 Z " fill="#e02e88" transform="translate(73,28)"/>
<path d="M0 0 C0.33 0.66 0.66 1.32 1 2 C0.01 3.485 0.01 3.485 -1 5 C-1.66 5 -2.32 5 -3 5 C-3 4.34 -3 3.68 -3 3 C-5.97 3 -8.94 3 -12 3 C-12 2.67 -12 2.34 -12 2 C-8.04 1.34 -4.08 0.68 0 0 Z " fill="#e02e88" transform="translate(113,226)"/>
<path d="M0 0 C0.66 0.33 1.32 0.66 2 1 C1.67 2.32 1.34 3.64 1 5 C-0.32 5 -1.64 5 -3 5 C-3 4.01 -3 3.02 -3 2 C-2.01 1.34 -1.02 0.68 0 0 Z " fill="#e02e88" transform="translate(174,368)"/>
<path d="M0 0 C2 1 2 1 4 3 C4 4.32 4 5.64 4 7 C3.01 7 2.02 7 1 7 C0.67 4.69 0.34 2.38 0 0 Z " fill="#e02e88" transform="translate(464,337)"/>
<path d="M0 0 C0.99 0.99 1.98 1.98 3 3 C2.34 4.32 1.68 5.64 1 7 C0.34 7 -0.32 7 -1 7 C-1.33 5.35 -1.66 3.7 -2 2 C-1.34 2 -0.68 2 0 2 C0 1.34 0 0.68 0 0 Z " fill="#e02e88" transform="translate(414,265)"/>
<path d="M0 0 C2.0625 2.3125 2.0625 2.3125 4 5 C3.67 5.99 3.34 6.98 3 8 C2.34 6.68 1.68 5.36 1 4 C0.34 4 -0.32 4 -1 4 C-0.67 2.68 -0.34 1.36 0 0 Z " fill="#e02e88" transform="translate(474,200)"/>
<path d="M0 0 C2.64 0 5.28 0 8 0 C7.0409375 0.433125 7.0409375 0.433125 6.0625 0.875 C3.84793921 1.82823451 3.84793921 1.82823451 3 4 C2.01 3.67 1.02 3.34 0 3 C0 2.01 0 1.02 0 0 Z " fill="#e02e88" transform="translate(87,73)"/>
</svg>
