<svg id="visual" viewBox="0 0 900 600" width="900" height="600" xmlns="http://www.w3.org/2000/svg" xmlns:xlink="http://www.w3.org/1999/xlink" version="1.1"><rect x="0" y="0" width="900" height="600" fill="#FFFFFF"></rect><defs><linearGradient id="grad1_0" x1="33.3%" y1="0%" x2="100%" y2="100%"><stop offset="20%" stop-color="#ffffff" stop-opacity="1"></stop><stop offset="80%" stop-color="#ffffff" stop-opacity="1"></stop></linearGradient></defs><defs><linearGradient id="grad2_0" x1="0%" y1="0%" x2="66.7%" y2="100%"><stop offset="20%" stop-color="#ffffff" stop-opacity="1"></stop><stop offset="80%" stop-color="#ffffff" stop-opacity="1"></stop></linearGradient></defs><g transform="translate(900, 0)"><path d="M0 378.6C-24.1 340.1 -48.2 301.6 -79.2 295.6C-110.2 289.6 -148.2 316.1 -184 318.7C-219.8 321.3 -253.5 300 -267.7 267.7C-281.9 235.4 -276.6 192.2 -276.3 159.5C-275.9 126.8 -280.6 104.8 -298.5 80C-316.4 55.2 -347.5 27.6 -378.6 0L0 0Z" fill="#e02e88"></path></g><g transform="translate(0, 600)"><path d="M0 -378.6C30.9 -358.2 61.8 -337.7 85.2 -317.8C108.5 -297.8 124.4 -278.4 159 -275.4C193.6 -272.4 247.1 -286 267.7 -267.7C288.3 -249.4 276.2 -199.3 290.1 -167.5C304.1 -135.7 344.1 -122.2 363.2 -97.3C382.3 -72.4 380.4 -36.2 378.6 0L0 0Z" fill="#e02e88"></path></g></svg>