<svg id="visual" viewBox="0 0 960 540" width="960" height="540" xmlns="http://www.w3.org/2000/svg" xmlns:xlink="http://www.w3.org/1999/xlink" version="1.1"><g transform="translate(462.2572012812634 244.40823731596828)"><path d="M137.2 -232.6C172.7 -217.1 192.9 -170 213.6 -126C234.4 -82 255.7 -41 268.9 7.6C282.1 56.2 287.2 112.5 263.6 151.6C240 190.7 187.8 212.7 139 235.3C90.3 257.8 45.2 280.9 -4.1 288C-53.3 295 -106.7 286.1 -151.8 261.5C-197 236.9 -234 196.7 -242.5 150.5C-251 104.3 -231 52.2 -223.3 4.4C-215.7 -43.3 -220.4 -86.7 -206.9 -124.1C-193.3 -161.4 -161.4 -192.9 -123.9 -207.2C-86.3 -221.5 -43.2 -218.8 3.8 -225.4C50.8 -232 101.7 -248.1 137.2 -232.6" fill="#f9c9e1"></path></g></svg>