<svg id="visual" viewBox="0 0 900 450" width="900" height="450" xmlns="http://www.w3.org/2000/svg" xmlns:xlink="http://www.w3.org/1999/xlink" version="1.1"><rect x="0" y="0" width="900" height="450" fill="#fff"></rect><defs><linearGradient id="grad1_0" x1="50%" y1="0%" x2="100%" y2="100%"><stop offset="10%" stop-color="#e02e88" stop-opacity="1"></stop><stop offset="90%" stop-color="#e02e88" stop-opacity="1"></stop></linearGradient></defs><defs><linearGradient id="grad1_1" x1="50%" y1="0%" x2="100%" y2="100%"><stop offset="10%" stop-color="#e02e88" stop-opacity="1"></stop><stop offset="90%" stop-color="#ffffff" stop-opacity="1"></stop></linearGradient></defs><defs><linearGradient id="grad2_0" x1="0%" y1="0%" x2="50%" y2="100%"><stop offset="10%" stop-color="#e02e88" stop-opacity="1"></stop><stop offset="90%" stop-color="#e02e88" stop-opacity="1"></stop></linearGradient></defs><defs><linearGradient id="grad2_1" x1="0%" y1="0%" x2="50%" y2="100%"><stop offset="10%" stop-color="#ffffff" stop-opacity="1"></stop><stop offset="90%" stop-color="#e02e88" stop-opacity="1"></stop></linearGradient></defs><g transform="translate(900, 0)"><path d="M0 405C-46.8 388.9 -93.5 372.8 -148.1 357.5C-202.7 342.2 -265 327.7 -286.4 286.4C-307.8 245.1 -288.2 176.9 -301.2 124.8C-314.1 72.6 -359.6 36.3 -405 0L0 0Z" fill="#f7a2c2"></path><path d="M0 202.5C-23.4 194.5 -46.8 186.4 -74 178.8C-101.3 171.1 -132.5 163.8 -143.2 143.2C-153.9 122.5 -144.1 88.5 -150.6 62.4C-157.1 36.3 -179.8 18.1 -202.5 0L0 0Z" fill="#e02e88"></path></g><g transform="translate(0, 450)"><path d="M0 -405C52 -387.9 103.9 -370.9 142 -342.8C180 -314.6 204.2 -275.4 245.4 -245.4C286.5 -215.3 344.7 -194.4 374.2 -155C403.6 -115.6 404.3 -57.8 405 0L0 0Z" fill="#f7a2c2"></path><path d="M0 -202.5C26 -194 52 -185.4 71 -171.4C90 -157.3 102.1 -137.7 122.7 -122.7C143.3 -107.6 172.4 -97.2 187.1 -77.5C201.8 -57.8 202.2 -28.9 202.5 0L0 0Z" fill="#e02e88"></path></g></svg>