<svg id="visual" viewBox="0 0 900 600" width="900" height="600" xmlns="http://www.w3.org/2000/svg" xmlns:xlink="http://www.w3.org/1999/xlink" version="1.1"><rect x="0" y="0" width="900" height="600" fill="#FFFFFF"></rect><defs><linearGradient id="grad1_0" x1="33.3%" y1="100%" x2="100%" y2="0%"><stop offset="20%" stop-color="#ffffff" stop-opacity="1"></stop><stop offset="80%" stop-color="#ffffff" stop-opacity="1"></stop></linearGradient></defs><defs><linearGradient id="grad2_0" x1="0%" y1="100%" x2="66.7%" y2="0%"><stop offset="20%" stop-color="#ffffff" stop-opacity="1"></stop><stop offset="80%" stop-color="#ffffff" stop-opacity="1"></stop></linearGradient></defs><g transform="translate(900, 600)"><path d="M-378.6 0C-340.1 -24.1 -301.6 -48.2 -295.6 -79.2C-289.6 -110.2 -316.1 -148.2 -318.7 -184C-321.3 -219.8 -300 -253.5 -267.7 -267.7C-235.4 -281.9 -192.2 -276.6 -159.5 -276.3C-126.8 -275.9 -104.8 -280.6 -80 -298.5C-55.2 -316.4 -27.6 -347.5 0 -378.6L0 0Z" fill="#e02e88"></path></g><g transform="translate(0, 0)"><path d="M378.6 0C358.2 30.9 337.7 61.8 317.8 85.2C297.8 108.5 278.4 124.4 275.4 159C272.4 193.6 286 247.1 267.7 267.7C249.4 288.3 199.3 276.2 167.5 290.1C135.7 304.1 122.2 344.1 97.3 363.2C72.4 382.3 36.2 380.4 0 378.6L0 0Z" fill="#e02e88"></path></g></svg>