<?xml version="1.0" encoding="UTF-8"?>
<svg version="1.1" xmlns="http://www.w3.org/2000/svg" width="49" height="68">
<path d="M0 0 C4.79631644 2.94319418 7.31305902 6.70336811 9 12 C9.83827377 18.03557112 9.38724563 22.78885288 6 28 C5.34 28.66 4.68 29.32 4 30 C4.804375 30.94875 5.60875 31.8975 6.4375 32.875 C10.93449291 38.17914548 10.47215046 43.21172364 10 50 C8.27431239 55.48159593 4.72023682 58.89289266 0 62 C-7.52645952 65.7283204 -15.57073819 66.16556899 -23.625 63.9375 C-29.80077546 61.60515927 -35.1601804 57.38976188 -38.0625 51.375 C-39.02722278 47.90199798 -38.83014831 46.40186648 -38 43 C-36.2508503 42.66223316 -34.50063855 42.32996329 -32.75 42 C-31.77546875 41.814375 -30.8009375 41.62875 -29.796875 41.4375 C-27 41 -27 41 -23 41 C-22.566875 42.11375 -22.13375 43.2275 -21.6875 44.375 C-20.30088881 48.17512334 -20.30088881 48.17512334 -17 50 C-13.20730473 50.32278258 -10.03699041 50.47458478 -7 48 C-5.82889551 45.1403994 -5.82889551 45.1403994 -6 42 C-8.23117504 38.96250922 -9.4964986 38.09486258 -13.234375 37.390625 C-14.39453125 37.34421875 -15.5546875 37.2978125 -16.75 37.25 C-18.8125 37.1675 -20.875 37.085 -23 37 C-23 32.71 -23 28.42 -23 24 C-20.15375 23.8453125 -20.15375 23.8453125 -17.25 23.6875 C-12.81882813 23.44667544 -10.32851768 23.01343955 -7 20 C-7.44703986 15.52116304 -7.44703986 15.52116304 -10 12 C-15.17647482 11.44743358 -15.17647482 11.44743358 -19.875 13.125 C-21.38007406 15.63345676 -22.19067037 18.19847437 -23 21 C-28.56890517 20.52013969 -33.67067568 19.70084819 -39 18 C-37.24175662 9.50182368 -34.22156224 4.19952482 -27 -1 C-18.16741614 -4.54043515 -8.48520637 -4.24260318 0 0 Z " fill="#e02e88" transform="translate(39,3)"/>
</svg>
