<?xml version="1.0" encoding="UTF-8"?>
<svg version="1.1" xmlns="http://www.w3.org/2000/svg" width="50" height="67">
<path d="M0 0 C14.19 0 28.38 0 43 0 C43 4.95 43 9.9 43 15 C33.43 15 23.86 15 14 15 C14 17.64 14 20.28 14 23 C14.99 22.96519531 15.98 22.93039063 17 22.89453125 C33.25563443 22.48278772 33.25563443 22.48278772 38.99609375 27.875 C44.81767355 34.24711149 45.36657417 38.91422565 45.26953125 47.48046875 C44.83083034 53.20901258 43.31872657 56.75672006 39.19921875 60.7421875 C31.86365948 66.69609774 24.23686715 67.81960934 15 67 C8.42751061 65.75852978 3.47780987 62.97669629 -1 58 C-3.99319006 53.41044191 -4.53902423 49.34731894 -5 44 C-2.89679937 43.49595192 -0.79240209 42.99689492 1.3125 42.5 C2.48425781 42.2215625 3.65601563 41.943125 4.86328125 41.65625 C8 41 8 41 11 41 C11.391875 42.258125 11.78375 43.51625 12.1875 44.8125 C13.28799499 47.69937987 13.92123527 48.927799 16.25 51.0625 C19.93841643 52.31991469 22.2634839 52.03792114 26 51 C28.16666667 49.5 28.16666667 49.5 29 47 C29.00668717 43.37942732 29.00668717 43.37942732 28 40 C24.56238884 37.70825923 23.07928385 37.70475953 19.01953125 37.5859375 C17.85615234 37.54726563 16.69277344 37.50859375 15.49414062 37.46875 C14.27919922 37.4378125 13.06425781 37.406875 11.8125 37.375 C10.58595703 37.33632813 9.35941406 37.29765625 8.09570312 37.2578125 C5.06395344 37.16343897 2.03221159 37.07785451 -1 37 C-1.02493556 33.01644868 -1.04297028 29.03292833 -1.05493164 25.04931641 C-1.06236421 23.03676759 -1.07507829 21.02424051 -1.08789062 19.01171875 C-1.09111328 17.72910156 -1.09433594 16.44648438 -1.09765625 15.125 C-1.10289307 13.95195312 -1.10812988 12.77890625 -1.11352539 11.5703125 C-0.99038709 7.69767913 -0.48058382 3.84467052 0 0 Z " fill="#e02e88" transform="translate(5,0)"/>
</svg>
